<svg xmlns="http://www.w3.org/2000/svg" version="1.1" xmlns:xlink="http://www.w3.org/1999/xlink"
    xmlns:svgjs="http://svgjs.dev/svgjs" viewBox="0 0 1422 800">
    <g stroke-width="1" stroke="hsl(0, 0%, 45%)" fill="none" stroke-linecap="round">
        <path d="M 0 700 Q 355.5 275 711 400 Q 1066.5 525 1422 700" opacity="0.05"></path>
        <path d="M 0 690 Q 355.5 275 711 400 Q 1066.5 525 1422 690" opacity="0.06"></path>
        <path d="M 0 680 Q 355.5 275 711 400 Q 1066.5 525 1422 680" opacity="0.08"></path>
        <path d="M 0 670 Q 355.5 275 711 400 Q 1066.5 525 1422 670" opacity="0.09"></path>
        <path d="M 0 660 Q 355.5 275 711 400 Q 1066.5 525 1422 660" opacity="0.11"></path>
        <path d="M 0 650 Q 355.5 275 711 400 Q 1066.5 525 1422 650" opacity="0.12"></path>
        <path d="M 0 640 Q 355.5 275 711 400 Q 1066.5 525 1422 640" opacity="0.13"></path>
        <path d="M 0 630 Q 355.5 275 711 400 Q 1066.5 525 1422 630" opacity="0.15"></path>
        <path d="M 0 620 Q 355.5 275 711 400 Q 1066.5 525 1422 620" opacity="0.16"></path>
        <path d="M 0 610 Q 355.5 275 711 400 Q 1066.5 525 1422 610" opacity="0.17"></path>
        <path d="M 0 600 Q 355.5 275 711 400 Q 1066.5 525 1422 600" opacity="0.19"></path>
        <path d="M 0 590 Q 355.5 275 711 400 Q 1066.5 525 1422 590" opacity="0.20"></path>
        <path d="M 0 580 Q 355.5 275 711 400 Q 1066.5 525 1422 580" opacity="0.22"></path>
        <path d="M 0 570 Q 355.5 275 711 400 Q 1066.5 525 1422 570" opacity="0.23"></path>
        <path d="M 0 560 Q 355.5 275 711 400 Q 1066.5 525 1422 560" opacity="0.24"></path>
        <path d="M 0 550 Q 355.5 275 711 400 Q 1066.5 525 1422 550" opacity="0.26"></path>
        <path d="M 0 540 Q 355.5 275 711 400 Q 1066.5 525 1422 540" opacity="0.27"></path>
        <path d="M 0 530 Q 355.5 275 711 400 Q 1066.5 525 1422 530" opacity="0.28"></path>
        <path d="M 0 520 Q 355.5 275 711 400 Q 1066.5 525 1422 520" opacity="0.30"></path>
        <path d="M 0 510 Q 355.5 275 711 400 Q 1066.5 525 1422 510" opacity="0.31"></path>
        <path d="M 0 500 Q 355.5 275 711 400 Q 1066.5 525 1422 500" opacity="0.33"></path>
        <path d="M 0 490 Q 355.5 275 711 400 Q 1066.5 525 1422 490" opacity="0.34"></path>
        <path d="M 0 480 Q 355.5 275 711 400 Q 1066.5 525 1422 480" opacity="0.35"></path>
        <path d="M 0 470 Q 355.5 275 711 400 Q 1066.5 525 1422 470" opacity="0.37"></path>
        <path d="M 0 460 Q 355.5 275 711 400 Q 1066.5 525 1422 460" opacity="0.38"></path>
        <path d="M 0 450 Q 355.5 275 711 400 Q 1066.5 525 1422 450" opacity="0.39"></path>
        <path d="M 0 440 Q 355.5 275 711 400 Q 1066.5 525 1422 440" opacity="0.41"></path>
        <path d="M 0 430 Q 355.5 275 711 400 Q 1066.5 525 1422 430" opacity="0.42"></path>
        <path d="M 0 420 Q 355.5 275 711 400 Q 1066.5 525 1422 420" opacity="0.44"></path>
        <path d="M 0 410 Q 355.5 275 711 400 Q 1066.5 525 1422 410" opacity="0.45"></path>
        <path d="M 0 400 Q 355.5 275 711 400 Q 1066.5 525 1422 400" opacity="0.46"></path>
        <path d="M 0 390 Q 355.5 275 711 400 Q 1066.5 525 1422 390" opacity="0.48"></path>
        <path d="M 0 380 Q 355.5 275 711 400 Q 1066.5 525 1422 380" opacity="0.49"></path>
        <path d="M 0 370 Q 355.5 275 711 400 Q 1066.5 525 1422 370" opacity="0.50"></path>
        <path d="M 0 360 Q 355.5 275 711 400 Q 1066.5 525 1422 360" opacity="0.52"></path>
        <path d="M 0 350 Q 355.5 275 711 400 Q 1066.5 525 1422 350" opacity="0.53"></path>
        <path d="M 0 340 Q 355.5 275 711 400 Q 1066.5 525 1422 340" opacity="0.55"></path>
        <path d="M 0 330 Q 355.5 275 711 400 Q 1066.5 525 1422 330" opacity="0.56"></path>
        <path d="M 0 320 Q 355.5 275 711 400 Q 1066.5 525 1422 320" opacity="0.57"></path>
        <path d="M 0 310 Q 355.5 275 711 400 Q 1066.5 525 1422 310" opacity="0.59"></path>
        <path d="M 0 300 Q 355.5 275 711 400 Q 1066.5 525 1422 300" opacity="0.60"></path>
        <path d="M 0 290 Q 355.5 275 711 400 Q 1066.5 525 1422 290" opacity="0.61"></path>
        <path d="M 0 280 Q 355.5 275 711 400 Q 1066.5 525 1422 280" opacity="0.63"></path>
        <path d="M 0 270 Q 355.5 275 711 400 Q 1066.5 525 1422 270" opacity="0.64"></path>
        <path d="M 0 260 Q 355.5 275 711 400 Q 1066.5 525 1422 260" opacity="0.66"></path>
        <path d="M 0 250 Q 355.5 275 711 400 Q 1066.5 525 1422 250" opacity="0.67"></path>
        <path d="M 0 240 Q 355.5 275 711 400 Q 1066.5 525 1422 240" opacity="0.68"></path>
        <path d="M 0 230 Q 355.5 275 711 400 Q 1066.5 525 1422 230" opacity="0.70"></path>
        <path d="M 0 220 Q 355.5 275 711 400 Q 1066.5 525 1422 220" opacity="0.71"></path>
        <path d="M 0 210 Q 355.5 275 711 400 Q 1066.5 525 1422 210" opacity="0.72"></path>
        <path d="M 0 200 Q 355.5 275 711 400 Q 1066.5 525 1422 200" opacity="0.74"></path>
        <path d="M 0 190 Q 355.5 275 711 400 Q 1066.5 525 1422 190" opacity="0.75"></path>
        <path d="M 0 180 Q 355.5 275 711 400 Q 1066.5 525 1422 180" opacity="0.77"></path>
        <path d="M 0 170 Q 355.5 275 711 400 Q 1066.5 525 1422 170" opacity="0.78"></path>
        <path d="M 0 160 Q 355.5 275 711 400 Q 1066.5 525 1422 160" opacity="0.79"></path>
        <path d="M 0 150 Q 355.5 275 711 400 Q 1066.5 525 1422 150" opacity="0.81"></path>
        <path d="M 0 140 Q 355.5 275 711 400 Q 1066.5 525 1422 140" opacity="0.82"></path>
        <path d="M 0 130 Q 355.5 275 711 400 Q 1066.5 525 1422 130" opacity="0.83"></path>
        <path d="M 0 120 Q 355.5 275 711 400 Q 1066.5 525 1422 120" opacity="0.85"></path>
        <path d="M 0 110 Q 355.5 275 711 400 Q 1066.5 525 1422 110" opacity="0.86"></path>
        <path d="M 0 100 Q 355.5 275 711 400 Q 1066.5 525 1422 100" opacity="0.88"></path>
        <path d="M 0 90 Q 355.5 275 711 400 Q 1066.5 525 1422 90" opacity="0.89"></path>
        <path d="M 0 80 Q 355.5 275 711 400 Q 1066.5 525 1422 80" opacity="0.90"></path>
        <path d="M 0 70 Q 355.5 275 711 400 Q 1066.5 525 1422 70" opacity="0.92"></path>
        <path d="M 0 60 Q 355.5 275 711 400 Q 1066.5 525 1422 60" opacity="0.93"></path>
        <path d="M 0 50 Q 355.5 275 711 400 Q 1066.5 525 1422 50" opacity="0.94"></path>
        <path d="M 0 40 Q 355.5 275 711 400 Q 1066.5 525 1422 40" opacity="0.96"></path>
        <path d="M 0 30 Q 355.5 275 711 400 Q 1066.5 525 1422 30" opacity="0.97"></path>
        <path d="M 0 20 Q 355.5 275 711 400 Q 1066.5 525 1422 20" opacity="0.99"></path>
    </g>
</svg>