<svg xmlns="http://www.w3.org/2000/svg" version="1.1" xmlns:xlink="http://www.w3.org/1999/xlink" xmlns:svgjs="http://svgjs.dev/svgjs" viewBox="0 0 1422 800"><defs><linearGradient x1="50%" y1="0%" x2="50%" y2="100%" id="ccchaos-grad"><stop stop-color="hsl(0, 0%, 33%)" stop-opacity="1" offset="0%"></stop><stop stop-color="hsl(0, 0%, 73%)" stop-opacity="1" offset="100%"></stop></linearGradient></defs><g stroke-width="1" stroke="url(#ccchaos-grad)" fill="none" stroke-linecap="round"><path d="M747.25 206.63Q752.34 214.01 756.82 222.48 760.74 231.95 764.13 242.32 767.07 253.43 769.61 265.12 771.82 277.18 773.78 289.39 775.58 301.54 777.31 313.39 779.06 324.71 780.93 335.28 785.63 352.82 791.56 366.64 784.89 377.68 781.44 388.72 781.38 399.76 784.73 410.8 791.3 421.84 800.77 432.88 812.66 443.91 826.37 454.95 841.19 465.99 856.38 477.03 871.18 488.07 884.82 499.11 896.63 510.15 906 521.18 909.4 540.22 896.19 551.18 885.23 552.19 873.54 551.33 861.17 548.75 848.2 544.66 834.72 539.31 820.79 533.01 806.52 526.09 791.98 518.92 777.28 511.86 762.5 505.29 747.73 499.58 733.05 495.08 718.55 492.1 704.3 490.91 684.81 477.09 671.45 483.87 665.24 489.88 658.48 496.45 651.17 503.22 643.3 509.82 634.91 515.91 626.01 521.15 610.91 521.2 602 506.39 597.36 495.62 591.5 484.85 584.73 474.08 577.4 463.3 569.86 452.53 562.51 441.76 555.71 430.99 549.82 420.22 545.12 409.45 541.86 398.68 540.2 387.91 540.23 377.14 541.94 366.36 545.25 355.59 555.22 344.51 565.68 332.69 576.63 320.37 588.06 307.78 599.94 295.17 612.25 282.78 624.95 270.82 637.99 259.5 651.33 249.01 664.89 239.49 678.63 231.06 692.46 223.8 706.32 217.74 720.13 212.9 740.53 207.92 747.25 206.63" stroke-dasharray="0 0" transform="rotate(0, 711, 400)" opacity="0.05"></path><path d="M744.87 209.22Q749.57 216.48 753.72 224.79 757.35 234.09 760.51 244.27 763.25 255.18 765.65 266.66 767.76 278.52 769.67 290.56 771.47 302.56 773.23 314.31 775.04 325.59 777.01 336.18 781.96 353.99 788.17 368.27 782.06 379.11 779.07 389.95 779.35 400.79 782.89 411.63 789.5 422.46 798.88 433.3 810.55 444.14 823.96 454.98 838.44 465.82 853.29 476.66 867.79 487.5 881.22 498.34 892.93 509.18 902.35 520.02 906.36 538.44 893.99 548.43 883.49 548.99 872.28 547.77 860.4 544.95 847.92 540.72 834.92 535.34 821.46 529.09 807.64 522.3 793.53 515.3 779.22 508.45 764.8 502.11 750.35 496.62 735.94 492.3 721.67 489.45 707.6 488.33 687.84 474.18 674.26 480.35 667.98 486.09 661.15 492.42 653.79 499 645.9 505.49 637.5 511.56 628.6 516.88 613.46 517.41 604.32 503.11 599.59 492.57 593.7 482.03 586.94 471.49 579.66 460.95 572.19 450.42 564.91 439.88 558.16 429.34 552.29 418.8 547.58 408.26 544.25 397.73 542.48 387.19 542.33 376.65 543.84 366.11 546.91 355.58 556.59 344.43 566.76 332.63 577.4 320.39 588.51 307.95 600.07 295.54 612.06 283.37 624.44 271.67 637.17 260.63 650.21 250.41 663.5 241.15 676.98 232.95 690.59 225.9 704.26 220.01 717.91 215.3 738.17 210.47 744.87 209.22" stroke-dasharray="0 0" transform="rotate(1.074074074074074, 711, 400)" opacity="0.07"></path><path d="M742.34 211.81Q746.68 218.94 750.52 227.11 753.88 236.24 756.83 246.21 759.4 256.92 761.68 268.19 763.72 279.85 765.6 291.71 767.4 303.57 769.2 315.21 771.09 326.43 773.15 337.03 778.35 355.07 784.84 369.79 779.29 380.43 776.75 391.06 777.35 401.7 781.07 412.33 787.72 422.97 796.99 433.6 808.45 444.24 821.56 454.87 835.7 465.51 850.21 476.14 864.41 486.78 877.62 497.41 889.22 508.05 898.67 518.69 903.25 536.5 891.7 545.56 881.66 545.68 870.92 544.15 859.52 541.11 847.53 536.76 835.01 531.36 822.02 525.17 808.66 518.51 794.98 511.69 781.08 505.06 767.03 498.94 752.92 493.66 738.81 489.52 724.78 486.8 710.92 485.74 698.81 470.25 688.16 469.01 676.75 477.33 663.77 488.4 656.36 494.79 648.44 501.15 640.03 507.18 631.15 512.57 615.97 513.53 606.61 499.72 601.79 489.41 595.88 479.11 589.14 468.81 581.91 458.5 574.51 448.2 567.3 437.9 560.62 427.59 554.78 417.29 550.05 406.99 546.66 396.68 544.77 386.38 544.46 376.08 545.75 365.77 548.59 355.47 557.98 344.28 567.85 332.51 578.18 320.38 588.97 308.1 600.21 295.9 611.87 283.98 623.93 272.54 636.34 261.77 649.08 251.82 662.08 242.81 675.3 234.85 688.66 228 702.12 222.29 715.6 217.72 735.68 213.03 742.34 211.81" stroke-dasharray="0 0" transform="rotate(2.148148148148148, 711, 400)" opacity="0.09"></path><path d="M739.68 214.38Q743.7 221.4 747.25 229.42 750.38 238.37 753.13 248.15 755.56 258.65 757.73 269.71 759.71 281.17 761.58 292.84 763.39 304.54 765.25 316.07 767.22 327.22 769.38 337.81 771.82 347.65 774.62 356.58 777.86 364.46 781.6 371.18 776.57 381.61 774.47 392.04 775.37 402.47 779.25 412.9 785.93 423.33 795.1 433.76 806.35 444.19 819.16 454.62 832.97 465.05 847.14 475.48 861.03 485.91 874.02 496.34 885.5 506.77 894.98 517.2 889.91 538.36 869.45 540.47 858.53 537.23 847.01 532.79 834.97 527.38 822.46 521.26 809.55 514.74 796.32 508.11 782.83 501.69 769.17 495.8 755.41 490.72 741.61 486.76 727.86 484.17 714.22 483.16 701.88 467.7 691.01 466.11 679.43 473.88 666.32 484.43 658.87 490.61 650.93 496.83 642.51 502.8 633.65 508.22 618.44 509.56 608.88 496.23 603.99 486.16 598.05 476.09 591.34 466.02 584.16 455.95 576.84 445.88 569.7 435.81 563.08 425.74 557.27 415.68 552.53 405.61 549.08 395.54 547.07 385.47 546.6 375.4 547.69 365.33 550.29 355.26 559.4 344.05 568.97 332.34 578.99 320.32 589.46 308.22 600.37 296.24 611.71 284.57 623.44 273.4 635.53 262.91 647.95 253.22 660.66 244.47 673.59 236.75 686.7 230.1 699.93 224.56 713.22 220.12 733.08 215.57 739.68 214.38" stroke-dasharray="0 0" transform="rotate(3.222222222222222, 711, 400)" opacity="0.10"></path><path d="M736.89 216.97Q740.61 223.87 743.9 231.73 746.81 240.51 749.39 250.09 751.7 260.38 753.79 271.22 755.73 282.48 757.59 293.96 759.45 305.5 761.36 316.9 763.42 327.97 765.69 338.53 768.25 348.41 771.18 357.44 774.55 365.5 778.42 372.45 773.92 382.67 772.23 392.89 773.42 403.11 777.45 413.34 784.15 423.56 793.21 433.78 804.24 444 816.76 454.23 830.24 464.45 844.07 474.67 857.66 484.89 870.42 495.12 881.78 505.34 891.26 515.56 887.28 535.51 867.87 536.73 857.42 533.32 846.38 528.79 834.82 523.39 822.78 517.36 810.34 510.98 797.55 504.54 784.49 498.33 771.23 492.65 757.83 487.78 744.37 483.99 730.91 481.52 717.52 480.57 704.9 465.16 693.79 463.22 682.04 470.47 668.8 480.49 661.31 486.45 653.36 492.52 644.94 498.41 636.11 503.84 620.88 505.52 611.13 492.65 606.16 482.82 600.21 472.98 593.53 463.15 586.41 453.31 579.16 443.47 572.1 433.64 565.54 423.8 559.76 413.97 555.01 404.13 551.51 394.3 549.4 384.46 548.77 374.63 549.66 364.79 552.02 354.96 560.84 343.75 570.11 332.11 579.82 320.24 589.97 308.33 600.56 296.57 611.56 285.16 622.96 274.27 634.72 264.05 646.82 254.65 659.21 246.15 671.86 238.66 684.69 232.21 697.68 226.84 710.75 222.54 730.36 218.12 736.89 216.97" stroke-dasharray="0 0" transform="rotate(4.296296296296296, 711, 400)" opacity="0.12"></path><path d="M733.99 219.56Q740.32 234.49 745.65 252.03 747.86 262.1 749.89 272.73 751.8 283.77 753.67 295.06 755.57 306.43 757.55 317.69 759.7 328.68 762.08 339.2 764.76 349.1 767.82 358.23 771.32 366.43 775.32 373.6 771.32 383.61 770.03 393.62 771.5 403.63 775.67 413.65 782.37 423.66 791.32 433.67 802.13 443.68 814.37 453.69 827.51 463.7 841 473.71 854.29 483.73 866.81 493.74 878.04 503.75 887.51 513.76 884.57 532.55 866.19 532.94 856.2 529.37 845.63 524.78 834.54 519.4 822.97 513.46 810.99 507.23 798.66 500.98 786.03 494.99 773.18 489.52 760.16 484.85 747.05 481.23 733.91 478.88 720.79 477.99 707.86 462.62 696.5 460.36 684.58 467.09 671.21 476.58 663.69 482.32 655.72 488.22 647.32 494.01 638.51 499.42 623.27 501.4 613.34 488.98 608.31 479.38 602.35 469.78 595.7 460.18 588.64 450.58 581.48 440.98 574.5 431.38 568 421.78 562.26 412.18 557.51 402.58 553.95 392.98 551.74 383.38 550.96 373.78 551.64 364.18 553.77 354.58 562.31 343.4 571.28 331.85 580.68 320.13 590.51 308.42 600.77 296.9 611.44 285.76 622.5 275.14 633.93 265.21 645.7 256.07 657.77 247.83 670.11 240.57 682.66 234.33 695.38 229.12 708.22 224.96 727.55 220.67 733.99 219.56" stroke-dasharray="0 0" transform="rotate(5.37037037037037, 711, 400)" opacity="0.14"></path><path d="M731 222.14Q736.89 236.78 741.91 253.96 744.03 263.82 746.01 274.24 747.92 285.06 749.81 296.15 751.76 307.34 753.82 318.46 756.06 329.34 758.56 339.82 761.36 349.73 764.55 358.92 768.17 367.25 772.29 374.62 768.78 384.42 767.87 394.22 769.6 404.02 773.9 413.82 780.6 423.62 789.42 433.42 800.02 443.22 811.97 453.02 824.78 462.81 837.94 472.61 850.93 482.41 863.21 492.21 874.3 502.01 883.75 511.81 881.79 529.48 864.4 529.09 854.86 525.39 844.76 520.76 834.13 515.41 823.04 509.57 811.52 503.5 799.64 497.44 787.45 491.66 775.02 486.41 762.39 481.94 749.65 478.48 736.83 476.24 724.01 475.41 710.74 460.1 699.12 457.53 687.04 463.74 673.55 472.71 666.01 478.22 658.03 483.94 649.64 489.61 640.86 495 625.63 497.22 615.53 485.23 610.45 475.86 604.48 466.5 597.87 457.13 590.88 447.76 583.79 438.4 576.9 429.03 570.47 419.67 564.76 410.3 560.01 400.94 556.41 391.57 554.09 382.2 553.16 372.84 553.65 363.47 555.54 354.11 563.81 342.98 572.48 331.54 581.57 319.99 591.08 308.49 601.01 297.23 611.35 286.35 622.07 276.02 633.16 266.37 644.6 257.5 656.34 249.52 668.36 242.49 680.62 236.44 693.06 231.41 705.64 227.37 724.65 223.22 731 222.14" stroke-dasharray="0 0" transform="rotate(6.444444444444444, 711, 400)" opacity="0.16"></path><path d="M727.91 224.72Q733.55 238.66 738.17 255.89 742.19 275.73 746.03 297.22 750.17 319.19 755.13 340.37 761.36 359.52 769.34 375.52 765.75 394.69 772.13 413.86 787.53 433.03 809.57 452.2 834.89 471.37 859.61 490.55 879.44 519.67 862.51 525.21 843.76 516.73 822.97 505.7 800.5 493.91 776.74 483.3 752.15 475.73 727.19 472.82 720.3 460.44 711.84 454.55 701.65 454.73 689.64 459.98 675.82 468.88 660.27 479.69 643.16 490.56 624.71 499.67 617.7 481.41 606.6 463.14 593.11 444.88 579.3 426.61 567.27 408.35 558.88 390.08 555.39 371.82 557.35 353.56 573.71 331.19 591.69 308.56 611.29 286.95 632.42 267.53 654.92 251.21 678.56 238.56 703.01 229.79 727.91 224.72 727.91 224.72 727.91 224.72" stroke-dasharray="0 0" transform="rotate(7.518518518518518, 711, 400)" opacity="0.17"></path><path d="M724.75 227.31Q730.03 240.97 734.45 257.82 738.4 277.23 742.3 298.29 746.61 319.91 751.77 340.89 758.25 360.05 766.45 376.31 763.67 395.05 770.39 413.78 785.64 432.52 807.18 451.26 831.84 470 856.02 488.73 876.13 516.8 860.51 521.26 842.65 512.68 822.78 501.83 801.22 490.4 778.35 480.21 754.56 472.98 730.29 470.23 723.18 458.06 714.49 452.1 704.09 451.95 691.92 456.71 678.01 465.08 662.44 475.45 645.4 486.1 627.1 495.31 619.83 477.52 608.7 459.72 595.34 441.93 581.7 424.13 569.79 406.33 561.36 388.54 557.64 370.74 559.19 352.94 574.98 330.82 592.33 308.62 611.26 287.56 631.7 268.72 653.52 252.92 676.49 240.7 700.35 232.21 724.75 227.31 724.75 227.31 724.75 227.31" stroke-dasharray="0 0" transform="rotate(8.592592592592592, 711, 400)" opacity="0.19"></path><path d="M721.54 229.89Q726.51 243.27 730.77 259.74 734.69 278.71 738.67 299.33 743.14 320.59 748.52 341.34 755.23 360.48 763.65 376.96 761.62 395.27 768.65 413.57 783.74 431.87 804.78 450.18 828.8 468.48 852.42 486.78 857.09 511.23 822.44 497.98 801.8 486.92 779.81 477.13 756.85 470.24 733.3 467.66 725.95 455.7 717.03 449.66 706.43 449.2 694.11 453.49 680.12 461.33 664.55 471.25 647.59 481.64 629.45 490.9 621.95 473.57 610.79 456.24 597.56 438.91 584.1 421.58 572.31 404.25 563.86 386.91 559.92 369.58 561.05 352.25 576.28 330.41 593.02 308.67 611.28 288.17 631.03 269.9 652.15 254.63 674.45 242.82 697.68 234.63 721.54 229.89 721.54 229.89 721.54 229.89" stroke-dasharray="0 0" transform="rotate(9.666666666666666, 711, 400)" opacity="0.21"></path><path d="M718.28 232.48Q722.98 245.58 727.11 261.67 731.03 280.19 735.12 300.37 739.76 321.24 745.36 341.76 752.3 360.84 760.91 377.5 759.61 395.37 766.92 413.23 781.85 431.1 802.38 448.96 825.76 466.83 848.83 484.69 854.71 507.66 821.98 494.13 802.24 483.44 781.14 474.06 759.02 467.5 736.23 465.07 728.63 453.33 719.47 447.23 708.67 446.47 696.21 450.3 682.15 457.62 666.6 467.08 649.73 477.19 631.75 486.44 624.03 469.58 612.87 452.71 599.77 435.84 586.5 418.97 574.84 402.1 566.36 385.23 562.22 368.36 562.95 351.49 577.62 329.97 593.74 308.71 611.34 288.79 630.39 271.1 650.8 256.35 672.41 244.96 694.99 237.06 718.28 232.48 718.28 232.48 718.28 232.48" stroke-dasharray="0 0" transform="rotate(10.74074074074074, 711, 400)" opacity="0.23"></path><path d="M714.99 235.06Q719.47 247.88 723.51 263.59 727.45 281.67 731.65 301.4 736.48 321.88 742.3 342.12 749.45 361.12 758.24 377.93 757.64 395.35 765.2 412.78 779.95 430.2 799.98 447.62 822.72 465.05 845.23 482.47 852.24 504.03 821.37 490.31 802.54 479.98 782.33 471 761.06 464.77 739.04 462.48 731.19 450.96 721.79 444.82 710.8 443.77 698.21 447.15 684.09 453.95 668.57 462.94 651.81 472.74 634.01 481.94 626.09 465.53 614.93 449.12 601.98 432.72 588.9 416.31 577.37 399.91 568.89 383.5 564.54 367.09 564.88 350.69 579 329.51 594.51 308.76 611.45 289.42 629.8 272.31 649.5 258.08 670.4 247.11 692.31 239.49 714.99 235.06 714.99 235.06 714.99 235.06" stroke-dasharray="0 0" transform="rotate(11.814814814814815, 711, 400)" opacity="0.24"></path><path d="M711.68 237.64Q715.98 250.18 719.97 265.51 723.96 283.14 728.29 302.41 733.3 322.48 739.33 342.44 746.69 361.32 755.65 378.23 755.71 395.21 763.49 412.19 778.05 429.17 797.58 446.15 819.68 463.13 841.64 480.12 849.69 500.35 820.63 486.5 802.68 476.54 783.37 467.96 762.95 462.05 741.73 459.9 733.62 448.61 723.99 442.42 712.81 441.1 700.11 444.04 685.96 450.33 670.48 458.85 653.83 468.3 636.23 477.4 628.12 461.45 616.98 445.51 604.18 429.56 591.29 413.61 579.9 397.66 571.42 381.71 566.88 365.76 566.85 349.82 580.42 329.04 595.32 308.81 611.61 290.06 629.27 273.54 648.24 259.82 668.43 249.25 689.64 241.91 711.68 237.64 711.68 237.64 711.68 237.64" stroke-dasharray="0 0" transform="rotate(12.888888888888888, 711, 400)" opacity="0.26"></path><path d="M708.37 240.23Q712.53 252.49 716.49 267.43 720.55 284.61 725.02 303.41 730.23 323.07 736.46 342.71 744.01 361.44 753.13 378.42 753.81 394.95 761.79 411.49 776.14 428.03 795.18 444.57 816.66 461.11 838.06 477.64 847.06 496.63 819.75 482.71 802.68 473.12 784.25 464.93 764.7 459.32 744.29 457.32 735.92 446.24 726.06 440.03 714.72 438.45 701.91 440.97 687.74 446.77 672.31 454.8 655.8 463.89 638.4 472.85 630.13 457.35 619.02 441.86 606.38 426.37 593.69 410.87 582.45 395.38 573.97 379.89 569.25 364.39 568.85 348.9 581.88 328.54 596.19 308.86 611.82 290.71 628.79 274.77 647.04 261.57 666.49 251.4 687 244.34 708.37 240.23 708.37 240.23 708.37 240.23" stroke-dasharray="0 0" transform="rotate(13.962962962962962, 711, 400)" opacity="0.28"></path><path d="M705.06 242.82Q709.12 254.79 713.08 269.35 717.23 286.08 721.86 304.42 727.25 323.64 733.68 342.95 741.42 361.51 750.68 378.5 751.95 394.59 760.11 410.68 774.25 426.78 792.78 442.87 813.63 458.96 834.47 475.05 844.34 492.85 818.73 478.93 802.53 469.72 784.97 461.91 766.29 456.6 746.71 454.73 738.08 443.88 728.01 437.65 716.5 435.83 703.61 437.94 689.43 443.24 674.08 450.78 657.71 459.5 640.53 468.27 632.1 453.23 621.04 438.19 608.57 423.15 596.09 408.11 585 393.07 576.53 378.03 571.65 362.99 570.89 347.95 583.39 328.05 597.1 308.93 612.09 291.38 628.36 276.03 645.9 263.34 664.61 253.57 684.39 246.78 705.06 242.82 705.06 242.82 705.06 242.82" stroke-dasharray="0 0" transform="rotate(15.037037037037036, 711, 400)" opacity="0.30"></path><path d="M701.78 245.4Q705.78 257.09 709.77 271.26 714.02 287.54 718.81 305.4 724.39 324.18 731.01 343.14 738.92 361.49 748.3 378.47 750.12 394.12 758.43 409.76 772.34 425.41 790.38 441.05 810.62 456.7 830.9 472.35 841.55 489.04 817.57 475.17 802.22 466.34 785.53 458.91 767.72 453.89 748.98 452.14 740.09 441.53 729.81 435.28 718.17 433.24 705.21 434.96 691.03 439.77 675.77 446.82 659.57 455.14 642.61 463.69 634.06 449.1 623.05 434.51 610.76 419.92 598.49 405.32 587.55 390.73 579.11 376.14 574.07 361.55 572.97 346.96 584.95 327.54 598.08 309 612.42 292.06 628.01 277.29 644.82 265.1 662.79 255.73 681.83 249.22 701.78 245.4 701.78 245.4 701.78 245.4" stroke-dasharray="0 0" transform="rotate(16.11111111111111, 711, 400)" opacity="0.31"></path><path d="M698.56 247.98Q702.51 259.39 706.55 273.18 710.92 289.01 715.87 306.39 721.63 324.71 728.44 343.29 736.5 361.41 745.99 378.33 748.32 393.54 756.76 408.74 770.44 423.94 787.99 439.14 807.61 454.34 827.33 469.54 838.68 485.2 816.27 471.43 801.75 462.97 785.93 455.91 768.97 451.18 751.08 449.56 741.94 439.18 731.47 432.93 719.71 430.67 706.7 432.01 692.55 436.35 677.39 442.92 661.36 450.82 644.65 459.12 635.99 444.97 625.05 430.82 612.94 416.68 600.89 402.53 590.11 388.38 581.7 374.24 576.52 360.09 575.09 345.94 586.55 327.03 599.1 309.09 612.82 292.77 627.72 278.57 643.81 266.89 661.04 257.9 679.33 251.65 698.56 247.98 698.56 247.98 698.56 247.98" stroke-dasharray="0 0" transform="rotate(17.185185185185183, 711, 400)" opacity="0.33"></path><path d="M695.37 250.57Q699.32 261.69 703.43 275.09 707.93 290.47 713.04 307.36 718.98 325.22 725.96 343.42 734.16 361.27 743.74 378.11 746.56 392.86 755.1 407.61 768.54 422.37 785.59 437.12 804.61 451.87 823.76 466.62 835.73 481.32 814.84 467.72 801.13 459.63 786.15 452.93 770.05 448.47 753.01 446.98 743.63 436.83 732.99 430.59 721.12 428.13 708.08 429.1 693.98 432.98 678.94 439.06 663.1 446.54 646.63 454.54 637.89 440.84 627.04 427.13 615.12 413.43 603.29 399.73 592.68 386.02 584.31 372.32 579 358.61 577.24 344.91 588.2 326.53 600.19 309.19 613.28 293.49 627.51 279.87 642.89 268.68 659.37 260.08 676.9 254.09 695.37 250.57 695.37 250.57 695.37 250.57" stroke-dasharray="0 0" transform="rotate(18.25925925925926, 711, 400)" opacity="0.35"></path><path d="M692.25 253.16Q696.22 263.99 700.42 277.01 705.05 291.93 710.33 308.33 716.45 325.72 723.59 343.51 731.92 361.07 741.56 377.77 744.82 392.08 753.44 406.39 766.63 420.69 783.19 435 801.61 449.31 820.19 463.62 832.71 477.41 813.27 464.02 800.35 456.3 786.2 449.96 770.96 445.77 754.75 444.39 745.16 434.48 734.36 428.25 722.4 425.61 709.35 426.24 695.32 429.66 680.41 435.26 664.78 442.3 648.58 449.99 639.77 436.72 629.01 423.46 617.29 410.19 605.69 396.92 595.25 383.65 586.93 370.39 581.5 357.12 579.44 343.85 589.9 326.03 601.33 309.32 613.81 294.23 627.38 281.19 642.04 270.49 657.78 262.27 674.54 256.54 692.25 253.16 692.25 253.16 692.25 253.16" stroke-dasharray="0 0" transform="rotate(19.333333333333332, 711, 400)" opacity="0.37"></path><path d="M689.23 255.74Q693.23 266.28 697.53 278.91 702.31 293.38 707.75 309.3 714.03 326.2 721.32 343.56 729.75 360.8 739.45 377.34 743.12 391.2 751.79 405.07 764.72 418.93 780.79 432.79 798.61 446.66 816.64 460.52 814.52 463.24 786.08 447.01 771.67 443.08 756.31 441.81 746.52 432.14 735.58 425.94 723.56 423.12 710.52 423.42 696.57 426.41 681.82 431.53 666.41 438.12 650.48 445.46 641.62 432.63 630.97 419.79 619.46 406.96 608.08 394.12 597.82 381.29 589.56 368.45 584.02 355.62 581.68 342.78 591.65 325.54 602.54 309.46 614.42 294.99 627.33 282.52 641.29 272.3 656.29 264.45 680.76 257.35 689.23 255.74" stroke-dasharray="0 0" transform="rotate(20.40740740740741, 711, 400)" opacity="0.38"></path><path d="M686.28 258.32Q690.35 268.58 694.76 280.83 699.68 294.84 705.29 310.26 711.73 326.68 719.15 343.6 727.67 360.5 737.41 376.83 741.45 390.24 750.15 403.66 762.81 417.08 778.39 430.49 795.61 443.91 813.07 457.33 812.39 459.62 785.79 444.06 772.2 440.38 757.67 439.22 747.7 429.79 736.65 423.63 724.58 420.65 711.57 420.64 697.72 423.2 683.15 427.85 667.97 433.98 652.33 440.96 643.44 428.56 632.92 416.15 621.62 403.74 610.48 391.34 600.4 378.93 592.21 366.53 586.58 354.12 583.97 341.72 593.46 325.08 603.81 309.63 615.1 295.79 627.36 283.88 640.62 274.14 654.88 266.65 678.2 259.87 686.28 258.32" stroke-dasharray="0 0" transform="rotate(21.48148148148148, 711, 400)" opacity="0.40"></path><path d="M683.44 260.91Q687.59 270.87 692.13 282.74 697.2 296.29 702.96 311.22 709.54 327.14 717.08 343.6 725.68 360.13 735.43 376.22 739.8 389.2 748.51 402.17 760.9 415.15 775.99 428.12 792.63 441.09 809.53 454.07 810.15 456.01 785.32 441.13 772.54 437.7 758.84 436.64 748.7 427.45 737.56 421.33 725.47 418.21 712.52 417.9 698.79 420.06 684.41 424.24 669.48 429.92 654.14 436.51 645.24 424.53 634.85 412.55 623.78 400.56 612.88 388.58 602.99 376.6 594.88 364.62 589.17 352.63 586.3 340.65 595.32 324.63 605.15 309.82 615.86 296.6 627.48 285.26 640.06 275.98 653.59 268.86 675.76 262.39 683.44 260.91" stroke-dasharray="0 0" transform="rotate(22.555555555555557, 711, 400)" opacity="0.42"></path><path d="M680.74 263.49Q684.97 273.17 689.63 284.65 694.85 297.75 700.75 312.18 707.47 327.59 715.11 343.59 723.76 359.72 733.51 375.54 738.18 388.07 746.88 400.6 758.98 413.14 773.59 425.67 789.65 438.21 805.99 450.74 807.81 452.4 784.67 438.22 772.68 435.02 759.79 434.06 749.52 425.11 738.31 419.04 726.23 415.8 713.35 415.21 699.77 416.97 685.6 420.69 670.94 425.92 655.91 432.11 647.02 420.55 636.78 408.98 625.93 397.42 615.28 385.85 605.58 374.29 597.55 362.72 591.78 351.16 588.67 339.6 597.24 324.21 606.56 310.04 616.7 297.44 627.7 286.65 639.6 277.83 652.42 271.06 673.44 264.9 680.74 263.49" stroke-dasharray="0 0" transform="rotate(23.62962962962963, 711, 400)" opacity="0.44"></path><path d="M678.15 266.08Q682.49 275.46 687.28 286.56 692.64 299.21 698.68 313.14 705.51 328.04 713.23 343.55 721.92 359.27 731.65 374.79 736.6 386.88 745.27 398.97 757.07 411.07 771.19 423.16 786.67 435.25 802.45 447.35 805.35 448.79 783.85 435.31 772.63 432.34 760.54 431.47 750.16 422.77 738.9 416.77 726.85 413.41 714.08 412.55 700.66 413.93 686.71 417.22 672.33 421.98 657.62 427.76 648.76 416.61 638.68 405.46 628.08 394.31 617.67 383.16 608.18 372.01 600.25 360.86 594.42 349.71 591.1 338.57 599.21 323.82 608.03 310.3 617.62 298.31 628.01 288.07 639.25 279.71 651.36 273.28 671.24 267.43 678.15 266.08" stroke-dasharray="0 0" transform="rotate(24.703703703703702, 711, 400)" opacity="0.45"></path><path d="M675.7 268.66Q680.15 277.76 685.07 288.48 690.57 300.67 696.74 314.09 703.67 328.48 711.46 343.5 720.17 358.78 729.85 373.96 735.03 385.62 743.65 397.27 755.15 408.93 768.8 420.59 783.71 432.25 798.93 443.91 802.8 445.19 782.85 432.41 772.38 429.66 761.08 428.88 750.61 420.43 739.34 414.5 727.34 411.04 714.69 409.94 701.46 410.96 687.76 413.81 673.67 418.12 659.3 423.47 650.49 412.74 640.59 402 630.23 391.26 620.08 380.51 610.79 369.77 602.96 359.03 597.09 348.29 593.56 337.55 601.25 323.46 609.58 310.6 618.62 299.22 628.42 289.51 639.02 281.59 650.43 275.51 669.18 269.95 675.7 268.66" stroke-dasharray="0 0" transform="rotate(25.777777777777775, 711, 400)" opacity="0.47"></path><path d="M673.41 271.24Q677.98 280.04 683.03 290.39 688.65 302.12 694.93 315.05 701.95 328.91 709.79 343.43 718.49 358.26 728.11 373.06 733.49 384.29 742.04 395.51 753.23 406.74 766.4 417.96 780.75 429.19 795.41 440.41 800.14 441.61 781.69 429.54 771.94 426.99 761.39 426.31 750.87 418.1 739.62 412.25 727.71 408.71 715.2 407.37 702.18 408.05 688.74 410.48 674.96 414.34 660.94 419.26 652.2 408.93 642.48 398.59 632.37 388.25 622.48 377.92 613.4 367.58 605.68 357.24 599.79 346.9 596.08 336.57 603.34 323.13 611.2 310.92 619.72 300.15 628.94 290.97 638.9 283.49 649.63 277.74 667.27 272.46 673.41 271.24" stroke-dasharray="0 0" transform="rotate(26.85185185185185, 711, 400)" opacity="0.49"></path><path d="M671.28 273.83Q675.96 282.34 681.13 292.3 686.87 303.59 693.25 316.01 700.34 329.35 708.21 343.35 716.89 357.71 726.43 372.12 731.99 382.91 740.44 393.71 751.32 404.5 764 415.29 777.79 426.08 791.89 436.87 784.34 431.18 761.49 423.72 750.95 415.77 739.74 410 727.93 406.39 715.6 404.84 702.81 405.2 689.64 407.22 676.18 410.64 662.52 415.12 653.87 405.19 644.35 395.25 634.5 385.31 624.87 375.38 616.02 365.44 608.42 355.5 602.52 345.56 598.64 335.63 605.49 322.86 612.89 311.3 620.9 301.12 629.55 292.46 638.9 285.41 648.96 279.98 665.52 274.99 671.28 273.83" stroke-dasharray="0 0" transform="rotate(27.925925925925924, 711, 400)" opacity="0.51"></path><path d="M669.32 276.42Q674.12 284.63 679.4 294.22 685.25 305.05 691.71 316.97 698.85 329.78 706.72 343.26 715.36 357.13 724.8 371.12 730.49 381.48 738.84 391.85 749.39 402.21 761.6 412.57 774.84 422.94 788.39 433.3 782.5 428.07 761.38 421.13 750.84 413.44 739.7 407.77 728.03 404.1 715.89 402.36 703.35 402.41 690.48 404.04 677.36 407.02 664.07 411.07 655.52 401.53 646.21 391.99 636.63 382.44 627.27 372.9 618.64 363.36 611.17 353.81 605.27 344.27 601.25 334.72 607.7 322.63 614.66 311.71 622.17 302.11 630.28 293.97 639.03 287.33 648.44 282.23 663.93 277.52 669.32 276.42" stroke-dasharray="0 0" transform="rotate(29, 711, 400)" opacity="0.53"></path><path d="M667.54 278.99Q672.45 286.92 677.84 296.13 683.77 306.51 690.3 317.94 697.47 330.22 705.33 343.16 713.91 356.53 723.23 370.07 729.02 380 737.23 389.94 747.46 399.88 759.2 409.82 771.88 419.76 784.89 429.7 780.52 424.98 761.05 418.55 750.55 411.11 739.51 405.54 728 401.83 716.08 399.92 703.81 399.68 691.25 400.94 678.49 403.5 665.58 407.12 657.16 397.96 648.06 388.8 638.75 379.65 629.67 370.49 621.26 361.33 613.94 352.18 608.06 343.02 603.91 333.87 609.97 322.45 616.5 312.16 623.53 303.15 631.11 295.51 639.28 289.28 648.06 284.48 662.51 280.04 667.54 278.99" stroke-dasharray="0 0" transform="rotate(30.074074074074073, 711, 400)" opacity="0.54"></path><path d="M665.95 281.58Q670.96 289.21 676.44 298.04 682.45 307.98 689.02 318.91 696.21 330.66 704.03 343.06 712.53 355.91 721.71 368.99 727.58 378.5 735.64 388.02 745.53 397.53 756.8 407.05 768.94 416.57 781.4 426.08 778.39 421.89 760.5 415.97 750.07 408.78 739.17 403.33 727.85 399.59 716.17 397.52 704.18 397.01 691.96 397.91 679.56 400.06 667.04 403.25 658.76 394.47 649.9 385.7 640.87 376.93 632.07 368.16 623.89 359.39 616.72 350.62 610.88 341.85 606.62 333.08 612.31 322.33 618.42 312.67 624.98 304.23 632.05 297.07 639.66 291.24 647.83 286.75 661.27 282.56 665.95 281.58" stroke-dasharray="0 0" transform="rotate(31.148148148148152, 711, 400)" opacity="0.56"></path><path d="M664.55 284.17Q669.65 291.51 675.21 299.96 681.28 309.46 687.88 319.88 695.05 331.11 702.83 342.96 711.22 355.28 720.24 367.86 726.16 376.96 734.05 386.06 743.6 395.16 754.4 404.26 766 413.36 777.92 422.46 776.14 418.81 759.74 413.38 749.41 406.46 738.67 401.12 727.57 397.37 716.15 395.16 704.48 394.4 692.6 394.97 680.58 396.73 668.46 399.49 660.35 391.09 651.73 382.7 642.98 374.31 634.46 365.91 626.53 357.52 619.52 349.13 613.72 340.74 609.38 332.35 614.71 322.26 620.41 313.23 626.53 305.34 633.11 298.66 656.28 286.9 664.55 284.17" stroke-dasharray="0 0" transform="rotate(32.22222222222222, 711, 400)" opacity="0.58"></path><path d="M663.35 286.75Q674.16 301.88 686.87 320.86 701.71 342.86 718.82 366.71 732.46 384.08 752 401.46 776.72 417.66 758.77 410.8 738.03 398.93 716.05 392.84 693.18 392.11 669.85 395.84 653.55 379.8 636.86 363.76 622.33 347.72 612.19 331.68 622.48 313.83 634.27 300.27 655.59 289.02 663.35 286.75" stroke-dasharray="0 0" transform="rotate(33.2962962962963, 711, 400)" opacity="0.60"></path><path d="M662.35 289.33Q673.27 303.8 685.99 321.86 700.67 342.77 717.45 365.55 730.89 382.1 749.61 398.66 755.5 405.56 715.84 390.56 693.7 389.33 671.19 392.29 655.36 377 639.27 361.7 625.17 346.4 615.05 331.1 624.63 314.5 635.56 301.92 655.21 291.46 662.35 289.33" stroke-dasharray="0 0" transform="rotate(34.37037037037037, 711, 400)" opacity="0.61"></path><path d="M661.57 291.92Q672.56 305.72 685.23 322.85 699.73 342.69 716.12 364.37 729.31 380.11 747.21 395.85 753.52 402.84 715.54 388.33 694.16 386.64 672.5 388.87 657.16 374.31 641.66 359.74 628.01 345.17 617.96 330.59 626.86 315.22 636.95 303.59 655.01 293.9 661.57 291.92" stroke-dasharray="0 0" transform="rotate(35.44444444444445, 711, 400)" opacity="0.63"></path><path d="M661 294.5Q672.02 307.64 684.61 323.86 698.86 342.61 714.84 363.18 727.73 378.12 744.81 393.06 751.43 400.13 715.15 386.14 694.56 384.03 673.78 385.58 658.95 371.73 644.06 357.88 630.87 344.02 620.92 330.17 629.17 316 638.46 305.3 655.01 296.34 661 294.5" stroke-dasharray="0 0" transform="rotate(36.51851851851852, 711, 400)" opacity="0.65"></path><path d="M660.64 297.09Q671.65 309.57 684.1 324.87 698.07 342.56 713.6 361.99 726.15 376.14 742.42 390.29 749.24 397.45 714.68 383.99 694.91 381.51 675.01 382.4 660.72 369.27 646.46 356.13 633.75 342.99 623.94 329.85 631.55 316.84 640.09 307.03 655.18 298.79 660.64 297.09" stroke-dasharray="0 0" transform="rotate(37.592592592592595, 711, 400)" opacity="0.67"></path><path d="M660.5 299.67Q671.45 311.5 683.72 325.9 697.36 342.52 712.4 360.81 724.57 374.17 740.01 387.54 746.96 394.77 714.13 381.87 695.2 379.07 676.21 379.36 662.49 366.92 648.86 354.49 636.63 342.05 627 329.62 634.01 317.74 641.83 308.8 655.55 301.25 660.5 299.67" stroke-dasharray="0 0" transform="rotate(38.666666666666664, 711, 400)" opacity="0.68"></path><path d="M660.57 302.25Q671.42 313.42 683.46 326.94 696.73 342.49 711.23 359.64 722.99 372.23 737.61 384.82 744.6 392.13 713.5 379.8 695.45 376.72 677.39 376.46 664.24 364.71 651.25 352.97 639.54 341.23 630.12 329.49 636.55 318.71 643.68 310.59 656.11 303.7 660.57 302.25" stroke-dasharray="0 0" transform="rotate(39.74074074074074, 711, 400)" opacity="0.70"></path><path d="M660.87 304.84Q671.56 315.36 683.32 328 696.17 342.5 710.11 358.51 721.42 370.32 735.21 382.14 742.15 389.49 712.79 377.76 695.64 374.45 678.52 373.69 665.99 362.63 653.65 351.58 642.46 340.52 633.29 329.47 639.17 319.75 645.65 312.42 656.86 306.17 660.87 304.84" stroke-dasharray="0 0" transform="rotate(40.81481481481482, 711, 400)" opacity="0.72"></path><path d="M661.38 307.43Q671.86 317.29 683.28 329.06 695.67 342.52 709.01 357.39 719.85 368.45 732.82 379.51 739.62 386.88 712.02 375.77 695.8 372.27 679.63 371.06 667.73 360.68 656.05 350.31 645.4 339.93 636.5 329.56 654.71 311.38 661.38 307.43" stroke-dasharray="0 0" transform="rotate(41.888888888888886, 711, 400)" opacity="0.74"></path><path d="M662.1 310Q672.31 319.23 683.36 330.14 695.24 342.58 707.95 356.31 718.28 366.63 730.42 376.94 737.03 384.3 711.18 373.82 695.9 370.18 680.71 368.58 669.46 358.88 658.45 349.17 646.5 330.75 649.93 316.17 658.91 311.1 662.1 310" stroke-dasharray="0 0" transform="rotate(42.96296296296296, 711, 400)" opacity="0.75"></path><path d="M663.03 312.59Q672.92 321.17 683.54 331.24 694.87 342.67 706.92 355.27 716.71 364.85 728.02 374.43 734.37 381.74 710.28 371.9 695.97 368.17 681.75 366.23 671.18 357.2 660.85 348.17 649.41 331.2 652.23 318.09 660.21 313.58 663.03 312.59" stroke-dasharray="0 0" transform="rotate(44.03703703703704, 711, 400)" opacity="0.77"></path><path d="M664.17 315.18Q673.69 323.12 683.82 332.36 694.57 342.79 705.92 354.28 715.13 363.13 725.63 371.98 731.65 379.2 709.33 370.02 696 366.25 682.78 364.04 672.89 355.67 663.25 347.3 659.98 319.76 664.17 315.18" stroke-dasharray="0 0" transform="rotate(45.111111111111114, 711, 400)" opacity="0.79"></path><path d="M665.51 317.76Q684.2 333.48 704.93 353.35 723.23 369.6 744.23 385.84 739.28 380.91 733.12 379.79 708.33 368.18 683.78 361.99 665.65 346.56 649.86 331.13 661.33 319.9 665.51 317.76" stroke-dasharray="0 0" transform="rotate(46.18518518518518, 711, 400)" opacity="0.81"></path><path d="M667.05 320.34Q684.67 334.64 703.99 352.48 720.82 367.29 739.94 382.11 735.49 378.02 730.09 377.2 707.28 366.37 684.75 360.08 668.04 345.96 653.33 331.84 663.41 322.21 667.05 320.34" stroke-dasharray="0 0" transform="rotate(47.25925925925926, 711, 400)" opacity="0.82"></path><path d="M668.78 322.93Q685.22 335.8 703.05 351.68 715.63 367.37 685.7 358.34 670.44 345.5 656.84 332.68 665.63 324.53 668.78 322.93" stroke-dasharray="0 0" transform="rotate(48.333333333333336, 711, 400)" opacity="0.84"></path><path d="M670.68 325.51Q685.87 337 702.13 350.95 713.51 365.26 686.64 356.73 672.84 345.19 660.4 333.66 667.99 326.87 670.68 325.51" stroke-dasharray="0 0" transform="rotate(49.407407407407405, 711, 400)" opacity="0.86"></path><path d="M672.76 328.1Q686.58 338.21 701.24 350.31 711.39 363.22 687.55 355.27 672.24 332.9 672.76 328.1" stroke-dasharray="0 0" transform="rotate(50.48148148148148, 711, 400)" opacity="0.88"></path><path d="M675.01 330.68Q687.37 339.44 700.36 349.75 709.26 361.22 688.45 353.97 674.72 334.73 675.01 330.68" stroke-dasharray="0 0" transform="rotate(51.55555555555555, 711, 400)" opacity="0.89"></path><path d="M677.4 333.26Q688.22 340.7 699.49 349.29 680.67 338.37 677.4 333.26" stroke-dasharray="0 0" transform="rotate(52.62962962962963, 711, 400)" opacity="0.91"></path><path d="M679.95 335.85Q689.15 341.98 698.64 348.93 682.77 340.02 679.95 335.85" stroke-dasharray="0 0" transform="rotate(53.7037037037037, 711, 400)" opacity="0.93"></path><path d="M682.63 338.44Q684.74 341.54 682.63 338.44" stroke-dasharray="0 0" transform="rotate(54.77777777777778, 711, 400)" opacity="0.95"></path><path d="M685.43 341.02Q687.06 343.29 685.43 341.02" stroke-dasharray="0 0" transform="rotate(55.85185185185185, 711, 400)" opacity="0.96"></path><path d="M688.34 343.6Q689.45 345.09 688.34 343.6" stroke-dasharray="0 0" transform="rotate(56.92592592592593, 711, 400)" opacity="0.98"></path></g></svg>