<svg xmlns="http://www.w3.org/2000/svg" version="1.1" xmlns:xlink="http://www.w3.org/1999/xlink"
    xmlns:svgjs="http://svgjs.dev/svgjs" viewBox="0 0 2844 1600">
    <defs>
        <linearGradient x1="50%" y1="0%" x2="50%" y2="100%" id="ccchaos-grad">
            <stop stop-color="hsl(0, 0%, 0%)" stop-opacity="1" offset="0%"></stop>
            <stop stop-color="hsl(0, 0%, 73%)" stop-opacity="1" offset="100%"></stop>
        </linearGradient>
    </defs>
    <g stroke-width="1" stroke="url(#ccchaos-grad)" fill="none" stroke-linecap="round">
        <path
            d="M660.81 75.64Q669.19 77.6 678.13 79.65 687.66 81.88 697.77 84.36 708.48 87.18 719.77 90.43 731.65 94.15 744.09 98.42 757.06 103.27 770.54 108.73 784.49 114.83 798.85 121.55 813.57 128.87 828.61 136.77 843.88 145.17 859.33 154.02 874.88 163.22 890.46 172.69 905.98 182.3 921.37 191.95 936.55 201.52 951.43 210.87 965.95 219.89 980.01 228.46 993.55 236.48 1006.5 243.83 1018.8 250.45 1030.38 256.26 1041.2 261.22 1051.21 265.3 1061.9 275.06 1055.01 292.44 1043.79 303.25 1030.2 314.06 1014.8 324.88 998.23 335.69 981.16 346.5 964.28 357.32 948.29 368.13 933.85 378.94 921.53 389.76 911.85 400.57 905.2 411.38 901.85 422.19 901.94 433.01 905.47 443.82 912.29 454.63 922.12 465.45 934.56 476.26 949.11 487.07 965.16 497.89 982.06 508.7 999.13 519.51 1015.65 530.33 1030.97 541.14 1044.45 551.95 1055.54 562.77 1063.78 573.58 1068.85 584.39 1070.53 595.21 1068.75 606.02 1063.59 616.83 1050.28 628.43 1036.33 638.53 1021.81 646.98 1006.8 653.68 991.38 658.56 975.64 661.58 959.66 662.78 943.52 662.21 927.32 659.99 911.13 656.28 895.04 651.25 879.13 645.16 863.47 638.24 848.14 630.79 833.19 623.1 818.69 615.49 804.69 608.26 791.23 601.72 778.36 596.17 766.09 591.88 754.45 589.09 743.46 588.01 733.12 588.83 723.44 591.65 714.39 596.57 705.97 603.61 698.15 612.75 690.9 623.91 684.19 636.96 677.97 651.73 672.2 667.99 666.84 685.5 656.97 694.25 647.65 703.28 638.87 712.24 630.61 720.79 622.84 728.61 615.54 735.4 602.34 743.95 590.19 747.32 579.29 740.86 568.85 728.28 563.78 718.56 558.71 707.08 553.6 694.01 548.4 679.57 543.08 664.01 537.59 647.61 531.9 630.66 525.98 613.46 519.81 596.31 513.37 579.5 506.63 563.32 499.6 548.04 492.25 533.89 484.6 521.08 476.65 509.79 468.41 500.14 459.89 492.23 451.1 486.1 452.11 477.29 452.45 468.48 452.13 459.67 451.14 450.86 449.53 442.05 447.37 433.24 444.75 424.43 441.76 415.62 438.54 406.81 435.22 398 431.93 389.19 428.8 380.38 425.97 371.57 423.54 362.76 421.63 353.95 420.3 345.14 419.61 336.33 419.59 327.52 420.25 318.71 421.54 309.9 423.43 301.09 425.83 292.28 428.64 283.47 431.75 274.66 435.04 265.85 438.37 257.04 441.6 248.23 444.6 239.42 447.24 230.61 449.43 221.8 456.54 206.81 471.77 197.92 481.34 195.95 490.69 194.63 508.47 193.64 525.36 193.51 540.59 193.53 554.79 192.89 567.3 190.12 578.86 185.6 589.11 177.78 598.75 167.92 607.84 155 616.87 140.58 621.48 132.69 626.24 124.55 631.2 116.26 636.41 107.91 641.93 99.59 647.8 91.38 657.45 79.51 660.81 75.64"
            stroke-dasharray="0 0" transform="rotate(0, 711, 400)" opacity="0.05"></path>
        <path
            d="M661.82 81.19Q670.66 83.02 680.04 84.95 689.98 87.05 700.48 89.41 711.55 92.1 723.16 95.2 735.3 98.78 747.95 102.89 761.08 107.57 774.65 112.85 788.63 118.76 802.95 125.28 817.57 132.41 832.43 140.1 847.46 148.31 862.6 156.97 877.77 166.01 892.91 175.33 907.94 184.83 922.79 194.41 937.38 203.94 951.63 213.3 965.47 222.38 978.85 231.07 991.68 239.25 1003.9 246.83 1015.47 253.71 1026.33 259.83 1036.43 265.14 1045.74 269.59 1055.05 279.87 1046.92 297.24 1035.36 307.91 1021.67 318.59 1006.37 329.26 990.07 339.93 973.41 350.6 957.05 361.28 941.64 371.95 927.77 382.62 916.01 393.3 906.8 403.97 900.52 414.64 897.41 425.32 897.59 435.99 901.06 446.66 907.68 457.33 917.19 468.01 929.21 478.68 943.27 489.35 958.82 500.03 975.25 510.7 991.89 521.37 1008.11 532.04 1023.26 542.72 1036.75 553.39 1048.04 564.06 1056.68 574.73 1062.35 585.41 1064.81 596.08 1063.96 606.75 1059.85 617.42 1047.24 627.94 1033.97 636.95 1020.13 644.32 1005.77 649.97 990.98 653.86 975.83 655.99 960.39 656.39 944.76 655.15 929 652.39 913.21 648.27 897.45 642.99 881.81 636.76 866.35 629.85 851.15 622.52 836.27 615.06 821.77 607.77 807.7 600.92 794.11 594.81 781.05 589.72 768.53 585.88 756.6 583.53 745.27 582.86 734.55 584.01 724.44 587.11 714.96 592.22 706.08 599.35 697.79 608.49 690.07 619.55 682.89 632.42 676.23 646.92 670.03 662.84 664.26 679.95 655.15 688.44 646.58 697.2 638.51 705.91 630.92 714.25 623.79 721.91 617.08 728.6 596.7 738.49 583.41 736.45 578.46 731.21 573.57 724.04 568.71 715.01 563.81 704.25 558.84 691.92 553.75 678.21 548.51 663.36 543.09 647.61 537.46 631.23 531.58 614.49 525.43 597.7 519.01 581.11 512.3 565.02 505.28 549.66 497.96 535.29 490.34 522.11 482.43 510.3 474.23 500 465.76 491.31 457.04 484.31 457.71 466.99 456.4 449.67 454.64 441.01 452.34 432.34 449.59 423.68 446.51 415.02 443.2 406.36 439.81 397.7 436.47 389.04 433.3 380.38 430.44 371.72 427.99 363.05 425.03 345.73 423.97 328.41 424.6 319.75 425.88 311.08 427.75 302.42 430.15 293.76 432.97 285.1 436.11 276.44 439.44 267.78 442.83 259.12 446.15 250.45 449.27 241.79 452.06 233.13 454.41 224.47 461.76 209.99 476.99 201.95 486.51 200.43 495.82 199.49 513.58 199.02 530.49 199.23 545.8 199.32 560.1 198.64 572.7 195.72 584.34 191.02 594.57 183.04 604.14 173.07 612.97 160.12 621.62 145.72 625.96 137.87 630.39 129.78 634.97 121.54 639.74 113.24 644.77 104.98 650.09 96.83 658.79 85.03 661.82 81.19"
            stroke-dasharray="0 0" transform="rotate(0, 711, 400)" opacity="0.07"></path>
        <path
            d="M663.51 86.73Q672.77 88.44 682.56 90.25 692.88 92.23 703.72 94.46 715.09 97.02 726.95 99.99 739.3 103.42 752.1 107.37 765.33 111.88 778.93 116.98 792.86 122.69 807.09 129.01 821.54 135.93 836.16 143.42 850.9 151.43 865.68 159.9 880.43 168.76 895.1 177.93 909.6 187.3 923.88 196.78 937.85 206.26 951.45 215.62 964.62 224.74 977.29 233.52 989.41 241.85 1000.92 249.62 1011.77 256.76 1021.91 263.18 1031.32 268.82 1039.96 273.64 1047.97 284.44 1038.69 301.79 1026.86 312.31 1013.1 322.83 997.94 333.36 981.94 343.88 965.72 354.4 949.89 364.93 935.04 375.45 921.76 385.97 910.53 396.5 901.78 407.02 895.86 417.54 892.97 428.06 893.24 438.59 896.65 449.11 903.07 459.63 912.26 470.16 923.87 480.68 937.46 491.2 952.51 501.72 968.45 512.25 984.68 522.77 1000.58 533.29 1015.54 543.82 1029.01 554.34 1040.46 564.86 1049.46 575.38 1055.68 585.91 1058.87 596.43 1058.91 606.95 1055.81 617.47 1043.88 626.91 1031.3 634.83 1018.13 641.15 1004.44 645.79 990.28 648.75 975.73 650.03 960.87 649.7 945.76 647.85 930.49 644.61 915.12 640.14 899.74 634.65 884.41 628.35 869.2 621.48 854.19 614.31 839.43 607.1 824.98 600.14 810.91 593.69 797.25 588.02 784.04 583.37 771.34 579.99 759.16 578.07 747.54 577.78 736.49 579.26 726.01 582.62 716.12 587.9 706.82 595.12 698.08 604.25 689.91 615.21 682.28 627.88 675.16 642.11 668.52 657.7 662.34 674.41 653.98 682.65 646.12 691.15 638.74 699.61 631.8 707.72 619.3 721.23 607.82 731.33 590.39 730.02 578.5 719.67 573.81 711.31 569.05 701.26 564.19 689.66 559.2 676.69 554.03 662.54 548.65 647.45 543.05 631.66 537.2 615.44 531.07 599.04 524.66 582.74 517.96 566.78 510.96 551.43 503.66 536.91 496.06 523.44 488.18 511.18 480.02 500.3 471.61 490.92 462.95 483.11 463.27 466.07 461.6 449.02 459.69 440.5 457.25 431.98 454.39 423.46 451.21 414.94 447.83 406.42 444.38 397.9 440.99 389.38 437.79 380.85 434.91 372.33 432.44 363.81 429.44 346.77 428.34 329.73 430.51 312.69 434.46 295.64 437.28 287.12 440.44 278.6 443.8 270.08 447.25 261.56 450.65 253.04 453.87 244.51 456.8 235.99 459.31 227.47 466.91 213.47 482.13 206.25 491.6 205.14 500.87 204.54 518.61 204.54 535.54 205.03 550.93 205.15 565.33 204.39 578.05 201.3 589.8 196.41 600.07 188.27 609.62 178.19 618.27 165.21 626.62 150.83 630.74 143.02 634.9 134.97 639.15 126.79 643.54 118.55 648.12 110.35 652.94 102.26 660.79 90.55 663.51 86.73"
            stroke-dasharray="0 0" transform="rotate(0, 711, 400)" opacity="0.09"></path>
        <path
            d="M665.86 92.27Q675.51 93.86 685.66 95.55 696.31 97.41 707.44 99.52 719.05 101.96 731.12 104.79 743.61 108.07 756.5 111.86 769.74 116.2 783.31 121.12 797.15 126.63 811.21 132.75 825.44 139.46 839.77 146.74 854.16 154.53 868.53 162.8 882.83 171.48 896.98 180.48 910.93 189.71 924.6 199.08 937.94 208.49 950.88 217.82 963.37 226.96 975.34 235.81 986.75 244.27 997.55 252.22 1007.69 259.58 1017.15 266.28 1025.88 272.25 1033.87 277.43 1040.65 288.74 1030.34 306.06 1018.3 316.42 1004.53 326.78 989.54 337.15 973.87 347.51 958.09 357.88 942.78 368.24 928.51 378.61 915.79 388.97 905.09 399.33 896.79 409.7 891.21 420.06 888.54 430.43 888.89 440.79 892.24 451.15 898.47 461.52 907.35 471.88 918.55 482.25 931.67 492.61 946.23 502.97 961.69 513.34 977.5 523.7 993.06 534.07 1007.82 544.43 1021.24 554.79 1032.81 565.16 1042.13 575.52 1048.85 585.88 1052.72 596.25 1053.6 606.61 1051.47 616.98 1040.21 625.34 1028.31 632.19 1015.81 637.48 1002.78 641.16 989.27 643.23 975.34 643.73 961.06 642.73 946.51 640.33 931.74 636.67 916.84 631.91 901.87 626.26 886.89 619.92 871.98 613.14 857.21 606.16 842.62 599.23 828.29 592.62 814.26 586.57 800.58 581.33 787.31 577.14 774.47 574.2 762.11 572.69 750.25 572.77 738.91 574.57 728.11 578.17 717.86 583.61 708.16 590.9 699.01 600.01 690.41 610.87 682.33 623.35 674.77 637.3 667.7 652.55 661.09 668.87 653.46 676.85 646.29 685.1 639.56 693.31 633.24 701.21 621.81 714.48 611.26 724.56 594.93 724.31 583.61 715.17 579.06 707.46 574.42 698.11 569.65 687.23 564.72 674.98 559.59 661.55 554.25 647.13 548.67 631.96 542.82 616.28 536.7 600.32 530.3 584.35 523.6 568.6 516.61 553.32 509.32 538.73 501.75 525.03 493.9 512.41 485.78 501.04 477.42 491.02 468.82 482.47 468.77 465.7 466.75 448.92 464.69 440.53 462.12 432.14 459.15 423.75 455.88 415.36 452.43 406.97 448.92 398.58 445.5 390.19 442.27 381.81 437.14 365.03 433.53 348.25 433.04 331.47 434.54 314.69 436.38 306.3 438.75 297.91 441.57 289.52 444.73 281.14 448.12 272.75 451.62 264.36 455.09 255.97 458.42 247.58 463.9 230.8 467.95 214.02 477.62 212.09 487.18 210.8 496.59 210.07 505.83 209.79 523.54 210.18 540.49 210.89 555.97 211 570.48 210.14 583.34 206.85 595.22 201.76 605.58 193.47 615.16 183.27 623.7 170.26 631.85 155.92 635.79 148.14 639.72 140.15 643.7 132.02 647.76 123.85 651.96 115.71 656.34 107.69 663.41 96.06 665.86 92.27"
            stroke-dasharray="0 0" transform="rotate(0, 711, 400)" opacity="0.10"></path>
        <path
            d="M668.84 97.82Q678.84 99.3 689.3 100.87 700.22 102.61 711.59 104.6 723.39 106.91 735.59 109.6 748.16 112.74 761.07 116.37 774.28 120.54 787.75 125.27 801.43 130.59 815.27 136.5 829.21 143 843.21 150.06 857.2 157.64 871.12 165.7 884.92 174.18 898.53 183 911.89 192.07 924.95 201.32 937.64 210.64 949.91 219.92 961.71 229.06 972.99 237.96 983.7 246.52 993.8 254.63 1003.26 262.2 1012.04 269.16 1027.12 280.57 1040.02 289.65 1032.11 299.85 1021.87 310.04 1009.67 320.24 995.93 330.43 981.14 340.63 965.82 350.82 950.5 361.02 935.73 371.21 922.03 381.41 909.86 391.61 899.68 401.8 891.82 412 886.57 422.19 884.12 432.39 884.54 442.58 887.83 452.78 893.87 462.97 902.44 473.17 913.25 483.36 925.91 493.56 939.98 503.75 954.96 513.95 970.34 524.14 985.56 534.33 1000.09 544.53 1013.42 554.72 1025.09 564.92 1034.68 575.11 1041.85 585.31 1046.36 595.5 1048.04 605.7 1046.84 615.89 1036.24 623.19 1025.01 629.01 1013.18 633.31 1000.8 636.08 987.94 637.32 974.64 637.09 960.97 635.48 946.98 632.59 932.75 628.57 918.34 623.59 903.81 617.83 889.23 611.5 874.66 604.84 860.17 598.08 845.81 591.45 831.64 585.2 817.71 579.56 804.08 574.76 790.79 571.01 777.88 568.5 765.39 567.4 753.34 567.84 741.77 569.93 730.7 573.75 720.13 579.34 710.08 586.7 700.56 595.78 691.55 606.52 683.06 618.8 675.07 632.48 667.57 647.39 660.53 663.32 653.6 671.06 647.09 679.04 640.99 687.01 635.24 694.7 624.8 707.72 615.1 717.77 599.72 718.51 588.89 710.53 584.45 703.45 579.9 694.78 575.19 684.61 570.31 673.09 565.21 660.37 559.88 646.64 554.3 632.11 548.46 616.99 542.33 601.52 535.92 585.92 529.22 570.44 522.23 555.29 514.96 540.69 507.4 526.85 499.58 513.95 491.5 502.15 483.18 491.59 474.65 482.37 474.21 465.84 471.84 449.32 466.74 432.79 460.5 416.26 456.99 408 453.44 399.74 449.98 391.47 446.73 383.21 441.57 366.68 437.94 350.16 437.42 333.63 438.86 317.1 443.26 300.57 449 284.05 452.41 275.78 455.94 267.52 459.48 259.26 462.9 250.99 468.66 234.46 473.07 217.94 482.66 216.48 492.14 215.61 501.5 215.22 510.69 215.22 528.37 215.94 545.33 216.82 560.9 216.88 575.54 215.88 588.55 212.38 600.59 207.09 611.08 198.63 620.73 188.32 629.25 175.29 637.27 160.98 641.07 153.25 644.83 145.31 648.59 137.25 652.38 129.14 656.25 121.07 660.25 113.12 666.64 101.58 668.84 97.82"
            stroke-dasharray="0 0" transform="rotate(0, 711, 400)" opacity="0.12"></path>
        <path
            d="M672.4 103.36Q682.7 104.72 693.42 106.19 704.56 107.82 716.11 109.69 728.03 111.87 740.3 114.43 752.88 117.42 765.75 120.89 778.86 124.88 792.17 129.43 805.63 134.56 819.2 140.26 832.81 146.54 846.42 153.37 859.97 160.74 873.41 168.58 886.68 176.85 899.72 185.48 912.48 194.39 924.9 203.49 936.94 212.7 948.54 221.92 959.65 231.04 970.24 239.97 980.26 248.6 989.67 256.84 998.46 264.61 1006.59 271.8 1020.46 283.86 1032.26 293.69 1023.84 303.71 1013.3 313.72 1000.99 323.74 987.33 333.76 972.77 343.77 957.82 353.79 942.98 363.81 928.75 373.82 915.6 383.84 903.99 393.86 894.31 403.87 886.88 413.89 881.95 423.91 879.7 433.92 880.19 443.94 883.42 453.96 889.26 463.97 897.54 473.99 907.95 484.01 920.16 494.02 933.75 504.04 948.26 514.06 963.2 524.07 978.06 534.09 992.35 544.11 1005.58 554.12 1017.3 564.14 1027.12 574.16 1034.71 584.17 1039.8 594.19 1042.23 604.21 1041.91 614.23 1031.96 620.48 1021.39 625.31 1010.22 628.66 998.5 630.56 986.28 631.04 973.62 630.15 960.56 627.99 947.16 624.67 933.48 620.35 919.59 615.19 905.54 609.37 891.39 603.11 877.2 596.6 863.03 590.08 848.94 583.77 834.99 577.9 821.22 572.67 807.69 568.31 794.44 565 781.51 562.91 768.94 562.19 756.77 562.98 745.03 565.36 733.73 569.39 722.9 575.11 712.54 582.51 702.68 591.56 693.31 602.17 684.43 614.26 676.04 627.66 668.12 642.23 660.67 657.78 654.4 665.27 648.52 673.01 637.91 687.96 628.13 701.44 605.81 711.75 594.3 705.76 589.95 699.29 585.46 691.28 580.79 681.81 575.93 671 570.84 658.99 565.51 645.96 559.93 632.08 554.07 617.55 547.93 602.6 541.51 587.43 534.8 572.25 527.81 557.3 520.54 542.77 513 528.87 505.2 515.76 497.16 503.62 488.9 492.59 480.42 482.78 479.59 466.49 476.87 450.2 471.51 433.91 465.08 417.62 461.51 409.48 457.93 401.33 451.34 385.05 445.74 368.76 442.67 352.47 441.46 336.18 443.48 319.89 447.29 303.6 450.08 295.46 453.24 287.32 456.66 279.17 460.22 271.03 463.81 262.88 467.31 254.74 473.34 238.45 478.1 222.17 487.6 221.15 497.01 220.66 506.3 220.58 515.45 220.82 533.09 221.82 550.06 222.8 565.71 222.77 580.47 221.6 593.65 217.88 605.86 212.36 616.51 203.74 626.3 193.32 634.84 180.28 642.81 166.01 650.14 150.38 657.32 134.41 668.54 110.99 672.4 103.36"
            stroke-dasharray="0 0" transform="rotate(0, 711, 400)" opacity="0.14"></path>
        <path
            d="M676.5 108.9Q687.04 110.16 697.96 111.51 709.27 113.03 720.92 114.78 732.9 116.84 745.18 119.27 757.72 122.11 770.49 125.42 783.44 129.25 796.53 133.61 809.72 138.53 822.95 144.03 836.19 150.09 849.37 156.7 862.44 163.83 875.36 171.45 888.07 179.5 900.52 187.93 912.66 196.66 924.44 205.61 935.81 214.69 946.74 223.82 957.17 232.9 967.08 241.83 976.42 250.52 985.17 258.86 993.31 266.79 1000.82 274.2 1013.54 286.85 1024.3 297.41 1015.44 307.24 1004.65 317.07 992.28 326.9 978.73 336.73 964.45 346.56 949.88 356.39 935.52 366.22 921.83 376.05 909.24 385.88 898.17 395.71 888.97 405.54 881.96 415.37 877.34 425.2 875.28 435.03 875.84 444.86 879.01 454.69 884.67 464.53 892.65 474.36 902.68 484.19 914.45 494.02 927.56 503.85 941.6 513.68 956.1 523.51 970.6 533.34 984.63 543.17 997.73 553 1009.47 562.83 1019.48 572.66 1027.42 582.49 1033.05 592.32 1031.77 609.69 1017.44 621.09 1006.92 623.56 995.85 624.65 984.28 624.41 972.25 622.92 959.81 620.28 947.01 616.6 933.91 612.04 920.55 606.75 907.01 600.92 893.32 594.75 879.55 588.43 865.75 582.18 851.98 576.2 838.29 570.71 824.73 565.91 811.35 561.98 798.2 559.09 785.31 557.42 772.73 557.08 760.49 558.19 748.63 560.84 737.16 565.07 726.11 570.91 715.51 578.35 705.35 587.35 695.66 597.83 686.43 609.71 677.67 622.84 669.36 637.08 661.51 652.24 655.86 659.49 650.56 666.98 640.94 681.5 632.01 694.67 610.94 705.79 599.82 700.86 595.53 694.99 591.07 687.62 586.43 678.83 581.57 668.72 576.47 657.42 571.13 645.08 565.52 631.87 559.65 617.96 553.49 603.55 547.05 588.85 540.33 574.04 533.34 559.34 526.07 544.95 518.55 531.05 510.77 517.82 502.77 505.42 494.55 494 486.14 483.67 484.91 467.61 481.84 451.55 476.24 435.49 469.63 419.42 466.01 411.39 462.39 403.36 455.78 387.3 450.17 371.24 447.07 355.18 445.83 339.12 447.8 323.06 451.55 307 457.59 290.93 464.46 274.87 471.57 258.81 478.13 242.75 486.64 230.4 501.77 225.93 510.99 226.12 520.09 226.57 537.68 227.77 554.66 228.82 570.39 228.66 585.27 227.29 598.62 223.33 611.03 217.59 621.87 208.81 631.82 198.28 640.46 185.24 648.44 171.01 655.64 155.5 662.56 139.67 672.96 116.46 676.5 108.9"
            stroke-dasharray="0 0" transform="rotate(0, 711, 400)" opacity="0.16"></path>
        <path
            d="M681.08 114.45Q702.88 116.84 725.98 119.9 750.18 124.13 775.21 129.98 800.76 137.81 826.49 147.81 852.01 160.03 876.95 174.32 900.92 190.36 923.55 207.67 944.52 225.64 963.51 243.56 980.31 260.71 994.72 276.37 1006.67 289.9 1016.13 300.83 995.91 320.1 970.13 339.37 941.99 358.64 914.96 377.91 892.39 397.18 877.06 416.44 870.87 435.71 874.6 454.98 887.77 474.25 908.75 493.52 934.97 512.79 963.16 532.06 989.85 551.33 1011.74 570.6 1026.11 589.87 1031.19 609.14 1013.18 616.36 992.87 618.34 970.55 615.43 946.54 608.38 921.23 598.27 895.01 586.43 868.29 574.37 841.5 563.65 815.03 555.76 789.23 552.02 764.45 553.47 740.94 560.78 718.93 574.19 698.56 593.49 679.93 618.01 663.03 646.68 653.19 660.95 644.38 675.25 636.29 687.89 628.65 697.35 613.28 699.09 596.72 683.78 587.2 666.24 576.72 644 565.18 618.19 552.53 590.15 538.8 561.37 524.02 533.35 508.31 507.49 491.78 485 490.46 469.16 486.74 453.31 481.06 437.47 474.14 421.63 466.83 405.79 460.03 389.94 454.59 374.1 451.17 358.26 450.21 342.42 451.81 326.58 455.79 310.73 461.64 294.89 468.65 279.05 475.95 263.21 482.63 247.37 487.88 231.52 506.42 231.43 524.61 232.47 542.24 233.87 559.11 234.87 575.05 234.76 589.92 232.95 603.61 229.04 616.06 222.78 627.27 214.12 637.27 203.21 646.18 190.35 654.13 175.99 661.34 160.65 668.04 144.91 677.8 121.9 681.08 114.45"
            stroke-dasharray="0 0" transform="rotate(0, 711, 400)" opacity="0.17"></path>
        <path
            d="M686.07 119.99Q708.08 122.18 731.2 125.01 755.22 128.99 779.86 134.55 804.81 142.02 829.74 151.61 854.3 163.38 878.13 177.19 900.88 192.78 922.23 209.69 941.87 227.38 959.55 245.17 975.08 262.37 988.32 278.3 999.22 292.32 1007.78 303.93 987.1 322.79 961.54 341.65 934.14 360.51 908.15 379.38 886.65 398.24 872.18 417.1 866.47 435.96 870.19 454.82 882.9 473.68 903.09 492.54 928.38 511.41 955.75 530.27 981.96 549.13 1003.91 567.99 1018.99 586.85 1025.42 605.71 1008.61 611.15 989.55 611.66 968.5 607.7 945.73 600.05 921.58 589.78 896.42 578.19 870.62 566.68 844.58 556.72 818.66 549.67 793.22 546.73 768.58 548.82 745.01 556.53 722.75 570.05 701.97 589.15 682.78 613.18 665.22 641.14 656.38 654.94 648.38 668.8 640.92 681.14 633.73 690.52 618.8 693.22 602.38 679.77 592.81 663.56 582.25 642.71 570.64 618.23 557.94 591.32 544.18 563.35 529.42 535.73 513.77 509.79 497.36 486.73 495.63 471.1 491.57 455.47 485.66 439.84 478.61 424.21 471.24 408.58 464.44 392.95 459 377.32 455.58 361.69 454.58 346.06 456.12 330.43 460.01 314.8 465.8 299.17 472.8 283.53 480.17 267.9 487.05 252.27 492.61 236.64 510.96 237.13 529.01 238.5 546.56 240.01 563.42 240.93 579.42 240.63 594.4 238.58 608.26 234.4 620.93 227.91 632.37 219.08 642.61 208.09 651.71 195.23 659.81 180.94 667.06 165.72 673.68 150.14 682.99 127.36 686.07 119.99"
            stroke-dasharray="0 0" transform="rotate(0, 711, 400)" opacity="0.19"></path>
        <path
            d="M691.4 125.53Q713.5 127.52 736.52 130.14 760.23 133.88 784.36 139.14 808.62 146.25 832.68 155.43 856.21 166.73 878.89 180.06 900.41 195.17 920.46 211.67 938.79 229.03 955.2 246.65 969.51 263.86 981.64 280 991.55 294.44 999.27 306.68 978.25 325.12 953 343.56 926.38 362 901.42 380.44 880.96 398.88 867.33 417.32 862.07 435.76 865.78 454.2 878.04 472.64 897.46 491.08 921.82 509.52 948.37 527.96 974.07 546.4 996.02 564.84 1011.71 583.28 1019.37 601.72 1003.72 605.47 985.89 604.65 966.08 599.77 944.55 591.64 921.59 581.31 897.52 570.02 872.7 559.11 847.47 549.92 822.19 543.7 797.21 541.54 772.82 544.24 749.32 552.33 726.92 565.93 705.83 584.8 686.18 608.35 668.05 635.6 660.1 648.94 652.79 662.35 645.87 674.39 639.05 683.69 624.42 687.27 608.02 675.6 598.37 660.68 587.73 641.22 576.02 618.07 563.26 592.34 549.47 565.28 534.73 538.17 519.15 512.31 502.86 488.83 500.72 473.41 496.34 457.98 490.22 442.56 483.04 427.13 475.63 411.71 468.83 396.28 463.42 380.86 459.99 365.43 458.96 350 460.43 334.58 464.23 319.15 469.94 303.73 476.91 288.3 484.33 272.87 491.38 257.45 497.25 242.02 515.39 243.01 533.29 244.63 550.75 246.19 567.58 247 583.62 246.47 598.71 244.15 612.74 239.7 625.63 232.98 637.31 224 647.81 212.92 657.15 200.07 665.44 185.85 672.81 170.77 679.44 155.35 688.47 132.83 691.4 125.53"
            stroke-dasharray="0 0" transform="rotate(0, 711, 400)" opacity="0.21"></path>
        <path
            d="M697.01 131.08Q719.07 132.87 741.86 135.29 765.15 138.78 788.67 143.75 812.14 150.51 835.26 159.27 857.71 170.11 879.21 182.95 899.47 197.57 918.24 213.62 935.3 230.63 950.46 248.03 963.61 265.19 974.67 281.48 983.65 296.29 990.6 309.11 969.35 327.11 944.47 345.11 918.66 363.12 894.75 381.12 875.32 399.13 862.5 417.13 857.67 435.13 861.37 453.14 873.18 471.14 891.84 489.14 915.29 507.14 941 525.15 966.17 543.15 988.05 561.15 1004.27 579.16 1013.05 597.16 998.53 599.35 981.89 597.32 963.31 591.65 943.01 583.14 921.24 572.85 898.3 561.94 874.49 551.66 850.15 543.25 825.6 537.85 801.16 536.44 777.14 539.73 753.8 548.15 731.39 561.81 710.1 580.46 690.09 603.5 671.47 630.05 664.3 642.93 657.59 655.91 651.09 667.64 644.55 676.84 630.08 681.24 613.62 671.27 603.87 657.6 593.11 639.49 581.31 617.7 568.48 593.19 554.67 567.09 539.95 540.62 524.44 514.97 508.27 491.25 505.73 476.02 501.04 460.8 494.71 445.58 487.43 430.35 480 415.13 473.22 399.9 467.82 384.68 464.4 369.46 463.34 354.23 464.73 339.01 468.44 323.78 474.06 308.56 480.97 293.34 488.43 278.11 495.63 262.89 501.77 247.66 519.7 249.07 537.43 250.87 554.78 252.41 571.57 253.06 587.64 252.29 602.83 249.67 617.03 244.95 630.12 238 642.07 228.86 652.83 217.71 662.45 204.87 670.98 190.75 678.53 175.81 685.26 160.56 694.18 138.29 697.01 131.08"
            stroke-dasharray="0 0" transform="rotate(0, 711, 400)" opacity="0.23"></path>
        <path
            d="M702.81 136.63Q724.7 138.23 747.15 140.44 769.91 143.69 792.72 148.38 815.33 154.79 837.44 163.14 858.77 173.5 879.07 185.84 898.08 199.96 915.58 215.55 931.38 232.17 945.35 249.3 957.38 266.36 967.45 282.74 975.56 297.87 981.79 311.2 960.41 328.75 935.97 346.31 911.02 363.86 888.14 381.41 869.73 398.97 857.69 416.52 853.28 434.08 856.96 451.63 868.34 469.18 886.24 486.74 908.81 504.29 933.68 521.84 958.27 539.4 980.02 556.95 994.85 583.66 977.56 589.71 960.18 583.37 941.1 574.61 920.53 564.44 898.72 553.96 875.97 544.34 852.57 536.72 828.82 532.13 805.01 531.44 781.45 535.28 758.39 544.02 736.07 557.72 714.7 576.11 694.45 598.66 675.44 624.51 668.92 636.94 662.7 649.49 656.54 660.9 650.19 670 635.76 675.14 619.15 666.77 609.28 654.32 598.4 637.55 586.5 617.1 573.6 593.84 559.76 568.79 545.07 543.05 529.63 517.74 513.59 493.93 510.65 478.9 505.66 463.88 499.15 448.86 491.79 433.83 484.34 418.81 477.58 403.78 472.22 388.76 468.82 373.74 467.71 358.71 469.03 343.69 472.64 328.66 478.15 313.64 485 298.61 492.48 283.59 499.79 268.56 506.19 253.54 523.89 255.27 541.44 257.19 558.67 258.65 575.4 259.1 591.48 258.05 606.75 255.13 621.1 250.13 634.4 242.95 646.6 233.66 657.65 222.45 667.56 209.63 676.37 195.6 684.16 180.81 691.05 165.74 700.01 143.75 702.81 136.63"
            stroke-dasharray="0 0" transform="rotate(0, 711, 400)" opacity="0.24"></path>
        <path
            d="M708.72 142.17Q730.33 143.59 752.31 145.6 774.44 148.63 796.46 153.02 818.13 159.09 839.18 167.02 859.37 176.92 878.45 188.75 896.21 202.36 912.46 217.45 927.06 233.65 939.87 250.48 950.86 267.38 959.98 283.8 967.29 299.16 972.87 312.94 951.47 330.03 927.54 347.13 903.46 364.22 881.62 381.31 864.19 398.41 852.91 415.5 848.89 432.6 852.54 449.69 863.5 466.79 880.67 483.88 902.35 500.98 926.38 518.07 950.38 535.17 971.94 552.26 988.1 577.62 972.89 581.85 956.69 574.97 938.8 566.06 919.42 556.09 898.77 546.1 877.11 537.17 854.69 530.34 831.8 526.54 808.72 526.54 785.71 530.9 763.03 539.92 740.91 553.63 719.58 571.77 699.19 593.81 679.9 618.97 673.93 630.95 668.09 643.08 662.16 654.18 655.92 663.15 641.42 668.97 624.59 662.11 614.57 650.84 603.56 635.37 591.55 616.27 578.59 594.29 564.73 570.34 550.07 545.42 534.73 520.59 518.82 496.84 515.49 482.01 510.22 467.19 503.54 452.36 496.11 437.53 488.66 422.71 481.94 407.88 476.62 393.05 473.23 378.23 472.09 363.4 473.34 348.57 476.83 333.75 482.23 318.92 489 304.1 496.46 289.27 503.88 274.45 510.51 259.62 527.96 261.6 545.31 263.55 562.4 264.89 579.06 265.1 595.13 263.75 610.46 260.52 624.94 255.24 638.44 247.84 650.89 238.4 662.23 227.14 672.45 214.36 681.57 200.43 689.65 185.8 696.77 170.91 705.9 149.2 708.72 142.17"
            stroke-dasharray="0 0" transform="rotate(0, 711, 400)" opacity="0.26"></path>
        <path
            d="M714.67 147.72Q735.88 148.96 757.29 150.78 778.69 153.58 799.84 157.69 820.51 163.41 840.46 170.94 859.48 180.37 877.34 191.69 893.87 204.77 908.91 219.36 922.33 235.11 934.05 251.58 944.04 268.28 952.28 284.66 958.85 300.19 963.83 314.36 942.51 330.98 919.15 347.61 895.96 364.23 875.15 380.85 858.69 397.48 848.14 414.1 844.51 430.73 848.13 447.35 858.67 463.97 875.13 480.6 895.94 497.22 919.12 513.85 942.49 530.47 963.81 547.09 966.98 568.82 936.12 557.51 917.93 547.82 898.44 538.36 877.88 530.14 856.49 524.1 834.52 521.07 812.22 521.74 789.86 526.58 767.66 535.85 745.86 549.55 724.67 567.42 704.26 588.95 684.79 613.42 679.25 624.97 673.69 636.68 667.9 647.46 661.7 656.29 647.03 662.72 629.91 657.3 619.73 647.15 608.58 632.96 596.47 615.19 583.45 594.5 569.58 571.7 554.96 547.69 539.71 523.45 523.94 499.91 520.24 485.29 514.71 470.66 507.87 456.03 500.39 441.41 492.96 426.78 486.29 412.15 481.01 397.53 477.64 382.9 476.47 368.28 477.64 353.65 481.02 339.02 486.29 324.4 492.96 309.77 500.39 295.15 507.88 280.52 514.71 265.9 531.91 268.04 549.04 269.96 565.97 271.12 582.53 271.06 598.57 269.39 613.95 265.84 628.54 260.27 642.22 252.66 654.91 243.09 666.55 231.79 677.09 219.04 686.55 205.23 694.95 190.76 702.36 176.08 711.78 154.66 714.67 147.72"
            stroke-dasharray="0 0" transform="rotate(0, 711, 400)" opacity="0.28"></path>
        <path
            d="M720.56 153.26Q741.26 154.33 762 155.97 782.59 158.55 802.8 162.38 822.43 167.77 841.26 174.88 859.09 183.85 875.74 194.65 891.06 207.19 904.92 221.25 917.22 236.53 927.9 252.61 936.94 269.05 944.38 285.34 950.26 300.98 954.7 315.46 933.55 331.6 910.81 347.75 888.54 363.89 868.75 380.04 853.23 396.18 843.4 412.33 840.13 428.47 843.72 444.62 853.86 460.76 869.61 476.9 889.56 493.05 911.9 509.2 934.62 525.34 955.65 541.49 961.3 561.11 933.06 548.99 916.03 539.64 897.7 530.77 878.27 523.27 857.93 518.01 836.93 515.73 815.48 517.03 793.83 522.33 772.21 531.82 750.82 545.49 729.89 563.07 709.58 584.1 690.05 607.88 684.82 619 679.43 630.29 673.71 640.75 667.48 649.43 652.55 656.41 635.08 652.32 624.74 643.26 613.45 630.31 601.24 613.85 588.16 594.46 574.29 572.85 559.72 549.84 544.57 526.3 528.96 503.11 524.9 488.68 519.12 474.26 512.15 459.84 504.63 445.41 497.23 430.99 490.62 416.57 485.4 402.14 482.05 387.72 480.86 373.3 481.94 358.87 485.2 344.45 490.34 330.03 496.89 315.6 504.27 301.18 511.8 286.76 518.81 272.34 535.73 274.56 552.63 276.39 569.38 277.33 585.82 276.96 601.81 274.95 617.21 271.07 631.9 265.22 645.74 257.4 658.66 247.72 670.58 236.38 681.44 223.69 691.25 210 700 195.7 707.75 181.22 717.57 160.1 720.56 153.26"
            stroke-dasharray="0 0" transform="rotate(0, 711, 400)" opacity="0.30"></path>
        <path
            d="M726.33 158.81Q746.41 159.72 766.4 161.18 786.1 163.53 805.32 167.1 823.86 172.15 841.54 178.86 858.19 187.36 873.65 197.64 887.79 209.64 900.51 223.16 911.73 237.93 921.43 253.59 929.6 269.72 936.28 285.86 941.54 301.53 945.51 316.24 924.61 331.9 902.54 347.56 881.19 363.22 862.42 378.88 847.83 394.54 838.68 410.19 835.75 425.85 839.31 441.51 849.05 457.17 864.12 472.83 883.22 488.49 904.72 504.15 926.76 519.81 947.45 535.47 955.34 553.21 929.62 540.52 913.73 531.58 896.55 523.32 878.25 516.56 858.99 512.07 838.99 510.51 818.45 512.42 797.59 518.13 776.63 527.82 755.76 541.43 735.18 558.72 715.08 579.23 695.6 602.33 690.57 613.03 685.27 623.92 679.53 634.06 673.21 642.57 657.93 650.04 640.09 647.2 629.57 639.17 618.14 627.42 605.84 612.26 592.72 594.17 578.86 573.78 564.35 551.82 549.32 529.08 533.87 506.37 529.46 492.15 523.46 477.93 516.38 463.72 508.84 449.5 501.48 435.29 494.94 421.07 489.79 406.85 486.46 392.64 485.24 378.42 486.24 364.2 489.37 349.99 494.36 335.77 500.79 321.56 508.09 307.34 515.64 293.13 522.79 278.91 539.43 281.14 556.08 282.81 572.63 283.48 588.93 282.78 604.85 280.42 620.24 276.22 634.99 270.1 648.98 262.07 662.1 252.28 674.29 240.92 685.48 228.3 695.64 214.74 704.77 200.63 712.88 186.35 723.19 165.55 726.33 158.81"
            stroke-dasharray="0 0" transform="rotate(0, 711, 400)" opacity="0.31"></path>
        <path
            d="M731.88 164.35Q751.25 165.1 770.4 166.39 789.16 168.53 807.34 171.84 824.78 176.55 841.3 182.87 856.77 190.9 871.06 200.67 884.06 212.11 895.68 225.07 905.9 239.31 914.67 254.51 922.03 270.29 928.02 286.21 932.73 301.84 936.27 316.72 915.7 331.89 894.34 347.06 873.94 362.22 856.16 377.39 842.46 392.56 833.97 407.73 831.38 422.9 834.9 438.07 844.25 453.24 858.65 468.41 876.94 483.58 897.6 498.75 918.95 513.92 939.24 529.09 949.13 545.15 925.79 532.13 911.02 523.66 894.98 516.03 877.8 510.01 859.63 506.28 840.66 505.42 821.08 507.9 801.07 514 780.84 523.85 760.57 537.39 740.46 554.37 720.67 574.36 701.36 596.79 696.44 607.08 691.13 617.56 685.3 627.38 678.83 635.72 663.16 643.61 644.9 641.93 634.21 634.89 622.65 624.3 610.26 610.41 597.11 593.62 583.27 574.47 568.85 553.62 553.94 531.76 538.67 509.66 533.94 495.65 527.73 481.65 520.56 467.64 513.02 453.64 505.72 439.63 499.26 425.63 494.17 411.63 490.87 397.62 489.62 383.62 490.54 369.61 493.54 355.61 498.38 341.6 504.66 327.6 511.87 313.59 519.42 299.58 526.68 285.58 543.01 287.74 559.4 289.2 575.73 289.57 591.86 288.51 607.67 285.79 623.03 281.26 637.82 274.87 651.92 266.66 665.23 256.77 677.67 245.41 689.16 232.86 699.68 219.44 709.19 205.52 717.7 191.47 728.56 170.99 731.88 164.35"
            stroke-dasharray="0 0" transform="rotate(0, 711, 400)" opacity="0.33"></path>
        <path
            d="M737.14 169.89Q755.71 170.5 773.96 171.61 791.72 173.55 808.84 176.6 825.15 180.99 840.53 186.91 854.84 194.48 867.98 203.73 879.88 214.62 890.47 227.01 899.72 240.7 907.64 255.4 914.25 270.78 919.61 286.44 923.81 301.96 926.98 316.91 906.82 331.59 886.22 346.26 866.76 360.94 849.97 375.61 837.15 390.29 829.29 404.96 827.01 419.64 830.49 434.31 839.46 448.99 853.21 463.66 870.68 478.34 890.5 493.01 911.15 507.68 931 522.36 942.67 536.96 921.59 523.82 907.91 515.87 892.98 508.91 876.91 503.63 859.85 500.65 841.93 500.46 823.34 503.47 804.23 509.92 784.8 519.91 765.22 533.36 745.66 550.02 726.28 569.49 707.25 591.25 702.34 601.13 696.95 611.21 690.98 620.71 684.31 628.87 676.88 635.03 668.61 638.62 659.49 639.21 649.5 636.52 638.65 630.41 626.96 620.94 614.5 608.28 601.33 592.77 587.53 574.89 573.2 555.18 558.44 534.29 543.35 512.9 538.31 499.12 531.93 485.33 524.69 471.55 517.16 457.76 509.93 443.97 503.56 430.19 498.55 416.4 495.28 402.62 494.01 388.83 494.84 375.05 497.7 361.26 502.38 347.48 508.5 333.69 515.6 319.9 523.11 306.12 530.46 292.33 546.47 294.36 562.57 295.55 578.66 295.58 594.6 294.15 610.28 291.06 625.58 286.21 640.38 279.56 654.56 271.17 668.03 261.2 680.69 249.84 692.48 237.38 703.33 224.12 713.23 210.4 722.14 196.57 733.62 176.42 737.14 169.89"
            stroke-dasharray="0 0" transform="rotate(0, 711, 400)" opacity="0.35"></path>
        <path
            d="M742.04 175.44Q759.75 175.9 777.04 176.86 793.77 178.6 809.79 181.39 824.98 185.47 839.21 191 852.39 198.11 864.43 206.84 875.27 217.17 884.87 228.98 893.23 242.1 900.35 256.28 906.27 271.21 911.06 286.54 914.82 301.89 917.66 316.85 897.99 331.03 878.18 345.2 859.67 359.38 843.85 373.56 831.88 387.74 824.63 401.91 822.65 416.09 826.08 430.27 834.67 444.45 847.79 458.62 864.46 472.8 883.45 486.98 903.38 501.16 922.75 515.33 920.18 518.46 890.55 501.97 875.59 497.43 859.61 495.16 842.77 495.62 825.19 499.13 807.03 505.9 788.46 515.99 769.63 529.32 750.71 545.66 731.85 564.61 713.2 585.7 708.21 595.18 702.68 604.87 696.5 614.05 689.6 622.02 681.92 628.16 673.41 631.96 664.06 632.98 653.87 630.96 642.85 625.74 631.06 617.33 618.54 605.87 605.37 591.63 591.63 575.01 577.4 556.49 562.8 536.64 547.92 516.06 542.59 502.5 536.05 488.94 528.76 475.39 521.27 461.83 514.12 448.27 507.85 434.71 502.92 421.15 499.69 407.6 498.4 394.04 499.14 380.48 501.87 366.92 506.37 353.36 512.32 339.8 519.28 326.24 526.74 312.69 534.14 299.13 549.81 300.95 565.61 301.84 581.43 301.49 597.16 299.67 612.68 296.22 627.89 291.05 642.67 284.15 656.9 275.61 670.49 265.56 683.35 254.23 695.4 241.86 706.59 228.77 716.85 215.26 726.18 201.66 738.31 181.86 742.04 175.44"
            stroke-dasharray="0 0" transform="rotate(0, 711, 400)" opacity="0.37"></path>
        <path
            d="M746.5 180.98Q763.29 181.31 779.58 182.11 795.25 183.66 810.17 186.2 824.23 189.97 837.35 195.12 849.43 201.78 860.41 210 870.25 219.76 878.93 230.99 886.45 243.52 892.83 257.15 898.13 271.59 902.42 286.54 905.79 301.64 908.36 316.52 889.23 330.21 870.23 343.89 852.68 357.57 837.81 371.25 826.65 384.93 819.99 398.61 818.29 412.29 821.67 425.98 829.9 439.66 842.39 453.34 858.28 467.02 876.46 480.7 895.65 494.38 914.52 508.06 914.77 510.56 887.69 495.21 873.81 491.4 858.92 489.84 843.14 490.9 826.6 494.88 809.42 501.94 791.76 512.11 773.75 525.31 755.54 541.3 737.28 559.73 719.11 580.16 713.98 589.25 708.24 598.55 701.81 607.41 694.65 615.18 686.7 621.29 677.94 625.26 668.36 626.68 657.98 625.27 646.82 620.89 634.94 613.5 622.38 603.2 609.22 590.2 595.55 574.84 581.45 557.53 567.02 538.77 552.36 519.09 546.79 505.77 540.11 492.45 532.79 479.12 525.35 465.8 518.3 452.48 512.14 439.16 507.29 425.83 504.1 412.51 502.79 399.19 503.45 385.86 506.03 372.54 510.36 359.22 516.13 345.89 522.93 332.57 530.3 319.24 537.72 305.92 553.04 307.48 568.52 308.02 584.05 307.29 599.54 305.07 614.88 301.25 629.96 295.77 644.68 288.64 658.93 279.95 672.61 269.85 685.63 258.55 697.92 246.3 709.4 233.38 720.03 220.09 729.76 206.73 742.55 187.29 746.5 180.98"
            stroke-dasharray="0 0" transform="rotate(0, 711, 400)" opacity="0.38"></path>
        <path
            d="M750.48 186.52Q766.29 186.72 781.55 187.37 796.14 188.73 809.97 191.04 822.93 194.5 834.95 199.28 845.97 205.5 855.94 213.21 864.84 222.41 872.65 233.04 879.4 244.97 885.11 258.02 889.85 271.95 893.68 286.47 896.71 301.26 899.05 315.99 880.53 329.18 862.37 342.36 845.78 355.54 831.83 368.73 821.47 381.91 815.37 395.09 813.93 408.28 817.26 421.46 825.13 434.65 837.01 447.83 852.14 461.02 869.5 474.2 887.95 487.38 906.27 500.57 909.05 502.75 884.4 488.64 871.57 485.55 857.75 484.66 843.04 486.3 827.54 490.72 811.37 498.03 794.65 508.25 777.51 521.3 760.09 536.94 742.51 554.85 724.91 574.62 719.56 583.33 713.57 592.25 706.87 600.78 699.42 608.34 691.19 614.4 682.18 618.51 672.38 620.28 661.82 619.45 650.54 615.85 638.58 609.43 626 600.24 612.88 588.46 599.31 574.35 585.35 558.26 571.11 540.63 556.68 521.93 550.88 508.86 544.09 495.78 536.77 482.7 529.39 469.62 522.45 456.55 516.41 443.47 511.65 430.39 508.51 417.31 507.18 404.24 507.75 391.16 510.19 378.08 514.34 365.01 519.91 351.93 526.54 338.85 533.8 325.78 541.2 312.7 556.16 313.94 571.29 314.1 586.51 312.96 601.74 310.34 616.86 306.15 631.79 300.37 646.42 293.02 660.65 284.2 674.38 274.07 687.53 262.82 700.02 250.69 711.77 237.96 722.72 224.89 732.84 211.79 746.29 192.72 750.48 186.52"
            stroke-dasharray="0 0" transform="rotate(0, 711, 400)" opacity="0.40"></path>
        <path
            d="M753.91 192.07Q768.72 192.15 782.92 192.65 796.44 193.83 809.17 195.91 821.05 199.08 832.02 203.49 842.02 209.27 851.04 216.47 859.05 225.12 866.06 235.15 872.1 246.47 877.21 258.92 881.44 272.29 884.88 286.34 887.62 300.76 889.77 315.26 871.91 327.95 854.61 340.64 838.96 353.33 825.93 366.02 816.33 378.71 810.77 391.4 809.58 404.09 812.85 416.78 820.37 429.47 831.66 442.16 846.04 454.85 862.59 467.54 880.29 480.23 898.04 492.92 903.04 495.03 880.7 482.27 868.88 479.88 856.11 479.64 842.45 481.83 828 486.63 812.85 494.16 797.1 504.42 780.88 517.29 764.29 532.57 747.47 549.96 730.53 569.07 724.91 577.4 718.62 585.95 711.62 594.16 703.87 601.5 695.36 607.5 686.1 611.72 676.1 613.81 665.38 613.51 653.98 610.64 641.97 605.13 629.4 597 616.35 586.4 602.88 573.52 589.09 558.66 575.06 542.2 560.88 524.54 554.88 511.72 548 498.9 540.7 486.08 533.41 473.26 526.59 460.44 520.67 447.62 516.02 434.8 512.92 421.98 511.57 409.16 512.06 396.34 514.35 383.52 518.31 370.7 523.67 357.88 530.12 345.06 537.24 332.24 544.6 319.42 559.17 320.3 573.94 320.05 588.83 318.48 603.77 315.46 618.65 310.92 633.38 304.85 647.88 297.3 662.05 288.37 675.8 278.22 689.03 267.04 701.68 255.05 713.66 242.51 724.92 229.69 735.4 216.84 749.49 198.15 753.91 192.07"
            stroke-dasharray="0 0" transform="rotate(0, 711, 400)" opacity="0.42"></path>
        <path
            d="M756.74 197.61Q770.52 197.57 783.67 197.94 796.12 198.95 807.78 200.8 818.62 203.68 828.57 207.74 837.62 213.09 845.74 219.8 852.93 227.89 859.2 237.32 864.6 248.02 869.16 259.85 872.95 272.64 876.04 286.16 878.54 300.16 880.55 314.36 863.38 326.56 846.96 338.76 832.24 350.96 820.1 363.16 811.24 375.35 806.18 387.55 805.23 399.75 808.44 411.95 815.61 424.15 826.34 436.35 839.98 448.55 855.75 460.75 872.7 472.95 889.84 485.15 896.76 487.45 876.58 476.11 865.75 474.4 853.99 474.78 841.37 477.47 827.95 482.64 813.82 490.36 799.06 500.61 783.79 513.29 768.09 528.2 752.08 545.06 735.87 563.52 729.94 571.49 723.33 579.67 716.01 587.56 707.96 594.68 699.19 600.6 689.69 604.9 679.49 607.27 668.64 607.44 657.16 605.25 645.12 600.6 632.58 593.5 619.61 584.03 606.29 572.36 592.68 558.73 578.88 543.46 564.96 526.89 558.78 514.34 551.86 501.79 544.59 489.23 537.4 476.68 530.71 464.13 524.92 451.57 520.37 439.02 517.33 426.47 515.97 413.91 516.37 401.36 518.52 388.81 522.28 376.26 527.43 363.7 533.67 351.15 540.64 338.6 547.91 326.04 562.09 326.53 576.48 325.84 591.02 323.84 605.63 320.42 620.24 315.54 634.75 309.2 649.09 301.47 663.16 292.45 676.87 282.3 690.15 271.19 702.91 259.36 715.08 247.03 726.6 234.45 737.41 221.87 752.1 203.56 756.74 197.61"
            stroke-dasharray="0 0" transform="rotate(0, 711, 400)" opacity="0.44"></path>
        <path
            d="M758.94 203.15Q771.68 203 783.78 203.24 795.18 204.09 805.81 205.72 815.64 208.32 824.63 212.04 832.77 216.97 840.05 223.19 846.48 230.73 852.08 239.56 856.9 249.64 860.97 260.84 864.37 273.01 867.18 285.97 869.47 299.49 871.36 313.33 854.94 325.04 839.4 336.75 825.62 348.46 814.33 360.18 806.18 371.89 801.62 383.6 800.88 395.32 804.03 407.03 810.87 418.74 821.04 430.46 833.97 442.17 848.94 453.88 865.14 465.6 881.66 477.31 876.2 474.56 851.39 470.07 839.78 473.23 827.38 478.72 814.27 486.6 800.51 496.82 786.2 509.3 771.43 523.83 756.28 540.17 740.86 557.98 734.59 565.59 727.65 573.4 720.01 580.98 711.67 587.87 702.63 593.68 692.92 598.05 682.56 600.66 671.59 601.26 660.05 599.69 648.02 595.85 635.53 589.71 622.67 581.33 609.51 570.84 596.11 558.42 582.55 544.35 568.91 528.92 562.6 516.65 555.64 504.37 548.43 492.1 541.36 479.83 534.82 467.55 529.17 455.28 524.73 443.01 521.74 430.73 520.37 418.46 520.69 406.19 522.68 393.92 526.24 381.64 531.17 369.37 537.19 357.1 543.97 344.82 551.15 332.55 564.91 332.6 578.9 331.47 593.07 329.03 607.34 325.22 621.64 320.01 635.9 313.42 650.03 305.53 663.96 296.44 677.6 286.3 690.87 275.3 703.7 263.63 716.02 251.52 727.75 239.19 738.85 226.88 754.1 208.98 758.94 203.15"
            stroke-dasharray="0 0" transform="rotate(0, 711, 400)" opacity="0.45"></path>
        <path
            d="M760.47 208.7Q772.18 208.45 783.25 208.57 793.62 209.25 803.26 210.68 819.82 216.96 834.01 226.65 839.75 233.64 844.74 241.89 849.04 251.33 852.68 261.89 855.75 273.43 858.31 285.8 860.44 298.79 862.25 312.19 846.6 323.42 831.96 334.66 819.08 345.89 808.64 357.12 801.17 368.36 797.07 379.59 796.54 390.82 799.62 402.05 806.14 413.29 815.77 424.52 828 435.75 842.2 446.98 857.64 458.22 873.51 469.45 870.8 468.38 848.33 465.51 837.69 469.1 826.29 474.88 814.18 482.88 801.43 493.05 788.1 505.3 774.27 519.45 760.02 535.26 745.44 552.43 738.82 559.69 731.54 567.15 723.58 574.4 714.96 581.07 705.68 586.76 695.77 591.16 685.27 593.98 674.22 594.97 662.66 593.98 650.65 590.88 638.25 585.65 625.53 578.32 612.55 568.96 599.38 557.74 586.09 544.87 572.74 530.6 566.32 518.62 559.36 506.64 552.23 494.66 545.29 482.68 538.91 470.69 533.41 458.71 529.08 446.73 526.15 434.75 524.77 422.77 525.01 410.79 526.85 398.81 530.21 386.83 534.9 374.85 540.69 362.87 547.27 350.88 554.3 338.9 567.64 338.49 581.22 336.9 594.99 334.04 608.89 329.84 622.87 324.32 636.84 317.51 650.73 309.47 664.48 300.33 677.99 290.23 691.22 279.35 704.06 267.86 716.47 255.98 728.37 243.92 739.7 231.89 755.44 214.4 760.47 208.7"
            stroke-dasharray="0 0" transform="rotate(0, 711, 400)" opacity="0.47"></path>
        <path
            d="M761.32 214.24Q772.01 213.89 782.07 213.9 799.78 216.08 815.35 220.78 827.31 230.77 837.22 244.29 841.05 253.11 844.33 263.01 847.11 273.9 849.46 285.64 851.48 298.06 853.24 310.97 838.39 321.73 824.64 332.49 812.65 343.25 803.02 354.01 796.2 364.77 792.54 375.53 792.2 386.3 795.21 397.06 801.41 407.82 810.51 418.58 822.07 429.34 835.52 440.1 850.2 450.86 865.41 461.62 865.08 462.38 844.8 461.1 835.09 465.09 824.66 471.13 813.54 479.21 801.77 489.31 789.43 501.32 776.56 515.07 763.24 530.35 749.54 546.89 742.56 553.8 734.94 560.91 726.69 567.85 717.8 574.28 708.31 579.85 698.24 584.26 687.63 587.24 676.53 588.58 664.98 588.11 653.03 585.71 640.75 581.34 628.19 574.99 615.42 566.73 602.5 556.67 589.49 544.99 576.46 531.9 569.96 520.22 563.03 508.54 555.99 496.87 549.2 485.19 542.98 473.51 537.64 461.83 533.43 450.16 530.56 438.48 529.17 426.8 529.33 415.12 531.02 403.44 534.18 391.77 538.63 380.09 544.17 368.41 550.53 356.73 557.4 345.05 570.29 344.17 583.44 342.12 596.8 338.83 610.31 334.28 623.93 328.47 637.58 321.45 651.19 313.3 664.71 304.13 678.07 294.09 691.19 283.33 704 272.04 716.44 260.41 728.45 248.62 739.97 236.88 756.13 219.8 761.32 214.24"
            stroke-dasharray="0 0" transform="rotate(0, 711, 400)" opacity="0.49"></path>
        <path
            d="M761.47 219.79Q771.17 219.35 780.26 219.24 796.16 221.06 810.07 225.22 820.71 234.34 829.53 246.8 832.96 254.98 835.92 264.23 838.46 274.46 840.65 285.55 842.58 297.36 844.31 309.72 830.29 320.01 817.43 330.31 806.32 340.61 797.47 350.9 791.28 361.2 788.03 371.49 787.86 381.79 790.8 392.08 796.69 402.38 805.28 412.67 816.18 422.97 828.88 433.26 842.81 443.56 857.35 453.85 859.06 456.59 840.82 456.84 832.01 461.19 822.51 467.44 812.34 475.59 801.55 485.59 790.18 497.34 778.27 510.69 765.9 525.44 753.11 541.35 745.78 547.92 737.84 554.69 729.3 561.32 720.18 567.5 710.51 572.93 700.32 577.33 689.63 580.45 678.51 582.09 667 582.09 655.15 580.33 643.01 576.75 630.64 571.34 618.11 564.12 605.46 555.2 592.75 544.69 580.05 532.77 573.51 521.41 566.63 510.05 559.72 498.69 553.09 487.33 547.05 475.97 541.86 464.61 537.78 453.25 534.97 441.89 533.58 430.53 533.66 419.16 535.2 407.8 538.15 396.44 542.36 385.08 547.64 373.72 553.76 362.36 560.43 350.99 572.87 349.63 585.57 347.12 598.5 343.43 611.6 338.53 624.83 332.45 638.12 325.25 651.43 317.01 664.69 307.84 677.83 297.87 690.8 287.27 703.53 276.19 715.95 264.8 728.02 253.3 739.66 241.85 756.14 225.21 761.47 219.79"
            stroke-dasharray="0 0" transform="rotate(0, 711, 400)" opacity="0.51"></path>
        <path
            d="M760.92 225.34Q777.52 224.83 792.33 225.71 804.11 230.19 814.12 237.47 821.48 249.93 827.48 265.56 829.83 275.11 831.9 285.53 833.77 296.69 835.5 308.47 822.31 318.3 810.33 328.14 800.08 337.98 791.98 347.82 786.39 357.66 783.53 367.5 783.53 377.34 786.39 387.17 791.98 397.01 800.08 406.85 810.33 416.69 822.3 426.53 835.49 436.36 849.34 446.2 840.6 454.2 819.84 463.82 810.59 472 800.75 481.87 790.33 493.35 779.38 506.29 767.96 520.51 756.1 535.8 748.43 542.04 740.2 548.47 731.41 554.79 722.09 560.73 712.27 566.01 701.98 570.37 691.27 573.6 680.17 575.51 668.73 575.93 657.01 574.75 645.04 571.91 632.9 567.37 620.62 561.16 608.27 553.32 595.89 543.95 583.53 533.2 576.98 522.17 570.17 511.14 563.4 500.11 556.95 489.08 551.09 478.04 546.08 467.01 542.12 455.98 539.38 444.95 537.99 433.92 537.99 422.88 539.39 411.85 542.12 400.82 546.08 389.79 551.1 378.75 556.95 367.72 563.41 356.69 575.38 354.84 587.63 351.89 600.1 347.8 612.77 342.58 625.59 336.26 638.5 328.91 651.46 320.6 664.42 311.45 677.3 301.59 690.07 291.15 702.66 280.29 715.01 269.17 727.06 257.96 738.76 246.82 755.49 230.61 760.92 225.34"
            stroke-dasharray="0 0" transform="rotate(0, 711, 400)" opacity="0.53"></path>
        <path
            d="M759.67 230.88Q774.52 230.19 787.7 230.78 804.38 240.44 813.8 252.11 818.93 267.47 823.24 285.6 825.07 296.1 826.82 307.23 814.48 316.62 803.38 326.02 793.95 335.41 786.58 344.8 781.54 354.19 779.05 363.58 779.2 372.97 781.97 382.37 787.27 391.76 794.89 401.15 804.52 410.54 815.78 419.93 828.23 429.33 841.39 438.72 835.3 449.67 816.65 460.28 808.29 468.46 799.36 478.18 789.87 489.37 779.87 501.9 769.38 515.59 758.45 530.26 750.48 536.18 741.98 542.27 732.99 548.3 723.51 553.99 713.58 559.1 703.25 563.41 692.54 566.72 681.5 568.84 670.18 569.64 658.62 568.99 646.86 566.83 634.96 563.11 622.97 557.83 610.93 551.03 598.9 542.78 586.91 533.18 580.37 522.48 573.67 511.79 567.05 501.1 560.79 490.41 555.13 479.71 550.29 469.02 546.46 458.33 543.79 447.63 542.4 436.94 542.32 426.25 543.58 415.56 546.11 404.86 549.82 394.17 554.56 383.48 560.14 372.79 566.35 362.1 577.85 359.77 589.62 356.39 601.63 351.93 613.84 346.42 626.22 339.89 638.73 332.41 651.31 324.07 663.92 314.97 676.51 305.22 689.02 294.97 701.42 284.35 713.63 273.51 725.62 262.6 737.32 251.76 754.18 236.01 759.67 230.88"
            stroke-dasharray="0 0" transform="rotate(0, 711, 400)" opacity="0.54"></path>
        <path
            d="M757.76 236.42Q779.28 236.29 792.09 238.89 799.55 245.55 805.83 254.94 810.56 269.03 814.66 285.81 816.49 295.61 818.27 306.08 806.78 315.03 796.53 323.98 787.91 332.94 781.23 341.89 776.74 350.85 774.59 359.8 774.87 368.75 777.56 377.71 782.58 386.66 789.73 395.62 798.75 404.57 809.32 413.53 821.04 422.48 833.5 431.44 829.66 445.3 812.98 456.8 805.45 464.95 797.39 474.51 788.8 485.4 779.71 497.5 770.15 510.66 760.15 524.72 751.91 530.32 743.19 536.09 734.03 541.81 724.43 547.25 714.45 552.19 704.11 556.44 693.45 559.79 682.52 562.1 671.34 563.22 659.98 563.05 648.46 561.5 636.84 558.54 625.16 554.14 613.46 548.32 601.78 541.14 590.17 532.66 583.69 522.32 577.11 511.97 570.67 501.63 564.61 491.29 559.15 480.95 554.49 470.61 550.8 460.27 548.2 449.93 546.81 439.59 546.67 429.25 547.78 418.91 550.1 408.57 553.55 398.23 558.01 387.89 563.3 377.55 569.24 367.21 580.26 364.42 591.55 360.63 603.08 355.83 614.82 350.06 626.74 343.35 638.81 335.78 650.98 327.42 663.21 318.39 675.46 308.78 687.68 298.73 699.83 288.36 711.85 277.81 723.7 267.21 735.34 256.7 752.23 241.4 757.76 236.42"
            stroke-dasharray="0 0" transform="rotate(0, 711, 400)" opacity="0.56"></path>
        <path
            d="M755.19 241.97Q774.2 241.45 785.52 243.56 796.17 256.56 802.33 270.31 804.32 277.82 806.2 286.16 808.03 295.25 809.87 305.02 799.22 313.55 789.82 322.08 781.97 330.6 775.96 339.13 771.25 356.18 773.15 373.24 777.89 381.76 784.59 390.29 793.03 398.82 802.91 407.34 813.92 415.87 825.68 424.4 823.7 441.09 808.83 453.39 802.09 461.47 794.85 470.84 787.13 481.42 778.92 493.09 770.26 505.72 761.17 519.17 752.7 524.46 743.81 529.92 734.52 535.34 724.87 540.53 714.87 545.29 704.57 549.45 694.01 552.82 683.21 555.28 672.23 556.68 661.09 556.93 649.85 555.95 638.53 553.68 627.18 550.1 615.84 545.21 604.55 539.03 593.33 531.63 586.93 521.66 580.51 511.68 574.26 501.7 568.42 491.72 563.17 481.75 558.69 471.77 555.13 461.79 552.62 451.82 551.23 441.84 551.02 431.86 551.99 421.89 554.1 411.91 557.3 401.93 561.46 391.96 566.46 381.98 572.11 372 582.64 368.77 593.43 364.59 604.47 359.49 615.72 353.48 627.16 346.63 638.77 338.99 650.5 330.66 662.32 321.72 674.18 312.28 686.07 302.45 697.92 292.34 709.69 282.09 721.35 271.81 732.85 261.62 749.66 246.8 755.19 241.97"
            stroke-dasharray="0 0" transform="rotate(0, 711, 400)" opacity="0.58"></path>
        <path
            d="M752.01 247.51Q770.61 247.23 784.82 253.06 789.83 260.97 794.07 272.18 797.88 286.66 801.63 304.1 783.24 320.32 770.75 336.54 765.71 352.76 768.74 368.98 779.47 385.21 796.58 401.43 817.94 417.65 840.91 433.88 830.11 429.72 814.87 437.7 804.24 450.03 791.77 467.2 777.49 488.68 761.49 513.63 743.84 523.77 724.81 533.84 704.65 542.46 683.61 548.4 661.99 550.66 640.06 548.54 618.11 541.69 596.4 530.11 583.86 510.9 572.21 491.69 562.88 472.48 557.03 453.27 555.37 434.06 558.12 414.86 564.93 395.65 574.97 376.44 595.29 368.26 616.57 356.68 638.63 342.06 661.27 324.95 684.21 306.1 707.19 286.34 729.89 266.53 752.01 247.51 752.01 247.51 752.01 247.51"
            stroke-dasharray="0 0" transform="rotate(0, 711, 400)" opacity="0.60"></path>
        <path
            d="M748.26 253.05Q764.62 252.33 777.25 257.19 781.87 264.18 785.92 274.23 789.7 287.36 793.55 303.35 776.78 318.76 765.6 334.17 761.29 349.58 764.33 364.99 774.38 380.4 790.3 395.81 810.27 411.22 832.03 426.63 822.23 424.7 808.64 434.27 799.22 446.74 788.16 463.56 775.44 484.26 761.12 508.09 743.28 517.63 724.28 527.16 704.34 535.46 683.72 541.45 662.66 544.23 641.42 543.12 620.24 537.76 599.37 528.06 587.18 509.62 575.99 491.18 567.07 472.74 561.44 454.3 559.73 435.85 562.15 417.41 568.41 398.97 577.81 380.52 597.11 371.65 617.36 359.68 638.41 344.98 660.08 328.09 682.15 309.7 704.39 290.55 726.52 271.42 748.26 253.05 748.26 253.05 748.26 253.05"
            stroke-dasharray="0 0" transform="rotate(0, 711, 400)" opacity="0.61"></path>
        <path
            d="M744 258.6Q758.38 257.48 769.67 261.42 773.98 267.53 777.89 276.46 781.69 288.27 785.65 302.81 770.46 317.43 760.53 332.05 756.89 346.67 759.92 361.29 769.31 375.9 784.08 390.52 802.69 405.14 823.2 419.76 814.26 419.96 802.14 430.98 793.82 443.5 784.04 459.93 772.78 479.84 760.04 502.54 742.15 511.5 723.29 520.49 703.68 528.47 683.55 534.46 663.12 537.66 642.62 537.44 622.27 533.44 602.25 525.49 590.45 507.84 579.75 490.18 571.25 472.52 565.85 454.86 564.1 437.21 566.2 419.55 571.91 401.89 580.65 384.23 598.93 374.74 618.13 362.45 638.13 347.75 658.79 331.15 679.92 313.25 701.32 294.75 722.76 276.31 744 258.6 744 258.6 744 258.6"
            stroke-dasharray="0 0" transform="rotate(0, 711, 400)" opacity="0.63"></path>
        <path
            d="M739.28 264.14Q759.07 266.84 770.03 278.88 773.86 289.39 777.94 302.49 764.27 316.34 755.52 330.19 752.5 344.04 755.51 357.89 764.26 371.74 777.92 385.6 795.2 399.45 814.45 413.3 806.24 415.51 795.4 427.81 788.07 440.32 779.46 456.32 769.54 475.41 758.29 497 740.46 505.39 721.86 513.86 702.68 521.48 683.12 527.42 663.39 530.96 643.69 531.53 624.19 528.74 605.07 522.42 593.7 505.56 583.5 488.7 575.43 471.83 570.26 454.97 568.48 438.11 570.26 421.25 575.43 404.39 583.51 387.53 600.76 377.51 618.9 365 637.82 350.37 657.42 334.1 677.55 316.75 698.03 298.9 718.68 281.18 739.28 264.14 739.28 264.14 739.28 264.14"
            stroke-dasharray="0 0" transform="rotate(0, 711, 400)" opacity="0.65"></path>
        <path
            d="M734.16 269.69Q751.95 271.27 762.32 281.49 766.21 290.77 770.41 302.45 758.22 315.55 750.57 328.65 748.13 341.75 751.1 354.85 759.23 367.95 771.83 381.06 787.79 394.16 805.76 407.26 798.17 411.36 788.46 424.76 782 437.18 774.45 452.71 765.76 470.97 755.88 491.45 738.24 499.29 720.01 507.24 701.35 514.49 682.46 520.34 663.49 524.14 644.63 525.37 626.02 523.67 607.81 518.83 596.92 502.78 587.24 486.73 579.6 470.68 574.67 454.63 572.87 438.59 574.35 422.54 578.98 406.49 586.38 390.45 602.6 379.99 619.66 367.34 637.5 352.86 656.01 336.98 675.08 320.2 694.57 303.04 714.32 286.04 734.16 269.69 734.16 269.69 734.16 269.69"
            stroke-dasharray="0 0" transform="rotate(0, 711, 400)" opacity="0.67"></path>
        <path
            d="M728.72 275.23Q744.87 275.8 754.81 284.32 758.76 292.4 763.07 302.71 752.29 315.08 745.68 327.45 743.77 339.82 746.69 352.19 754.23 364.56 765.8 376.93 780.49 389.3 797.16 401.67 790.1 407.5 781.35 421.82 775.66 434.1 769.06 449.11 761.47 466.53 752.85 485.91 735.53 493.21 717.78 500.64 699.74 507.52 681.58 513.23 663.43 517.21 645.45 519 627.76 518.25 610.49 514.73 600.11 499.51 590.97 484.29 583.77 469.07 579.08 453.85 577.26 438.63 578.45 423.4 582.56 408.18 589.28 392.96 604.47 382.17 620.46 369.47 637.19 355.2 654.58 339.76 672.55 323.59 690.99 307.14 709.76 290.88 728.72 275.23 728.72 275.23 728.72 275.23"
            stroke-dasharray="0 0" transform="rotate(0, 711, 400)" opacity="0.68"></path>
        <path
            d="M723.05 280.77Q737.88 280.42 747.51 287.35 751.54 294.29 755.95 303.27 746.5 314.94 740.86 326.6 739.42 338.26 742.28 349.92 749.25 361.58 759.83 373.24 773.29 384.9 788.68 396.56 782.04 403.94 774.12 419 769.1 431.06 763.33 445.52 756.72 462.08 749.24 480.37 732.37 487.15 715.2 494.07 697.87 500.57 680.51 506.1 663.24 510.19 646.18 512.43 629.44 512.5 613.12 510.17 603.29 495.78 594.7 481.39 587.94 467 583.49 452.61 581.66 438.22 582.58 423.83 586.18 409.44 592.22 395.05 606.39 384.03 621.3 371.38 636.91 357.41 653.17 342.46 670.01 326.93 687.34 311.22 705.05 295.7 723.05 280.77 723.05 280.77 723.05 280.77"
            stroke-dasharray="0 0" transform="rotate(0, 711, 400)" opacity="0.70"></path>
        <path
            d="M717.19 286.32Q731 285.14 740.44 290.61 744.53 296.49 749.03 304.2 740.84 315.16 736.09 326.13 735.08 337.09 737.87 348.06 744.28 359.02 753.92 369.99 766.18 380.95 780.3 391.92 774.02 400.67 766.79 416.27 762.35 428.06 757.3 441.92 751.57 457.62 745.1 474.81 728.79 481.1 712.31 487.52 695.77 493.62 679.27 498.94 662.92 503.08 646.82 505.67 631.06 506.43 615.7 505.13 606.45 491.58 598.42 478.03 592.1 464.49 587.9 450.94 586.07 437.39 586.74 423.84 589.85 410.3 595.21 396.75 608.36 385.61 622.2 373.09 636.69 359.48 651.8 345.08 667.48 330.23 683.66 315.27 700.26 300.53 717.19 286.32 717.19 286.32 717.19 286.32"
            stroke-dasharray="0 0" transform="rotate(0, 711, 400)" opacity="0.72"></path>
        <path
            d="M711.26 291.86Q731.02 294.47 742.31 305.48 735.31 315.77 731.39 326.05 730.76 336.34 733.46 346.63 739.34 356.91 748.07 367.2 764.18 384.36 766.17 396.66 762.95 404.14 759.41 413.65 755.46 425.1 751.04 438.34 746.06 453.16 740.48 469.27 724.86 475.06 709.16 481 693.47 486.7 677.9 491.78 662.51 495.89 647.4 498.74 632.62 500.06 618.25 499.65 609.6 486.95 602.13 474.25 596.26 461.55 592.31 448.85 590.5 436.15 590.92 423.45 593.56 410.75 598.26 398.05 610.41 386.9 623.18 374.61 636.56 361.43 650.52 347.62 665.02 333.48 680.02 319.29 695.46 305.33 711.26 291.86 711.26 291.86 711.26 291.86"
            stroke-dasharray="0 0" transform="rotate(0, 711, 400)" opacity="0.74"></path>
        <path
            d="M705.32 297.4Q724.51 298.32 735.81 307.15 729.91 316.77 726.74 326.4 726.45 336.02 729.05 345.64 734.42 355.26 742.3 364.89 756.72 381.37 758.27 394.1 755.26 401.74 752.02 411.13 748.49 422.18 744.59 434.76 740.27 448.69 735.46 463.73 720.62 469.04 705.78 474.51 691.02 479.8 676.42 484.61 662.04 488.65 647.93 491.67 634.16 493.44 620.78 493.77 612.75 481.92 605.86 470.07 600.43 458.21 596.72 446.36 594.93 434.51 595.13 422.65 597.32 410.8 601.39 398.94 612.54 387.9 624.26 375.92 636.54 363.24 649.35 350.08 662.67 336.69 676.47 323.28 690.71 310.12 705.32 297.4 705.32 297.4 705.32 297.4"
            stroke-dasharray="0 0" transform="rotate(0, 711, 400)" opacity="0.75"></path>
        <path
            d="M699.46 302.95Q721.43 310.29 722.15 327.16 722.15 336.13 724.64 345.1 729.52 354.07 736.58 363.04 749.37 378.81 750.47 391.79 747.63 399.5 744.66 408.68 741.47 419.28 738.01 431.17 734.24 444.2 730.1 458.18 716.13 463.03 702.23 468.03 688.45 472.91 674.86 477.43 661.5 481.36 648.43 484.46 635.68 486.56 623.29 487.49 615.9 476.49 609.58 465.49 604.58 454.49 601.13 443.48 599.37 432.48 599.37 421.48 601.14 410.47 604.59 399.47 614.77 388.63 625.46 377.06 636.64 364.95 648.31 352.48 660.46 339.85 673.05 327.26 686.06 314.9 699.46 302.95 699.46 302.95 699.46 302.95"
            stroke-dasharray="0 0" transform="rotate(0, 711, 400)" opacity="0.77"></path>
        <path
            d="M693.76 308.5Q715.85 313.35 717.61 328.36 717.86 336.68 720.23 345.01 724.63 353.34 730.92 361.66 742.16 376.68 742.81 389.75 740.12 397.41 737.36 406.33 734.46 416.42 731.37 427.59 728.06 439.72 724.47 452.64 711.46 457.05 698.55 461.59 685.8 466.06 673.26 470.27 660.95 474.03 648.91 477.14 637.18 479.47 625.79 480.86 619.05 470.7 613.3 460.55 608.74 450.39 605.54 440.24 603.82 430.09 603.65 419.93 605.01 409.78 607.88 399.63 617.11 389.11 626.79 378.03 636.9 366.54 647.45 354.8 658.43 342.97 669.82 331.21 687.69 314.08 693.76 308.5"
            stroke-dasharray="0 0" transform="rotate(0, 711, 400)" opacity="0.79"></path>
        <path
            d="M688.3 314.04Q701.77 310.6 717.59 314.6 713.13 329.99 715.82 345.38 725.33 360.76 740.49 376.15 735.31 387.96 730.17 404.05 724.72 424.01 718.66 447.1 694.8 455.18 671.64 463.13 649.41 469.74 628.3 473.92 617.03 455.29 609.95 436.67 607.95 418.05 611.28 399.43 628.27 378.82 646.8 357.05 666.83 335.13 688.3 314.04 688.3 314.04 688.3 314.04"
            stroke-dasharray="0 0" transform="rotate(0, 711, 400)" opacity="0.81"></path>
        <path
            d="M683.15 319.59Q696.4 315.73 711.95 317.94 708.7 332.07 711.41 346.2 719.8 360.33 733 374.46 727.98 386.4 723.11 401.85 718.11 420.43 712.73 441.55 691.03 448.79 670.04 456 649.93 462.25 630.83 466.69 620.76 449.75 614.36 432.81 612.3 415.86 614.78 398.92 629.92 379.47 646.37 359.25 664.12 339.03 683.15 319.59 683.15 319.59 683.15 319.59"
            stroke-dasharray="0 0" transform="rotate(0, 711, 400)" opacity="0.82"></path>
        <path
            d="M678.4 325.13Q691.37 321.01 706.51 321.7 704.31 334.58 707 347.46 714.33 360.34 725.68 373.22 720.85 385.06 716.22 399.7 711.6 416.84 706.79 436.01 687.3 442.43 668.5 448.9 650.49 454.71 633.38 459.22 624.51 443.94 618.78 428.66 616.68 413.38 618.4 398.1 631.75 379.98 646.19 361.38 661.75 342.9 678.4 325.13 678.4 325.13 678.4 325.13"
            stroke-dasharray="0 0" transform="rotate(0, 711, 400)" opacity="0.84"></path>
        <path
            d="M674.09 330.67Q693.35 331.96 702.58 349.15 708.92 360.8 718.55 372.44 713.93 383.94 709.54 397.63 705.25 413.25 700.91 430.47 683.66 436.1 667.04 441.83 651.13 447.15 635.98 451.56 628.26 437.92 623.18 424.28 621.1 410.64 622.15 397.01 633.78 380.36 646.3 363.46 659.74 346.76 674.09 330.67 674.09 330.67 674.09 330.67"
            stroke-dasharray="0 0" transform="rotate(0, 711, 400)" opacity="0.86"></path>
        <path
            d="M670.29 336.22Q689.07 336.41 698.17 351.27 703.57 361.67 711.59 372.07 707.23 383 703.1 395.6 699.11 409.65 695.15 424.92 680.15 429.8 665.7 434.8 651.84 439.56 638.62 443.73 632.03 431.71 627.6 419.7 625.56 407.69 626.03 395.68 636.02 380.63 646.71 365.49 658.13 350.59 670.29 336.22 670.29 336.22 670.29 336.22"
            stroke-dasharray="0 0" transform="rotate(0, 711, 400)" opacity="0.88"></path>
        <path
            d="M667.06 341.76Q685.01 341.13 693.76 353.79 698.29 362.94 704.83 372.09 700.76 382.25 696.92 393.62 693.23 406.05 689.63 419.38 676.84 423.54 664.51 427.82 644.24 428.67 632.01 414.96 630.06 404.55 630.06 394.14 638.49 380.8 647.45 367.48 662.01 348.08 667.06 341.76"
            stroke-dasharray="0 0" transform="rotate(0, 711, 400)" opacity="0.89"></path>
        <path
            d="M664.44 347.3Q674.91 343.17 686.84 340.9 689.35 356.7 698.26 372.48 691.03 391.68 684.4 413.84 663.5 420.88 644.1 427.78 636.42 410.1 634.24 392.41 648.53 369.43 664.44 347.3 664.44 347.3 664.44 347.3"
            stroke-dasharray="0 0" transform="rotate(0, 711, 400)" opacity="0.91"></path>
        <path
            d="M662.46 352.85Q671.91 349.17 682.41 346.7 684.94 359.94 691.88 373.2 685.45 389.78 679.54 408.29 662.7 414 646.96 419.73 640.83 405.14 638.59 390.56 649.96 371.34 662.46 352.85 662.46 352.85 662.46 352.85"
            stroke-dasharray="0 0" transform="rotate(0, 711, 400)" opacity="0.93"></path>
        <path
            d="M661.16 358.39Q674.92 359.4 685.69 374.22 680.21 387.9 675.11 402.75 662.15 407.18 649.91 411.7 645.24 400.15 643.09 388.6 651.77 373.22 661.16 358.39 661.16 358.39 661.16 358.39"
            stroke-dasharray="0 0" transform="rotate(0, 711, 400)" opacity="0.95"></path>
        <path d="M660.54 363.93Q673.47 375.25 671.19 397.21 657.7 375.19 660.54 363.93"
            stroke-dasharray="0 0" transform="rotate(0, 711, 400)" opacity="0.96"></path>
        <path d="M660.63 369.48Q659.43 375.92 660.63 369.48" stroke-dasharray="0 0"
            transform="rotate(0, 711, 400)" opacity="0.98"></path>
    </g>
</svg>