<svg xmlns="http://www.w3.org/2000/svg" version="1.1" xmlns:xlink="http://www.w3.org/1999/xlink" xmlns:svgjs="http://svgjs.dev/svgjs" viewBox="0 0 1422 800"><g fill="none" stroke-width="0.5" stroke="hsl(0, 0%, 52%)" stroke-linecap="round" stroke-dasharray="64.5 125"><line x1="1414.5" y1="400" x2="7.5" y2="400" transform="rotate(0, 711, 400)" opacity="0.92"></line><line x1="1413" y1="400" x2="9" y2="400" transform="rotate(1, 711, 400)" opacity="0.53"></line><line x1="1290" y1="400" x2="132" y2="400" transform="rotate(2, 711, 400)" opacity="0.81"></line><line x1="1245.5" y1="400" x2="176.5" y2="400" transform="rotate(3, 711, 400)" opacity="0.60"></line><line x1="1310" y1="400" x2="112" y2="400" transform="rotate(4, 711, 400)" opacity="0.49"></line><line x1="1185.5" y1="400" x2="236.5" y2="400" transform="rotate(5, 711, 400)" opacity="0.25"></line><line x1="1416" y1="400" x2="6" y2="400" transform="rotate(6, 711, 400)" opacity="0.94"></line><line x1="1164" y1="400" x2="258" y2="400" transform="rotate(7, 711, 400)" opacity="1.00"></line><line x1="1404" y1="400" x2="18" y2="400" transform="rotate(8, 711, 400)" opacity="0.62"></line><line x1="1415.5" y1="400" x2="6.5" y2="400" transform="rotate(9, 711, 400)" opacity="0.95"></line><line x1="1415" y1="400" x2="7" y2="400" transform="rotate(10, 711, 400)" opacity="0.91"></line><line x1="1241" y1="400" x2="181" y2="400" transform="rotate(11, 711, 400)" opacity="0.29"></line><line x1="1191.5" y1="400" x2="230.5" y2="400" transform="rotate(12, 711, 400)" opacity="0.78"></line><line x1="1393" y1="400" x2="29" y2="400" transform="rotate(13, 711, 400)" opacity="0.60"></line><line x1="1356" y1="400" x2="66" y2="400" transform="rotate(14, 711, 400)" opacity="0.58"></line><line x1="1301" y1="400" x2="121" y2="400" transform="rotate(15, 711, 400)" opacity="0.20"></line><line x1="1194.5" y1="400" x2="227.5" y2="400" transform="rotate(16, 711, 400)" opacity="0.39"></line><line x1="1179" y1="400" x2="243" y2="400" transform="rotate(17, 711, 400)" opacity="0.53"></line><line x1="1420" y1="400" x2="2" y2="400" transform="rotate(18, 711, 400)" opacity="0.62"></line><line x1="1364.5" y1="400" x2="57.5" y2="400" transform="rotate(19, 711, 400)" opacity="0.87"></line><line x1="1272.5" y1="400" x2="149.5" y2="400" transform="rotate(20, 711, 400)" opacity="0.54"></line><line x1="1268" y1="400" x2="154" y2="400" transform="rotate(21, 711, 400)" opacity="0.11"></line><line x1="1366.5" y1="400" x2="55.5" y2="400" transform="rotate(22, 711, 400)" opacity="0.62"></line><line x1="1181" y1="400" x2="241" y2="400" transform="rotate(23, 711, 400)" opacity="0.72"></line><line x1="1259.5" y1="400" x2="162.5" y2="400" transform="rotate(24, 711, 400)" opacity="0.20"></line><line x1="1163.5" y1="400" x2="258.5" y2="400" transform="rotate(25, 711, 400)" opacity="0.84"></line><line x1="1238.5" y1="400" x2="183.5" y2="400" transform="rotate(26, 711, 400)" opacity="0.50"></line><line x1="1310.5" y1="400" x2="111.5" y2="400" transform="rotate(27, 711, 400)" opacity="0.84"></line><line x1="1225" y1="400" x2="197" y2="400" transform="rotate(28, 711, 400)" opacity="0.96"></line><line x1="1192.5" y1="400" x2="229.5" y2="400" transform="rotate(29, 711, 400)" opacity="0.43"></line><line x1="1231.5" y1="400" x2="190.5" y2="400" transform="rotate(30, 711, 400)" opacity="0.19"></line><line x1="1241.5" y1="400" x2="180.5" y2="400" transform="rotate(31, 711, 400)" opacity="0.30"></line><line x1="1207" y1="400" x2="215" y2="400" transform="rotate(32, 711, 400)" opacity="0.81"></line><line x1="1284" y1="400" x2="138" y2="400" transform="rotate(33, 711, 400)" opacity="0.93"></line><line x1="1280.5" y1="400" x2="141.5" y2="400" transform="rotate(34, 711, 400)" opacity="0.80"></line><line x1="1405" y1="400" x2="17" y2="400" transform="rotate(35, 711, 400)" opacity="0.85"></line><line x1="1336.5" y1="400" x2="85.5" y2="400" transform="rotate(36, 711, 400)" opacity="0.09"></line><line x1="1240" y1="400" x2="182" y2="400" transform="rotate(37, 711, 400)" opacity="0.27"></line><line x1="1396" y1="400" x2="26" y2="400" transform="rotate(38, 711, 400)" opacity="0.49"></line><line x1="1289" y1="400" x2="133" y2="400" transform="rotate(39, 711, 400)" opacity="0.91"></line><line x1="1323.5" y1="400" x2="98.5" y2="400" transform="rotate(40, 711, 400)" opacity="0.31"></line><line x1="1374" y1="400" x2="48" y2="400" transform="rotate(41, 711, 400)" opacity="0.56"></line><line x1="1410.5" y1="400" x2="11.5" y2="400" transform="rotate(42, 711, 400)" opacity="0.79"></line><line x1="1418.5" y1="400" x2="3.5" y2="400" transform="rotate(43, 711, 400)" opacity="0.59"></line><line x1="1324.5" y1="400" x2="97.5" y2="400" transform="rotate(44, 711, 400)" opacity="0.71"></line><line x1="1183.5" y1="400" x2="238.5" y2="400" transform="rotate(45, 711, 400)" opacity="0.35"></line><line x1="1169" y1="400" x2="253" y2="400" transform="rotate(46, 711, 400)" opacity="0.94"></line><line x1="1227" y1="400" x2="195" y2="400" transform="rotate(47, 711, 400)" opacity="0.66"></line><line x1="1200.5" y1="400" x2="221.5" y2="400" transform="rotate(48, 711, 400)" opacity="0.92"></line><line x1="1259.5" y1="400" x2="162.5" y2="400" transform="rotate(49, 711, 400)" opacity="0.59"></line><line x1="1316" y1="400" x2="106" y2="400" transform="rotate(50, 711, 400)" opacity="0.11"></line><line x1="1360" y1="400" x2="62" y2="400" transform="rotate(51, 711, 400)" opacity="0.29"></line><line x1="1420.5" y1="400" x2="1.5" y2="400" transform="rotate(52, 711, 400)" opacity="0.17"></line><line x1="1286.5" y1="400" x2="135.5" y2="400" transform="rotate(53, 711, 400)" opacity="0.18"></line><line x1="1256" y1="400" x2="166" y2="400" transform="rotate(54, 711, 400)" opacity="0.25"></line><line x1="1370.5" y1="400" x2="51.5" y2="400" transform="rotate(55, 711, 400)" opacity="0.35"></line><line x1="1391" y1="400" x2="31" y2="400" transform="rotate(56, 711, 400)" opacity="0.09"></line><line x1="1353" y1="400" x2="69" y2="400" transform="rotate(57, 711, 400)" opacity="0.35"></line><line x1="1206.5" y1="400" x2="215.5" y2="400" transform="rotate(58, 711, 400)" opacity="0.40"></line><line x1="1272" y1="400" x2="150" y2="400" transform="rotate(59, 711, 400)" opacity="0.43"></line><line x1="1287.5" y1="400" x2="134.5" y2="400" transform="rotate(60, 711, 400)" opacity="0.71"></line><line x1="1351.5" y1="400" x2="70.5" y2="400" transform="rotate(61, 711, 400)" opacity="0.66"></line><line x1="1308" y1="400" x2="114" y2="400" transform="rotate(62, 711, 400)" opacity="0.96"></line><line x1="1387.5" y1="400" x2="34.5" y2="400" transform="rotate(63, 711, 400)" opacity="0.76"></line><line x1="1238.5" y1="400" x2="183.5" y2="400" transform="rotate(64, 711, 400)" opacity="0.48"></line><line x1="1356.5" y1="400" x2="65.5" y2="400" transform="rotate(65, 711, 400)" opacity="0.11"></line><line x1="1287" y1="400" x2="135" y2="400" transform="rotate(66, 711, 400)" opacity="0.18"></line><line x1="1391.5" y1="400" x2="30.5" y2="400" transform="rotate(67, 711, 400)" opacity="0.40"></line><line x1="1345.5" y1="400" x2="76.5" y2="400" transform="rotate(68, 711, 400)" opacity="0.16"></line><line x1="1405" y1="400" x2="17" y2="400" transform="rotate(69, 711, 400)" opacity="0.24"></line><line x1="1386.5" y1="400" x2="35.5" y2="400" transform="rotate(70, 711, 400)" opacity="0.91"></line><line x1="1253" y1="400" x2="169" y2="400" transform="rotate(71, 711, 400)" opacity="0.09"></line><line x1="1330" y1="400" x2="92" y2="400" transform="rotate(72, 711, 400)" opacity="0.98"></line><line x1="1415.5" y1="400" x2="6.5" y2="400" transform="rotate(73, 711, 400)" opacity="0.77"></line><line x1="1345" y1="400" x2="77" y2="400" transform="rotate(74, 711, 400)" opacity="0.43"></line><line x1="1352.5" y1="400" x2="69.5" y2="400" transform="rotate(75, 711, 400)" opacity="0.82"></line><line x1="1209.5" y1="400" x2="212.5" y2="400" transform="rotate(76, 711, 400)" opacity="0.72"></line><line x1="1268" y1="400" x2="154" y2="400" transform="rotate(77, 711, 400)" opacity="0.61"></line><line x1="1192" y1="400" x2="230" y2="400" transform="rotate(78, 711, 400)" opacity="0.81"></line><line x1="1407.5" y1="400" x2="14.5" y2="400" transform="rotate(79, 711, 400)" opacity="0.11"></line><line x1="1325" y1="400" x2="97" y2="400" transform="rotate(80, 711, 400)" opacity="0.66"></line><line x1="1344.5" y1="400" x2="77.5" y2="400" transform="rotate(81, 711, 400)" opacity="0.92"></line><line x1="1339.5" y1="400" x2="82.5" y2="400" transform="rotate(82, 711, 400)" opacity="0.26"></line><line x1="1237.5" y1="400" x2="184.5" y2="400" transform="rotate(83, 711, 400)" opacity="0.51"></line><line x1="1333.5" y1="400" x2="88.5" y2="400" transform="rotate(84, 711, 400)" opacity="0.75"></line><line x1="1166" y1="400" x2="256" y2="400" transform="rotate(85, 711, 400)" opacity="0.37"></line><line x1="1407" y1="400" x2="15" y2="400" transform="rotate(86, 711, 400)" opacity="0.30"></line><line x1="1243" y1="400" x2="179" y2="400" transform="rotate(87, 711, 400)" opacity="0.62"></line><line x1="1195.5" y1="400" x2="226.5" y2="400" transform="rotate(88, 711, 400)" opacity="0.12"></line><line x1="1265.5" y1="400" x2="156.5" y2="400" transform="rotate(89, 711, 400)" opacity="0.39"></line><line x1="1334.5" y1="400" x2="87.5" y2="400" transform="rotate(90, 711, 400)" opacity="0.50"></line><line x1="1292" y1="400" x2="130" y2="400" transform="rotate(91, 711, 400)" opacity="0.74"></line><line x1="1168" y1="400" x2="254" y2="400" transform="rotate(92, 711, 400)" opacity="0.16"></line><line x1="1260" y1="400" x2="162" y2="400" transform="rotate(93, 711, 400)" opacity="0.56"></line><line x1="1342.5" y1="400" x2="79.5" y2="400" transform="rotate(94, 711, 400)" opacity="0.40"></line><line x1="1293.5" y1="400" x2="128.5" y2="400" transform="rotate(95, 711, 400)" opacity="0.63"></line><line x1="1174.5" y1="400" x2="247.5" y2="400" transform="rotate(96, 711, 400)" opacity="0.71"></line><line x1="1169" y1="400" x2="253" y2="400" transform="rotate(97, 711, 400)" opacity="0.10"></line><line x1="1241.5" y1="400" x2="180.5" y2="400" transform="rotate(98, 711, 400)" opacity="0.20"></line><line x1="1354.5" y1="400" x2="67.5" y2="400" transform="rotate(99, 711, 400)" opacity="0.48"></line><line x1="1181.5" y1="400" x2="240.5" y2="400" transform="rotate(100, 711, 400)" opacity="0.59"></line><line x1="1291" y1="400" x2="131" y2="400" transform="rotate(101, 711, 400)" opacity="0.41"></line><line x1="1292" y1="400" x2="130" y2="400" transform="rotate(102, 711, 400)" opacity="0.58"></line><line x1="1364.5" y1="400" x2="57.5" y2="400" transform="rotate(103, 711, 400)" opacity="1.00"></line><line x1="1179" y1="400" x2="243" y2="400" transform="rotate(104, 711, 400)" opacity="0.19"></line><line x1="1297.5" y1="400" x2="124.5" y2="400" transform="rotate(105, 711, 400)" opacity="0.71"></line><line x1="1221" y1="400" x2="201" y2="400" transform="rotate(106, 711, 400)" opacity="0.76"></line><line x1="1384" y1="400" x2="38" y2="400" transform="rotate(107, 711, 400)" opacity="0.28"></line><line x1="1266.5" y1="400" x2="155.5" y2="400" transform="rotate(108, 711, 400)" opacity="0.40"></line><line x1="1367" y1="400" x2="55" y2="400" transform="rotate(109, 711, 400)" opacity="0.23"></line><line x1="1413.5" y1="400" x2="8.5" y2="400" transform="rotate(110, 711, 400)" opacity="0.48"></line><line x1="1392" y1="400" x2="30" y2="400" transform="rotate(111, 711, 400)" opacity="0.68"></line><line x1="1213" y1="400" x2="209" y2="400" transform="rotate(112, 711, 400)" opacity="0.47"></line><line x1="1192" y1="400" x2="230" y2="400" transform="rotate(113, 711, 400)" opacity="0.29"></line><line x1="1251.5" y1="400" x2="170.5" y2="400" transform="rotate(114, 711, 400)" opacity="0.82"></line><line x1="1365.5" y1="400" x2="56.5" y2="400" transform="rotate(115, 711, 400)" opacity="0.39"></line><line x1="1180" y1="400" x2="242" y2="400" transform="rotate(116, 711, 400)" opacity="0.14"></line><line x1="1300.5" y1="400" x2="121.5" y2="400" transform="rotate(117, 711, 400)" opacity="0.83"></line><line x1="1192" y1="400" x2="230" y2="400" transform="rotate(118, 711, 400)" opacity="0.39"></line><line x1="1165.5" y1="400" x2="256.5" y2="400" transform="rotate(119, 711, 400)" opacity="0.92"></line><line x1="1326" y1="400" x2="96" y2="400" transform="rotate(120, 711, 400)" opacity="0.79"></line><line x1="1398.5" y1="400" x2="23.5" y2="400" transform="rotate(121, 711, 400)" opacity="0.52"></line><line x1="1334.5" y1="400" x2="87.5" y2="400" transform="rotate(122, 711, 400)" opacity="0.53"></line><line x1="1319.5" y1="400" x2="102.5" y2="400" transform="rotate(123, 711, 400)" opacity="0.37"></line><line x1="1302" y1="400" x2="120" y2="400" transform="rotate(124, 711, 400)" opacity="0.59"></line><line x1="1366" y1="400" x2="56" y2="400" transform="rotate(125, 711, 400)" opacity="0.90"></line><line x1="1235" y1="400" x2="187" y2="400" transform="rotate(126, 711, 400)" opacity="0.11"></line><line x1="1359.5" y1="400" x2="62.5" y2="400" transform="rotate(127, 711, 400)" opacity="0.66"></line><line x1="1385" y1="400" x2="37" y2="400" transform="rotate(128, 711, 400)" opacity="0.62"></line><line x1="1299.5" y1="400" x2="122.5" y2="400" transform="rotate(129, 711, 400)" opacity="0.75"></line><line x1="1266.5" y1="400" x2="155.5" y2="400" transform="rotate(130, 711, 400)" opacity="0.28"></line><line x1="1234" y1="400" x2="188" y2="400" transform="rotate(131, 711, 400)" opacity="0.77"></line><line x1="1230" y1="400" x2="192" y2="400" transform="rotate(132, 711, 400)" opacity="0.31"></line><line x1="1326" y1="400" x2="96" y2="400" transform="rotate(133, 711, 400)" opacity="0.14"></line><line x1="1301" y1="400" x2="121" y2="400" transform="rotate(134, 711, 400)" opacity="0.54"></line><line x1="1290" y1="400" x2="132" y2="400" transform="rotate(135, 711, 400)" opacity="0.75"></line><line x1="1269.5" y1="400" x2="152.5" y2="400" transform="rotate(136, 711, 400)" opacity="0.96"></line><line x1="1326.5" y1="400" x2="95.5" y2="400" transform="rotate(137, 711, 400)" opacity="0.46"></line><line x1="1186" y1="400" x2="236" y2="400" transform="rotate(138, 711, 400)" opacity="0.92"></line><line x1="1257" y1="400" x2="165" y2="400" transform="rotate(139, 711, 400)" opacity="0.45"></line><line x1="1263" y1="400" x2="159" y2="400" transform="rotate(140, 711, 400)" opacity="0.47"></line><line x1="1223" y1="400" x2="199" y2="400" transform="rotate(141, 711, 400)" opacity="0.26"></line><line x1="1203" y1="400" x2="219" y2="400" transform="rotate(142, 711, 400)" opacity="0.91"></line><line x1="1227.5" y1="400" x2="194.5" y2="400" transform="rotate(143, 711, 400)" opacity="0.39"></line><line x1="1168" y1="400" x2="254" y2="400" transform="rotate(144, 711, 400)" opacity="0.83"></line><line x1="1285.5" y1="400" x2="136.5" y2="400" transform="rotate(145, 711, 400)" opacity="0.15"></line><line x1="1230" y1="400" x2="192" y2="400" transform="rotate(146, 711, 400)" opacity="0.91"></line><line x1="1371" y1="400" x2="51" y2="400" transform="rotate(147, 711, 400)" opacity="0.30"></line><line x1="1290" y1="400" x2="132" y2="400" transform="rotate(148, 711, 400)" opacity="0.60"></line><line x1="1165.5" y1="400" x2="256.5" y2="400" transform="rotate(149, 711, 400)" opacity="0.70"></line><line x1="1215" y1="400" x2="207" y2="400" transform="rotate(150, 711, 400)" opacity="0.10"></line><line x1="1249.5" y1="400" x2="172.5" y2="400" transform="rotate(151, 711, 400)" opacity="0.29"></line><line x1="1237.5" y1="400" x2="184.5" y2="400" transform="rotate(152, 711, 400)" opacity="0.50"></line><line x1="1393.5" y1="400" x2="28.5" y2="400" transform="rotate(153, 711, 400)" opacity="0.17"></line><line x1="1319.5" y1="400" x2="102.5" y2="400" transform="rotate(154, 711, 400)" opacity="0.28"></line><line x1="1368" y1="400" x2="54" y2="400" transform="rotate(155, 711, 400)" opacity="0.30"></line><line x1="1343" y1="400" x2="79" y2="400" transform="rotate(156, 711, 400)" opacity="0.80"></line><line x1="1210.5" y1="400" x2="211.5" y2="400" transform="rotate(157, 711, 400)" opacity="0.28"></line><line x1="1283.5" y1="400" x2="138.5" y2="400" transform="rotate(158, 711, 400)" opacity="0.92"></line><line x1="1382" y1="400" x2="40" y2="400" transform="rotate(159, 711, 400)" opacity="0.88"></line><line x1="1213.5" y1="400" x2="208.5" y2="400" transform="rotate(160, 711, 400)" opacity="0.14"></line><line x1="1248.5" y1="400" x2="173.5" y2="400" transform="rotate(161, 711, 400)" opacity="0.74"></line><line x1="1306.5" y1="400" x2="115.5" y2="400" transform="rotate(162, 711, 400)" opacity="0.28"></line><line x1="1203" y1="400" x2="219" y2="400" transform="rotate(163, 711, 400)" opacity="0.95"></line><line x1="1245" y1="400" x2="177" y2="400" transform="rotate(164, 711, 400)" opacity="0.82"></line><line x1="1306" y1="400" x2="116" y2="400" transform="rotate(165, 711, 400)" opacity="0.98"></line><line x1="1310.5" y1="400" x2="111.5" y2="400" transform="rotate(166, 711, 400)" opacity="0.40"></line><line x1="1168" y1="400" x2="254" y2="400" transform="rotate(167, 711, 400)" opacity="0.94"></line><line x1="1315.5" y1="400" x2="106.5" y2="400" transform="rotate(168, 711, 400)" opacity="0.81"></line><line x1="1235.5" y1="400" x2="186.5" y2="400" transform="rotate(169, 711, 400)" opacity="0.16"></line><line x1="1388.5" y1="400" x2="33.5" y2="400" transform="rotate(170, 711, 400)" opacity="0.63"></line><line x1="1263" y1="400" x2="159" y2="400" transform="rotate(171, 711, 400)" opacity="0.55"></line><line x1="1283" y1="400" x2="139" y2="400" transform="rotate(172, 711, 400)" opacity="0.27"></line><line x1="1238.5" y1="400" x2="183.5" y2="400" transform="rotate(173, 711, 400)" opacity="0.91"></line><line x1="1268.5" y1="400" x2="153.5" y2="400" transform="rotate(174, 711, 400)" opacity="0.23"></line><line x1="1230" y1="400" x2="192" y2="400" transform="rotate(175, 711, 400)" opacity="0.58"></line><line x1="1320.5" y1="400" x2="101.5" y2="400" transform="rotate(176, 711, 400)" opacity="0.66"></line><line x1="1398" y1="400" x2="24" y2="400" transform="rotate(177, 711, 400)" opacity="0.63"></line><line x1="1414" y1="400" x2="8" y2="400" transform="rotate(178, 711, 400)" opacity="0.95"></line><line x1="1396.5" y1="400" x2="25.5" y2="400" transform="rotate(179, 711, 400)" opacity="0.91"></line><line x1="1290.5" y1="400" x2="131.5" y2="400" transform="rotate(180, 711, 400)" opacity="0.19"></line><line x1="1312" y1="400" x2="110" y2="400" transform="rotate(181, 711, 400)" opacity="0.58"></line><line x1="1337" y1="400" x2="85" y2="400" transform="rotate(182, 711, 400)" opacity="0.30"></line><line x1="1313.5" y1="400" x2="108.5" y2="400" transform="rotate(183, 711, 400)" opacity="0.45"></line><line x1="1404.5" y1="400" x2="17.5" y2="400" transform="rotate(184, 711, 400)" opacity="0.67"></line><line x1="1322.5" y1="400" x2="99.5" y2="400" transform="rotate(185, 711, 400)" opacity="0.65"></line><line x1="1207" y1="400" x2="215" y2="400" transform="rotate(186, 711, 400)" opacity="0.39"></line><line x1="1259" y1="400" x2="163" y2="400" transform="rotate(187, 711, 400)" opacity="0.44"></line><line x1="1235.5" y1="400" x2="186.5" y2="400" transform="rotate(188, 711, 400)" opacity="0.99"></line><line x1="1322" y1="400" x2="100" y2="400" transform="rotate(189, 711, 400)" opacity="0.33"></line><line x1="1179.5" y1="400" x2="242.5" y2="400" transform="rotate(190, 711, 400)" opacity="0.18"></line><line x1="1297.5" y1="400" x2="124.5" y2="400" transform="rotate(191, 711, 400)" opacity="0.48"></line><line x1="1234.5" y1="400" x2="187.5" y2="400" transform="rotate(192, 711, 400)" opacity="0.10"></line><line x1="1368" y1="400" x2="54" y2="400" transform="rotate(193, 711, 400)" opacity="0.79"></line><line x1="1357.5" y1="400" x2="64.5" y2="400" transform="rotate(194, 711, 400)" opacity="0.12"></line><line x1="1270.5" y1="400" x2="151.5" y2="400" transform="rotate(195, 711, 400)" opacity="0.93"></line><line x1="1381" y1="400" x2="41" y2="400" transform="rotate(196, 711, 400)" opacity="0.50"></line><line x1="1304.5" y1="400" x2="117.5" y2="400" transform="rotate(197, 711, 400)" opacity="0.68"></line><line x1="1303.5" y1="400" x2="118.5" y2="400" transform="rotate(198, 711, 400)" opacity="0.84"></line><line x1="1324" y1="400" x2="98" y2="400" transform="rotate(199, 711, 400)" opacity="0.99"></line><line x1="1205.5" y1="400" x2="216.5" y2="400" transform="rotate(200, 711, 400)" opacity="0.16"></line><line x1="1242" y1="400" x2="180" y2="400" transform="rotate(201, 711, 400)" opacity="0.91"></line><line x1="1366" y1="400" x2="56" y2="400" transform="rotate(202, 711, 400)" opacity="0.31"></line><line x1="1340" y1="400" x2="82" y2="400" transform="rotate(203, 711, 400)" opacity="0.96"></line><line x1="1275" y1="400" x2="147" y2="400" transform="rotate(204, 711, 400)" opacity="0.70"></line><line x1="1241" y1="400" x2="181" y2="400" transform="rotate(205, 711, 400)" opacity="0.72"></line><line x1="1420" y1="400" x2="2" y2="400" transform="rotate(206, 711, 400)" opacity="0.16"></line><line x1="1394.5" y1="400" x2="27.5" y2="400" transform="rotate(207, 711, 400)" opacity="0.67"></line><line x1="1285" y1="400" x2="137" y2="400" transform="rotate(208, 711, 400)" opacity="0.13"></line><line x1="1348" y1="400" x2="74" y2="400" transform="rotate(209, 711, 400)" opacity="0.72"></line><line x1="1307" y1="400" x2="115" y2="400" transform="rotate(210, 711, 400)" opacity="0.57"></line><line x1="1320.5" y1="400" x2="101.5" y2="400" transform="rotate(211, 711, 400)" opacity="0.62"></line><line x1="1171.5" y1="400" x2="250.5" y2="400" transform="rotate(212, 711, 400)" opacity="0.43"></line><line x1="1414.5" y1="400" x2="7.5" y2="400" transform="rotate(213, 711, 400)" opacity="0.82"></line><line x1="1339.5" y1="400" x2="82.5" y2="400" transform="rotate(214, 711, 400)" opacity="0.44"></line><line x1="1274.5" y1="400" x2="147.5" y2="400" transform="rotate(215, 711, 400)" opacity="0.94"></line><line x1="1345" y1="400" x2="77" y2="400" transform="rotate(216, 711, 400)" opacity="0.32"></line><line x1="1400" y1="400" x2="22" y2="400" transform="rotate(217, 711, 400)" opacity="0.48"></line><line x1="1418.5" y1="400" x2="3.5" y2="400" transform="rotate(218, 711, 400)" opacity="0.98"></line><line x1="1265" y1="400" x2="157" y2="400" transform="rotate(219, 711, 400)" opacity="0.15"></line><line x1="1200.5" y1="400" x2="221.5" y2="400" transform="rotate(220, 711, 400)" opacity="0.77"></line><line x1="1238.5" y1="400" x2="183.5" y2="400" transform="rotate(221, 711, 400)" opacity="0.17"></line><line x1="1244.5" y1="400" x2="177.5" y2="400" transform="rotate(222, 711, 400)" opacity="0.77"></line><line x1="1280.5" y1="400" x2="141.5" y2="400" transform="rotate(223, 711, 400)" opacity="0.19"></line><line x1="1248" y1="400" x2="174" y2="400" transform="rotate(224, 711, 400)" opacity="0.28"></line><line x1="1324" y1="400" x2="98" y2="400" transform="rotate(225, 711, 400)" opacity="0.11"></line><line x1="1170.5" y1="400" x2="251.5" y2="400" transform="rotate(226, 711, 400)" opacity="0.63"></line><line x1="1421.5" y1="400" x2="0.5" y2="400" transform="rotate(227, 711, 400)" opacity="0.37"></line><line x1="1306.5" y1="400" x2="115.5" y2="400" transform="rotate(228, 711, 400)" opacity="0.50"></line><line x1="1274.5" y1="400" x2="147.5" y2="400" transform="rotate(229, 711, 400)" opacity="0.35"></line><line x1="1209.5" y1="400" x2="212.5" y2="400" transform="rotate(230, 711, 400)" opacity="0.51"></line><line x1="1321.5" y1="400" x2="100.5" y2="400" transform="rotate(231, 711, 400)" opacity="0.31"></line><line x1="1229" y1="400" x2="193" y2="400" transform="rotate(232, 711, 400)" opacity="0.69"></line><line x1="1192" y1="400" x2="230" y2="400" transform="rotate(233, 711, 400)" opacity="0.85"></line><line x1="1201" y1="400" x2="221" y2="400" transform="rotate(234, 711, 400)" opacity="0.91"></line><line x1="1289" y1="400" x2="133" y2="400" transform="rotate(235, 711, 400)" opacity="0.15"></line><line x1="1375" y1="400" x2="47" y2="400" transform="rotate(236, 711, 400)" opacity="0.55"></line><line x1="1184" y1="400" x2="238" y2="400" transform="rotate(237, 711, 400)" opacity="0.54"></line><line x1="1370" y1="400" x2="52" y2="400" transform="rotate(238, 711, 400)" opacity="0.22"></line><line x1="1206" y1="400" x2="216" y2="400" transform="rotate(239, 711, 400)" opacity="0.82"></line><line x1="1288.5" y1="400" x2="133.5" y2="400" transform="rotate(240, 711, 400)" opacity="0.76"></line><line x1="1247" y1="400" x2="175" y2="400" transform="rotate(241, 711, 400)" opacity="0.73"></line><line x1="1345" y1="400" x2="77" y2="400" transform="rotate(242, 711, 400)" opacity="0.65"></line><line x1="1189" y1="400" x2="233" y2="400" transform="rotate(243, 711, 400)" opacity="0.17"></line><line x1="1169.5" y1="400" x2="252.5" y2="400" transform="rotate(244, 711, 400)" opacity="0.56"></line><line x1="1164.5" y1="400" x2="257.5" y2="400" transform="rotate(245, 711, 400)" opacity="0.51"></line><line x1="1201.5" y1="400" x2="220.5" y2="400" transform="rotate(246, 711, 400)" opacity="1.00"></line><line x1="1187.5" y1="400" x2="234.5" y2="400" transform="rotate(247, 711, 400)" opacity="0.09"></line><line x1="1332.5" y1="400" x2="89.5" y2="400" transform="rotate(248, 711, 400)" opacity="0.15"></line><line x1="1171.5" y1="400" x2="250.5" y2="400" transform="rotate(249, 711, 400)" opacity="0.36"></line><line x1="1358.5" y1="400" x2="63.5" y2="400" transform="rotate(250, 711, 400)" opacity="0.86"></line><line x1="1418.5" y1="400" x2="3.5" y2="400" transform="rotate(251, 711, 400)" opacity="0.09"></line><line x1="1368" y1="400" x2="54" y2="400" transform="rotate(252, 711, 400)" opacity="0.81"></line><line x1="1193.5" y1="400" x2="228.5" y2="400" transform="rotate(253, 711, 400)" opacity="0.87"></line><line x1="1320" y1="400" x2="102" y2="400" transform="rotate(254, 711, 400)" opacity="0.09"></line><line x1="1238.5" y1="400" x2="183.5" y2="400" transform="rotate(255, 711, 400)" opacity="0.08"></line><line x1="1366.5" y1="400" x2="55.5" y2="400" transform="rotate(256, 711, 400)" opacity="0.52"></line><line x1="1207.5" y1="400" x2="214.5" y2="400" transform="rotate(257, 711, 400)" opacity="0.10"></line><line x1="1343" y1="400" x2="79" y2="400" transform="rotate(258, 711, 400)" opacity="0.19"></line><line x1="1415.5" y1="400" x2="6.5" y2="400" transform="rotate(259, 711, 400)" opacity="0.98"></line><line x1="1326" y1="400" x2="96" y2="400" transform="rotate(260, 711, 400)" opacity="0.26"></line><line x1="1365" y1="400" x2="57" y2="400" transform="rotate(261, 711, 400)" opacity="0.92"></line><line x1="1357" y1="400" x2="65" y2="400" transform="rotate(262, 711, 400)" opacity="0.24"></line><line x1="1163.5" y1="400" x2="258.5" y2="400" transform="rotate(263, 711, 400)" opacity="0.30"></line><line x1="1390" y1="400" x2="32" y2="400" transform="rotate(264, 711, 400)" opacity="0.53"></line><line x1="1314" y1="400" x2="108" y2="400" transform="rotate(265, 711, 400)" opacity="0.22"></line><line x1="1363" y1="400" x2="59" y2="400" transform="rotate(266, 711, 400)" opacity="0.87"></line><line x1="1385.5" y1="400" x2="36.5" y2="400" transform="rotate(267, 711, 400)" opacity="0.41"></line><line x1="1396" y1="400" x2="26" y2="400" transform="rotate(268, 711, 400)" opacity="0.09"></line><line x1="1382.5" y1="400" x2="39.5" y2="400" transform="rotate(269, 711, 400)" opacity="0.10"></line><line x1="1216" y1="400" x2="206" y2="400" transform="rotate(270, 711, 400)" opacity="0.25"></line><line x1="1360" y1="400" x2="62" y2="400" transform="rotate(271, 711, 400)" opacity="0.91"></line><line x1="1410.5" y1="400" x2="11.5" y2="400" transform="rotate(272, 711, 400)" opacity="0.24"></line><line x1="1362.5" y1="400" x2="59.5" y2="400" transform="rotate(273, 711, 400)" opacity="0.22"></line><line x1="1391.5" y1="400" x2="30.5" y2="400" transform="rotate(274, 711, 400)" opacity="0.34"></line><line x1="1380" y1="400" x2="42" y2="400" transform="rotate(275, 711, 400)" opacity="0.44"></line><line x1="1210" y1="400" x2="212" y2="400" transform="rotate(276, 711, 400)" opacity="0.84"></line><line x1="1418" y1="400" x2="4" y2="400" transform="rotate(277, 711, 400)" opacity="0.55"></line><line x1="1385.5" y1="400" x2="36.5" y2="400" transform="rotate(278, 711, 400)" opacity="0.50"></line><line x1="1357.5" y1="400" x2="64.5" y2="400" transform="rotate(279, 711, 400)" opacity="0.74"></line><line x1="1212.5" y1="400" x2="209.5" y2="400" transform="rotate(280, 711, 400)" opacity="0.92"></line><line x1="1406" y1="400" x2="16" y2="400" transform="rotate(281, 711, 400)" opacity="0.84"></line><line x1="1306.5" y1="400" x2="115.5" y2="400" transform="rotate(282, 711, 400)" opacity="0.45"></line><line x1="1371.5" y1="400" x2="50.5" y2="400" transform="rotate(283, 711, 400)" opacity="0.10"></line><line x1="1177.5" y1="400" x2="244.5" y2="400" transform="rotate(284, 711, 400)" opacity="0.69"></line><line x1="1229.5" y1="400" x2="192.5" y2="400" transform="rotate(285, 711, 400)" opacity="0.76"></line><line x1="1238" y1="400" x2="184" y2="400" transform="rotate(286, 711, 400)" opacity="0.90"></line><line x1="1166.5" y1="400" x2="255.5" y2="400" transform="rotate(287, 711, 400)" opacity="0.84"></line><line x1="1384.5" y1="400" x2="37.5" y2="400" transform="rotate(288, 711, 400)" opacity="0.93"></line><line x1="1237" y1="400" x2="185" y2="400" transform="rotate(289, 711, 400)" opacity="0.54"></line><line x1="1291.5" y1="400" x2="130.5" y2="400" transform="rotate(290, 711, 400)" opacity="0.90"></line><line x1="1191.5" y1="400" x2="230.5" y2="400" transform="rotate(291, 711, 400)" opacity="0.25"></line><line x1="1188" y1="400" x2="234" y2="400" transform="rotate(292, 711, 400)" opacity="0.29"></line><line x1="1287" y1="400" x2="135" y2="400" transform="rotate(293, 711, 400)" opacity="0.69"></line><line x1="1210" y1="400" x2="212" y2="400" transform="rotate(294, 711, 400)" opacity="0.49"></line><line x1="1412.5" y1="400" x2="9.5" y2="400" transform="rotate(295, 711, 400)" opacity="0.17"></line><line x1="1288.5" y1="400" x2="133.5" y2="400" transform="rotate(296, 711, 400)" opacity="0.20"></line><line x1="1313" y1="400" x2="109" y2="400" transform="rotate(297, 711, 400)" opacity="0.37"></line><line x1="1297.5" y1="400" x2="124.5" y2="400" transform="rotate(298, 711, 400)" opacity="0.15"></line><line x1="1327.5" y1="400" x2="94.5" y2="400" transform="rotate(299, 711, 400)" opacity="0.86"></line><line x1="1259" y1="400" x2="163" y2="400" transform="rotate(300, 711, 400)" opacity="0.33"></line><line x1="1314" y1="400" x2="108" y2="400" transform="rotate(301, 711, 400)" opacity="0.66"></line><line x1="1352" y1="400" x2="70" y2="400" transform="rotate(302, 711, 400)" opacity="0.52"></line><line x1="1167.5" y1="400" x2="254.5" y2="400" transform="rotate(303, 711, 400)" opacity="0.84"></line><line x1="1402.5" y1="400" x2="19.5" y2="400" transform="rotate(304, 711, 400)" opacity="0.16"></line><line x1="1396.5" y1="400" x2="25.5" y2="400" transform="rotate(305, 711, 400)" opacity="0.91"></line><line x1="1281" y1="400" x2="141" y2="400" transform="rotate(306, 711, 400)" opacity="0.15"></line><line x1="1181.5" y1="400" x2="240.5" y2="400" transform="rotate(307, 711, 400)" opacity="0.87"></line><line x1="1367" y1="400" x2="55" y2="400" transform="rotate(308, 711, 400)" opacity="0.93"></line><line x1="1239" y1="400" x2="183" y2="400" transform="rotate(309, 711, 400)" opacity="0.97"></line><line x1="1240" y1="400" x2="182" y2="400" transform="rotate(310, 711, 400)" opacity="0.92"></line><line x1="1316" y1="400" x2="106" y2="400" transform="rotate(311, 711, 400)" opacity="0.73"></line><line x1="1354" y1="400" x2="68" y2="400" transform="rotate(312, 711, 400)" opacity="0.95"></line><line x1="1387.5" y1="400" x2="34.5" y2="400" transform="rotate(313, 711, 400)" opacity="0.11"></line><line x1="1216" y1="400" x2="206" y2="400" transform="rotate(314, 711, 400)" opacity="0.38"></line><line x1="1251.5" y1="400" x2="170.5" y2="400" transform="rotate(315, 711, 400)" opacity="0.29"></line><line x1="1216.5" y1="400" x2="205.5" y2="400" transform="rotate(316, 711, 400)" opacity="0.66"></line><line x1="1199" y1="400" x2="223" y2="400" transform="rotate(317, 711, 400)" opacity="0.19"></line><line x1="1320" y1="400" x2="102" y2="400" transform="rotate(318, 711, 400)" opacity="0.64"></line><line x1="1194" y1="400" x2="228" y2="400" transform="rotate(319, 711, 400)" opacity="0.68"></line><line x1="1229.5" y1="400" x2="192.5" y2="400" transform="rotate(320, 711, 400)" opacity="0.86"></line><line x1="1279" y1="400" x2="143" y2="400" transform="rotate(321, 711, 400)" opacity="0.30"></line><line x1="1350.5" y1="400" x2="71.5" y2="400" transform="rotate(322, 711, 400)" opacity="0.20"></line><line x1="1275.5" y1="400" x2="146.5" y2="400" transform="rotate(323, 711, 400)" opacity="0.47"></line><line x1="1318.5" y1="400" x2="103.5" y2="400" transform="rotate(324, 711, 400)" opacity="0.91"></line><line x1="1290" y1="400" x2="132" y2="400" transform="rotate(325, 711, 400)" opacity="0.70"></line><line x1="1307" y1="400" x2="115" y2="400" transform="rotate(326, 711, 400)" opacity="0.94"></line><line x1="1259.5" y1="400" x2="162.5" y2="400" transform="rotate(327, 711, 400)" opacity="0.48"></line><line x1="1383.5" y1="400" x2="38.5" y2="400" transform="rotate(328, 711, 400)" opacity="0.14"></line><line x1="1402.5" y1="400" x2="19.5" y2="400" transform="rotate(329, 711, 400)" opacity="0.73"></line><line x1="1178" y1="400" x2="244" y2="400" transform="rotate(330, 711, 400)" opacity="0.45"></line><line x1="1359.5" y1="400" x2="62.5" y2="400" transform="rotate(331, 711, 400)" opacity="0.98"></line><line x1="1257" y1="400" x2="165" y2="400" transform="rotate(332, 711, 400)" opacity="0.50"></line></g></svg>