<svg xmlns="http://www.w3.org/2000/svg" version="1.1" xmlns:xlink="http://www.w3.org/1999/xlink" xmlns:svgjs="http://svgjs.dev/svgjs" viewBox="0 0 800 800"><defs><linearGradient x1="50%" y1="0%" x2="50%" y2="100%" id="ccchaos-grad"><stop stop-color="hsl(0, 0%, 33%)" stop-opacity="1" offset="0%"></stop><stop stop-color="hsl(0, 0%, 73%)" stop-opacity="1" offset="100%"></stop></linearGradient></defs><g stroke-width="1" stroke="url(#ccchaos-grad)" fill="none" stroke-linecap="round"><path d="M450.49 204.08Q459.81 208.95 468.63 214.9 476.92 221.94 484.66 230.04 491.84 239.13 498.46 249.12 504.53 259.89 510.03 271.28 515 283.13 519.46 295.25 523.42 307.42 526.93 319.45 530.02 331.11 532.74 342.21 535.14 352.55 537.27 361.96 524.22 372.89 511.67 383.81 500.1 394.74 489.94 405.66 481.57 416.59 475.31 427.51 471.4 438.44 469.98 449.36 471.12 460.29 474.75 471.21 480.76 482.14 488.9 493.06 498.88 503.99 510.32 514.91 511.67 507.65 497.75 491.44 483.9 483.99 468.38 480.88 459.67 482.4 450.46 485.91 440.38 482.66 429.86 481.39 418.95 481.97 407.68 484.22 396.1 487.89 384.25 492.73 372.19 498.43 359.96 504.69 347.6 511.17 335.17 517.55 322.72 523.5 310.29 528.73 297.93 532.95 285.68 535.93 273.57 537.45 261.64 537.37 255.19 526.43 249.01 515.5 243.34 504.56 238.39 493.62 234.35 482.69 231.37 471.75 229.57 460.82 229 449.88 229.71 438.95 231.65 428.01 234.75 417.07 238.9 406.14 243.94 395.2 249.68 384.27 255.9 373.33 262.37 362.39 274.32 353.13 286.44 342.91 298.7 331.9 311.06 320.31 323.48 308.33 335.91 296.17 348.31 284.05 360.62 272.17 372.8 260.72 384.81 249.87 396.59 239.78 408.09 230.57 419.27 222.35 430.09 215.18 445.5 206.58 450.49 204.08" stroke-dasharray="0 0" transform="rotate(0, 400, 400)" opacity="0.05"></path><path d="M450.36 206.64Q459.24 211.42 467.62 217.25 475.49 224.13 482.83 232.04 489.64 240.93 495.91 250.69 501.64 261.23 506.86 272.39 511.56 284.02 515.78 295.94 519.55 307.95 522.89 319.86 525.85 331.46 528.46 342.55 530.79 352.96 532.88 362.5 520.16 373.2 507.99 383.9 496.79 394.6 486.99 405.3 478.93 416.01 472.91 426.71 469.16 437.41 467.79 448.11 468.88 458.81 472.36 469.52 478.13 480.22 485.97 490.92 495.59 501.62 506.64 512.33 508.34 503.96 495.15 488.18 482.03 481.14 467.31 478.32 459.03 479.87 450.26 483.34 440.11 480.13 429.55 478.82 418.62 479.29 407.37 481.37 395.84 484.84 384.06 489.44 372.1 494.91 359.98 500.95 347.77 507.25 335.5 513.5 323.23 519.39 310.99 524.65 298.83 528.99 286.78 532.2 274.89 534.05 263.18 534.39 256.81 523.68 250.73 512.97 245.17 502.25 240.33 491.54 236.39 480.82 233.49 470.11 231.74 459.4 231.19 448.68 231.88 437.97 233.77 427.26 236.8 416.54 240.85 405.83 245.78 395.12 251.4 384.4 257.53 373.69 263.92 362.98 275.65 353.57 287.56 343.28 299.61 332.27 311.77 320.74 324 308.87 336.26 296.88 348.5 284.95 360.67 273.28 372.74 262.06 384.65 251.44 396.36 241.57 407.83 232.57 419 224.54 429.84 217.52 445.33 209.1 450.36 206.64" stroke-dasharray="0 0" transform="rotate(1.074074074074074, 400, 400)" opacity="0.07"></path><path d="M450.06 209.21Q458.51 213.89 466.47 219.59 473.93 226.32 480.88 234.05 487.33 242.73 493.26 252.27 498.68 262.58 503.61 273.51 508.07 284.91 512.07 296.63 515.64 308.46 518.83 320.24 521.66 331.76 524.18 342.84 526.44 353.29 528.49 362.94 516.11 373.42 504.31 383.89 493.5 394.37 484.05 404.84 476.3 415.32 470.52 425.8 466.91 436.27 465.6 446.75 466.64 457.23 469.98 467.7 475.52 478.18 483.05 488.66 492.31 499.13 502.99 509.61 504.94 500.26 492.45 484.93 480.04 478.3 466.1 475.76 458.25 477.35 449.91 480.78 439.69 477.6 429.1 476.26 418.18 476.62 406.96 478.53 395.48 481.79 383.79 486.17 371.93 491.41 359.94 497.23 347.88 503.34 335.78 509.45 323.69 515.27 311.65 520.53 299.69 524.98 287.86 528.38 276.18 530.54 264.7 531.28 258.41 520.79 252.44 510.3 247 499.82 242.28 489.33 238.44 478.84 235.62 468.35 233.91 457.86 233.39 447.37 234.05 436.88 235.89 426.39 238.84 415.91 242.79 405.42 247.6 394.93 253.12 384.44 259.13 373.95 265.44 363.46 276.95 353.94 288.65 343.59 300.49 332.6 312.45 321.14 324.48 309.4 336.56 297.57 348.64 285.84 360.66 274.39 372.61 263.4 384.41 253.01 396.05 243.37 407.46 234.58 418.6 226.72 429.45 219.86 445 211.62 450.06 209.21" stroke-dasharray="0 0" transform="rotate(2.148148148148148, 400, 400)" opacity="0.09"></path><path d="M449.61 211.77Q457.63 216.35 465.18 221.93 472.25 228.51 478.83 236.05 484.92 244.53 490.53 253.85 495.65 263.91 500.32 274.61 504.53 285.78 508.33 297.29 511.73 308.94 514.77 320.58 517.49 332 519.92 343.04 522.12 353.52 524.13 363.27 512.1 373.52 500.67 383.77 490.23 394.02 481.13 404.27 473.68 414.52 468.13 424.77 464.67 435.02 463.41 445.27 464.4 455.52 467.6 465.78 472.91 476.03 480.15 486.28 489.07 496.53 499.36 506.78 501.51 496.59 489.68 481.71 477.95 475.48 464.75 473.22 457.31 474.84 449.39 478.22 439.14 475.09 428.53 473.7 417.62 473.96 406.44 475.72 395.03 478.78 383.44 482.93 371.7 487.94 359.86 493.53 347.95 499.45 336.03 505.41 324.13 511.16 312.29 516.41 300.54 520.94 288.92 524.51 277.47 526.94 266.2 528.06 260.01 517.79 254.16 507.53 248.83 497.27 244.22 487 240.49 476.74 237.74 466.47 236.09 456.21 235.58 445.95 236.23 435.68 238.01 425.42 240.88 415.15 244.73 404.89 249.43 394.63 254.83 384.36 260.74 374.1 266.95 363.84 278.24 354.21 289.72 343.83 301.35 332.87 313.1 321.49 324.94 309.89 336.83 298.23 348.73 286.71 360.6 275.49 372.41 264.73 384.1 254.58 395.64 245.16 406.99 236.58 418.1 228.9 428.93 222.2 444.53 214.13 449.61 211.77" stroke-dasharray="0 0" transform="rotate(3.222222222222222, 400, 400)" opacity="0.10"></path><path d="M449 214.33Q456.6 218.82 463.75 224.28 470.44 230.7 476.66 238.06 482.41 246.33 487.71 255.42 492.55 265.26 496.96 275.71 500.96 286.65 504.56 297.94 507.8 309.41 510.7 320.89 513.31 332.2 515.67 343.19 517.81 353.67 519.8 363.5 508.11 373.52 497.05 383.54 486.98 393.57 478.23 403.59 471.07 413.62 465.75 423.64 462.43 433.67 461.22 443.69 462.17 453.71 465.23 463.74 470.32 473.76 477.26 483.79 485.84 493.81 495.77 503.84 498.03 492.92 486.83 478.5 475.74 472.66 463.27 470.67 456.22 472.32 448.72 475.66 438.43 472.56 427.83 471.14 416.95 471.3 405.83 472.9 394.5 475.77 383.01 479.7 371.4 484.48 359.71 489.85 347.97 495.57 336.23 501.39 324.53 507.03 312.89 512.27 301.36 516.85 289.97 520.58 278.74 523.25 267.7 524.72 261.6 514.68 255.86 504.64 250.66 494.6 246.17 484.56 242.53 474.52 239.87 464.49 238.26 454.45 237.77 444.41 238.4 434.37 240.14 424.33 242.93 414.3 246.67 404.26 251.26 394.22 256.54 384.18 262.33 374.15 268.45 364.11 279.52 354.4 290.77 344.01 302.18 333.09 313.72 321.82 325.35 310.36 337.05 298.89 348.77 287.58 360.48 276.59 372.14 266.07 383.71 256.15 395.15 246.96 406.41 238.58 417.47 231.09 428.28 224.54 443.9 216.64 449 214.33" stroke-dasharray="0 0" transform="rotate(4.296296296296296, 400, 400)" opacity="0.12"></path><path d="M448.23 216.9Q461.97 227.09 474.38 240.07 479.82 248.13 484.82 257 489.39 266.59 493.56 276.81 497.35 287.51 500.76 298.58 503.85 309.85 506.63 321.16 509.14 332.36 511.42 343.28 513.52 353.76 515.47 363.64 504.14 373.43 493.45 383.23 483.75 393.02 475.33 402.82 468.47 412.61 463.37 422.41 460.19 432.21 459.03 442 459.93 451.8 462.86 461.59 467.73 471.39 474.39 481.19 482.63 490.98 492.19 500.78 494.51 489.26 483.9 475.32 473.43 469.86 461.65 468.13 446.29 469.92 427 468.59 416.17 468.65 405.11 470.11 393.88 472.78 382.51 476.5 371.04 481.05 359.51 486.2 347.95 491.72 336.4 497.37 324.89 502.91 313.47 508.11 302.16 512.73 290.99 516.58 279.98 519.48 269.17 521.25 263.18 511.44 257.56 501.63 252.49 491.82 248.11 482.01 244.58 472.2 241.99 462.39 240.44 452.58 239.96 442.77 240.57 432.96 242.26 423.15 244.97 413.34 248.61 403.53 253.08 393.72 258.23 383.91 263.91 374.1 269.93 364.29 280.77 354.52 291.79 344.12 302.98 333.27 314.3 322.11 325.73 310.81 337.23 299.54 348.76 288.44 360.3 277.69 371.81 267.41 383.24 257.73 394.57 248.76 405.74 240.58 416.73 233.28 427.5 226.88 443.12 219.16 448.23 216.9" stroke-dasharray="0 0" transform="rotate(5.37037037037037, 400, 400)" opacity="0.14"></path><path d="M447.31 219.45Q460.29 229.42 472.01 242.08 477.14 249.93 481.85 258.58 486.18 267.93 490.12 277.9 493.7 288.37 496.95 299.2 499.89 310.27 502.56 321.41 504.98 332.47 507.2 343.31 509.25 353.76 511.19 363.67 500.2 373.24 489.88 382.81 480.54 392.37 472.46 401.94 465.88 411.51 460.99 421.08 457.95 430.64 456.84 440.21 457.7 449.78 460.5 459.35 465.16 468.92 471.54 478.48 479.45 488.05 488.64 497.62 490.96 485.61 480.9 472.16 462.32 467.18 446.91 470.54 436.62 467.52 426.06 466.04 415.28 466.02 404.31 467.32 393.18 469.82 381.94 473.32 370.62 477.64 359.25 482.57 347.88 487.89 336.53 493.38 325.23 498.8 314.02 503.94 302.94 508.59 291.99 512.54 281.22 515.63 270.64 517.69 264.76 508.1 259.26 498.52 254.31 488.94 250.06 479.35 246.63 469.77 244.12 460.19 242.61 450.61 242.15 441.02 242.74 431.44 244.38 421.86 247.01 412.28 250.56 402.69 254.91 393.11 259.93 383.53 265.49 373.95 271.4 364.36 282.01 354.55 292.81 344.18 303.77 333.4 314.87 322.37 326.08 311.24 337.37 300.17 348.72 289.3 360.07 278.78 371.42 268.74 382.7 259.3 393.9 250.55 404.98 242.59 415.89 235.46 426.61 229.22 442.2 221.67 447.31 219.45" stroke-dasharray="0 0" transform="rotate(6.444444444444444, 400, 400)" opacity="0.16"></path><path d="M446.24 222.02Q458.69 231.31 469.54 244.09 478.82 260.16 486.64 278.99 493.12 299.82 498.49 321.62 502.99 343.28 506.93 363.61 486.34 382.29 469.6 400.97 458.62 419.65 454.65 438.33 458.14 457.01 468.7 475.69 485.12 494.37 505.53 513.05 501.61 507.22 497.15 498.38 491.87 487.97 485.5 477.63 477.84 469.02 468.72 463.72 458.05 463.06 445.78 467.97 424.99 463.49 403.41 464.55 381.31 470.16 358.96 478.97 336.62 489.4 314.56 499.77 292.98 508.45 272.09 514.02 260.96 495.31 252 476.6 246.24 457.89 244.34 439.18 246.51 420.47 252.5 401.76 261.63 383.05 272.86 364.34 293.8 344.17 315.41 322.59 337.48 300.78 359.8 279.87 382.1 260.87 404.12 244.59 425.59 231.56 446.24 222.02 446.24 222.02 446.24 222.02" stroke-dasharray="0 0" transform="rotate(7.518518518518518, 400, 400)" opacity="0.17"></path><path d="M445.01 224.58Q456.75 233.66 466.97 246.11 475.73 261.74 483.11 280.09 489.27 300.43 494.42 321.82 498.8 343.2 502.68 363.47 482.82 381.69 466.76 399.91 456.25 418.13 452.46 436.35 455.79 454.57 465.88 472.79 468.9 469.37 444.5 465.41 423.81 460.95 402.42 461.79 380.6 467.02 358.61 475.39 336.68 485.44 315.06 495.59 293.95 504.32 273.53 510.25 262.65 492 253.95 473.75 248.37 455.5 246.53 437.25 248.63 419 254.43 400.74 263.31 382.49 274.3 364.24 294.78 344.12 315.92 322.8 337.56 301.39 359.47 280.96 381.42 262.45 403.17 246.6 424.45 233.91 445.01 224.58 445.01 224.58 445.01 224.58" stroke-dasharray="0 0" transform="rotate(8.592592592592592, 400, 400)" opacity="0.19"></path><path d="M443.65 227.14Q454.7 236 464.33 248.11 472.58 263.32 479.56 281.18 485.42 301.03 490.37 321.99 494.63 343.07 498.48 363.23 479.33 381 463.93 398.76 453.89 416.52 450.27 434.29 453.44 452.05 463.08 469.81 466.1 466.37 443.08 462.85 422.52 458.42 401.36 459.05 379.84 463.91 358.22 471.84 336.72 481.5 315.55 491.42 294.91 500.15 274.97 506.4 264.35 488.6 255.9 470.81 250.5 453.01 248.72 435.22 250.75 417.42 256.37 399.63 265 381.83 275.73 364.04 295.74 344.01 316.42 322.98 337.61 301.99 359.1 282.04 380.69 264.02 402.14 248.6 423.21 236.25 443.65 227.14 443.65 227.14 443.65 227.14" stroke-dasharray="0 0" transform="rotate(9.666666666666666, 400, 400)" opacity="0.21"></path><path d="M442.14 229.7Q452.54 238.35 461.59 250.13 469.37 264.91 475.97 282.28 481.56 301.62 486.33 322.13 490.49 342.89 494.31 362.91 475.87 380.22 461.12 397.53 451.53 414.83 448.08 432.14 451.1 449.45 460.29 466.75 463.23 463.36 441.52 460.29 421.12 455.88 400.21 456.31 379.02 460.81 357.79 468.32 336.72 477.58 316.02 487.24 295.86 495.95 276.39 502.46 266.04 485.12 257.84 467.78 252.62 450.45 250.91 433.11 252.87 415.77 258.32 398.43 266.69 381.09 277.16 363.75 296.69 343.85 316.9 323.13 337.62 302.58 358.69 283.14 379.89 265.6 401.02 250.61 421.85 238.59 442.14 229.7 442.14 229.7 442.14 229.7" stroke-dasharray="0 0" transform="rotate(10.74074074074074, 400, 400)" opacity="0.23"></path><path d="M440.5 232.27Q450.27 240.69 458.79 252.15 466.11 266.5 472.37 283.37 477.7 302.21 482.29 322.26 486.37 342.67 490.15 362.52 472.43 379.37 458.32 396.22 449.18 413.07 445.89 429.91 448.75 446.76 457.51 463.61 460.3 460.36 439.83 457.72 419.62 453.34 398.98 453.59 378.15 457.74 357.32 464.83 336.7 473.69 316.47 483.07 296.79 491.71 277.8 498.44 267.73 481.56 259.79 464.68 254.75 447.8 253.1 430.92 255 414.04 260.26 397.15 268.37 380.27 278.57 363.39 297.63 343.65 317.35 323.27 337.61 303.17 358.23 284.22 379.04 267.18 399.83 252.62 420.39 240.94 440.5 232.27 440.5 232.27 440.5 232.27" stroke-dasharray="0 0" transform="rotate(11.814814814814815, 400, 400)" opacity="0.24"></path><path d="M438.73 234.82Q447.91 243.04 455.91 254.17 462.82 268.09 468.75 284.47 473.84 302.79 478.28 322.37 482.27 342.41 486.04 362.04 469.03 378.43 455.55 394.83 446.84 411.22 443.7 427.61 446.42 444 454.75 460.4 457.32 457.37 438.01 455.16 418.02 450.82 397.69 450.88 377.22 454.69 356.82 461.36 336.66 469.82 316.91 478.92 297.72 487.46 279.22 494.35 269.41 477.92 261.73 461.5 256.88 445.07 255.29 428.65 257.12 412.22 262.2 395.79 270.06 379.37 279.98 362.94 298.55 343.4 317.79 323.39 337.57 303.75 357.75 285.32 378.14 268.76 398.57 254.64 418.83 243.28 438.73 234.82 438.73 234.82 438.73 234.82" stroke-dasharray="0 0" transform="rotate(12.888888888888888, 400, 400)" opacity="0.26"></path><path d="M436.83 237.39Q445.44 245.39 452.97 256.19 459.48 269.68 465.11 285.57 469.99 303.37 474.29 322.47 478.21 342.11 481.97 361.49 465.65 377.43 452.78 393.37 444.49 409.31 441.51 425.25 444.08 441.19 452 457.13 454.29 454.39 436.07 452.6 416.33 448.29 396.33 448.18 376.25 451.66 356.29 457.93 336.59 465.99 317.34 474.78 298.64 483.19 280.62 490.2 271.11 474.23 263.68 458.26 259.01 442.28 257.48 426.31 259.25 410.34 264.14 394.37 271.75 378.39 281.38 362.42 299.47 343.12 318.22 323.48 337.52 304.33 357.23 286.41 377.19 270.35 397.23 256.65 417.18 245.62 436.83 237.39 436.83 237.39 436.83 237.39" stroke-dasharray="0 0" transform="rotate(13.962962962962962, 400, 400)" opacity="0.28"></path><path d="M434.82 239.95Q442.89 247.74 449.96 258.21 456.11 271.29 461.46 286.68 466.14 303.96 470.31 322.56 474.17 341.78 477.92 360.89 462.29 376.37 450.03 391.85 442.15 407.34 439.31 422.82 441.76 438.31 449.27 453.79 451.21 451.4 434.01 450.03 414.55 445.77 394.9 445.49 375.24 448.66 355.72 454.52 336.51 462.18 317.74 470.64 299.55 478.9 282.02 485.99 272.79 470.47 265.63 454.95 261.13 439.43 259.67 423.91 261.37 408.39 266.09 392.88 273.43 377.36 282.77 361.84 300.38 342.8 318.63 323.57 337.44 304.91 356.67 287.51 376.19 271.95 395.83 258.67 415.43 247.97 434.82 239.95 434.82 239.95 434.82 239.95" stroke-dasharray="0 0" transform="rotate(15.037037037037036, 400, 400)" opacity="0.30"></path><path d="M432.69 242.52Q440.26 250.09 446.91 260.24 452.72 272.89 457.81 287.79 462.31 304.54 466.37 322.63 470.18 341.41 473.91 360.21 458.97 375.24 447.3 390.28 439.82 405.31 437.12 420.34 439.43 435.38 446.56 450.41 448.09 448.43 431.84 447.47 412.69 443.25 393.42 442.82 374.18 445.68 355.13 451.14 336.41 458.4 318.15 466.54 300.45 474.62 283.41 481.73 274.48 466.66 267.58 451.59 263.26 436.52 261.86 421.46 263.5 406.39 268.03 391.32 275.11 376.26 284.17 361.19 301.28 342.44 319.04 323.65 337.35 305.49 356.09 288.61 375.15 273.54 394.37 260.69 413.61 250.31 432.69 242.52 432.69 242.52 432.69 242.52" stroke-dasharray="0 0" transform="rotate(16.11111111111111, 400, 400)" opacity="0.31"></path><path d="M430.46 245.07Q437.56 252.43 443.81 262.27 449.3 274.5 454.15 288.9 458.48 305.13 462.45 322.69 466.21 341.02 469.94 359.47 455.68 374.06 444.58 388.65 437.49 403.23 434.93 417.82 437.11 432.41 443.86 446.99 444.94 445.47 429.58 444.91 410.77 440.74 391.89 440.16 373.09 442.72 354.52 447.8 336.3 454.66 318.54 462.45 301.35 470.33 284.81 477.43 276.18 462.81 269.54 448.19 265.39 433.58 264.05 418.96 265.62 404.34 269.98 389.72 276.8 375.1 285.56 360.47 302.18 342.06 319.43 323.71 337.24 306.07 355.49 289.71 374.08 275.14 392.86 262.71 411.71 252.66 430.46 245.07 430.46 245.07 430.46 245.07" stroke-dasharray="0 0" transform="rotate(17.185185185185183, 400, 400)" opacity="0.33"></path><path d="M428.13 247.64Q434.78 254.79 440.67 264.3 445.87 276.11 450.5 290.02 454.68 305.72 458.56 322.75 462.28 340.61 466 358.69 452.41 372.83 441.87 386.97 435.16 401.11 432.74 415.25 434.8 429.39 441.18 443.53 441.76 442.52 427.21 442.35 408.77 438.23 390.31 437.51 371.97 439.78 353.89 444.49 336.18 450.94 318.93 458.39 302.25 466.03 286.2 473.09 277.87 458.92 271.49 444.75 267.52 430.57 266.24 416.4 267.75 402.23 271.93 388.06 278.48 373.89 286.94 359.71 303.07 341.66 319.82 323.77 337.12 306.65 354.87 290.83 372.97 276.74 391.3 264.73 409.74 255 428.13 247.64 428.13 247.64 428.13 247.64" stroke-dasharray="0 0" transform="rotate(18.25925925925926, 400, 400)" opacity="0.35"></path><path d="M425.71 250.2Q431.95 257.14 437.49 266.34 442.42 277.73 446.85 291.16 450.9 306.31 454.7 322.81 458.38 340.17 462.11 357.85 449.17 371.55 439.19 385.25 432.84 398.95 430.55 412.64 432.49 426.34 438.51 440.04 438.55 439.58 424.76 439.78 406.7 435.72 388.68 434.87 370.82 436.87 353.24 441.21 336.04 447.27 319.32 454.36 303.14 461.75 287.59 468.72 279.57 455 273.45 441.27 269.66 427.54 268.44 413.81 269.88 400.08 273.88 386.35 280.17 372.62 288.33 358.89 303.96 341.22 320.2 323.82 336.98 307.24 354.22 291.95 371.83 278.35 389.69 266.76 407.7 257.35 425.71 250.2 425.71 250.2 425.71 250.2" stroke-dasharray="0 0" transform="rotate(19.333333333333332, 400, 400)" opacity="0.37"></path><path d="M423.22 252.76Q429.06 259.49 434.29 268.37 438.98 279.35 443.23 292.29 447.15 306.91 450.88 322.86 454.53 339.71 458.26 356.97 445.96 370.23 436.52 383.49 430.52 396.75 428.36 410 430.18 423.26 435.86 436.52 435.33 436.65 422.23 437.23 404.59 433.22 387.03 432.25 369.66 433.98 352.59 437.96 335.91 443.63 319.7 450.36 304.04 457.49 288.98 464.34 281.27 451.05 275.42 437.76 271.79 424.47 270.63 411.19 272 397.9 275.83 384.61 281.87 371.32 289.72 358.03 304.86 340.77 320.59 323.87 336.85 307.82 353.57 293.07 370.67 279.96 388.05 268.78 405.61 259.7 423.22 252.76 423.22 252.76 423.22 252.76" stroke-dasharray="0 0" transform="rotate(20.40740740740741, 400, 400)" opacity="0.38"></path><path d="M420.64 255.32Q426.13 261.84 431.06 270.41 435.52 280.99 439.61 293.44 443.42 307.52 447.08 322.93 450.71 339.26 454.43 356.07 442.78 368.88 433.86 381.7 428.21 394.52 426.17 407.34 427.88 420.16 433.22 432.98 432.09 433.73 419.63 434.66 402.42 430.71 385.34 429.63 368.47 431.11 351.92 434.75 335.76 440.03 320.08 446.39 304.94 453.23 290.37 459.93 282.97 447.08 277.38 434.23 273.92 421.38 272.82 408.53 274.13 395.68 277.79 382.83 283.56 369.98 291.1 357.13 305.74 340.32 320.96 323.93 336.7 308.43 352.9 294.21 369.49 281.59 386.37 270.82 403.46 262.05 420.64 255.32 420.64 255.32 420.64 255.32" stroke-dasharray="0 0" transform="rotate(21.48148148148148, 400, 400)" opacity="0.40"></path><path d="M418 257.89Q423.15 264.2 427.82 272.46 432.08 282.63 436.02 294.59 439.73 308.14 443.34 322.99 446.94 338.78 450.66 355.12 439.63 367.5 431.22 379.89 425.9 392.27 423.98 404.66 425.58 417.04 430.6 429.43 428.85 430.83 416.96 432.1 400.22 428.22 383.62 427.03 367.27 428.27 351.25 431.57 335.63 436.47 320.47 442.46 305.84 449 291.77 455.52 284.68 443.11 279.34 430.69 276.05 418.27 275.01 405.86 276.26 393.44 279.75 381.02 285.26 368.61 292.49 356.19 306.64 339.84 321.34 323.98 336.56 309.03 352.23 295.35 368.29 283.21 384.66 272.85 401.26 264.4 418 257.89 418 257.89 418 257.89" stroke-dasharray="0 0" transform="rotate(22.555555555555557, 400, 400)" opacity="0.42"></path><path d="M415.31 260.45Q420.15 266.55 424.57 274.5 428.64 284.27 432.45 295.76 436.08 308.77 439.63 323.05 443.21 338.3 446.93 354.14 436.51 366.1 428.59 378.05 423.59 390.01 421.79 401.97 423.28 413.92 427.99 425.88 425.6 427.94 414.25 429.54 397.98 425.72 381.89 424.44 366.06 425.45 350.57 428.42 335.49 432.95 320.87 438.58 306.75 444.8 293.18 451.12 286.4 439.13 281.31 427.14 278.19 415.16 277.2 403.17 278.39 391.18 281.71 379.2 286.97 367.21 293.88 355.23 307.54 339.36 321.73 324.04 336.42 309.65 351.55 296.5 367.08 284.85 382.94 274.89 399.04 266.74 415.31 260.45 415.31 260.45 415.31 260.45" stroke-dasharray="0 0" transform="rotate(23.62962962962963, 400, 400)" opacity="0.44"></path><path d="M412.56 263.01Q417.12 268.91 421.32 276.55 425.22 285.93 428.9 296.93 432.45 309.41 435.96 323.14 439.53 337.83 443.24 353.16 433.42 364.69 425.97 376.21 421.29 387.74 419.6 399.27 420.99 410.8 425.39 422.33 422.36 425.07 411.49 426.98 395.71 423.23 380.14 421.86 364.85 422.66 349.9 425.31 335.36 429.47 321.26 434.73 307.66 440.63 294.58 446.71 288.12 435.15 283.28 423.59 280.32 412.03 279.39 400.48 280.52 388.92 283.67 377.36 288.68 365.8 295.28 354.25 308.44 338.88 322.12 324.12 336.28 310.28 350.88 297.66 365.87 286.49 381.19 276.93 404.67 266.05 412.56 263.01" stroke-dasharray="0 0" transform="rotate(24.703703703703702, 400, 400)" opacity="0.45"></path><path d="M409.77 265.58Q414.08 271.26 418.07 278.61 421.82 287.59 425.39 298.12 428.87 310.07 432.34 323.23 435.89 337.35 439.59 352.15 430.35 363.26 423.38 374.37 418.99 385.47 417.41 396.58 418.71 407.69 422.82 418.8 419.12 422.21 408.68 424.41 393.42 420.74 378.38 419.29 363.63 419.88 349.23 422.23 335.23 426.04 321.67 430.92 308.58 436.49 295.99 442.33 289.85 431.19 285.26 420.06 282.46 408.92 281.58 397.78 282.66 386.65 285.64 375.51 290.39 364.38 296.68 353.24 309.35 338.4 322.51 324.2 336.14 310.92 350.2 298.84 364.65 288.14 379.43 278.98 402.13 268.51 409.77 265.58" stroke-dasharray="0 0" transform="rotate(25.777777777777775, 400, 400)" opacity="0.47"></path><path d="M406.96 268.13Q414.74 281.44 421.93 299.32 425.34 310.74 428.77 323.33 432.3 336.88 435.99 351.13 427.32 361.82 420.79 372.51 416.7 383.21 415.22 393.9 416.42 404.59 420.26 415.28 415.91 419.37 405.86 421.86 391.12 418.26 376.63 416.74 362.43 417.13 348.58 419.2 335.12 422.65 322.09 427.17 309.51 432.4 297.42 437.96 291.58 427.25 287.24 416.53 284.6 405.81 283.77 395.09 284.79 384.38 287.61 373.66 292.12 362.94 298.1 352.22 310.27 337.92 322.92 324.29 336.02 311.58 349.54 300.02 363.44 289.79 377.68 281.03 399.58 270.97 406.96 268.13" stroke-dasharray="0 0" transform="rotate(26.85185185185185, 400, 400)" opacity="0.49"></path><path d="M404.11 270.7Q411.54 283.46 418.49 300.54 421.85 311.43 425.24 323.46 428.75 336.43 432.43 350.12 424.32 360.4 418.22 370.67 414.41 380.95 413.03 391.23 414.14 401.5 417.7 411.78 412.71 416.55 403.01 419.29 388.81 415.78 374.87 414.2 361.23 414.4 347.93 416.19 335.02 419.31 322.51 423.46 301.89 425.83 289.23 413.02 286.74 402.72 285.96 392.42 286.92 382.11 289.59 371.81 293.84 361.51 299.51 351.21 311.2 337.46 323.33 324.4 335.9 312.25 348.88 301.22 362.23 291.46 375.92 283.08 397 273.43 404.11 270.7" stroke-dasharray="0 0" transform="rotate(27.925925925925924, 400, 400)" opacity="0.51"></path><path d="M401.25 273.26Q408.36 285.48 415.11 301.77 418.41 312.14 421.77 323.6 425.25 335.99 428.92 349.1 421.34 358.97 415.67 368.84 412.12 378.71 410.84 388.58 411.87 398.44 415.17 408.31 409.54 413.74 400.15 416.73 386.51 413.3 373.13 411.66 360.05 411.7 347.3 413.22 334.93 416.01 322.96 419.81 303.24 421.89 291.22 409.54 288.88 399.65 288.15 389.76 289.06 379.86 291.57 369.97 295.58 360.08 300.94 350.18 312.14 337.01 323.77 324.52 335.81 312.94 348.24 302.43 361.04 293.13 374.17 285.14 394.42 275.89 401.25 273.26" stroke-dasharray="0 0" transform="rotate(29, 400, 400)" opacity="0.53"></path><path d="M398.4 275.82Q405.22 287.51 411.77 303.01 415.02 312.86 418.35 323.77 421.81 335.57 425.46 348.1 418.4 357.56 413.13 367.02 409.84 376.48 408.65 385.95 409.59 395.41 412.65 404.88 406.4 410.96 397.3 414.17 384.22 410.82 371.4 409.14 358.88 409.02 346.7 410.29 334.87 412.76 323.42 416.22 304.6 417.99 293.21 406.09 291.02 396.6 290.34 387.12 291.2 377.63 293.55 368.14 297.33 358.66 302.38 349.17 313.09 336.57 324.21 324.67 335.73 313.65 347.62 303.66 359.86 294.82 372.43 287.2 391.85 278.34 398.4 275.82" stroke-dasharray="0 0" transform="rotate(30.074074074074073, 400, 400)" opacity="0.54"></path><path d="M395.55 278.38Q402.1 289.54 408.48 304.27 411.69 313.61 414.98 323.96 418.41 335.17 422.03 347.11 415.48 356.17 410.6 365.24 407.56 374.3 406.45 383.36 407.32 392.42 410.14 401.48 403.3 408.19 394.45 411.61 381.94 408.35 369.69 406.63 357.74 406.36 346.11 407.39 334.83 409.56 323.9 412.67 305.98 414.14 295.21 402.68 293.16 393.6 292.53 384.51 293.33 375.43 295.54 366.34 299.08 357.26 303.83 348.18 314.06 336.16 324.68 324.85 335.67 314.38 347.02 304.9 358.7 296.51 370.71 289.27 389.27 280.8 395.55 278.38" stroke-dasharray="0 0" transform="rotate(31.148148148148152, 400, 400)" opacity="0.56"></path><path d="M392.71 280.95Q399.02 291.58 405.25 305.55 408.41 314.39 411.67 324.18 415.07 334.8 418.66 346.14 412.6 354.81 408.09 363.48 405.17 380.81 407.65 398.15 400.24 405.45 391.61 409.04 379.68 405.88 368 404.13 356.62 403.72 345.55 404.53 334.81 406.41 324.41 409.19 307.37 410.35 297.21 399.32 295.39 381.94 297.53 364.57 300.84 355.88 305.29 347.19 315.05 335.77 325.16 325.04 335.63 315.14 346.44 306.16 357.57 298.21 369.01 291.34 386.72 283.27 392.71 280.95" stroke-dasharray="0 0" transform="rotate(32.22222222222222, 400, 400)" opacity="0.58"></path><path d="M389.9 283.5Q396.01 293.11 402.08 306.84 408.42 324.42 415.33 345.2 405.59 361.75 402.07 378.31 400.64 400.53 388.82 406.48 366.36 401.65 345.02 401.71 324.93 405.77 306.18 412.61 299.22 396.01 296.91 379.42 299.53 362.83 306.77 346.23 325.67 325.27 345.9 307.44 367.35 293.41 389.9 283.5 389.9 283.5 389.9 283.5" stroke-dasharray="0 0" transform="rotate(33.2962962962963, 400, 400)" opacity="0.60"></path><path d="M387.11 286.07Q393.02 295.2 398.96 308.16 405.21 324.7 412.04 344.3 403.11 360.08 399.88 375.86 397.75 397.66 386.05 403.92 364.75 399.17 344.52 398.92 325.48 402.4 307.69 408.58 301.23 392.76 299.1 376.95 301.53 361.13 308.26 345.32 326.2 325.53 345.38 308.73 365.72 295.49 387.11 286.07 387.11 286.07 387.11 286.07" stroke-dasharray="0 0" transform="rotate(34.37037037037037, 400, 400)" opacity="0.61"></path><path d="M384.37 288.63Q390.09 297.3 395.92 309.49 402.08 325.01 408.81 343.43 400.64 358.45 397.69 373.47 394.91 394.84 383.32 401.35 363.18 396.7 344.07 396.17 326.06 399.11 309.22 404.63 303.25 389.58 301.3 374.53 303.54 359.48 309.77 344.43 326.76 325.81 344.9 310.04 364.13 297.58 384.37 288.63 384.37 288.63 384.37 288.63" stroke-dasharray="0 0" transform="rotate(35.44444444444445, 400, 400)" opacity="0.63"></path><path d="M381.68 291.19Q387.23 299.4 392.94 310.84 399 325.37 405.63 342.61 398.18 356.88 395.5 371.14 392.12 392.05 380.65 398.8 361.67 394.25 343.65 393.46 326.67 395.88 310.76 400.76 305.27 386.47 303.49 372.17 305.56 357.88 311.3 343.58 327.35 326.14 344.46 311.37 362.59 299.67 381.68 291.19 381.68 291.19 381.68 291.19" stroke-dasharray="0 0" transform="rotate(36.51851851851852, 400, 400)" opacity="0.65"></path><path d="M379.04 293.75Q384.44 301.5 390.03 312.21 395.99 325.76 402.48 341.85 395.74 355.37 393.31 368.88 389.39 389.3 378.04 396.23 360.21 391.81 343.28 390.78 327.31 392.71 312.33 396.97 307.3 383.42 305.68 369.88 307.57 356.34 312.85 342.79 327.96 326.51 344.06 312.72 361.1 301.76 379.04 293.75 379.04 293.75 379.04 293.75" stroke-dasharray="0 0" transform="rotate(37.592592592592595, 400, 400)" opacity="0.67"></path><path d="M376.48 296.32Q381.72 303.62 387.19 313.6 393.03 326.19 399.39 341.14 393.31 353.91 391.12 366.69 386.72 386.6 375.5 393.67 358.8 389.37 342.95 388.14 327.98 389.62 313.91 393.27 309.34 380.46 307.87 367.66 309.6 354.85 314.41 342.05 328.61 326.91 343.7 314.1 359.67 303.87 376.48 296.32 376.48 296.32 376.48 296.32" stroke-dasharray="0 0" transform="rotate(38.666666666666664, 400, 400)" opacity="0.68"></path><path d="M373.99 298.87Q379.09 305.73 384.43 315.01 390.15 326.66 396.35 340.49 390.89 352.53 388.93 364.59 384.11 383.94 373.05 391.11 357.48 386.95 342.68 385.55 328.69 386.6 315.52 389.67 311.38 377.59 310.06 365.52 311.63 353.44 316 341.37 329.3 327.35 343.4 315.49 366.15 302.42 373.99 298.87" stroke-dasharray="0 0" transform="rotate(39.74074074074074, 400, 400)" opacity="0.70"></path><path d="M371.58 301.44Q376.54 307.86 381.75 316.46 387.32 327.19 393.35 339.91 388.49 351.24 386.74 362.57 381.56 381.33 370.67 388.55 356.21 384.53 342.46 382.98 329.44 383.64 317.15 386.16 313.43 374.81 312.25 363.46 313.67 352.11 317.61 340.76 330.01 327.85 343.15 316.91 364.3 304.76 371.58 301.44" stroke-dasharray="0 0" transform="rotate(40.81481481481482, 400, 400)" opacity="0.72"></path><path d="M369.26 304Q374.08 309.99 379.15 317.92 384.56 327.76 390.4 339.4 386.1 350.02 384.55 360.64 379.07 378.77 368.39 385.98 355.02 382.13 342.3 380.46 322.86 376.44 314.44 361.49 315.71 350.85 319.25 340.21 330.77 328.39 342.96 318.34 362.53 307.1 369.26 304" stroke-dasharray="0 0" transform="rotate(41.888888888888886, 400, 400)" opacity="0.74"></path><path d="M367.05 306.56Q371.71 312.12 376.62 319.4 381.87 328.38 387.5 338.97 383.72 348.89 382.36 358.81 376.66 376.25 366.22 383.43 353.91 379.74 342.19 377.97 324.3 373.75 316.63 359.61 317.76 349.68 320.91 339.74 331.57 328.98 342.82 319.8 360.85 309.44 367.05 306.56" stroke-dasharray="0 0" transform="rotate(42.96296296296296, 400, 400)" opacity="0.75"></path><path d="M364.93 309.13Q369.44 314.26 374.19 320.91 379.24 329.05 384.65 338.64 381.36 347.85 380.17 357.07 374.31 373.79 364.15 380.86 352.89 377.36 342.15 375.52 325.77 371.14 318.82 357.83 319.82 348.6 322.59 339.37 332.41 329.62 342.74 321.29 359.26 311.79 364.93 309.13" stroke-dasharray="0 0" transform="rotate(44.03703703703704, 400, 400)" opacity="0.77"></path><path d="M362.93 311.69Q371.97 323.1 381.84 338.38 378.9 355.44 381.41 372.49 371.37 373.38 362.19 378.3 351.96 374.98 342.17 373.1 327.27 368.63 321.01 356.15 321.89 347.61 324.3 339.07 333.29 330.31 342.73 322.8 357.77 314.14 362.93 311.69" stroke-dasharray="0 0" transform="rotate(45.111111111111114, 400, 400)" opacity="0.79"></path><path d="M361.06 314.25Q369.57 324 379.08 338.21 375.79 353.91 378.69 369.6 369.01 370.36 360.36 375.74 342.26 370.73 325.7 370.29 323.2 354.58 326.05 338.86 342.78 324.33 361.06 314.25 361.06 314.25 361.06 314.25" stroke-dasharray="0 0" transform="rotate(46.18518518518518, 400, 400)" opacity="0.81"></path><path d="M359.3 316.81Q367.39 325.6 376.37 338.16 373.6 352.49 376 366.82 366.88 368.05 358.65 373.18 342.42 368.38 327.5 367.46 325.39 353.1 327.81 338.76 342.9 325.9 359.3 316.81 359.3 316.81 359.3 316.81" stroke-dasharray="0 0" transform="rotate(47.25925925925926, 400, 400)" opacity="0.82"></path><path d="M357.67 319.38Q365.31 327.21 373.7 338.2 371.4 351.18 373.37 364.18 364.84 365.78 357.08 370.61 342.66 366.08 329.32 364.77 327.58 351.75 329.61 338.75 350.39 323.43 357.67 319.38" stroke-dasharray="0 0" transform="rotate(48.333333333333336, 400, 400)" opacity="0.84"></path><path d="M356.18 321.93Q363.31 328.85 371.08 338.34 366.05 356.77 355.64 368.06 342.97 363.81 331.18 362.2 329.77 350.51 331.45 338.84 349.78 325.52 356.18 321.93" stroke-dasharray="0 0" transform="rotate(49.407407407407405, 400, 400)" opacity="0.86"></path><path d="M354.83 324.5Q361.41 330.52 368.5 338.6 364.03 355.14 354.35 365.49 337.66 355.49 333.31 339.05 349.28 327.62 354.83 324.5" stroke-dasharray="0 0" transform="rotate(50.48148148148148, 400, 400)" opacity="0.88"></path><path d="M353.62 327.06Q362.21 340.12 365.75 357.03 351.54 359.28 335 357.44 334.15 348.41 335.2 339.37 348.88 329.74 353.62 327.06" stroke-dasharray="0 0" transform="rotate(51.55555555555555, 400, 400)" opacity="0.89"></path><path d="M352.57 329.62Q348.45 335.91 352.57 329.62" stroke-dasharray="0 0" transform="rotate(52.62962962962963, 400, 400)" opacity="0.91"></path><path d="M351.66 332.18Q348.35 337.35 351.66 332.18" stroke-dasharray="0 0" transform="rotate(53.7037037037037, 400, 400)" opacity="0.93"></path><path d="M350.91 334.75Q348.35 338.82 350.91 334.75" stroke-dasharray="0 0" transform="rotate(54.77777777777778, 400, 400)" opacity="0.95"></path><path d="M350.32 337.3Q348.47 340.32 350.32 337.3" stroke-dasharray="0 0" transform="rotate(55.85185185185185, 400, 400)" opacity="0.96"></path><path d="M349.88 339.87Q348.7 341.84 349.88 339.87" stroke-dasharray="0 0" transform="rotate(56.92592592592593, 400, 400)" opacity="0.98"></path></g></svg>