<svg xmlns="http://www.w3.org/2000/svg" version="1.1" xmlns:xlink="http://www.w3.org/1999/xlink"
    xmlns:svgjs="http://svgjs.dev/svgjs" viewBox="0 0 1422 800" opacity="1">
    <g stroke-width="1" stroke="hsl(0, 0%, 32%)" fill="none" stroke-linecap="round">
        <path d="M 0 825 Q 355.5 0 711 400 Q 1066.5 800 1422 825" opacity="0.05"></path>
        <path d="M 0 814 Q 355.5 0 711 400 Q 1066.5 800 1422 814" opacity="0.06"></path>
        <path d="M 0 803 Q 355.5 0 711 400 Q 1066.5 800 1422 803" opacity="0.08"></path>
        <path d="M 0 792 Q 355.5 0 711 400 Q 1066.5 800 1422 792" opacity="0.09"></path>
        <path d="M 0 781 Q 355.5 0 711 400 Q 1066.5 800 1422 781" opacity="0.10"></path>
        <path d="M 0 770 Q 355.5 0 711 400 Q 1066.5 800 1422 770" opacity="0.11"></path>
        <path d="M 0 759 Q 355.5 0 711 400 Q 1066.5 800 1422 759" opacity="0.13"></path>
        <path d="M 0 748 Q 355.5 0 711 400 Q 1066.5 800 1422 748" opacity="0.14"></path>
        <path d="M 0 737 Q 355.5 0 711 400 Q 1066.5 800 1422 737" opacity="0.15"></path>
        <path d="M 0 726 Q 355.5 0 711 400 Q 1066.5 800 1422 726" opacity="0.17"></path>
        <path d="M 0 715 Q 355.5 0 711 400 Q 1066.5 800 1422 715" opacity="0.18"></path>
        <path d="M 0 704 Q 355.5 0 711 400 Q 1066.5 800 1422 704" opacity="0.19"></path>
        <path d="M 0 693 Q 355.5 0 711 400 Q 1066.5 800 1422 693" opacity="0.20"></path>
        <path d="M 0 682 Q 355.5 0 711 400 Q 1066.5 800 1422 682" opacity="0.22"></path>
        <path d="M 0 671 Q 355.5 0 711 400 Q 1066.5 800 1422 671" opacity="0.23"></path>
        <path d="M 0 660 Q 355.5 0 711 400 Q 1066.5 800 1422 660" opacity="0.24"></path>
        <path d="M 0 649 Q 355.5 0 711 400 Q 1066.5 800 1422 649" opacity="0.26"></path>
        <path d="M 0 638 Q 355.5 0 711 400 Q 1066.5 800 1422 638" opacity="0.27"></path>
        <path d="M 0 627 Q 355.5 0 711 400 Q 1066.5 800 1422 627" opacity="0.28"></path>
        <path d="M 0 616 Q 355.5 0 711 400 Q 1066.5 800 1422 616" opacity="0.29"></path>
        <path d="M 0 605 Q 355.5 0 711 400 Q 1066.5 800 1422 605" opacity="0.31"></path>
        <path d="M 0 594 Q 355.5 0 711 400 Q 1066.5 800 1422 594" opacity="0.32"></path>
        <path d="M 0 583 Q 355.5 0 711 400 Q 1066.5 800 1422 583" opacity="0.33"></path>
        <path d="M 0 572 Q 355.5 0 711 400 Q 1066.5 800 1422 572" opacity="0.35"></path>
        <path d="M 0 561 Q 355.5 0 711 400 Q 1066.5 800 1422 561" opacity="0.36"></path>
        <path d="M 0 550 Q 355.5 0 711 400 Q 1066.5 800 1422 550" opacity="0.37"></path>
        <path d="M 0 539 Q 355.5 0 711 400 Q 1066.5 800 1422 539" opacity="0.38"></path>
        <path d="M 0 528 Q 355.5 0 711 400 Q 1066.5 800 1422 528" opacity="0.40"></path>
        <path d="M 0 517 Q 355.5 0 711 400 Q 1066.5 800 1422 517" opacity="0.41"></path>
        <path d="M 0 506 Q 355.5 0 711 400 Q 1066.5 800 1422 506" opacity="0.42"></path>
        <path d="M 0 495 Q 355.5 0 711 400 Q 1066.5 800 1422 495" opacity="0.44"></path>
        <path d="M 0 484 Q 355.5 0 711 400 Q 1066.5 800 1422 484" opacity="0.45"></path>
        <path d="M 0 473 Q 355.5 0 711 400 Q 1066.5 800 1422 473" opacity="0.46"></path>
        <path d="M 0 462 Q 355.5 0 711 400 Q 1066.5 800 1422 462" opacity="0.47"></path>
        <path d="M 0 451 Q 355.5 0 711 400 Q 1066.5 800 1422 451" opacity="0.49"></path>
        <path d="M 0 440 Q 355.5 0 711 400 Q 1066.5 800 1422 440" opacity="0.50"></path>
        <path d="M 0 429 Q 355.5 0 711 400 Q 1066.5 800 1422 429" opacity="0.51"></path>
        <path d="M 0 418 Q 355.5 0 711 400 Q 1066.5 800 1422 418" opacity="0.53"></path>
        <path d="M 0 407 Q 355.5 0 711 400 Q 1066.5 800 1422 407" opacity="0.54"></path>
        <path d="M 0 396 Q 355.5 0 711 400 Q 1066.5 800 1422 396" opacity="0.55"></path>
        <path d="M 0 385 Q 355.5 0 711 400 Q 1066.5 800 1422 385" opacity="0.56"></path>
        <path d="M 0 374 Q 355.5 0 711 400 Q 1066.5 800 1422 374" opacity="0.58"></path>
        <path d="M 0 363 Q 355.5 0 711 400 Q 1066.5 800 1422 363" opacity="0.59"></path>
        <path d="M 0 352 Q 355.5 0 711 400 Q 1066.5 800 1422 352" opacity="0.60"></path>
        <path d="M 0 341 Q 355.5 0 711 400 Q 1066.5 800 1422 341" opacity="0.61"></path>
        <path d="M 0 330 Q 355.5 0 711 400 Q 1066.5 800 1422 330" opacity="0.63"></path>
        <path d="M 0 319 Q 355.5 0 711 400 Q 1066.5 800 1422 319" opacity="0.64"></path>
        <path d="M 0 308 Q 355.5 0 711 400 Q 1066.5 800 1422 308" opacity="0.65"></path>
        <path d="M 0 297 Q 355.5 0 711 400 Q 1066.5 800 1422 297" opacity="0.67"></path>
        <path d="M 0 286 Q 355.5 0 711 400 Q 1066.5 800 1422 286" opacity="0.68"></path>
        <path d="M 0 275 Q 355.5 0 711 400 Q 1066.5 800 1422 275" opacity="0.69"></path>
        <path d="M 0 264 Q 355.5 0 711 400 Q 1066.5 800 1422 264" opacity="0.70"></path>
        <path d="M 0 253 Q 355.5 0 711 400 Q 1066.5 800 1422 253" opacity="0.72"></path>
        <path d="M 0 242 Q 355.5 0 711 400 Q 1066.5 800 1422 242" opacity="0.73"></path>
        <path d="M 0 231 Q 355.5 0 711 400 Q 1066.5 800 1422 231" opacity="0.74"></path>
        <path d="M 0 220 Q 355.5 0 711 400 Q 1066.5 800 1422 220" opacity="0.76"></path>
        <path d="M 0 209 Q 355.5 0 711 400 Q 1066.5 800 1422 209" opacity="0.77"></path>
        <path d="M 0 198 Q 355.5 0 711 400 Q 1066.5 800 1422 198" opacity="0.78"></path>
        <path d="M 0 187 Q 355.5 0 711 400 Q 1066.5 800 1422 187" opacity="0.79"></path>
        <path d="M 0 176 Q 355.5 0 711 400 Q 1066.5 800 1422 176" opacity="0.81"></path>
        <path d="M 0 165 Q 355.5 0 711 400 Q 1066.5 800 1422 165" opacity="0.82"></path>
        <path d="M 0 154 Q 355.5 0 711 400 Q 1066.5 800 1422 154" opacity="0.83"></path>
        <path d="M 0 143 Q 355.5 0 711 400 Q 1066.5 800 1422 143" opacity="0.85"></path>
        <path d="M 0 132 Q 355.5 0 711 400 Q 1066.5 800 1422 132" opacity="0.86"></path>
        <path d="M 0 121 Q 355.5 0 711 400 Q 1066.5 800 1422 121" opacity="0.87"></path>
        <path d="M 0 110 Q 355.5 0 711 400 Q 1066.5 800 1422 110" opacity="0.88"></path>
        <path d="M 0 99 Q 355.5 0 711 400 Q 1066.5 800 1422 99" opacity="0.90"></path>
        <path d="M 0 88 Q 355.5 0 711 400 Q 1066.5 800 1422 88" opacity="0.91"></path>
        <path d="M 0 77 Q 355.5 0 711 400 Q 1066.5 800 1422 77" opacity="0.92"></path>
        <path d="M 0 66 Q 355.5 0 711 400 Q 1066.5 800 1422 66" opacity="0.94"></path>
        <path d="M 0 55 Q 355.5 0 711 400 Q 1066.5 800 1422 55" opacity="0.95"></path>
        <path d="M 0 44 Q 355.5 0 711 400 Q 1066.5 800 1422 44" opacity="0.96"></path>
        <path d="M 0 33 Q 355.5 0 711 400 Q 1066.5 800 1422 33" opacity="0.97"></path>
        <path d="M 0 22 Q 355.5 0 711 400 Q 1066.5 800 1422 22" opacity="0.99"></path>
    </g>
</svg>