<svg xmlns="http://www.w3.org/2000/svg" version="1.1" xmlns:xlink="http://www.w3.org/1999/xlink"
    xmlns:svgjs="http://svgjs.dev/svgjs" viewBox="0 0 1000 1000">
    <defs>
        <linearGradient x1="50%" y1="0%" x2="50%" y2="100%" id="ccchaos-grad">
            <stop stop-color="hsl(0, 0%, 99%)" stop-opacity="1" offset="0%"></stop>
            <stop stop-color="hsl(0, 0%, 10%)" stop-opacity="1" offset="100%"></stop>
        </linearGradient>
    </defs>
    <g stroke-width="0.5" stroke="url(#ccchaos-grad)" fill="none" stroke-linecap="round">
        <path
            d="M396.37 281.68C405.77 288.1 414.22 294.02 421.64 299.21 432.19 304.09 448.11 308.18 453.79 308.52 459.13 307.73 469.09 308.77 475.12 311.6 480.5 313.86 486.69 317.32 493.73 321.96 502.15 326.67 511.36 332.49 521.04 339.36 531.42 346.24 541.54 354.09 550.71 362.88 559.17 371.67 565.31 381.05 568.88 390.95 570.79 400.98 569.9 411.72 566.45 423.17 561.4 434.97 554.19 447.67 545.32 461.2 535.54 475.14 524.68 489.87 513.23 505.05 501.54 520.23 489.67 535.35 477.93 549.74 466.31 563.09 454.95 574.73 444 583.86 433.22 590.63 422.8 593.97 412.81 593.37 402.91 589.82 393.35 582.31 384.23 571.08 375.09 557.96 366.77 543.07 359.26 527.49 351.73 512.35 345.01 497.9 339.14 484.75 333.22 473.47 328.12 463.9 323.85 456.02 317.58 447.79 307.81 438.03 303.76 434.27 298.98 430.8 288.56 419.17 282.67 410.2 277.95 403.73 273.36 395.86 269.12 386.62 264.52 377.38 260.88 367.29 258.34 356.6 256.07 346.03 255.22 335 255.8 323.84 257.02 312.96 259.77 302.16 263.89 291.8 268.72 282.03 274.82 273.04 281.96 265.2 289.64 258.32 298.17 252.95 307.27 249.39 316.71 247.01 326.55 246.59 336.56 248.21 346.73 250.8 356.94 255.17 366.98 261.12 377.09 267.21 386.96 274.19 396.37 281.68"
            stroke-dasharray="0 0" transform="rotate(0, 400, 400)" opacity="0.05"></path>
        <path
            d="M394.53 284.31C403.72 290.67 411.98 296.56 419.25 301.74 429.59 306.73 445.34 311.21 451.08 311.76 456.56 311.14 466.98 312.29 473.25 315.02 478.76 317.18 485.03 320.5 492.1 324.98 500.48 329.51 509.59 335.15 519.11 341.84 529.29 348.54 539.19 356.23 548.15 364.9 556.43 373.57 562.46 382.87 566.01 392.72 567.98 402.7 567.25 413.42 564.02 424.84 559.27 436.59 552.4 449.22 543.89 462.64 534.48 476.41 523.97 490.9 512.86 505.78 501.47 520.59 489.86 535.27 478.35 549.18 466.93 562.03 455.72 573.16 444.92 581.82 434.26 588.19 423.95 591.23 414.08 590.46 404.29 586.87 394.85 579.46 385.85 568.45 376.84 555.63 368.65 541.08 361.29 525.84 353.89 510.98 347.3 496.72 341.54 483.68 335.73 472.39 330.72 462.7 326.51 454.64 320.3 445.99 310.51 435.29 306.39 431.17 301.56 427.41 291.04 415.65 285.14 406.81 280.44 400.45 275.88 392.76 271.68 383.74 267.13 374.72 263.51 364.88 260.97 354.48 258.68 344.19 257.77 333.49 258.25 322.67 259.35 312.13 261.92 301.71 265.85 291.75 270.45 282.38 276.3 273.79 283.17 266.35 290.58 259.85 298.82 254.83 307.66 251.58 316.81 249.47 326.39 249.25 336.13 251.01 346.04 253.68 356.01 258.07 365.82 263.99 375.69 270.01 385.33 276.91 394.53 284.31"
            stroke-dasharray="0 0" transform="rotate(3.2777777777777777, 400, 400)" opacity="0.07"></path>
        <path
            d="M392.71 286.94C401.69 293.23 409.77 299.09 416.89 304.27 427.03 309.36 442.64 314.21 448.45 314.97 454.06 314.54 464.92 315.82 471.44 318.49 477.05 320.56 483.39 323.76 490.49 328.09 498.82 332.45 507.83 337.92 517.19 344.45 527.16 350.97 536.84 358.52 545.59 367.06 553.69 375.61 559.61 384.83 563.14 394.62 565.16 404.54 564.58 415.21 561.58 426.6 557.11 438.27 550.58 450.81 542.42 464.09 533.37 477.67 523.23 491.91 512.44 506.47 501.37 520.9 490.03 535.15 478.76 548.57 467.53 560.91 456.51 571.55 445.85 579.75 435.32 585.73 425.14 588.48 415.39 587.54 405.71 583.91 396.39 576.6 387.52 565.82 378.65 553.3 370.59 539.09 363.35 524.18 356.08 509.6 349.62 495.55 343.97 482.62 338.26 471.33 333.33 461.55 329.17 453.32 323.02 444.27 313.2 432.67 309.01 428.18 304.11 424.15 293.5 412.22 287.6 403.49 282.93 397.24 278.41 389.72 274.24 380.92 269.73 372.11 266.15 362.53 263.6 352.42 261.3 342.42 260.33 332.04 260.72 321.57 261.69 311.39 264.1 301.34 267.83 291.79 272.2 282.8 277.81 274.61 284.42 267.58 291.55 261.44 299.52 256.77 308.07 253.83 316.95 251.96 326.25 251.94 335.73 253.84 345.39 256.58 355.1 260.98 364.67 266.87 374.31 272.83 383.72 279.64 392.71 286.94"
            stroke-dasharray="0 0" transform="rotate(6.555555555555555, 400, 400)" opacity="0.09"></path>
        <path
            d="M390.92 289.57C399.69 295.8 407.59 301.62 414.57 306.8 424.53 311.97 440.01 317.2 445.89 318.16 451.63 317.93 462.93 319.36 469.66 321.99 475.38 323.98 481.78 327.07 488.89 331.27 497.17 335.48 506.06 340.79 515.26 347.16 525.03 353.53 534.48 360.92 543.03 369.35 550.95 377.78 556.76 386.91 560.26 396.64 562.34 406.49 561.89 417.1 559.11 428.43 554.92 440.01 548.71 452.44 540.9 465.56 532.22 478.93 522.43 492.9 511.98 507.12 501.22 521.17 490.17 534.96 479.14 547.89 468.13 559.74 457.29 569.89 446.79 577.64 436.41 583.24 426.36 585.71 416.73 584.62 407.17 580.96 397.98 573.74 389.24 563.19 380.5 550.96 372.57 537.09 365.46 522.51 358.32 508.22 351.96 494.38 346.42 481.57 340.8 470.3 335.95 460.45 331.84 452.07 325.73 442.64 315.87 430.18 311.62 425.33 306.65 421.01 295.96 408.9 290.05 400.27 285.42 394.12 280.93 386.75 276.8 378.17 272.34 369.58 268.78 360.25 266.24 350.44 263.92 340.73 262.9 330.67 263.2 320.55 264.05 310.72 266.3 301.06 269.83 291.9 273.99 283.31 279.35 275.52 285.71 268.88 292.56 263.1 300.25 258.76 308.53 256.12 317.13 254.49 326.15 254.66 335.37 256.68 344.76 259.5 354.22 263.91 363.55 269.75 372.95 275.64 382.14 282.36 390.92 289.57"
            stroke-dasharray="0 0" transform="rotate(9.833333333333332, 400, 400)" opacity="0.10"></path>
        <path
            d="M389.16 292.2C397.73 298.36 405.46 304.14 412.29 309.31 422.07 314.58 437.44 320.16 443.4 321.34 449.28 321.3 460.99 322.92 467.93 325.51 473.74 327.45 480.19 330.44 487.31 334.52 495.52 338.6 504.3 343.76 513.34 349.99 522.9 356.2 532.13 363.45 540.47 371.76 548.21 380.07 553.91 389.1 557.39 398.76 559.5 408.53 559.19 419.08 556.62 430.32 552.7 441.8 546.81 454.09 539.34 467.03 531.02 480.18 521.59 493.86 511.47 507.73 501.04 521.38 490.27 534.72 479.49 547.16 468.71 558.52 458.07 568.19 447.74 575.49 437.51 580.73 427.6 582.92 418.11 581.69 408.68 578 399.61 570.89 391 560.56 382.39 548.63 374.59 535.09 367.6 520.84 360.58 506.83 354.34 493.21 348.89 480.54 343.36 469.31 338.57 459.4 334.5 450.88 328.44 441.11 318.53 427.82 314.2 422.62 309.18 418 298.4 405.7 292.5 397.16 287.9 391.1 283.45 383.88 279.36 375.51 274.95 367.13 271.42 358.06 268.89 348.54 266.56 339.11 265.49 329.38 265.7 319.62 266.43 310.15 268.52 300.87 271.87 292.11 275.81 283.9 280.93 276.5 287.03 270.25 293.62 264.83 301.02 260.82 309.02 258.45 317.34 257.07 326.09 257.41 335.04 259.55 344.17 262.43 353.38 266.84 362.47 272.64 371.63 278.47 380.59 285.09 389.16 292.2"
            stroke-dasharray="0 0" transform="rotate(13.11111111111111, 400, 400)" opacity="0.12"></path>
        <path
            d="M387.44 294.83C395.81 300.92 403.36 306.66 410.07 311.82 419.68 317.17 434.95 323.1 440.99 324.49 447 324.65 459.11 326.48 466.24 329.06 472.12 330.95 478.62 333.87 485.73 337.84 493.88 341.79 502.53 346.82 511.4 352.9 520.76 358.97 529.77 366.09 537.91 374.28 545.47 382.47 551.07 391.4 554.51 400.98 556.66 410.66 556.48 421.12 554.11 432.27 550.44 443.63 544.86 455.76 537.74 468.5 529.77 481.41 520.69 494.79 510.92 508.29 500.8 521.53 490.33 534.42 479.81 546.37 469.27 557.24 458.83 566.43 448.69 573.31 438.62 578.19 428.86 580.13 419.5 578.75 410.21 575.04 401.27 568.03 392.79 557.93 384.31 546.29 376.64 533.08 369.77 519.16 362.86 505.45 356.73 492.05 351.37 479.53 345.92 468.34 341.19 458.38 337.16 449.76 332.95 442.67 329.31 436.66 326.2 431.49 321.17 425.59 311.69 415.14 306.79 409.14 302.83 405.09 298.86 400.13 294.94 394.15 290.38 388.17 285.97 381.1 281.92 372.94 277.56 364.77 274.06 355.95 271.54 346.72 269.2 337.59 268.08 328.19 268.21 318.79 268.83 309.67 270.77 300.77 273.93 292.41 277.66 284.58 282.54 277.57 288.39 271.69 294.71 266.62 301.84 262.93 309.57 260.84 317.6 259.68 326.07 260.19 334.76 262.44 343.61 265.37 352.57 269.79 361.42 275.53 370.34 281.29 379.08 287.82 387.44 294.83"
            stroke-dasharray="0 0" transform="rotate(16.38888888888889, 400, 400)" opacity="0.14"></path>
        <path
            d="M385.77 297.47C393.94 303.48 401.33 309.17 407.9 314.32 417.35 319.74 432.54 326.02 438.66 327.61 444.8 327.98 457.28 330.04 464.59 332.63 470.54 334.48 477.07 337.33 484.17 341.21 492.24 345.05 500.76 349.95 509.47 355.91 518.62 361.84 527.42 368.83 535.35 376.9 542.73 384.97 548.22 393.8 551.63 403.29 553.82 412.87 553.75 423.22 551.58 434.26 548.16 445.48 542.88 457.44 536.09 469.96 528.47 482.61 519.75 495.67 510.31 508.79 500.53 521.62 490.35 534.05 480.1 545.51 469.8 555.9 459.58 564.63 449.62 571.09 439.73 575.62 430.12 577.31 420.91 575.81 411.76 572.07 402.95 565.18 394.61 555.29 386.26 543.95 378.71 531.07 371.96 517.48 365.17 504.06 359.13 490.9 353.86 478.53 348.49 467.39 343.81 457.42 339.81 448.69 335.62 441.42 331.99 435.19 328.86 429.79 323.79 423.49 314.18 412.41 309.23 406.26 305.26 402.14 301.28 397.18 297.38 391.27 292.85 385.37 288.49 378.44 284.48 370.48 280.17 362.52 276.71 353.95 274.19 345.01 271.85 336.17 270.69 327.09 270.73 318.05 271.24 309.28 273.04 300.76 276.02 292.8 279.55 285.35 284.2 278.73 289.79 273.22 295.85 268.48 302.7 265.1 310.15 263.28 317.9 262.33 326.1 263.01 334.52 265.35 343.11 268.33 351.8 272.75 360.42 278.43 369.09 284.12 377.61 290.56 385.77 297.47"
            stroke-dasharray="0 0" transform="rotate(19.666666666666664, 400, 400)" opacity="0.16"></path>
        <path
            d="M384.16 300.1C392.12 306.04 399.35 311.68 405.8 316.81 415.1 322.3 430.21 328.91 436.41 330.71 442.68 331.29 455.52 333.6 462.99 336.2 468.99 338.04 475.54 340.83 482.62 344.63 490.6 348.37 499 353.16 507.53 358.99 516.48 364.8 525.06 371.66 532.79 379.61 539.99 387.56 545.37 396.28 548.74 405.66 550.96 415.14 551.01 425.38 549.02 436.28 545.85 447.35 540.87 459.12 534.4 471.41 527.12 483.78 518.75 496.51 509.65 509.24 500.2 521.65 490.33 533.62 480.34 544.6 470.31 554.51 460.31 562.78 450.55 568.83 440.84 573.03 431.39 574.48 422.34 572.86 413.32 569.11 404.66 562.33 396.45 552.66 388.23 541.6 380.81 529.06 374.17 515.8 367.49 502.66 361.55 489.74 356.35 477.53 351.05 466.47 346.43 456.49 342.46 447.68 338.29 440.26 334.65 433.82 331.5 428.2 326.38 421.51 316.66 409.83 311.66 403.52 307.68 399.32 303.71 394.36 299.82 388.51 295.32 382.68 291 375.89 287.04 368.13 282.79 360.37 279.36 352.06 276.85 343.41 274.5 334.86 273.3 326.11 273.27 317.42 273.68 309.01 275.33 300.86 278.14 293.29 281.46 286.22 285.88 279.97 291.24 274.82 297.03 270.41 303.61 267.33 310.79 265.76 318.26 265.02 326.17 265.85 334.33 268.28 342.65 271.31 351.09 275.71 359.46 281.34 367.9 286.95 376.19 293.29 384.16 300.1"
            stroke-dasharray="0 0" transform="rotate(22.944444444444443, 400, 400)" opacity="0.17"></path>
        <path
            d="M382.6 302.73C390.37 308.6 397.43 314.19 403.77 319.3 412.91 324.85 427.96 331.78 434.25 333.78 440.63 334.57 453.8 337.15 461.42 339.79 467.47 341.61 474.03 344.36 481.08 348.09 488.97 351.75 497.23 356.42 505.6 362.14 514.33 367.83 522.7 374.57 530.23 382.4 537.26 390.23 542.52 398.83 545.86 408.11 548.1 417.46 548.26 427.57 546.45 438.33 543.51 449.22 538.81 460.79 532.66 472.82 525.73 484.91 517.7 497.29 508.94 509.63 499.81 521.62 490.25 533.12 480.55 543.61 470.77 553.06 461.01 560.88 451.45 566.54 441.94 570.42 432.66 571.64 423.76 569.9 414.9 566.14 406.38 559.47 398.3 550.03 390.22 539.26 382.92 527.04 376.39 514.1 369.81 501.27 363.97 488.59 358.84 476.55 353.61 465.58 349.03 455.6 345.08 446.73 340.93 439.16 337.29 432.54 334.11 426.72 328.96 419.67 319.12 407.4 314.07 400.93 310.09 396.66 306.12 391.68 302.24 385.9 297.79 380.13 293.52 373.47 289.6 365.91 285.4 358.35 282.01 350.28 279.52 341.93 277.17 333.66 275.93 325.24 275.83 316.91 276.13 308.84 277.65 301.07 280.29 293.88 283.41 287.17 287.61 281.29 292.72 276.5 298.25 272.41 304.57 269.61 311.47 268.29 318.66 267.75 326.31 268.72 334.2 271.24 342.24 274.3 350.43 278.69 358.56 284.25 366.76 289.78 374.82 296.03 382.6 302.73"
            stroke-dasharray="0 0" transform="rotate(26.22222222222222, 400, 400)" opacity="0.19"></path>
        <path
            d="M381.1 305.36C388.68 311.15 395.59 316.69 401.81 321.77 410.81 327.39 425.8 334.62 432.17 336.82 438.67 337.82 452.15 340.69 459.89 343.37 465.98 345.2 472.54 347.92 479.55 351.58 487.34 355.16 495.47 359.75 503.66 365.36 512.19 370.93 520.34 377.56 527.68 385.26 534.53 392.97 539.68 401.46 542.98 410.61 545.24 419.83 545.49 429.81 543.85 440.4 541.14 451.1 536.72 462.45 530.88 474.21 524.28 485.99 516.6 498.02 508.17 509.95 499.37 521.51 490.13 532.55 480.7 542.57 471.2 551.56 461.67 558.94 452.33 564.21 443.01 567.78 433.92 568.78 425.18 566.94 416.48 563.18 408.1 556.62 400.16 547.4 392.22 536.91 385.04 525.01 378.61 512.41 372.14 499.86 366.38 487.43 361.32 475.58 356.16 464.71 351.62 454.75 347.69 445.84 343.56 438.15 339.91 431.36 336.71 425.34 331.51 417.96 321.56 405.12 316.47 398.49 312.48 394.14 308.53 389.15 304.67 383.43 300.26 377.72 296.03 371.19 292.16 363.82 288.02 356.45 284.66 348.63 282.19 340.57 279.84 332.59 278.57 324.49 278.39 316.51 278.61 308.79 279.99 301.39 282.46 294.58 285.4 288.23 289.38 282.71 294.25 278.26 299.53 274.48 305.58 271.96 312.21 270.88 319.13 270.52 326.49 271.62 334.12 274.21 341.9 277.3 349.83 281.67 357.72 287.17 365.68 292.62 373.52 298.76 381.1 305.36"
            stroke-dasharray="0 0" transform="rotate(29.5, 400, 400)" opacity="0.21"></path>
        <path
            d="M379.68 307.99C387.06 313.7 393.82 319.18 399.93 324.24 408.79 329.91 423.73 337.44 430.17 339.83 436.78 341.04 450.55 344.2 458.4 346.94 464.51 348.79 471.07 351.48 478.02 355.09 485.72 358.61 493.7 363.11 501.71 368.62 510.04 374.09 517.98 380.59 525.12 388.18 531.8 395.76 536.83 404.12 540.09 413.15 542.37 422.23 542.72 432.05 541.24 442.46 538.74 452.97 534.59 464.07 529.05 475.55 522.78 487.02 515.44 498.69 507.34 510.21 498.88 521.34 489.94 531.91 480.81 541.46 471.57 549.99 462.3 556.94 453.17 561.84 444.07 565.11 435.16 565.9 426.59 563.97 418.05 560.21 409.82 553.77 402.02 544.77 394.21 534.56 387.15 522.98 380.83 510.7 374.47 498.46 368.79 486.28 363.79 474.62 358.69 463.86 354.19 453.94 350.28 445 346.16 437.2 342.5 430.26 339.27 424.08 334.04 416.38 323.99 402.99 318.85 396.21 314.87 391.78 310.92 386.78 307.08 381.11 302.72 375.46 298.54 369.05 294.72 361.87 290.63 354.69 287.32 347.12 284.86 339.34 282.52 331.64 281.22 323.86 280.98 316.24 281.1 308.86 282.35 301.82 284.67 295.38 287.42 289.39 291.18 284.22 295.83 280.1 300.85 276.62 306.64 274.37 313.01 273.51 319.65 273.32 326.74 274.55 334.11 277.21 341.62 280.32 349.29 284.67 356.95 290.1 364.66 295.46 372.29 301.5 379.68 307.99"
            stroke-dasharray="0 0" transform="rotate(32.77777777777778, 400, 400)" opacity="0.23"></path>
        <path
            d="M378.33 310.62C385.53 316.25 392.14 321.67 398.14 326.7 406.86 332.42 421.75 340.22 428.27 342.81 434.98 344.23 449 347.7 456.95 350.5 463.07 352.37 469.61 355.05 476.51 358.62 484.09 362.09 491.93 366.51 499.77 371.92 507.88 377.28 515.62 383.68 522.56 391.14 529.06 398.6 533.99 406.83 537.2 415.71 539.49 424.65 539.92 434.3 538.6 444.52 536.31 454.82 532.42 465.67 527.18 476.85 521.23 487.99 514.22 499.29 506.46 510.39 498.32 521.09 489.7 531.2 480.86 540.28 471.9 548.37 462.88 554.9 453.98 559.44 445.09 562.42 436.38 563.02 427.98 560.99 419.6 557.24 411.53 550.92 403.87 542.14 396.2 532.2 389.26 520.95 383.04 508.99 376.78 497.05 371.19 485.13 366.25 473.66 361.2 463.02 356.74 453.16 352.84 444.21 348.73 436.32 345.07 429.26 341.81 422.92 338.21 417.46 334.87 412.4 331.75 407.57 328.14 403.25 324.64 398.81 321.23 394.1 317.25 389.59 313.31 384.57 309.5 378.95 305.18 373.36 301.05 367.07 297.28 360.08 293.25 353.08 289.98 345.75 287.54 338.25 285.2 330.83 283.88 323.37 283.58 316.09 283.61 309.05 284.74 302.37 286.9 296.29 291.25 288.23 304.99 277.83 313.87 276.19 320.23 276.17 327.05 277.51 334.16 280.22 341.4 283.36 348.82 287.67 356.24 293.03 363.72 298.31 371.13 304.25 378.33 310.62"
            stroke-dasharray="0 0" transform="rotate(36.05555555555555, 400, 400)" opacity="0.24"></path>
        <path
            d="M377.06 313.25C384.07 318.8 390.54 324.16 396.43 329.16 405.03 334.91 419.86 342.98 426.45 345.75 433.25 347.38 447.5 351.16 455.53 354.05 461.66 355.94 468.17 358.62 475 362.15 482.47 365.57 490.16 369.92 497.81 375.24 505.73 380.52 513.25 386.8 520 394.13 526.33 401.47 531.14 409.56 534.3 418.3 536.6 427.08 537.12 436.55 535.95 446.56 533.86 456.63 530.22 467.22 525.26 478.09 519.62 488.9 512.94 499.81 505.51 510.5 497.71 520.76 489.4 530.42 480.85 539.03 472.18 546.69 463.41 552.81 454.74 557.01 446.08 559.71 437.56 560.12 429.34 558.01 421.14 554.27 413.23 548.07 405.7 539.51 398.18 529.85 391.36 518.91 385.24 507.28 379.08 495.63 373.56 483.97 368.68 472.71 363.69 462.21 359.27 452.41 355.37 443.47 351.28 435.52 347.61 428.34 344.32 421.87 340.69 416.22 337.32 410.99 334.17 406 330.54 401.51 327.01 396.94 323.58 392.15 319.61 387.56 315.69 382.53 311.9 376.95 307.63 371.41 303.56 365.24 299.84 358.43 295.87 351.62 292.65 344.52 290.23 337.31 287.9 330.16 286.55 323.02 286.19 316.08 286.65 306.2 293.24 289.76 299.11 284.03 303.65 281.11 308.93 279.36 314.78 278.91 320.87 279.05 327.43 280.49 334.27 283.26 341.25 286.41 348.42 290.68 355.61 295.96 362.85 301.16 370.05 306.99 377.06 313.25"
            stroke-dasharray="0 0" transform="rotate(39.33333333333333, 400, 400)" opacity="0.26"></path>
        <path
            d="M375.88 315.88C382.7 321.35 389.03 326.64 394.82 331.6 403.28 337.38 418.06 345.71 424.72 348.66 431.6 350.5 446.05 354.6 454.15 357.57 460.27 359.5 466.74 362.18 473.5 365.68 480.85 369.07 488.38 373.36 495.86 378.59 503.57 383.77 510.88 389.95 517.44 397.15 523.6 404.36 528.29 412.31 531.41 420.89 533.71 429.51 534.3 438.79 533.27 448.58 531.37 458.41 527.98 468.72 523.3 479.27 517.97 489.74 511.61 500.26 504.5 510.52 497.03 520.35 489.04 529.56 480.78 537.72 472.39 544.95 463.89 550.68 455.46 554.53 447.02 556.97 438.71 557.2 430.67 555.02 422.65 551.3 414.9 545.22 407.52 536.88 400.14 527.49 393.44 516.87 387.42 505.56 381.36 494.22 375.92 482.82 371.09 471.78 366.16 461.42 361.77 451.7 357.88 442.77 353.8 434.77 350.11 427.5 346.8 420.91 343.16 415.1 339.76 409.71 336.56 404.57 332.92 399.92 329.37 395.23 325.93 390.37 321.97 385.7 318.07 380.65 314.3 375.13 310.08 369.64 306.07 363.58 302.4 356.95 298.5 350.32 295.32 343.46 292.92 336.52 290.6 329.64 289.23 322.81 288.82 316.2 289.15 306.82 295.27 291.39 300.83 286.12 307.65 282.71 324.73 282.74 334.47 286.32 341.18 289.47 348.1 293.71 355.06 298.91 362.07 304.01 369.05 309.73 375.88 315.88"
            stroke-dasharray="0 0" transform="rotate(42.61111111111111, 400, 400)" opacity="0.28"></path>
        <path
            d="M374.79 318.51C381.43 323.89 387.61 329.12 393.3 334.04 401.63 339.85 416.36 348.41 423.08 351.53 430.04 353.57 444.66 358 452.8 361.06 458.9 363.04 465.33 365.73 472.01 369.2 479.24 372.56 486.61 376.79 493.9 381.94 501.41 387.04 508.51 393.1 514.88 400.18 520.87 407.26 525.45 415.06 528.51 423.47 530.81 431.92 531.48 441 530.58 450.56 528.86 460.14 525.7 470.16 521.3 480.38 516.26 490.5 510.22 500.63 503.43 510.47 496.28 519.87 488.61 528.62 480.65 536.34 472.55 543.15 464.31 548.5 456.12 552.03 447.91 554.21 439.82 554.27 431.96 552.03 424.13 548.33 416.54 542.37 409.31 534.25 402.07 525.13 395.5 514.82 389.57 503.83 383.61 492.79 378.25 481.66 373.47 470.84 368.59 460.64 364.23 451.01 360.35 442.12 356.27 434.09 352.58 426.75 349.24 420.06 345.58 414.11 342.16 408.56 338.93 403.3 335.27 398.49 331.71 393.69 328.25 388.76 324.31 384.02 320.43 378.96 316.7 373.48 312.53 368.04 308.57 362.09 304.96 355.64 301.12 349.19 297.99 342.55 295.61 335.88 293.31 329.27 291.92 322.74 291.46 316.47 291.66 307.57 297.34 293.11 302.59 288.29 309.05 285.24 325.38 285.74 334.73 289.4 341.19 292.55 347.86 296.74 354.59 301.86 361.37 306.87 368.14 312.48 374.79 318.51"
            stroke-dasharray="0 0" transform="rotate(45.888888888888886, 400, 400)" opacity="0.30"></path>
        <path
            d="M373.79 321.14C380.25 326.43 386.29 331.59 391.88 336.47 400.09 342.29 414.76 351.07 421.53 354.36 428.55 356.6 443.31 361.35 451.48 364.5 457.56 366.54 463.93 369.24 470.52 372.7 477.62 376.04 484.83 380.22 491.94 385.28 499.24 390.3 506.14 396.26 512.32 403.21 518.14 410.16 522.61 417.81 525.62 426.04 527.91 434.31 528.64 443.18 527.87 452.49 526.33 461.82 523.39 471.54 519.25 481.42 514.5 491.18 508.77 500.92 502.3 510.33 495.47 519.3 488.11 527.61 480.44 534.89 472.64 541.29 464.67 546.27 456.73 549.49 448.76 551.43 440.87 551.33 433.21 549.03 425.57 545.35 418.15 539.52 411.06 531.62 403.97 522.77 397.52 512.76 391.69 502.09 385.83 491.36 380.54 480.5 375.82 469.91 370.99 459.87 366.65 450.36 362.78 441.52 358.72 433.48 355.02 426.08 351.65 419.31 347.98 413.23 344.53 407.55 341.27 402.16 337.6 397.22 334.03 392.31 330.57 387.32 326.64 382.52 322.79 377.44 319.09 372.01 314.98 366.62 311.08 360.78 307.52 354.5 303.75 348.22 300.66 341.81 298.31 335.4 295.33 325.94 294.2 308.44 296.14 301.08 299.44 294.94 310.52 287.84 317.9 287.38 323.21 287.92 328.99 289.63 335.07 292.5 341.27 295.64 347.7 299.78 354.21 304.81 360.75 309.73 367.32 315.23 373.79 321.14"
            stroke-dasharray="0 0" transform="rotate(49.16666666666667, 400, 400)" opacity="0.31"></path>
        <path
            d="M372.88 323.77C379.17 328.97 385.08 334.06 390.57 338.89 398.65 344.72 413.26 353.7 420.07 357.15 427.14 359.58 442.01 364.66 450.19 367.91 456.24 370 462.55 372.72 469.04 376.17 476 379.49 483.05 383.63 489.98 388.62 497.07 393.56 503.77 399.41 509.76 406.23 515.41 413.04 519.76 420.53 522.72 428.58 525.01 436.66 525.79 445.31 525.14 454.37 523.77 463.43 521.04 472.84 517.16 482.38 512.7 491.77 507.27 501.11 501.1 510.1 494.59 518.64 487.54 526.52 480.17 533.37 472.66 539.38 464.97 544 457.27 546.92 449.54 548.62 441.88 548.38 434.41 546.02 426.96 542.38 419.71 536.67 412.77 528.99 405.83 520.41 399.5 510.7 393.77 500.35 388.01 489.92 382.79 479.34 378.12 468.98 373.34 459.12 369.04 449.72 365.17 440.96 361.12 432.92 357.41 425.48 354.02 418.65 350.34 412.46 346.87 406.67 343.58 401.18 339.9 396.11 336.33 391.1 332.86 386.05 328.96 381.19 325.14 376.1 321.47 370.72 317.42 365.38 313.58 359.65 310.08 353.54 306.37 347.43 303.34 341.24 301.02 335.09 298.05 326.03 296.76 309.45 298.52 302.56 301.58 296.86 312.04 290.5 319.07 290.29 324.13 290.95 329.65 292.72 335.49 295.61 341.44 298.74 347.63 302.83 353.91 307.77 360.23 312.59 366.59 317.98 372.88 323.77"
            stroke-dasharray="0 0" transform="rotate(52.44444444444444, 400, 400)" opacity="0.33"></path>
        <path
            d="M372.08 326.41C378.2 331.51 383.97 336.52 389.36 341.3 397.32 347.14 411.85 356.3 418.7 359.9 425.81 362.52 440.76 367.92 448.94 371.27 454.94 373.41 461.17 376.17 467.57 379.6 474.38 382.92 481.27 387.01 488.01 391.92 494.9 396.79 501.39 402.54 507.2 409.22 512.69 415.9 516.92 423.23 519.82 431.09 522.1 438.97 522.93 447.39 522.4 456.18 521.18 464.97 518.66 474.06 515.02 483.25 510.83 492.28 505.7 501.22 499.84 509.78 493.64 517.9 486.9 525.35 479.83 531.78 472.61 537.4 465.19 541.68 457.74 544.31 450.26 545.79 442.82 545.41 435.55 543.01 428.29 539.41 421.22 533.83 414.44 526.35 407.65 518.04 401.44 508.64 395.81 498.6 390.14 488.47 385 478.17 380.38 468.05 375.65 458.38 371.38 449.12 367.52 440.43 363.48 432.42 359.77 424.96 356.36 418.08 352.67 411.8 349.18 405.91 345.87 400.33 342.19 395.15 338.61 390.06 335.15 384.96 331.27 380.05 327.48 374.95 323.85 369.62 319.86 364.33 316.08 358.7 312.64 352.76 309 346.82 306.02 340.84 303.73 334.95 300.77 326.28 299.34 310.59 300.93 304.17 303.77 298.88 313.62 293.22 320.3 293.25 325.12 294.01 330.39 295.85 335.99 298.75 341.7 301.86 347.64 305.89 353.71 310.74 359.81 315.46 365.97 320.73 372.08 326.41"
            stroke-dasharray="0 0" transform="rotate(55.72222222222222, 400, 400)" opacity="0.35"></path>
        <path
            d="M371.39 329.04C377.33 334.04 382.96 338.98 388.26 343.7 396.09 349.54 410.54 358.87 417.41 362.61 424.55 365.41 439.55 371.12 447.71 374.57 453.65 376.78 459.81 379.56 466.1 382.99 472.77 386.3 479.48 390.35 486.04 395.19 492.72 399.99 499.01 405.64 504.64 412.18 509.96 418.72 514.08 425.88 516.92 433.54 519.18 441.22 520.06 449.4 519.63 457.93 518.56 466.43 516.25 475.2 512.84 484.02 508.92 492.69 504.08 501.23 498.51 509.37 492.62 517.07 486.19 524.1 479.41 530.13 472.48 535.37 465.34 539.31 458.14 541.67 450.91 542.94 443.7 542.43 436.63 540 429.57 536.43 422.68 530.98 416.05 523.72 409.41 515.67 403.33 506.57 397.8 496.85 392.23 487.02 387.16 477 382.59 467.12 377.92 457.65 373.67 448.53 369.82 439.94 365.79 431.97 362.08 424.51 358.65 417.6 354.96 411.25 351.45 405.28 348.13 399.62 344.45 394.34 340.87 389.18 337.41 384.04 333.56 379.08 329.81 373.98 326.22 368.7 322.29 363.46 318.58 357.94 315.2 352.17 311.63 346.39 308.7 340.62 306.44 334.98 303.51 326.69 301.94 311.87 303.37 305.88 310.63 298.5 328.7 298.05 336.58 301.9 342.04 304.99 347.75 308.96 353.6 313.71 359.48 318.33 365.44 323.48 371.39 329.04"
            stroke-dasharray="0 0" transform="rotate(59, 400, 400)" opacity="0.37"></path>
        <path
            d="M370.79 331.67C376.57 336.58 382.07 341.43 387.27 346.1 392.49 350.05 397.46 353.79 402.18 357.29 411.92 362.12 421.29 366.65 430.57 371.44 441.23 374.6 452.7 379.35 464.63 386.33 471.15 389.63 477.69 393.65 484.06 398.42 490.54 403.14 496.64 408.68 502.08 415.08 507.24 421.48 511.24 428.47 514.02 435.93 516.26 443.4 517.19 451.34 516.86 459.58 514.38 475.97 507.34 493.04 497.12 508.86 485.66 522.99 472.3 533.79 458.47 539 451.49 540.07 444.51 539.44 437.65 536.98 430.79 533.45 424.07 528.14 417.6 521.09 411.12 513.3 405.16 504.5 399.73 495.09 394.26 485.56 389.27 475.83 384.75 466.2 375.42 448.13 367.53 431.56 360.91 417.21 353.25 404.94 346.16 393.8 339.67 383.29 335.85 378.29 332.13 373.2 328.59 367.97 324.73 362.78 321.07 357.37 317.76 351.76 312.82 343.36 306.26 327.26 304.88 319.95 304.13 310.87 306.7 303.98 312.11 300.34 318.39 298.02 327.07 299.53 337.25 305.07 342.47 308.13 347.95 312.03 353.59 316.68 359.25 321.2 365.02 326.23 370.79 331.67"
            stroke-dasharray="0 0" transform="rotate(62.27777777777778, 400, 400)" opacity="0.38"></path>
        <path
            d="M370.31 334.3C381.53 343.31 391.82 351.98 401.11 359.69 410.77 364.68 420.16 369.41 429.48 374.37 440.08 377.75 451.44 382.63 463.16 389.6 476.16 396.1 488.85 405.42 499.52 417.93 509.14 430.44 514 445.21 514.06 461.15 511.88 476.95 505.33 493.27 495.66 508.26 484.8 521.59 472.04 531.64 458.72 536.29 445.22 537.13 431.72 531.27 419.08 518.46 406.44 502.85 395.71 484.22 386.85 465.27 377.63 447.58 369.77 431.2 363.12 416.9 355.48 404.52 348.39 393.26 341.9 382.71 334.02 372.82 326.58 362.46 320.32 351.54 313.38 340.62 309.09 330.18 307.61 321.1 307.92 309.35 324.16 301.86 338 308.26 348.07 314.35 359.1 323.31 370.31 334.3"
            stroke-dasharray="0 0" transform="rotate(65.55555555555556, 400, 400)" opacity="0.40"></path>
        <path
            d="M369.94 336.93C380.82 345.78 390.93 354.35 400.14 362.06 409.72 367.2 419.1 372.11 428.43 377.23 438.97 380.84 450.2 385.84 461.7 392.81 474.36 399.3 486.65 408.49 496.96 420.71 506.29 432.93 511.06 447.26 511.25 462.62 509.36 477.81 503.26 493.38 494.14 507.55 483.87 520.11 471.69 529.43 458.88 533.56 445.89 534.1 432.81 528.27 420.5 515.83 408.18 500.76 397.64 482.74 388.89 464.34 379.79 447.04 371.96 430.88 365.29 416.67 357.68 404.22 350.59 392.87 344.12 382.31 336.34 372.37 329.03 362.11 322.88 351.51 316.09 340.9 311.86 330.93 310.35 322.39 310.45 311.4 325.66 304.98 338.85 311.46 348.45 317.46 359.06 326.21 369.94 336.93"
            stroke-dasharray="0 0" transform="rotate(68.83333333333333, 400, 400)" opacity="0.42"></path>
        <path
            d="M369.68 339.56C380.23 348.23 390.14 356.71 399.28 364.4 408.76 369.68 418.11 374.76 427.45 380.03 437.89 383.85 448.97 388.97 460.24 395.93 472.55 402.44 484.45 411.49 494.4 423.41 503.43 435.33 508.11 449.2 508.42 463.98 506.81 478.56 501.15 493.39 492.55 506.75 482.86 518.55 471.25 527.17 458.96 530.79 446.48 531.06 433.82 525.27 421.83 513.2 409.84 498.66 399.51 481.26 390.86 463.41 381.89 446.52 374.1 430.61 367.41 416.51 359.84 404.03 352.77 392.62 346.32 382.06 338.65 372.1 331.46 361.96 325.44 351.66 318.8 341.36 314.65 331.85 313.1 323.83 313 313.56 327.23 308.15 339.78 314.68 348.93 320.58 359.12 329.11 369.68 339.56"
            stroke-dasharray="0 0" transform="rotate(72.1111111111111, 400, 400)" opacity="0.44"></path>
        <path
            d="M369.53 342.19C379.76 350.68 389.47 359.05 398.51 366.71 407.89 372.11 417.21 377.35 426.51 382.76 436.85 386.78 447.76 392.02 458.78 398.98 470.74 405.49 482.25 414.4 491.84 426.02 500.57 437.63 505.15 451.05 505.58 465.23 504.22 479.2 498.98 493.28 490.89 505.85 481.76 516.91 470.73 524.85 458.95 528 446.97 528.01 434.75 522.27 423.09 510.57 411.43 496.55 401.31 479.77 392.77 462.48 383.92 446.01 376.19 430.38 369.49 416.43 361.96 403.95 354.92 392.51 348.51 381.98 340.96 372.01 333.9 362 328 352.01 321.52 342.02 317.44 332.94 315.87 325.42 315.59 315.84 328.87 311.35 340.8 317.92 349.52 323.71 359.3 332.01 369.53 342.19"
            stroke-dasharray="0 0" transform="rotate(75.38888888888889, 400, 400)" opacity="0.45"></path>
        <path
            d="M369.5 344.82C379.41 353.13 388.91 361.38 397.86 369 407.11 374.51 416.37 379.89 425.63 385.42 435.83 389.63 446.56 394.98 457.33 401.93 468.93 408.44 480.04 417.22 489.28 428.52 497.71 439.83 502.2 452.77 502.73 466.35 501.6 479.71 496.77 493.06 489.17 504.84 480.59 515.18 470.12 522.48 458.84 525.17 447.37 524.95 435.59 519.27 424.26 507.94 412.93 494.44 403.03 478.27 394.61 461.54 385.89 445.52 378.21 430.19 371.52 416.41 364.05 403.98 357.05 392.54 350.68 382.07 343.25 372.11 336.33 362.24 330.56 352.55 324.24 342.85 320.24 334.2 318.65 327.16 318.21 318.23 330.58 314.6 341.91 321.17 350.2 326.84 359.58 334.92 369.5 344.82"
            stroke-dasharray="0 0" transform="rotate(78.66666666666666, 400, 400)" opacity="0.47"></path>
        <path
            d="M369.58 347.45C379.17 355.57 388.47 363.69 397.3 371.27 406.42 376.86 415.6 382.37 424.79 388.01 434.85 392.4 445.37 397.85 455.87 404.78 467.11 411.29 477.83 419.93 486.72 430.92 494.86 441.91 499.24 454.37 499.86 467.35 498.95 480.1 494.51 492.71 487.39 503.74 479.34 513.37 469.42 520.04 458.65 522.32 447.68 521.88 436.33 516.27 425.34 505.31 414.35 492.33 404.67 476.76 396.37 460.6 387.8 445.03 380.18 430.03 373.51 416.46 366.1 404.1 359.15 392.71 352.84 382.3 345.54 372.39 338.76 362.66 333.12 353.27 326.96 343.87 323.04 335.63 321.45 329.05 320.85 320.73 332.36 317.89 343.11 324.44 350.99 329.98 359.98 337.84 369.58 347.45"
            stroke-dasharray="0 0" transform="rotate(81.94444444444444, 400, 400)" opacity="0.49"></path>
        <path
            d="M369.77 350.08C379.05 358.01 388.13 365.99 396.84 373.5 405.82 379.17 414.91 384.78 424 390.52 433.89 395.08 444.2 400.63 454.41 407.53 465.29 414.04 475.61 422.52 484.16 433.19 492 443.86 496.27 455.84 496.98 468.22 496.28 480.35 492.2 492.25 485.54 502.52 478 511.48 468.62 517.56 458.35 519.43 447.88 518.8 436.98 513.26 426.33 502.68 415.68 490.2 406.23 475.24 398.06 459.66 389.63 444.56 382.09 429.91 375.44 416.57 368.11 404.32 361.23 393 354.98 382.69 347.82 372.83 341.18 363.27 335.68 354.17 329.93 326.73 356.18 336.94 369.77 350.08"
            stroke-dasharray="0 0" transform="rotate(85.22222222222221, 400, 400)" opacity="0.51"></path>
        <path
            d="M370.07 352.71C379.04 360.44 387.91 368.28 396.47 375.71 405.3 381.44 414.27 387.14 423.26 392.96 432.96 397.67 443.03 403.3 452.96 410.17 463.47 416.66 473.4 424.99 481.6 435.34 489.15 445.68 493.3 457.17 494.08 468.94 493.57 480.46 489.84 491.65 483.62 501.2 476.59 509.51 467.73 515.02 457.95 516.52 447.98 515.7 437.52 510.26 427.22 500.05 416.92 488.08 407.7 473.72 399.67 458.71 391.4 444.09 383.94 429.81 377.33 416.74 370.09 404.64 363.28 393.41 357.1 383.22 350.08 373.45 343.6 364.05 338.24 355.25 332.26 329.49 356.99 339.98 370.07 352.71"
            stroke-dasharray="0 0" transform="rotate(88.5, 400, 400)" opacity="0.53"></path>
        <path
            d="M370.49 355.35C379.14 362.86 387.79 370.55 396.2 377.9 404.87 383.66 413.7 389.43 422.55 395.32 432.05 400.16 441.87 405.86 451.5 412.69 461.64 419.16 471.18 427.33 479.04 437.34 486.3 447.35 490.34 458.36 491.17 469.52 490.83 480.44 487.44 490.93 481.64 499.78 475.09 507.46 466.75 512.42 457.46 513.58 447.98 512.6 437.95 507.26 428.01 497.41 418.05 485.95 409.08 472.18 401.19 457.75 393.09 443.62 385.73 429.74 379.17 416.96 372.02 405.04 365.3 393.94 359.2 383.9 352.34 374.23 346.02 365.02 340.8 356.5 334.63 332.32 357.89 343.02 370.49 355.35"
            stroke-dasharray="0 0" transform="rotate(91.77777777777777, 400, 400)" opacity="0.54"></path>
        <path
            d="M371.01 357.98C379.36 365.29 387.77 372.81 396.03 380.05 404.51 385.83 413.19 391.66 421.89 397.59 431.17 402.56 440.72 408.3 450.04 415.08 459.8 421.53 468.95 429.53 476.48 439.2 483.45 448.87 487.36 459.39 488.25 469.95 488.07 480.27 484.99 490.08 479.61 498.26 473.52 505.32 465.68 509.78 456.87 510.61 447.87 509.49 438.28 504.26 428.69 494.78 419.09 483.81 410.36 470.64 402.63 456.78 394.7 443.16 387.45 429.69 380.95 417.22 373.92 405.51 367.29 394.59 361.29 384.7 354.59 375.17 348.43 366.15 343.36 357.93 337.05 335.24 358.91 346.06 371.01 357.98"
            stroke-dasharray="0 0" transform="rotate(95.05555555555557, 400, 400)" opacity="0.56"></path>
        <path
            d="M371.65 360.61C379.68 367.7 387.86 375.05 395.94 382.18 404.23 387.96 412.74 393.82 421.26 399.78 430.3 404.85 439.58 410.63 448.58 417.35 457.96 423.75 466.73 431.58 473.92 440.91 480.6 450.24 484.39 460.26 485.32 470.23 485.29 479.96 482.5 489.11 477.51 496.63 471.86 503.11 464.52 507.08 456.17 507.62 447.66 506.37 438.5 501.26 429.27 492.15 420.02 481.67 411.55 469.08 403.98 455.8 396.23 442.7 389.1 429.66 382.69 417.53 375.77 406.07 369.26 395.34 363.37 385.64 356.83 376.26 350.85 367.45 345.92 359.52 339.5 338.24 360.02 349.11 371.65 360.61"
            stroke-dasharray="0 0" transform="rotate(98.33333333333334, 400, 400)" opacity="0.58"></path>
        <path
            d="M372.38 363.24C380.11 370.11 388.05 377.28 395.94 384.28 404.02 390.05 412.34 395.92 420.66 401.89 429.45 407.03 438.44 412.84 447.12 419.48 456.12 425.83 464.5 433.47 471.36 442.45 477.75 451.43 481.41 460.97 482.38 470.35 482.47 479.5 479.96 488 475.35 494.89 470.13 500.82 463.26 504.33 455.38 504.6 447.33 503.24 438.61 498.25 429.73 489.52 420.85 479.53 412.64 467.51 405.25 454.81 397.69 442.23 390.69 429.65 384.37 417.88 377.59 406.69 371.2 396.18 365.42 386.7 359.06 377.5 353.25 368.91 348.48 361.27 341.99 341.31 361.23 352.17 372.38 363.24"
            stroke-dasharray="0 0" transform="rotate(101.61111111111111, 400, 400)" opacity="0.60"></path>
        <path
            d="M373.22 365.87C380.65 372.52 388.34 379.49 396.02 386.35 403.88 392.09 411.99 397.96 420.1 403.91 428.62 409.11 437.31 414.93 445.65 421.47 454.27 427.76 462.26 435.2 468.8 443.84 474.9 452.46 478.44 461.51 479.43 470.31 479.64 478.89 477.38 486.77 473.13 493.05 468.32 498.45 461.91 501.54 454.48 501.56 446.9 500.11 438.61 495.25 430.09 486.89 421.57 477.37 413.62 465.94 406.42 453.81 399.07 441.76 392.22 429.65 386 418.27 379.37 407.38 373.11 397.12 367.46 387.87 361.29 378.87 355.65 370.53 351.04 363.17 344.53 344.46 362.55 355.22 373.22 365.87"
            stroke-dasharray="0 0" transform="rotate(104.88888888888889, 400, 400)" opacity="0.61"></path>
        <path
            d="M374.16 368.5C381.28 374.92 388.71 381.69 396.18 388.4 403.8 394.08 411.69 399.92 419.57 405.85 427.81 411.08 436.17 416.88 444.18 423.32 452.41 429.53 460.02 436.77 466.24 445.05 472.06 453.32 475.46 461.87 476.47 470.11 476.78 478.14 474.77 485.41 470.85 491.11 466.43 496.01 460.46 498.69 453.48 498.49 446.35 496.96 438.49 492.25 430.34 484.26 422.18 475.22 414.51 464.35 407.51 452.8 400.37 441.29 393.68 429.66 387.57 418.68 381.11 408.12 374.99 398.15 369.48 389.15 363.5 380.38 358.05 372.28 353.6 365.21 347.1 347.67 363.95 358.29 374.16 368.5"
            stroke-dasharray="0 0" transform="rotate(108.16666666666667, 400, 400)" opacity="0.63"></path>
        <path
            d="M375.2 371.13C382.01 377.31 389.18 383.88 396.41 390.41 403.79 396.03 411.43 401.82 419.06 407.69 427.01 412.94 435.05 418.71 442.7 425.03 450.55 431.14 457.78 438.17 463.68 446.08 469.22 453.99 472.48 462.07 473.5 469.75 473 480.57 461.7 494.64 452.38 495.4 445.69 493.81 438.25 489.25 430.47 481.63 422.69 473.05 415.29 462.75 408.5 451.78 401.59 440.81 395.07 429.68 389.1 419.12 382.8 408.91 376.85 399.25 371.49 390.53 365.7 382 360.45 374.17 356.16 367.39 349.7 350.95 365.45 361.35 375.2 371.13"
            stroke-dasharray="0 0" transform="rotate(111.44444444444444, 400, 400)" opacity="0.65"></path>
        <path
            d="M376.33 373.76C382.84 379.7 389.73 386.05 396.72 392.4 403.83 397.93 411.22 403.65 418.58 409.45 426.22 414.69 433.92 420.4 441.22 426.59 448.68 432.58 455.54 439.39 461.12 446.93 466.38 454.48 469.5 462.08 470.52 469.22 470.21 479.23 459.87 491.88 451.18 492.29 444.92 490.65 437.9 486.25 430.49 479 423.07 470.88 415.98 461.14 409.4 450.75 402.72 440.33 396.39 429.7 390.57 419.58 384.46 409.75 378.68 400.42 373.48 391.99 367.9 383.74 362.84 376.18 358.72 369.7 352.35 354.3 367.04 364.42 376.33 373.76"
            stroke-dasharray="0 0" transform="rotate(114.72222222222221, 400, 400)" opacity="0.67"></path>
        <path
            d="M377.55 376.39C383.75 382.09 390.36 388.21 397.09 394.36 403.93 399.78 411.04 405.41 418.12 411.12 425.43 416.33 432.79 421.96 439.73 428 446.81 433.86 453.29 440.42 458.56 447.6 463.54 454.78 466.51 461.91 467.54 468.52 467.38 477.75 457.96 489.05 449.88 489.15 444.04 487.48 437.43 483.25 430.4 476.37 423.35 468.71 416.55 459.52 410.21 449.7 403.78 439.83 397.64 429.72 391.99 420.06 386.08 410.63 380.48 401.65 375.45 393.54 370.08 385.58 365.23 378.32 361.28 372.12 355.02 357.69 368.72 367.5 377.55 376.39"
            stroke-dasharray="0 0" transform="rotate(118, 400, 400)" opacity="0.68"></path>
        <path
            d="M378.85 379.02C390.63 389.2 404.32 401.09 417.68 412.7 431.8 422.54 445.95 434.47 456 448.09 465.04 461.7 466.34 474.45 461.2 482.35 454.79 488.1 443.52 485.91 430.19 473.74 416.85 458.81 404.07 439.08 393.36 420.54 381.76 402.78 371.1 386.45 363.84 374.65 354.54 360.08 363.06 362.91 378.85 379.02"
            stroke-dasharray="0 0" transform="rotate(121.27777777777779, 400, 400)" opacity="0.70"></path>
        <path
            d="M380.22 381.65C391.4 391.4 404.49 402.91 417.25 414.19 430.66 423.91 444.01 435.52 453.44 448.39 462.65 467.09 447.67 483.81 429.87 471.11 417.28 457.12 405.03 438.58 394.67 421.04 383.55 404.11 373.34 388.49 366.4 377.29 357.54 363.51 365.32 366.41 380.22 381.65"
            stroke-dasharray="0 0" transform="rotate(124.55555555555556, 400, 400)" opacity="0.72"></path>
        <path
            d="M381.68 384.29C392.23 393.58 404.69 404.67 416.84 415.59 429.52 425.15 442.06 436.38 450.88 448.49 459.59 465.94 446.08 480.6 429.44 468.47 417.6 455.41 405.9 438.06 395.94 421.54 385.32 405.49 375.57 390.61 368.96 380.01 360.56 367.02 367.65 369.91 381.68 384.29"
            stroke-dasharray="0 0" transform="rotate(127.83333333333333, 400, 400)" opacity="0.74"></path>
        <path
            d="M383.2 386.92C393.13 395.75 404.94 406.39 416.44 416.9 428.37 426.24 440.11 437.06 448.32 448.41 456.53 464.61 444.39 477.35 428.9 465.84 417.82 453.7 406.69 437.52 397.15 422.04 387.05 406.89 377.78 392.81 371.52 382.81 363.59 370.6 370.04 373.42 383.2 386.92"
            stroke-dasharray="0 0" transform="rotate(131.11111111111111, 400, 400)" opacity="0.75"></path>
        <path
            d="M384.78 389.55C394.08 397.89 405.22 408.05 416.05 418.13 427.22 427.2 438.15 437.55 445.76 448.14 453.45 463.1 442.61 474.08 428.25 463.21 417.93 451.98 407.41 436.98 398.32 422.53 388.76 408.33 379.99 395.06 374.08 385.67 366.63 374.25 372.49 376.95 384.78 389.55"
            stroke-dasharray="0 0" transform="rotate(134.38888888888889, 400, 400)" opacity="0.77"></path>
        <path
            d="M386.42 392.18C395.09 400.03 405.53 409.67 415.66 419.26 426.06 428 436.19 437.86 443.2 447.68 450.37 461.43 440.74 470.79 427.5 460.58 417.93 450.24 408.04 436.4 399.43 423.01 390.44 409.78 382.19 397.36 376.64 388.59 369.68 377.94 374.99 380.48 386.42 392.18"
            stroke-dasharray="0 0" transform="rotate(137.66666666666666, 400, 400)" opacity="0.79"></path>
        <path
            d="M388.11 394.81C396.15 402.15 405.86 411.24 415.27 420.3 424.89 428.66 434.21 437.98 440.64 447.04 447.29 459.6 438.78 467.48 426.65 457.95 417.83 448.49 408.59 435.81 400.49 423.47 392.09 411.24 384.38 399.7 379.2 391.56 372.73 381.68 377.54 384.01 388.11 394.81"
            stroke-dasharray="0 0" transform="rotate(140.94444444444443, 400, 400)" opacity="0.81"></path>
        <path
            d="M389.84 397.44C397.24 404.25 406.21 412.75 414.89 421.25 423.72 429.18 432.23 437.92 438.08 446.21 444.19 457.6 436.73 464.15 425.69 455.32 417.63 446.72 409.06 435.19 401.51 423.92 393.71 412.7 386.55 402.07 381.76 394.56 375.8 385.45 380.13 387.54 389.84 397.44"
            stroke-dasharray="0 0" transform="rotate(144.2222222222222, 400, 400)" opacity="0.82"></path>
        <path
            d="M391.61 400.07C398.37 406.34 406.58 414.22 414.5 422.12 422.53 429.56 430.24 437.68 435.52 445.2 441.09 455.44 434.61 460.8 424.64 452.69 417.33 444.94 409.46 434.54 402.48 424.34 395.31 414.15 388.72 404.45 384.32 397.58 378.87 389.25 382.76 391.08 391.61 400.07"
            stroke-dasharray="0 0" transform="rotate(147.5, 400, 400)" opacity="0.84"></path>
        <path
            d="M393.41 402.7C405.64 413.38 423.4 430.5 432.96 444.02 441.55 457.52 436.63 461.73 423.5 450.06 410.37 435.74 394.59 413.05 386.88 400.61 378.31 388.17 381.18 389.61 393.41 402.7"
            stroke-dasharray="0 0" transform="rotate(150.77777777777777, 400, 400)" opacity="0.86"></path>
        <path
            d="M395.24 405.33C406.15 415.02 421.97 430.67 430.4 442.66 438.06 454.64 433.91 457.92 422.28 447.43 410.63 434.85 396.4 414.76 389.44 403.64 381.79 392.51 384.32 393.71 395.24 405.33"
            stroke-dasharray="0 0" transform="rotate(154.05555555555554, 400, 400)" opacity="0.88"></path>
        <path
            d="M397.09 407.96C406.68 416.62 420.53 430.68 427.84 441.14 434.57 451.59 431.12 454.07 420.97 444.8 410.81 433.92 398.18 416.44 392 406.65 385.28 396.86 387.48 397.82 397.09 407.96"
            stroke-dasharray="0 0" transform="rotate(157.33333333333331, 400, 400)" opacity="0.89"></path>
        <path
            d="M398.94 410.59C407.2 418.16 419.06 430.51 425.28 439.45 431.06 448.38 428.25 450.2 419.58 442.17 410.9 432.96 399.94 418.08 394.56 409.64 388.78 401.19 390.67 401.92 398.94 410.59"
            stroke-dasharray="0 0" transform="rotate(160.61111111111111, 400, 400)" opacity="0.91"></path>
        <path d="M400.8 413.23C412.91 430.55 393.08 405.76 400.8 413.23" stroke-dasharray="0 0"
            transform="rotate(163.88888888888889, 400, 400)" opacity="0.93"></path>
        <path d="M402.66 415.86C412.38 429.86 396.45 409.95 402.66 415.86" stroke-dasharray="0 0"
            transform="rotate(167.16666666666666, 400, 400)" opacity="0.95"></path>
        <path d="M404.5 418.49C411.82 429.1 399.82 414.11 404.5 418.49" stroke-dasharray="0 0"
            transform="rotate(170.44444444444443, 400, 400)" opacity="0.96"></path>
        <path d="M406.33 421.12C411.22 428.27 403.19 418.24 406.33 421.12" stroke-dasharray="0 0"
            transform="rotate(173.72222222222223, 400, 400)" opacity="0.98"></path>
    </g>
</svg>