<svg xmlns="http://www.w3.org/2000/svg" version="1.1" xmlns:xlink="http://www.w3.org/1999/xlink"
    xmlns:svgjs="http://svgjs.dev/svgjs" viewBox="0 0 2000 2000">
    <defs>
        <linearGradient x1="50%" y1="0%" x2="50%" y2="100%" id="ccchaos-grad">
            <stop stop-color="hsl(0, 0%, 0%)" stop-opacity="1" offset="0%"></stop>
            <stop stop-color="hsl(0, 0%, 73%)" stop-opacity="1" offset="100%"></stop>
        </linearGradient>
    </defs>
    <g stroke-width="1" stroke="url(#ccchaos-grad)" fill="none" stroke-linecap="round">
        <path
            d="M392.59 267.9Q410.85 265.85 429.42 262.3 447.94 257.79 466.02 252.88 483.28 248.22 499.36 244.45 513.92 242.15 526.68 241.84 537.41 243.91 545.96 248.63 552.25 256.07 556.3 266.15 558.2 278.59 558.13 292.98 556.36 308.76 553.23 325.24 527.64 335.28 503.47 345.32 484.2 355.35 472.6 365.39 470.33 375.42 477.74 385.46 493.74 395.49 516.04 405.53 541.42 415.57 566.24 425.6 586.93 435.64 600.5 445.67 605 455.71 599.79 465.74 585.62 475.78 564.52 485.81 543.47 474.58 522.28 463.69 501.43 454.17 481.34 446.98 462.43 442.93 445.02 442.67 429.4 446.59 415.77 454.83 404.23 467.24 394.83 483.42 387.52 502.71 382.18 524.24 378.61 546.97 376.56 569.78 375.73 591.53 375.78 611.12 359.9 616.68 345.47 618.11 332.65 615.06 321.54 607.49 312.15 595.62 304.43 579.97 298.28 561.26 293.54 540.43 289.98 518.5 287.37 496.58 285.43 475.72 283.87 456.93 282.4 441.04 280.75 428.7 282.5 413.75 293.38 398.38 295.96 389.57 293.73 380.75 287 371.93 276.74 363.12 264.43 354.3 251.84 345.48 240.78 336.67 232.85 327.85 229.18 319.03 230.3 310.22 236.05 301.4 245.61 292.58 257.6 283.76 270.29 274.95 285.36 270.46 300.27 268.8 314.77 269.71 328.58 272.74 341.47 277.34 353.19 282.86 363.57 288.61 372.46 293.91 392 278.01 392.59 267.9"
            stroke-dasharray="0 0" transform="rotate(0, 400, 400)" opacity="0.05"></path>
        <path
            d="M398.18 271.02Q416.21 268.96 434.35 265.44 452.24 260.95 469.53 256.06 485.86 251.37 500.9 247.48 514.37 244.96 526.01 244.33 542.07 251.45 551.74 266.35 552.98 278.13 552.41 291.9 550.31 307.17 547.02 323.31 521.98 333.08 498.75 342.85 480.55 352.63 469.91 362.4 468.3 372.17 475.94 381.94 491.78 391.72 513.62 401.49 538.43 411.26 562.76 421.04 583.23 430.81 597.01 440.58 602.19 450.36 598.03 460.13 585.13 469.9 565.27 479.68 544.83 468.72 524.14 458.36 503.62 449.56 483.69 443.19 464.76 439.98 447.16 440.51 431.16 445.08 416.99 453.8 404.79 466.48 394.62 482.71 386.48 501.84 380.27 523.04 375.86 545.31 373.02 567.61 371.51 588.85 371.02 607.99 356.13 613.44 342.75 614.93 331.01 612.13 320.94 604.98 312.54 593.69 305.73 578.71 300.38 560.71 296.32 540.56 293.33 519.2 291.15 497.68 289.52 477 288.16 458.12 286.8 441.86 285.18 428.89 286.62 412.63 296.68 396.98 298.77 388.33 296.17 379.68 289.24 371.04 278.94 362.39 266.71 353.74 254.24 345.09 243.26 336.44 235.29 327.79 231.45 319.14 232.26 310.49 237.61 301.84 246.76 293.2 258.44 284.55 271.03 275.9 285.93 272.3 300.75 271.39 315.25 272.88 329.16 276.32 342.23 281.15 354.25 286.74 365.02 292.44 374.39 297.6 393.12 300.38 399.21 290.98 398.6 276.48 398.18 271.02"
            stroke-dasharray="0 0" transform="rotate(0, 400, 400)" opacity="0.07"></path>
        <path
            d="M403.79 274.15Q421.48 272.07 439.08 268.58 456.27 264.13 472.7 259.26 488.05 254.54 502.03 250.54 514.39 247.83 524.93 246.88 538.98 253.01 546.95 266.66 547.57 277.76 546.56 290.89 544.18 305.61 540.77 321.35 516.35 330.86 494.09 340.38 476.97 349.89 467.27 359.4 466.29 368.91 474.16 378.42 489.84 387.94 511.22 397.45 535.45 406.96 559.28 416.47 579.53 425.98 593.49 435.5 599.29 445.01 596.16 454.52 584.51 464.03 565.91 473.55 546.13 462.94 525.96 453.16 505.82 445.11 486.12 439.56 467.24 437.19 449.5 438.47 433.2 443.68 418.56 452.84 405.75 465.76 394.86 482.02 385.92 500.97 378.87 521.83 373.61 543.65 369.96 565.43 367.72 586.16 366.61 604.87 352.77 610.21 340.47 611.75 329.8 609.19 320.76 602.45 313.32 591.71 307.38 577.39 302.8 560.1 299.38 540.63 296.89 519.86 295.1 498.77 293.75 478.31 292.55 459.4 291.26 442.85 289.64 429.3 290.73 411.81 299.94 395.91 301.53 387.43 298.58 378.94 291.46 370.45 281.14 361.97 268.99 353.48 256.64 344.99 245.74 336.51 237.75 328.02 233.74 319.53 234.23 311.05 239.18 302.56 247.91 294.08 259.26 285.59 271.7 277.11 286.41 274.36 301.12 274.17 315.58 276.21 329.55 280.01 342.79 285.03 355.08 290.67 366.21 296.3 376.03 301.29 396.75 303.47 404.2 293.89 404.09 279.54 403.79 274.15"
            stroke-dasharray="0 0" transform="rotate(0, 400, 400)" opacity="0.09"></path>
        <path
            d="M409.33 277.26Q426.57 275.18 443.55 271.72 459.95 267.31 475.46 262.46 489.8 257.72 502.72 253.63 522.48 250.51 536.55 253.4 540.18 259 541.96 267.06 542.04 277.47 540.64 289.95 538.04 304.09 534.56 319.37 510.82 328.63 489.54 337.88 473.47 347.14 464.68 356.4 464.31 365.65 472.39 374.91 487.89 384.16 508.82 393.42 532.47 402.67 555.81 411.93 575.82 421.19 589.92 430.44 596.31 439.7 594.16 448.95 583.74 458.21 566.4 467.47 547.29 457.28 527.68 448.13 507.98 440.84 488.56 436.13 469.79 434.58 451.99 436.59 435.46 442.39 420.44 451.96 407.09 465.09 395.54 481.35 385.84 500.12 377.98 520.62 371.88 541.98 367.42 563.25 364.41 583.48 362.62 601.76 349.86 606.98 338.66 608.57 329.05 606.24 321.02 599.9 314.51 589.71 309.39 576.04 305.51 559.45 302.67 540.66 300.65 520.49 299.2 499.86 298.06 479.67 297 460.78 295.75 443.99 294.1 429.95 291.84 419.13 288.8 411.84 297.76 403.51 303.14 395.18 304.26 386.85 300.95 378.52 293.66 370.19 283.32 361.86 271.26 353.53 259.04 345.2 248.23 336.87 240.22 328.54 238.41 311.87 249.08 295.21 260.07 286.88 272.35 278.55 286.84 276.64 301.4 277.12 315.8 279.65 329.8 283.78 343.16 288.96 355.67 294.62 367.13 300.15 377.37 304.97 400.07 306.55 408.96 296.78 409.47 282.58 409.33 277.26"
            stroke-dasharray="0 0" transform="rotate(0, 400, 400)" opacity="0.10"></path>
        <path
            d="M414.78 280.38Q431.47 278.3 447.73 274.87 463.28 270.5 477.83 265.68 491.13 260.93 502.96 256.76 520.62 253.12 532.77 255.18 536 268.74 534.64 289.09 531.87 302.61 528.38 317.4 505.35 326.4 485.08 335.41 470.06 344.41 462.16 353.41 462.35 362.42 470.62 371.42 485.95 380.42 506.42 389.42 529.5 398.43 552.34 407.43 572.09 416.43 586.32 425.44 593.26 434.44 592.04 443.44 582.82 452.45 566.74 461.45 548.33 451.75 529.32 443.27 510.1 436.77 491.02 432.88 472.42 432.13 454.64 434.85 437.96 441.21 422.61 451.16 408.8 464.47 396.65 480.7 386.25 499.25 377.61 519.4 370.69 540.3 365.4 561.06 361.59 580.79 359.09 598.63 347.43 603.74 337.32 605.38 328.76 603.27 321.71 597.32 316.09 587.66 311.75 574.63 308.53 558.73 306.22 540.62 304.6 521.08 303.44 500.94 302.49 481.05 301.5 462.24 300.27 445.28 298.56 430.81 296.21 419.31 293.05 411.14 304.2 394.78 303.3 378.41 295.85 370.23 285.5 362.05 273.54 353.87 261.44 345.69 250.72 337.51 242.69 329.33 240.38 312.98 250.26 296.62 260.89 288.44 272.95 280.26 287.2 279.13 301.59 280.24 315.9 283.23 329.89 287.64 343.34 292.95 356.04 298.6 367.79 304.01 378.42 308.65 395.04 312.77 407.42 311.1 413.82 289.53 414.78 280.38"
            stroke-dasharray="0 0" transform="rotate(0, 400, 400)" opacity="0.12"></path>
        <path
            d="M420.05 283.51Q436.09 281.42 451.56 278.02 466.2 273.7 479.75 268.92 492 264.15 502.75 259.91 524.6 258.63 531.4 268.21 530.57 277.24 528.57 288.34 525.68 301.22 522.19 315.47 499.95 324.22 480.69 332.97 466.71 341.72 459.68 350.48 460.43 359.23 468.87 367.98 484 376.73 504.02 385.49 526.53 394.24 548.87 402.99 568.36 411.75 582.68 420.5 590.12 429.25 589.81 438.01 581.77 446.76 566.96 455.51 549.26 446.35 530.88 438.58 512.17 432.88 493.47 429.82 475.11 429.84 457.41 433.24 440.64 440.13 425.05 450.43 410.84 463.88 398.16 480.06 387.11 498.4 377.74 518.17 370.03 538.61 363.93 558.86 359.32 578.1 356.06 595.51 337.24 600.4 322.85 594.71 318.06 585.58 314.44 573.17 311.82 557.95 309.99 540.54 308.73 521.62 307.81 501.99 306.99 482.45 306.06 463.77 304.8 446.7 303.03 431.86 300.56 419.76 297.27 410.76 307.35 394.69 305.61 378.62 298.01 370.59 287.66 362.55 275.8 354.52 263.84 346.49 253.22 338.45 245.18 330.42 242.37 314.35 251.46 298.29 261.69 290.25 273.5 282.22 287.5 281.84 301.69 283.53 315.87 286.93 329.82 291.59 343.33 296.99 356.19 302.59 368.19 307.88 379.17 312.32 396.8 316.02 410.35 314.03 418.54 292.55 420.05 283.51"
            stroke-dasharray="0 0" transform="rotate(0, 400, 400)" opacity="0.14"></path>
        <path
            d="M425.05 286.62Q440.36 284.53 454.99 281.17 468.67 276.9 481.21 272.16 492.4 267.4 502.09 263.09 522.74 268.99 522.47 287.69 519.5 299.9 516.08 313.56 494.66 322.07 476.42 330.58 463.46 339.09 457.25 347.6 458.52 356.1 467.11 364.61 482.05 373.12 501.61 381.63 523.57 390.14 545.4 398.65 564.62 407.16 579 415.66 586.92 424.17 587.46 432.68 580.56 441.19 567.01 449.7 550.03 441.13 532.3 434.1 514.15 429.2 495.88 426.95 477.82 427.73 460.27 431.78 443.49 439.15 427.73 449.76 413.2 463.33 400.06 479.45 388.43 497.54 378.38 516.94 369.92 536.91 363.02 556.66 357.61 575.41 353.57 592.4 336.89 597.29 324.42 592.09 320.41 583.45 317.46 571.66 315.38 557.12 313.97 540.39 313.01 522.12 312.28 503.02 311.56 483.85 310.65 465.36 309.34 448.24 307.47 433.11 304.87 420.47 301.44 410.71 310.45 394.93 307.9 379.14 300.16 371.25 289.82 363.35 278.06 355.46 266.25 347.57 255.72 339.68 247.68 331.78 244.38 316 252.69 300.21 262.5 292.32 274.03 284.43 287.76 284.75 301.73 286.98 315.75 290.75 329.63 295.61 343.15 301.06 356.12 306.61 368.34 311.74 379.63 315.98 398.19 319.25 412.89 316.94 422.95 295.57 425.05 286.62"
            stroke-dasharray="0 0" transform="rotate(0, 400, 400)" opacity="0.16"></path>
        <path
            d="M429.76 289.74Q457.98 284.33 482.18 275.41 500.97 266.3 513.53 260.51 519.75 261.06 520.24 269.82 516.35 287.16 510.02 311.72 472.24 328.26 454.88 344.8 465.37 361.33 499.21 377.87 541.95 394.41 575.29 410.95 584.99 427.48 566.89 444.02 533.59 429.82 498.24 424.28 463.18 430.45 430.61 449.17 402.32 478.84 379.5 515.7 362.68 554.45 351.65 589.27 336.39 595.8 326.42 589.43 320.79 570.1 318.14 540.18 316.84 504.02 315.25 467 311.88 434.53 305.57 410.98 315.44 395.47 310.15 379.96 291.96 364.44 268.65 348.93 250.18 333.42 244.47 317.91 253.94 302.4 274.54 286.89 301.69 290.58 329.3 299.69 355.84 310.63 379.8 319.62 399.84 323.39 415.03 319.84 427.34 299.03 429.76 289.74"
            stroke-dasharray="0 0" transform="rotate(0, 400, 400)" opacity="0.17"></path>
        <path
            d="M434.1 292.87Q460.51 287.5 482.66 278.68 507.14 266.38 514.46 270.83 510.2 286.77 504 309.97 468.15 326.04 452.56 342.1 463.64 358.17 496.82 374.24 538.5 390.3 571.55 406.37 582.41 422.43 566.62 438.49 534.77 425.74 500.55 421.79 466.16 429.25 433.69 448.63 404.92 478.25 381.1 514.45 362.91 552.23 350.33 586.15 337.13 592.59 328.83 586.75 324.42 568.48 322.49 539.91 321.49 504.97 319.87 468.68 316.27 436.11 309.64 411.55 318.37 396.31 312.37 381.07 294.1 365.82 271.06 350.58 252.71 335.33 246.59 320.09 255.2 304.84 275.02 289.6 301.59 294.34 328.84 303.85 355.36 314.67 379.68 323.25 400.47 326.57 416.75 322.73 431.02 302.03 434.1 292.87"
            stroke-dasharray="0 0" transform="rotate(0, 400, 400)" opacity="0.19"></path>
        <path
            d="M438.01 295.98Q462.53 290.66 482.63 281.95 503.83 277.82 498.08 308.31 464.17 323.92 450.29 339.52 461.9 355.13 494.42 370.74 535.05 386.34 567.77 401.95 579.71 417.55 566.16 433.15 535.76 421.9 502.74 419.52 469.13 428.18 436.91 448.16 407.81 477.68 383.14 513.2 363.69 550.01 349.62 583.04 338.38 589.39 331.64 584.06 328.3 566.82 326.98 539.57 326.19 505.89 324.47 470.39 320.6 437.85 313.65 412.43 321.24 397.44 314.56 382.46 296.22 367.47 273.46 352.48 255.24 337.5 248.73 322.51 256.51 307.53 275.51 292.54 301.45 298.22 328.29 308.05 354.7 318.7 379.28 326.85 400.74 329.72 418.03 325.6 430.5 314.06 438.01 295.98 438.01 295.98 438.01 295.98"
            stroke-dasharray="0 0" transform="rotate(0, 400, 400)" opacity="0.21"></path>
        <path
            d="M441.46 299.1Q464.04 293.83 482.09 285.25 498.84 279.17 492.24 306.77 460.3 321.92 448.07 337.08 460.17 352.24 492.02 367.39 531.6 382.55 563.97 397.7 576.9 412.86 565.52 428.01 536.6 418.29 504.83 417.43 472.09 427.24 440.25 447.74 410.98 477.1 385.61 511.92 365.02 547.77 349.53 579.91 340.16 586.18 334.84 581.33 332.45 565.1 331.62 539.16 330.94 506.75 329.06 472.11 324.88 439.72 317.59 413.58 324.05 398.85 316.71 384.11 298.33 369.38 275.86 354.65 257.78 339.92 250.91 325.18 257.85 310.45 275.99 295.72 301.26 302.24 327.63 312.31 353.85 322.74 378.62 330.43 400.65 332.86 418.88 328.46 432.58 316.92 441.46 299.1 441.46 299.1 441.46 299.1"
            stroke-dasharray="0 0" transform="rotate(0, 400, 400)" opacity="0.23"></path>
        <path
            d="M444.4 302.23Q465 297.01 481.05 288.55 493.72 280.63 486.48 305.37 456.53 320.08 445.9 334.8 458.45 349.51 489.62 364.23 528.15 378.94 560.13 393.66 573.98 408.37 564.71 423.08 537.27 414.91 506.8 415.54 475.02 426.43 443.68 447.38 414.38 476.54 388.47 510.65 366.88 545.53 350.07 576.79 342.43 582.97 338.4 578.58 336.81 563.33 336.36 538.69 335.7 507.56 333.62 473.83 329.1 441.7 321.47 414.98 326.8 400.5 318.83 386.02 300.43 371.54 278.26 357.06 260.33 342.58 253.11 328.09 259.22 313.61 276.46 299.13 301.03 306.39 326.87 316.61 352.85 326.77 377.69 334 400.2 335.97 419.28 331.31 434.15 319.78 444.4 302.23 444.4 302.23 444.4 302.23"
            stroke-dasharray="0 0" transform="rotate(0, 400, 400)" opacity="0.24"></path>
        <path
            d="M446.79 305.34Q465.4 300.18 479.5 291.85 488.49 282.21 480.84 304.1 452.87 318.39 443.78 332.68 456.72 346.96 487.2 361.25 524.71 375.54 556.26 389.82 570.95 404.11 563.71 418.4 537.74 411.78 508.61 413.84 477.88 425.74 447.16 447.08 417.99 475.99 391.69 509.36 369.24 543.28 351.21 573.68 345.18 579.75 342.28 575.81 341.37 561.51 341.18 538.14 340.47 508.3 338.12 475.55 333.24 443.79 325.26 416.65 329.48 402.41 320.91 388.17 302.52 373.93 280.66 359.7 262.88 345.46 255.34 331.22 260.64 316.98 276.95 302.75 300.79 310.65 326.05 320.94 351.69 330.8 376.53 337.53 399.4 339.05 419.24 334.14 435.21 322.63 446.79 305.34 446.79 305.34 446.79 305.34"
            stroke-dasharray="0 0" transform="rotate(0, 400, 400)" opacity="0.26"></path>
        <path
            d="M448.61 308.46Q465.24 303.37 477.46 295.17 483.16 283.89 475.32 303.01 449.32 316.88 441.71 330.75 455 344.62 484.8 358.49 521.27 372.36 552.37 386.23 567.82 400.1 562.51 413.97 538.02 408.9 510.26 412.35 480.64 425.17 450.65 446.82 421.75 475.44 395.22 508.06 372.07 541.03 352.96 570.55 347.24 568.09 346.06 537.52 345.22 508.98 342.55 477.26 337.3 445.96 328.96 418.54 332.09 404.54 322.97 390.55 304.6 376.55 283.06 362.55 265.45 348.56 257.6 334.56 262.1 320.57 277.46 306.57 300.53 315 325.16 325.3 350.39 334.8 375.14 341.03 398.27 342.11 418.76 336.96 435.74 325.48 448.61 308.46 448.61 308.46 448.61 308.46"
            stroke-dasharray="0 0" transform="rotate(0, 400, 400)" opacity="0.28"></path>
        <path
            d="M449.82 311.59Q464.51 306.56 474.93 298.51 477.75 285.71 469.9 302.1 445.87 315.56 439.69 329.03 453.29 342.49 482.4 355.95 517.84 369.41 548.45 382.87 564.57 396.33 561.13 409.79 538.11 406.26 511.75 411.03 483.3 424.7 454.15 446.61 425.65 474.9 399.05 506.75 375.35 538.76 355.29 567.43 351.49 565.51 350.99 536.81 349.94 509.58 346.93 478.93 341.27 448.2 332.58 420.63 334.64 406.88 324.99 393.12 306.67 379.37 285.46 365.62 268.04 351.86 259.9 338.11 263.6 324.36 277.98 310.6 300.26 319.46 324.21 329.69 348.97 338.79 373.52 344.51 396.82 345.15 417.85 339.77 435.74 328.32 449.82 311.59 449.82 311.59 449.82 311.59"
            stroke-dasharray="0 0" transform="rotate(0, 400, 400)" opacity="0.30"></path>
        <path
            d="M450.43 314.71Q463.23 309.75 471.95 301.85 472.29 287.64 464.62 301.39 442.54 314.45 437.71 327.52 451.58 340.58 480 353.65 514.42 366.71 544.51 379.78 561.23 392.84 559.55 405.91 537.98 403.89 513.02 409.91 485.8 424.35 457.58 446.44 429.62 474.36 403.1 505.43 379.03 536.49 358.17 564.31 355.98 562.91 355.92 536.04 354.6 510.11 351.2 480.58 345.14 450.5 336.1 422.92 337.11 409.41 326.98 395.89 308.73 382.38 287.86 368.86 270.63 355.35 262.22 341.83 265.15 328.32 278.54 314.81 300.01 323.98 323.24 334.07 347.45 342.75 371.73 347.95 395.08 348.16 416.53 342.56 435.21 331.16 450.43 314.71 450.43 314.71 450.43 314.71"
            stroke-dasharray="0 0" transform="rotate(0, 400, 400)" opacity="0.31"></path>
        <path
            d="M450.41 317.82Q461.4 312.94 468.54 305.2 466.8 289.69 459.49 300.87 439.31 313.56 435.78 326.24 449.89 338.92 477.61 351.6 511.02 364.28 540.56 376.96 557.79 389.64 557.78 402.32 537.63 401.78 514.09 408.98 488.15 424.11 460.95 446.32 433.64 473.82 407.35 504.09 383.06 534.22 361.56 561.19 360.68 560.28 360.83 535.19 359.2 510.55 355.38 482.17 348.9 452.84 339.52 425.38 339.52 412.11 328.94 398.83 310.79 385.56 290.27 372.28 273.24 359.01 264.57 345.73 266.75 332.45 279.14 319.18 299.77 328.58 322.24 338.47 345.85 346.68 369.76 351.36 393.05 351.14 414.81 345.34 434.16 333.98 450.41 317.82 450.41 317.82 450.41 317.82"
            stroke-dasharray="0 0" transform="rotate(0, 400, 400)" opacity="0.33"></path>
        <path
            d="M449.77 320.95Q463.05 308.02 466.63 292.06 460.55 288.62 454.48 300.59 436.19 312.9 433.89 325.2 448.19 337.51 475.21 349.81 507.6 362.11 536.57 374.42 554.24 386.72 555.82 399.02 537.07 399.91 514.95 408.23 490.32 423.97 464.2 446.23 437.66 473.27 411.74 502.75 387.4 531.93 365.43 558.07 365.55 557.63 365.71 534.25 363.7 510.9 359.44 483.7 352.55 455.19 342.83 427.98 341.85 414.95 330.86 401.92 312.83 388.88 292.67 375.85 275.86 362.81 266.96 349.78 268.39 336.74 279.77 323.71 299.55 333.24 321.23 342.86 344.17 350.58 367.63 354.73 390.77 354.1 412.7 348.1 432.61 336.81 449.77 320.95 449.77 320.95 449.77 320.95"
            stroke-dasharray="0 0" transform="rotate(0, 400, 400)" opacity="0.35"></path>
        <path
            d="M448.51 324.07Q459.03 311.37 460.86 295.51 454.85 290.83 449.64 300.53 433.19 312.47 432.05 324.41 446.49 336.35 472.81 348.29 504.2 360.23 532.57 372.17 550.61 384.11 553.65 396.05 536.28 398.31 515.57 407.65 492.28 423.92 467.32 446.17 441.65 472.73 416.24 501.39 392.01 529.63 369.73 554.95 370.56 554.94 370.52 533.24 368.09 511.16 363.38 485.17 356.07 457.55 346.04 430.71 344.12 417.92 332.75 405.13 314.86 392.34 295.07 379.54 278.48 366.75 269.38 353.96 270.1 341.16 280.47 328.37 299.38 337.94 320.22 347.23 342.44 354.45 365.37 358.06 388.25 357.03 410.25 350.85 430.57 339.63 448.51 324.07 448.51 324.07 448.51 324.07"
            stroke-dasharray="0 0" transform="rotate(0, 400, 400)" opacity="0.37"></path>
        <path
            d="M446.67 327.18Q454.67 314.72 455.02 299 449.24 293.18 444.95 300.71 430.3 312.3 430.24 323.88 444.8 335.47 470.4 347.05 500.8 358.64 528.55 370.22 546.88 381.81 551.3 393.39 535.25 396.97 515.94 407.25 494.01 423.97 470.25 446.15 445.54 472.19 420.77 500.02 396.8 527.34 374.38 551.83 375.65 552.24 375.23 532.14 372.35 511.33 367.18 486.56 359.46 459.89 349.13 433.54 346.31 421 334.61 408.45 316.89 395.9 297.47 383.35 281.12 370.8 271.83 358.25 271.86 345.7 281.22 333.15 299.26 342.67 319.24 351.58 340.69 358.26 363.02 361.35 385.53 359.92 407.47 353.57 428.09 342.44 446.67 327.18 446.67 327.18 446.67 327.18"
            stroke-dasharray="0 0" transform="rotate(0, 400, 400)" opacity="0.38"></path>
        <path
            d="M444.24 330.31Q449.99 318.1 449.13 302.54 435.62 304.04 428.48 323.62 443.1 334.86 467.99 346.1 497.39 357.33 524.5 368.57 543.05 379.81 548.75 391.05 534 395.87 516.07 407.01 495.51 424.09 473 446.14 449.34 471.63 425.32 498.63 401.75 525.03 379.36 548.71 380.8 549.49 379.83 530.96 376.47 511.4 370.83 487.86 362.72 462.2 352.11 436.44 348.42 424.14 336.42 411.84 318.89 399.54 299.87 387.24 283.77 374.94 274.31 362.64 273.69 350.34 282.03 338.04 299.18 347.42 318.27 355.91 338.91 362.04 360.58 364.6 382.63 362.79 404.39 356.28 425.16 345.25 444.24 330.31 444.24 330.31 444.24 330.31"
            stroke-dasharray="0 0" transform="rotate(0, 400, 400)" opacity="0.40"></path>
        <path
            d="M441.27 333.43Q445.06 321.48 443.23 306.13 431.59 305.53 426.76 323.64 441.41 334.54 465.59 345.44 494.01 356.33 520.46 367.24 539.15 378.14 546.01 389.04 532.51 395.03 515.93 406.94 496.74 424.31 475.52 446.17 452.97 471.07 429.82 497.23 406.8 522.71 384.61 545.59 385.95 546.73 384.28 529.7 380.43 511.36 374.32 489.07 365.83 464.48 354.96 439.4 350.47 427.35 338.22 415.3 320.89 403.25 302.27 391.21 286.43 379.16 276.83 367.11 275.57 355.06 282.92 343.01 299.18 352.17 317.37 360.2 337.16 365.76 358.08 367.79 379.59 365.62 401.06 358.98 421.83 348.05 441.27 333.43 441.27 333.43 441.27 333.43"
            stroke-dasharray="0 0" transform="rotate(0, 400, 400)" opacity="0.42"></path>
        <path
            d="M437.8 336.54Q439.9 324.88 437.35 309.76 427.68 307.23 425.08 323.93 439.73 334.5 463.19 345.07 490.63 355.64 516.39 366.21 535.17 376.78 543.09 387.35 530.79 394.44 515.53 407.02 497.7 424.6 477.79 446.22 456.41 470.51 434.22 495.82 411.87 520.39 390.02 542.47 391.05 543.94 388.57 528.35 384.21 511.22 377.64 490.18 368.79 466.69 357.7 442.39 352.44 430.6 339.98 418.8 322.88 407.01 304.67 395.22 289.1 383.42 279.38 371.63 277.52 359.84 283.89 348.05 299.25 356.92 316.53 364.44 335.43 369.42 355.56 370.94 376.44 368.42 397.5 361.66 418.16 350.84 437.8 336.54 437.8 336.54 437.8 336.54"
            stroke-dasharray="0 0" transform="rotate(0, 400, 400)" opacity="0.44"></path>
        <path
            d="M433.85 339.67Q434.55 328.28 431.53 313.43 423.9 309.15 423.45 324.5 438.05 334.75 460.79 345 487.25 355.25 512.31 365.49 531.1 375.74 539.98 385.99 528.84 394.07 514.87 407.24 498.37 424.96 479.79 446.28 459.63 469.93 438.47 494.4 416.92 518.06 395.57 539.35 396.08 541.13 392.68 526.92 387.8 510.96 380.79 491.16 371.59 468.81 360.3 445.37 354.34 433.84 341.71 422.31 324.86 410.78 307.07 399.26 291.79 387.73 281.97 376.2 289.47 363.16 315.75 368.63 333.74 373.03 353.03 374.05 373.2 371.19 393.76 364.32 414.16 353.64 433.85 339.67 433.85 339.67 433.85 339.67"
            stroke-dasharray="0 0" transform="rotate(0, 400, 400)" opacity="0.45"></path>
        <path
            d="M429.49 342.79Q429.06 331.7 425.78 317.14 420.26 311.27 421.84 325.36 436.37 335.3 458.4 345.23 483.9 355.16 508.24 365.1 526.97 375.03 536.68 384.96 526.65 393.95 513.92 407.61 498.75 425.38 481.5 446.36 462.6 469.34 442.55 492.95 421.9 515.72 401.18 536.23 400.98 538.28 396.57 525.4 391.19 510.59 383.75 492.03 374.24 470.85 362.78 448.35 356.17 437.09 343.41 425.83 326.85 414.56 309.48 403.3 294.49 392.04 284.6 380.78 290.64 367.93 315.07 372.76 332.12 376.57 350.52 377.1 369.91 373.93 389.86 366.97 409.89 356.42 429.49 342.79 429.49 342.79 429.49 342.79"
            stroke-dasharray="0 0" transform="rotate(0, 400, 400)" opacity="0.47"></path>
        <path
            d="M424.78 345.9Q423.49 335.12 420.16 320.88 416.77 313.59 420.28 326.5 434.69 336.13 455.99 345.75 480.54 355.38 504.14 365 522.76 374.63 533.22 384.25 524.23 394.05 512.7 408.11 498.82 425.87 482.88 446.46 465.26 468.75 446.38 491.5 426.71 513.38 406.75 533.11 405.7 535.42 400.23 523.81 394.35 510.11 386.51 492.78 376.73 472.79 365.13 451.28 357.92 440.29 345.08 429.3 328.81 418.32 311.88 407.33 297.2 396.34 287.26 385.35 291.9 372.67 314.5 376.81 330.59 380.04 348.07 380.09 366.63 376.63 385.89 369.59 405.42 359.19 424.78 345.9 424.78 345.9 424.78 345.9"
            stroke-dasharray="0 0" transform="rotate(0, 400, 400)" opacity="0.49"></path>
        <path
            d="M419.74 349.03Q417.86 338.56 414.67 324.67 413.42 316.13 418.75 327.93 433.02 337.25 453.59 346.57 477.19 355.89 500.03 365.21 518.48 374.53 529.58 383.85 521.58 394.36 511.2 408.74 498.58 426.41 483.95 446.55 467.62 468.13 449.95 490.02 431.35 511.02 412.26 529.99 410.22 532.52 403.66 522.12 397.3 509.5 389.08 493.38 379.05 474.59 367.34 454.13 359.59 443.43 346.71 432.72 330.76 422.02 314.29 411.31 299.92 400.61 289.96 389.9 293.25 377.39 314.04 380.8 329.16 383.45 345.68 383.04 363.34 379.3 381.83 372.2 400.76 361.97 419.74 349.03 419.74 349.03 419.74 349.03"
            stroke-dasharray="0 0" transform="rotate(0, 400, 400)" opacity="0.51"></path>
        <path
            d="M414.46 352.15Q412.24 342 409.36 328.49 410.23 318.86 417.25 329.63 431.34 338.65 451.19 347.68 473.85 356.7 495.93 365.72 514.14 374.74 525.77 383.76 518.71 394.88 509.42 409.48 498.02 427 484.67 446.65 469.63 467.51 453.2 488.53 435.74 508.66 417.62 526.87 414.49 529.6 406.81 520.35 400 508.78 391.44 493.85 381.2 476.27 369.43 456.91 361.2 446.49 348.32 436.07 332.71 425.65 316.69 415.23 302.65 404.82 292.69 394.4 294.69 382.03 313.71 384.69 327.86 386.77 343.41 385.92 360.13 381.93 377.77 374.8 396 364.74 414.46 352.15 414.46 352.15 414.46 352.15"
            stroke-dasharray="0 0" transform="rotate(0, 400, 400)" opacity="0.53"></path>
        <path
            d="M409.03 355.26Q406.67 345.45 404.25 332.34 407.2 321.79 415.78 331.6 429.65 340.33 448.78 349.06 470.5 357.79 491.81 366.52 509.74 375.25 521.81 383.98 515.62 395.6 507.37 410.33 497.13 427.63 485.03 446.76 471.27 466.87 456.1 487.03 439.82 506.3 422.74 523.75 418.47 526.66 409.69 518.49 402.45 507.93 393.59 494.17 383.18 477.8 371.38 459.57 362.74 449.44 349.9 439.32 334.64 429.19 319.08 419.07 305.39 408.95 295.45 398.82 296.24 386.61 313.53 388.5 326.7 390.02 341.25 388.75 357 384.52 373.74 377.37 391.18 367.49 409.03 355.26 409.03 355.26 409.03 355.26"
            stroke-dasharray="0 0" transform="rotate(0, 400, 400)" opacity="0.54"></path>
        <path
            d="M403.46 358.39Q400.36 339.23 400.76 323.7 405.3 322.37 414.35 333.85 427.98 342.29 446.38 350.72 467.17 359.16 487.69 367.59 505.28 376.03 517.68 384.47 512.31 396.5 505.05 411.28 495.92 428.29 485.03 446.86 472.53 466.21 458.63 485.51 443.56 503.92 427.6 520.63 422.13 523.69 412.27 516.55 404.65 506.96 395.52 494.33 384.99 479.16 373.19 462.09 364.2 452.27 351.44 442.45 336.56 432.63 321.48 422.81 308.14 412.99 298.26 403.17 297.9 391.1 313.49 392.21 325.7 393.19 339.25 391.52 354 387.08 369.78 379.92 386.35 370.25 403.46 358.39 403.46 358.39 403.46 358.39"
            stroke-dasharray="0 0" transform="rotate(0, 400, 400)" opacity="0.56"></path>
        <path
            d="M397.85 361.51Q395.62 342.97 397.13 327.65 402.86 325.59 412.95 336.36 426.3 344.5 443.98 352.65 463.85 360.8 483.57 368.95 500.78 377.1 513.42 385.25 508.8 397.57 502.46 412.32 494.39 428.99 484.66 446.96 473.39 465.53 460.75 483.97 446.91 501.53 432.12 517.51 425.45 520.7 414.55 514.52 406.58 505.86 397.24 494.34 386.63 480.36 374.88 464.46 365.6 454.95 352.96 445.44 338.48 435.93 323.89 426.42 310.91 416.91 301.1 407.41 299.67 395.48 313.62 395.81 324.88 396.27 337.42 394.22 351.15 389.6 365.93 382.47 381.57 373 397.85 361.51 397.85 361.51 397.85 361.51"
            stroke-dasharray="0 0" transform="rotate(0, 400, 400)" opacity="0.58"></path>
        <path
            d="M392.29 364.62Q390.52 356.36 390.38 344.06 393.76 331.7 402.28 323.39 411.57 339.11 441.57 354.84 479.45 370.56 509.02 386.28 499.6 413.45 483.91 447.05 462.42 482.42 436.23 514.39 429.05 519.14 416.52 512.41 398.74 494.19 376.44 466.66 354.46 448.28 326.29 429.89 308.95 405.4 335.8 396.86 362.26 384.98 392.29 364.62 392.29 364.62 392.29 364.62"
            stroke-dasharray="0 0" transform="rotate(0, 400, 400)" opacity="0.60"></path>
        <path
            d="M386.8 367.75Q385.56 359.82 386.3 348.03 390.64 335.85 399.9 326.97 410.24 342.12 439.18 357.27 475.34 372.42 504.47 387.56 496.49 414.64 482.79 447.12 463.65 480.85 439.91 511.27 431.55 515.97 418.17 510.21 400.03 493.86 377.85 468.66 355.92 450.94 328.7 433.21 310.66 409.08 334.38 399.45 358.77 387.48 386.8 367.75 386.8 367.75 386.8 367.75"
            stroke-dasharray="0 0" transform="rotate(0, 400, 400)" opacity="0.61"></path>
        <path
            d="M381.47 370.87Q380.89 363.28 382.55 352 387.8 340.08 397.71 330.78 408.92 345.35 436.78 359.93 471.23 374.51 499.81 389.08 493.13 415.9 481.29 447.19 464.41 479.26 443.1 508.15 433.6 512.79 419.49 507.93 401.1 493.37 379.15 470.45 357.36 453.4 331.1 436.34 312.48 412.6 333.22 401.96 355.53 389.96 381.47 370.87 381.47 370.87 381.47 370.87"
            stroke-dasharray="0 0" transform="rotate(0, 400, 400)" opacity="0.63"></path>
        <path
            d="M376.39 373.98Q376.54 366.74 379.11 356 385.21 344.4 395.69 334.8 407.62 348.8 434.38 362.81 467.12 376.81 495.03 390.81 489.54 417.2 479.42 447.24 464.69 477.65 445.74 505.03 435.22 509.59 420.49 505.57 401.95 492.71 380.32 472.02 358.78 455.65 333.5 439.27 314.41 415.97 332.31 404.41 352.57 392.43 376.39 373.98 376.39 373.98 376.39 373.98"
            stroke-dasharray="0 0" transform="rotate(0, 400, 400)" opacity="0.65"></path>
        <path
            d="M371.59 377.11Q372.55 370.21 376.02 360.01 382.9 348.79 393.84 339.03 406.36 352.46 431.98 365.88 463.01 379.31 490.13 392.73 485.71 418.55 477.19 447.26 464.48 476.03 447.83 501.91 436.38 506.37 421.16 503.13 402.59 491.87 381.36 473.34 360.16 457.67 335.9 442 315.87 426.32 306.09 410.65 317.08 412.03 331.67 406.79 349.92 394.87 371.59 377.11 371.59 377.11 371.59 377.11"
            stroke-dasharray="0 0" transform="rotate(0, 400, 400)" opacity="0.67"></path>
        <path
            d="M367.13 380.23Q368.93 373.68 373.27 364.04 380.85 353.25 392.16 343.45 405.1 356.29 429.57 369.14 458.9 381.99 485.15 394.84 481.67 419.93 474.6 447.26 463.78 474.38 449.33 498.79 437.09 503.14 421.5 500.6 403.02 490.85 382.28 474.41 361.51 459.45 338.29 444.49 318.93 429.53 308.69 414.57 318.39 414.88 331.32 409.1 347.61 397.3 367.13 380.23 367.13 380.23 367.13 380.23"
            stroke-dasharray="0 0" transform="rotate(0, 400, 400)" opacity="0.68"></path>
        <path
            d="M363.09 383.34Q365.74 377.15 370.89 368.07 379.07 357.76 390.64 348.05 403.87 360.31 427.16 372.57 454.82 384.83 480.07 397.1 477.43 421.34 471.67 447.25 462.59 472.73 450.22 495.67 437.33 499.9 421.52 498.01 403.25 489.66 383.09 475.21 362.86 460.98 340.7 446.74 322.03 432.51 311.43 418.27 319.91 417.57 331.28 411.34 345.68 399.69 363.09 383.34 363.09 383.34 363.09 383.34"
            stroke-dasharray="0 0" transform="rotate(0, 400, 400)" opacity="0.70"></path>
        <path
            d="M359.5 386.47Q362.98 380.62 368.87 372.12 377.55 362.34 389.29 352.81 402.67 364.48 424.76 376.15 450.73 387.82 474.9 399.49 472.99 422.74 468.4 447.19 460.92 471.04 450.49 492.55 437.11 496.63 421.22 495.32 403.27 488.28 383.77 475.73 364.16 462.23 343.1 448.74 325.18 435.25 314.31 421.76 321.66 420.14 331.54 413.52 344.15 402.08 359.5 386.47 359.5 386.47 359.5 386.47"
            stroke-dasharray="0 0" transform="rotate(0, 400, 400)" opacity="0.72"></path>
        <path
            d="M356.4 389.59Q360.68 384.1 367.21 376.17 376.29 366.95 388.08 357.71 401.48 368.78 422.36 379.85 446.66 390.92 469.67 402 468.38 424.17 464.82 447.11 458.77 469.35 450.14 489.43 436.43 493.36 420.63 492.57 403.12 486.73 384.36 475.96 365.46 463.22 345.5 450.48 328.35 437.74 317.34 425 323.64 422.54 332.14 415.62 343.03 404.45 356.4 389.59 356.4 389.59 356.4 389.59"
            stroke-dasharray="0 0" transform="rotate(0, 400, 400)" opacity="0.74"></path>
        <path
            d="M353.85 392.7Q358.85 387.57 365.92 380.23 375.28 371.6 387.02 362.74 400.32 373.21 419.97 383.67 442.62 394.14 464.38 404.6 463.61 425.57 460.95 446.99 456.17 467.63 449.18 486.31 435.32 490.08 419.73 489.74 402.77 485 384.85 475.9 366.74 463.93 347.91 451.95 331.57 439.97 320.51 427.99 325.84 424.79 333.06 417.65 348.1 399.75 353.85 392.7"
            stroke-dasharray="0 0" transform="rotate(0, 400, 400)" opacity="0.75"></path>
        <path
            d="M351.86 395.83Q357.49 391.05 365 384.28 374.53 376.27 386.11 367.88 399.17 377.73 417.57 387.57 438.56 397.42 459.02 407.26 458.69 426.96 456.79 446.83 453.14 465.9 447.61 483.19 433.77 486.78 418.55 486.84 402.25 483.09 385.21 475.53 367.99 464.34 350.31 453.14 334.82 441.93 323.83 430.73 328.27 426.89 334.31 419.61 347 402.47 351.86 395.83"
            stroke-dasharray="0 0" transform="rotate(0, 400, 400)" opacity="0.77"></path>
        <path
            d="M350.46 398.95Q356.62 394.52 364.45 388.33 374.01 380.97 385.33 373.1 398.03 382.32 415.17 391.54 434.53 400.76 453.64 409.98 453.63 428.32 452.38 446.64 449.69 464.14 445.44 480.07 431.82 483.47 417.11 483.86 401.57 481.01 385.51 474.87 369.22 464.45 352.71 454.03 338.11 443.61 327.28 433.19 330.93 428.83 335.91 421.5 346.42 405.19 350.46 398.95"
            stroke-dasharray="0 0" transform="rotate(0, 400, 400)" opacity="0.79"></path>
        <path
            d="M349.68 402.06Q364.24 392.37 384.68 378.39 412.77 395.56 448.22 412.72 447.75 446.41 442.73 476.95 415.42 480.82 385.71 473.9 355.12 454.64 330.87 435.37 337.83 423.31 349.68 402.06 349.68 402.06 349.68 402.06"
            stroke-dasharray="0 0" transform="rotate(0, 400, 400)" opacity="0.81"></path>
        <path
            d="M349.51 405.19Q364.38 396.42 384.15 383.73 410.35 399.59 442.76 415.46 442.89 446.12 439.48 473.83 413.48 477.7 385.82 472.6 357.5 454.94 334.62 437.29 340.09 425.06 349.51 405.19 349.51 405.19 349.51 405.19"
            stroke-dasharray="0 0" transform="rotate(0, 400, 400)" opacity="0.82"></path>
        <path
            d="M349.97 408.31Q364.85 400.44 383.73 389.09 407.95 403.63 437.3 418.18 437.87 445.8 435.75 470.71 411.35 474.52 385.87 471.02 359.91 454.95 338.49 438.9 346.32 417.52 349.97 408.31"
            stroke-dasharray="0 0" transform="rotate(0, 400, 400)" opacity="0.84"></path>
        <path
            d="M351.04 411.42Q365.65 404.46 383.41 394.46 405.54 407.65 431.84 420.86 432.68 445.42 431.59 467.59 409.02 471.27 385.85 469.12 362.31 454.67 342.49 440.23 348.31 419.88 351.04 411.42"
            stroke-dasharray="0 0" transform="rotate(0, 400, 400)" opacity="0.86"></path>
        <path
            d="M352.71 414.55Q366.74 408.45 383.21 399.82 403.14 411.63 426.36 423.46 427.39 444.99 427.02 464.47 406.54 467.97 385.76 466.92 364.71 454.09 346.64 441.27 350.76 422.2 352.71 414.55"
            stroke-dasharray="0 0" transform="rotate(0, 400, 400)" opacity="0.88"></path>
        <path
            d="M354.97 417.67Q368.13 412.43 383.08 405.13 400.76 415.56 420.92 425.98 421.97 444.51 422.12 461.35 403.91 464.59 385.63 464.43 367.13 453.23 350.9 442.02 353.65 424.49 354.97 417.67"
            stroke-dasharray="0 0" transform="rotate(0, 400, 400)" opacity="0.89"></path>
        <path
            d="M357.78 420.78Q369.78 416.38 383.03 410.38 398.36 419.4 415.5 428.4 416.51 443.98 416.97 458.23 401.18 461.17 385.46 461.65 369.53 452.07 355.28 442.48 356.95 426.73 357.78 420.78"
            stroke-dasharray="0 0" transform="rotate(0, 400, 400)" opacity="0.91"></path>
        <path
            d="M361.11 423.91Q371.68 420.32 383.06 415.56 395.96 423.12 410.1 430.67 411 443.38 411.59 455.11 398.34 457.68 385.23 458.58 371.93 450.63 359.8 442.66 360.66 428.95 361.11 423.91"
            stroke-dasharray="0 0" transform="rotate(0, 400, 400)" opacity="0.93"></path>
        <path
            d="M364.93 427.03Q373.78 424.22 383.14 420.63 393.56 426.73 404.76 432.81 400.48 448.44 385 455.26 367.18 434.55 364.93 427.03"
            stroke-dasharray="0 0" transform="rotate(0, 400, 400)" opacity="0.95"></path>
        <path d="M369.16 430.14Q383.62 429.14 399.46 434.78 373.48 435.83 369.16 430.14"
            stroke-dasharray="0 0" transform="rotate(0, 400, 400)" opacity="0.96"></path>
        <path d="M373.79 433.27Q376.42 436.84 373.79 433.27" stroke-dasharray="0 0"
            transform="rotate(0, 400, 400)" opacity="0.98"></path>
    </g>
</svg>