<svg xmlns="http://www.w3.org/2000/svg" version="1.1" xmlns:xlink="http://www.w3.org/1999/xlink"
    xmlns:svgjs="http://svgjs.dev/svgjs" viewBox="0 0 1422 800">
    <defs>
        <linearGradient x1="50%" y1="0%" x2="50%" y2="100%" id="ccchaos-grad">
            <stop stop-color="hsl(0, 0%, 66%)" stop-opacity="1" offset="0%"></stop>
            <stop stop-color="hsl(0, 0%, 23%)" stop-opacity="1" offset="100%"></stop>
        </linearGradient>
    </defs>
    <g stroke-width="0.4" stroke="url(#ccchaos-grad)" fill="none" stroke-linecap="round">
        <path
            d="M678.3 116.17C687.91 114.31 697.94 112.57 708.4 110.99 718.93 109.06 729.98 107.43 741.59 106.13 753.38 104.7 765.84 103.75 778.99 103.33 792.43 102.99 806.64 103.3 821.6 104.29 836.84 105.56 852.8 107.59 869.33 110.39 885.91 113.6 902.8 117.61 919.7 122.42 936.1 127.68 951.96 133.72 966.84 140.49 980.35 147.71 992.15 155.6 1001.72 164.11 1009.07 173 1013.59 182.43 1014.94 192.31 1013.71 202.49 1009.28 213.05 1001.75 223.91 992.38 234.97 980.8 246.27 967.67 257.73 954.72 269.33 941.95 281.03 930.38 292.79 921.67 304.63 915.97 316.48 914.1 328.31 917 340.19 924.47 352.02 936.49 363.76 952.85 375.53 972.6 387.21 994.65 398.72 1017.88 410.26 1040.65 421.64 1061.31 432.78 1078.74 443.92 1091.03 454.54 1097.51 464.59 1098.47 474.6 1093.33 484 1082.64 492.74 1067.47 501.38 1048.45 509.3 1026.84 516.46 1003.89 523.47 980.7 529.65 958.42 534.97 937.94 540.11 920.01 544.37 905.12 547.73 896.67 557.28 917.25 562.93 918.24 567.75 917.39 572.65 914.75 578.7 910.44 586.03 905.24 594.93 898.59 605.18 890.7 616.75 882.17 629.71 872.69 643.78 862.48 658.71 851.93 674.44 840.88 690.51 829.51 706.52 818.01 722.34 806.35 737.36 794.63 751.09 782.89 763.51 771.16 773.88 759.48 781.78 747.79 787.45 736.42 790.1 725.35 789.76 714.23 787.03 703.33 781.49 692.62 773.4 681.79 763.4 671.05 751.38 660.34 737.73 649.44 723.02 638.49 707.34 627.46 691.1 616.17 674.71 604.76 658.34 593.21 642.29 581.45 626.84 569.57 612.08 557.64 598.18 545.65 585.29 533.72 573.39 521.97 562.51 510.42 552.73 499.25 543.88 488.62 535.89 478.5 528.87 469.13 522.5 460.67 516.64 452.97 511.5 446.31 506.64 440.78 501.9 434.23 495.42 427.3 481.91 426.37 474.35 426.1 469.24 426.26 463.57 426.7 457.32 426.72 451.05 426.71 444.15 426.58 436.6 425.67 429.02 424.47 420.79 422.99 411.93 420.69 403.04 418.19 393.54 415.6 383.45 412.53 373.36 409.76 362.97 407.45 352.34 405.24 341.75 403.85 330.97 403.4 320.08 403.56 309.27 404.89 298.4 407.42 287.55 410.79 276.84 415.37 266.19 421.09 255.7 427.52 245.41 434.9 235.34 443.04 225.56 451.52 216.05 460.46 206.9 469.68 198.2 478.76 189.81 487.83 181.92 496.77 174.6 505.17 167.64 513.29 161.28 521.08 155.57 528.15 150.21 534.9 145.51 541.36 141.49 547.13 137.75 552.73 134.66 558.25 132.21 565.78 129.06 581.09 125.43 589.31 124.65 594.74 124.07 600.63 123.75 607.02 123.65 613.33 123.17 620.17 122.81 627.56 122.53 634.9 121.74 642.8 120.96 651.26 120.19 659.69 118.85 668.7 117.5 678.3 116.17"
            stroke-dasharray="0 0" transform="rotate(0, 711, 400)" opacity="0.05"></path>
        <path
            d="M683.89 122.22C693.46 120.34 703.5 118.58 714.01 116.97 724.59 115.01 735.74 113.33 747.46 111.98 759.34 110.49 771.9 109.47 785.13 108.95 798.61 108.51 812.8 108.7 827.68 109.55 842.76 110.65 858.44 112.5 874.56 115.1 890.62 118.09 906.84 121.87 922.89 126.42 938.33 131.41 953.08 137.18 966.69 143.65 978.89 150.57 989.3 158.16 997.44 166.35 1003.42 174.92 1006.63 184.04 1006.8 193.61 1004.59 203.49 999.39 213.75 991.37 224.31 981.79 235.1 970.28 246.13 957.53 257.32 945.18 268.66 933.22 280.12 922.6 291.64 914.89 303.24 910.18 314.88 909.21 326.47 912.82 338.13 920.79 349.74 933.06 361.25 949.41 372.79 968.91 384.23 990.52 395.49 1013.18 406.78 1035.33 417.88 1055.44 428.74 1072.46 439.59 1084.56 449.91 1091.1 459.65 1092.38 469.35 1087.8 478.43 1077.85 486.85 1063.55 495.17 1045.44 502.78 1024.69 509.64 1002.47 516.35 979.82 522.26 957.83 527.34 937.35 532.26 919.14 536.33 903.71 539.56 887.62 550.2 906.21 558.04 907.88 563.57 907.68 568.89 905.81 575.32 902.33 582.98 898.04 592.13 892.3 602.54 885.3 614.19 877.7 627.14 869.09 641.09 859.66 655.82 849.89 671.28 839.53 687 828.75 702.62 817.84 718.02 806.65 732.61 795.3 745.93 783.93 757.98 772.46 768.04 760.96 775.73 749.45 781.28 738.16 783.92 727.1 783.69 716 781.17 705.05 775.94 694.23 768.24 683.31 758.69 672.43 747.17 661.55 734.03 650.51 719.84 639.39 704.66 628.18 688.87 616.76 672.89 605.22 656.85 593.56 641.06 581.74 625.77 569.85 611.09 557.94 597.19 546.03 584.2 534.23 572.14 522.66 561.02 511.35 550.94 500.46 541.75 490.15 533.38 480.4 525.96 471.42 519.18 463.37 512.92 456.08 507.37 449.83 502.13 444.7 497.05 438.7 490.1 432.66 475.94 432.04 468.22 431.94 463.03 432.22 457.35 432.75 451.13 432.84 444.91 432.87 438.11 432.74 430.71 431.82 423.28 430.6 415.24 429.08 406.6 426.73 397.93 424.15 388.68 421.47 378.87 418.31 369.06 415.42 358.96 412.98 348.64 410.64 338.36 409.1 327.91 408.49 317.36 408.48 306.89 409.63 296.37 411.98 285.87 415.16 275.52 419.56 265.24 425.1 255.13 431.37 245.22 438.6 235.53 446.63 226.14 455.03 217.01 463.93 208.25 473.15 199.93 482.28 191.91 491.44 184.4 500.52 177.44 509.11 170.82 517.45 164.8 525.48 159.41 532.83 154.35 539.86 149.92 546.59 146.16 552.65 142.66 558.51 139.78 564.27 137.52 572.1 134.61 587.75 131.3 596 130.63 601.4 130.1 607.24 129.81 613.55 129.73 619.74 129.28 626.47 128.92 633.73 128.64 640.94 127.85 648.71 127.07 657.07 126.28 665.39 124.94 674.32 123.57 683.89 122.22"
            stroke-dasharray="0 0" transform="rotate(3.2777777777777777, 711, 400)" opacity="0.07"></path>
        <path
            d="M689.98 128.27C699.53 126.38 709.57 124.6 720.12 122.96 730.74 120.97 741.93 119.26 753.72 117.86 765.64 116.31 778.23 115.21 791.47 114.61 804.9 114.07 818.99 114.14 833.69 114.84 848.5 115.79 863.8 117.47 879.4 119.87 894.85 122.64 910.29 126.19 925.42 130.49 939.84 135.22 953.42 140.69 965.76 146.88 976.65 153.49 985.68 160.76 992.44 168.64 997.12 176.9 999.11 185.69 998.2 194.95 995.13 204.51 989.28 214.46 980.88 224.72 971.19 235.22 959.85 245.96 947.53 256.87 935.84 267.94 924.71 279.14 915.05 290.4 908.32 301.76 904.57 313.14 904.46 324.5 908.75 335.92 917.18 347.29 929.67 358.55 945.97 369.86 965.21 381.04 986.36 392.04 1008.45 403.07 1030.01 413.9 1049.57 424.47 1066.18 435.04 1078.08 445.06 1084.68 454.49 1086.26 463.89 1082.21 472.67 1072.99 480.78 1059.54 488.8 1042.32 496.12 1022.43 502.69 1000.97 509.14 978.89 514.81 957.24 519.67 936.84 524.4 918.43 528.33 902.54 531.46 889.54 534.5 879.54 536.79 872.46 538.41 876.82 543.98 895.04 553.38 897.2 559.59 897.54 565.3 896.31 572.1 893.55 580.05 890.07 589.41 885.17 599.97 879.01 611.67 872.27 624.57 864.48 638.4 855.82 652.92 846.81 668.09 837.14 683.46 826.95 698.69 816.62 713.67 805.92 727.84 794.96 740.75 783.97 752.44 772.8 762.2 761.49 769.68 750.19 775.11 739.01 777.74 727.98 777.61 716.92 775.3 705.95 770.36 695.06 763.04 684.07 753.94 673.09 742.9 662.08 730.27 650.92 716.6 639.68 701.92 628.34 686.59 616.84 671.02 605.22 655.33 593.5 639.81 581.69 624.71 569.82 610.14 557.98 596.27 546.21 583.23 534.59 571.03 523.24 559.71 512.21 549.37 501.65 539.87 491.7 531.17 482.34 523.37 473.78 516.2 466.15 509.56 459.29 503.62 453.46 498.01 448.73 492.6 443.28 485.18 438.11 470.35 437.79 462.44 437.84 457.16 438.23 451.45 438.84 445.25 438.98 439.06 439.03 432.34 438.91 425.06 437.98 417.76 436.73 409.89 435.16 401.45 432.75 393 430.11 383.99 427.34 374.45 424.08 364.92 421.09 355.11 418.53 345.1 416.05 335.13 414.37 325 413.6 314.79 413.43 304.66 414.4 294.49 416.55 284.36 419.55 274.36 423.75 264.46 429.1 254.73 435.2 245.19 442.27 235.88 450.16 226.89 458.46 218.14 467.29 209.76 476.49 201.82 485.64 194.18 494.88 187.03 504.07 180.43 512.84 174.15 521.38 168.45 529.64 163.38 537.26 158.61 544.57 154.45 551.58 150.94 557.94 147.66 564.09 144.99 570.09 142.9 578.28 140.21 594.38 137.21 602.74 136.64 608.17 136.15 614 135.89 620.28 135.83 626.42 135.39 633.07 135.04 640.25 134.75 647.36 133.96 655.05 133.17 663.33 132.37 671.57 131.02 680.44 129.64 689.98 128.27"
            stroke-dasharray="0 0" transform="rotate(6.555555555555555, 711, 400)" opacity="0.09"></path>
        <path
            d="M696.48 134.32C706 132.42 716.04 130.62 726.6 128.96 737.22 126.95 748.43 125.2 760.23 123.75 772.14 122.15 784.7 120.99 797.86 120.3 811.16 119.66 825.06 119.62 839.47 120.19 853.92 120.99 868.75 122.49 883.74 124.7 898.48 127.26 913.08 130.58 927.22 134.63 940.57 139.09 952.96 144.29 964.01 150.18 973.6 156.48 981.3 163.45 986.74 171 990.19 178.93 991.06 187.4 989.18 196.33 985.34 205.57 978.97 215.2 970.29 225.15 960.59 235.34 949.5 245.78 937.69 256.4 926.69 267.19 916.42 278.11 907.72 289.09 901.96 300.19 899.14 311.32 899.85 322.41 904.77 333.58 913.63 344.7 926.31 355.71 942.55 366.76 961.49 377.68 982.2 388.42 1003.72 399.18 1024.68 409.73 1043.7 420.01 1059.9 430.29 1071.61 440.01 1078.24 449.15 1080.11 458.26 1076.58 466.74 1068.06 474.56 1055.43 482.3 1039.1 489.34 1020.07 495.66 999.38 501.87 977.91 507.32 956.66 512 936.41 516.57 917.88 520.38 901.61 523.44 887.98 526.44 877.14 528.76 869.08 530.46 868.15 537.42 883.84 548.95 886.3 555.8 887.03 561.89 886.33 569.01 884.18 577.24 881.41 586.79 877.27 597.46 871.86 609.19 865.93 622.04 858.92 635.72 850.98 650.02 842.72 664.88 833.71 679.91 824.12 694.74 814.36 709.3 804.16 723.05 793.61 735.57 783.02 746.89 772.16 756.36 761.08 763.63 749.99 768.94 738.96 771.56 727.99 771.53 717.01 769.4 706.05 764.76 695.1 757.81 684.09 749.14 673.04 738.57 661.94 726.45 650.72 713.29 639.4 699.11 627.98 684.25 616.44 669.1 604.79 653.77 593.07 638.55 581.31 623.67 569.53 609.24 557.82 595.42 546.23 582.36 534.83 570.06 523.76 558.59 513.06 548.01 502.85 538.24 493.3 529.24 484.35 521.08 476.23 513.55 469.04 506.56 462.62 500.24 457.22 494.27 452.89 488.53 447.99 480.65 443.66 465.13 443.62 457.02 443.8 451.64 444.3 445.88 444.97 439.68 445.15 433.51 445.22 426.85 445.09 419.68 444.14 412.49 442.85 404.78 441.23 396.54 438.77 388.28 436.06 379.51 433.21 370.24 429.87 360.97 426.78 351.45 424.1 341.75 421.5 332.08 419.68 322.28 418.75 312.4 418.41 302.61 419.2 292.79 421.16 283.02 423.95 273.39 427.95 263.86 433.09 254.51 439 245.35 445.89 236.43 453.63 227.82 461.81 219.45 470.56 211.46 479.7 203.9 488.87 196.62 498.16 189.83 507.43 183.59 516.35 177.64 525.08 172.26 533.55 167.49 541.44 162.99 549.02 159.1 556.32 155.83 562.98 152.77 569.42 150.28 575.7 148.37 584.27 145.89 600.94 143.18 609.47 142.68 614.98 142.23 620.85 142 627.14 141.95 633.27 141.51 639.88 141.16 647.03 140.87 654.08 140.07 661.71 139.27 669.94 138.46 678.12 137.1 686.96 135.71 696.48 134.32"
            stroke-dasharray="0 0" transform="rotate(9.833333333333332, 711, 400)" opacity="0.10"></path>
        <path
            d="M703.24 140.37C712.74 138.46 722.77 136.65 733.31 134.96 743.92 132.93 755.1 131.15 766.85 129.67 778.7 128.02 791.16 126.8 804.16 126.03 817.26 125.3 830.89 125.15 844.92 125.59 858.92 126.24 873.18 127.58 887.48 129.6 901.45 131.95 915.13 135.04 928.23 138.84 940.48 143.04 951.68 147.96 961.44 153.56 969.77 159.55 976.18 166.2 980.36 173.44 982.68 181.04 982.52 189.18 979.78 197.78 975.3 206.68 968.5 215.99 959.66 225.62 950.03 235.49 939.28 245.61 928.03 255.93 917.76 266.42 908.36 277.05 900.63 287.75 895.81 298.57 893.89 309.42 895.39 320.25 900.9 331.15 910.14 342 922.97 352.74 939.12 363.53 957.77 374.19 978.01 384.65 998.97 395.14 1019.34 405.41 1037.83 415.39 1053.62 425.38 1065.13 434.82 1071.8 443.67 1073.92 452.49 1070.89 460.68 1063.04 468.23 1051.23 475.7 1035.78 482.5 1017.61 488.58 997.7 494.57 976.87 499.83 956.06 504.36 936.02 508.8 917.44 512.52 900.89 515.54 886.71 518.54 875.13 520.91 866.16 522.72 859.96 531.14 872.71 544.75 875.28 552.21 876.28 558.65 875.98 566.07 874.35 574.54 872.18 584.25 868.69 595.01 863.97 606.75 858.77 619.51 852.48 633.03 845.23 647.09 837.66 661.66 829.3 676.32 820.28 690.76 811.11 704.91 801.4 718.24 791.27 730.37 781.09 741.34 770.55 750.52 759.72 757.58 748.88 762.77 738.01 765.38 727.13 765.44 716.25 763.5 705.33 759.13 694.38 752.54 683.39 744.29 672.31 734.2 661.15 722.57 649.92 709.92 638.57 696.23 627.12 681.84 615.6 667.13 603.98 652.18 592.31 637.26 580.65 622.63 569.01 608.36 557.48 594.63 546.12 581.58 535.01 569.22 524.26 557.63 513.91 546.86 504.1 536.85 494.97 527.57 486.46 519.1 478.79 511.24 472.06 503.91 466.08 497.23 461.11 490.92 457.19 484.87 452.82 476.52 449.3 460.31 449.53 451.99 449.83 446.49 450.41 440.66 451.13 434.45 451.34 428.28 451.42 421.67 451.27 414.6 450.3 407.51 448.97 399.95 447.29 391.89 444.78 383.82 442.01 375.27 439.08 366.26 435.66 357.24 432.47 348.01 429.69 338.61 426.97 329.25 425.01 319.76 423.93 310.23 423.42 300.77 424.03 291.3 425.79 281.9 428.37 272.62 432.16 263.47 437.09 254.5 442.79 245.71 449.49 237.17 457.05 228.96 465.09 220.96 473.73 213.34 482.8 206.16 491.94 199.24 501.26 192.81 510.6 186.9 519.65 181.28 528.54 176.21 537.21 171.73 545.35 167.51 553.2 163.87 560.77 160.83 567.74 157.97 574.47 155.67 581.03 153.92 587.05 152.24 593 151.03 598.96 150.26 604.51 149.42 610.2 148.93 616.11 148.75 621.74 148.33 627.69 148.12 634.03 148.08 640.19 147.65 646.82 147.29 653.96 146.99 660.99 146.19 668.59 145.37 676.79 144.55 684.94 143.18 693.75 141.78 703.24 140.37"
            stroke-dasharray="0 0" transform="rotate(13.11111111111111, 711, 400)" opacity="0.12"></path>
        <path
            d="M710.16 146.42C719.63 144.5 729.62 142.68 740.13 140.98 750.69 138.93 761.8 137.12 773.45 135.6 785.19 133.91 797.47 132.63 810.24 131.79 823.07 130.98 836.33 130.72 849.9 131.04 863.39 131.55 877 132.72 890.54 134.56 903.67 136.71 916.4 139.57 928.42 143.14 939.56 147.07 949.55 151.71 958.05 157.02 965.15 162.71 970.33 169.04 973.34 175.96 974.61 183.23 973.53 191.03 970.04 199.3 965.03 207.87 957.92 216.84 949.01 226.13 939.56 235.67 929.2 245.48 918.57 255.48 909.06 265.66 900.54 275.98 893.76 286.39 889.87 296.91 888.82 307.48 891.06 318.02 897.12 328.65 906.71 339.22 919.65 349.68 935.7 360.2 954.04 370.58 973.81 380.76 994.21 390.97 1014 400.96 1031.96 410.66 1047.35 420.36 1058.65 429.51 1065.34 438.08 1067.71 446.62 1065.15 454.54 1057.96 461.83 1046.94 469.06 1032.34 475.62 1015.03 481.5 995.93 487.29 975.76 492.39 955.44 496.79 935.67 501.12 917.12 504.79 900.35 507.8 885.72 510.82 873.47 513.26 863.67 515.2 852.28 525.12 861.74 540.78 864.25 548.82 865.4 555.57 865.39 563.27 864.15 571.95 862.47 581.8 859.54 592.62 855.42 604.33 850.87 617 845.24 630.34 838.63 644.16 831.71 658.41 823.97 672.71 815.51 686.75 806.89 700.49 797.68 713.41 787.97 725.15 778.2 735.78 768.01 744.67 757.43 751.53 746.86 756.6 736.18 759.19 725.43 759.34 714.68 757.58 703.84 753.49 692.93 747.24 681.98 739.4 670.93 729.77 659.76 718.63 648.56 706.48 637.23 693.29 625.8 679.37 614.35 665.09 602.81 650.53 591.25 635.95 579.76 621.58 568.31 607.5 557.01 593.89 545.94 580.88 535.14 568.5 524.75 556.81 514.8 545.89 505.42 535.68 496.74 526.17 488.69 517.4 481.49 509.23 475.22 501.6 469.69 494.59 465.15 487.95 461.63 481.6 457.79 472.81 455.04 455.91 455.51 447.36 455.92 441.74 456.57 435.84 457.33 429.6 457.56 423.42 457.63 416.84 457.45 409.85 456.45 402.86 455.08 395.42 453.35 387.54 450.79 379.64 447.95 371.31 444.95 362.54 441.45 353.78 438.18 344.82 435.29 335.72 432.47 326.65 430.38 317.49 429.15 308.29 428.47 299.16 428.89 290.04 430.45 281 432.82 272.09 436.39 263.3 441.09 254.71 446.57 246.3 453.06 238.14 460.43 230.3 468.3 222.68 476.81 215.43 485.78 208.61 494.88 202.05 504.2 195.96 513.58 190.39 522.73 185.08 531.76 180.31 540.61 176.12 548.98 172.16 557.08 168.76 564.92 165.93 572.18 163.28 579.22 161.15 586.06 159.54 592.38 157.99 598.6 156.89 604.82 156.21 610.61 155.44 616.5 155 622.58 154.85 628.36 154.46 634.44 154.26 640.86 154.22 647.1 153.79 653.77 153.43 660.93 153.11 667.98 152.3 675.58 151.47 683.77 150.63 691.9 149.25 700.68 147.84 710.16 146.42"
            stroke-dasharray="0 0" transform="rotate(16.38888888888889, 711, 400)" opacity="0.14"></path>
        <path
            d="M717.09 152.48C726.53 150.55 736.47 148.71 746.91 147 757.39 144.94 768.39 143.11 779.89 141.55 791.45 139.83 803.51 138.49 815.98 137.59 828.46 136.69 841.29 136.34 854.33 136.54 867.22 136.91 880.13 137.92 892.83 139.59 905.09 141.54 916.82 144.18 927.74 147.51 937.77 151.19 946.57 155.55 953.86 160.57 959.77 165.96 963.81 171.98 965.73 178.57 966.05 185.51 964.15 192.97 960.03 200.9 954.59 209.12 947.28 217.75 938.41 226.71 929.2 235.91 919.31 245.39 909.34 255.06 900.61 264.92 892.99 274.93 887.14 285.02 884.15 295.25 883.92 305.51 886.86 315.76 893.43 326.1 903.33 336.39 916.36 346.56 932.26 356.8 950.29 366.89 969.59 376.79 989.44 386.72 1008.65 396.42 1026.09 405.83 1041.09 415.25 1052.17 424.12 1058.87 432.42 1061.48 440.69 1059.36 448.37 1052.8 455.42 1042.55 462.41 1028.79 468.76 1012.33 474.45 994.04 480.07 974.56 485.03 954.77 489.34 935.32 493.59 916.88 497.22 899.97 500.25 884.97 503.31 872.15 505.85 861.61 507.95 845.93 514.1 844.35 524.69 847.47 529.92 850.02 534.44 852.05 539.63 853.32 545.61 854.5 552.65 854.66 560.59 853.71 569.46 852.41 579.41 849.94 590.27 846.33 601.94 842.35 614.49 837.31 627.64 831.27 641.2 824.97 655.13 817.8 669.07 809.87 682.72 801.79 696.05 793.06 708.56 783.76 719.93 774.41 730.21 764.57 738.82 754.28 745.48 743.99 750.43 733.52 753 722.93 753.23 712.34 751.65 701.62 747.81 690.77 741.91 679.92 734.47 668.92 725.28 657.81 714.63 646.68 702.97 635.43 690.27 624.08 676.83 612.75 663 601.35 648.84 589.96 634.6 578.68 620.51 567.48 606.65 556.46 593.19 545.72 580.25 535.28 567.88 525.29 556.14 515.77 545.1 506.84 534.72 498.63 525 491.06 515.98 484.33 507.54 478.54 499.62 473.46 492.3 469.34 485.36 466.22 478.73 463.7 472.53 462.08 466.48 461.29 460.51 460.81 454.81 460.94 449.05 461.56 443.15 462.07 437.4 462.77 431.42 463.56 425.15 463.79 418.94 463.85 412.39 463.64 405.46 462.6 398.55 461.19 391.23 459.4 383.51 456.79 375.78 453.89 367.65 450.82 359.12 447.26 350.6 443.9 341.9 440.92 333.1 437.99 324.32 435.77 315.47 434.4 306.6 433.56 297.8 433.79 289.03 435.15 280.35 437.31 271.79 440.64 263.37 445.11 255.16 450.36 247.11 456.62 239.32 463.77 231.86 471.46 224.6 479.82 217.72 488.67 211.26 497.7 205.04 506.98 199.29 516.37 194.05 525.59 189.04 534.74 184.56 543.74 180.64 552.31 176.93 560.65 173.76 568.73 171.14 576.29 168.67 583.62 166.7 590.75 165.24 597.37 163.81 603.88 162.8 610.35 162.2 616.41 161.49 622.53 161.1 628.81 160.98 634.78 160.61 641 160.41 647.54 160.37 653.88 159.94 660.63 159.56 667.84 159.23 674.93 158.41 682.55 157.57 690.74 156.71 698.88 155.33 707.64 153.91 717.09 152.48"
            stroke-dasharray="0 0" transform="rotate(19.666666666666664, 711, 400)" opacity="0.16"></path>
        <path
            d="M723.9 158.53C733.3 156.6 743.18 154.75 753.51 153.03 763.88 150.96 774.74 149.11 786.03 147.53 797.37 145.77 809.13 144.39 821.23 143.42 833.31 142.45 845.64 142 858.08 142.09 870.32 142.33 882.46 143.19 894.3 144.68 905.64 146.44 916.36 148.87 926.19 151.96 935.1 155.39 942.75 159.49 948.86 164.22 953.66 169.31 956.62 175.01 957.55 181.28 957.02 187.88 954.42 195.01 949.78 202.59 944.01 210.47 936.6 218.76 927.85 227.37 918.96 236.23 909.6 245.36 900.33 254.71 892.4 264.23 885.67 273.92 880.76 283.69 878.63 293.6 879.19 303.56 882.79 313.51 889.83 323.54 900 333.53 913.08 343.42 928.84 353.36 946.52 363.17 965.36 372.78 984.65 382.42 1003.29 391.84 1020.22 400.97 1034.82 410.1 1045.7 418.7 1052.39 426.74 1055.21 434.75 1053.52 442.18 1047.57 449.01 1038.06 455.78 1025.13 461.94 1009.52 467.47 992.04 472.94 973.28 477.79 954.05 482.02 934.98 486.22 916.7 489.83 899.75 492.91 884.46 496.03 871.15 498.69 859.94 500.96 841.47 507.87 835.66 520.04 837.79 525.85 839.82 530.74 841.5 536.28 842.58 542.57 843.68 549.88 843.9 558.04 843.13 567.06 842.1 577.09 840 587.96 836.81 599.58 833.31 611.99 828.78 624.93 823.27 638.22 817.51 651.83 810.87 665.41 803.44 678.66 795.87 691.58 787.6 703.7 778.72 714.69 769.78 724.63 760.29 732.97 750.3 739.43 740.31 744.26 730.09 746.81 719.68 747.12 709.28 745.7 698.71 742.12 687.98 736.54 677.26 729.49 666.37 720.74 655.36 710.56 644.36 699.39 633.23 687.19 622.01 674.22 610.86 660.84 599.65 647.09 588.48 633.21 577.46 619.42 566.56 605.8 555.88 592.52 545.5 579.68 535.47 567.35 525.91 555.59 516.85 544.47 508.39 533.96 500.67 524.06 493.59 514.83 487.35 506.14 482.03 497.97 477.4 490.36 473.71 483.14 470.97 476.24 468.8 469.76 467.47 463.46 466.93 457.26 466.66 451.34 466.95 445.4 467.69 439.36 468.27 433.48 469.02 427.41 469.82 421.1 470.05 414.86 470.07 408.32 469.83 401.46 468.75 394.61 467.28 387.4 465.44 379.83 462.77 372.26 459.82 364.31 456.69 356.02 453.07 347.73 449.64 339.3 446.57 330.78 443.54 322.29 441.2 313.74 439.69 305.2 438.68 296.73 438.74 288.29 439.89 279.97 441.82 271.76 444.92 263.7 449.14 255.86 454.15 248.17 460.17 240.75 467.09 233.66 474.58 226.76 482.75 220.23 491.46 214.12 500.39 208.24 509.61 202.81 518.99 197.88 528.25 193.17 537.48 188.97 546.61 185.31 555.36 181.84 563.9 178.89 572.22 176.47 580.05 174.17 587.66 172.35 595.07 171.01 602 169.69 608.8 168.78 615.54 168.24 621.87 167.59 628.24 167.23 634.72 167.13 640.91 166.78 647.3 166.59 653.98 166.53 660.46 166.09 667.31 165.71 674.59 165.36 681.74 164.52 689.4 163.67 697.6 162.79 705.75 161.4 714.5 159.97 723.9 158.53"
            stroke-dasharray="0 0" transform="rotate(22.944444444444443, 711, 400)" opacity="0.17"></path>
        <path
            d="M730.47 164.58C739.82 162.65 749.6 160.8 759.8 159.06 770.03 156.99 780.7 155.13 791.74 153.52 802.8 151.73 814.22 150.31 825.89 149.28 837.51 148.25 849.29 147.71 861.07 147.69 872.61 147.81 883.96 148.52 894.89 149.85 905.3 151.42 915 153.64 923.73 156.5 931.57 159.68 938.1 163.51 943.09 167.96 946.85 172.76 948.82 178.15 948.86 184.09 947.58 190.37 944.39 197.16 939.33 204.4 933.36 211.93 925.93 219.86 917.4 228.13 908.9 236.64 900.11 245.43 891.58 254.43 884.46 263.62 878.62 272.97 874.61 282.42 873.32 292 874.63 301.64 878.85 311.28 886.31 321 896.71 330.69 909.83 340.28 925.4 349.92 942.75 359.43 961.11 368.76 979.85 378.11 997.93 387.24 1014.35 396.09 1028.56 404.94 1039.22 413.28 1045.91 421.07 1048.92 428.83 1047.64 436.03 1042.26 442.65 1033.48 449.23 1021.36 455.21 1006.59 460.6 989.92 465.94 971.9 470.69 953.26 474.87 934.63 479.04 916.58 482.67 899.64 485.81 884.16 489.01 870.44 491.8 858.66 494.26 848.94 496.91 841.21 499.35 835.31 501.68 830.06 505.79 827.58 515.66 828.64 522.03 830.09 527.26 831.33 533.13 832.12 539.72 833.05 547.26 833.23 555.6 832.53 564.75 831.68 574.84 829.83 585.7 826.98 597.24 823.88 609.49 819.78 622.21 814.72 635.23 809.44 648.51 803.29 661.71 796.33 674.58 789.23 687.1 781.41 698.82 772.93 709.43 764.39 719.05 755.26 727.12 745.59 733.38 735.91 738.09 725.94 740.62 715.75 741 705.58 739.74 695.18 736.4 684.61 731.14 674.06 724.47 663.33 716.15 652.47 706.43 641.64 695.74 630.69 684.03 619.66 671.54 608.73 658.61 597.78 645.28 586.88 631.77 576.17 618.3 565.61 604.95 555.3 591.86 545.33 579.16 535.74 566.9 526.65 555.15 518.06 543.98 510.11 533.37 502.89 523.34 496.31 513.92 490.56 505.03 485.72 496.63 481.53 488.76 478.24 481.29 475.88 474.13 474.04 467.39 472.99 460.85 472.69 454.44 472.61 448.31 473.04 442.18 473.88 436.01 474.52 429.99 475.31 423.83 476.1 417.48 476.31 411.2 476.31 404.67 476.01 397.85 474.88 391.06 473.37 383.95 471.47 376.52 468.76 369.09 465.75 361.34 462.57 353.27 458.88 345.2 455.39 337.02 452.23 328.78 449.11 320.57 446.66 312.32 445.01 304.11 443.85 295.95 443.72 287.85 444.67 279.88 446.38 272 449.24 264.3 453.2 256.82 457.95 249.49 463.73 242.42 470.4 235.7 477.66 229.14 485.63 222.96 494.16 217.2 502.96 211.63 512.1 206.52 521.43 201.89 530.7 197.46 539.99 193.53 549.21 190.12 558.11 186.87 566.84 184.13 575.36 181.89 583.45 179.76 591.32 178.08 598.99 176.86 606.22 175.64 613.31 174.8 620.31 174.33 626.93 173.72 633.56 173.39 640.27 173.31 646.68 172.96 653.27 172.77 660.1 172.71 666.73 172.26 673.7 171.85 681.06 171.48 688.3 170.63 696 169.76 704.22 168.87 712.39 167.47 721.12 166.03 730.47 164.58"
            stroke-dasharray="0 0" transform="rotate(26.22222222222222, 711, 400)" opacity="0.19"></path>
        <path
            d="M736.67 170.63C745.95 168.7 755.63 166.85 765.66 165.11 775.72 163.03 786.15 161.16 796.89 159.53 807.64 157.72 818.67 156.26 829.86 155.18 840.97 154.08 852.14 153.46 863.22 153.34 874.03 153.34 884.55 153.92 894.57 155.08 904.03 156.47 912.72 158.49 920.39 161.13 929.91 165.86 939.92 178.86 939.71 187.03 937.79 192.97 934.11 199.42 928.75 206.32 922.66 213.5 915.32 221.08 907.07 229 899.03 237.15 890.86 245.59 883.08 254.25 876.79 263.09 871.83 272.1 868.7 281.22 868.21 290.47 870.24 299.78 875.03 309.1 882.88 318.51 893.47 327.89 906.58 337.17 921.97 346.51 938.95 355.73 956.84 364.76 975.04 373.82 992.56 382.67 1008.48 391.25 1022.3 399.82 1032.74 407.9 1039.41 415.45 1042.61 422.98 1041.7 429.96 1036.89 436.39 1028.8 442.78 1017.48 448.61 1003.53 453.87 987.69 459.11 970.4 463.79 952.4 467.94 934.24 472.09 916.48 475.75 899.63 478.97 884.03 482.27 869.99 485.22 857.72 487.86 847.33 490.73 838.81 493.43 832.05 496.06 825.36 500.64 820.16 511.56 820.09 518.47 820.89 524.01 821.63 530.18 822.06 537.02 822.71 544.77 822.75 553.27 822.04 562.53 821.25 572.65 819.58 583.47 816.97 594.91 814.17 606.99 810.42 619.48 805.76 632.21 800.9 645.16 795.18 657.99 788.64 670.46 781.98 682.58 774.58 693.91 766.49 704.17 758.34 713.46 749.57 721.26 740.22 727.33 730.86 731.92 721.17 734.43 711.22 734.88 701.3 733.76 691.12 730.66 680.75 725.71 670.41 719.4 659.88 711.51 649.21 702.24 638.6 692.03 627.88 680.79 617.1 668.78 606.44 656.31 595.78 643.4 585.21 630.28 574.86 617.15 564.68 604.07 554.8 591.21 545.27 578.67 536.15 566.51 527.55 554.81 519.46 543.63 512.01 532.95 505.31 522.82 499.23 513.25 493.97 504.17 489.6 495.58 485.84 487.49 482.96 479.78 480.96 472.4 479.43 465.42 478.65 458.65 478.57 452.04 478.66 445.7 479.21 439.41 480.13 433.1 480.83 426.95 481.63 420.7 482.41 414.3 482.59 407.97 482.55 401.44 482.2 394.67 481.02 387.92 479.44 380.9 477.49 373.61 474.73 366.32 471.68 358.74 468.44 350.88 464.7 343.03 461.15 335.09 457.92 327.13 454.71 319.18 452.15 311.23 450.37 303.33 449.06 295.48 448.75 287.71 449.49 280.08 450.98 272.54 453.59 265.18 457.3 258.06 461.78 251.07 467.29 244.36 473.7 237.98 480.72 231.76 488.47 225.91 496.8 220.48 505.44 215.23 514.46 210.42 523.71 206.08 532.97 201.92 542.27 198.25 551.55 195.07 560.57 192.04 569.45 189.49 578.15 187.42 586.46 185.44 594.58 183.89 602.5 182.78 610.01 181.65 617.38 180.88 624.65 180.46 631.55 179.89 638.43 179.59 645.37 179.51 652.02 179.17 658.81 178.97 665.81 178.89 672.62 178.42 679.72 178 687.17 177.6 694.5 176.74 702.26 175.86 710.49 174.95 718.68 173.54 727.39 172.09 736.67 170.63"
            stroke-dasharray="0 0" transform="rotate(29.5, 711, 400)" opacity="0.21"></path>
        <path
            d="M742.39 176.68C751.59 174.75 761.13 172.9 770.97 171.16 780.82 169.08 790.99 167.2 801.39 165.56 811.79 163.73 822.37 162.24 833.04 161.11 843.61 159.95 854.14 159.25 864.49 159.04 874.54 158.93 884.21 159.37 893.3 160.38 901.84 161.6 909.53 163.43 916.17 165.85 924.19 170.21 931.46 182.38 930.17 190.08 927.72 195.7 923.66 201.81 918.1 208.37 911.99 215.2 904.82 222.43 896.93 230 889.38 237.79 881.87 245.87 874.87 254.18 869.4 262.67 865.3 271.33 863.02 280.12 863.31 289.03 866 298.01 871.32 307.01 879.51 316.09 890.26 325.15 903.35 334.13 918.52 343.16 935.14 352.08 952.55 360.82 970.21 369.59 987.18 378.16 1002.61 386.47 1016.04 394.78 1026.27 402.6 1032.91 409.92 1036.27 417.23 1035.72 424.01 1031.44 430.26 1024.03 436.49 1013.48 442.18 1000.35 447.34 985.31 452.48 968.79 457.11 951.43 461.25 933.8 465.4 916.38 469.12 899.7 472.43 884.05 475.85 869.78 478.95 857.1 481.8 846.14 484.88 836.9 487.84 829.34 490.77 821.31 495.81 813.42 507.74 812.19 515.14 812.31 520.98 812.48 527.41 812.47 534.49 812.77 542.42 812.59 551.05 811.78 560.38 810.96 570.5 809.36 581.27 806.91 592.58 804.33 604.48 800.86 616.73 796.52 629.16 792.01 641.77 786.67 654.24 780.51 666.32 774.25 678.05 767.23 688.99 759.51 698.89 751.74 707.86 743.32 715.4 734.29 721.27 725.26 725.75 715.87 728.24 706.19 728.75 696.54 727.77 686.61 724.89 676.47 720.24 666.38 714.29 656.1 706.8 645.67 697.98 635.33 688.24 624.88 677.48 614.39 665.94 604.05 653.93 593.74 641.45 583.54 628.72 573.58 615.95 563.83 603.17 554.4 590.55 545.34 578.2 536.72 566.17 528.63 554.55 521.06 543.39 514.13 532.69 507.95 522.49 502.37 512.79 497.6 503.58 493.69 494.82 490.35 486.52 487.86 478.61 486.21 471.03 484.97 463.83 484.44 456.86 484.56 450.06 484.79 443.53 485.46 437.07 486.45 430.63 487.17 424.35 487.97 418.01 488.73 411.56 488.88 405.19 488.78 398.65 488.37 391.92 487.14 385.21 485.51 378.28 483.5 371.11 480.69 363.95 477.59 356.53 474.31 348.88 470.53 341.23 466.92 333.54 463.62 325.83 460.34 318.15 457.68 310.49 455.77 302.89 454.31 295.34 453.82 287.89 454.36 280.59 455.62 273.38 457.99 266.36 461.43 259.58 465.64 252.93 470.87 246.55 477 240.51 483.76 234.62 491.26 229.1 499.38 223.98 507.84 219.03 516.7 214.51 525.85 210.45 535.04 206.55 544.34 203.11 553.63 200.15 562.74 197.32 571.74 194.95 580.58 193.05 589.1 191.2 597.43 189.78 605.58 188.77 613.35 187.71 620.98 187.01 628.5 186.63 635.67 186.09 642.81 185.8 649.98 185.73 656.87 185.38 663.87 185.17 671.04 185.07 678.02 184.59 685.26 184.15 692.81 183.73 700.24 182.85 708.06 181.95 716.31 181.02 724.51 179.6 733.19 178.15 742.39 176.68"
            stroke-dasharray="0 0" transform="rotate(32.77777777777778, 711, 400)" opacity="0.23"></path>
        <path
            d="M747.52 182.73C756.62 180.81 765.99 178.96 775.61 177.22 785.24 175.14 795.1 173.26 805.13 171.6 815.13 169.76 825.24 168.24 835.36 167.07 845.34 165.86 855.21 165.1 864.8 164.79 874.09 164.58 882.91 164.9 891.09 165.76 902.07 167.63 917.71 174.68 921.58 179.85 922.49 186.02 915.22 201.45 907.4 210.56 901.35 217.04 894.44 223.92 886.97 231.13 879.98 238.57 873.15 246.3 866.94 254.25 862.29 262.39 859.04 270.7 857.58 279.14 858.6 287.71 861.92 296.36 867.72 305.02 876.22 313.78 887.1 322.53 900.12 331.19 915.07 339.92 931.32 348.53 948.25 356.99 965.36 365.47 981.8 373.76 996.74 381.8 1009.79 389.84 1019.79 397.42 1026.39 404.53 1029.9 411.61 1029.7 418.21 1025.93 424.3 1019.17 430.37 1009.37 435.94 997.03 441.01 982.82 446.08 967.06 450.67 950.38 454.82 933.29 458.99 916.28 462.77 899.81 466.2 884.2 469.73 869.78 473 856.78 476.07 845.32 479.37 835.46 482.59 827.17 485.81 817.87 491.3 807.37 504.19 804.97 512.04 804.36 518.15 803.93 524.82 803.43 532.11 803.31 540.19 802.82 548.92 801.83 558.3 800.9 568.41 799.29 579.1 796.92 590.27 794.47 601.97 791.21 613.96 787.11 626.09 782.9 638.36 777.87 650.45 772.05 662.15 766.14 673.48 759.48 684.05 752.12 693.6 744.7 702.26 736.63 709.54 727.93 715.22 719.23 719.58 710.15 722.04 700.76 722.61 691.4 721.77 681.75 719.11 671.89 714.74 662.08 709.14 652.08 702.05 641.94 693.66 631.9 684.38 621.77 674.09 611.63 663.02 601.65 651.47 591.72 639.43 581.93 627.11 572.4 614.69 563.12 602.24 554.17 589.88 545.61 577.75 537.5 565.88 529.94 554.37 522.89 543.25 516.49 532.55 510.84 522.32 505.75 512.54 501.46 503.21 498 494.32 495.07 485.86 492.95 477.77 491.62 470.01 490.66 462.61 490.36 455.45 490.66 448.49 491.03 441.78 491.78 435.17 492.82 428.6 493.57 422.2 494.35 415.77 495.08 409.27 495.18 402.85 495.02 396.31 494.54 389.61 493.25 382.94 491.57 376.09 489.5 369.04 486.65 361.99 483.51 354.74 480.18 347.28 476.36 339.83 472.7 332.36 469.35 324.92 465.99 317.49 463.24 310.1 461.2 302.8 459.6 295.54 458.94 288.4 459.28 281.43 460.31 274.53 462.43 267.84 465.6 261.4 469.54 255.07 474.47 249.02 480.32 243.31 486.8 237.73 494.04 232.52 501.91 227.7 510.16 223.04 518.85 218.79 527.85 215 536.95 211.34 546.19 208.12 555.48 205.38 564.63 202.73 573.71 200.53 582.67 198.78 591.35 197.06 599.86 195.74 608.21 194.82 616.22 193.84 624.09 193.19 631.85 192.84 639.28 192.33 646.67 192.05 654.05 191.97 661.17 191.62 668.38 191.39 675.72 191.27 682.88 190.76 690.26 190.3 697.9 189.85 705.44 188.95 713.31 188.03 721.56 187.09 729.77 185.66 738.41 184.2 747.52 182.73"
            stroke-dasharray="0 0" transform="rotate(36.05555555555555, 711, 400)" opacity="0.24"></path>
        <path
            d="M751.95 188.78C760.93 186.87 770.12 185.03 779.49 183.28 788.86 181.22 798.39 179.33 808.02 177.67 817.6 175.82 827.21 174.27 836.75 173.07 846.13 171.82 855.31 170.98 864.15 170.6 872.66 170.29 880.64 170.49 887.92 171.2 904.04 176.04 913.08 189.79 910.09 196.59 906.88 201.56 902.38 207.01 896.72 212.9 890.82 219.03 884.22 225.56 877.24 232.42 870.84 239.5 864.72 246.87 859.31 254.48 855.47 262.25 853.04 270.22 852.38 278.31 854.08 286.53 857.99 294.84 864.23 303.18 872.99 311.61 883.97 320.03 896.91 328.39 911.6 336.8 927.47 345.12 943.92 353.28 960.51 361.47 976.41 369.49 990.87 377.27 1003.54 385.06 1013.32 392.4 1019.87 399.3 1023.51 406.18 1023.63 412.59 1020.35 418.54 1014.21 424.47 1005.14 429.93 993.59 434.94 980.18 439.94 965.19 444.52 949.21 448.68 932.71 452.89 916.14 456.75 899.96 460.29 884.46 463.96 869.97 467.41 856.73 470.69 844.86 474.21 834.45 477.68 825.52 481.19 818.1 485.08 812.01 489.14 807.1 493.44 803.45 498.28 800.65 503.51 798.47 509.18 797.13 515.52 796.05 522.41 795.01 529.88 794.41 538.07 793.56 546.88 792.31 556.28 791.19 566.35 789.49 576.94 787.13 587.96 784.73 599.45 781.6 611.18 777.69 623 773.7 634.92 768.94 646.64 763.41 657.95 757.81 668.9 751.47 679.09 744.44 688.29 737.36 696.64 729.62 703.67 721.25 709.17 712.88 713.42 704.12 715.84 695.04 716.47 685.99 715.76 676.65 713.3 667.09 709.22 657.6 703.95 647.91 697.24 638.11 689.28 628.41 680.45 618.64 670.63 608.88 660.02 599.3 648.93 589.79 637.34 580.45 625.42 571.39 613.38 562.59 601.26 554.15 589.19 546.11 577.29 538.53 565.61 531.51 554.23 524.99 543.2 519.12 532.54 513.99 522.3 509.39 512.47 505.56 503.06 502.54 494.07 500 485.47 498.23 477.23 497.21 469.32 496.5 461.75 496.41 454.43 496.87 447.31 497.35 440.44 498.18 433.69 499.24 427.01 499.99 420.5 500.76 413.98 501.43 407.44 501.48 400.97 501.26 394.42 500.71 387.75 499.36 381.12 497.61 374.34 495.49 367.4 492.6 360.47 489.42 353.36 486.05 346.1 482.2 338.84 478.5 331.59 475.09 324.39 471.67 317.2 468.83 310.08 466.68 303.07 464.94 296.09 464.12 289.26 464.25 282.6 465.06 276.01 466.93 269.63 469.83 263.51 473.48 257.49 478.11 251.76 483.66 246.36 489.85 241.09 496.8 236.17 504.4 231.65 512.42 227.25 520.9 223.27 529.73 219.72 538.71 216.29 547.86 213.29 557.1 210.74 566.26 208.27 575.38 206.22 584.42 204.6 593.22 203 601.89 201.78 610.4 200.93 618.62 200.01 626.71 199.4 634.67 199.08 642.34 198.59 649.96 198.31 657.54 198.22 664.89 197.86 672.3 197.62 679.8 197.46 687.13 196.94 694.64 196.45 702.37 195.97 710 195.06 717.93 194.11 726.17 193.15 734.38 191.72 742.97 190.26 751.95 188.78"
            stroke-dasharray="0 0" transform="rotate(39.33333333333333, 711, 400)" opacity="0.26"></path>
        <path
            d="M755.61 194.83C764.46 192.93 773.44 191.09 782.54 189.35 791.63 187.3 800.8 185.42 810 183.75 819.14 181.9 828.23 180.33 837.16 179.1 845.93 177.8 854.42 176.91 862.5 176.45 870.25 176.05 877.41 176.14 883.82 176.72 897.42 181.02 903.3 193.69 899.7 200.05 896.26 204.71 891.68 209.84 886.11 215.39 880.44 221.18 874.22 227.37 867.76 233.88 861.99 240.6 856.6 247.62 851.98 254.87 848.94 262.29 847.31 269.9 847.4 277.65 849.75 285.52 854.2 293.49 860.84 301.5 869.83 309.6 880.86 317.69 893.7 325.74 908.13 333.84 923.61 341.86 939.58 349.74 955.64 357.65 971.01 365.39 985 372.92 997.29 380.46 1006.84 387.58 1013.34 394.28 1017.1 400.96 1017.52 407.21 1014.7 413.02 1009.17 418.82 1000.8 424.19 990.02 429.14 977.4 434.1 963.19 438.67 947.91 442.87 932.04 447.12 915.96 451.06 900.11 454.74 884.78 458.54 870.3 462.16 856.91 465.66 844.72 469.4 833.85 473.12 824.35 476.9 816.24 481.07 809.41 485.41 803.72 490 799.25 495.12 795.65 500.61 792.71 506.53 790.63 513.09 788.88 520.16 787.28 527.78 786.15 536.07 784.88 544.93 783.32 554.33 781.94 564.33 780.08 574.8 777.66 585.65 775.24 596.91 772.17 608.37 768.39 619.87 764.55 631.44 760 642.79 754.72 653.72 749.37 664.29 743.33 674.11 736.6 682.98 729.83 691.02 722.42 697.8 714.38 703.12 706.34 707.25 697.9 709.64 689.15 710.32 680.43 709.73 671.42 707.48 662.19 703.66 653.04 698.71 643.7 692.38 634.26 684.83 624.94 676.44 615.57 667.08 606.23 656.94 597.07 646.31 588.02 635.15 579.16 623.65 570.59 612 562.3 600.23 554.39 588.47 546.88 576.83 539.84 565.35 533.37 554.14 527.38 543.21 522.04 532.63 517.41 522.41 513.29 512.57 509.91 503.12 507.31 494.05 505.14 485.35 503.7 476.99 502.97 468.95 502.49 461.24 502.59 453.77 503.18 446.52 503.76 439.5 504.63 432.63 505.71 425.85 506.45 419.23 507.18 412.64 507.8 406.05 507.78 399.55 507.49 392.99 506.86 386.35 505.45 379.75 503.64 373.03 501.46 366.2 498.54 359.38 495.32 352.42 491.92 345.34 488.04 338.26 484.31 331.22 480.85 324.26 477.37 317.31 474.45 310.44 472.2 303.71 470.33 297.01 469.34 290.46 469.28 284.1 469.87 277.81 471.49 271.73 474.11 265.93 477.47 260.2 481.8 254.77 487.04 249.68 492.91 244.69 499.57 240.05 506.88 235.8 514.64 231.67 522.88 227.93 531.51 224.62 540.33 221.4 549.36 218.6 558.51 216.23 567.64 213.92 576.76 212.02 585.83 210.52 594.73 209.02 603.5 207.89 612.15 207.1 620.54 206.24 628.81 205.66 636.95 205.36 644.84 204.88 652.66 204.6 660.43 204.49 667.99 204.12 675.57 203.85 683.22 203.66 690.71 203.12 698.34 202.59 706.15 202.09 713.87 201.15 721.83 200.19 730.06 199.21 738.26 197.78 746.77 196.31 755.61 194.83"
            stroke-dasharray="0 0" transform="rotate(42.61111111111111, 711, 400)" opacity="0.28"></path>
        <path
            d="M758.44 200.88C767.12 198.99 775.88 197.16 784.68 195.43 793.47 193.39 802.27 191.52 811.02 189.85 819.7 187.99 828.25 186.42 836.58 185.15 844.73 183.83 852.54 182.88 859.87 182.35 870.06 181.86 886 183.48 891.15 185.67 894.21 188.7 893.23 197.72 889.16 203.65 885.59 208 881.02 212.82 875.62 218.05 870.24 223.5 864.47 229.34 858.58 235.52 853.45 241.88 848.8 248.55 844.97 255.45 842.71 262.51 841.84 269.77 842.65 277.18 845.61 284.7 850.55 292.33 857.55 300.01 866.73 307.77 877.78 315.55 890.49 323.29 904.64 331.08 919.73 338.8 935.22 346.4 950.75 354.02 965.6 361.5 979.13 368.79 991.05 376.08 1000.37 382.98 1006.81 389.49 1010.67 395.99 1011.37 402.08 1008.99 407.78 1004.03 413.46 996.34 418.75 986.31 423.66 974.48 428.58 961.04 433.15 946.48 437.4 931.25 441.7 915.7 445.74 900.24 449.55 885.15 453.49 870.75 457.29 857.29 461 844.86 464.95 833.62 468.92 823.64 472.96 814.92 477.38 807.41 481.99 801.01 486.86 795.76 492.22 791.39 497.95 787.73 504.1 784.9 510.84 782.49 518.07 780.29 525.81 778.61 534.17 776.87 543.05 774.95 552.42 773.25 562.34 771.18 572.68 768.63 583.34 766.13 594.35 763.04 605.53 759.34 616.71 755.6 627.93 751.19 638.91 746.12 649.46 740.99 659.65 735.2 669.11 728.75 677.64 722.26 685.4 715.16 691.93 707.44 697.07 699.72 701.08 691.62 703.44 683.2 704.17 674.82 703.69 666.16 701.63 657.29 698.07 648.5 693.43 639.55 687.47 630.5 680.32 621.59 672.36 612.64 663.46 603.75 653.77 595.05 643.6 586.48 632.89 578.12 621.81 570.06 610.55 562.3 599.14 554.94 587.69 547.96 576.33 541.46 565.09 535.54 554.06 530.08 543.29 525.25 532.8 521.12 522.64 517.46 512.82 514.52 503.35 512.31 494.24 510.5 485.47 509.36 477.02 508.88 468.89 508.62 461.05 508.87 453.46 509.58 446.1 510.23 438.96 511.15 431.98 512.22 425.12 512.94 418.41 513.61 411.75 514.16 405.12 514.08 398.58 513.71 392.01 513.01 385.41 511.53 378.83 509.66 372.19 507.43 365.46 504.47 358.74 501.22 351.92 497.79 345.01 493.89 338.1 490.13 331.27 486.63 324.53 483.1 317.8 480.11 311.19 477.75 304.72 475.76 298.28 474.61 292.01 474.36 285.94 474.74 279.93 476.1 274.15 478.46 268.64 481.52 263.2 485.54 258.06 490.46 253.25 496.01 248.53 502.35 244.16 509.36 240.17 516.83 236.28 524.82 232.77 533.21 229.68 541.83 226.66 550.71 224.04 559.73 221.84 568.78 219.68 577.87 217.9 586.94 216.51 595.87 215.11 604.72 214.05 613.46 213.32 621.99 212.5 630.4 211.95 638.69 211.66 646.76 211.18 654.75 210.9 662.68 210.77 670.42 210.38 678.17 210.08 685.94 209.86 693.58 209.29 701.32 208.74 709.18 208.2 716.98 207.25 724.96 206.27 733.15 205.27 741.32 203.83 749.75 202.36 758.44 200.88"
            stroke-dasharray="0 0" transform="rotate(45.888888888888886, 711, 400)" opacity="0.30"></path>
        <path
            d="M760.36 206.94C768.87 205.05 777.39 203.24 785.87 201.52 794.34 199.49 802.75 197.63 811.03 195.97 819.25 194.11 827.26 192.53 834.98 191.24 842.52 189.89 849.65 188.9 856.26 188.3 880.81 196.42 872.68 213.72 865.28 220.88 860.27 226.01 854.97 231.51 849.69 237.35 845.23 243.36 841.32 249.68 838.27 256.23 836.77 262.94 836.64 269.85 838.12 276.91 841.65 284.09 847.04 291.38 854.35 298.73 863.68 306.16 874.73 313.62 887.28 321.05 901.14 328.53 915.83 335.96 930.84 343.28 945.85 350.63 960.19 357.85 973.26 364.9 984.81 371.95 993.9 378.64 1000.27 384.97 1004.22 391.29 1005.17 397.25 1003.21 402.83 998.8 408.41 991.77 413.63 982.47 418.5 971.41 423.4 958.74 427.99 944.92 432.28 930.35 436.65 915.36 440.79 900.34 444.73 885.55 448.82 871.3 452.79 857.83 456.71 845.25 460.87 833.73 465.06 823.35 469.36 814.11 474.01 805.99 478.87 798.94 483.99 792.97 489.58 787.88 495.52 783.5 501.87 779.96 508.77 776.88 516.13 774.08 523.96 771.82 532.36 769.59 541.24 767.27 550.56 765.21 560.37 762.86 570.56 760.13 581.01 757.49 591.78 754.34 602.66 750.65 613.52 746.95 624.39 742.65 635 737.74 645.18 732.78 654.99 727.21 664.1 721.01 672.3 714.79 679.76 707.97 686.06 700.57 691.02 693.17 694.92 685.4 697.24 677.33 698.01 669.29 697.64 661 695.76 652.51 692.44 644.1 688.11 635.55 682.5 626.93 675.75 618.44 668.22 609.95 659.75 601.52 650.52 593.31 640.8 585.24 630.53 577.4 619.87 569.86 609.02 562.64 597.98 555.83 586.87 549.39 575.81 543.44 564.82 538.06 554.01 533.11 543.4 528.78 533.03 525.14 522.97 521.92 513.2 519.39 503.74 517.55 494.62 516.06 485.81 515.21 477.3 514.97 469.1 514.89 461.17 515.28 453.49 516.08 446.04 516.79 438.8 517.71 431.72 518.77 424.79 519.45 418 520.06 411.28 520.54 404.63 520.37 398.05 519.92 391.49 519.14 384.91 517.59 378.37 515.67 371.79 513.38 365.16 510.39 358.54 507.11 351.85 503.66 345.11 499.74 338.37 495.96 331.73 492.43 325.21 488.86 318.7 485.8 312.33 483.35 306.12 480.59 296.92 480.23 279.63 482.87 271.65 485.63 266.49 489.34 261.62 493.93 257.08 499.16 252.62 505.16 248.5 511.85 244.76 519.01 241.09 526.71 237.8 534.85 234.91 543.24 232.07 551.92 229.63 560.79 227.57 569.72 225.55 578.73 223.89 587.75 222.6 596.69 221.28 605.56 220.28 614.35 219.6 622.97 218.81 631.49 218.28 639.89 217.99 648.11 217.51 656.24 217.21 664.3 217.07 672.2 216.64 680.07 216.32 687.95 216.07 695.71 215.46 703.53 214.88 711.44 214.31 719.28 213.34 727.27 212.34 735.41 211.33 743.53 209.88 751.85 208.41 760.36 206.94"
            stroke-dasharray="0 0" transform="rotate(49.16666666666667, 711, 400)" opacity="0.31"></path>
        <path
            d="M761.35 212.99C769.67 211.12 777.92 209.32 786.08 207.61 794.22 205.61 802.23 203.76 810.04 202.1 817.78 200.25 825.25 198.67 832.37 197.36 842.55 195.47 859.77 193.57 866.33 193.71 873.01 201.37 862.15 217.19 855.16 223.9 850.55 228.7 845.78 233.87 841.13 239.37 837.35 245.05 834.17 251.02 831.89 257.23 831.12 263.59 831.69 270.15 833.81 276.88 837.85 283.71 843.65 290.66 851.23 297.69 860.67 304.79 871.7 311.93 884.07 319.06 897.63 326.24 911.91 333.38 926.44 340.43 940.94 347.5 954.78 354.47 967.39 361.28 978.58 368.1 987.44 374.6 993.72 380.76 997.75 386.91 998.94 392.73 997.37 398.21 993.48 403.69 987.09 408.85 978.5 413.71 968.2 418.59 956.29 423.19 943.2 427.55 929.31 431.98 914.91 436.22 900.37 440.3 885.94 444.52 871.91 448.67 858.52 452.78 845.87 457.14 834.15 461.56 823.44 466.08 813.76 470.96 805.12 476.05 797.49 481.39 790.86 487.18 785.09 493.32 780.05 499.83 775.81 506.86 772.07 514.33 768.68 522.22 765.83 530.64 763.1 539.49 760.35 548.74 757.89 558.43 755.23 568.44 752.27 578.68 749.44 589.18 746.18 599.77 742.46 610.3 738.75 620.82 734.51 631.06 729.71 640.86 724.89 650.31 719.49 659.06 713.53 666.95 707.54 674.12 700.99 680.18 693.89 684.97 686.8 688.75 679.36 691.04 671.64 691.84 663.96 691.58 656.04 689.87 647.95 686.79 639.94 682.76 631.8 677.49 623.62 671.11 615.58 663.99 607.56 655.96 599.63 647.17 591.9 637.9 584.35 628.08 577.05 617.85 570.04 607.41 563.36 596.75 557.1 585.99 551.2 575.24 545.78 564.53 540.94 553.95 536.49 543.53 532.65 533.32 529.46 523.38 526.67 513.68 524.52 504.27 523.03 495.18 521.84 486.35 521.24 477.81 521.2 469.57 521.28 461.58 521.79 453.83 522.66 446.31 523.4 438.99 524.33 431.84 525.36 424.85 525.98 417.99 526.52 411.24 526.91 404.56 526.66 397.97 526.13 391.4 525.26 384.86 523.65 378.36 521.66 371.84 519.32 365.31 516.3 358.78 513 352.23 509.53 345.65 505.61 339.07 501.81 332.61 498.25 326.3 494.64 320 491.52 313.85 488.99 307.88 486.05 299.06 485.11 282.55 487.35 274.97 489.82 270.06 493.22 265.45 497.48 261.17 502.36 256.95 508.02 253.07 514.37 249.55 521.21 246.1 528.6 243.01 536.44 240.3 544.58 237.63 553.03 235.34 561.7 233.43 570.48 231.52 579.37 229.97 588.29 228.76 597.19 227.51 606.05 226.57 614.84 225.92 623.51 225.16 632.09 224.64 640.57 224.35 648.89 223.86 657.13 223.54 665.28 223.36 673.3 222.92 681.27 222.56 689.23 222.27 697.08 221.63 704.96 221.02 712.89 220.42 720.76 219.43 728.73 218.41 736.8 217.38 744.85 215.93 753.04 214.46 761.35 212.99"
            stroke-dasharray="0 0" transform="rotate(52.44444444444444, 711, 400)" opacity="0.33"></path>
        <path
            d="M761.4 219.04C769.5 217.18 777.48 215.4 785.29 213.71 793.09 211.73 800.69 209.9 808.04 208.25 815.3 206.42 822.24 204.83 828.78 203.51 838.07 201.59 853.36 199.52 858.94 199.51 863.21 206.28 851.78 220.83 845.28 227.1 841.13 231.58 836.92 236.44 832.92 241.61 829.82 246.95 827.37 252.58 825.83 258.46 825.76 264.47 826.99 270.7 829.7 277.09 834.23 283.58 840.39 290.2 848.2 296.91 857.72 303.69 868.68 310.51 880.86 317.35 894.1 324.22 907.96 331.07 922.02 337.86 936.02 344.66 949.35 351.38 961.52 357.97 972.34 364.57 980.97 370.87 987.17 376.87 991.96 385.71 985.19 401.89 974.39 409.29 964.83 414.16 953.68 418.79 941.32 423.21 928.13 427.71 914.35 432.04 900.33 436.26 886.3 440.62 872.55 444.93 859.3 449.24 846.66 453.78 834.82 458.4 823.88 463.14 813.84 468.22 804.76 473.51 796.62 479.06 789.4 485.03 783.02 491.33 777.36 497.98 772.46 505.12 768.09 512.65 764.12 520.59 760.69 529 757.43 537.8 754.24 546.95 751.35 556.5 748.36 566.32 745.14 576.33 742.07 586.56 738.67 596.84 734.86 607.04 731.1 617.2 726.88 627.08 722.16 636.52 717.43 645.6 712.19 654.01 706.42 661.58 700.64 668.47 694.34 674.3 687.54 678.92 680.74 682.59 673.63 684.84 666.27 685.67 658.94 685.51 651.4 683.96 643.71 681.11 636.1 677.36 628.4 672.42 620.68 666.42 613.1 659.7 605.56 652.09 598.13 643.74 590.91 634.92 583.88 625.53 577.12 615.74 570.64 605.71 564.5 595.44 558.79 585.04 553.41 574.62 548.52 564.2 544.19 553.87 540.23 543.67 536.85 533.65 534.1 523.85 531.7 514.26 529.91 504.93 528.74 495.88 527.82 487.07 527.45 478.54 527.59 470.28 527.81 462.25 528.41 454.45 529.32 446.89 530.08 439.51 530.99 432.32 531.96 425.28 532.52 418.38 532.98 411.6 533.28 404.91 532.94 398.3 532.31 391.75 531.36 385.25 529.68 378.78 527.64 372.33 525.25 365.89 522.2 359.47 518.89 353.03 515.4 346.61 511.47 340.18 507.67 333.91 504.09 327.8 500.45 321.69 497.28 315.76 494.67 310.03 491.55 301.55 490.05 285.78 491.92 278.58 495.63 271.73 508.28 259.68 516.94 254.54 523.43 251.28 530.49 248.38 538.02 245.84 545.87 243.33 554.06 241.18 562.5 239.39 571.08 237.59 579.81 236.13 588.6 234.99 597.4 233.8 606.21 232.9 614.96 232.28 623.63 231.54 632.23 231.02 640.73 230.72 649.12 230.22 657.42 229.88 665.63 229.67 673.73 229.19 681.78 228.8 689.77 228.47 697.69 227.8 705.6 227.16 713.52 226.52 721.39 225.51 729.31 224.47 737.29 223.43 745.25 221.98 753.29 220.51 761.4 219.04"
            stroke-dasharray="0 0" transform="rotate(55.72222222222222, 711, 400)" opacity="0.35"></path>
        <path
            d="M760.49 225.09C768.36 223.25 776.05 221.49 783.52 219.82 790.97 217.86 798.16 216.05 805.04 214.42 811.85 212.6 818.27 211.01 824.25 209.69 846.48 218.04 830.23 236.94 825.08 244.07 821.79 251.73 821.62 268.55 825.81 277.56 830.76 283.72 837.24 290.01 845.24 296.41 854.8 302.86 865.68 309.38 877.65 315.92 890.56 322.5 904 329.07 917.59 335.6 931.08 342.14 943.92 348.62 955.65 354.99 966.12 361.37 974.51 367.49 980.61 373.33 985.55 381.96 979.99 397.9 970.15 405.26 961.31 410.13 950.9 414.79 939.28 419.27 926.79 423.84 913.65 428.27 900.18 432.62 886.61 437.11 873.19 441.58 860.15 446.06 847.6 450.77 835.71 455.58 824.62 460.52 814.31 465.78 804.87 471.26 796.3 476.98 788.57 483.1 781.63 489.53 775.4 496.31 769.9 503.52 764.94 511.1 760.4 519.05 756.4 527.42 752.63 536.15 748.99 545.19 745.67 554.57 742.31 564.19 738.81 573.96 735.47 583.92 731.88 593.89 727.97 603.75 724.12 613.56 719.87 623.07 715.2 632.14 710.53 640.87 705.41 648.94 699.82 656.2 694.22 662.82 688.15 668.42 681.63 672.87 675.11 676.43 668.32 678.63 661.31 679.5 654.33 679.42 647.17 678.03 639.9 675.41 632.7 671.92 625.44 667.3 618.19 661.66 611.07 655.33 604.01 648.14 597.1 640.22 590.38 631.83 583.87 622.89 577.65 613.52 571.7 603.91 566.09 594.03 560.92 584 556.05 573.93 551.68 563.82 547.84 553.76 544.33 543.81 541.4 533.99 539.06 524.36 537.02 514.91 535.56 505.68 534.68 496.71 534 487.95 533.83 479.45 534.12 471.2 534.45 463.16 535.11 455.35 536.05 447.77 536.8 440.36 537.67 433.13 538.59 426.08 539.07 419.15 539.44 412.34 539.63 405.66 539.21 399.05 538.49 392.52 537.45 386.05 535.7 379.63 533.6 373.25 531.17 366.91 528.09 360.58 524.77 354.27 521.27 347.99 517.34 341.71 513.54 335.61 509.95 329.69 506.29 323.78 503.07 318.05 500.39 312.54 497.12 304.39 495.08 289.32 496.57 282.47 499.83 275.97 511.46 264.56 519.57 259.72 525.7 256.65 532.41 253.91 539.6 251.53 547.13 249.16 555.03 247.14 563.2 245.45 571.56 243.75 580.08 242.36 588.7 241.29 597.37 240.15 606.07 239.29 614.73 238.68 623.36 237.95 631.94 237.43 640.42 237.11 648.83 236.59 657.15 236.22 665.37 235.98 673.52 235.47 681.59 235.03 689.6 234.66 697.54 233.96 705.45 233.28 713.33 232.62 721.18 231.58 729.03 230.53 736.89 229.47 744.74 228.02 752.61 226.56 760.49 225.09"
            stroke-dasharray="0 0" transform="rotate(59, 711, 400)" opacity="0.37"></path>
        <path
            d="M758.64 231.14C766.28 229.32 773.67 227.58 780.79 225.93 787.88 224 794.67 222.21 801.1 220.6 810.42 218.01 826.49 213.93 832.94 212.59 842.21 216.47 831.73 228.65 826.45 234.07 821.8 240.07 815.35 253.93 814.69 261.65 815.92 267 818.35 272.56 822.1 278.3 827.44 284.13 834.2 290.11 842.34 296.19 851.92 302.33 862.68 308.55 874.41 314.81 886.99 321.09 900.01 327.39 913.13 333.67 926.12 339.96 938.49 346.2 949.78 352.37 959.89 358.54 968.05 364.48 974.05 370.18 979.11 378.61 974.69 394.32 965.77 401.65 957.63 406.51 947.96 411.21 937.06 415.75 925.28 420.38 912.79 424.92 899.91 429.38 886.83 434 873.79 438.61 861.03 443.26 848.63 448.13 836.78 453.1 825.62 458.22 815.12 463.64 805.4 469.27 796.48 475.15 788.31 481.39 780.89 487.94 774.16 494.79 768.1 502.05 762.59 509.66 757.53 517.59 752.98 525.91 748.72 534.54 744.63 543.44 740.87 552.65 737.14 562.05 733.34 571.56 729.72 581.23 725.91 590.89 721.87 600.41 717.89 609.87 713.59 619.02 708.94 627.73 704.3 636.11 699.26 643.85 693.83 650.8 688.38 657.15 682.53 662.53 676.28 666.81 670.03 670.26 663.54 672.43 656.88 673.32 650.24 673.32 643.46 672.09 636.6 669.67 629.82 666.44 623 662.13 616.21 656.83 609.55 650.89 602.99 644.1 596.58 636.6 590.37 628.65 584.38 620.14 578.69 611.2 573.24 602.01 568.16 592.53 563.51 582.88 559.14 573.16 555.25 563.37 551.88 553.61 548.81 543.92 546.28 534.32 544.32 524.89 542.62 515.6 541.46 506.51 540.83 497.65 540.37 488.97 540.36 480.52 540.78 472.32 541.18 464.3 541.89 456.5 542.84 448.92 543.57 441.5 544.38 434.26 545.22 427.2 545.62 420.26 545.89 413.46 545.98 406.79 545.45 400.19 544.64 393.68 543.51 387.27 541.7 380.9 539.54 374.59 537.07 368.34 533.98 362.1 530.64 355.91 527.14 349.78 523.22 343.65 519.42 337.71 515.82 331.97 512.15 326.24 508.9 320.71 506.15 315.41 502.73 307.57 500.18 293.16 501.3 286.64 504.12 280.45 514.72 269.65 522.27 265.08 528.03 262.17 534.37 259.59 541.21 257.35 548.4 255.11 555.98 253.19 563.86 251.6 571.94 249.98 580.23 248.67 588.63 247.64 597.12 246.54 605.67 245.7 614.21 245.11 622.74 244.38 631.24 243.85 639.66 243.51 648.04 242.97 656.34 242.56 664.54 242.28 672.68 241.73 680.74 241.26 688.72 240.85 696.66 240.12 704.53 239.41 712.35 238.71 720.14 237.65 727.9 236.59 735.61 235.51 743.33 234.06 751.01 232.6 758.64 231.14"
            stroke-dasharray="0 0" transform="rotate(62.27777777777778, 711, 400)" opacity="0.38"></path>
        <path
            d="M755.9 237.19C763.28 235.4 770.36 233.68 777.13 232.04 783.88 230.14 790.27 228.39 796.26 226.79 804.91 224.23 819.52 220.15 825.23 218.77 827.15 227.31 813.76 243.43 810.54 249.66 809.26 256.38 812.9 271.29 818.59 279.34 824.27 284.85 831.26 290.51 839.52 296.29 849.07 302.13 859.7 308.05 871.18 314.03 883.4 320.03 896.01 326.07 908.65 332.09 921.16 338.13 933.04 344.15 943.91 350.12 953.67 356.08 961.59 361.85 967.48 367.41 972.65 375.65 969.3 391.15 961.26 398.46 953.8 403.32 944.84 408.04 934.67 412.65 923.6 417.34 911.78 421.96 899.5 426.54 886.95 431.27 874.35 436.02 861.91 440.81 849.73 445.82 837.99 450.95 826.83 456.22 816.23 461.78 806.32 467.55 797.12 473.55 788.6 479.89 780.77 486.52 773.59 493.43 767.04 500.72 761.03 508.31 755.49 516.21 750.43 524.45 745.69 532.96 741.17 541.71 736.98 550.72 732.88 559.89 728.77 569.15 724.85 578.52 720.82 587.86 716.61 597.04 712.49 606.15 708.12 614.94 703.46 623.3 698.82 631.33 693.86 638.74 688.55 645.4 683.24 651.48 677.58 656.64 671.58 660.76 665.58 664.1 659.39 666.22 653.06 667.13 646.76 667.22 640.36 666.12 633.91 663.9 627.53 660.92 621.15 656.9 614.83 651.95 608.62 646.37 602.54 639.98 596.64 632.9 590.92 625.37 585.44 617.29 580.27 608.78 575.32 600.01 570.74 590.93 566.58 581.66 562.68 572.31 559.25 562.86 556.32 553.41 553.66 543.99 551.51 534.65 549.89 525.43 548.49 516.33 547.6 507.4 547.2 498.67 546.91 490.1 547.05 481.74 547.56 473.6 548.02 465.63 548.75 457.86 549.68 450.31 550.37 442.9 551.12 435.68 551.86 428.64 552.17 421.7 552.33 414.91 552.31 408.27 551.68 401.7 550.77 395.23 549.56 388.87 547.68 382.56 545.47 376.32 542.96 370.17 539.85 364.03 536.51 357.96 533.01 351.97 529.11 345.97 525.31 340.19 521.71 334.63 516.4 326.4 508.41 311.09 506.19 304.05 505.37 297.29 508.51 285.19 512.5 279.9 518.08 274.94 533.43 266.64 542.87 263.3 549.7 261.17 556.94 259.35 564.49 257.85 572.27 256.3 580.28 255.04 588.43 254.05 596.7 252.98 605.05 252.16 613.42 251.56 621.82 250.83 630.19 250.29 638.51 249.92 646.81 249.35 655.04 248.91 663.17 248.59 671.27 248 679.28 247.49 687.19 247.03 695.08 246.27 702.88 245.52 710.6 244.79 718.31 243.72 725.94 242.63 733.49 241.54 741.05 240.1 748.53 238.64 755.9 237.19"
            stroke-dasharray="0 0" transform="rotate(65.55555555555556, 711, 400)" opacity="0.40"></path>
        <path
            d="M752.31 243.24C759.42 241.47 766.2 239.78 772.62 238.17 782.02 235.44 798.62 230.48 805.63 228.39 817.21 232.28 806.12 247 803.86 252.81 803.54 259.08 808.91 273.07 815.26 280.67 821.24 285.87 828.41 291.23 836.75 296.72 846.25 302.25 856.71 307.89 867.93 313.59 879.8 319.32 891.98 325.1 904.15 330.89 916.17 336.69 927.59 342.49 938.04 348.26 947.45 354.03 955.13 359.63 960.91 365.06 966.16 373.12 963.81 388.41 956.61 395.7 949.81 400.56 941.55 405.31 932.09 409.97 921.73 414.72 910.59 419.42 898.93 424.11 886.94 428.93 874.81 433.8 862.76 438.73 850.86 443.86 839.3 449.11 828.22 454.52 817.59 460.19 807.56 466.07 798.17 472.17 789.37 478.59 781.21 485.27 773.66 492.22 766.68 499.5 760.23 507.06 754.25 514.89 748.73 523.03 743.54 531.41 738.62 539.98 734.02 548.79 729.55 557.72 725.14 566.7 720.92 575.77 716.65 584.79 712.27 593.64 707.99 602.39 703.52 610.83 698.84 618.83 694.18 626.52 689.26 633.61 684.07 639.98 678.88 645.8 673.39 650.75 667.62 654.71 661.86 657.94 655.95 660.01 649.95 660.94 643.98 661.1 637.94 660.14 631.89 658.11 625.9 655.37 619.95 651.63 614.09 647.01 608.33 641.78 602.72 635.78 597.31 629.1 592.06 621.99 587.07 614.34 582.4 606.24 577.93 597.89 573.83 589.23 570.15 580.35 566.69 571.36 563.69 562.26 561.17 553.13 558.87 544.01 557.07 534.94 555.77 525.96 554.64 517.07 553.97 508.32 553.77 499.75 553.63 491.31 553.87 483.06 554.45 475.02 554.95 467.12 555.67 459.42 556.56 451.92 557.19 444.55 557.86 437.36 558.51 430.35 558.71 423.45 558.76 416.69 558.62 410.09 557.89 403.55 556.89 397.13 555.58 390.84 553.64 384.59 551.39 378.43 548.84 372.38 545.72 366.34 542.37 360.38 538.88 354.53 535 348.67 531.22 343.05 527.63 337.65 522.3 329.68 514.14 314.92 511.74 308.17 510.64 301.69 513.01 290.16 516.51 285.13 521.56 280.42 535.75 272.54 544.61 269.37 551.06 267.34 557.93 265.61 565.12 264.17 572.58 262.68 580.27 261.46 588.14 260.51 596.15 259.46 604.26 258.64 612.42 258.04 620.63 257.3 628.84 256.73 637.01 256.33 645.18 255.74 653.3 255.26 661.32 254.89 669.33 254.27 677.24 253.71 685.05 253.21 692.85 252.41 700.55 251.63 708.14 250.87 715.72 249.77 723.21 248.68 730.58 247.58 737.95 246.13 745.2 244.68 752.31 243.24"
            stroke-dasharray="0 0" transform="rotate(68.83333333333333, 711, 400)" opacity="0.42"></path>
        <path
            d="M747.94 249.29C754.77 247.55 761.24 245.88 767.33 244.3 776.2 241.62 791.64 236.74 798.04 234.68 806.99 238.67 798.19 262.04 800.35 268.41 803.23 272.83 807.12 277.47 812.11 282.31 818.33 287.21 825.66 292.28 834.03 297.48 843.46 302.73 853.73 308.08 864.67 313.52 876.17 318.99 887.92 324.51 899.63 330.07 911.18 335.64 922.14 341.22 932.17 346.81 941.24 352.39 948.68 357.83 954.34 363.13 959.65 371.01 958.23 386.11 951.84 393.37 945.67 398.23 938.09 403 929.32 407.71 919.67 412.51 909.21 417.29 898.18 422.06 886.78 426.98 875.17 431.94 863.54 436.99 840.61 447.65 819.04 458.94 799.58 471 782.13 484.2 766.94 498.44 753.79 513.63 747.85 521.65 742.26 529.87 736.96 538.26 731.97 546.84 727.16 555.52 722.45 564.22 717.94 572.99 713.43 581.68 708.88 590.19 704.43 598.59 699.86 606.68 695.14 614.34 690.45 621.69 685.56 628.47 680.46 634.55 675.36 640.12 670.04 644.86 664.49 648.66 656.12 652.79 639.11 654.56 630.61 652.29 625 649.77 619.46 646.32 614.04 642 608.72 637.12 603.56 631.5 598.63 625.21 593.84 618.51 589.32 611.27 585.12 603.6 581.1 595.66 577.45 587.4 574.21 578.92 568.3 561.62 564.16 543.95 561.92 526.45 560.23 509.24 560.14 492.52 561.43 476.56 561.94 468.76 562.64 461.14 563.48 453.72 564.04 446.41 564.61 439.27 565.14 432.32 565.23 425.46 565.17 418.76 564.91 412.21 564.07 405.72 562.97 399.37 561.58 393.15 559.58 386.96 557.28 380.89 554.7 374.94 551.57 369 548.23 363.17 544.75 357.45 540.89 351.73 537.13 346.25 533.56 341.02 528.23 333.28 519.92 319.04 517.35 312.57 516.81 300.85 525.16 286.06 531.02 282.17 540.65 277.15 552.45 273.28 565.81 270.56 580.23 267.61 595.56 265.63 611.25 264.53 619.24 263.78 627.24 263.19 635.21 262.75 643.22 262.12 651.17 261.6 659.04 261.18 666.91 260.52 674.7 259.92 682.37 259.37 690.04 258.54 697.59 257.73 705.02 256.94 712.46 255.82 719.77 254.71 726.92 253.6 734.09 252.16 741.11 250.72 747.94 249.29"
            stroke-dasharray="0 0" transform="rotate(72.1111111111111, 711, 400)" opacity="0.44"></path>
        <path
            d="M742.87 255.34C749.42 253.63 755.59 251.99 761.34 250.43 767.07 248.64 772.36 246.97 777.18 245.46 800.29 238.09 794 250.23 791.73 259.82 794.14 266.99 799.7 275.21 809.11 284.26 823.05 293.54 840.78 303.47 861.38 313.82 872.52 319.03 883.84 324.31 895.09 329.65 906.17 334.99 916.67 340.37 926.3 345.77 935.03 351.17 942.23 356.47 947.76 361.64 951.94 366.81 954.3 371.88 954.83 376.84 951.5 386.8 941.54 396.46 926.36 405.88 907.7 415.64 886.42 425.49 864.22 435.59 841.98 446.4 820.74 457.85 801.29 470.03 783.52 483.24 767.82 497.41 754.06 512.42 741.84 528.38 730.88 544.97 720.73 561.7 711.32 578.62 701.99 594.92 692.4 609.81 687.67 616.83 682.8 623.3 677.78 629.11 672.76 634.43 667.58 638.96 662.23 642.61 654.19 646.61 638.07 648.48 630.1 646.45 619.67 641.22 609.71 632.6 600.61 621.22 592 608.25 584.61 593.39 578.75 577.37 573.57 560.83 570.07 543.82 568.35 526.9 567.02 510.17 567.14 493.84 568.49 478.18 569.29 462.94 570.53 448.35 571.76 434.52 571.23 421.01 569.9 408.08 567.56 395.77 565.5 389.67 563.15 383.69 560.55 377.84 557.42 372.01 554.09 366.29 550.62 360.7 546.79 355.12 543.06 349.78 539.51 344.7 535.85 339.61 532.54 334.78 529.63 330.2 524.33 321.02 521.45 312.89 521.21 305.86 522.74 298.82 527.17 292.9 534.2 288.15 543.02 283.33 554 279.62 566.56 277 580.24 274.13 594.88 272.17 609.98 271.03 625.5 269.32 641.09 268.16 656.4 267.46 671.81 265.81 686.86 264.34 701.32 262.99 708.57 261.87 715.68 260.74 722.61 259.62 729.56 258.19 736.32 256.76 742.87 255.34"
            stroke-dasharray="0 0" transform="rotate(75.38888888888889, 711, 400)" opacity="0.45"></path>
        <path
            d="M737.2 261.39C749.73 257.75 760.59 254.49 769.62 251.71 790.83 244.09 786.79 254.81 786.29 263.69 789.75 270.33 796.23 278.01 806.27 286.52 820.44 295.25 838.01 304.64 858.09 314.51 879.83 324.44 901.33 334.71 920.43 345.16 936.19 355.62 945.71 365.74 948.54 375.5 945.95 385.34 937.09 394.97 923.2 404.46 905.92 414.28 885.91 424.25 864.77 434.51 843.32 445.43 822.54 456.99 803.24 469.23 785.32 482.41 769.24 496.46 755 511.24 742.15 526.85 730.58 542.97 719.93 559.15 710.01 575.42 700.34 591.04 690.64 605.25 681.12 618.32 671.22 629.01 660.89 636.56 650.57 641.74 640.33 643 630.42 640.57 620.67 635.8 611.5 627.79 603.27 617.15 595.45 604.97 588.87 590.93 583.78 575.7 579.25 559.92 576.31 543.61 575.03 527.29 573.99 511.08 574.27 495.17 575.63 479.86 576.34 464.9 577.38 450.54 578.36 436.91 577.59 423.56 576.04 410.79 573.51 398.68 568.74 386.68 562.96 375.18 556.49 364.27 548.65 353.36 541.5 343.48 535.6 334.64 530.2 325.77 527.07 317.95 526.44 311.22 527.46 304.45 531.24 298.79 537.53 294.25 545.55 289.62 555.69 286.04 567.44 283.5 580.31 280.68 594.22 278.72 608.65 277.54 623.58 275.78 638.64 274.54 653.47 273.74 668.47 272.01 683.1 270.46 697.13 269.05 711.22 266.47 724.68 263.9 737.2 261.39"
            stroke-dasharray="0 0" transform="rotate(78.66666666666666, 711, 400)" opacity="0.47"></path>
        <path
            d="M731.04 267.45C742.99 263.87 753.24 260.68 761.66 257.97 781.49 250.17 780.07 259.59 781.25 267.81 785.7 273.94 793 281.11 803.58 289.11 817.9 297.3 835.25 306.18 854.77 315.57 875.7 325.03 896.29 334.88 914.56 344.99 929.73 355.1 939.08 364.99 942.2 374.61 940.3 384.32 932.48 393.91 919.85 403.45 903.91 413.3 885.2 423.36 865.16 433.74 844.6 444.73 824.4 456.34 805.38 468.6 787.45 481.7 771.16 495.58 756.56 510.1 743.2 525.32 731.12 540.96 720.05 556.55 709.65 572.18 699.68 587.11 689.88 600.66 680.26 613.11 670.48 623.29 660.5 630.51 650.52 635.52 640.81 636.84 631.57 634.68 622.46 630.34 614.04 622.92 606.6 612.97 599.52 601.57 593.67 588.34 589.27 573.91 585.31 558.89 582.87 543.29 581.94 527.59 581.13 511.94 581.5 496.5 582.81 481.58 583.39 466.95 584.23 452.85 584.93 439.46 583.92 426.31 582.15 413.74 579.43 401.83 574.59 390.03 568.79 378.76 562.36 368.11 554.61 357.46 547.52 347.87 541.62 339.33 536.13 330.75 532.78 323.22 531.79 316.76 532.31 310.25 535.47 304.82 541.04 300.46 548.25 295.99 557.55 292.53 568.45 290.04 580.5 287.26 593.62 285.28 607.33 284.04 621.59 282.23 636.06 280.9 650.34 279.99 664.84 278.19 678.99 276.57 692.52 275.09 706.15 272.5 719.09 269.93 731.04 267.45"
            stroke-dasharray="0 0" transform="rotate(81.94444444444444, 711, 400)" opacity="0.49"></path>
        <path
            d="M724.5 273.5C735.87 270 745.55 266.89 753.41 264.25 772.37 256.33 773.83 264.57 776.62 272.16 781.97 277.82 789.99 284.5 801.03 292.02 815.42 299.69 832.5 308.09 851.43 317.03 871.55 326.02 891.23 335.47 908.69 345.24 923.28 355.02 932.45 364.68 935.81 374.17 934.55 383.73 927.72 393.28 916.29 402.84 901.68 412.69 884.26 422.81 865.37 433.26 845.76 444.28 826.25 455.9 807.63 468.12 789.86 481.09 773.49 494.76 758.67 508.97 744.93 523.78 732.45 538.91 721.02 553.91 710.23 568.89 699.99 583.15 690.1 596.04 680.4 607.89 670.72 617.58 661.06 624.46 651.4 629.3 642.18 630.66 633.56 628.76 625.04 624.82 617.31 617.97 610.6 608.71 604.18 598.05 598.99 585.62 595.2 571.97 591.74 557.74 589.7 542.85 589.06 527.8 588.41 512.73 588.81 497.8 590.02 483.31 590.45 469.04 591.04 455.26 591.47 442.14 590.21 429.23 588.21 416.89 585.33 405.21 580.41 393.63 574.62 382.59 568.23 372.21 560.58 361.82 553.57 352.5 547.68 344.24 542.13 335.94 538.58 328.67 537.25 322.47 537.3 316.19 539.86 310.96 544.72 306.76 551.14 302.43 559.59 299.05 569.65 296.6 580.83 293.85 593.13 291.85 606.07 290.54 619.61 288.66 633.41 287.25 647.08 286.23 661.01 284.36 674.63 282.66 687.62 281.12 700.73 278.52 713.12 275.96 724.5 273.5"
            stroke-dasharray="0 0" transform="rotate(85.22222222222221, 711, 400)" opacity="0.51"></path>
        <path
            d="M717.7 279.55C728.51 276.13 737.64 273.1 745.02 270.53 763.55 262.57 768.1 269.73 772.39 276.74 778.55 281.96 787.21 288.18 798.6 295.24 812.99 302.43 829.74 310.36 848.06 318.87 867.37 327.42 886.16 336.47 902.82 345.93 916.83 355.39 925.8 364.81 929.37 374.15 928.7 383.58 922.8 393.06 912.53 402.61 899.21 412.44 883.08 422.58 865.36 433.07 846.78 444.07 828.04 455.65 809.95 467.78 792.46 480.56 776.16 493.99 761.26 507.85 747.28 522.22 734.49 536.81 722.8 551.22 711.69 565.55 701.23 579.14 691.28 591.39 681.5 602.65 671.93 611.85 662.56 618.41 653.19 623.08 644.43 624.48 636.38 622.81 628.4 619.26 621.29 612.96 615.24 604.35 609.41 594.42 604.8 582.76 601.54 569.9 598.5 556.44 596.78 542.28 596.35 527.9 595.79 513.44 596.17 499.04 597.25 485.01 597.48 471.16 597.82 457.73 597.96 444.92 596.46 432.29 594.24 420.2 591.19 408.77 586.22 397.43 580.43 386.64 574.1 376.52 566.57 366.4 559.65 357.35 553.78 349.35 548.18 341.31 544.46 334.29 542.82 328.31 542.43 322.25 544.41 317.19 548.6 313.13 554.23 308.91 561.86 305.61 571.06 303.18 581.36 300.43 592.81 298.4 604.94 297.02 617.7 295.08 630.78 293.58 643.79 292.45 657.08 290.51 670.1 288.74 682.52 287.13 695.06 284.53 706.89 281.98 717.7 279.55"
            stroke-dasharray="0 0" transform="rotate(88.5, 711, 400)" opacity="0.53"></path>
        <path
            d="M710.78 285.6C721.02 282.27 729.65 279.32 736.61 276.83 755.11 268.88 762.86 275.09 768.56 281.55 775.44 286.37 784.63 292.16 796.28 298.78 810.6 305.52 826.99 313 844.67 321.1 863.16 329.22 881.08 337.9 896.95 347.04 910.38 356.18 919.14 365.38 922.89 374.57 922.76 383.83 917.73 393.23 908.56 402.75 896.5 412.53 881.65 422.65 865.12 433.12 847.61 444.06 829.73 455.56 812.27 467.55 795.2 480.12 779.1 493.25 764.24 506.73 750.15 520.63 737.19 534.68 725.32 548.48 713.97 562.16 703.35 575.09 693.36 586.71 683.54 597.39 674.08 606.12 664.98 612.36 655.88 616.85 647.53 618.29 640 616.84 632.51 613.66 625.96 607.87 620.5 599.9 615.19 590.68 611.08 579.78 608.26 567.69 605.56 554.99 604.09 541.57 603.79 527.86 603.27 514.04 603.57 500.21 604.47 486.68 604.5 473.27 604.56 460.23 604.4 447.76 602.66 435.44 600.23 423.64 597.02 412.48 592 401.4 586.23 390.88 579.97 381.02 572.57 371.17 565.75 362.38 559.92 354.63 554.3 346.84 550.43 340.05 548.51 334.27 548.43 325.95 560.96 313.82 572.71 309.77 582.12 307.02 592.69 304.94 604 303.48 615.93 301.47 628.25 299.88 640.54 298.65 653.15 296.64 665.52 294.81 677.34 293.14 689.28 290.54 700.53 288 710.78 285.6"
            stroke-dasharray="0 0" transform="rotate(91.77777777777777, 711, 400)" opacity="0.54"></path>
        <path
            d="M703.86 291.65C713.56 288.41 721.72 285.55 728.31 283.14 742.42 276.47 751.82 274.07 753.64 276.74 756.31 278.98 759.95 282.29 765.1 286.59 772.61 291.03 782.24 296.41 794.07 302.63 808.25 308.93 824.23 315.99 841.26 323.7 858.93 331.42 875.98 339.74 891.08 348.57 903.94 357.4 912.47 366.36 916.37 375.39 916.72 384.49 912.52 393.78 904.4 403.24 893.54 412.94 879.95 423 864.61 433.42 848.22 444.26 831.28 455.61 814.54 467.42 797.99 479.73 782.22 492.53 767.54 505.6 753.46 519.02 740.44 532.5 728.48 545.69 716.99 558.72 706.27 570.99 696.28 582 686.45 592.11 677.1 600.38 668.27 606.3 659.43 610.63 651.45 612.09 644.38 610.85 637.34 608.01 631.28 602.72 626.32 595.35 621.46 586.82 617.77 576.66 615.3 565.32 612.87 553.39 611.58 540.71 611.34 527.69 610.81 514.52 610.99 501.28 611.68 488.27 611.46 475.34 611.25 462.72 610.78 450.62 608.8 438.65 606.17 427.16 602.82 416.29 597.77 405.5 592.02 395.25 585.84 385.67 578.58 376.09 571.87 367.56 566.1 360.05 560.48 352.49 556.49 345.92 554.32 340.33 553.61 332.26 564.12 320.39 574.63 316.35 583.15 313.59 592.84 311.46 603.29 309.92 614.38 307.84 625.89 306.16 637.44 304.82 649.31 302.75 661 300.86 672.19 299.14 683.5 296.54 694.16 294.02 703.86 291.65"
            stroke-dasharray="0 0" transform="rotate(95.05555555555557, 711, 400)" opacity="0.56"></path>
        <path
            d="M697.07 297.7C706.24 294.55 713.97 291.78 720.25 289.46 734.12 283 745.19 280.43 748.2 282.83 751.67 284.84 756.12 287.86 762.01 291.85 770.06 295.94 780.03 300.94 791.96 306.78 805.94 312.68 821.45 319.34 837.81 326.67 854.67 334.01 870.86 341.97 885.21 350.5 897.5 359.03 905.79 367.76 909.81 376.6 910.6 385.53 907.16 394.68 900.03 404.06 890.33 413.65 877.97 423.61 863.83 433.93 848.58 444.62 832.62 455.8 816.68 467.38 800.78 479.39 785.45 491.82 771.05 504.46 757.13 517.36 744.15 530.27 732.21 542.84 720.66 555.23 709.92 566.86 699.97 577.25 690.17 586.81 680.95 594.63 672.36 600.25 663.77 604.41 656.13 605.88 649.48 604.83 642.82 602.32 637.19 597.5 632.66 590.71 628.18 582.84 624.83 573.4 622.63 562.81 620.4 551.63 619.21 539.69 618.97 527.36 618.37 514.86 618.4 502.23 618.84 489.76 618.38 477.34 617.87 465.18 617.1 453.48 614.89 441.89 612.07 430.74 608.58 420.19 603.51 409.7 597.81 399.74 591.71 390.43 584.6 381.12 578.02 372.85 572.32 365.57 564.68 355.06 558.96 338.6 561.5 332.51 564.95 328.55 570.16 325.36 576.85 322.91 584.49 320.13 593.29 317.95 602.89 316.32 613.1 314.17 623.78 312.4 634.56 310.97 645.67 308.84 656.65 306.89 667.18 305.12 677.84 302.53 687.9 300.03 697.07 297.7"
            stroke-dasharray="0 0" transform="rotate(98.33333333333334, 711, 400)" opacity="0.58"></path>
        <path
            d="M690.55 303.75C699.21 300.69 706.55 298.02 712.57 295.78 726.36 289.55 739.21 286.89 743.37 289.04 747.56 290.84 752.75 293.61 759.28 297.31 767.76 301.07 777.98 305.73 789.92 311.21 803.64 316.73 818.66 323.02 834.33 329.99 850.37 336.96 865.73 344.59 879.34 352.82 891.07 361.06 899.11 369.54 903.21 378.2 904.4 386.93 901.65 395.93 895.46 405.19 886.87 414.63 875.7 424.47 862.75 434.64 848.65 445.14 833.73 456.1 818.66 467.41 803.48 479.09 788.71 491.11 774.71 503.29 761.05 515.66 748.24 527.99 736.41 539.94 724.9 551.68 714.2 562.67 704.34 572.48 694.61 581.5 685.54 588.88 677.18 594.2 668.82 598.18 661.5 599.67 655.2 598.8 648.89 596.59 643.63 592.21 639.45 585.98 635.27 578.74 632.19 570 630.19 560.14 628.08 549.7 626.94 538.49 626.64 526.87 625.93 515.04 625.77 503.04 625.94 491.14 625.21 479.25 624.41 467.58 623.35 456.31 620.92 445.12 617.92 434.34 614.31 424.11 609.23 413.95 603.58 404.29 597.58 395.27 590.63 386.24 584.19 378.22 578.58 371.16 570.94 360.97 564.47 344.96 566.24 338.98 569.03 335.08 573.5 331.91 579.39 329.44 586.17 326.64 594.09 324.4 602.83 322.68 612.16 320.46 621.99 318.61 631.99 317.08 642.31 314.9 652.56 312.9 662.43 311.09 672.43 308.51 681.89 306.04 690.55 303.75"
            stroke-dasharray="0 0" transform="rotate(101.61111111111111, 711, 400)" opacity="0.60"></path>
        <path
            d="M684.41 309.8C692.58 306.84 699.56 304.27 705.38 302.12 719.21 296.14 733.89 293.43 739.12 295.38 743.97 297 749.8 299.54 756.88 302.96 765.7 306.44 776.08 310.78 787.96 315.92 801.36 321.09 815.85 327.02 830.82 333.65 846.06 340.28 860.59 347.58 873.47 355.52 884.64 363.45 892.42 371.69 896.58 380.14 898.11 388.66 896.01 397.5 890.69 406.6 883.15 415.87 873.14 425.53 861.35 435.52 848.41 445.8 834.55 456.49 820.41 467.49 806.04 478.8 791.91 490.39 778.41 502.08 765.13 513.91 752.59 525.64 740.96 536.97 729.59 548.08 719 558.45 709.28 567.67 699.67 576.17 690.77 583.12 682.64 588.15 674.52 591.96 667.47 593.45 661.49 592.74 655.47 590.81 650.52 586.86 646.63 581.16 642.69 574.53 639.81 566.46 637.93 557.31 635.89 547.6 634.73 537.12 634.33 526.19 633.47 515.05 633.08 503.69 632.97 492.37 631.96 481.04 630.87 469.87 629.52 459.06 626.88 448.3 623.71 437.91 620 428.04 614.92 418.22 609.33 408.88 603.45 400.14 596.67 391.4 590.39 383.63 584.88 376.8 577.28 366.91 570.16 351.32 571.22 345.44 573.4 341.59 577.15 338.43 582.27 335.92 588.22 333.1 595.28 330.8 603.17 328.99 611.62 326.72 620.6 324.78 629.81 323.17 639.33 320.93 648.84 318.89 658.05 317.05 667.37 314.48 676.25 312.05 684.41 309.8"
            stroke-dasharray="0 0" transform="rotate(104.88888888888889, 711, 400)" opacity="0.61"></path>
        <path
            d="M678.78 315.85C686.47 312.99 693.13 310.52 698.77 308.46 706.75 304.96 718.72 300.56 723.6 299.99 729.25 300.06 744.09 304.46 754.8 308.81 763.87 312.02 774.32 316.06 786.05 320.89 799.09 325.73 813.02 331.33 827.28 337.63 841.71 343.93 855.44 350.91 867.6 358.56 878.22 366.2 885.72 374.18 889.91 382.42 891.73 390.71 890.22 399.35 885.72 408.26 879.18 417.33 870.28 426.78 859.63 436.55 847.84 446.56 835.06 456.95 821.88 467.61 808.39 478.51 794.99 489.65 782.06 500.83 769.26 512.1 757.1 523.24 745.75 533.95 734.61 544.43 724.22 554.18 714.68 562.84 705.24 570.82 696.53 577.36 688.64 582.1 680.74 585.74 673.96 587.22 668.24 586.66 662.48 585 657.78 581.45 654.11 576.26 650.36 570.21 647.6 562.79 645.78 554.32 643.76 545.32 642.54 535.56 641.98 525.33 640.94 514.87 640.31 504.16 639.89 493.44 638.61 482.69 637.23 472.04 635.6 461.7 632.77 451.4 629.45 441.42 625.65 431.92 620.59 422.46 615.08 413.45 609.32 405.01 602.72 396.57 596.61 389.06 591.22 382.43 583.69 372.85 576.03 357.65 576.44 351.87 579.59 346.48 593.78 338.33 603.95 335.26 611.53 332.92 619.68 330.92 628.1 329.22 636.81 326.94 645.58 324.86 654.13 322.99 662.79 320.45 671.08 318.05 678.78 315.85"
            stroke-dasharray="0 0" transform="rotate(108.16666666666667, 711, 400)" opacity="0.63"></path>
        <path
            d="M673.75 321.91C681 319.15 687.36 316.78 692.86 314.82 700.73 311.48 713.32 307.3 718.87 306.75 723.08 306.5 727.5 307.04 732.39 308.39 738.32 309.71 745.14 311.86 753.02 314.82 762.24 317.79 772.68 321.57 784.21 326.11 796.83 330.65 810.17 335.94 823.71 341.93 837.35 347.91 850.28 354.58 861.74 361.93 871.81 369.29 879.02 377 883.21 385 885.29 393.05 884.31 401.46 880.56 410.16 874.96 418.99 867.11 428.2 857.56 437.71 846.91 447.41 835.22 457.47 823.02 467.74 810.46 478.21 797.85 488.87 785.58 499.52 773.36 510.23 761.66 520.76 750.68 530.86 739.85 540.72 729.72 549.86 720.42 557.97 711.21 565.45 702.72 571.58 695.06 576.05 684.12 580.25 667.58 577.56 661.81 571.26 658.2 565.76 655.51 558.97 653.7 551.16 651.64 542.86 650.31 533.8 649.56 524.26 648.32 514.49 647.42 504.43 646.7 494.32 645.15 484.16 643.49 474.06 641.59 464.21 638.58 454.38 635.14 444.84 631.26 435.73 626.23 426.65 620.82 417.98 615.19 409.84 608.79 401.71 602.85 394.45 597.6 388.04 590.18 378.76 582.07 363.94 581.91 358.23 584.21 352.89 596.24 344.65 605.21 341.47 611.95 339.08 619.27 337 626.92 335.23 634.84 332.92 642.87 330.81 650.77 328.91 658.78 326.4 666.51 324.05 673.75 321.91"
            stroke-dasharray="0 0" transform="rotate(111.44444444444444, 711, 400)" opacity="0.65"></path>
        <path
            d="M669.43 327.96C679.3 324.17 695.51 318.02 702.16 315.94 708.72 314.07 722.01 313.53 729.87 315.03 736.21 316.23 743.38 318.23 751.51 320.99 760.79 323.74 771.14 327.27 782.39 331.54 794.55 335.8 807.27 340.8 820.1 346.49 832.94 352.17 845.09 358.54 855.87 365.6 865.4 372.66 872.31 380.11 876.48 387.85 878.77 395.65 878.27 403.81 875.22 412.26 870.48 420.83 863.63 429.76 855.14 438.96 845.6 448.33 834.99 458.01 823.8 467.88 812.2 477.89 800.44 488.05 788.89 498.16 777.32 508.28 766.16 518.22 755.62 527.7 745.19 536.95 735.4 545.5 726.38 553.07 717.43 560.07 709.2 565.8 701.77 570 691.19 574.02 675.22 571.84 669.64 566.17 666.12 561.2 663.46 555.01 661.59 547.85 659.47 540.22 657.98 531.85 657.02 522.99 655.56 513.9 654.4 504.49 653.37 495 651.56 485.44 649.63 475.9 647.49 466.55 644.32 457.22 640.76 448.13 636.83 439.42 631.86 430.73 626.54 422.42 621.06 414.6 614.86 406.78 609.11 399.78 604.01 393.58 596.73 384.59 588.28 370.14 587.6 364.51 589.14 359.21 599.16 350.89 606.99 347.61 612.91 345.17 619.44 343.04 626.33 341.2 633.47 338.87 640.79 336.74 648.06 334.82 655.42 332.35 662.61 330.04 669.43 327.96"
            stroke-dasharray="0 0" transform="rotate(114.72222222222221, 711, 400)" opacity="0.67"></path>
        <path
            d="M665.89 334.01C675.23 330.38 691.15 324.57 698.02 322.62 704.94 320.88 719.39 320.36 727.88 321.76 734.54 322.87 741.98 324.72 750.25 327.3 759.51 329.86 769.68 333.17 780.6 337.18 792.26 341.19 804.35 345.9 816.44 351.31 828.51 356.69 839.9 362.77 850 369.54 858.99 376.3 865.6 383.47 869.72 390.94 872.18 398.46 872.1 406.35 869.68 414.52 865.75 422.8 859.84 431.42 852.37 440.28 843.9 449.29 834.35 458.57 824.17 468 813.55 477.53 802.68 487.17 791.91 496.73 781.05 506.27 770.5 515.6 760.47 524.48 750.51 533.12 741.11 541.1 732.42 548.15 723.8 554.67 715.84 560.02 708.67 563.95 698.44 567.78 682.98 566.08 677.52 561 674.05 556.53 671.37 550.91 669.42 544.37 667.19 537.39 665.54 529.69 664.34 521.5 662.66 513.08 661.22 504.33 659.89 495.45 657.83 486.5 655.65 477.53 653.28 468.7 649.97 459.88 646.33 451.25 642.36 442.96 637.45 434.68 632.26 426.74 626.93 419.24 620.95 411.74 615.4 405.01 610.46 399.03 603.35 390.34 594.67 376.26 593.54 370.69 594.4 365.44 602.55 357.05 609.3 353.68 614.45 351.21 620.22 349.02 626.39 347.13 632.78 344.78 639.41 342.64 646.07 340.72 652.81 338.29 659.47 336.03 665.89 334.01"
            stroke-dasharray="0 0" transform="rotate(118, 711, 400)" opacity="0.68"></path>
        <path
            d="M663.2 340.06C672.04 336.6 687.68 331.13 694.76 329.32 701.99 327.7 717.41 327.25 726.41 328.56 733.3 329.59 740.89 331.32 749.21 333.74 758.37 336.13 768.3 339.23 778.83 343.01 789.95 346.78 801.39 351.23 812.75 356.35 824.05 361.46 834.68 367.25 844.13 373.72 852.59 380.18 858.89 387.05 862.93 394.24 865.52 401.47 865.81 409.06 863.97 416.92 860.78 424.88 855.74 433.16 849.23 441.66 841.79 450.27 833.29 459.12 824.1 468.08 814.47 477.13 804.51 486.23 794.55 495.22 784.46 504.18 774.57 512.91 765.11 521.18 755.68 529.24 746.73 536.65 738.42 543.19 730.16 549.25 722.51 554.23 715.6 557.9 705.74 561.54 690.74 560.26 685.35 555.75 681.9 551.75 679.18 546.67 677.11 540.72 674.76 534.38 672.92 527.33 671.47 519.78 669.56 512.03 667.85 503.92 666.24 495.66 663.94 487.32 661.54 478.92 658.97 470.63 655.54 462.33 651.83 454.18 647.85 446.31 643.02 438.46 637.96 430.89 632.8 423.73 627.04 416.56 621.71 410.1 616.94 404.34 610.04 395.96 601.22 382.25 599.72 376.76 599.98 371.56 606.43 363.12 612.18 359.68 616.61 357.18 621.65 354.96 627.14 353.01 632.82 350.66 638.78 348.51 644.86 346.6 651.01 344.21 657.17 342.02 663.2 340.06"
            stroke-dasharray="0 0" transform="rotate(121.27777777777779, 711, 400)" opacity="0.70"></path>
        <path
            d="M661.42 346.11C669.78 342.82 685.14 337.69 692.38 336.03 699.86 334.54 716.06 334.17 725.42 335.42 732.44 336.39 740.09 338.01 748.37 340.29 757.35 342.53 766.97 345.43 777.06 349 787.61 352.54 798.39 356.74 809.02 361.6 819.55 366.43 829.46 371.93 838.26 378.1 846.19 384.26 852.17 390.83 856.12 397.71 858.8 404.63 859.41 411.9 858.08 419.44 855.56 427.04 851.34 434.95 845.73 443.06 839.27 451.25 831.77 459.65 823.56 468.12 814.91 476.65 805.87 485.21 796.74 493.63 787.47 502 778.29 510.14 769.44 517.82 760.59 525.29 752.14 532.16 744.25 538.2 736.39 543.82 729.09 548.43 722.45 551.84 712.97 555.3 698.38 554.4 693.04 550.41 689.59 546.86 686.8 542.29 684.59 536.91 682.11 531.17 680.08 524.75 678.38 517.84 676.25 510.73 674.29 503.27 672.4 495.62 669.89 487.89 667.28 480.07 664.53 472.31 661.02 464.54 657.26 456.87 653.29 449.44 648.56 442.03 643.65 434.86 638.67 428.03 633.15 421.21 628.04 415.03 623.47 409.49 616.79 401.43 607.93 388.1 606.13 382.69 608.34 373.32 621.57 361.95 628.61 358.85 633.61 356.5 638.95 354.37 644.48 352.46 650.06 350.13 655.75 348 661.42 346.11"
            stroke-dasharray="0 0" transform="rotate(124.55555555555556, 711, 400)" opacity="0.72"></path>
        <path
            d="M660.57 352.16C671.22 347.4 681.29 344.24 690.9 342.74 701.21 340.41 712.37 340.24 724.87 342.32 739.5 344.09 756.56 348.37 775.28 355.12 795.43 361.75 815.45 370.93 832.39 382.66 846.27 394.38 852.74 407.73 852.03 422.03 847.15 436.56 836.55 452.22 822.53 468.1 806.76 484.12 789.72 500.01 773.36 514.38 756.9 527.95 741.77 538.94 729.09 545.79 716.39 550.44 707 549.9 700.49 544.99 693.44 538.27 688.49 528.04 685.03 515.67 679.92 502.53 675.06 488.13 669.98 473.72 662.18 459.23 653.5 445.06 644.54 432.11 633.61 419.16 624.74 408.49 618.68 400.04 613.12 391.29 611.35 384.36 613.21 379.14 616.25 373.13 622.44 368.3 630.8 364.64 639.7 359.65 649.92 355.39 660.57 352.16"
            stroke-dasharray="0 0" transform="rotate(127.83333333333333, 711, 400)" opacity="0.74"></path>
        <path
            d="M660.67 358.21C670.66 353.73 680.51 350.8 690.27 349.46 700.66 347.35 712.05 347.26 724.72 349.27 739.17 350.96 755.71 354.99 773.49 361.35 792.34 367.59 810.88 376.25 826.52 387.35 839.5 398.44 845.87 411.11 845.81 424.66 842.14 438.39 833.22 453.13 820.98 468 807.1 482.93 791.76 497.65 776.76 510.88 761.59 523.35 747.45 533.44 735.38 539.74 723.3 544.12 714.18 543.8 707.62 539.5 700.56 533.6 695.33 524.45 691.38 513.25 685.94 501.35 680.7 488.17 675.31 474.84 667.52 461.41 659.03 448.17 650.41 435.94 640.03 423.71 631.58 413.52 625.7 405.34 620.14 396.89 618.01 390.09 619.21 384.87 621.35 378.93 626.45 374.09 633.75 370.38 641.48 365.49 650.68 361.33 660.67 358.21"
            stroke-dasharray="0 0" transform="rotate(131.11111111111111, 711, 400)" opacity="0.75"></path>
        <path
            d="M661.72 364.26C671.07 360.06 680.68 357.37 690.47 356.18 700.82 354.29 712.28 354.29 724.94 356.24 739.04 357.87 754.91 361.68 771.67 367.66 789.2 373.53 806.27 381.68 820.65 392.14 832.73 402.6 838.94 414.54 839.43 427.3 836.84 440.2 829.45 453.98 818.9 467.81 806.83 481.64 793.19 495.19 779.57 507.29 765.75 518.71 752.63 527.92 741.21 533.69 729.79 537.8 720.94 537.66 714.35 533.92 707.29 528.79 701.79 520.67 697.42 510.6 691.7 499.89 686.14 487.89 680.51 475.64 672.79 463.28 664.53 450.98 656.28 439.49 646.47 428 638.47 418.3 632.82 410.42 626.14 398.97 629.03 382.2 637.44 376.06 644.1 371.29 652.37 367.25 661.72 364.26"
            stroke-dasharray="0 0" transform="rotate(134.38888888888889, 711, 400)" opacity="0.77"></path>
        <path
            d="M663.71 370.31C672.43 366.4 681.74 363.94 691.46 362.91 701.66 361.24 713.02 361.33 725.48 363.22 739.07 364.81 754.15 368.41 769.82 374.03 786 379.54 801.64 387.18 814.78 396.99 825.97 406.8 831.97 417.99 832.91 429.92 831.25 441.95 825.25 454.75 816.28 467.51 805.94 480.23 793.95 492.62 781.72 503.64 769.26 514.02 757.2 522.39 746.47 527.64 735.74 531.48 727.19 531.5 720.58 528.27 713.56 523.85 707.85 516.69 703.1 507.7 697.16 498.13 691.37 487.3 685.57 476.11 677.99 464.82 670 453.46 662.15 442.72 652.93 431.99 645.4 422.81 640.02 415.25 633.4 404.25 634.71 387.79 641.84 381.69 647.56 377.06 654.98 373.17 663.71 370.31"
            stroke-dasharray="0 0" transform="rotate(137.66666666666666, 711, 400)" opacity="0.79"></path>
        <path
            d="M666.58 376.36C674.7 372.74 683.64 370.5 693.17 369.62 703.1 368.17 714.21 368.35 726.28 370.19 739.23 371.75 753.4 375.15 767.92 380.42 782.74 385.58 796.97 392.72 808.91 401.87 819.2 411.02 824.95 421.43 826.25 432.49 825.38 443.62 820.64 455.41 813.12 467.09 804.4 478.71 794 489.96 783.14 499.9 772.04 509.28 761.07 516.83 751.06 521.59 741.05 525.15 732.83 525.3 726.25 522.55 719.31 518.79 713.44 512.53 708.39 504.56 702.33 496.09 696.38 486.38 690.5 476.24 683.11 466.01 675.45 455.59 668.02 445.62 659.41 435.66 652.37 427.03 647.3 419.81 640.85 409.3 640.92 393.27 646.94 387.26 651.83 382.81 658.46 379.08 666.58 376.36"
            stroke-dasharray="0 0" transform="rotate(140.94444444444443, 711, 400)" opacity="0.81"></path>
        <path
            d="M670.29 382.42C677.81 379.08 686.33 377.07 695.55 376.34 705.08 375.1 715.78 375.37 727.3 377.16 739.49 378.68 752.66 381.9 765.96 386.82 779.43 391.63 792.27 398.26 803.04 406.73 812.44 415.2 817.88 424.81 819.45 434.97 819.25 445.18 815.61 455.94 809.42 466.54 802.2 477.06 793.31 487.18 783.78 496.09 774.02 504.5 764.15 511.26 754.9 515.54 745.64 518.82 737.8 519.08 731.31 516.75 724.5 513.59 718.55 508.17 713.29 501.17 707.18 493.74 701.17 485.13 695.29 476.02 688.16 466.81 680.87 457.34 673.9 448.17 665.9 438.99 659.39 430.93 654.66 424.09 648.48 414.12 647.63 398.63 652.7 392.77 656.86 388.52 662.77 384.97 670.29 382.42"
            stroke-dasharray="0 0" transform="rotate(144.2222222222222, 711, 400)" opacity="0.82"></path>
        <path
            d="M674.78 388.47C681.69 385.43 689.72 383.64 698.5 383.04 707.53 382.01 717.66 382.37 728.49 384.09 739.8 385.59 751.88 388.62 763.94 393.18 776.05 397.65 787.54 403.77 797.17 411.54 805.68 419.31 810.78 428.09 812.53 437.34 812.86 446.61 810.18 456.33 805.18 465.85 799.32 475.27 791.85 484.3 783.61 492.2 775.14 499.67 766.37 505.68 757.9 509.49 749.44 512.48 742.03 512.82 735.68 510.89 729.09 508.26 723.15 503.63 717.78 497.55 711.71 491.1 705.73 483.53 699.94 475.42 693.12 467.23 686.26 458.7 679.77 450.33 672.42 441.95 666.44 434.49 662.08 428.07 656.28 418.69 654.8 403.88 659.06 398.22 662.59 394.2 667.86 390.85 674.78 388.47"
            stroke-dasharray="0 0" transform="rotate(147.5, 711, 400)" opacity="0.84"></path>
        <path
            d="M679.94 394.52C686.25 391.78 693.71 390.21 701.94 389.74 710.36 388.9 719.79 389.33 729.8 390.99 740.13 392.45 751.05 395.28 761.85 399.49 772.61 403.61 782.77 409.2 791.3 416.26 798.93 423.32 803.64 431.25 805.49 439.56 806.24 447.88 804.37 456.55 800.43 465 795.79 473.35 789.62 481.31 782.59 488.23 775.37 494.8 767.68 500.08 760.02 503.44 752.37 506.14 745.45 506.54 739.34 504.95 733.03 502.82 727.19 498.9 721.83 493.68 715.9 488.16 710.06 481.58 704.45 474.45 698.02 467.25 691.61 459.65 685.64 452.09 678.95 444.53 673.54 437.7 669.57 431.74 664.21 423.01 662.38 409 665.96 403.61 668.96 399.84 673.63 396.72 679.94 394.52"
            stroke-dasharray="0 0" transform="rotate(150.77777777777777, 711, 400)" opacity="0.86"></path>
        <path
            d="M685.69 400.57C697.09 395.28 713.28 394.48 731.17 397.82 749.87 400.49 769.99 408.18 785.43 420.85 798.08 433.52 800.67 449.15 795.17 463.99 787.5 478.47 774.87 491.05 761.22 497.39 747.57 501.67 735.47 498.18 725.43 489.58 713.67 480.03 701.69 466.93 691.51 453.45 679.07 439.97 671.75 428.58 670.49 420.36 669.21 411.27 674.29 404.15 685.69 400.57"
            stroke-dasharray="0 0" transform="rotate(154.05555555555554, 711, 400)" opacity="0.88"></path>
        <path
            d="M691.92 406.62C702.06 402.03 716.62 401.48 732.55 404.59 748.94 407.16 766.32 414.09 779.56 425.28 790.68 436.46 793.5 450.05 789.44 462.8 783.73 475.23 773.41 485.96 761.47 491.33 749.52 495.17 738.25 492.41 728.58 485.25 717.64 477.35 706.58 466.2 697.38 454.39 686.42 442.57 679.98 432.29 678.81 424.68 677.49 416.42 681.78 409.89 691.92 406.62"
            stroke-dasharray="0 0" transform="rotate(157.33333333333331, 711, 400)" opacity="0.89"></path>
        <path
            d="M698.51 412.67C707.34 408.76 720.1 408.44 733.89 411.28 747.91 413.71 762.58 419.84 773.69 429.51 783.26 439.17 786.11 450.72 783.24 461.42 779.19 471.87 770.98 480.81 760.76 485.28 750.54 488.63 740.32 486.52 731.28 480.69 721.36 474.31 711.39 465.03 703.25 454.9 693.8 444.76 688.28 435.68 687.27 428.79 686.05 421.44 689.68 415.6 698.51 412.67"
            stroke-dasharray="0 0" transform="rotate(160.61111111111111, 711, 400)" opacity="0.91"></path>
        <path
            d="M705.34 418.72C712.82 415.49 723.61 415.35 735.14 417.88 746.75 420.1 758.76 425.39 767.82 433.5 775.82 441.61 778.54 451.15 776.62 459.86 773.92 468.38 767.6 475.62 759.12 479.23 750.63 482.07 741.67 480.52 733.53 475.91 724.83 470.91 716.11 463.42 709.12 454.97 701.2 446.52 696.63 438.73 695.83 432.7 694.8 426.34 697.85 421.26 705.34 418.72"
            stroke-dasharray="0 0" transform="rotate(163.88888888888889, 711, 400)" opacity="0.93"></path>
        <path
            d="M712.27 424.77C724.46 419.23 747.25 424.15 761.95 437.23 773.98 450.31 770.07 467.11 756.56 473.18 743.05 477.29 725.79 468.12 714.99 454.62 701.8 441.1 700.07 428.53 712.27 424.77"
            stroke-dasharray="0 0" transform="rotate(167.16666666666666, 711, 400)" opacity="0.95"></path>
        <path
            d="M719.18 430.82C728.47 426.78 745.37 430.8 756.08 440.67 765.29 450.54 763.2 462.8 753.15 467.13 743.09 470.37 729.36 463.94 720.86 453.83 710.98 443.71 709.87 433.86 719.18 430.82"
            stroke-dasharray="0 0" transform="rotate(170.44444444444443, 711, 400)" opacity="0.96"></path>
        <path d="M725.93 436.88C742.18 453.19 719.9 442.46 725.93 436.88" stroke-dasharray="0 0"
            transform="rotate(173.72222222222223, 711, 400)" opacity="0.98"></path>
    </g>
</svg>