<svg xmlns="http://www.w3.org/2000/svg" version="1.1" xmlns:xlink="http://www.w3.org/1999/xlink"
    xmlns:svgjs="http://svgjs.dev/svgjs" viewBox="0 0 800 800">
    <g
        transform="matrix(-0.03489949670250165,0.9993908270190957,-0.9993908270190957,-0.03489949670250165,1109.716129488639,-289.7965321266376)">
        <circle r="350" cx="674" cy="61" stroke-width="0.5" stroke="#878787" fill="none"
            opacity="0.68"
            transform="matrix(0.6560590289905073,-0.9543826219940322,-0.754709580222772,2.6221447034485,368.84723082818414,638.6355387049355)"></circle>
        <circle r="345.7916666666667" cx="671.35" cy="63.53333333333333" stroke-width="0.5"
            stroke="#868686" fill="none" opacity="0.6766666666666667"
            transform="matrix(0.6965392149458957,-1.1739214146099755,-0.7175187259176972,2.6449488531403844,336.1757385842093,767.1576571343757)"></circle>
        <circle r="341.5833333333333" cx="668.7" cy="66.06666666666666" stroke-width="0.5"
            stroke="#858585" fill="none" opacity="0.6733333333333333"
            transform="matrix(0.7349145951499598,-1.4048746160314503,-0.6781596698680706,2.6570833110416934,304.3498207201834,903.3251527742016)"></circle>
        <circle r="337.375" cx="666.05" cy="68.6" stroke-width="0.5" stroke="#848484" fill="none"
            opacity="0.67"
            transform="matrix(0.7710692066831263,-1.647837453068497,-0.636751347470152,2.6576897389903174,273.4656489569859,1047.606937647725)"></circle>
        <circle r="333.1666666666667" cx="663.4" cy="71.13333333333333" stroke-width="0.5"
            stroke="#838383" fill="none" opacity="0.6666666666666667"
            transform="matrix(0.8048937973559142,-1.903546111322349,-0.5934188866037015,2.64581516341097,243.6165492423268,1200.5718271606056)"></circle>
        <circle r="328.9583333333333" cx="660.75" cy="73.66666666666667" stroke-width="0.5"
            stroke="#818181" fill="none" opacity="0.6633333333333333"
            transform="matrix(0.8362861558477596,-2.172913699123226,-0.5482932295199138,2.6203875960841145,214.8927197379221,1362.912540351761)"></circle>
        <circle r="324.75" cx="658.1" cy="76.2" stroke-width="0.5" stroke="#808080" fill="none"
            opacity="0.66"
            transform="matrix(0.8651514205697044,-2.457076389242519,-0.5015107371594574,2.58018439102391,187.38095825822916,1535.4784728012141)"></circle>
        <circle r="320.5416666666667" cx="655.45" cy="78.73333333333333" stroke-width="0.5"
            stroke="#7f7f7f" fill="none" opacity="0.6566666666666667"
            transform="matrix(0.8914023663176305,-2.757453320191191,-0.45321277709628727,2.523790784010096,161.16439998436738,1719.3169817125402)"></circle>
        <circle r="316.3333333333333" cx="652.8" cy="81.26666666666667" stroke-width="0.5"
            stroke="#7e7e7e" fill="none" opacity="0.6533333333333333"
            transform="matrix(0.9149596678498249,-3.075825363330528,-0.40354529635239,2.4495449761631205,136.32226624580494,1915.72698422437)"></circle>
        <circle r="312.125" cx="650.15" cy="83.8" stroke-width="0.5" stroke="#7d7d7d" fill="none"
            opacity="0.65"
            transform="matrix(0.9357521395924006,-3.4144401568958678,-0.35265838037432834,2.355464489320912,112.92962512894155,2126.333299390724)"></circle>
        <circle r="307.9166666666667" cx="647.5" cy="86.33333333333333" stroke-width="0.5"
            stroke="#7b7b7b" fill="none" opacity="0.6466666666666667"
            transform="matrix(0.9537169507482269,-3.7761543317400337,-0.3007057995042731,2.2391460125585705,91.05716463598105,2353.183647984738)"></circle>
        <circle r="303.7083333333333" cx="644.85" cy="88.86666666666667" stroke-width="0.5"
            stroke="#7a7a7a" fill="none" opacity="0.6433333333333333"
            transform="matrix(0.9687998151593519,-4.164629383458531,-0.24784454431599987,2.0976270226208107,70.77097907956727,2598.8862595968803)"></circle>
        <circle r="299.5" cx="642.2" cy="91.4" stroke-width="0.5" stroke="#797979" fill="none"
            opacity="0.64"
            transform="matrix(0.9809551553491915,-4.584606536285558,-0.19423435121997198,1.9271911318935975,52.13236935865211,2866.7983894692843)"></circle>
        <circle r="295.2916666666667" cx="639.55" cy="93.93333333333334" stroke-width="0.5"
            stroke="#787878" fill="none" opacity="0.6366666666666667"
            transform="matrix(0.9901462402487812,-5.042300629655629,-0.14003721977104144,1.7230886631434101,35.19765771912739,3161.30303731967)"></circle>
        <circle r="291.0833333333333" cx="636.9" cy="96.46666666666667" stroke-width="0.5"
            stroke="#767676" fill="none" opacity="0.6333333333333334"
            transform="matrix(0.9963452961909064,-5.545978062766379,-0.08541692313736743,1.4791261498829489,20.01801755897418,3488.2063504188854)"></circle>
        <circle r="286.875" cx="634.25" cy="99" stroke-width="0.5" stroke="#757575" fill="none"
            opacity="0.63"
            transform="matrix(0.9995335908367129,-6.106827894404961,-0.03053851320982266,1.187047093965278,6.639318792227982,3855.346096188662)"></circle>
        <circle r="282.6666666666667" cx="631.6" cy="101.53333333333333" stroke-width="0.5"
            stroke="#747474" fill="none" opacity="0.6266666666666667"
            transform="matrix(0.9997014897811831,-6.740315946630588,0.02443217815265313,0.8355688258197846,-4.8980107609606875,4273.529271221371)"></circle>
        <circle r="278.45833333333337" cx="628.95" cy="104.06666666666666" stroke-width="0.5"
            stroke="#727272" fill="none" opacity="0.6233333333333334"
            transform="matrix(0.9968484856664305,-7.468366607312628,0.07932904023460939,0.4088300787749367,-14.559107539319939,4758.050586723512)"></circle>
        <circle r="274.25" cx="626.3" cy="106.6" stroke-width="0.5" stroke="#717171" fill="none"
            opacity="0.62"
            transform="matrix(0.9909831997148363,-8.323030085597154,0.133986185418292,-0.1162189755830213,-22.31477759134384,5331.236838039666)"></circle>
        <circle r="270.0416666666667" cx="623.65" cy="109.13333333333333" stroke-width="0.5"
            stroke="#707070" fill="none" opacity="0.6166666666666667"
            transform="matrix(0.9821233556773956,-9.352966761778214,0.1882384504636923,-0.7744322198212583,-28.141584793723723,6026.955024169985)"></circle>
        <circle r="265.83333333333337" cx="621" cy="111.66666666666666" stroke-width="0.5"
            stroke="#6e6e6e" fill="none" opacity="0.6133333333333334"
            transform="matrix(0.9702957262759965,-10.635644955381625,0.24192189559966773,-1.6211504863245527,-32.02192167074463,6899.082570336423)"></circle>
        <circle r="261.625" cx="618.35" cy="114.19999999999999" stroke-width="0.5" stroke="#6d6d6d"
            fill="none" opacity="0.61"
            transform="matrix(0.9555360523014723,-12.302137515499382,0.29487429991797853,-2.7498535309566483,-33.944062600646475,8038.737521719339)"></circle>
        <circle r="257.4166666666667" cx="615.7" cy="116.73333333333333" stroke-width="0.5"
            stroke="#6c6c6c" fill="none" opacity="0.6066666666666667"
            transform="matrix(0.9378889346118977,-14.59285800496466,0.3469356515732558,-4.331837758539727,-33.9021992481662,9612.998813943163)"></circle>
        <circle r="253.20833333333334" cx="613.05" cy="119.26666666666667" stroke-width="0.5"
            stroke="#6a6a6a" fill="none" opacity="0.6033333333333334"
            transform="matrix(0.9174076993574882,-18.001103122901966,0.39794863130761043,-6.718402684109412,-31.89645811619573,11964.627207389458)"></circle>
        <circle r="249" cx="610.4" cy="121.8" stroke-width="0.5" stroke="#696969" fill="none"
            opacity="0.6"
            transform="matrix(0.8941542368393682,-23.723251794076596,0.44775908783876955,-10.761344282053438,-27.932900163514887,15924.836588153901)"></circle>
        <circle r="244.79166666666669" cx="607.75" cy="124.33333333333333" stroke-width="0.5"
            stroke="#676767" fill="none" opacity="0.5966666666666667"
            transform="matrix(0.8681988144891423,-35.60256267344581,0.4962165036752082,-19.196731086878476,-22.023502489754947,24163.705566292738)"></circle>
        <circle r="240.58333333333334" cx="605.1" cy="126.86666666666666" stroke-width="0.5"
            stroke="#666666" fill="none" opacity="0.5933333333333334"
            transform="matrix(0.8396198645344133,-76.49798809037945,0.5431744499506704,-48.2977527286251,-14.186122142937961,52562.10981434068)"></circle>
        <circle r="236.375" cx="602.45" cy="129.39999999999998" stroke-width="0.5" stroke="#646464"
            fill="none" opacity="0.5900000000000001"
            transform="matrix(0.8085037469918761,308.23648623909645,0.5884910289036668,225.59500510803383,-4.444442158958395,-214736.62739775784)"></circle>
        <circle r="232.16666666666669" cx="599.8" cy="131.93333333333334" stroke-width="0.5"
            stroke="#636363" fill="none" opacity="0.5866666666666667"
            transform="matrix(0.7749444887041795,46.93631476978478,0.6320293026648509,39.570739247248014,7.172100003936407,-33213.80843263629)"></circle>
        <circle r="227.95833333333334" cx="597.15" cy="134.46666666666667" stroke-width="0.5"
            stroke="#616161" fill="none" opacity="0.5833333333333334"
            transform="matrix(0.7390434992091337,23.985411417515937,0.6736577070565727,23.216437566521353,20.628401419406487,-17278.370220513312)"></circle>
        <circle r="223.75" cx="594.5" cy="137" stroke-width="0.5" stroke="#606060" fill="none"
            opacity="0.5800000000000001"
            transform="matrix(0.7009092642998509,15.340211011092915,0.7132504491541816,17.037030329040387,35.88379976722206,-11280.258274281743)"></circle>
        <circle r="219.54166666666669" cx="591.85" cy="139.53333333333333" stroke-width="0.5"
            stroke="#5e5e5e" fill="none" opacity="0.5766666666666667"
            transform="matrix(0.6606570182018239,10.765479200937605,0.7506878874077262,13.746186883780837,52.89219620686947,-8108.703449587629)"></circle>
        <circle r="215.33333333333334" cx="589.2" cy="142.06666666666666" stroke-width="0.5"
            stroke="#5c5c5c" fill="none" opacity="0.5733333333333334"
            transform="matrix(0.6184083953575542,7.912341193169989,0.7858568931754019,11.671846504662994,71.602194679263,-6131.84474756736)"></circle>
        <circle r="211.125" cx="586.55" cy="144.6" stroke-width="0.5" stroke="#5b5b5b" fill="none"
            opacity="0.5700000000000001"
            transform="matrix(0.5742910628709756,5.949560303921489,0.8186511925762553,10.222368094606079,91.95725721561791,-4772.169627559286)"></circle>
        <circle r="206.91666666666669" cx="583.9" cy="147.13333333333333" stroke-width="0.5"
            stroke="#595959" fill="none" opacity="0.5666666666666667"
            transform="matrix(0.5284383347223471,4.508364626744922,0.8489716876291414,9.135359054054282,113.89587478417275,-3773.4623364602703)"></circle>
        <circle r="202.70833333333334" cx="581.25" cy="149.66666666666666" stroke-width="0.5"
            stroke="#575757" fill="none" opacity="0.5633333333333334"
            transform="matrix(0.48098876891938774,3.4001534634367356,0.8767267557075077,8.276711998599161,137.3517531584955,-3004.678505796888)"></circle>
        <circle r="198.5" cx="578.6" cy="152.2" stroke-width="0.5" stroke="#555555" fill="none"
            opacity="0.56"
            transform="matrix(0.4320857488019825,2.518478363403541,0.9018325264051137,7.570825268444544,162.2540132457151,-2391.852982118562)"></circle>
        <circle r="194.29166666666669" cx="575.95" cy="154.73333333333335" stroke-width="0.5"
            stroke="#545454" fill="none" opacity="0.5566666666666666"
            transform="matrix(0.38187704976567477,1.7987302322622372,0.9242131349760532,6.971903937586664,188.5274052693253,-1890.0911126250342)"></circle>
        <circle r="190.08333333333334" cx="573.3" cy="157.26666666666665" stroke-width="0.5"
            stroke="#525252" fill="none" opacity="0.5533333333333333"
            transform="matrix(0.330514392713223,1.1994388208223237,0.9438009515832294,6.45064646945004,216.0925361593429,-1470.577689231852)"></circle>
        <circle r="185.875" cx="570.65" cy="159.8" stroke-width="0.5" stroke="#505050" fill="none"
            opacity="0.55"
            transform="matrix(0.278152985583603,0.692775421316531,0.9605367856625419,5.987483013648337,244.86610946269184,-1113.9786811007132)"></circle>
        <circle r="181.66666666666669" cx="568" cy="162.33333333333331" stroke-width="0.5"
            stroke="#4e4e4e" fill="none" opacity="0.5466666666666666"
            transform="matrix(0.22495105434386492,0.2593751615068175,0.9743700647852352,5.56888873704114,274.7611770488503,-806.8444006234497)"></circle>
        <circle r="177.45833333333334" cx="565.35" cy="164.86666666666667" stroke-width="0.5"
            stroke="#4c4c4c" fill="none" opacity="0.5433333333333333"
            transform="matrix(0.1710693648611026,-0.1146517329601272,0.9852589874779214,5.185255410232769,305.68740185015315,-539.532897661677)"></circle>
        <circle r="173.25" cx="562.7" cy="167.39999999999998" stroke-width="0.5" stroke="#4a4a4a"
            fill="none" opacity="0.54"
            transform="matrix(0.1166707370993335,-0.4395283249146955,0.993170649538486,4.829603224107239,337.5513308428055,-304.9538437067532)"></circle>
        <circle r="169.04166666666669" cx="560.05" cy="169.93333333333334" stroke-width="0.5"
            stroke="#484848" fill="none" opacity="0.5366666666666666"
            transform="matrix(0.06191955310930218,-0.7229492731505908,0.9980811434661735,4.496769579300947,370.25667744370577,-97.77773138062128)"></circle>
        <circle r="164.83333333333334" cx="557.4" cy="172.46666666666667" stroke-width="0.5"
            stroke="#464646" fill="none" opacity="0.5333333333333333"
            transform="matrix(0.006981260297961624,-0.9708218797476051,0.9999756307053947,4.1828806333604,403.70461246973355,86.07910702040886)"></circle>
        <circle r="160.625" cx="554.75" cy="175" stroke-width="0.5" stroke="#444444" fill="none"
            opacity="0.53"
            transform="matrix(-0.047978128521344005,-1.1877627194217544,0.9988483864849507,3.8849968009584868,437.7940627802782,249.7996703448904)"></circle>
        <circle r="156.41666666666669" cx="552.1" cy="177.53333333333333" stroke-width="0.5"
            stroke="#414141" fill="none" opacity="0.5266666666666666"
            transform="matrix(-0.10279253678724679,-1.377438980584988,0.9947028171171742,3.600868759188155,472.42201670057176,395.90304771728194)"></circle>
        <circle r="152.20833333333334" cx="549.45" cy="180.06666666666666" stroke-width="0.5"
            stroke="#3f3f3f" fill="none" opacity="0.5233333333333333"
            transform="matrix(-0.1572963260413543,-1.5428083340891385,0.9875514497047189,3.3287656496731666,507.4838353028927,526.4116745236438)"></circle>
        <circle r="148" cx="546.8" cy="182.6" stroke-width="0.5" stroke="#3c3c3c" fill="none"
            opacity="0.52"
            transform="matrix(-0.21132479645538843,-1.6862908296816015,0.9774158942860959,3.0673516321428207,542.8735686050113,642.9702186904741)"></circle>
        <circle r="143.79166666666669" cx="544.15" cy="185.13333333333333" stroke-width="0.5"
            stroke="#3a3a3a" fill="none" opacity="0.5166666666666666"
            transform="matrix(-0.2647146845219644,-1.80989424367415,0.9643267785343498,2.8155955414264664,578.4842757303853,746.9333486819304)"></circle>
        <circle r="139.58333333333334" cx="541.5" cy="187.66666666666666" stroke-width="0.5"
            stroke="#373737" fill="none" opacity="0.5133333333333333"
            transform="matrix(-0.317304656405092,-1.915306911442947,0.9483236552061994,2.572703660733836,614.2083480626472,839.4299459307224)"></circle>
        <circle r="135.37500000000003" cx="538.85" cy="190.2" stroke-width="0.5" stroke="#343434"
            fill="none" opacity="0.51"
            transform="matrix(-0.3689357954595825,-2.0039674378257226,0.9294548826213165,2.3380689277566895,649.937834417869,921.4116271943898)"></circle>
        <circle r="131.16666666666669" cx="536.2" cy="192.73333333333332" stroke-width="0.5"
            stroke="#313131" fill="none" opacity="0.5066666666666666"
            transform="matrix(-0.41945208244617677,-2.0771176958874134,0.9077774785329088,2.111232013497977,685.5647672519999,993.6899891796687)"></circle>
        <circle r="126.95833333333334" cx="533.55" cy="195.26666666666665" stroke-width="0.5"
            stroke="#2e2e2e" fill="none" opacity="0.5033333333333333"
            transform="matrix(-0.4687008669912815,-2.135843566873196,0.8833569478311817,1.8918511074451776,720.9814889177436,1056.9647650066881)"></circle>
        <circle r="122.75000000000003" cx="530.9" cy="197.79999999999998" stroke-width="0.5"
            stroke="#2b2b2b" fill="none" opacity="0.5"
            transform="matrix(-0.5165333288666418,-2.1811065645216794,0.8562670846003282,1.6796781750933536,756.0809769849832,1111.8461265674302)"></circle>
        <circle r="118.54166666666669" cx="528.25" cy="200.33333333333331" stroke-width="0.5"
            stroke="#272727" fill="none" opacity="0.49666666666666665"
            transform="matrix(-0.5628049276950686,-2.213768595410736,0.8265897491271886,1.4745400885257394,790.757167641707,1158.871838668445)"></circle>
        <circle r="114.33333333333334" cx="525.6" cy="202.86666666666667" stroke-width="0.5"
            stroke="#232323" fill="none" opacity="0.4933333333333333"
            transform="matrix(-0.6073758397232868,-2.2346114904101566,0.794414620535418,1.2763234697505337,824.9052761981777,1198.5213266880169)"></circle>
        <circle r="110.12500000000003" cx="522.95" cy="205.4" stroke-width="0.5" stroke="#1e1e1e"
            fill="none" opacity="0.49"
            transform="matrix(-0.6501113803420655,-2.2443525095645187,0.7598389257926539,1.0849623945921738,858.4221137258404,1231.2261200914031)"></circle>
        <circle r="105.91666666666669" cx="520.3" cy="207.93333333333334" stroke-width="0.5"
            stroke="#191919" fill="none" opacity="0.4866666666666667"
            transform="matrix(-0.690882411076858,-2.243656714883073,0.7229671459095686,0.9004283241054297,891.2063988741543,1257.3794971998732)"></circle>
        <circle r="101.70833333333334" cx="517.65" cy="210.46666666666667" stroke-width="0.5"
            stroke="#111111" fill="none" opacity="0.4833333333333333"
            transform="matrix(-0.7295657298191018,-2.2331468837688737,0.6839107002186187,0.7227217883440546,923.1590639230941,1277.3426023493714)"></circle>
        <circle r="97.50000000000003" cx="515" cy="213" stroke-width="0.5" stroke="#000000"
            fill="none" opacity="0.48"
            transform="matrix(-0.7660444431189779,-2.2134114742338524,0.6427876096865395,0.5518654623409072,954.1835541464902,1291.4508921145664)"></circle>
    </g>
</svg>