<svg xmlns="http://www.w3.org/2000/svg" version="1.1" xmlns:xlink="http://www.w3.org/1999/xlink"
    xmlns:svgjs="http://svgjs.dev/svgjs" viewBox="0 0 800 800">
    <g
        transform="matrix(-0.3907311284892738,-0.9205048534524403,0.9205048534524403,-0.3907311284892738,258.0905100147334,1114.4943927766856)">
        <circle r="350" cx="800" cy="193" stroke-width="0.5" stroke="#c7c7c7" fill="none"
            opacity="1"
            transform="matrix(0.5684576931880513,0.7273637425498514,-1.115661040586093,-1.633685713771565,239.8031259207462,497.5543247506206)"></circle>
        <circle r="344.18333333333334" cx="794.25" cy="196.41666666666666" stroke-width="0.5"
            stroke="#c5c5c5" fill="none" opacity="0.9921666666666666"
            transform="matrix(0.6042838153859292,0.7642043029660466,-1.1029851553505852,-1.6314014959220682,223.54208472888956,469.3765924135575)"></circle>
        <circle r="338.3666666666667" cx="788.5" cy="199.83333333333334" stroke-width="0.5"
            stroke="#c4c4c4" fill="none" opacity="0.9843333333333333"
            transform="matrix(0.6399049988788179,0.8013299894715961,-1.0892392779822775,-1.6285175731601857,207.20436590759186,441.1436419428622)"></circle>
        <circle r="332.55" cx="782.75" cy="203.25" stroke-width="0.5" stroke="#c2c2c2" fill="none"
            opacity="0.9765"
            transform="matrix(0.6752923459252198,0.83873819216487,-1.0744242540639182,-1.6250254774182922,190.7970543629333,412.86666778067)"></circle>
        <circle r="326.73333333333335" cx="777" cy="206.66666666666666" stroke-width="0.5"
            stroke="#c0c0c0" fill="none" opacity="0.9686666666666667"
            transform="matrix(0.7104168847803913,0.8764263461554833,-1.058541618554915,-1.620916618448376,174.32715416550343,384.55654731782863)"></circle>
        <circle r="320.9166666666667" cx="771.25" cy="210.08333333333334" stroke-width="0.5"
            stroke="#bfbfbf" fill="none" opacity="0.9608333333333333"
            transform="matrix(0.745249584688876,0.9143919363389663,-1.0415935977553206,-1.6161822759798725,157.80159173663776,356.22389052192796)"></circle>
        <circle r="315.1" cx="765.5" cy="213.5" stroke-width="0.5" stroke="#bdbdbd" fill="none"
            opacity="0.953"
            transform="matrix(0.779761370862201,0.9526325023772094,-1.0235831109043727,-1.6108135914192563,141.2272143155402,327.87909492499915)"></circle>
        <circle r="309.2833333333333" cx="759.75" cy="216.91666666666666" stroke-width="0.5"
            stroke="#bbbbbb" fill="none" opacity="0.9451666666666667"
            transform="matrix(0.813923139430036,0.9911456438967287,-1.0045137714140828,-1.6048015590637745,124.6107826229752,299.5321857699159)"></circle>
        <circle r="303.4666666666667" cx="754" cy="220.33333333333334" stroke-width="0.5"
            stroke="#bababa" fill="none" opacity="0.9373333333333334"
            transform="matrix(0.8477057723529652,1.0299290259176308,-0.9843898877386831,-1.5981370167997713,107.95897222302824,271.1928679338207)"></circle>
        <circle r="297.65" cx="748.25" cy="223.75" stroke-width="0.5" stroke="#b8b8b8" fill="none"
            opacity="0.9295"
            transform="matrix(0.8810801522849033,1.068980384527141,-0.9632164638810213,-1.5908106362539258,91.27836977352172,242.8705826927125)"></circle>
        <circle r="291.8333333333333" cx="742.5" cy="227.16666666666666" stroke-width="0.5"
            stroke="#b6b6b6" fill="none" opacity="0.9216666666666666"
            transform="matrix(0.9140171773730342,1.1082975328125388,-0.940999199537315,-1.5828129123634305,74.57547151014478,214.57434213478876)"></circle>
        <circle r="286.01666666666665" cx="736.75" cy="230.58333333333331" stroke-width="0.5"
            stroke="#b4b4b4" fill="none" opacity="0.9138333333333334"
            transform="matrix(0.9464877759830254,1.1478783670694872,-0.9177444898819787,-1.5741341523286565,57.85668259651345,186.3127830431912)"></circle>
        <circle r="280.2" cx="731" cy="234" stroke-width="0.5" stroke="#b3b3b3" fill="none"
            opacity="0.906"
            transform="matrix(0.978462921337118,1.187720873302898,-0.89345942499456,-1.564764463909173,41.12831098047616,158.09422502984387)"></circle>
        <circle r="274.3833333333333" cx="725.25" cy="237.41666666666666" stroke-width="0.5"
            stroke="#b1b1b1" fill="none" opacity="0.8981666666666667"
            transform="matrix(1.0099136460525604,1.2278231340388284,-0.868151788931131,-1.5546937430210466,24.39657209731672,129.92649962388077)"></circle>
        <circle r="268.56666666666666" cx="719.5" cy="240.83333333333331" stroke-width="0.5"
            stroke="#afafaf" fill="none" opacity="0.8903333333333333"
            transform="matrix(1.040811056567687,1.268183335467246,-0.8418300584428201,-1.5439116605902177,7.6675860226954455,101.81700570263922)"></circle>
        <circle r="262.75" cx="713.75" cy="244.25" stroke-width="0.5" stroke="#adadad" fill="none"
            opacity="0.8825000000000001"
            transform="matrix(1.071126347442805,1.308799774937093,-0.8145034013444893,-1.5324076486132847,-9.052631238050594,73.77276850695205)"></circle>
        <circle r="256.93333333333334" cx="708" cy="247.66666666666666" stroke-width="0.5"
            stroke="#ababab" fill="none" opacity="0.8746666666666667"
            transform="matrix(1.1008308155228892,1.3496708688266996,-0.7861816745369005,-1.5201708853732998,-25.758156445232544,45.800263816544884)"></circle>
        <circle r="251.11666666666667" cx="702.25" cy="251.08333333333331" stroke-width="0.5"
            stroke="#a9a9a9" fill="none" opacity="0.8668333333333333"
            transform="matrix(1.1298958739489,1.3907951608144158,-0.7568754216860736,-1.5071902797541648,-42.44317802546129,17.90546804424457)"></circle>
        <circle r="245.3" cx="696.5" cy="254.5" stroke-width="0.5" stroke="#a7a7a7" fill="none"
            opacity="0.859"
            transform="matrix(1.1582930660044013,1.4321713305763095,-0.7265958705638602,-1.493454454592704,-59.10195289455123,-9.906057628599115)"></circle>
        <circle r="239.48333333333335" cx="690.75" cy="257.91666666666663" stroke-width="0.5"
            stroke="#a5a5a5" fill="none" opacity="0.8511666666666666"
            transform="matrix(1.1859940787839358,1.4737982029399004,-0.6953549300541408,-1.4789517290027914,-75.72885214236226,-37.62940275283279)"></circle>
        <circle r="233.66666666666669" cx="685" cy="261.3333333333333" stroke-width="0.5"
            stroke="#a4a4a4" fill="none" opacity="0.8433333333333334"
            transform="matrix(1.2129707566694552,1.5156747575252543,-0.6631651868294006,-1.4636700996005714,-92.31838030145866,-65.2600881253278)"></circle>
        <circle r="227.85000000000002" cx="679.25" cy="264.75" stroke-width="0.5" stroke="#a2a2a2"
            fill="none" opacity="0.8355"
            transform="matrix(1.2391951146008822,1.5578001389073002,-0.6300399017028163,-1.4475972205541645,-108.86514140259078,-92.79442328951325)"></circle>
        <circle r="222.03333333333333" cx="673.5" cy="268.16666666666663" stroke-width="0.5"
            stroke="#a0a0a0" fill="none" opacity="0.8276666666666667"
            transform="matrix(1.2646393511266725,1.6001736673360059,-0.5959930056613696,-1.430720382374924,-125.36373941665715,-120.2290766017178)"></circle>
        <circle r="216.21666666666667" cx="667.75" cy="271.5833333333333" stroke-width="0.5"
            stroke="#9e9e9e" fill="none" opacity="0.8198333333333334"
            transform="matrix(1.2892758612200317,1.6427948500541159,-0.5610390955858839,-1.4130264893605733,-141.809020317864,-147.5614316892769)"></circle>
        <circle r="210.4" cx="662" cy="275" stroke-width="0.5" stroke="#9b9b9b" fill="none"
            opacity="0.812"
            transform="matrix(1.3130772488461855,1.6856633932554468,-0.5251934296642832,-1.3945020355929987,-158.19581283216428,-174.78962772764555)"></circle>
        <circle r="204.58333333333334" cx="656.25" cy="278.41666666666663" stroke-width="0.5"
            stroke="#999999" fill="none" opacity="0.8041666666666667"
            transform="matrix(1.3360163392658544,1.7287792147304017,-0.48847192250478944,-1.3751330793853662,-174.51916016663904,-201.91238443302962)"></circle>
        <circle r="198.76666666666668" cx="650.5" cy="281.8333333333333" stroke-width="0.5"
            stroke="#979797" fill="none" opacity="0.7963333333333333"
            transform="matrix(1.3580661910598204,1.7721424572493358,-0.4508911399561746,-1.354905216064204,-190.77406591335955,-228.92900187576356)"></circle>
        <circle r="192.95000000000002" cx="644.75" cy="285.25" stroke-width="0.5" stroke="#959595"
            fill="none" opacity="0.7885"
            transform="matrix(1.3792001078591625,1.8157535027388048,-0.41246829364263815,-1.3338035489623696,-206.95571602011773,-255.8397796361544)"></circle>
        <circle r="187.13333333333333" cx="639" cy="288.66666666666663" stroke-width="0.5"
            stroke="#939393" fill="none" opacity="0.7806666666666666"
            transform="matrix(1.3993916497654513,1.859612987310499,-0.3732212352213039,-1.311812658487887,-223.05940262511422,-282.64558865191566)"></circle>
        <circle r="181.31666666666666" cx="633.25" cy="292.0833333333333" stroke-width="0.5"
            stroke="#919191" fill="none" opacity="0.7728333333333334"
            transform="matrix(1.4186146444448307,1.9037218172079737,-0.3331684503708068,-1.2889165691219333,-239.08051448453023,-309.34808765197147)"></circle>
        <circle r="175.5" cx="627.5" cy="295.5" stroke-width="0.5" stroke="#8f8f8f" fill="none"
            opacity="0.765"
            transform="matrix(1.43684319787958,1.9480811857420728,-0.29232905251990193,-1.2650987141861116,-255.01440020575376,-335.9498170093224)"></circle>
        <circle r="169.68333333333334" cx="621.75" cy="298.91666666666663" stroke-width="0.5"
            stroke="#8c8c8c" fill="none" opacity="0.7571666666666667"
            transform="matrix(1.4540517047603465,1.9926925912923636,-0.2507227763255171,-1.2403418982048398,-270.8566570997831,-362.4541219864328)"></circle>
        <circle r="163.86666666666667" cx="616" cy="302.3333333333333" stroke-width="0.5"
            stroke="#8a8a8a" fill="none" opacity="0.7493333333333334"
            transform="matrix(1.470214858501826,2.0375578564588985,-0.2083699709101876,-1.2146282566728162,-286.6029591468997,-388.8652185916968)"></circle>
        <circle r="158.05" cx="610.25" cy="305.75" stroke-width="0.5" stroke="#888888" fill="none"
            opacity="0.7415"
            transform="matrix(1.4853076608642213,2.0826791484564664,-0.16529159286932738,-1.1879392130201212,-302.24895420987116,-415.1883279812621)"></circle>
        <circle r="152.23333333333335" cx="604.5" cy="309.16666666666663" stroke-width="0.5"
            stroke="#858585" fill="none" opacity="0.7336666666666667"
            transform="matrix(1.4993054311623166,2.1280590008520215,-0.1215091990593401,-1.1602554325481291,-317.79042820771986,-441.4294493934707)"></circle>
        <circle r="146.41666666666669" cx="598.75" cy="312.5833333333333" stroke-width="0.5"
            stroke="#838383" fill="none" opacity="0.7258333333333333"
            transform="matrix(1.5121838150434868,2.1737003367555223,-0.07704493917814703,-1.1315567730881602,-333.22330579228446,-467.5956465105028)"></circle>
        <circle r="140.60000000000002" cx="593" cy="316" stroke-width="0.5" stroke="#808080"
            fill="none" opacity="0.718"
            transform="matrix(1.5239187928153817,2.2196064935849127,-0.03192154815029613,-1.1018222321111044,-348.5435377486692,-493.6951990262039)"></circle>
        <circle r="134.78333333333333" cx="587.25" cy="319.41666666666663" stroke-width="0.5"
            stroke="#7e7e7e" fill="none" opacity="0.7101666666666666"
            transform="matrix(1.5344866873034242,2.2657812495376457,0.013837661670556334,-1.071029889990121,-363.7471033977271,-519.7371197032802)"></circle>
        <circle r="128.96666666666667" cx="581.5" cy="322.8333333333333" stroke-width="0.5"
            stroke="#7b7b7b" fill="none" opacity="0.7023333333333334"
            transform="matrix(1.5438641712175758,2.312228851914084,0.060208808468362074,-1.0391568490894012,-378.83012505516615,-545.7316358788108)"></circle>
        <circle r="123.15" cx="575.75" cy="326.25" stroke-width="0.5" stroke="#797979" fill="none"
            opacity="0.6945"
            transform="matrix(1.5520282740071154,2.35895404745249,0.10716744908646791,-1.0061791683197479,-393.78879876159533,-571.6904155711452)"></circle>
        <circle r="117.33333333333334" cx="570" cy="329.66666666666663" stroke-width="0.5"
            stroke="#767676" fill="none" opacity="0.6866666666666668"
            transform="matrix(1.5589563881813833,2.405962114851322,0.15468858728965373,-0.9720717927657516,-408.6192714057504,-597.6259645261695)"></circle>
        <circle r="111.51666666666668" cx="564.25" cy="333.0833333333333" stroke-width="0.5"
            stroke="#737373" fill="none" opacity="0.6788333333333334"
            transform="matrix(1.5646262750735929,2.4532588996723605,0.20274668215082936,-0.9368084779493785,-423.3179488050854,-623.552168885938)"></circle>
        <circle r="105.70000000000002" cx="558.5" cy="336.5" stroke-width="0.5" stroke="#707070"
            fill="none" opacity="0.671"
            transform="matrix(1.5690160700238862,2.500850851838052,0.25131565654601284,-0.9003617082500927,-437.8810559878625,-649.48436104301)"></circle>
        <circle r="99.88333333333335" cx="552.75" cy="339.91666666666663" stroke-width="0.5"
            stroke="#6e6e6e" fill="none" opacity="0.6631666666666667"
            transform="matrix(1.572104286956808,2.5487450659586925,0.3003689057403859,-0.8627026089518474,-452.3050669099897,-675.4391036076162)"></circle>
        <circle r="94.06666666666666" cx="547" cy="343.3333333333333" stroke-width="0.5"
            stroke="#6b6b6b" fill="none" opacity="0.6553333333333333"
            transform="matrix(1.5738698223272762,2.5969493247498643,0.34987930604731365,-0.8238008513314855,-466.5863997440441,-701.4343924900671)"></circle>
        <circle r="88.25" cx="541.25" cy="346.75" stroke-width="0.5" stroke="#686868" fill="none"
            opacity="0.6475"
            transform="matrix(1.5742919584079438,2.6454721458283252,0.3998192235412953,-0.7836245501406421,-480.7215334800204,-727.489899035652)"></circle>
        <circle r="82.43333333333334" cx="535.5" cy="350.16666666666663" stroke-width="0.5"
            stroke="#646464" fill="none" opacity="0.6396666666666667"
            transform="matrix(1.5733503658895456,2.694322832205802,0.450160522804809,-0.7421401527632352,-494.70698173754664,-753.6266581607752)"></circle>
        <circle r="76.61666666666667" cx="529.75" cy="353.5833333333333" stroke-width="0.5"
            stroke="#616161" fill="none" opacity="0.6318333333333334"
            transform="matrix(1.5710251057644378,2.743511526835105,0.5008745756879522,-0.6993123192519222,-508.5393315776197,-779.8676068830991)"></circle>
        <circle r="70.80000000000001" cx="524" cy="357" stroke-width="0.5" stroke="#5e5e5e"
            fill="none" opacity="0.624"
            transform="matrix(1.5672966304619753,2.7930492716024196,0.5519322700586405,-0.6551037923584077,-522.2151251009119,-806.2372419468126)"></circle>
        <circle r="64.98333333333335" cx="518.25" cy="360.41666666666663" stroke-width="0.5"
            stroke="#5a5a5a" fill="none" opacity="0.6161666666666668"
            transform="matrix(1.5621457842027384,2.8429480712040283,0.6033040185199445,-0.6094752565727445,-535.7309350292287,-832.7619560146829)"></circle>
        <circle r="59.166666666666686" cx="512.5" cy="363.8333333333333" stroke-width="0.5"
            stroke="#575757" fill="none" opacity="0.6083333333333334"
            transform="matrix(1.5555538025367808,2.893220962395847,0.6549597670698223,-0.5623851850742322,-549.0835196048779,-859.4701050786252)"></circle>
        <circle r="53.35000000000002" cx="506.75" cy="367.25" stroke-width="0.5" stroke="#535353"
            fill="none" opacity="0.6005"
            transform="matrix(1.5475023110290973,2.9438820891607604,0.7068690036771439,-0.5137896733692653,-562.2693071010974,-886.3921184814518)"></circle>
        <circle r="47.53333333333336" cx="501" cy="370.66666666666663" stroke-width="0.5"
            stroke="#4f4f4f" fill="none" opacity="0.5926666666666667"
            transform="matrix(1.537973323053353,2.9949467844029782,0.7590007667464231,-0.46364225824742766,-575.2850827084147,-913.5605906713652)"></circle>
        <circle r="41.7166666666667" cx="495.25" cy="374.0833333333333" stroke-width="0.5"
            stroke="#4b4b4b" fill="none" opacity="0.5848333333333333"
            transform="matrix(1.5269492366525532,3.0464316588512848,0.8113236534420545,-0.411893720523678,-588.1273888958543,-941.0102798134162)"></circle>
        <circle r="35.900000000000034" cx="489.5" cy="377.5" stroke-width="0.5" stroke="#464646"
            fill="none" opacity="0.577"
            transform="matrix(1.514412830422766,3.0983546979358625,0.8638058278411769,-0.35849186984877457,-600.7928879844434,-968.7786549576074)"></circle>
        <circle r="30.08333333333337" cx="483.75" cy="380.91666666666663" stroke-width="0.5"
            stroke="#424242" fill="none" opacity="0.5691666666666667"
            transform="matrix(1.500347258373191,3.150735367497379,0.916415028882392,-0.3033813096586442,-613.2781112902817,-996.9054988052598)"></circle>
        <circle r="24.26666666666665" cx="478" cy="384.3333333333333" stroke-width="0.5"
            stroke="#3d3d3d" fill="none" opacity="0.5613333333333334"
            transform="matrix(1.484736043712811,3.2035947292945632,0.9691185780756184,-0.24650318009226124,-625.5797760310818,-1025.4335070867266)"></circle>
        <circle r="18.44999999999999" cx="472.25" cy="387.75" stroke-width="0.5" stroke="#373737"
            fill="none" opacity="0.5535000000000001"
            transform="matrix(1.4675630715104946,3.2569555673990065,1.0218833869361599,-0.18779487643193948,-637.6942224391069,-1054.4082401831565)"></circle>
        <circle r="12.633333333333326" cx="466.5" cy="391.16666666666663" stroke-width="0.5"
            stroke="#313131" fill="none" opacity="0.5456666666666667"
            transform="matrix(1.4488125801717475,3.310842526706665,1.0746759641037746,-0.12718974030437302,-649.6181263878314,-1083.8785040939367)"></circle>
        <circle r="6.816666666666663" cx="460.75" cy="394.5833333333333" stroke-width="0.5"
            stroke="#2a2a2a" fill="none" opacity="0.5378333333333334"
            transform="matrix(1.4284691516713033,3.365282264956627,1.127462422104967,-0.06461672051853284,-661.3478532937036,-1113.896217987396)"></circle>
        <circle r="1" cx="455" cy="398" stroke-width="0.5" stroke="#212121" fill="none"
            opacity="0.53"
            transform="matrix(1.4065177004763203,3.4203036198332684,1.180208483713996,-1.1102230246251565e-16,-672.8798407119568,-1144.5172464423827)"></circle>
    </g>
</svg>