<svg xmlns="http://www.w3.org/2000/svg" version="1.1" xmlns:xlink="http://www.w3.org/1999/xlink"
    xmlns:svgjs="http://svgjs.dev/svgjs" viewBox="0 0 800 800">
    <defs>
        <linearGradient x1="50%" y1="0%" x2="50%" y2="100%" id="wwwhirl-grad">
            <stop stop-color="hsla(0, 0%, 0%, 0.56)" stop-opacity="1" offset="45%"></stop>
            <stop stop-color="hsla(0, 0%, 100%, 0.40)" stop-opacity="1" offset="100%"></stop>
        </linearGradient>
    </defs>
    <g stroke-width="1" stroke="url(#wwwhirl-grad)" fill="none" stroke-linecap="round">
        <path
            d="M-1137.5000027418137 442.6015609033903C-1030.7291707661416 416.4427070693506 -838.541673209932 317.0390625 -625.0000092585881 317.0390625C-411.45834530724414 317.0390625 -326.0416797267062 436.06184744488036 -112.50001577536227 442.6015609033903C101.04164817598144 449.1412743619002 186.45831375651915 344.6927079816991 399.9999777078631 348.42968710084756C613.5416416592072 352.1666662199961 698.958307239745 457.7363263359418 912.4999711910887 460.5390606753032C1126.0416351424328 463.34179501466457 1211.4583007229708 357.2115880308466 1424.9999646743145 361.88281192978224C1638.5416286256586 366.5540358287179 1830.7291261818677 457.7363263359418 1937.4999581575398 482.9609353901943 "
            transform="rotate(0, 400, 400)"></path>
        <path
            d="M-1100.000002861023 441.56249844233196C-995.8333375189039 416.0416654335128 -808.3333399030896 319.0625 -600.0000092188517 319.0625C-391.66667853461354 319.0625 -308.3333462609181 435.18229019012716 -100.0000155766802 441.56249844233196C108.33331510755761 447.94270669453675 191.6666473812527 346.0416663236088 399.99997806549095 349.687499610583C608.3333087497294 353.33333289755717 691.6666410234245 456.32812325457735 899.9999717076626 459.06249821980794C1108.3333023919 461.79687318503863 1191.6666346655957 358.2552078349723 1399.999965349834 362.81249944369C1608.3332960340717 367.36979105240766 1795.8332936498855 456.32812325457735 1899.9999589920048 480.93749794165296 "
            transform="rotate(0, 400, 400)"></path>
        <path
            d="M-1062.5000029802322 440.5234359812737C-960.9375042716663 415.64062379767495 -778.1250065962473 321.0859375 -575.0000091791153 321.0859375C-371.87501176198316 321.0859375 -290.62501279513003 434.30273293537397 -87.50001537799812 440.5234359812737C115.62498203913378 446.74413902717333 196.87498100598668 347.3906246655186 399.9999784231188 350.9453121203184C603.1249758402512 354.49999957511824 684.3749748071039 454.9199201732129 887.4999722242355 457.58593576431275C1090.624969641368 460.25195135541264 1171.874968608221 359.29882763909796 1374.999966025353 363.7421869575977C1578.1249634424848 368.1855462760975 1760.9374611179037 454.9199201732129 1862.4999598264699 478.9140604931116 "
            transform="rotate(0, 400, 400)"></path>
        <path
            d="M-1025.0000030994415 439.4843735202154C-926.0416710244285 415.2395821618371 -747.916673289405 323.109375 -550.0000091393788 323.109375C-352.08334498935267 323.109375 -272.91667932934206 433.42317568062083 -75.00001517931605 439.4843735202154C122.91664897070996 445.5455713598099 202.08331463072045 348.7395830074284 399.9999787807467 352.2031246300538C597.9166429307729 355.6666662526793 677.0833085907834 453.5117170918485 874.9999727408094 456.10937330881757C1072.9166368908354 458.70702952578665 1152.0833025508464 360.34244744322365 1349.9999667008724 364.6718744715055C1547.9166308508984 369.0013014997873 1726.0416285859214 453.5117170918485 1824.999960660935 476.8906230445703 "
            transform="rotate(0, 400, 400)"></path>
        <path
            d="M-987.5000032186508 438.44531105915706C-891.1458377771908 414.8385405259993 -717.7083399825626 325.1328125 -525.0000090996423 325.1328125C-332.2916782167222 325.1328125 -255.20834586355397 432.54361842586763 -62.50001498063375 438.44531105915706C130.20831590228636 444.3470036924465 207.29164825545422 350.0885413493382 399.99997913837456 353.4609371397893C592.7083100212949 356.8333329302404 669.7916423744628 452.10351401048405 862.4999732573829 454.6328108533223C1055.208304140303 457.16210769616066 1132.2916364934713 361.38606724734933 1324.9999673763914 365.60156198541324C1517.7082982593115 369.8170567234771 1691.1457960539396 452.10351401048405 1787.4999614954 474.867185596029 "
            transform="rotate(0, 400, 400)"></path>
        <path
            d="M-950.0000033378601 437.4062485980988C-856.250004529953 414.4374988901615 -687.5000066757202 327.15625 -500.000009059906 327.15625C-312.5000114440917 327.15625 -237.5000123977659 431.66406117111444 -50.00001478195168 437.4062485980988C137.49998283386253 443.1484360250831 212.499981880188 351.4374996912479 399.9999794960024 354.7187496495247C587.4999771118166 357.99999960780144 662.4999761581423 450.6953109291196 849.9999737739568 453.1562483978272C1037.4999713897705 455.6171858665347 1112.499970436097 362.42968705147507 1299.9999680519109 366.531249499321C1487.499965667725 370.63281194716694 1656.2499635219579 450.6953109291196 1749.999962329865 472.84374814748764 "
            transform="rotate(0, 400, 400)"></path>
        <path
            d="M-912.5000034570694 436.36718613704045C-821.3541712827152 414.0364572543237 -657.2916733688778 329.1796875 -475.0000090201695 329.1796875C-292.7083446714612 329.1796875 -219.79167893197769 430.78450391636125 -37.50001458326949 436.36718613704045C144.7916497654387 441.94986835771965 217.70831550492198 352.7864580331577 399.9999798536303 355.97656215926014C582.2916442023386 359.1666662853625 655.2083099418219 449.2871078477552 837.4999742905302 451.67968594233196C1019.7916386392385 454.0722640369088 1092.708304378722 363.47330685560075 1274.9999687274303 367.4609370132287C1457.2916330761382 371.44856717085673 1621.3541309899756 449.2871078477552 1712.49996316433 470.82031069894634 "
            transform="rotate(0, 400, 400)"></path>
        <path
            d="M-875.0000035762787 435.32812367598217C-786.4583380354775 413.63541561848587 -627.0833400620354 331.203125 -450.000008980433 331.203125C-272.9166778988307 331.203125 -202.0833454661896 429.9049466616081 -25.000014384587416 435.32812367598217C152.08331669701488 440.75130069035623 222.91664912965575 354.1354163750675 399.99998021125816 357.23437466899554C577.0833112928606 360.3333329629236 647.9166437255014 447.87890476639075 824.9999748071039 450.2031234868368C1002.083305888706 452.5273422072828 1072.916638321347 364.51692665972644 1249.9999694029493 368.3906245271365C1427.0833004845517 372.2643223945465 1586.4582984579934 447.87890476639075 1674.999963998795 468.79687325040504 "
            transform="rotate(0, 400, 400)"></path>
        <path
            d="M-837.500003695488 434.2890612149239C-751.5625047882398 413.23437398264804 -596.875006755193 333.2265625 -425.0000089406967 333.2265625C-253.12501112620032 333.2265625 -184.3750120004015 429.0253894068549 -12.50001418590523 434.2890612149239C159.37498362859105 439.5527330229928 228.12498275438952 355.4843747169773 399.99998056888603 358.49218717873094C571.8749783833825 361.49999964048465 640.624977509181 446.47070168502626 812.4999753236773 448.7265610313416C984.3749731381736 450.9824203776568 1053.1249722639725 365.5605464638521 1224.9999700784688 369.32031204104425C1396.8749678929648 373.0800776182364 1551.5624659260116 446.47070168502626 1637.49996483326 466.7734358018637 "
            transform="rotate(0, 400, 400)"></path>
        <path
            d="M-800.0000038146973 433.24999875386555C-716.6666715410021 412.83333234681027 -566.6666734483506 335.25 -400.0000089009602 335.25C-233.33334435356983 335.25 -166.66667853461342 428.1458321521017 -0.000013987223042022379 433.24999875386555C166.66665056016723 438.3541653556294 233.3333163791233 356.83333305888704 399.9999809265139 359.7499996884664C566.6666454739045 362.6666663180457 633.3333112928606 445.0624986036619 799.9999758402507 447.24999857584635C966.6666403876413 449.4374985480309 1033.3333062065976 366.6041662679778 1199.9999707539882 370.24999955495196C1366.6666353013784 373.89583284192616 1516.6666333940298 445.0624986036619 1599.999965667725 464.7499983533223 "
            transform="rotate(0, 400, 400)"></path>
        <path
            d="M-762.499996304512 432.2109362928073C-681.7708306643698 412.43229071097244 -536.4583325121138 337.2734375 -375.00000123182923 337.2734375C-213.5416699515448 337.2734375 -148.9583374394308 427.2662748973486 12.499993840853676 432.2109362928073C173.95832512113793 437.15559768826597 238.54165763325182 358.1822914007968 399.9999889135363 361.0078121982018C561.458320193821 363.8333329956068 626.0416527059347 443.65429552229745 787.4999839862191 445.77343612035116C948.9583152665034 447.89257671840494 1013.5416477786177 367.6477860721035 1174.9999790589022 371.1796870688597C1336.458310339186 374.71158806561596 1481.770808491442 443.65429552229745 1562.4999741315846 462.7265609047811 "
            transform="rotate(0, 400, 400)"></path>
        <path
            d="M-724.9999964237213 431.171873831749C-646.8749974171321 412.0312490751346 -506.24999920527137 339.296875 -350.00000119209284 339.296875C-193.7500031789143 339.296875 -131.25000397364272 426.3867176425954 24.999994039535636 431.171873831749C181.24999205271422 435.95703002090255 243.74999125798558 359.5312497427066 399.99998927116417 362.26562470793726C556.2499872843428 364.99999967316785 618.7499864896142 442.246092440933 774.9999845027926 444.296873664856C931.2499825159709 446.34765488877895 993.7499817212429 368.6914058762292 1149.9999797344212 372.1093745827675C1306.2499777475996 375.52734328930575 1446.8749759594602 442.246092440933 1524.9999749660496 460.7031234562397 "
            transform="rotate(0, 400, 400)"></path>
        <path
            d="M-687.4999965429306 430.13281137069066C-611.9791641698944 411.6302074392968 -476.04166589842896 341.3203125 -325.00000115235645 341.3203125C-173.95833640628382 341.3203125 -113.54167050785463 425.5071603878422 37.49999423821782 430.13281137069066C188.5416589842904 434.75846235353913 248.95832488271935 360.8802080846164 399.99998962879204 363.52343721767267C551.0416543748647 366.1666663507289 611.4583202732938 440.8378893595686 762.499985019366 442.82031120936074C913.5416497654387 444.80273305915296 973.958315663868 369.7350256803549 1124.9999804099405 373.03906209667525C1276.0416451560131 376.3430985129956 1411.979143427478 440.8378893595686 1487.4999758005147 458.67968600769836 "
            transform="rotate(0, 400, 400)"></path>
        <path
            d="M-649.9999966621399 429.0937489096324C-577.0833309226566 411.22916580345895 -445.8333325915866 343.34375 -300.00000111262 343.34375C-154.16666963365333 343.34375 -95.83333704206655 424.627603133089 49.99999443690001 429.0937489096324C195.83332591586657 433.5598946861757 254.16665850745312 362.2291664265262 399.9999899864199 364.78124972740807C545.8333214653867 367.33333302829 604.1666540569734 439.42968627820414 749.9999855359397 441.34374875386555C895.8333170149062 443.257811229527 954.1666496064934 370.7786454844806 1099.99998108546 373.968749610583C1245.8333125644263 377.1588537366854 1377.0833108954962 439.42968627820414 1449.9999766349797 456.65624855915706 "
            transform="rotate(0, 400, 400)"></path>
        <path
            d="M-612.4999357461929 428.0546864485741C-542.1874366402626 410.8281241676211 -415.624938249588 345.3671875 -274.9999400377273 345.3671875C-134.3749418258667 345.3671875 -78.12494254112221 423.7480458783358 62.50005567073845 428.0546864485741C203.12505388259888 432.3613270188123 259.37505316734325 363.57812476843594 400.000051379204 366.0390622371435C540.6250495910647 368.4999997058511 596.875048875809 438.0214831968397 737.5000470876696 439.86718629837037C878.1250452995303 441.71288939990103 934.3750445842747 371.8222652886063 1075.0000427961352 374.8984371244907C1215.6250410079958 377.9746089603752 1342.1875393986702 438.0214831968397 1412.5000385046005 454.63281111061576 "
            transform="rotate(0, 400, 400)"></path>
        <path
            d="M-574.9999358654022 427.01562398751577C-507.2916033930249 410.4270825317833 -385.4166049427456 347.390625 -249.99993999799085 347.390625C-114.5832750532361 347.390625 -60.41660907533412 422.86848862358266 75.00005586942052 427.01562398751577C210.41672081417528 431.16275935144887 264.583386792077 364.92708311034573 400.0000517368319 367.2968747468789C535.4167166815866 369.6666663834122 589.5833826594885 436.6132801154753 725.0000476042433 438.3906238428752C860.4167125489978 440.1679675702751 914.5833785268999 372.86588509273196 1050.0000434716546 375.8281246383985C1185.4167084164092 378.79036418406497 1307.2917068666882 436.6132801154753 1375.0000393390656 452.6093736620744 "
            transform="rotate(0, 400, 400)"></path>
        <path
            d="M-537.4999359846115 425.9765615264575C-472.39577014578714 410.02604089594547 -355.2082716359032 349.4140625 -224.99993995825446 349.4140625C-94.79160828060571 349.4140625 -42.708275609546035 421.98893136882947 87.5000560681026 425.9765615264575C217.70838774575134 429.96419168408545 269.7917204168108 366.2760414522555 400.00005209445953 368.5546872566144C530.2083837721084 370.83333306097325 582.2917164431681 435.20507703411084 712.5000481208167 436.91406138738C842.7083797984653 438.6230457406491 894.7917124695252 373.9095048968577 1025.000044147174 376.75781215230626C1155.2083758248225 379.6061194077548 1272.3958743347061 435.20507703411084 1337.5000401735308 450.5859362135331 "
            transform="rotate(0, 400, 400)"></path>
        <path
            d="M-499.9999361038208 424.93749906539915C-437.49993689854944 409.62499926010764 -324.99993832906085 351.4375 -199.999939918518 351.4375C-74.99994150797522 351.4375 -24.99994214375795 421.10937411407633 100.00005626678478 424.93749906539915C225.0000546773275 428.76562401672203 275.0000540415447 367.6249997941653 400.00005245208763 369.8124997663498C525.0000508626304 371.9999997385343 575.0000502268476 433.7968739527464 700.0000486373904 435.43749893188476C825.0000470479331 437.07812391102317 875.0000464121506 374.9531247009834 1000.0000448226933 377.68749966621397C1125.0000432332358 380.4218746314446 1237.5000418027244 433.7968739527464 1300.0000410079958 448.5624987649918 "
            transform="rotate(0, 400, 400)"></path>
        <path
            d="M-462.4999362230301 423.8984366043409C-402.6041036513117 409.2239576242699 -294.7916050222185 353.4609375 -174.99993987878156 353.4609375C-55.20827473534473 353.4609375 -7.291608677969862 420.22981685932314 112.50005646546697 423.8984366043409C232.2917216089038 427.5670563493586 280.20838766627844 368.97395813607505 400.0000528097155 371.07031227608525C519.7917179531523 373.1666664160954 567.7083840105272 432.388670871382 687.500049153964 433.9609364763896C807.2917142974006 435.5332020813972 855.2083803547757 375.99674450510906 975.0000454982126 378.61718718012173C1094.7917106416492 381.2376298551344 1202.6042092707423 432.388670871382 1262.5000418424609 446.53906131645044 "
            transform="rotate(0, 400, 400)"></path>
        <path
            d="M-424.9999363422394 422.8593741432826C-367.7082704040739 408.82291598843204 -264.5832717153761 355.484375 -149.99993983904517 355.484375C-35.41660796271424 355.484375 10.416724787818225 419.35025960456994 125.00005666414904 422.8593741432826C239.58338854047997 426.36848868199525 285.4167212910123 370.32291647798485 400.00005316734325 372.32812478582065C514.5833850436743 374.33333309365645 560.4167177942065 430.98046779001754 675.0000496705375 432.4843740208944C789.5833815468684 433.98828025177124 835.4167142974009 377.04036430923475 950.0000461737318 379.5468746940295C1064.5833780500627 382.05338507882425 1167.7083767387603 430.98046779001754 1225.000042676926 444.51562386790914 "
            transform="rotate(0, 400, 400)"></path>
        <path
            d="M-387.49993646144867 421.82031168222426C-332.8124371568362 408.4218743525942 -234.3749384085337 357.5078125 -124.99993979930872 357.5078125C-15.624941190083746 357.5078125 28.125058253606312 418.47070234981675 137.50005686283123 421.82031168222426C246.87505547205615 425.16992101463177 290.6250549157461 371.67187481989464 400.0000535249711 373.58593729555605C509.37505213419627 375.4999997712175 553.1250515778861 429.5722647086531 662.5000501871111 431.00781156539915C771.8750487963359 432.44335842214525 815.6250482400262 378.08398411336043 925.0000468492512 380.47656220793726C1034.375045458476 382.86914030251404 1132.8125442067783 429.5722647086531 1187.500043511391 442.4921864193678 "
            transform="rotate(0, 400, 400)"></path>
        <path
            d="M-349.99993658065796 420.781249221166C-297.91660390959845 408.0208327167564 -204.1666051016913 359.53125 -99.99993975957233 359.53125C4.166725582546746 359.53125 45.833391719394456 417.5911450950636 150.00005706151342 420.781249221166C254.16672240363232 423.9713533472684 295.83338854047986 373.02083316180443 400.000053882599 374.8437498052915C504.16671922471824 376.6666664487786 545.8333853615658 428.1640616272887 650.0000507036848 429.53124910990397C754.1667160458035 430.8984365925193 795.8333821826513 379.1276039174861 900.0000475247705 381.406249721845C1004.1667128668894 383.68489552620383 1097.9167116747963 428.1640616272887 1150.000044345856 440.4687489708265 "
            transform="rotate(0, 400, 400)"></path>
        <path
            d="M-312.49993669986725 419.7421867601077C-263.02077066236075 407.61979108091856 -173.95827179484897 361.5546875 -74.99993971983588 361.5546875C23.958392355177182 361.5546875 63.541725185182486 416.7115878403104 162.5000572601955 419.7421867601077C261.4583893352085 422.7727856799049 301.04172216521374 374.36979150371417 400.00005424022686 376.1015623150269C498.95838631524 377.83333312633965 538.5417191452452 426.75585854592424 637.5000512202582 428.0546866544088C736.4583832952712 429.3535147628933 776.0417161252767 380.17122372161185 875.0000482002897 382.33593723575274C973.9583802753027 384.5006507498937 1063.0208791428142 426.75585854592424 1112.500045180321 438.4453115222851 "
            transform="rotate(0, 400, 400)"></path>
        <path
            d="M-274.99993681907654 418.70312429904936C-228.124937415123 407.2187494450808 -143.74993848800656 363.578125 -49.99993968009949 363.578125C43.750059127807674 363.578125 81.25005865097057 415.8320305855572 175.00005745887768 418.70312429904936C268.7500562667848 421.57421801254156 306.2500557899475 375.71874984562396 400.0000545978547 377.35937482476237C493.75005340576183 378.9999998039007 531.2500529289247 425.3476554645598 625.0000517368319 426.5781241989136C718.7500505447388 427.8085929332674 756.2500500679021 381.21484352573754 850.000048875809 383.2656247496605C943.750047683716 385.31640597358347 1028.1250466108324 425.3476554645598 1075.000046014786 436.4218740737438 "
            transform="rotate(0, 400, 400)"></path>
        <path
            d="M-237.49993693828583 417.6640618379911C-193.22910416788525 406.81770780924296 -113.54160518116419 365.6015625 -24.99993964036298 365.6015625C63.541725900438166 365.6015625 98.95839211675872 414.952473330804 187.50005765755986 417.6640618379911C276.04172319836096 420.37565034517814 311.4583894146814 377.06770818753375 400.0000549554826 378.61718733449777C488.5417204962838 380.1666664814618 523.9583867126042 423.9394523831954 612.5000522534054 425.1015617434184C701.0417177942065 426.2636711036414 736.458384010527 382.2584633298632 825.0000495513282 384.19531226356827C913.5417150921294 386.13216119727326 993.2292140788502 423.9394523831954 1037.500046849251 434.3984366252025 "
            transform="rotate(0, 400, 400)"></path>
        <path
            d="M-199.99993705749512 416.6249993769328C-158.33327092064752 406.41666617340513 -83.33327187432181 367.625 0.000060399373410291446 367.625C83.3333926730686 367.625 116.6667255825468 414.0729160760509 200.00005785624194 416.6249993769328C283.33339012993713 419.1770826778147 316.66672303941516 378.41666652944355 400.00005531311047 379.8749998442332C483.33338758680577 381.33333315902286 516.6667204962838 422.53124930183094 600.0000527699789 423.6249992879232C683.3333850436742 424.7187492740154 716.6667179531523 383.3020831339889 800.0000502268476 385.124999777476C883.3333825005427 386.94791642096305 958.3333815468684 422.53124930183094 1000.000047683716 432.37499917666116 "
            transform="rotate(0, 400, 400)"></path>
        <path
            d="M-162.4999371767044 415.58593691587447C-123.43743767340979 406.0156245375673 -53.12493856747943 369.6484375 25.000060439109802 369.6484375C103.1250594456991 369.6484375 134.3750590483349 413.1933588212977 212.50005805492407 415.58593691587447C290.6250570615134 417.9785150104513 321.87505666414904 379.76562487135334 400.00005567073833 381.13281235396863C478.1250546773276 382.4999998365839 509.37505427996336 421.1230462204665 587.5000532865525 422.148436832428C665.6250522931417 423.1738274443895 696.8750518957777 384.3457029381146 775.0000509023669 386.05468729138374C853.125049908956 387.7636716446529 923.4375490148864 421.1230462204665 962.5000485181811 430.35156172811986 "
            transform="rotate(0, 400, 400)"></path>
        <path
            d="M-124.99993729591371 414.5468744548162C-88.54160442617206 405.6145829017295 -22.916605260637056 371.671875 50.00006047884625 371.671875C122.91672621832959 371.671875 152.08339251412298 412.3138015665445 225.00005825360626 414.5468744548162C297.9167239930896 416.7799473430879 327.0833902888828 381.1145832132631 400.0000560283662 382.39062486370403C472.9167217678496 383.666666514145 502.08338806364293 419.7148431391021 575.0000538031261 420.6718743769328C647.9167195426094 421.6289056147635 677.0833858384029 385.3893227422403 750.0000515778862 386.9843748052915C822.9167173173694 388.5794268683427 888.5417164829043 419.7148431391021 925.0000493526461 428.32812427957856 "
            transform="rotate(0, 400, 400)"></path>
        <path
            d="M-87.49996793270113 413.5078119937579C-53.64580169651245 405.21354126589165 7.291697528627196 373.6953125 75.00003000100457 373.6953125C142.70836247338195 373.6953125 169.79169546233294 411.4342443117913 237.50002793471026 413.5078119937579C305.20836040708764 415.58137967572446 332.29169339603845 382.46354155517287 400.00002586841595 383.6484373734395C467.7083583407933 384.83333319170606 494.79169132974425 418.30664005773764 562.5000238021216 419.19531192143756C630.2083562744989 420.08398378513755 657.2916892634499 386.432942546366 725.0000217358273 387.9140623191993C792.7083542082046 389.3951820920325 853.6458534333442 418.30664005773764 887.5000196695328 426.3046868310372 "
            transform="rotate(0, 400, 400)"></path>
        <path
            d="M-49.99999856948854 412.4687495326996C-18.749998966852814 404.8124996300538 37.50000031789145 375.71875 99.99999952316284 375.71875C162.49999872843426 375.71875 187.4999984105429 410.55468705703817 249.99999761581427 412.4687495326996C312.49999682108563 414.38281200836104 337.4999965031942 383.81249989708266 399.9999957084657 384.9062498831749C462.49999491373705 385.9999998692671 487.4999945958457 416.8984369763732 549.9999938011171 417.7187494659424C612.4999930063884 418.53906195551156 637.4999926884972 387.4765623504917 699.9999918937685 388.843749833107C762.4999910990398 390.21093731572233 818.749990383784 416.8984369763732 849.9999899864198 424.2812493824959 "
            transform="rotate(0, 400, 400)"></path>
        <path
            d="M-12.49999868869783 411.4296870716413C16.145834280384918 404.411457994216 67.70833362473383 377.7421875 124.99999956289929 377.7421875C182.29166550106476 377.7421875 205.208331876331 409.67512980228497 262.4999978144964 411.4296870716413C319.79166375266186 413.1842443409976 342.70833012792804 385.16145823899245 399.99999606609344 386.1640623929103C457.291662004259 387.1666665468282 480.20832837952514 415.49023389500877 537.4999943176906 416.2421870104472C594.7916602558561 416.9941401258856 617.7083266311223 388.5201821546174 674.9999925692878 389.77343734701475C732.2916585074532 391.0266925394121 783.854157851802 415.49023389500877 812.4999908208848 422.25781193395454 "
            transform="rotate(0, 400, 400)"></path>
        <path
            d="M25.00000119209288 410.390624610583C51.04166752762265 404.0104163583782 97.91666693157623 379.765625 149.9999996026357 379.765625C202.08333227369525 379.765625 222.91666534211913 408.7955725475318 274.9999980131786 410.390624610583C327.08333068423804 411.9856766736342 347.9166637526618 386.5104165809022 399.99999642372137 387.42187490264575C452.083329094781 388.33333322438926 472.9166621632048 414.08203081364434 524.9999948342643 414.765624554952C577.0833275053236 415.44921829625963 597.9166605737475 389.56380195874306 649.9999932448071 390.7031248609225C702.0833259158666 391.8424477631019 748.95832531982 414.08203081364434 774.9999916553498 420.23437448541324 "
            transform="rotate(0, 400, 400)"></path>
        <path
            d="M62.50000107288359 409.3515621495247C85.93750077486038 403.6093747225404 128.12500023841858 381.7890625 174.99999964237213 381.7890625C221.87499904632568 381.7890625 240.62499880790716 407.91601529277864 287.4999982118607 409.3515621495247C334.37499761581427 410.7871090062708 353.12499737739563 387.859374922812 399.99999678134924 388.67968741238116C446.8749961853028 389.4999999019504 465.62499594688416 412.6738277322799 512.4999953508378 413.28906209945677C559.3749947547913 413.9042964666337 578.1249945163729 390.60742176286874 624.9999939203263 391.6328123748302C671.8749933242799 392.6582029867917 714.0624927878381 412.6738277322799 737.4999924898149 418.21093703687194 "
            transform="rotate(0, 400, 400)"></path>
        <path
            d="M100.00000095367432 408.3124996884664C120.83333402209811 403.20833308670257 158.33333354526098 383.8125 199.99999968210858 383.8125C241.66666581895618 383.8125 258.3333322736953 407.03645803802544 299.99999841054284 408.3124996884664C341.66666454739044 409.58854133890736 358.33333100212946 389.2083332647218 399.9999971389771 389.9374999221166C441.66666327582476 390.66666657951146 458.3333297305638 411.26562465091547 499.99999586741137 411.8124996439616C541.666662004259 412.3593746370077 558.333328458998 391.6510415669945 599.9999945958457 392.562499888738C641.6666607326932 393.47395821048156 679.1666602558561 411.26562465091547 699.9999933242799 416.1874995883306 "
            transform="rotate(0, 400, 400)"></path>
        <path
            d="M137.50000083446503 407.27343722740807C155.72916726933585 402.80729145086474 188.54166685210333 385.8359375 224.999999721845 385.8359375C261.45833259158667 385.8359375 276.0416657394834 406.15690078327225 312.49999860922503 407.27343722740807C348.95833147896667 408.38997367154394 363.5416646268633 390.55729160663157 399.999997496605 391.195312431852C436.4583303663467 391.8333332570725 451.04166351424334 409.85742156955104 487.4999963839849 410.3359371884664C523.9583292537266 410.81445280738177 538.5416624016234 392.69466137112016 574.9999952713649 393.49218740264575C611.4583281411066 394.28971343417135 644.270827723874 409.85742156955104 662.4999941587449 414.1640621397893 "
            transform="rotate(0, 400, 400)"></path>
        <path
            d="M175.00000071525574 406.2343747663498C190.62500051657358 402.4062498150269 218.75000015894574 387.859375 249.99999976158142 387.859375C281.24999936421716 387.859375 293.7499992052715 405.27734352851905 324.9999988079071 406.2343747663498C356.24999841054284 407.1914060041805 368.7499982515971 391.9062499485413 399.99999785423284 392.4531249415875C431.2499974568685 392.9999999346336 443.74999729792285 408.4492184881866 474.99999690055853 408.8593747329712C506.2499965031942 409.2695309777558 518.7499963442485 393.73828117524585 549.9999959468843 394.4218749165535C581.2499955495199 395.10546865786114 609.374995191892 408.4492184881866 624.9999949932098 412.1406246912479 "
            transform="rotate(0, 400, 400)"></path>
        <path
            d="M212.50000059604645 405.1953123052915C225.5208337638113 402.0052081791891 248.95833346578812 389.8828125 274.99999980131787 389.8828125C301.04166613684765 389.8828125 311.45833267105957 404.3977862737659 337.4999990065893 405.1953123052915C363.541665342119 405.9928383368171 373.95833187633093 393.2552082904511 399.99999821186066 393.7109374513229C426.0416645473905 394.16666661219466 436.4583310816024 407.04101540682217 462.49999741713214 407.382812277476C488.5416637526618 407.72460914812984 498.9583302868738 394.7819009793715 524.9999966224036 395.35156243046123C551.0416629579333 395.921223881551 574.47916265991 407.04101540682217 587.4999958276749 410.1171872427066 "
            transform="rotate(0, 400, 400)"></path>
        <path
            d="M250.00000047683716 404.1562498442332C260.41666701104907 401.60416654335125 279.1666667726305 391.90625 299.9999998410543 391.90625C320.8333329094781 391.90625 329.16666613684765 403.5182290190127 349.9999992052714 404.1562498442332C370.8333322736952 404.7942706694537 379.1666655010647 394.6041666323609 399.9999985694885 394.9687499610583C420.83333163791235 395.3333332897557 429.16666486528186 405.63281232545773 449.9999979337057 405.9062498219808C470.8333310021295 406.17968731850385 479.166664229499 395.8255207834972 499.99999729792285 396.281249944369C520.8333303663467 396.7369791052408 539.5833301279281 405.63281232545773 549.9999966621399 408.0937497941653 "
            transform="rotate(0, 400, 400)"></path>
        <path
            d="M287.50000035762787 403.11718690633774C295.3125002582868 401.2031244306763 309.3750000794729 393.92968702316284 324.9999998807907 393.92968702316284C340.6249996821086 393.92968702316284 346.87499960263574 402.63867128742237 362.49999940395355 403.11718690633774C378.1249992052714 403.5957025252531 384.3749991257986 395.9531244974335 399.9999989271164 396.2265619939566C415.62499872843426 396.49999949047964 421.8749986489614 404.22460876725614 437.49999845027924 404.42968688964845C453.1249982515971 404.63476501204076 459.37499817212426 396.86914011078574 474.99999797344213 397.2109369814396C490.62499777475995 397.5527338520934 504.687497595946 404.22460876725614 512.4999974966049 406.0703118687868 "
            transform="rotate(0, 400, 400)"></path>
        <path
            d="M325.0000002384186 402.0781249221166C330.20833350552454 400.80208327167566 339.58333338631525 395.953125 349.9999999205271 395.953125C360.416666454739 395.953125 364.5833330684238 401.75911450950633 374.99999960263574 402.0781249221166C385.4166661368476 402.39713533472684 389.58333275053235 397.3020833161804 399.99999928474426 397.48437498052914C410.4166658189562 397.66666664487786 414.58333243264093 402.81640616272887 424.99999896685284 402.9531249109904C435.41666550106476 403.0898436592519 439.5833321147495 397.91276039174863 449.9999986489614 398.1406249721845C460.41666518317334 398.36848955262036 469.79166506396405 402.81640616272887 474.99999833106995 404.04687489708266 "
            transform="rotate(0, 400, 400)"></path>
        <path
            d="M362.50000393390656 401.0390624610583C365.1041705674595 400.4010416358378 369.79167050785486 397.9765625 375.0000037749608 397.9765625C380.2083370420668 397.9765625 382.2916703489092 400.8795572547532 387.50000361601514 401.0390624610583C392.7083368831211 401.1985676673634 394.79167018996344 398.6510416580902 400.0000034570694 398.7421874902646C405.20833672417535 398.83333332243893 407.2916700310177 401.40820308136443 412.5000032981237 401.4765624554952C417.7083365652296 401.544921829626 419.791669872072 398.9563801958743 425.000003139178 399.07031248609223C430.20833640628393 399.1842447763102 434.8958363466793 401.40820308136443 437.50000298023224 402.0234374485413 "
            transform="rotate(0, 400, 400)"></path>
    </g>
</svg>