<svg xmlns="http://www.w3.org/2000/svg" version="1.1" xmlns:xlink="http://www.w3.org/1999/xlink" xmlns:svgjs="http://svgjs.dev/svgjs" viewBox="0 0 800 800"><defs><linearGradient x1="50%" y1="0%" x2="50%" y2="100%" id="ccchaos-grad"><stop stop-color="hsl(0, 0%, 33%)" stop-opacity="1" offset="0%"></stop><stop stop-color="hsl(0, 0%, 73%)" stop-opacity="1" offset="100%"></stop></linearGradient></defs><g stroke-width="1" stroke="url(#ccchaos-grad)" fill="none" stroke-linecap="round"><path d="M360.03 72.6Q372.36 80.7 385.54 89.24 399.52 98.11 414.22 107.15 429.55 116.23 445.39 125.18 461.63 133.82 478.12 142.01 494.73 149.59 511.3 156.44 527.67 162.44 543.68 167.52 559.19 171.63 574.03 174.76 588.07 176.95 601.18 178.27 613.24 178.81 624.15 178.73 641.58 177.35 655.07 175.82 663.18 185.78 660.44 199.36 657.89 207.62 655.21 217.07 634.14 226.26 615.99 235.46 602.06 244.66 593.34 253.85 590.47 263.05 593.63 272.25 602.62 281.45 616.77 290.64 635.1 299.84 656.27 309.04 678.78 318.24 701.03 327.43 721.41 336.63 738.47 345.83 750.99 355.02 758.08 364.22 759.23 373.42 754.36 382.62 743.81 391.81 728.34 401.01 709.06 410.21 687.34 419.41 664.74 428.6 642.87 437.8 623.3 447 607.42 456.2 596.38 465.4 590.96 474.59 591.54 483.79 598.1 492.99 619.3 504.22 630.49 503.1 634.94 505.23 638.84 515.35 640 525.19 640.45 537.6 640.02 552.36 638.6 569.14 636.08 587.52 632.38 607.04 627.44 627.19 621.22 647.4 613.73 667.12 604.98 685.8 595 702.92 583.87 718.01 571.67 730.67 558.49 740.59 544.45 747.54 529.69 751.41 514.34 752.21 498.55 750.04 482.46 745.14 466.25 737.81 450.04 728.5 433.99 717.69 418.23 705.95 402.88 693.87 388.07 682.09 373.88 671.21 371.73 652.66 369.66 636.44 367.56 622.93 365.29 612.43 353.72 604.47 342.58 613.34 336.6 622.04 329.89 632.05 322.45 642.8 314.29 653.71 305.45 664.2 295.95 673.73 285.87 681.76 275.26 687.87 264.19 691.66 252.75 692.85 241.03 691.26 229.09 686.8 217.05 679.49 204.97 669.46 192.95 656.94 181.05 642.23 169.36 625.71 157.92 607.84 146.79 589.11 136.01 570.01 125.61 551.08 115.6 532.82 112.35 523.3 110 513.77 108.73 504.24 108.61 494.72 109.67 485.19 111.82 475.67 114.91 466.14 118.73 456.61 122.99 447.09 127.39 437.56 131.62 428.04 135.38 418.51 138.39 408.98 140.45 399.46 141.4 389.93 141.17 380.41 139.79 370.88 137.35 361.35 134.03 351.83 130.06 342.3 125.72 332.78 121.34 323.25 117.21 313.72 113.64 304.2 110.88 294.67 109.13 285.15 108.52 275.62 109.08 266.1 110.78 256.57 113.49 247.04 124.41 233.74 142.77 231.94 154.01 233.68 165.49 234.96 177.12 235.54 188.84 235.25 200.59 233.95 212.27 231.53 223.82 227.93 235.13 223.15 246.14 217.21 256.77 210.2 266.94 202.23 276.58 193.43 285.64 184 294.07 174.1 301.84 163.95 308.93 153.75 315.34 143.69 321.06 133.97 326.13 124.73 330.59 116.13 337.71 101.66 343.65 89.73 356.33 75.34 360.03 72.6" stroke-dasharray="0 0" transform="rotate(0, 400, 400)" opacity="0.05"></path><path d="M365.31 78.05Q378.26 86.11 391.95 94.6 406.31 103.41 421.26 112.41 436.69 121.44 452.49 130.35 468.53 138.98 484.68 147.17 500.79 154.77 516.72 161.66 532.32 167.74 547.45 172.91 561.97 177.13 575.74 180.4 588.64 182.72 600.56 184.15 611.41 184.8 621.1 184.78 651.46 189.02 648.94 200.55 646.5 208.04 644.05 216.74 624.17 225.68 607.45 234.62 595.05 243.57 587.81 252.51 586.23 261.45 590.44 270.39 600.12 279.33 614.63 288.28 632.95 297.22 653.82 306.16 675.81 315.1 697.4 324.05 717.1 332.99 733.55 341.93 745.62 350.87 752.48 359.81 753.65 368.76 749.05 377.7 739.01 386.64 724.2 395.58 705.66 404.52 684.66 413.47 662.65 422.41 641.15 431.35 621.63 440.29 605.45 449.23 593.72 458.18 587.24 467.12 586.47 476.06 591.46 485 609.96 496.47 619.69 497.15 623.71 501.94 627.57 514.5 628.95 525.3 629.75 538.47 629.83 553.76 629.05 570.83 627.29 589.26 624.47 608.6 620.51 628.34 615.37 647.97 609.02 666.95 601.46 684.78 592.71 700.98 582.81 715.14 571.82 726.88 559.82 735.94 546.91 742.13 533.2 745.38 518.8 745.68 503.86 743.18 488.5 738.1 472.87 730.75 457.1 721.54 441.34 710.94 425.72 699.49 410.37 687.76 395.4 676.32 380.93 665.76 379.06 647.62 377.14 631.71 375.05 618.4 372.68 607.93 359.95 598.94 347.71 606.59 341.23 614.74 334.03 624.23 326.11 634.55 317.51 645.16 308.26 655.51 298.41 665.06 288.02 673.33 277.17 679.88 265.92 684.32 254.36 686.36 242.57 685.79 230.63 682.5 218.64 676.47 206.66 667.77 194.79 656.58 183.08 643.16 171.59 627.83 160.4 610.99 149.53 593.09 139.03 574.58 128.91 555.97 119.19 537.72 116.11 528.26 113.99 518.79 112.98 509.32 113.14 499.85 114.45 490.38 116.84 480.91 120.14 471.45 124.11 461.98 128.49 452.51 132.97 443.04 137.25 433.57 141.02 424.1 144.04 414.64 146.08 405.17 147.02 395.7 146.78 386.23 145.38 376.76 142.93 367.29 139.58 357.82 135.57 348.36 131.17 338.89 126.69 329.42 122.44 319.95 118.71 310.48 115.76 301.01 113.79 291.54 112.93 282.07 113.25 272.61 114.72 263.14 117.25 253.67 127.89 240.51 145.88 238.79 156.93 240.4 168.21 241.44 179.69 241.71 191.3 241.04 202.97 239.33 214.62 236.5 226.17 232.49 237.56 227.33 248.69 221.06 259.48 213.77 269.87 205.58 279.79 196.63 289.17 187.11 297.96 177.19 306.11 167.08 313.61 156.96 320.43 147.03 326.57 137.45 332.05 128.4 336.88 119.98 344.56 105.89 350.82 94.33 362.21 80.62 365.31 78.05" stroke-dasharray="0 0" transform="rotate(0, 400, 400)" opacity="0.07"></path><path d="M371.44 83.49Q384.86 91.5 398.9 99.94 413.49 108.7 428.53 117.64 443.91 126.62 459.51 135.49 475.2 144.1 490.86 152.28 506.35 159.91 521.53 166.85 536.27 172.99 550.44 178.26 563.91 182.6 576.56 185.99 588.3 188.45 599.03 190.02 616.6 190.58 630.66 189.52 638.19 200.58 633.14 216.7 614.52 225.4 599.27 234.1 588.37 242.8 582.57 251.5 582.24 260.2 587.41 268.9 597.73 277.6 612.52 286.3 630.79 295 651.34 303.7 672.79 312.4 693.73 321.1 712.76 329.8 728.61 338.5 740.24 347.2 746.87 355.9 748.06 364.6 743.74 373.3 734.18 382 720.04 390.7 702.23 399.4 681.95 408.1 660.55 416.8 639.44 425.49 620.03 434.19 603.6 442.89 591.25 451.59 583.8 460.29 581.75 468.99 585.22 477.69 605.91 491.61 612.63 498.09 614.53 504.9 616.31 514.19 617.82 525.86 618.88 539.69 619.36 555.4 619.11 572.66 618.01 591.05 615.97 610.12 612.91 629.4 608.75 648.38 603.47 666.6 597.05 683.56 589.47 698.85 580.78 712.07 571 722.92 560.19 731.15 548.44 736.62 535.83 739.25 522.46 739.1 508.46 736.29 493.93 731.05 479.01 723.69 463.82 714.59 448.5 704.22 433.18 693.06 417.99 681.66 403.03 670.57 388.42 660.32 386.67 642.6 384.75 627 382.54 613.87 379.94 603.45 365.77 593.47 352.31 599.95 345.32 607.54 337.61 616.51 329.23 626.39 320.2 636.66 310.57 646.82 300.39 656.35 289.74 664.8 278.68 671.72 267.28 676.74 255.64 679.56 243.83 679.94 231.93 677.76 220.02 672.95 208.18 665.55 196.48 655.69 184.98 643.57 173.75 629.48 162.81 613.75 152.23 596.77 142.01 578.99 132.19 560.84 122.76 542.78 119.89 533.37 118.03 523.96 117.29 514.55 117.73 505.14 119.31 495.73 121.94 486.32 125.43 476.91 129.55 467.5 134.04 458.09 138.59 448.68 142.9 439.27 146.68 429.86 149.69 420.45 151.72 411.04 152.64 401.63 152.39 392.22 150.98 382.81 148.51 373.4 145.14 363.99 141.09 354.58 136.64 345.17 132.08 335.76 127.72 326.35 123.83 316.94 120.69 307.53 118.49 298.12 117.39 288.71 117.46 279.3 118.7 269.89 121.01 260.47 131.32 247.43 148.91 245.67 159.73 247.08 170.82 247.82 182.12 247.73 193.58 246.67 205.14 244.53 216.73 241.27 228.27 236.86 239.69 231.33 250.91 224.74 261.85 217.18 272.43 208.79 282.6 199.71 292.27 190.12 301.4 180.2 309.94 170.13 317.85 160.11 325.1 150.32 331.68 140.91 337.59 132.04 342.84 123.83 351.21 110.13 357.99 98.94 368.74 85.89 371.44 83.49" stroke-dasharray="0 0" transform="rotate(0, 400, 400)" opacity="0.09"></path><path d="M378.25 88.93Q392 96.89 406.25 105.27 420.91 113.97 435.88 122.85 451.04 131.78 466.29 140.61 481.5 149.18 496.55 157.36 511.3 165 525.63 171.99 539.43 178.2 552.57 183.57 564.94 188.03 576.46 191.55 587.03 194.15 596.58 195.87 619.82 195.62 630.71 193.43 627.45 202.92 622.53 216.98 605.24 225.45 591.45 233.93 580.26 250.87 584.54 267.81 595.43 276.28 610.45 284.75 628.64 293.23 648.83 301.7 669.74 310.17 690.02 318.64 708.38 327.11 723.65 335.58 734.85 344.05 741.26 352.52 742.47 361 738.41 369.47 729.34 377.94 715.82 386.41 698.74 394.88 679.18 403.35 658.39 411.82 637.71 420.29 618.45 428.76 601.85 437.24 588.96 445.71 580.62 454.18 577.36 462.65 579.38 471.12 596.38 486.94 601.78 496.24 603.47 504.16 605.16 514.41 606.7 526.84 607.92 541.22 608.69 557.25 608.86 574.6 608.32 592.85 606.96 611.58 604.69 630.33 601.43 648.64 597.14 666.05 591.77 682.14 585.32 696.51 577.79 708.82 569.19 718.79 559.58 726.21 548.99 730.98 537.52 733.04 525.24 732.46 512.24 729.37 498.63 723.99 484.53 716.63 470.05 707.66 455.32 697.51 440.44 686.65 425.56 675.58 410.77 664.82 396.2 654.89 394.42 637.57 392.34 622.28 389.88 609.34 386.95 598.99 371.1 588.07 356.33 593.4 348.81 600.44 340.62 608.89 331.79 618.3 322.36 628.22 312.38 638.15 301.91 647.62 291.03 656.17 279.8 663.4 268.31 668.93 256.62 672.45 244.83 673.72 233.01 672.58 221.22 668.94 209.55 662.8 198.06 654.25 186.8 643.45 175.83 630.62 165.18 616.06 154.89 600.11 144.98 583.15 135.46 565.61 126.34 547.9 123.71 538.55 122.12 529.2 121.67 519.85 122.39 510.5 124.24 501.15 127.1 491.8 130.78 482.45 135.05 473.1 139.63 463.75 144.24 454.4 148.57 445.05 152.36 435.7 155.35 426.35 157.37 417 158.27 407.65 158 398.3 156.58 388.95 154.09 379.6 150.71 370.25 146.64 360.9 142.14 351.55 137.51 342.21 133.03 332.86 129 323.51 125.67 314.16 123.26 304.81 121.92 295.46 121.73 286.11 122.71 276.76 124.79 267.41 134.72 254.43 151.86 252.52 162.44 253.67 173.31 254.07 184.41 253.58 195.71 252.09 207.13 249.51 218.63 245.82 230.12 241.01 241.54 235.12 252.81 228.22 263.86 220.42 274.61 211.85 285 202.66 294.94 193.02 304.4 183.12 313.3 173.12 321.61 163.22 329.29 153.57 336.32 144.35 342.68 135.67 348.39 127.66 357.58 114.37 365.04 103.55 375.78 91.17 378.25 88.93" stroke-dasharray="0 0" transform="rotate(0, 400, 400)" opacity="0.10"></path><path d="M385.61 94.38Q399.53 102.28 413.82 110.61 428.39 119.24 443.14 128.06 457.95 136.93 472.71 145.7 487.31 154.25 501.62 162.41 515.54 170.07 528.94 177.09 541.72 183.37 553.79 188.83 565.04 193.41 575.41 197.08 592.69 201.28 606.85 203.03 616.4 205.78 612.21 217.64 596.3 225.9 583.99 234.16 575.49 250.67 581.83 267.18 593.22 275.44 608.42 283.69 626.48 291.95 646.3 300.2 666.65 308.46 686.28 316.71 703.99 324.97 718.69 333.23 729.46 341.48 735.65 349.74 736.88 357.99 733.08 366.25 724.46 374.5 711.58 382.76 695.21 391.01 676.37 399.27 656.21 407.53 635.98 415.78 616.92 424.04 600.2 432.29 586.85 440.55 577.7 448.8 573.3 457.06 573.92 465.31 587.22 483.03 591.21 495.06 592.62 504.01 594.14 515.11 595.62 528.19 596.91 543.01 597.88 559.26 598.37 576.6 598.28 594.63 597.49 612.95 595.91 631.12 593.45 648.71 590.06 665.3 585.67 680.5 580.28 693.95 573.85 705.36 566.4 714.47 557.95 721.13 548.54 725.22 538.22 726.74 527.05 725.75 515.12 722.4 502.51 716.91 489.32 709.56 475.66 700.72 461.63 690.8 447.34 680.23 432.92 669.49 418.46 659.07 404.08 649.44 402.12 632.53 399.76 617.56 396.94 604.81 393.57 594.53 375.86 582.72 359.72 586.95 351.69 593.43 343.03 601.35 333.78 610.29 323.98 619.82 313.68 629.49 302.97 638.85 291.9 647.46 280.56 654.94 269 660.9 257.32 665.05 245.59 667.13 233.88 666.96 222.26 664.43 210.79 659.52 199.53 652.25 188.54 642.76 177.86 631.21 167.51 617.86 157.54 603 147.94 586.98 138.74 570.17 129.93 552.96 127.57 543.68 126.27 534.39 126.13 525.11 127.14 515.83 129.25 506.54 132.34 497.26 136.19 487.97 140.59 478.69 145.27 469.4 149.92 460.12 154.27 450.83 158.05 441.55 161.02 432.26 163.01 422.98 163.89 413.69 163.6 404.41 162.18 395.13 159.69 385.84 156.3 376.56 152.21 367.27 147.68 357.99 142.98 348.7 138.4 339.42 134.23 330.13 130.73 320.85 128.09 311.56 126.5 302.28 126.05 292.99 126.76 283.71 128.59 274.42 138.09 261.48 154.75 259.31 165.07 260.14 175.69 260.16 186.58 259.25 197.68 257.31 208.95 254.29 220.32 250.16 231.74 244.96 243.12 238.72 254.41 231.53 265.54 223.51 276.42 214.78 286.99 205.5 297.18 195.84 306.92 185.96 316.17 176.05 324.87 166.28 332.97 156.8 340.45 147.77 347.29 139.3 353.47 131.5 363.58 118.62 371.86 108.18 383.17 96.46 385.61 94.38" stroke-dasharray="0 0" transform="rotate(0, 400, 400)" opacity="0.12"></path><path d="M393.3 99.81Q407.24 107.66 421.42 115.92 435.75 124.48 450.13 133.23 464.44 142.04 478.59 150.77 492.46 159.27 505.95 167.42 518.95 175.09 531.36 182.15 543.09 188.49 554.05 194.05 564.18 198.75 573.4 202.55 588.46 207.07 600.51 209.12 596.77 217.83 576.9 234.82 571 250.92 579.26 267.03 591.1 275.08 606.42 283.14 624.31 291.19 643.73 299.24 663.52 307.3 682.5 315.35 699.56 323.4 713.7 331.46 724.06 339.51 730.04 347.56 731.29 355.62 727.73 363.67 719.57 371.73 707.3 379.78 691.63 387.83 673.51 395.89 653.99 403.94 634.24 411.99 615.42 420.05 598.64 428.1 584.9 436.16 575.01 444.21 571.26 460.32 581.63 476.42 580.35 482.24 580.96 494.52 582.04 504.4 583.32 516.25 584.67 529.88 585.94 545.03 587 561.39 587.72 578.63 587.98 596.37 587.66 614.21 586.66 631.75 584.9 648.59 582.3 664.34 578.82 678.64 574.39 691.19 569.01 701.71 562.65 709.99 555.33 715.9 547.07 719.36 537.89 720.37 527.86 719 517.02 715.41 505.46 709.82 493.26 702.51 480.5 693.81 467.28 684.11 453.7 673.84 439.86 663.43 425.88 653.33 411.84 644 409.57 627.5 406.83 612.83 403.54 600.29 399.65 590.08 389.61 578.44 377.54 574.34 370.31 576.44 362.43 580.6 353.92 586.54 344.82 593.93 335.17 602.39 325.04 611.51 314.49 620.89 303.57 630.09 292.37 638.71 280.95 646.36 269.39 652.69 257.76 657.39 246.13 660.2 234.57 660.93 223.15 659.45 211.91 655.7 200.92 649.69 190.22 641.48 179.85 631.22 169.83 619.12 160.18 605.42 150.92 590.42 142.05 574.45 133.56 557.88 131.48 548.67 130.5 539.46 130.66 530.24 131.97 521.03 134.35 511.81 137.65 502.6 141.68 493.38 146.2 484.17 150.94 474.96 155.63 465.74 159.99 456.53 163.75 447.31 166.7 438.1 168.66 428.88 169.51 419.67 169.21 410.46 167.78 401.24 165.29 392.03 161.89 382.81 157.79 373.6 153.23 364.39 148.48 355.17 143.82 345.96 139.52 336.74 135.84 327.53 133 318.32 131.16 309.1 130.43 299.89 130.87 290.67 132.43 281.46 141.45 268.53 157.58 266 167.63 266.46 177.99 266.06 188.64 264.7 199.52 262.29 210.6 258.82 221.82 254.27 233.12 248.68 244.44 242.11 255.71 234.66 266.87 226.43 277.84 217.57 288.56 208.22 298.95 198.55 308.96 188.73 318.52 178.93 327.58 169.3 336.09 160 344.02 151.17 351.33 142.91 358 135.33 369.09 122.87 378.3 112.81 390.74 101.75 393.3 99.81" stroke-dasharray="0 0" transform="rotate(0, 400, 400)" opacity="0.14"></path><path d="M401.16 105.25Q414.96 113.04 428.88 121.23 442.82 129.72 456.69 138.39 470.39 147.13 483.81 155.8 496.86 164.27 509.44 172.4 521.46 180.07 532.83 187.16 543.48 193.57 553.34 199.21 569.99 207.53 583.86 213.23 587.48 220.21 570.2 235.93 566.79 251.66 576.83 267.39 589.05 275.26 604.44 283.12 622.14 290.99 641.13 298.85 660.35 306.72 678.69 314.58 695.12 322.45 708.7 330.31 722.18 346.04 722.37 361.77 714.65 369.64 702.97 377.5 688 385.37 670.58 393.24 651.71 401.1 632.45 408.97 613.91 416.83 597.14 424.7 583.08 432.56 572.55 440.43 566.49 456.16 573.94 471.89 571.5 480.16 571.11 494.61 571.79 505.31 572.77 517.8 573.91 531.87 575.09 547.24 576.16 563.62 577 580.67 577.5 598.04 577.54 615.34 577.03 632.2 575.86 648.26 573.96 663.15 571.27 676.56 567.73 688.21 563.3 697.87 551.27 709.37 536.52 713.91 527.62 712.2 517.9 708.4 507.42 702.73 496.25 695.46 484.46 686.91 472.14 677.44 459.37 667.46 446.25 657.37 432.87 647.6 419.33 638.56 416.63 622.46 413.39 608.11 409.55 595.77 405.09 585.65 393.85 573.75 380.61 569.05 372.84 570.7 364.45 574.35 355.48 579.76 345.98 586.62 335.99 594.59 325.58 603.29 314.81 612.34 303.74 621.34 292.46 629.91 281.02 637.68 269.5 644.31 257.96 649.48 246.48 652.96 235.12 654.52 223.92 654.02 212.96 651.37 202.26 646.56 191.88 639.61 181.83 630.64 172.15 619.8 162.85 607.3 153.93 593.4 145.4 578.38 137.24 562.58 135.47 553.44 134.81 544.3 135.29 535.17 136.9 526.03 139.53 516.89 143.04 507.75 147.22 498.62 151.85 489.48 156.66 480.34 161.37 471.2 165.72 462.07 169.46 452.93 172.38 443.79 174.31 434.65 175.14 425.52 174.82 416.38 173.38 407.24 170.89 398.1 167.5 388.97 163.4 379.83 158.82 370.69 154.02 361.56 149.28 352.42 144.86 343.28 141.01 334.14 137.97 325.01 135.88 315.87 134.89 306.73 135.03 297.59 136.31 288.46 144.81 275.5 160.39 272.53 170.15 272.58 180.23 271.73 190.61 269.89 201.25 267.02 212.11 263.09 223.14 258.13 234.3 252.17 245.52 245.29 256.73 237.59 267.89 229.19 278.91 220.21 289.73 210.82 300.29 201.18 310.52 191.43 320.36 181.75 329.75 172.29 338.64 163.18 346.99 154.55 354.76 146.52 361.93 139.17 374.04 127.13 384.27 117.45 398.31 107.03 401.16 105.25" stroke-dasharray="0 0" transform="rotate(0, 400, 400)" opacity="0.16"></path><path d="M409 110.7Q436.02 126.54 462.69 143.55 488.26 160.82 512.02 177.34 533.32 192.13 551.63 204.32 566.56 213.34 577.93 218.93 586.52 216.02 583.45 222.16 563.87 237.54 560.67 252.91 574.54 268.29 602.49 283.67 638.51 299.05 674.85 314.43 703.69 329.81 718.83 345.19 717 360.57 698.61 375.95 667.6 391.32 630.65 406.7 595.72 422.08 570.31 437.46 559.89 452.84 566.72 468.22 562.75 477.85 561.65 495.27 562.52 519.71 564.39 549.59 566.27 582.67 567.22 616.3 566.39 647.7 563.09 674.25 556.8 693.82 547.18 705.03 534.12 707.37 517.71 701.35 498.22 688.4 476.11 670.78 451.93 651.31 426.35 633.11 419.31 603.38 409.79 581.21 397.65 567.93 382.91 563.83 365.76 568.2 346.51 579.42 325.59 595.15 303.5 612.61 280.78 628.92 257.96 641.36 235.53 647.72 213.94 646.52 193.52 637.14 174.5 619.86 156.99 595.84 140.98 566.93 139.21 548.83 141.91 530.72 148.5 512.62 157.56 494.52 167.14 476.41 175.18 458.31 179.96 440.2 180.43 422.1 176.5 404 169.02 385.89 159.6 367.79 150.26 349.68 143.01 331.58 139.41 313.48 140.24 295.37 145.32 277.27 163.17 278.88 182.41 277.15 202.87 271.48 224.31 261.75 246.36 248.27 268.6 231.79 290.51 213.33 311.6 194.07 331.36 175.24 349.35 157.93 365.21 143.01 378.68 131.01 389.66 122.12 398.21 116.14 406.76 111.64 409 110.7" stroke-dasharray="0 0" transform="rotate(0, 400, 400)" opacity="0.17"></path><path d="M416.61 116.14Q442.67 131.83 467.96 148.67 491.82 165.8 513.6 182.24 532.78 197.04 548.93 209.38 561.78 218.65 571.25 224.58 567.26 230.33 557.11 254.7 572.37 269.75 600.56 284.8 635.86 299.85 670.98 314.91 698.67 329.96 713.22 345.01 711.62 360.06 694.2 375.12 664.55 390.17 628.81 405.22 594.34 420.27 568.27 435.32 555.97 450.37 559.98 465.43 554.82 477.31 552.64 496.45 552.64 521.92 553.94 552.03 555.61 584.6 556.78 617.08 556.6 646.9 554.39 671.7 549.56 689.59 541.73 699.39 530.7 700.77 516.44 694.29 499.12 681.36 479.07 664.14 456.75 645.28 432.72 627.67 424.45 598.65 413.65 576.8 400.26 563.37 384.41 558.69 366.35 562.16 346.43 572.35 325.11 587.12 302.88 603.94 280.27 620.1 257.77 633.04 235.85 640.58 214.88 641.18 195.17 634.07 176.88 619.29 160.11 597.71 144.8 570.87 143.72 552.96 147.03 535.04 154.04 517.13 163.32 499.21 172.94 481.3 180.92 463.38 185.61 445.47 186.04 427.55 182.12 409.64 174.67 391.72 165.22 373.81 155.72 355.89 148.13 337.97 144.02 320.06 144.24 302.14 148.75 284.23 165.96 285 184.55 282.3 204.42 275.67 225.35 265.11 247.01 251.05 269.02 234.24 290.91 215.73 312.21 196.65 332.41 178.17 351.07 161.31 367.8 146.85 382.29 135.3 394.38 126.78 404.02 121.12 413.98 116.97 416.61 116.14" stroke-dasharray="0 0" transform="rotate(0, 400, 400)" opacity="0.19"></path><path d="M423.81 121.58Q448.66 137.11 472.39 153.78 494.4 170.75 514.15 187.1 531.21 201.91 545.26 214.37 566.08 225.7 566.3 227.51 552.36 242.26 553.79 257.01 570.3 271.76 598.62 286.51 633.16 301.26 667.07 316.01 693.64 330.76 707.61 345.51 706.23 360.26 689.75 375.01 661.45 389.76 626.93 404.51 593.01 419.26 566.41 434.01 552.4 448.75 553.74 463.5 547.4 477.47 544.12 498.14 543.18 524.4 543.79 554.54 545.11 586.43 546.31 617.67 546.59 645.87 545.24 668.92 541.68 685.16 535.46 693.62 526.3 694.1 514.1 687.2 498.92 674.33 480.97 657.51 460.61 639.25 438.3 622.24 428.71 593.91 416.59 572.39 402 558.84 385.11 553.62 366.24 556.22 345.78 565.38 324.18 579.19 301.93 595.31 279.54 611.24 257.46 624.54 236.12 633.11 215.84 635.36 196.87 630.4 179.34 618.07 163.31 598.95 148.7 574.33 148.33 556.62 152.24 538.91 159.66 521.2 169.13 503.49 178.76 485.79 186.66 468.08 191.26 450.37 191.65 432.66 187.75 414.95 180.33 397.24 170.87 379.53 161.23 361.82 153.33 344.12 148.72 326.41 148.32 308.7 152.21 290.99 168.76 290.84 186.69 287.13 205.93 279.55 226.28 268.21 247.49 253.61 269.2 236.54 290.98 218.03 312.38 199.17 332.92 181.07 352.16 164.67 369.68 150.7 385.15 139.6 398.35 131.46 409.14 126.1 420.69 122.31 423.81 121.58" stroke-dasharray="0 0" transform="rotate(0, 400, 400)" opacity="0.21"></path><path d="M430.45 127.03Q453.88 142.39 475.88 158.88 495.96 175.69 513.65 191.93 528.62 206.73 540.66 219.31 556.71 231.18 558.38 230.94 547.17 245.41 550.72 259.87 568.34 274.34 596.7 288.81 630.42 303.28 663.12 317.74 688.59 332.21 702 346.68 700.82 361.15 685.27 375.61 658.3 390.08 625.01 404.55 591.72 419.02 564.74 433.48 549.17 447.95 547.98 462.42 540.49 478.29 536.08 500.25 534.15 527.08 533.98 557.06 534.82 588.12 535.89 618.02 536.42 644.57 535.73 665.89 527.1 683.95 510.72 680.09 497.6 667.29 481.75 650.89 463.41 633.22 442.95 616.79 431.99 589.17 418.58 567.98 402.84 554.34 385.01 548.6 365.45 550.38 344.57 558.53 322.82 571.36 300.68 586.74 278.62 602.35 257.05 615.89 236.36 625.33 216.81 629.08 198.62 626.14 181.89 616.17 166.62 599.52 152.71 577.2 153.06 559.72 157.56 542.24 165.36 524.76 174.99 507.28 184.61 489.8 192.42 472.32 196.91 454.84 197.25 437.36 193.37 419.89 186.01 402.41 176.55 384.93 166.8 367.45 158.6 349.97 153.51 332.49 152.48 315.01 155.72 297.53 171.6 296.39 188.84 291.65 207.4 283.13 227.14 271.05 247.82 255.97 269.14 238.7 290.72 220.24 312.12 201.65 332.9 183.96 352.62 168.04 370.85 154.57 387.23 143.91 401.5 136.16 413.47 131.11 426.77 127.65 430.45 127.03" stroke-dasharray="0 0" transform="rotate(0, 400, 400)" opacity="0.23"></path><path d="M436.34 132.46Q458.17 147.66 478.34 163.95 496.42 180.59 512.07 196.72 525.02 211.5 535.18 224.19 547.59 236.9 550.92 234.87 542.36 249.07 547.88 263.28 566.47 277.48 594.77 291.69 627.65 305.89 659.14 320.1 683.53 334.3 696.4 348.51 695.41 362.71 680.75 376.92 655.08 391.12 623.04 405.33 590.45 419.53 563.22 433.73 546.28 447.94 542.71 462.14 534.1 479.71 528.58 502.73 525.61 529.92 524.59 559.55 524.82 589.65 525.6 618.13 526.21 643.02 525.98 662.63 519.57 678.15 506.33 672.97 495.18 660.27 481.37 644.29 465.07 627.21 446.55 611.35 434.23 584.43 419.57 563.59 402.77 549.87 384.13 543.66 364.02 544.64 342.86 551.82 321.1 563.66 299.19 578.26 277.56 593.45 256.59 607.11 236.6 617.27 217.85 622.36 200.47 621.3 184.54 613.59 170.03 599.39 156.84 579.43 157.91 562.21 162.98 544.98 171.14 527.75 180.9 510.52 190.49 493.29 198.18 476.07 202.57 458.84 202.86 441.61 199.01 424.38 191.71 407.15 182.28 389.92 172.43 372.69 163.96 355.47 158.39 338.24 156.74 321.01 159.3 303.78 174.48 301.6 191.01 295.82 208.87 286.4 227.94 273.64 248.04 258.14 268.9 240.72 290.17 222.36 311.47 204.08 332.38 186.83 352.46 171.41 371.29 158.44 388.5 148.24 403.79 140.87 416.92 136.12 432.05 133 436.34 132.46" stroke-dasharray="0 0" transform="rotate(0, 400, 400)" opacity="0.24"></path><path d="M441.34 137.9Q461.44 152.92 479.7 169.01 495.79 185.46 509.43 201.46 520.47 216.22 528.89 228.99 538.75 242.83 543.92 239.28 537.91 253.24 545.25 267.2 564.67 281.16 592.82 295.12 624.82 309.08 655.11 323.04 678.44 337 690.79 350.96 689.99 364.93 676.2 378.89 651.8 392.85 621.02 406.81 589.2 420.77 561.85 434.73 543.7 448.69 537.92 462.65 528.24 481.7 521.62 505.55 517.6 532.86 515.66 561.97 515.19 590.98 515.54 617.98 516.05 641.19 516.09 659.13 511.47 672.22 501.01 665.83 491.69 653.27 479.85 637.71 465.57 621.21 449.03 605.91 435.37 579.69 419.55 559.21 401.82 545.44 382.5 538.79 361.99 539 340.7 545.22 319.06 556.09 297.5 569.86 276.4 584.58 256.11 598.24 236.9 608.98 218.97 615.24 202.44 615.9 187.33 610.35 173.59 598.54 161.1 580.99 162.89 564.03 168.52 547.07 176.99 530.12 186.85 513.16 196.39 496.2 203.95 479.25 208.22 462.29 208.47 445.33 204.65 428.38 197.41 411.42 188.03 394.47 178.12 377.51 169.39 360.55 163.37 343.6 161.1 326.64 162.96 309.69 177.45 306.43 193.24 299.63 210.36 289.35 228.73 275.96 248.19 260.1 268.5 242.61 289.39 224.41 310.48 206.47 331.39 189.68 351.71 174.79 371.02 162.33 388.96 152.59 405.18 145.6 419.42 141.14 436.42 138.34 441.34 137.9" stroke-dasharray="0 0" transform="rotate(0, 400, 400)" opacity="0.26"></path><path d="M445.35 143.35Q463.62 158.17 479.94 174.06 494.04 190.31 505.76 206.17 515.02 220.88 521.85 233.74 530.21 248.96 537.4 244.19 533.81 257.92 542.83 271.65 562.97 285.38 590.88 299.11 621.95 312.84 651.05 326.57 673.36 340.3 685.18 354.03 684.56 367.76 671.61 381.49 648.46 395.22 618.95 408.96 587.95 422.69 560.61 436.42 541.43 450.15 533.6 463.88 522.91 484.18 515.2 508.62 510.13 535.86 507.23 564.27 505.97 592.08 505.77 617.55 506.03 639.09 506.14 655.38 502.9 666.18 494.83 658.68 487.18 646.26 477.2 631.14 464.87 615.21 450.31 600.46 435.4 574.94 418.53 554.82 400.01 541.04 380.17 533.98 359.41 533.46 338.14 538.76 316.76 548.65 295.66 561.57 275.2 575.73 255.66 589.28 237.28 600.46 220.22 607.74 204.54 609.96 190.25 606.43 177.29 596.94 165.5 581.79 168.01 565.12 174.16 548.46 182.92 531.8 192.85 515.14 202.31 498.48 209.73 481.82 213.88 465.16 214.08 448.5 210.29 431.85 203.14 415.19 193.82 398.53 183.86 381.87 174.91 365.21 168.46 348.55 165.57 331.89 166.72 315.23 180.49 310.88 195.55 303.07 211.9 291.98 229.52 278.03 248.28 261.89 267.99 244.38 288.39 226.39 309.17 208.84 329.97 192.54 350.4 178.18 370.07 166.24 388.61 156.96 405.67 150.35 420.94 146.18 439.78 143.7 445.35 143.35" stroke-dasharray="0 0" transform="rotate(0, 400, 400)" opacity="0.28"></path><path d="M448.25 148.79Q464.64 163.41 479.02 179.08 491.21 195.13 501.12 210.84 508.74 225.49 514.17 238.41 522.03 255.28 531.34 249.56 530.07 263.07 540.62 276.58 561.32 290.1 588.92 303.61 619.05 317.12 646.96 330.64 668.26 344.15 679.57 357.67 679.12 371.18 666.97 384.69 645.05 398.21 616.81 411.72 586.7 425.23 559.48 438.75 539.44 452.26 529.74 465.78 518.09 487.08 509.35 511.88 503.22 538.84 499.34 566.41 497.22 592.94 496.37 616.84 496.23 636.7 496.25 651.4 494 660.02 487.89 651.52 481.74 639.28 473.47 624.59 463 609.23 450.37 595.02 434.32 570.2 416.56 550.45 397.4 536.67 377.21 529.24 356.37 528.03 335.26 532.42 314.27 541.34 293.75 553.39 274 566.94 255.29 580.28 237.78 591.75 221.61 599.88 206.81 603.51 193.35 601.86 181.15 594.58 170.06 581.8 173.27 565.46 179.91 549.12 188.93 532.78 198.9 516.44 208.25 500.1 215.51 483.76 219.54 467.42 219.69 451.08 215.94 434.74 208.89 418.4 199.64 402.06 189.66 385.72 180.52 369.38 173.66 353.04 170.17 336.7 170.59 320.36 183.65 314.91 197.94 306.14 213.52 294.29 230.35 279.86 248.37 263.5 267.4 246.03 287.24 228.31 307.6 211.18 328.17 195.4 348.59 181.58 368.48 170.16 387.49 161.34 405.25 155.1 421.46 151.23 442.05 149.05 448.25 148.79" stroke-dasharray="0 0" transform="rotate(0, 400, 400)" opacity="0.30"></path><path d="M449.98 154.24Q464.47 168.66 476.96 184.09 487.34 199.92 495.57 215.47 501.71 230.05 505.92 243.02 514.24 261.75 525.75 255.37 526.66 268.68 538.58 281.98 559.73 295.29 586.93 308.6 616.09 321.9 642.84 335.21 663.14 348.51 673.96 361.82 673.67 375.13 662.3 388.43 641.58 401.74 614.61 415.05 585.44 428.35 558.46 441.66 537.72 454.97 526.33 468.27 513.8 490.34 504.06 515.28 496.91 541.78 492.02 568.36 489 593.52 487.41 615.82 486.75 634.02 486.51 647.18 480.15 643.02 468.72 618.05 459.98 603.25 449.2 589.58 432.16 565.44 413.67 546.08 394.05 532.32 373.68 524.55 352.91 522.69 332.12 526.21 311.65 534.18 291.81 545.34 272.87 558.22 255.03 571.25 238.44 582.88 223.18 591.72 209.26 596.58 196.63 596.65 185.19 591.47 174.78 581.01 178.67 565.01 185.77 549.02 195 533.02 204.98 517.02 214.21 501.02 221.31 485.02 225.19 469.02 225.29 453.02 221.59 437.02 214.64 421.02 205.49 405.02 195.51 389.03 186.21 373.03 178.97 357.03 174.89 341.03 174.58 325.03 186.93 318.5 200.46 308.82 215.23 296.29 231.26 281.44 248.48 264.95 266.78 247.59 285.97 230.18 305.82 213.51 326.04 198.26 346.31 185.01 366.29 174.11 385.61 165.75 403.95 159.89 420.96 156.3 443.18 154.41 449.98 154.24" stroke-dasharray="0 0" transform="rotate(0, 400, 400)" opacity="0.31"></path><path d="M450.49 159.68Q463.12 173.88 473.8 189.08 482.49 204.68 489.2 220.06 494.05 234.55 497.24 247.54 506.88 268.34 520.64 261.59 523.57 274.7 536.71 287.8 558.18 300.91 584.92 314.02 613.09 327.13 638.68 340.24 658.02 353.34 668.36 366.45 668.2 379.56 657.59 392.67 638.03 405.77 612.32 418.88 584.13 431.99 557.49 445.1 536.22 458.2 523.35 471.31 510 493.9 499.34 518.76 491.19 544.61 485.3 570.09 481.35 593.8 478.95 614.49 477.66 631.07 477.04 642.73 472.01 636.36 463.05 611.54 455.89 597.28 446.84 584.14 428.98 560.69 409.94 541.72 390.06 528.01 369.68 519.94 349.16 517.46 328.82 520.14 308.99 527.17 289.92 537.42 271.85 549.59 254.93 562.23 239.29 573.9 224.95 583.28 211.92 589.21 200.11 590.84 189.42 587.63 179.67 579.41 184.22 563.77 191.74 548.13 201.15 532.5 211.1 516.86 220.19 501.23 227.1 485.59 230.85 469.95 230.9 454.32 227.25 438.68 220.42 423.04 211.38 407.4 201.42 391.77 191.98 376.13 184.39 360.49 179.75 344.86 178.72 329.22 190.35 321.64 203.12 311.11 217.08 297.97 232.27 282.79 248.67 266.23 266.18 249.05 284.65 232 303.9 215.82 323.66 201.14 343.65 188.45 363.56 178.08 383.06 170.17 401.8 164.68 419.48 161.37 443.14 159.77 450.49 159.68" stroke-dasharray="0 0" transform="rotate(0, 400, 400)" opacity="0.33"></path><path d="M449.78 165.11Q460.62 179.1 469.6 194.05 476.73 209.42 482.1 224.61 485.86 239 488.22 252 499.95 275.04 515.98 268.19 520.79 281.1 535 294.02 556.67 306.93 582.87 319.84 610.03 332.75 634.48 345.67 652.88 358.58 662.75 371.49 662.73 384.4 652.85 397.32 634.42 410.23 609.97 423.14 582.8 436.05 556.62 448.97 534.96 461.88 520.77 474.79 506.7 497.66 495.17 522.23 486.07 547.28 479.21 571.54 474.31 593.77 471.05 612.84 463.8 627.73 456.58 605.04 450.81 591.33 443.35 578.7 424.86 555.93 405.47 537.37 385.5 523.72 365.3 515.38 345.17 512.33 325.43 514.21 306.34 520.31 288.13 529.65 270.99 541.06 255.04 553.22 240.36 564.82 226.96 574.59 214.81 581.42 203.81 584.44 193.85 583.04 184.75 576.95 189.92 561.7 197.81 546.45 207.36 531.2 217.27 515.94 226.18 500.69 232.9 485.44 236.51 470.19 236.51 454.93 232.91 439.68 226.2 424.43 217.29 409.18 207.39 393.92 197.84 378.67 189.93 363.42 184.75 348.16 183 332.91 193.93 324.34 205.93 313.02 219.08 299.36 233.42 283.93 248.96 267.38 265.63 250.43 283.33 233.79 301.88 218.13 321.08 204.03 340.67 191.91 360.37 182.08 379.88 174.62 398.88 169.49 417.05 166.46 441.94 165.13 449.78 165.11" stroke-dasharray="0 0" transform="rotate(0, 400, 400)" opacity="0.35"></path><path d="M447.85 170.56Q457 184.32 464.42 199.01 470.18 214.13 474.39 229.12 477.24 243.39 478.98 256.39 485.09 284.52 494.3 283.16 501.91 279.09 511.78 275.12 518.31 287.84 533.43 300.56 555.19 313.28 580.79 326 606.93 338.72 630.24 351.44 647.73 364.16 657.14 376.88 657.26 389.6 648.07 402.32 630.75 415.04 607.55 427.76 581.44 440.48 555.79 453.2 533.9 465.92 518.59 478.64 503.88 501.56 491.56 525.64 481.56 549.74 473.75 572.7 467.9 593.39 463.74 610.85 455.31 621.28 449.42 598.55 444.84 585.38 438.79 573.25 419.88 551.17 400.34 533.01 380.49 519.46 360.63 510.88 341.05 507.29 322.02 508.4 303.78 513.6 286.51 522.04 270.35 532.65 255.39 544.27 241.69 555.68 229.22 565.7 217.94 573.26 207.74 577.49 197.12 568.29 204 543.97 213.65 529.12 223.47 514.27 232.2 499.42 238.71 484.57 242.16 469.72 242.12 454.88 238.58 440.03 232 425.18 223.23 410.33 213.4 395.48 203.77 380.63 195.59 365.78 189.9 350.93 187.45 336.08 197.69 326.57 208.92 314.55 221.25 300.46 234.74 284.87 249.39 268.4 265.19 251.74 282.05 235.56 299.83 220.45 318.36 206.94 337.43 195.41 356.79 186.11 376.15 179.1 395.24 174.33 413.74 171.56 439.61 170.51 447.85 170.56" stroke-dasharray="0 0" transform="rotate(0, 400, 400)" opacity="0.37"></path><path d="M444.77 176Q452.35 189.52 458.38 203.95 462.94 218.81 466.2 233.59 468.35 247.72 469.65 260.69 471 280.22 472.72 293.05 478.6 294.47 488.94 290.46 497.39 286.49 508.01 282.34 516.09 294.87 531.97 307.39 553.71 319.92 578.65 332.45 603.76 344.98 625.97 357.51 642.57 370.03 651.53 382.56 651.77 395.09 643.25 407.61 627.01 420.14 605.03 432.67 580.01 445.2 554.98 457.72 533 470.25 516.76 482.78 501.5 505.52 488.47 528.94 477.65 551.96 468.93 573.53 462.15 592.67 457.09 608.53 446.8 614.78 441.72 592.08 438.13 579.44 433.3 567.81 414.19 546.4 394.71 528.67 375.15 515.23 355.8 506.44 336.91 502.36 318.71 502.73 301.39 507.06 285.11 514.59 269.97 524.39 256.03 535.4 243.31 546.52 231.77 556.65 221.34 564.79 211.91 570.06 202.55 563.47 210.28 540.71 219.99 526.29 229.7 511.86 238.22 497.43 244.52 483 247.82 468.57 247.73 454.14 244.25 439.71 237.81 425.28 229.2 410.85 219.46 396.42 209.79 381.99 201.36 367.56 195.2 353.13 192.07 338.7 201.63 328.34 212.11 315.71 223.63 301.28 236.25 285.61 250.01 269.3 264.9 253 280.87 237.31 297.82 222.78 315.6 209.88 334.04 198.94 352.91 190.16 371.98 183.61 390.98 179.18 409.63 176.68 427.65 175.75 444.77 176 444.77 176 444.77 176" stroke-dasharray="0 0" transform="rotate(0, 400, 400)" opacity="0.38"></path><path d="M440.6 181.44Q446.78 194.71 451.59 208.87 455.15 223.47 457.65 238.01 459.29 252 460.35 264.92 462.01 284.81 464.67 298.39 472.11 300.87 484.13 297.78 493.36 294 504.67 289.8 514.14 302.13 530.63 314.46 552.24 326.79 576.47 339.12 600.54 351.45 621.65 363.78 637.39 376.12 645.92 388.45 646.27 400.78 638.4 413.11 623.21 425.44 602.46 437.77 578.53 450.1 554.2 462.44 532.27 474.77 515.27 487.1 499.56 509.46 485.91 532.04 474.33 553.87 464.75 574 457.08 591.58 451.12 605.87 438.4 608.23 433.63 585.64 430.82 573.52 427 562.37 407.9 541.64 388.68 524.33 369.6 511.02 350.91 502.06 332.83 497.51 315.56 497.2 299.24 500.68 284 507.31 269.9 516.27 256.99 526.62 245.24 537.36 234.61 547.47 225.01 556.02 216.33 562.15 208.16 557.94 216.67 536.68 226.4 522.69 235.96 508.7 244.26 494.71 250.33 480.71 253.48 466.72 253.34 452.73 249.92 438.74 243.64 424.75 235.19 410.76 225.58 396.76 215.89 382.77 207.25 368.78 200.66 354.79 196.88 340.8 205.77 329.66 215.52 316.53 226.23 301.85 237.99 286.18 250.84 270.11 264.81 254.21 279.85 239.06 295.9 225.13 312.85 212.85 330.55 202.5 348.82 194.25 367.45 188.14 386.2 184.06 404.81 181.8 423.03 181.06 440.6 181.44 440.6 181.44 440.6 181.44" stroke-dasharray="0 0" transform="rotate(0, 400, 400)" opacity="0.40"></path><path d="M435.43 186.89Q440.39 199.9 444.17 213.78 446.94 228.1 448.87 242.4 450.2 256.22 451.18 269.08 452.07 280.56 453.18 290.3 464.75 304.92 479.86 305.05 489.82 301.57 501.74 297.44 512.43 309.57 529.39 321.7 550.78 333.83 574.25 345.96 597.27 358.09 617.31 370.22 632.2 382.35 640.31 394.48 640.77 406.61 633.51 418.74 619.33 430.87 599.78 443 576.99 455.13 553.43 467.26 531.68 479.39 514.1 491.52 498.02 513.31 483.84 534.91 471.58 555.45 461.22 574.1 452.69 590.11 445.85 602.87 430.22 601.62 425.3 579.2 423.05 567.59 420.03 556.93 401.17 536.86 382.4 519.98 363.96 506.83 346.07 497.73 328.92 492.76 312.65 491.79 297.39 494.46 283.22 500.21 270.19 508.32 258.29 517.96 247.51 528.23 237.77 538.21 228.97 547.02 221.01 553.84 213.96 551.73 223.16 531.92 232.86 518.38 242.25 504.84 250.3 491.3 256.14 477.76 259.13 464.22 258.94 450.68 255.6 437.14 249.47 423.6 241.22 410.06 231.74 396.52 222.07 382.98 213.26 369.44 206.28 355.9 201.88 342.36 210.13 330.55 219.16 317.01 229.08 302.18 239.98 286.61 251.93 270.84 264.95 255.4 279.03 240.82 294.14 227.52 310.19 215.87 327.07 206.11 344.62 198.38 362.67 192.7 381 188.96 399.4 186.95 417.63 186.39 435.43 186.89 435.43 186.89 435.43 186.89" stroke-dasharray="0 0" transform="rotate(0, 400, 400)" opacity="0.42"></path><path d="M429.41 192.33Q433.34 205.08 436.3 218.67 438.47 232.7 440.03 246.75 441.22 260.38 442.28 273.15 443.45 284.67 445.01 294.57 450.9 307.52 460.17 314.2 467.31 314.04 476.13 312.23 486.73 309.14 499.19 305.2 510.93 317.13 528.22 329.05 549.29 340.97 571.97 352.89 593.93 364.81 612.93 376.74 627 388.66 634.7 400.58 635.25 412.5 628.58 424.43 615.38 436.35 597.01 448.27 575.35 460.2 552.62 472.12 531.17 484.04 513.19 495.97 496.85 516.99 482.23 537.48 469.38 556.66 458.32 573.79 448.98 588.25 441.3 599.52 426.28 606.05 420.02 594.11 418.51 583.89 416.92 572.79 415.02 561.69 412.59 551.49 394.16 532.09 376.02 515.65 358.38 502.67 341.41 493.46 325.27 488.11 310.08 486.53 295.91 488.41 282.84 493.29 270.87 500.55 259.98 509.45 250.14 519.18 241.26 528.92 233.23 537.84 225.95 545.18 219.95 544.92 229.74 526.47 239.38 513.39 248.56 500.31 256.36 487.23 261.96 474.15 264.78 461.08 264.55 448 261.28 434.92 255.32 421.84 247.26 408.77 237.94 395.69 228.32 382.61 219.39 369.53 212.05 356.46 207.07 343.38 214.7 331.01 223.04 317.17 232.19 302.3 242.25 286.9 253.3 271.49 265.37 256.57 278.48 242.59 292.61 229.94 307.71 218.92 323.68 209.76 340.41 202.55 357.75 197.29 375.52 193.88 393.54 192.11 411.57 191.71 429.41 192.33 429.41 192.33 429.41 192.33" stroke-dasharray="0 0" transform="rotate(0, 400, 400)" opacity="0.44"></path><path d="M422.68 197.76Q425.77 210.25 428.11 223.54 429.87 237.27 431.25 251.06 432.47 264.48 433.74 277.15 435.31 288.67 437.41 298.72 444.71 312.4 455.52 320.11 463.41 320.55 472.91 319.31 484.1 316.67 497 313.04 509.63 324.74 527.12 336.45 547.79 348.15 569.63 359.86 590.55 371.56 608.51 383.27 621.79 394.97 629.1 406.68 629.73 418.38 623.62 430.09 611.37 441.79 594.16 453.5 573.64 465.2 551.81 476.91 530.76 488.61 512.54 500.32 496.03 520.42 481.06 539.7 467.72 557.45 456.02 573.07 445.96 585.99 437.48 595.83 419.78 599.5 412.05 586.95 410.29 577.05 408.64 566.4 406.89 555.79 404.84 546.05 387.04 527.31 369.7 511.32 352.98 498.54 337.04 489.24 321.98 483.55 307.91 481.4 294.87 482.54 282.89 486.57 271.97 492.97 262.08 501.1 253.14 510.23 245.09 519.62 237.8 528.52 231.16 536.21 226.12 537.51 236.41 520.35 245.94 507.75 254.9 495.14 262.42 482.54 267.77 469.93 270.44 457.33 270.16 444.73 266.97 432.12 261.17 419.52 253.33 406.92 244.19 394.31 234.65 381.71 225.63 369.11 217.99 356.5 212.48 343.9 219.51 331.08 227.17 317.04 235.58 302.22 244.82 287.09 254.97 272.11 266.1 257.75 278.23 244.4 291.36 232.4 305.46 222.03 320.47 213.45 336.29 206.75 352.81 201.91 369.89 198.82 387.35 197.28 405.01 197.04 422.68 197.76 422.68 197.76 422.68 197.76" stroke-dasharray="0 0" transform="rotate(0, 400, 400)" opacity="0.45"></path><path d="M415.38 203.21Q417.84 215.42 419.76 228.4 421.31 241.83 422.67 255.33 424.06 268.54 425.67 281.07 427.73 292.58 430.44 302.74 439.18 317.1 451.5 325.82 460.08 326.87 470.2 326.22 481.89 324.11 495.16 320.88 508.51 332.36 526.08 343.83 546.26 355.31 567.24 366.79 587.11 378.26 604.07 389.74 616.57 401.22 623.49 412.69 624.2 424.17 618.63 435.65 607.29 447.12 591.2 458.6 571.83 470.07 550.94 481.55 530.41 493.03 512.12 504.5 495.52 523.54 480.3 541.52 466.55 557.81 454.32 571.9 443.61 583.34 434.38 591.81 414 592.85 404.64 579.8 402.48 570.22 400.62 560.01 398.84 549.89 396.96 540.6 379.97 522.52 363.56 506.99 347.89 494.41 333.05 485.07 319.14 479.08 306.21 476.39 294.31 476.83 283.42 480.05 273.54 485.6 264.6 492.92 256.54 501.4 249.27 510.35 242.68 519.11 236.64 527 232.48 529.6 243.16 513.64 252.55 501.52 261.26 489.4 268.49 477.27 273.58 465.15 276.09 453.03 275.77 440.91 272.66 428.79 267.04 416.67 259.42 404.54 250.49 392.42 241.06 380.3 231.99 368.18 224.09 356.05 218.09 343.93 224.56 330.79 231.58 316.66 239.26 301.99 247.7 287.19 256.99 272.71 267.19 258.94 278.34 246.25 290.45 234.92 303.52 225.19 317.51 217.2 332.35 211 347.96 206.57 364.21 203.79 380.97 202.47 406.74 202.8 415.38 203.21" stroke-dasharray="0 0" transform="rotate(0, 400, 400)" opacity="0.47"></path><path d="M407.73 208.65Q409.75 220.58 411.43 233.24 412.94 246.35 414.44 259.56 416.12 272.53 418.18 284.91 420.8 296.38 424.16 306.62 434.35 321.61 448.1 331.29 457.31 332.95 467.96 332.93 480.07 331.4 493.63 328.65 507.53 339.89 525.05 351.13 544.68 362.37 564.77 373.6 583.6 384.84 599.58 396.08 611.34 407.31 617.88 418.55 618.66 429.79 613.6 441.02 603.13 452.26 588.15 463.49 569.92 474.73 550.01 485.97 530.09 497.2 511.86 508.44 495.27 526.3 479.91 542.9 465.86 557.71 453.18 570.29 441.89 580.29 432.01 587.45 416.82 591.46 405.2 587.11 401.16 580.74 397.89 572.66 395.24 563.42 393.02 553.66 391.06 544.01 389.17 535.16 373.13 517.74 357.78 502.66 343.23 490.32 329.55 480.95 316.82 474.69 305.06 471.52 294.28 471.29 284.47 473.72 275.58 478.44 267.57 484.96 260.34 492.73 253.81 501.17 247.86 509.67 242.39 517.62 239.02 521.24 249.99 506.4 259.2 494.76 267.63 483.12 274.56 471.49 279.4 459.85 281.74 448.22 281.38 436.58 278.35 424.95 272.91 413.31 265.53 401.67 256.82 390.04 247.53 378.4 238.45 366.77 230.35 355.13 223.92 343.49 229.85 330.14 236.25 316.04 243.25 301.61 250.93 287.23 259.37 273.29 268.66 260.16 278.84 248.14 289.94 237.5 301.97 228.41 314.9 221 328.71 215.29 343.31 211.25 358.64 208.77 374.57 207.68 399.36 208.19 407.73 208.65" stroke-dasharray="0 0" transform="rotate(0, 400, 400)" opacity="0.49"></path><path d="M399.88 214.09Q401.67 225.72 403.29 238.06 404.9 250.84 406.67 263.75 408.76 276.46 411.35 288.68 414.58 300.07 418.62 310.37 423.6 319.33 429.64 326.75 436.85 332.5 445.31 336.51 455.08 338.79 466.19 339.4 478.63 338.51 492.39 336.32 506.7 347.3 524.05 358.28 543.07 369.26 562.24 380.25 580.04 391.23 595.05 402.21 606.09 413.19 612.27 424.18 613.11 435.16 608.54 446.14 598.91 457.12 585.01 468.1 567.92 479.08 549.01 490.07 529.79 501.05 511.77 512.03 495.28 528.62 479.86 543.8 465.59 557.12 452.56 568.22 440.8 576.83 430.33 582.76 413.74 585.09 400.62 579.82 395.85 573.44 391.92 565.54 388.68 556.64 386 547.32 383.7 538.15 381.64 529.72 366.68 512.95 352.48 498.34 339.11 486.24 326.64 476.88 315.1 470.4 304.5 466.78 294.83 465.93 286.05 467.61 278.13 471.5 270.99 477.2 264.54 484.24 258.7 492.1 257.02 498.14 274.02 476.38 280.63 465.24 285.21 454.09 287.38 442.95 286.99 431.8 284.04 420.66 278.79 409.51 271.65 398.37 263.19 387.22 254.07 376.08 245.02 364.93 236.77 353.78 229.96 342.64 235.39 329.2 241.21 315.24 247.55 301.13 254.5 287.23 262.14 273.89 270.54 261.43 279.77 250.11 289.87 240.15 300.84 231.7 312.71 224.85 325.44 219.63 338.99 215.98 353.31 213.79 368.3 212.89 391.87 213.58 399.88 214.09" stroke-dasharray="0 0" transform="rotate(0, 400, 400)" opacity="0.51"></path><path d="M392.03 219.54Q393.75 230.87 395.47 242.88 397.33 255.32 399.48 267.9 402.07 280.35 405.24 292.37 409.12 303.66 413.84 313.98 419.51 323.09 426.23 330.79 434.08 336.95 443.12 341.47 453.37 344.35 464.85 345.61 477.54 345.37 491.41 343.8 505.97 354.51 523.06 365.22 541.4 375.94 559.63 386.65 576.41 397.36 590.49 408.08 600.83 418.79 606.66 429.5 607.56 440.22 603.44 450.93 594.63 461.64 581.76 472.36 565.8 483.07 547.93 493.78 529.48 504.49 511.8 515.21 495.49 530.45 480.1 544.18 465.73 556.02 452.44 565.69 440.3 572.98 429.33 577.74 411.46 578.55 396.91 572.49 391.41 566.12 386.78 558.43 382.91 549.88 379.67 540.99 376.93 532.28 374.54 524.28 360.76 508.15 347.78 494.01 335.64 482.17 324.4 472.86 314.04 466.18 304.58 462.17 288.58 462.76 274.86 469.68 269.15 475.97 263.94 483.18 263.71 489.82 280.41 469.25 286.71 458.59 291.02 447.94 293.03 437.29 292.59 426.63 289.74 415.98 284.68 405.32 277.8 394.67 269.59 384.02 260.67 373.36 251.7 362.71 243.34 352.05 236.22 341.4 241.17 327.99 246.46 314.27 252.18 300.58 258.43 287.23 265.3 274.53 272.86 262.76 281.17 252.15 290.28 242.87 300.22 235.06 311 228.77 322.64 224.02 335.09 220.74 348.32 218.83 362.28 218.13 384.45 218.99 392.03 219.54" stroke-dasharray="0 0" transform="rotate(0, 400, 400)" opacity="0.53"></path><path d="M384.38 224.98Q386.2 236 388.15 247.67 390.37 259.76 392.99 272.02 396.14 284.18 399.92 295.97 404.46 307.15 409.85 317.45 416.19 326.67 423.54 334.61 431.96 341.14 441.48 346.15 452.13 349.6 463.89 351.51 476.75 351.94 490.64 351.02 505.31 361.45 522.03 371.88 539.64 382.31 556.93 392.74 572.71 403.17 585.89 413.6 595.56 424.03 601.05 434.46 602 444.89 598.32 455.32 590.27 465.75 578.42 476.18 563.57 486.61 546.75 497.05 529.12 507.48 511.89 517.91 495.85 531.76 480.59 544.02 466.2 554.41 452.76 562.7 440.34 568.73 428.97 572.43 418.68 573.78 409.46 572.9 394.6 564.36 382.57 551.34 378.03 543.15 374.17 534.69 370.89 526.43 368.08 518.84 355.54 503.35 343.81 489.69 332.92 478.13 322.89 468.88 305.73 458.88 290.93 456 279.46 463.13 269.53 474.46 270.49 481.25 286.82 461.79 292.78 451.62 296.82 441.46 298.67 431.29 298.2 421.13 295.44 410.96 290.58 400.8 283.95 390.63 276.02 380.47 267.32 370.31 258.47 360.14 250.06 349.98 242.68 339.81 247.2 326.56 251.98 313.18 257.13 299.98 262.74 287.23 268.88 275.22 275.63 264.16 283.05 254.27 291.21 245.68 300.13 238.49 309.86 232.75 320.38 228.45 331.72 225.53 343.83 223.89 356.68 223.38 377.3 224.4 384.38 224.98" stroke-dasharray="0 0" transform="rotate(0, 400, 400)" opacity="0.54"></path><path d="M377.11 230.42Q379.16 241.12 381.47 252.45 384.14 264.18 387.29 276.09 391.03 287.95 395.44 299.51 400.63 310.53 406.67 320.79 413.62 330.08 421.54 338.22 430.46 345.08 440.39 350.53 451.35 354.54 463.31 357.08 476.24 358.19 490.09 357.96 504.74 368.09 521 378.22 537.84 388.35 554.17 398.48 568.96 408.61 581.26 418.74 590.28 428.87 595.45 439 596.43 449.13 593.16 459.26 585.85 469.39 574.97 479.52 561.21 489.66 545.46 499.79 528.71 509.92 512.05 520.05 496.35 532.47 481.3 543.29 466.99 552.27 453.49 559.25 440.89 564.1 429.22 566.8 418.52 567.38 408.79 565.94 400.04 562.64 392.24 557.73 385.35 551.49 379.33 544.27 374.1 536.44 369.6 528.41 365.72 520.59 362.39 513.4 351.13 498.55 340.67 485.37 331.02 474.1 322.17 464.94 307.15 454.43 294.23 450.51 284.2 456.12 275.46 465.96 277.38 472.51 293.23 454.08 298.85 444.4 302.63 434.72 304.32 425.04 303.81 415.37 301.14 405.69 296.48 396.01 290.12 386.34 282.48 376.66 274.04 366.98 265.34 357.31 256.93 347.63 249.36 337.95 253.47 324.97 257.79 312.02 262.41 299.38 267.41 287.29 272.87 275.98 278.86 265.66 285.45 256.49 292.69 248.57 300.63 242 309.31 236.79 318.75 232.94 328.96 230.37 339.92 228.98 351.63 228.65 370.57 229.8 377.11 230.42" stroke-dasharray="0 0" transform="rotate(0, 400, 400)" opacity="0.56"></path><path d="M370.38 235.86Q372.78 246.25 375.53 257.22 378.72 268.58 382.45 280.14 386.8 291.67 391.84 302.97 397.65 313.81 404.29 323.99 411.8 333.32 420.21 341.62 429.55 348.76 439.81 354.62 450.99 359.14 463.06 362.28 475.99 364.07 489.7 364.54 504.2 374.35 519.92 384.17 535.95 393.98 551.33 403.8 565.15 413.61 576.6 423.43 584.99 433.24 589.84 443.06 590.85 452.88 587.97 462.69 581.36 472.51 571.41 482.32 558.73 492.14 544.04 501.95 528.23 511.77 512.23 521.59 496.94 532.58 482.18 541.98 468.03 549.6 454.58 555.33 441.89 559.1 430.02 560.89 419.01 560.77 408.87 558.84 399.63 555.28 391.26 550.3 383.76 544.18 377.08 537.21 371.19 529.75 366.03 522.13 361.52 514.75 357.6 507.95 347.63 493.74 338.43 481.04 329.99 470.09 322.28 461.05 309.27 450.1 298.11 445.23 283.83 456.5 274.91 470.02 283.52 465.29 299.63 446.2 304.91 437 308.42 427.81 309.95 418.61 309.42 409.42 306.84 400.22 302.39 391.03 296.31 381.83 288.97 372.64 280.8 363.44 272.29 354.25 263.94 345.06 256.24 335.86 259.98 323.25 263.88 310.82 268.01 298.8 272.45 287.41 277.28 276.85 282.56 267.27 288.36 258.82 294.74 251.57 301.75 245.6 309.42 240.91 317.8 237.48 326.89 235.24 336.7 234.11 347.24 233.94 364.43 235.22 370.38 235.86" stroke-dasharray="0 0" transform="rotate(0, 400, 400)" opacity="0.58"></path><path d="M364.39 241.3Q370.48 261.96 378.54 284.14 389.13 306.35 402.7 327.05 419.52 344.79 439.69 358.38 463.09 367.09 489.43 370.7 518.78 389.67 548.39 408.64 571.9 427.61 584.23 446.59 582.74 465.56 567.75 484.53 542.48 503.5 512.37 522.48 483.17 540.07 455.96 550.97 431.33 554.71 409.66 551.64 391.17 542.86 375.85 530.19 363.53 515.89 353.85 502.51 337.17 476.72 323.26 457.19 311.85 444.95 302.56 440.17 294.88 442.23 288.25 449.75 287.17 458.23 306.04 438.23 314.21 420.79 315.03 403.35 308.3 385.91 295.48 368.47 279.32 351.03 263.31 333.59 270.23 309.62 277.86 287.63 286.74 268.99 297.38 254.67 310.22 245.1 325.58 240.16 343.63 239.24 364.39 241.3 364.39 241.3 364.39 241.3" stroke-dasharray="0 0" transform="rotate(0, 400, 400)" opacity="0.60"></path><path d="M359.26 246.74Q366.38 266.69 375.6 288.11 387.33 309.67 401.89 329.99 419.44 347.74 440 361.84 463.39 371.5 489.28 376.42 517.59 394.7 545.39 412.98 567.17 431.26 578.62 449.54 577.49 467.82 563.98 486.11 540.79 504.39 512.49 522.67 484.25 537.56 457.59 546.16 433.08 548.27 411.1 544.32 391.92 535.41 375.62 523.18 362.13 509.67 351.23 497.07 336.93 472.4 325.11 453.38 308.19 438.51 295.08 442.09 294.45 449.28 312.43 430.26 320 413.75 320.63 397.25 314.22 380.74 302.01 364.24 286.44 347.73 270.58 331.22 276.86 308.47 283.63 287.97 291.39 270.86 300.62 257.89 311.74 249.36 325.09 245.11 350.08 245.65 359.26 246.74" stroke-dasharray="0 0" transform="rotate(0, 400, 400)" opacity="0.61"></path><path d="M355.11 252.19Q363.32 271.41 373.65 292.04 386.42 312.91 401.82 332.79 419.93 350.48 440.69 364.96 463.89 375.48 489.19 381.64 516.31 399.2 542.28 416.76 562.4 434.32 573.02 451.88 572.2 469.45 560.12 487.01 538.94 504.57 512.52 522.13 485.36 534.44 459.42 540.93 435.21 541.57 413.14 536.9 393.47 527.95 376.37 516.2 361.85 503.45 349.78 491.63 337.73 468.07 327.83 449.6 313.56 433.63 302.17 434.77 301.82 440.51 318.82 422.35 325.78 406.76 326.24 391.17 320.14 375.58 308.56 359.99 293.62 344.4 278.02 328.81 283.73 307.42 289.74 288.46 296.5 272.87 304.44 261.22 313.98 253.7 325.45 250.11 347.11 251.04 355.11 252.19" stroke-dasharray="0 0" transform="rotate(0, 400, 400)" opacity="0.63"></path><path d="M352.06 257.63Q361.34 276.12 372.71 295.94 386.38 316.09 402.45 335.46 420.93 353 441.7 367.76 464.55 379.01 489.13 386.31 514.92 403.13 539.08 419.95 557.59 436.76 567.41 453.58 566.89 470.4 556.14 487.22 536.92 504.03 512.42 520.85 486.46 530.73 461.38 535.3 437.66 534.66 415.69 529.4 395.76 520.48 378.06 509.25 362.67 497.27 349.56 486.19 339.57 463.74 331.38 445.85 312.95 430.56 325.19 414.6 331.55 399.9 331.85 385.2 326.05 370.51 315.12 355.81 300.85 341.11 285.61 326.41 290.83 306.5 296.18 289.13 302.05 275.04 308.85 264.67 316.95 258.12 326.68 255.15 345.19 256.43 352.06 257.63" stroke-dasharray="0 0" transform="rotate(0, 400, 400)" opacity="0.65"></path><path d="M350.17 263.07Q360.47 280.81 372.76 299.81 387.17 319.2 403.73 338.01 422.39 355.31 443.01 370.24 465.34 382.1 489.08 390.44 513.44 406.48 535.79 422.53 552.76 438.57 561.8 454.62 561.55 470.67 552.06 486.71 534.74 502.76 512.2 518.81 487.51 526.43 463.42 529.27 440.36 527.53 418.7 521.81 398.72 513.02 380.64 502.33 364.57 491.09 350.56 480.74 342.42 459.41 335.75 442.14 319.11 425.59 307.38 434.73 321.05 420.9 331.55 407.07 337.31 393.25 337.46 379.42 331.98 365.59 321.69 351.77 308.14 337.94 293.37 324.12 298.16 305.76 302.93 289.99 308.03 277.39 313.82 268.26 320.64 262.63 328.79 260.24 344.37 261.85 350.17 263.07" stroke-dasharray="0 0" transform="rotate(0, 400, 400)" opacity="0.67"></path><path d="M349.5 268.51Q360.71 285.48 373.78 303.65 388.75 322.24 405.6 340.43 424.25 357.4 444.54 372.39 466.22 384.74 489 393.97 511.85 409.23 532.41 424.48 547.89 439.74 556.19 454.99 556.18 470.25 547.86 485.5 532.37 500.75 511.8 516 488.47 521.56 465.48 522.87 443.24 520.21 422.07 514.17 402.25 505.57 384.01 495.44 367.48 484.95 352.76 475.3 346.24 455.08 340.87 438.45 326.43 419.67 315.45 425.81 328.24 412.83 337.89 399.85 343.06 386.88 343.07 373.9 337.9 360.92 328.27 347.94 315.48 334.96 301.26 321.98 305.68 305.24 309.97 291.08 319.72 273.57 331.77 265.37 344.68 267.26 349.5 268.51" stroke-dasharray="0 0" transform="rotate(0, 400, 400)" opacity="0.68"></path><path d="M350.05 273.95Q362.04 290.14 375.71 307.45 391.04 325.22 407.99 342.74 426.45 359.3 446.23 374.22 467.12 386.9 488.85 396.9 510.12 411.34 528.93 425.79 542.99 440.24 550.58 454.68 550.78 469.12 543.57 483.57 529.81 498.01 511.2 512.45 489.28 516.15 467.5 516.13 446.22 512.73 425.72 506.48 406.27 498.13 388.09 488.58 371.33 478.82 356.11 469.86 350.97 450.75 346.68 434.8 333.95 414.08 323.53 417.32 335.41 405.17 344.19 393.01 348.8 380.85 348.68 368.69 343.83 356.53 334.85 344.37 322.84 332.21 309.25 320.05 313.37 304.98 317.26 292.41 325.61 277.27 335.59 270.54 346.11 272.68 350.05 273.95" stroke-dasharray="0 0" transform="rotate(0, 400, 400)" opacity="0.70"></path><path d="M351.81 279.4Q364.42 294.79 378.49 311.23 393.99 328.14 410.84 344.94 428.92 361 448.06 375.74 468.04 388.63 488.63 399.22 508.26 412.84 525.35 426.46 538.05 440.07 544.97 453.69 545.36 467.3 539.17 480.92 527.07 494.54 510.4 508.16 489.92 510.21 469.44 509.07 449.24 505.08 429.58 498.74 410.69 490.71 392.78 481.76 376.02 472.7 360.54 464.41 356.53 446.41 353.1 431.17 341.65 408.83 331.63 409.31 342.56 397.95 350.48 386.59 354.54 375.23 354.28 363.86 349.75 352.5 341.43 341.14 330.23 329.78 317.36 318.42 321.23 305.02 324.79 294.01 345.28 279.19 351.81 279.4" stroke-dasharray="0 0" transform="rotate(0, 400, 400)" opacity="0.72"></path><path d="M354.75 284.84Q367.77 299.42 382.04 314.97 397.5 331 414.07 347.03 431.6 362.52 449.94 376.96 468.9 389.91 488.28 400.94 506.25 413.71 521.68 426.49 533.09 439.26 539.36 452.04 539.91 464.81 534.66 477.59 524.14 490.37 509.35 503.14 490.36 503.79 471.24 501.73 452.22 497.31 433.53 490.98 415.39 483.32 397.97 474.97 381.43 466.62 365.91 458.98 362.79 442.08 360.02 427.58 349.47 403.93 339.71 401.85 349.66 391.26 356.73 380.67 360.26 370.08 359.89 359.49 355.67 348.9 348.01 338.31 337.63 327.72 325.56 317.13 329.21 305.39 332.51 295.9 349.51 284.27 354.75 284.84" stroke-dasharray="0 0" transform="rotate(0, 400, 400)" opacity="0.74"></path><path d="M358.78 290.28Q372.01 304.04 386.27 318.68 401.49 333.81 417.57 349.01 434.4 363.85 451.82 377.89 469.67 390.74 487.78 402.04 504.08 413.97 517.91 425.9 528.09 437.82 533.76 449.75 534.43 461.68 530.05 473.61 520.99 485.54 508.02 497.46 490.54 496.92 472.83 494.13 455.09 489.42 437.5 483.21 420.26 475.96 403.52 468.21 387.43 460.55 372.11 453.54 369.66 437.74 367.35 424 362.33 405.24 356.3 394.44 354.53 389.36 362.94 375.3 365.96 365.46 365.5 355.62 361.59 345.77 354.57 335.93 345.04 326.08 333.8 316.24 344.46 292.79 351.62 286.34 356.86 289 358.78 290.28" stroke-dasharray="0 0" transform="rotate(0, 400, 400)" opacity="0.75"></path><path d="M363.82 295.72Q377.03 308.65 391.07 322.38 405.86 336.57 421.29 350.91 437.27 365.02 453.66 378.56 470.33 391.17 487.12 402.56 501.76 413.63 514.04 424.7 523.06 435.78 528.15 446.85 528.93 457.92 525.34 468.99 517.65 480.06 506.43 491.13 490.45 489.62 474.18 486.3 457.78 481.45 441.41 475.42 425.21 468.62 409.32 461.49 393.88 454.49 379 448.09 377 433.38 374.99 420.44 370.19 401.98 364.23 390.35 362 384.08 369.12 370.52 371.66 361.4 371.11 352.29 367.51 343.17 361.13 334.05 352.45 324.93 342.09 315.81 360.13 295.29 363.82 295.72" stroke-dasharray="0 0" transform="rotate(0, 400, 400)" opacity="0.77"></path><path d="M369.73 301.16Q382.71 313.24 396.33 326.04 410.49 339.28 425.13 352.71 440.14 366.04 455.4 378.96 470.82 391.21 486.26 402.51 499.26 412.72 510.07 422.93 518 433.15 522.54 443.36 523.4 453.57 520.53 463.79 514.1 474 504.54 484.22 490.05 481.96 475.24 478.27 460.24 473.4 445.15 467.64 430.11 461.33 415.23 454.82 400.62 448.47 386.39 442.65 384.66 429.04 382.81 416.91 378.07 398.9 372.08 386.69 369.39 379.4 375.26 366.37 375.38 349.54 367.67 332.72 356.74 316.57 356.47 303.42 367.01 299.79 369.73 301.16" stroke-dasharray="0 0" transform="rotate(0, 400, 400)" opacity="0.79"></path><path d="M376.38 306.6Q401.91 329.67 428.99 354.43 456.98 379.12 485.17 401.91 506 420.63 516.93 439.34 515.61 458.06 502.32 476.78 475.97 470.1 448.65 459.89 421.12 448.18 394.11 437.21 390.68 413.39 386.08 395.18 379.81 383.46 371.46 378.35 381.34 362.88 382.32 347.42 374.19 331.96 358.7 316.51 372.54 305.59 376.38 306.6" stroke-dasharray="0 0" transform="rotate(0, 400, 400)" opacity="0.81"></path><path d="M383.61 312.05Q407.7 333.29 432.8 356.09 458.37 379.08 483.85 400.82 501.84 417.84 511.33 434.85 510.6 451.86 499.79 468.86 476.33 461.78 451.83 452.16 426.85 441.58 401.98 431.76 398.49 409.89 393.75 392.6 387.38 380.63 379.14 374.2 387.38 360.08 387.93 345.96 380.7 331.83 366.98 317.71 380.13 310.57 383.61 312.05" stroke-dasharray="0 0" transform="rotate(0, 400, 400)" opacity="0.82"></path><path d="M391.23 317.49Q413.56 336.88 436.46 357.67 459.51 378.83 482.27 399.28 497.57 414.6 505.72 429.91 505.49 445.23 496.93 460.54 476.29 453.38 454.61 444.47 432.3 435.02 409.79 426.33 406.11 406.4 401.18 390.16 394.75 378.21 386.68 370.78 393.37 357.97 393.54 345.15 388.73 317.94 391.23 317.49" stroke-dasharray="0 0" transform="rotate(0, 400, 400)" opacity="0.84"></path><path d="M399.06 322.93Q419.36 340.45 439.89 359.2 460.34 378.42 480.41 397.32 493.2 410.96 500.11 424.61 500.29 438.25 493.72 451.9 475.81 444.93 456.92 436.83 437.33 428.51 417.37 420.89 413.43 402.93 408.31 387.87 401.87 376.18 394.03 368.09 399.3 356.55 399.15 345.02 396.43 322.73 399.06 322.93" stroke-dasharray="0 0" transform="rotate(0, 400, 400)" opacity="0.86"></path><path d="M406.92 328.37Q424.97 344.01 443.02 360.68 460.86 377.87 478.26 395.01 488.73 407 494.5 419 495 431 490.18 443 474.88 436.46 458.71 429.25 441.85 422.03 424.54 415.44 420.33 399.46 415.08 385.7 408.72 374.51 401.21 366.1 405.17 355.83 404.76 345.57 404.1 327.68 406.92 328.37" stroke-dasharray="0 0" transform="rotate(0, 400, 400)" opacity="0.88"></path><path d="M414.61 333.81Q430.25 347.54 445.77 362.12 461 377.2 475.82 392.41 484.18 402.79 488.89 413.17 481.54 425.77 459.91 421.75 445.74 415.61 431.09 410 426.69 396 421.42 383.66 415.25 373.2 408.17 364.8 410.97 355.8 410.37 346.8 411.6 332.75 414.61 333.81" stroke-dasharray="0 0" transform="rotate(0, 400, 400)" opacity="0.89"></path><path d="M421.94 339.25Q448.06 363.53 473.05 389.58 483.28 407.17 482.05 424.74 460.5 414.32 436.9 404.56 427.26 381.72 414.91 364.18 418.89 340.35 421.94 339.25" stroke-dasharray="0 0" transform="rotate(0, 400, 400)" opacity="0.91"></path><path d="M428.75 344.7Q449.85 364.92 469.97 386.6 469.05 404.03 441.81 399.11 432.57 379.89 421.4 364.18 425.43 345.18 428.75 344.7" stroke-dasharray="0 0" transform="rotate(0, 400, 400)" opacity="0.93"></path><path d="M434.85 350.14Q451.08 366.3 466.56 383.54 465.87 397.35 445.7 393.68 437.28 378.15 427.62 364.76 431.5 350.19 434.85 350.14" stroke-dasharray="0 0" transform="rotate(0, 400, 400)" opacity="0.95"></path><path d="M440.1 355.58Q451.71 367.67 462.82 380.46 451.85 383.63 433.57 365.89 437.03 355.38 440.1 355.58" stroke-dasharray="0 0" transform="rotate(0, 400, 400)" opacity="0.96"></path><path d="M444.39 361.03Q443.44 362.7 444.39 361.03" stroke-dasharray="0 0" transform="rotate(0, 400, 400)" opacity="0.98"></path></g></svg>