<svg xmlns="http://www.w3.org/2000/svg" version="1.1" xmlns:xlink="http://www.w3.org/1999/xlink"
    xmlns:svgjs="http://svgjs.dev/svgjs" viewBox="0 0 1200 1200">
    <defs>
        <linearGradient x1="50%" y1="0%" x2="50%" y2="100%" id="ccchaos-grad">
            <stop stop-color="hsl(0, 0%, 66%)" stop-opacity="1" offset="0%"></stop>
            <stop stop-color="hsl(0, 0%, 23%)" stop-opacity="1" offset="100%"></stop>
        </linearGradient>
    </defs>
    <g stroke-width="0.5" stroke="url(#ccchaos-grad)" fill="none" stroke-linecap="round">
        <path
            d="M354.75 93.98C364.04 90.56 373.47 87.88 383.06 85.97 392.7 84.38 402.56 83.67 412.68 83.85 422.93 84.5 433.55 86.1 444.59 88.62 455.89 91.67 467.74 95.64 480.19 100.48 493.01 105.82 506.54 111.97 520.76 118.87 535.39 126.17 550.73 134.13 566.68 142.65 582.89 151.43 599.53 160.68 616.39 170.3 633.08 180.03 649.58 190.05 665.53 200.29 680.61 210.5 694.54 220.85 706.9 231.3 717.58 241.63 726.06 252.03 731.99 262.46 735.61 272.72 736.34 283.01 734.03 293.33 729.43 303.48 722.03 313.68 712.06 323.94 700.75 334.06 687.79 344.27 673.8 354.61 660.25 364.84 647.08 375.24 635.05 385.83 625.52 396.35 618.44 407.11 614.39 418.12 614.19 429.11 617.55 440.37 624.46 451.93 635.05 463.48 648.15 475.05 662.98 486.61 679.46 498.16 696.03 509.68 711.82 521.09 726.87 532.46 739.68 543.67 749.7 554.63 757.27 565.44 761.34 575.91 761.86 585.9 759.4 595.63 753.52 604.74 744.58 613.12 733.21 621.07 719.49 628.12 703.96 634.15 687.11 639.6 669.31 643.9 651.08 646.95 632.66 649.34 614.47 650.42 596.86 650.18 579.83 649.34 563.71 647.25 548.64 643.98 534.47 640.39 521.37 635.87 509.3 630.62 498.12 625.56 487.79 620.18 478.18 614.75 469.25 610.19 460.79 606.11 452.67 602.8 444.96 601.05 437.35 600.54 429.73 601.5 422.31 604.49 414.7 609.19 406.85 615.65 399.05 624.18 390.9 634.34 382.38 645.95 373.86 659.06 364.94 673.07 355.63 687.57 346.33 702.49 336.88 716.7 327.36 729.76 317.89 742.01 308.4 752.39 298.98 760.63 289.67 767.2 280.51 771.27 271.58 772.78 262.82 772.32 254.37 769.33 246.32 763.98 238.49 756.83 231.12 747.65 224.27 736.72 217.65 724.52 211.59 711.03 206.1 696.58 200.8 681.5 196.06 665.9 191.85 650.08 187.72 634.17 184.04 618.37 180.78 602.86 177.38 587.65 174.27 572.91 171.38 558.73 168.14 545.04 164.98 531.94 161.83 519.44 158.17 507.44 154.42 495.98 150.57 485.03 146.13 474.48 141.57 464.33 136.92 454.49 131.76 444.95 126.59 435.61 121.49 426.41 116.09 417.38 110.92 408.4 106.1 399.41 101.27 390.5 96.97 381.53 93.32 372.46 89.98 363.42 87.48 354.26 85.9 345 84.87 335.73 84.91 326.57 85.98 317.56 87.64 308.57 90.31 299.74 93.91 291.13 98 282.57 102.9 274.26 108.51 266.25 114.36 258.32 120.74 250.74 127.54 243.55 134.28 236.46 141.25 229.8 148.34 223.59 155.1 217.49 161.84 211.86 168.52 206.72 174.67 201.65 180.69 197.04 186.57 192.92 191.88 188.79 197.08 185.08 202.21 181.77 209.15 176.81 222.8 167.99 229.85 163.88 234.42 160.81 239.33 157.83 244.61 154.89 249.8 151.47 255.44 148.05 261.51 144.61 267.57 140.65 274.09 136.66 281.06 132.67 288.04 128.19 295.46 123.76 303.29 119.4 311.13 114.7 319.35 110.18 327.94 105.92 336.53 101.51 345.46 97.5 354.75 93.98"
            stroke-dasharray="0 0" transform="rotate(0, 400, 400)" opacity="0.05"></path>
        <path
            d="M357.62 99.38C366.8 95.92 376.2 93.19 385.79 91.22 395.44 89.56 405.36 88.77 415.58 88.85 425.94 89.4 436.71 90.87 447.91 93.26 459.37 96.17 471.38 99.98 483.98 104.66 496.93 109.83 510.53 115.81 524.79 122.53 539.39 129.66 554.62 137.43 570.37 145.78 586.28 154.4 602.51 163.49 618.84 172.97 634.9 182.57 650.65 192.47 665.74 202.6 679.9 212.73 692.84 223.01 704.15 233.4 713.79 243.7 721.25 254.07 726.19 264.47 728.95 274.74 728.91 285.04 725.98 295.36 720.95 305.53 713.28 315.75 703.25 326.02 692.05 336.16 679.36 346.38 665.79 356.71 652.76 366.94 640.16 377.32 628.72 387.86 619.74 398.35 613.13 409.04 609.42 419.94 609.42 430.82 612.8 441.95 619.57 453.32 629.85 464.69 642.54 476.04 656.89 487.34 672.85 498.62 688.95 509.83 704.35 520.89 719.11 531.9 731.8 542.7 741.89 553.21 749.69 563.58 754.2 573.55 755.31 583.02 753.6 592.23 748.58 600.8 740.58 608.61 730.19 616.01 717.45 622.52 702.85 628 686.88 632.95 669.86 636.77 652.28 639.37 634.37 641.38 616.56 642.14 599.17 641.63 582.23 640.61 566.07 638.42 550.83 635.13 536.4 631.61 522.96 627.24 510.49 622.23 498.85 617.46 488.05 612.44 477.98 607.44 468.55 603.32 459.65 599.71 451.13 596.87 443.03 595.55 435.09 595.44 427.22 596.75 419.56 600.01 411.79 604.91 403.86 611.47 395.99 620 387.86 630.06 379.42 641.49 371 654.34 362.24 668.03 353.17 682.17 344.09 696.72 334.93 710.58 325.75 723.33 316.6 735.33 307.48 745.54 298.47 753.71 289.56 760.31 280.81 764.52 272.33 766.28 264 766.16 255.99 763.61 248.39 758.77 240.98 752.2 234.03 743.63 227.6 733.34 221.37 721.79 215.67 708.95 210.52 695.11 205.53 680.6 201.06 665.53 197.1 650.17 193.16 634.66 189.65 619.19 186.51 603.93 183.21 588.91 180.16 574.29 177.3 560.17 174.07 546.47 170.89 533.32 167.71 520.74 164 508.62 160.19 497.02 156.28 485.91 151.78 475.19 147.15 464.86 142.44 454.87 137.21 445.16 131.98 435.69 126.83 426.39 121.38 417.26 116.16 408.2 111.27 399.2 106.4 390.27 102.05 381.32 98.36 372.33 94.97 363.36 92.42 354.32 90.8 345.22 89.73 336.12 89.72 327.16 90.75 318.39 92.39 309.62 95.02 301.05 98.6 292.72 102.66 284.43 107.54 276.41 113.13 268.7 118.98 261.06 125.36 253.78 132.16 246.89 138.93 240.08 145.93 233.7 153.07 227.77 159.89 221.91 166.72 216.52 173.47 211.61 179.73 206.74 185.87 202.32 191.86 198.35 197.29 194.36 202.61 190.77 207.84 187.56 214.92 182.69 228.72 173.95 235.76 169.83 240.28 166.75 245.11 163.74 250.29 160.76 255.36 157.31 260.83 153.84 266.73 150.36 272.59 146.36 278.9 142.34 285.65 138.3 292.39 133.81 299.58 129.34 307.19 124.96 314.8 120.24 322.82 115.69 331.23 111.4 339.63 106.97 348.42 102.93 357.61 99.38"
            stroke-dasharray="0 0" transform="rotate(3.2777777777777777, 400, 400)" opacity="0.07"></path>
        <path
            d="M361.03 104.77C370.14 101.28 379.49 98.5 389.09 96.47 398.75 94.75 408.72 93.88 419.03 93.87 429.48 94.31 440.35 95.66 451.69 97.92 463.26 100.68 475.39 104.34 488.09 108.85 501.09 113.85 514.71 119.65 528.94 126.18 543.43 133.13 558.48 140.72 573.94 148.88 589.49 157.33 605.24 166.25 620.98 175.57 636.36 185.04 651.32 194.81 665.53 204.81 678.76 214.84 690.7 225.04 700.98 235.36 709.61 245.6 716.07 255.93 720.09 266.3 722.02 276.55 721.28 286.83 717.8 297.15 712.37 307.32 704.5 317.55 694.44 327.81 683.38 337.95 670.99 348.18 657.86 358.48 645.34 368.7 633.31 379.05 622.46 389.53 614 399.97 607.84 410.58 604.47 421.37 604.64 432.14 608.05 443.12 614.67 454.3 624.66 465.48 636.93 476.6 650.81 487.62 666.27 498.64 681.89 509.52 696.9 520.22 711.37 530.87 723.92 541.27 734.04 551.33 742.06 561.25 746.95 570.75 748.62 579.7 747.61 588.4 743.42 596.45 736.32 603.72 726.9 610.6 715.13 616.58 701.46 621.56 686.39 626.03 670.17 629.41 653.27 631.61 635.94 633.27 618.56 633.75 601.47 633.03 584.69 631.86 568.57 629.6 553.26 626.33 538.65 622.9 524.94 618.71 512.15 613.96 500.11 609.49 488.89 604.85 478.4 600.27 468.53 596.59 459.2 593.43 450.31 591.05 441.83 590.15 433.57 590.43 425.45 592.07 417.54 595.58 409.61 600.65 401.58 607.3 393.64 615.81 385.5 625.78 377.13 637.02 368.78 649.61 360.17 662.99 351.31 676.78 342.45 690.96 333.56 704.46 324.69 716.91 315.86 728.66 307.1 738.7 298.47 746.8 289.93 753.41 281.6 757.74 273.54 759.74 265.61 759.94 258.03 757.8 250.86 753.45 243.86 747.44 237.31 739.47 231.26 729.81 225.39 718.9 220.03 706.7 215.2 693.47 210.48 679.55 206.25 665.02 202.51 650.14 198.75 635.06 195.37 619.94 192.34 604.98 189.12 590.18 186.11 575.72 183.25 561.7 180.01 548.04 176.8 534.88 173.57 522.26 169.81 510.04 165.94 498.33 161.95 487.1 157.38 476.23 152.69 465.76 147.9 455.64 142.62 445.79 137.33 436.19 132.11 426.8 126.62 417.58 121.35 408.47 116.42 399.44 111.5 390.5 107.12 381.57 103.37 372.65 99.95 363.75 97.36 354.82 95.69 345.88 94.59 336.93 94.54 328.16 95.53 319.61 97.13 311.06 99.73 302.73 103.27 294.67 107.3 286.63 112.15 278.88 117.72 271.47 123.55 264.1 129.92 257.1 136.72 250.49 143.51 243.95 150.54 237.82 157.71 232.15 164.6 226.53 171.5 221.36 178.34 216.65 184.7 211.96 190.95 207.71 197.05 203.89 202.62 200.02 208.06 196.53 213.4 193.4 220.65 188.62 234.65 179.93 241.72 175.79 246.22 172.68 251.01 169.63 256.12 166.61 261.08 163.12 266.43 159.61 272.19 156.08 277.88 152.05 284.01 147.99 290.58 143.92 297.12 139.39 304.1 134.9 311.53 130.49 318.93 125.75 326.76 121.19 335.02 116.88 343.26 112.43 351.92 108.36 361.03 104.78"
            stroke-dasharray="0 0" transform="rotate(6.555555555555555, 400, 400)" opacity="0.09"></path>
        <path
            d="M364.96 110.17C373.99 106.65 383.3 103.83 392.91 101.74 402.57 99.95 412.58 99 422.96 98.9 433.46 99.24 444.42 100.47 455.85 102.59 467.49 105.21 479.68 108.71 492.42 113.05 505.42 117.87 519 123.49 533.11 129.83 547.44 136.58 562.23 143.99 577.35 151.96 592.46 160.23 607.68 168.97 622.77 178.12 637.44 187.43 651.58 197.06 664.88 206.93 677.17 216.85 688.12 226.95 697.38 237.17 705.03 247.35 710.54 257.62 713.68 267.93 714.83 278.15 713.44 288.41 709.46 298.7 703.7 308.87 695.67 319.08 685.63 329.32 674.74 339.46 662.67 349.66 649.99 359.94 637.99 370.13 626.52 380.43 616.24 390.85 608.3 401.22 602.58 411.74 599.53 422.4 599.88 433.05 603.29 443.87 609.77 454.85 619.47 465.83 631.34 476.71 644.76 487.46 659.72 498.19 674.86 508.75 689.47 519.09 703.64 529.37 716.03 539.36 726.16 548.99 734.35 558.47 739.6 567.49 741.79 575.95 741.44 584.16 738.04 591.69 731.81 598.45 723.33 604.83 712.51 610.32 699.78 614.82 685.61 618.86 670.22 621.83 654.04 623.67 637.34 625.03 620.46 625.25 603.73 624.36 587.19 623.08 571.18 620.78 555.88 617.58 541.15 614.26 527.25 610.27 514.21 605.79 501.84 601.65 490.26 597.38 479.41 593.23 469.13 589.98 459.42 587.27 450.18 585.33 441.33 584.84 432.77 585.49 424.41 587.45 416.26 591.2 408.16 596.42 400.03 603.15 391.99 611.64 383.84 621.5 375.53 632.55 367.24 644.88 358.76 657.94 350.1 671.38 341.43 685.19 332.79 698.35 324.23 710.5 315.69 721.99 307.26 731.86 299.01 739.87 290.83 746.49 282.88 750.94 275.23 753.14 267.69 753.65 260.51 751.91 253.74 748.03 247.12 742.55 240.94 735.17 235.26 726.12 229.72 715.86 224.66 704.28 220.12 691.67 215.65 678.35 211.65 664.37 208.09 649.98 204.48 635.35 201.22 620.62 198.27 605.97 195.09 591.43 192.1 577.16 189.24 563.28 185.98 549.7 182.72 536.57 179.43 523.94 175.6 511.68 171.65 499.89 167.59 488.57 162.94 477.59 158.18 467 153.32 456.77 147.98 446.8 142.63 437.1 137.36 427.63 131.82 418.32 126.51 409.16 121.53 400.13 116.58 391.17 112.16 382.26 108.38 373.41 104.93 364.58 102.3 355.76 100.59 346.96 99.45 338.16 99.36 329.57 100.31 321.23 101.87 312.88 104.43 304.79 107.92 296.98 111.92 289.18 116.73 281.69 122.26 274.55 128.07 267.44 134.43 260.7 141.22 254.35 148.01 248.06 155.07 242.18 162.27 236.74 169.22 231.34 176.18 226.37 183.1 221.85 189.57 217.33 195.93 213.23 202.15 209.54 207.85 205.78 213.42 202.38 218.89 199.31 226.32 194.59 240.58 185.92 247.71 181.74 252.23 178.6 257 175.51 262.07 172.45 266.96 168.92 272.22 165.36 277.87 161.78 283.42 157.71 289.4 153.61 295.82 149.5 302.18 144.96 309 140.44 316.26 136 323.48 131.25 331.16 126.67 339.28 122.34 347.38 117.88 355.93 113.79 364.95 110.17"
            stroke-dasharray="0 0" transform="rotate(9.833333333333332, 400, 400)" opacity="0.10"></path>
        <path
            d="M369.35 115.57C378.31 112.02 387.59 109.16 397.19 107.02 406.84 105.17 416.87 104.14 427.29 103.95 437.83 104.18 448.84 105.3 460.32 107.28 471.98 109.75 484.18 113.09 496.91 117.26 509.85 121.91 523.32 127.33 537.26 133.48 551.35 140.04 565.82 147.24 580.52 155.02 595.15 163.09 609.78 171.65 624.18 180.62 638.09 189.77 651.4 199.24 663.78 208.97 675.13 218.76 685.09 228.74 693.37 238.85 700.06 248.95 704.67 259.14 706.97 269.39 707.41 279.56 705.42 289.77 701 300.01 694.96 310.16 686.81 320.34 676.83 330.55 666.13 340.66 654.41 350.84 642.19 361.06 630.7 371.22 619.8 381.46 610.08 391.79 602.64 402.09 597.35 412.5 594.61 423.03 595.11 433.55 598.54 444.2 604.88 454.97 614.28 465.74 625.76 476.38 638.72 486.84 653.18 497.28 667.86 507.52 682.06 517.49 695.92 527.41 708.14 537 718.25 546.19 726.58 555.23 732.15 563.79 734.81 571.77 735.09 579.5 732.44 586.55 727.05 592.82 719.48 598.73 709.6 603.76 697.8 607.82 684.54 611.45 669.99 614.05 654.57 615.58 638.53 616.66 622.2 616.68 605.9 615.65 589.67 614.3 573.85 612.01 558.62 608.88 543.87 605.71 529.85 601.94 516.62 597.75 504 593.93 492.12 590.05 480.95 586.32 470.32 583.5 460.27 581.23 450.71 579.72 441.53 579.62 432.69 580.63 424.09 582.88 415.71 586.85 407.43 592.23 399.21 599.02 391.07 607.47 382.89 617.22 374.63 628.08 366.39 640.14 358.02 652.89 349.54 665.99 341.05 679.43 332.65 692.25 324.37 704.09 316.1 715.33 307.99 725.02 300.09 732.94 292.25 739.56 284.67 744.1 277.4 746.5 270.23 747.3 263.42 745.93 257.03 742.51 250.76 737.55 244.93 730.74 239.58 722.29 234.34 712.64 229.57 701.7 225.28 689.7 221.04 676.97 217.22 663.55 213.82 649.68 210.33 635.52 207.16 621.19 204.27 606.89 201.12 592.65 198.13 578.61 195.25 564.9 191.94 551.44 188.63 538.38 185.26 525.78 181.35 513.51 177.33 501.68 173.18 490.3 168.46 479.23 163.61 468.56 158.68 458.25 153.28 448.17 147.88 438.39 142.55 428.86 136.98 419.48 131.63 410.28 126.61 401.23 121.64 392.27 117.19 383.39 113.37 374.6 109.89 365.84 107.23 357.12 105.49 348.46 104.31 339.79 104.18 331.38 105.09 323.23 106.6 315.09 109.12 307.21 112.56 299.63 116.51 292.07 121.28 284.83 126.77 277.93 132.55 271.07 138.88 264.57 145.66 258.47 152.45 252.41 159.51 246.76 166.75 241.53 173.74 236.33 180.77 231.55 187.77 227.2 194.34 222.83 200.8 218.86 207.15 215.28 212.98 211.61 218.68 208.28 224.28 205.27 231.91 200.59 246.48 191.91 253.7 187.68 258.26 184.51 263.04 181.38 268.09 178.26 272.95 174.69 278.15 171.08 283.72 167.45 289.17 163.35 295.04 159.21 301.33 155.07 307.55 150.49 314.22 145.95 321.34 141.5 328.42 136.73 335.95 132.14 343.96 127.79 351.93 123.32 360.39 119.21 369.34 115.57"
            stroke-dasharray="0 0" transform="rotate(13.11111111111111, 400, 400)" opacity="0.12"></path>
        <path
            d="M374.14 120.96C383.03 117.39 392.27 114.49 401.86 112.3 411.49 110.4 421.53 109.3 431.97 109.01 442.52 109.15 453.54 110.14 465.02 111.99 476.67 114.32 488.83 117.5 501.48 121.49 514.3 125.95 527.6 131.19 541.3 137.13 555.1 143.49 569.18 150.49 583.42 158.06 597.51 165.94 611.5 174.3 625.18 183.08 638.31 192.05 650.75 201.35 662.21 210.91 672.62 220.56 681.63 230.41 688.93 240.41 694.71 250.4 698.46 260.5 699.98 270.66 699.76 280.77 697.24 290.92 692.42 301.1 686.15 311.2 677.93 321.34 668.04 331.49 657.58 341.57 646.22 351.7 634.46 361.86 623.49 371.96 613.14 382.13 603.98 392.37 597.02 402.58 592.14 412.88 589.7 423.26 590.35 433.63 593.79 444.11 599.98 454.66 609.1 465.21 620.19 475.59 632.7 485.76 646.68 495.92 660.88 505.83 674.69 515.44 688.22 524.99 700.25 534.18 710.32 542.94 718.76 551.57 724.6 559.68 727.71 567.19 728.57 574.47 726.63 581.05 722.04 586.85 715.35 592.32 706.39 596.92 695.51 600.58 683.16 603.85 669.47 606.11 654.83 607.36 639.5 608.21 623.76 608.06 607.94 606.93 592.09 605.54 576.53 603.28 561.45 600.26 546.74 597.26 532.69 593.72 519.34 589.83 506.53 586.36 494.42 582.87 483 579.56 472.07 577.15 461.71 575.31 451.87 574.22 442.39 574.5 433.28 575.84 424.46 578.38 415.87 582.55 407.43 588.05 399.1 594.89 390.87 603.31 382.65 612.93 374.42 623.6 366.22 635.4 357.96 647.84 349.64 660.59 341.31 673.68 333.13 686.16 325.11 697.7 317.11 708.68 309.3 718.18 301.73 726.01 294.2 732.61 286.96 737.24 280.05 739.82 273.22 740.89 266.76 739.87 260.71 736.88 254.77 732.42 249.26 726.16 244.21 718.29 239.24 709.26 234.73 698.94 230.67 687.55 226.61 675.42 222.96 662.57 219.68 649.22 216.29 635.55 213.18 621.66 210.32 607.73 207.19 593.81 204.18 580.03 201.25 566.52 197.89 553.22 194.51 540.28 191.06 527.74 187.07 515.49 182.96 503.66 178.71 492.26 173.92 481.14 169 470.4 163.99 460.03 158.53 449.89 153.08 440.03 147.7 430.46 142.09 421.03 136.71 411.8 131.66 402.75 126.67 393.78 122.19 384.93 118.35 376.21 114.85 367.51 112.16 358.89 110.38 350.36 109.17 341.83 109.01 333.58 109.86 325.62 111.33 317.65 113.8 309.99 117.19 302.63 121.09 295.28 125.81 288.27 131.24 281.61 136.98 274.97 143.28 268.7 150.03 262.83 156.81 256.98 163.88 251.54 171.13 246.51 178.17 241.49 185.26 236.88 192.32 232.67 198.99 228.44 205.56 224.58 212.02 221.1 217.99 217.51 223.83 214.24 229.56 211.26 237.4 206.62 252.33 197.9 259.67 193.62 264.29 190.4 269.11 187.22 274.17 184.05 279.02 180.43 284.19 176.78 289.7 173.1 295.09 168.95 300.87 164.78 307.06 160.6 313.17 156 319.72 151.44 326.73 146.97 333.68 142.19 341.1 137.59 349 133.23 356.87 128.75 365.24 124.63 374.13 120.97"
            stroke-dasharray="0 0" transform="rotate(16.38888888888889, 400, 400)" opacity="0.14"></path>
        <path
            d="M379.27 126.36C388.1 122.77 397.3 119.84 406.86 117.6 416.47 115.64 426.49 114.47 436.92 114.09 447.45 114.13 458.44 115.01 469.88 116.72 481.47 118.9 493.54 121.92 506.06 125.73 518.71 130.01 531.78 135.05 545.18 140.79 558.62 146.94 572.27 153.73 585.98 161.09 599.49 168.76 612.81 176.92 625.73 185.49 638.06 194.27 649.63 203.4 660.17 212.79 669.65 222.28 677.72 231.98 684.1 241.84 689.01 251.71 691.94 261.7 692.73 271.76 691.9 281.78 688.9 291.86 683.76 301.96 677.3 312 669.05 322.08 659.29 332.16 649.08 342.19 638.09 352.25 626.81 362.33 616.36 372.37 606.56 382.45 597.93 392.58 591.45 402.69 586.96 412.86 584.8 423.08 585.6 433.3 589.03 443.59 595.09 453.92 603.93 464.25 614.64 474.37 626.7 484.24 640.2 494.1 653.95 503.68 667.34 512.94 680.55 522.13 692.37 530.93 702.37 539.27 710.9 547.49 716.98 555.16 720.48 562.23 721.89 569.07 720.61 575.21 716.79 580.58 710.95 585.64 702.88 589.84 692.9 593.13 681.46 596.06 668.64 598.04 654.8 599.04 640.2 599.71 625.11 599.42 609.82 598.23 594.4 596.82 579.16 594.63 564.3 591.75 549.72 588.92 535.7 585.64 522.31 582.07 509.38 578.94 497.1 575.83 485.48 572.94 474.31 570.95 463.7 569.52 453.62 568.83 443.88 569.46 434.53 571.12 425.52 573.93 416.71 578.29 408.13 583.91 399.7 590.78 391.37 599.15 383.12 608.65 374.92 619.12 366.74 630.66 358.57 642.78 350.4 655.19 342.22 667.93 334.24 680.07 326.47 691.31 318.7 702.03 311.16 711.36 303.9 719.08 296.67 725.66 289.74 730.35 283.16 733.1 276.64 734.41 270.51 733.74 264.78 731.16 259.13 727.18 253.91 721.45 249.14 714.15 244.41 705.72 240.11 696 236.25 685.22 232.35 673.69 228.83 661.41 225.66 648.6 222.34 635.43 219.27 621.99 216.42 608.46 213.28 594.88 210.23 581.41 207.25 568.14 203.82 555.03 200.36 542.23 196.81 529.79 192.74 517.61 188.53 505.81 184.19 494.42 179.32 483.28 174.32 472.51 169.24 462.11 163.73 451.91 158.22 442.02 152.8 432.41 147.16 422.94 141.75 413.69 136.68 404.66 131.67 395.69 127.18 386.88 123.32 378.22 119.8 369.58 117.09 361.06 115.28 352.65 114.04 344.25 113.83 336.15 114.64 328.37 116.06 320.58 118.47 313.1 121.8 305.95 125.65 298.81 130.31 292 135.68 285.57 141.38 279.13 147.63 273.08 154.34 267.42 161.11 261.76 168.17 256.51 175.42 251.66 182.5 246.8 189.63 242.33 196.76 238.27 203.52 234.15 210.2 230.39 216.76 226.98 222.86 223.46 228.84 220.23 234.71 217.28 240.11 214.13 245.44 211.18 250.74 208.41 258.09 203.87 272.71 194.65 280.25 189.81 285.12 186.13 290.28 182.43 295.77 178.71 301.12 174.53 306.84 170.32 312.96 166.1 318.99 161.49 325.46 156.91 332.37 152.42 339.22 147.64 346.55 143.03 354.36 138.66 362.14 134.17 370.43 130.05 379.26 126.36"
            stroke-dasharray="0 0" transform="rotate(19.666666666666664, 400, 400)" opacity="0.16"></path>
        <path
            d="M384.67 131.75C393.44 128.15 402.59 125.19 412.11 122.91 421.68 120.9 431.66 119.66 442.05 119.19 452.53 119.13 463.46 119.89 474.82 121.47 486.31 123.51 498.23 126.36 510.56 130 522.99 134.09 535.78 138.93 548.82 144.47 561.86 150.41 575.02 156.98 588.16 164.12 601.05 171.57 613.67 179.52 625.8 187.88 637.31 196.46 648.01 205.39 657.64 214.59 666.21 223.92 673.37 233.46 678.85 243.16 682.94 252.9 685.11 262.76 685.23 272.7 683.85 282.62 680.42 292.6 674.99 302.61 668.4 312.57 660.17 322.57 650.56 332.57 640.63 342.52 630.03 352.5 619.23 362.49 609.29 372.44 600.03 382.43 591.93 392.43 585.91 402.42 581.8 412.46 579.92 422.51 580.85 432.57 584.28 442.66 590.19 452.75 598.75 462.85 609.09 472.7 620.72 482.29 633.75 491.85 647.03 501.1 660.02 510 672.89 518.83 684.49 527.25 694.41 535.19 702.98 543 709.28 550.26 713.14 556.9 715.04 563.33 714.39 569.06 711.29 574.02 706.27 578.69 699.07 582.53 689.98 585.49 679.44 588.12 667.49 589.84 654.46 590.64 640.63 591.15 626.2 590.76 611.49 589.53 596.57 588.15 581.72 586.05 567.14 583.33 552.75 580.71 538.83 577.69 525.47 574.44 512.49 571.66 500.11 568.94 488.35 566.46 476.99 564.87 466.19 563.84 455.9 563.55 445.94 564.52 436.39 566.48 427.2 569.53 418.22 574.06 409.49 579.78 400.97 586.68 392.56 594.99 384.27 604.36 376.09 614.63 367.94 625.91 359.84 637.72 351.81 649.8 343.77 662.18 335.97 673.99 328.42 684.93 320.87 695.4 313.59 704.53 306.61 712.15 299.65 718.69 293.01 723.44 286.74 726.34 280.51 727.88 274.66 727.53 269.23 725.34 263.84 721.81 258.87 716.59 254.34 709.85 249.82 702 245.72 692.88 242.01 682.7 238.25 671.77 234.83 660.07 231.74 647.8 228.46 635.14 225.42 622.17 222.56 609.06 219.38 595.87 216.29 582.71 213.23 569.71 209.72 556.83 206.17 544.21 202.52 531.91 198.35 519.83 194.05 508.09 189.61 496.74 184.65 485.62 179.58 474.85 174.43 464.44 168.87 454.22 163.31 444.3 157.85 434.68 152.19 425.19 146.76 415.94 141.67 406.92 136.65 397.97 132.15 389.2 128.27 380.6 124.74 372.03 122.01 363.6 120.17 355.32 118.91 347.04 118.66 339.09 119.42 331.47 120.79 323.84 123.14 316.54 126.4 309.59 130.19 302.63 134.78 296.03 140.09 289.79 145.72 283.55 151.92 277.69 158.58 272.22 165.33 266.75 172.38 261.66 179.63 256.97 186.73 252.26 193.9 247.92 201.08 243.97 207.93 239.95 214.7 236.28 221.37 232.94 227.61 229.46 233.72 226.27 239.73 223.33 245.28 220.18 250.76 217.22 256.19 214.43 261.22 211.33 266.27 208.33 271.4 205.41 276.2 202.11 281.16 198.82 286.31 195.53 291.22 191.81 296.41 188.06 301.9 184.28 307.23 180.07 312.92 175.82 318.99 171.58 324.97 166.94 331.37 162.35 338.21 157.84 344.98 153.06 352.23 148.45 359.97 144.08 367.67 139.59 375.89 135.46 384.66 131.76"
            stroke-dasharray="0 0" transform="rotate(22.944444444444443, 400, 400)" opacity="0.17"></path>
        <path
            d="M390.28 137.15C398.98 133.53 408.08 130.54 417.54 128.22 427.05 126.16 436.97 124.86 447.29 124.31 457.69 124.15 468.53 124.8 479.76 126.25 491.1 128.13 502.84 130.83 514.93 134.28 527.08 138.19 539.53 142.83 552.17 148.15 564.75 153.88 577.39 160.23 589.92 167.14 602.15 174.37 614.04 182.1 625.38 190.24 636.07 198.61 645.9 207.33 654.62 216.34 662.31 225.48 668.58 234.84 673.22 244.38 676.52 253.97 677.98 263.69 677.49 273.49 675.61 283.29 671.81 293.16 666.16 303.05 659.47 312.92 651.29 322.81 641.88 332.71 632.24 342.58 622.05 352.46 611.73 362.34 602.3 372.19 593.58 382.06 585.98 391.94 580.41 401.8 576.67 411.68 575.05 421.55 576.1 431.43 579.53 441.31 585.29 451.17 593.58 461.03 603.56 470.61 614.76 479.9 627.32 489.16 640.15 498.09 652.73 506.64 665.25 515.12 676.62 523.16 686.43 530.71 695.03 538.14 701.5 545 705.68 551.23 708.01 559.94 698.14 573.27 686.74 577.69 677.09 580.05 666 581.56 653.79 582.18 640.74 582.56 627.03 582.12 612.93 580.89 598.55 579.55 584.14 577.56 569.9 575.02 555.78 572.62 542.02 569.89 528.76 566.97 515.8 564.53 503.39 562.19 491.55 560.12 480.06 558.92 469.11 558.29 458.67 558.36 448.53 559.66 438.81 561.91 429.47 565.19 420.34 569.88 411.49 575.68 402.89 582.6 394.4 590.84 386.08 600.07 377.92 610.14 369.79 621.15 361.77 632.66 353.85 644.4 345.94 656.43 338.3 667.91 330.96 678.57 323.61 688.77 316.56 697.71 309.84 705.21 303.13 711.71 296.76 716.51 290.76 719.54 281.99 721.27 266.5 713.97 259.8 705.4 255.46 698.12 251.51 689.59 247.95 680 244.29 669.67 240.95 658.54 237.9 646.82 234.64 634.69 231.59 622.2 228.7 609.53 225.48 596.73 222.32 583.92 219.17 571.23 215.58 558.6 211.92 546.19 208.17 534.06 203.9 522.11 199.5 510.48 194.96 499.2 189.92 488.12 184.77 477.38 179.55 466.99 173.94 456.77 168.35 446.86 162.85 437.24 157.17 427.76 151.73 418.52 146.63 409.52 141.61 400.6 137.1 391.87 133.21 383.34 129.68 374.84 126.93 366.5 125.07 358.34 123.78 350.17 123.49 342.36 124.2 334.9 125.52 327.42 127.81 320.3 131 313.52 134.71 306.74 139.23 300.32 144.46 294.27 150.03 288.21 156.17 282.52 162.77 277.23 169.48 271.91 176.5 266.98 183.74 262.43 190.86 257.85 198.06 253.63 205.29 249.77 212.21 245.84 219.07 242.23 225.84 238.94 232.2 235.5 238.45 232.33 244.59 229.39 250.3 226.23 255.92 223.26 261.5 220.43 266.68 217.29 271.87 214.25 277.11 211.27 282.03 207.91 287.08 204.57 292.3 201.22 297.29 197.45 302.51 193.65 308.02 189.82 313.37 185.57 319.05 181.29 325.1 177.02 331.04 172.37 337.4 167.77 344.18 163.25 350.9 158.47 358.08 153.86 365.76 149.48 373.4 145 381.56 140.86 390.27 137.15"
            stroke-dasharray="0 0" transform="rotate(26.22222222222222, 400, 400)" opacity="0.19"></path>
        <path
            d="M396 142.55C404.65 138.92 413.68 135.91 423.07 133.55 432.51 131.45 442.35 130.08 452.57 129.45 462.86 129.2 473.56 129.73 484.62 131.04 495.77 132.79 507.28 135.32 519.08 138.59 530.91 142.31 542.98 146.75 555.17 151.86 567.26 157.36 579.32 163.49 591.21 170.17 602.76 177.17 613.91 184.67 624.44 192.58 634.31 200.73 643.28 209.24 651.12 218.03 657.95 226.98 663.38 236.15 667.21 245.5 669.78 254.93 670.58 264.49 669.53 274.13 667.21 283.8 663.1 293.53 657.26 303.3 650.53 313.05 642.43 322.83 633.24 332.61 623.92 342.37 614.14 352.14 604.31 361.89 595.39 371.63 587.18 381.37 580.09 391.09 574.95 400.81 571.56 410.53 570.19 420.22 571.36 429.91 574.77 439.57 580.4 449.19 588.42 458.8 598.04 468.11 608.82 477.1 620.92 486.07 633.3 494.67 645.47 502.87 657.64 511.01 668.76 518.69 678.45 525.87 687.04 532.92 693.65 539.4 698.12 545.26 701.13 553.41 693.33 565.74 683.17 569.75 674.39 571.89 664.16 573.2 652.78 573.69 640.53 573.98 627.55 573.5 614.1 572.3 600.3 571.04 586.39 569.19 572.55 566.85 558.74 564.68 545.23 562.24 532.12 559.65 519.25 557.57 506.87 555.6 495.01 553.93 483.46 553.11 472.41 552.85 461.87 553.29 451.59 554.89 441.73 557.4 432.29 560.9 423.02 565.73 414.08 571.61 405.42 578.53 396.86 586.69 388.51 595.78 380.37 605.64 372.26 616.39 364.3 627.59 356.5 639 348.7 650.69 341.22 661.84 334.06 672.2 326.89 682.15 320.06 690.9 313.56 698.28 307.07 704.72 300.94 709.55 295.19 712.7 286.77 714.77 271.92 708.62 265.49 700.79 261.3 694.07 257.48 686.12 254.01 677.11 250.43 667.36 247.14 656.81 244.11 645.64 240.86 634.04 237.79 622.06 234.84 609.84 231.56 597.46 228.32 585.03 225.08 572.66 221.38 560.32 217.62 548.15 213.75 536.22 209.38 524.44 204.88 512.93 200.24 501.76 195.12 490.76 189.9 480.08 184.62 469.73 178.96 459.54 173.33 449.65 167.81 440.07 162.11 430.6 156.66 421.38 151.56 412.43 146.54 403.54 142.03 394.86 138.14 386.41 134.61 377.98 131.85 369.73 129.97 361.68 128.65 353.63 128.32 345.95 128.98 338.64 130.25 331.31 132.47 324.34 135.58 317.73 139.22 311.11 143.66 304.86 148.8 298.98 154.3 293.08 160.37 287.55 166.91 282.41 173.57 277.24 180.55 272.44 187.77 268.02 194.89 263.55 202.11 259.43 209.37 255.66 216.35 251.79 223.3 248.24 230.16 244.98 236.64 241.57 243.02 238.4 249.29 235.46 255.15 232.29 260.93 229.28 266.65 226.41 271.98 223.23 277.31 220.13 282.68 217.09 287.73 213.68 292.89 210.28 298.2 206.87 303.27 203.05 308.56 199.2 314.11 195.32 319.49 191.04 325.18 186.73 331.23 182.43 337.16 177.77 343.49 173.16 350.24 168.63 356.91 163.86 364.05 159.25 371.67 154.88 379.25 150.4 387.35 146.27 396 142.55"
            stroke-dasharray="0 0" transform="rotate(29.5, 400, 400)" opacity="0.21"></path>
        <path
            d="M401.79 147.94C410.37 144.31 419.32 141.28 428.63 138.89 437.97 136.74 447.7 135.31 457.79 134.61 467.94 134.26 478.47 134.68 489.33 135.87 500.25 137.47 511.48 139.83 522.95 142.93 534.42 146.46 546.06 150.69 557.76 155.59 569.32 160.87 580.79 166.76 592.01 173.21 602.86 179.98 613.25 187.23 622.97 194.91 632.03 202.83 640.15 211.11 647.14 219.69 653.15 228.42 657.77 237.39 660.85 246.54 662.73 255.78 662.94 265.17 661.38 274.64 658.68 284.16 654.3 293.74 648.33 303.36 641.59 312.98 633.62 322.62 624.67 332.27 615.68 341.9 606.33 351.54 596.97 361.15 588.56 370.76 580.86 380.36 574.26 389.92 569.53 399.48 566.48 409.02 565.34 418.51 566.62 428.01 570.02 437.45 575.5 446.81 583.26 456.18 592.53 465.22 602.9 473.91 614.55 482.58 626.48 490.87 638.25 498.73 650.07 506.53 660.92 513.87 670.46 520.68 679.03 527.38 685.75 533.5 690.46 539 694.11 546.64 688.25 558.07 679.28 561.71 671.35 563.65 661.98 564.81 651.42 565.21 639.97 565.44 627.74 564.95 614.97 563.81 601.8 562.64 588.41 560.95 575.03 558.82 561.6 556.9 548.38 554.75 535.49 552.5 522.78 550.76 510.49 549.18 498.68 547.89 487.11 547.44 476.03 547.54 465.42 548.31 455.06 550.21 445.12 552.97 435.59 556.66 426.23 561.61 417.2 567.55 408.5 574.46 399.89 582.54 391.53 591.48 383.4 601.13 375.32 611.62 367.42 622.52 359.72 633.61 352.02 644.96 344.67 655.78 337.68 665.86 330.68 675.55 324.03 684.1 317.75 691.35 311.46 697.73 305.54 702.58 300 705.84 291.88 708.21 277.58 703.14 271.38 696.04 267.31 689.86 263.58 682.46 260.19 674.02 256.66 664.86 253.39 654.88 250.36 644.26 247.09 633.21 243.97 621.72 240.96 609.97 237.6 598.04 234.26 586 230.91 573.98 227.12 561.95 223.24 550.05 219.26 538.36 214.78 526.77 210.17 515.43 205.44 504.39 200.25 493.5 194.95 482.91 189.61 472.63 183.92 462.5 178.26 452.66 172.71 443.12 167.01 433.69 161.56 424.51 156.45 415.61 151.44 406.77 146.95 398.15 143.06 389.77 139.53 381.42 136.76 373.27 134.86 365.33 133.52 357.39 133.16 349.84 133.76 342.66 134.97 335.46 137.12 328.64 140.16 322.19 143.71 315.72 148.06 309.62 153.12 303.89 158.53 298.14 164.52 292.76 170.98 287.75 177.59 282.71 184.52 278.03 191.71 273.72 198.81 269.34 206.04 265.3 213.33 261.6 220.36 257.79 227.38 254.28 234.32 251.04 240.91 247.64 247.41 244.47 253.81 241.51 259.81 238.32 265.74 235.27 271.6 232.35 277.09 229.13 282.57 225.98 288.08 222.87 293.27 219.41 298.55 215.94 303.96 212.47 309.13 208.6 314.49 204.71 320.1 200.79 325.53 196.47 331.26 192.14 337.32 187.81 343.26 183.14 349.58 178.52 356.3 173.99 362.95 169.23 370.05 164.63 377.62 160.26 385.15 155.8 393.2 151.67 401.78 147.95"
            stroke-dasharray="0 0" transform="rotate(32.77777777777778, 400, 400)" opacity="0.23"></path>
        <path
            d="M407.55 153.34C416.05 149.7 424.92 146.66 434.12 144.24 443.35 142.05 452.95 140.56 462.89 139.78 472.87 139.35 483.19 139.66 493.81 140.71 504.46 142.17 515.37 144.38 526.48 147.3 537.55 150.63 548.73 154.66 559.9 159.34 570.9 164.4 581.74 170.06 592.28 176.27 602.42 182.79 612.05 189.8 620.97 197.24 629.22 204.92 636.52 212.96 642.68 221.3 647.9 229.81 651.77 238.57 654.13 247.51 655.39 256.55 655.04 265.75 653.04 275.04 650 284.38 645.41 293.8 639.36 303.25 632.65 312.72 624.83 322.22 616.15 331.71 607.51 341.2 598.59 350.69 589.72 360.15 581.81 369.61 574.61 379.05 568.47 388.44 564.15 397.83 561.42 407.18 560.51 416.46 561.89 425.75 565.26 434.97 570.61 444.08 578.11 453.18 587.03 461.95 597 470.35 608.2 478.72 619.69 486.69 631.05 494.23 642.51 501.71 653.1 508.7 662.48 515.17 670.99 521.53 677.79 527.31 682.71 532.48 686.92 539.65 682.89 550.26 675.08 553.58 667.97 555.36 659.43 556.41 649.69 556.73 639.06 556.92 627.58 556.47 615.52 555.4 602.99 554.36 590.19 552.84 577.3 550.94 564.3 549.27 551.43 547.42 538.82 545.51 526.33 544.12 514.18 542.9 502.47 541.99 490.96 541.9 479.89 542.34 469.28 543.44 458.87 545.61 448.88 548.6 439.3 552.47 429.88 557.53 420.81 563.51 412.08 570.41 403.43 578.4 395.07 587.18 386.97 596.62 378.91 606.85 371.07 617.45 363.47 628.21 355.86 639.23 348.64 649.73 341.8 659.51 334.95 668.95 328.47 677.3 322.37 684.42 316.25 690.73 310.51 695.59 305.17 698.94 297.31 701.59 283.46 697.55 277.44 691.14 273.46 685.48 269.81 678.63 266.46 670.75 262.95 662.15 259.68 652.74 256.62 642.68 253.31 632.16 250.13 621.19 247.04 609.92 243.59 598.44 240.15 586.82 236.68 575.17 232.77 563.48 228.78 551.88 224.68 540.45 220.1 529.09 215.39 517.94 210.56 507.06 205.29 496.31 199.94 485.83 194.53 475.65 188.81 465.6 183.12 455.83 177.56 446.36 171.86 436.98 166.42 427.87 161.32 419.03 156.33 410.25 151.84 401.71 147.97 393.41 144.44 385.13 141.68 377.08 139.76 369.25 138.39 361.42 138 353.99 138.55 346.94 139.7 339.87 141.77 333.19 144.72 326.88 148.19 320.55 152.45 314.59 157.41 309 162.73 303.38 168.63 298.13 175 293.24 181.54 288.31 188.42 283.74 195.55 279.52 202.64 275.22 209.87 271.25 217.16 267.6 224.24 263.83 231.31 260.35 238.33 257.12 245.02 253.72 251.63 250.54 258.14 247.55 264.29 244.33 270.36 241.24 276.37 238.27 282.01 234.99 287.64 231.78 293.29 228.61 298.62 225.09 304.03 221.56 309.55 218.03 314.83 214.12 320.29 210.17 325.97 206.21 331.46 201.86 337.24 197.5 343.32 193.16 349.29 188.48 355.61 183.86 362.32 179.33 368.96 174.58 376.03 169.99 383.55 165.63 391.04 161.18 399.03 157.06 407.54 153.34"
            stroke-dasharray="0 0" transform="rotate(36.05555555555555, 400, 400)" opacity="0.24"></path>
        <path
            d="M413.2 158.74C421.63 155.1 430.39 152.05 439.47 149.6 448.58 147.38 458.02 145.83 467.77 144.98 477.56 144.46 487.64 144.66 497.98 145.59 508.33 146.91 518.89 148.95 529.59 151.69 540.23 154.84 550.92 158.66 561.53 163.12 571.95 167.95 582.15 173.38 591.99 179.34 601.42 185.62 610.29 192.39 618.41 199.57 625.88 207 632.38 214.8 637.75 222.9 642.23 231.17 645.38 239.7 647.08 248.42 647.77 257.25 646.93 266.24 644.54 275.33 641.22 284.48 636.46 293.72 630.37 302.99 623.73 312.29 616.09 321.62 607.7 330.94 599.43 340.28 590.94 349.6 582.55 358.89 575.13 368.19 568.42 377.46 562.74 386.66 558.8 395.87 556.39 405.02 555.68 414.09 557.16 423.16 560.51 432.14 565.71 440.99 572.96 449.84 581.54 458.33 591.12 466.43 601.88 474.52 612.94 482.18 623.89 489.4 634.99 496.56 645.29 503.23 654.49 509.38 662.93 515.41 669.78 520.88 674.88 525.73 679.6 532.47 677.27 542.35 670.55 545.41 664.25 547.05 656.52 548.01 647.59 548.29 637.76 548.48 627.06 548.07 615.71 547.11 603.86 546.2 591.67 544.87 579.31 543.21 566.8 541.82 554.33 540.27 542.05 538.69 529.82 537.65 517.89 536.78 506.33 536.23 494.93 536.49 483.93 537.26 473.36 538.66 462.96 541.09 452.96 544.29 443.38 548.32 433.93 553.48 424.84 559.5 416.09 566.36 407.44 574.25 399.08 582.88 391.02 592.11 382.99 602.07 375.21 612.37 367.69 622.82 360.18 633.5 353.07 643.68 346.36 653.18 339.64 662.36 333.31 670.51 327.37 677.49 321.41 683.73 315.83 688.58 310.64 692.01 303 694.92 289.53 691.84 283.64 686.1 279.72 680.93 276.11 674.61 272.78 667.27 269.27 659.24 265.98 650.39 262.88 640.88 259.51 630.91 256.25 620.46 253.06 609.67 249.51 598.66 245.96 587.46 242.36 576.2 238.34 564.89 234.23 553.61 230 542.45 225.32 531.35 220.51 520.42 215.59 509.74 210.26 499.15 204.84 488.81 199.39 478.76 193.63 468.82 187.93 459.14 182.36 449.76 176.67 440.46 171.24 431.42 166.15 422.66 161.19 413.95 156.72 405.49 152.86 397.28 149.35 389.09 146.58 381.13 144.65 373.41 143.27 365.69 142.84 358.37 143.34 351.45 144.42 344.51 146.43 337.95 149.29 331.77 152.67 325.57 156.82 319.73 161.67 314.27 166.89 308.77 172.69 303.63 178.97 298.86 185.43 294.03 192.24 289.54 199.32 285.39 206.37 281.16 213.58 277.25 220.87 273.64 227.98 269.9 235.09 266.43 242.17 263.2 248.95 259.8 255.66 256.59 262.28 253.57 268.56 250.31 274.77 247.17 280.91 244.14 286.71 240.81 292.49 237.54 298.27 234.3 303.76 230.72 309.3 227.13 314.94 223.54 320.34 219.58 325.9 215.59 331.66 211.58 337.23 207.21 343.07 202.83 349.19 198.47 355.19 193.79 361.53 189.17 368.23 184.65 374.87 179.91 381.91 175.34 389.39 170.99 396.84 166.56 404.77 162.46 413.19 158.74"
            stroke-dasharray="0 0" transform="rotate(39.33333333333333, 400, 400)" opacity="0.26"></path>
        <path
            d="M418.69 164.13C427.03 160.5 435.68 157.44 444.62 154.97 453.58 152.71 462.84 151.12 472.38 150.2 481.94 149.59 491.76 149.69 501.78 150.5 511.8 151.67 521.98 153.56 532.24 156.12 542.42 159.08 552.59 162.7 562.63 166.94 572.45 171.54 582 176.73 591.13 182.45 599.85 188.48 607.97 194.98 615.32 201.91 622.02 209.09 627.76 216.63 632.38 224.48 636.14 232.51 638.63 240.79 639.73 249.28 639.89 257.89 638.62 266.65 635.9 275.53 632.34 284.48 627.47 293.51 621.38 302.59 614.83 311.71 607.41 320.85 599.33 329.99 591.43 339.15 583.37 348.3 575.47 357.4 568.53 366.52 562.29 375.6 557.06 384.6 553.49 393.62 551.37 402.57 550.87 411.41 552.43 420.26 555.75 428.99 560.81 437.58 567.81 446.17 576.06 454.38 585.26 462.2 595.59 469.99 606.21 477.36 616.77 484.27 627.5 491.13 637.51 497.49 646.52 503.32 654.86 509.06 661.72 514.23 666.97 518.8 671.76 529.76 656.71 539.2 645.11 539.92 636.08 540.13 626.15 539.79 615.52 538.95 604.38 538.2 592.82 537.07 581.03 535.66 569.03 534.53 557.02 533.29 545.11 532.05 533.21 531.34 521.54 530.83 510.19 530.63 498.96 531.21 488.08 532.3 477.59 533.99 467.25 536.65 457.29 540.05 447.73 544.23 438.29 549.46 429.21 555.5 420.48 562.32 411.84 570.11 403.5 578.57 395.48 587.59 387.49 597.28 379.78 607.29 372.34 617.42 364.91 627.77 357.91 637.65 351.32 646.86 344.72 655.78 338.52 663.72 332.71 670.56 326.88 676.71 321.44 681.56 316.39 685.05 308.92 688.19 295.74 686.02 289.94 680.91 286.06 676.22 282.47 670.41 279.13 663.61 275.6 656.13 272.27 647.83 269.1 638.85 265.66 629.43 262.3 619.5 259 609.21 255.35 598.68 251.67 587.92 247.95 577.07 243.81 566.13 239.57 555.2 235.23 544.35 230.45 533.53 225.54 522.85 220.54 512.38 215.13 501.99 209.66 491.82 204.17 481.92 198.4 472.11 192.68 462.55 187.11 453.27 181.43 444.07 176.02 435.13 170.96 426.45 166.02 417.83 161.59 409.46 157.74 401.34 154.25 393.25 151.49 385.39 149.55 377.78 148.15 370.17 147.68 362.96 148.13 356.16 149.15 349.33 151.07 342.9 153.84 336.84 157.13 330.75 161.18 325.03 165.92 319.68 171.03 314.29 176.72 309.25 182.89 304.57 189.26 299.82 195.99 295.41 202.99 291.33 210 287.15 217.18 283.28 224.46 279.69 231.58 275.97 238.72 272.5 245.84 269.27 252.69 265.85 259.49 262.62 266.22 259.55 272.62 256.24 278.96 253.06 285.23 249.96 291.18 246.58 297.1 243.24 303.02 239.94 308.65 236.29 314.33 232.65 320.09 229 325.61 224.99 331.28 220.96 337.12 216.92 342.79 212.52 348.69 208.12 354.86 203.75 360.9 199.07 367.26 194.46 373.97 189.94 380.61 185.22 387.63 180.67 395.07 176.34 402.48 171.94 410.34 167.84 418.68 164.14"
            stroke-dasharray="0 0" transform="rotate(42.61111111111111, 400, 400)" opacity="0.28"></path>
        <path
            d="M423.93 169.53C432.17 165.91 440.69 162.84 449.47 160.35 458.27 158.07 467.33 156.42 476.63 155.43 485.94 154.75 495.47 154.75 505.15 155.43 514.82 156.47 524.59 158.2 534.39 160.59 544.09 163.36 553.71 166.77 563.16 170.79 572.37 175.17 581.26 180.11 589.7 185.58 597.71 191.36 605.09 197.61 611.68 204.27 617.65 211.19 622.66 218.47 626.57 226.06 629.68 233.83 631.55 241.86 632.1 250.1 631.8 258.47 630.14 267 627.14 275.65 623.4 284.38 618.45 293.2 612.4 302.07 605.99 310.98 598.8 319.93 591.05 328.87 583.52 337.84 575.91 346.79 568.49 355.7 562.01 364.62 556.24 373.5 551.43 382.3 548.22 391.11 546.38 399.83 546.07 408.44 547.7 417.06 551 425.55 555.92 433.88 562.67 442.2 570.6 450.14 579.42 457.67 589.33 465.19 599.53 472.26 609.68 478.88 620.04 485.44 629.76 491.51 638.56 497.05 646.78 502.51 653.64 507.41 659 511.71 664.91 522.03 652.69 530.92 642.24 531.64 634 531.89 624.84 531.65 614.95 530.95 604.51 530.36 593.61 529.45 582.42 528.3 570.98 527.44 559.44 526.5 547.96 525.6 536.44 525.21 525.08 525.03 513.99 525.17 502.97 526.07 492.26 527.45 481.91 529.41 471.67 532.29 461.8 535.86 452.3 540.17 442.9 545.47 433.86 551.52 425.18 558.29 416.56 565.96 408.27 574.26 400.3 583.06 392.36 592.49 384.71 602.21 377.36 612.02 370 622.05 363.09 631.62 356.62 640.54 350.11 649.21 344.03 656.95 338.34 663.64 332.62 669.7 327.29 674.53 322.34 678.06 315.03 681.42 302.05 680.09 296.3 675.58 292.43 671.36 288.83 666.04 285.47 659.75 281.9 652.8 278.51 645.05 275.26 636.61 271.73 627.72 268.27 618.32 264.85 608.53 261.08 598.48 257.28 588.18 253.43 577.75 249.16 567.21 244.81 556.64 240.35 546.13 235.47 535.61 230.47 525.2 225.38 514.97 219.92 504.8 214.41 494.82 208.88 485.09 203.09 475.44 197.38 466.02 191.81 456.87 186.16 447.78 180.77 438.95 175.74 430.38 170.84 421.86 166.43 413.59 162.61 405.57 159.14 397.58 156.39 389.83 154.45 382.32 153.03 374.82 152.52 367.73 152.92 361.03 153.88 354.32 155.72 348 158.4 342.05 161.58 336.07 165.52 330.45 170.14 325.2 175.13 319.91 180.71 314.96 186.77 310.35 193.03 305.68 199.67 301.33 206.59 297.29 213.54 293.16 220.67 289.31 227.91 285.74 235.03 282.03 242.19 278.55 249.34 275.3 256.26 271.86 263.13 268.59 269.94 265.48 276.45 262.12 282.9 258.88 289.29 255.72 295.39 252.28 301.45 248.88 307.49 245.51 313.27 241.81 319.08 238.11 324.96 234.4 330.62 230.35 336.39 226.28 342.33 222.2 348.09 217.79 354.06 213.38 360.28 208.99 366.37 204.32 372.76 199.71 379.48 195.21 386.12 190.51 393.13 185.98 400.52 181.68 407.89 177.3 415.68 173.23 423.92 169.53"
            stroke-dasharray="0 0" transform="rotate(45.888888888888886, 400, 400)" opacity="0.30"></path>
        <path
            d="M428.86 174.92C436.99 171.32 445.37 168.25 453.97 165.74 462.58 163.43 471.43 161.75 480.46 160.69 489.5 159.93 498.71 159.83 508.03 160.39 517.32 161.3 526.66 162.87 535.97 165.09 545.17 167.67 554.25 170.88 563.09 174.68 571.69 178.83 579.92 183.53 587.66 188.75 594.98 194.27 601.64 200.26 607.51 206.66 612.78 213.31 617.1 220.32 620.34 227.64 622.83 235.15 624.15 242.92 624.2 250.9 623.48 259.02 621.5 267.31 618.26 275.72 614.39 284.21 609.41 292.8 603.44 301.45 597.19 310.15 590.26 318.88 582.84 327.6 575.71 336.36 568.54 345.11 561.58 353.8 555.57 362.52 550.25 371.19 545.85 379.76 542.99 388.36 541.41 396.86 541.28 405.22 542.98 413.61 546.24 421.85 551.02 429.91 557.53 437.96 565.14 445.63 573.59 452.89 583.09 460.12 592.87 466.92 602.63 473.25 612.62 479.53 622.03 485.32 630.61 490.59 638.69 495.78 645.53 500.43 650.96 504.5 657.87 514.26 648.32 522.71 638.99 523.46 631.52 523.78 623.11 523.64 613.95 523.1 604.24 522.7 594.01 522.01 583.43 521.12 572.58 520.53 561.57 519.9 550.54 519.31 539.44 519.24 528.44 519.4 517.65 519.86 506.9 521.05 496.41 522.71 486.23 524.92 476.15 528 466.39 531.74 456.99 536.16 447.69 541.51 438.71 547.56 430.09 554.27 421.54 561.82 413.3 569.94 405.39 578.52 397.52 587.7 389.94 597.12 382.66 606.63 375.39 616.33 368.57 625.59 362.19 634.24 355.78 642.65 349.79 650.18 344.21 656.73 335.96 665.08 321.27 674.59 314.75 675.58 308.42 674.05 297 663.91 291.77 655.69 288.15 649.27 284.68 642.04 281.33 634.14 277.71 625.78 274.14 616.9 270.59 607.61 266.69 598.05 262.77 588.22 258.78 578.22 254.4 568.1 249.93 557.91 245.35 547.74 240.38 537.54 235.3 527.43 230.14 517.47 224.62 507.54 219.07 497.78 213.51 488.24 207.72 478.77 202.01 469.51 196.45 460.5 190.84 451.56 185.48 442.85 180.49 434.4 175.63 426 171.26 417.84 167.47 409.93 164.03 402.05 161.29 394.4 159.34 387.01 157.91 379.62 157.37 372.63 157.72 366.05 158.61 359.44 160.37 353.22 162.95 347.38 166.02 341.5 169.85 335.98 174.34 330.82 179.21 325.6 184.66 320.73 190.6 316.19 196.75 311.58 203.28 307.28 210.11 303.28 216.98 299.18 224.05 295.35 231.25 291.78 238.35 288.07 245.51 284.58 252.68 281.29 259.64 277.82 266.57 274.52 273.44 271.35 280.06 267.95 286.61 264.64 293.11 261.42 299.33 257.92 305.52 254.45 311.69 251.01 317.61 247.26 323.55 243.5 329.54 239.75 335.33 235.66 341.21 231.55 347.23 227.44 353.09 223.01 359.14 218.59 365.41 214.19 371.56 209.54 377.98 204.94 384.7 200.46 391.35 195.79 398.33 191.29 405.68 187 413 182.66 420.72 178.61 428.85 174.93"
            stroke-dasharray="0 0" transform="rotate(49.16666666666667, 400, 400)" opacity="0.31"></path>
        <path
            d="M433.41 180.32C441.42 176.73 449.64 173.67 458.04 171.14 466.46 168.81 475.07 167.09 483.82 165.97 492.57 165.13 501.44 164.94 510.37 165.39 519.26 166.16 528.15 167.58 536.97 169.63 545.65 172.03 554.17 175.04 562.41 178.62 570.39 182.54 577.97 187 585.03 191.97 591.67 197.23 597.65 202.95 602.82 209.08 607.42 215.45 611.09 222.19 613.71 229.24 615.64 236.48 616.45 243.98 616.06 251.69 614.98 259.55 612.72 267.58 609.3 275.73 605.34 283.99 600.37 292.34 594.51 300.74 588.45 309.21 581.79 317.71 574.73 326.21 567.99 334.75 561.26 343.27 554.77 351.74 549.21 360.24 544.32 368.68 540.33 377.03 537.79 385.39 536.47 393.66 536.5 401.78 538.26 409.92 541.48 417.91 546.13 425.7 552.4 433.49 559.7 440.89 567.78 447.87 576.88 454.84 586.25 461.36 595.61 467.42 605.23 473.43 614.34 478.96 622.68 483.98 630.6 488.92 637.38 493.34 642.87 497.2 650.67 506.47 643.6 514.6 635.35 515.41 628.63 515.81 620.97 515.8 612.54 515.43 603.54 515.22 593.99 514.75 584.05 514.13 573.8 513.82 563.35 513.48 552.81 513.21 542.17 513.45 531.57 513.92 521.12 514.69 510.68 516.16 500.45 518.08 490.5 520.52 480.61 523.79 471.01 527.67 461.75 532.19 452.56 537.57 443.69 543.61 435.16 550.25 426.68 557.68 418.53 565.62 410.7 573.98 402.89 582.9 395.39 592.03 388.2 601.23 381.01 610.62 374.28 619.57 367.98 627.95 361.66 636.1 355.75 643.43 350.24 649.81 342.11 658.04 327.59 667.72 321.13 669 314.82 667.9 303.33 658.95 298.01 651.45 294.32 645.53 290.76 638.82 287.31 631.43 283.57 623.6 279.88 615.24 276.2 606.45 272.18 597.38 268.12 588.02 264.01 578.47 259.51 568.77 254.92 558.98 250.23 549.17 245.17 539.32 240.02 529.52 234.79 519.84 229.23 510.18 223.64 500.66 218.07 491.34 212.28 482.06 206.59 472.98 201.05 464.14 195.47 455.35 190.16 446.79 185.21 438.48 180.4 430.2 176.07 422.16 172.32 414.37 168.91 406.61 166.19 399.07 164.24 391.79 162.79 384.51 162.22 377.64 162.51 371.16 163.35 364.66 165.02 358.54 167.5 352.79 170.46 347 174.16 341.57 178.53 336.49 183.27 331.35 188.58 326.54 194.39 322.06 200.42 317.5 206.83 313.23 213.55 309.26 220.34 305.18 227.33 301.36 234.47 297.78 241.54 294.07 248.68 290.56 255.84 287.24 262.83 283.73 269.8 280.38 276.73 277.16 283.42 273.7 290.07 270.34 296.66 267.05 303 263.48 309.3 259.95 315.59 256.45 321.63 252.64 327.7 248.84 333.8 245.03 339.71 240.9 345.7 236.76 351.81 232.63 357.76 228.19 363.88 223.76 370.2 219.36 376.41 214.72 382.86 210.14 389.58 205.68 396.23 201.04 403.19 196.57 410.49 192.32 417.76 188.01 425.39 183.99 433.4 180.33"
            stroke-dasharray="0 0" transform="rotate(52.44444444444444, 400, 400)" opacity="0.33"></path>
        <path
            d="M437.52 185.72C445.39 182.15 453.44 179.09 461.64 176.56 469.84 174.21 478.19 172.44 486.64 171.27 495.08 170.36 503.6 170.08 512.13 170.41 520.6 171.06 529.03 172.33 537.34 174.22 545.5 176.43 553.46 179.24 561.09 182.6 568.47 186.29 575.41 190.52 581.8 195.23 587.8 200.23 593.11 205.69 597.62 211.54 601.6 217.64 604.66 224.1 606.71 230.87 608.13 237.83 608.48 245.05 607.71 252.49 606.31 260.07 603.83 267.83 600.28 275.73 596.27 283.72 591.35 291.82 585.63 299.97 579.78 308.19 573.42 316.45 566.72 324.71 560.38 333.02 554.08 341.31 548.05 349.54 542.93 357.81 538.46 366.01 534.85 374.12 532.62 382.25 531.54 390.27 531.73 398.15 533.55 406.03 536.72 413.76 541.23 421.29 547.27 428.82 554.26 435.95 562 442.67 570.69 449.36 579.66 455.62 588.63 461.43 597.88 467.19 606.67 472.47 614.77 477.25 622.52 481.97 629.23 486.17 634.74 489.84 640.92 502.65 621.86 508.07 610.68 507.95 602.41 507.93 593.54 507.7 584.25 507.34 574.62 507.3 564.74 507.26 554.72 507.3 544.57 507.84 534.41 508.6 524.34 509.67 514.25 511.4 504.32 513.56 494.62 516.22 484.97 519.65 475.58 523.66 466.48 528.26 457.45 533.67 448.71 539.67 440.29 546.24 431.93 553.53 423.87 561.29 416.13 569.44 408.42 578.09 401 586.94 393.89 595.83 386.79 604.91 380.13 613.56 373.91 621.66 367.67 629.56 361.83 636.68 356.39 642.91 348.35 651 333.95 660.8 327.51 662.35 321.19 661.66 309.59 653.83 304.15 647.01 300.38 641.58 296.72 635.37 293.14 628.49 289.3 621.18 285.48 613.33 281.67 605.04 277.52 596.47 273.33 587.58 269.09 578.47 264.48 569.21 259.78 559.82 254.99 550.39 249.85 540.91 244.62 531.44 239.33 522.06 233.75 512.68 228.14 503.43 222.55 494.34 216.78 485.28 211.11 476.41 205.6 467.75 200.06 459.13 194.8 450.73 189.9 442.56 185.15 434.43 180.87 426.52 177.16 418.86 173.78 411.22 171.08 403.81 169.14 396.64 167.68 389.48 167.08 382.71 167.32 376.34 168.09 369.94 169.68 363.92 172.05 358.25 174.9 352.55 178.48 347.2 182.7 342.19 187.31 337.12 192.48 332.37 198.14 327.93 204.04 323.41 210.32 319.18 216.92 315.22 223.61 311.16 230.52 307.34 237.58 303.75 244.6 300.01 251.7 296.48 258.85 293.12 265.84 289.57 272.84 286.17 279.8 282.89 286.56 279.38 293.27 275.95 299.94 272.59 306.38 268.97 312.79 265.38 319.17 261.82 325.34 257.96 331.51 254.1 337.72 250.24 343.74 246.09 349.83 241.92 356.02 237.76 362.06 233.32 368.25 228.89 374.61 224.5 380.87 219.87 387.35 215.32 394.06 210.88 400.72 206.28 407.65 201.84 414.89 197.62 422.09 193.35 429.63 189.36 437.51 185.72"
            stroke-dasharray="0 0" transform="rotate(55.72222222222222, 400, 400)" opacity="0.35"></path>
        <path
            d="M441.14 191.11C448.87 187.57 456.73 184.52 464.7 181.98 472.67 179.62 480.75 177.82 488.88 176.59 497 175.62 505.15 175.25 513.26 175.47 521.31 176 529.27 177.13 537.06 178.84 544.71 180.87 552.1 183.48 559.14 186.64 565.92 190.1 572.24 194.09 577.99 198.55 583.36 203.29 588.04 208.48 591.94 214.06 595.33 219.88 597.83 226.05 599.36 232.53 600.32 239.21 600.27 246.15 599.16 253.3 597.51 260.61 594.85 268.09 591.22 275.71 587.2 283.43 582.36 291.26 576.81 299.15 571.2 307.12 565.14 315.13 558.81 323.13 552.87 331.19 547.01 339.24 541.42 347.22 536.73 355.25 532.66 363.21 529.42 371.07 527.49 378.95 526.64 386.73 526.97 394.35 528.84 401.98 531.96 409.45 536.33 416.72 542.14 423.98 548.84 430.85 556.23 437.31 564.54 443.74 573.11 449.75 581.69 455.31 590.57 460.83 599.04 465.87 606.89 470.44 614.45 474.95 621.06 478.96 626.57 482.46 634.48 494.86 618.51 500.53 608.39 500.67 600.82 500.86 592.64 500.86 583.99 500.77 575 500.99 565.71 501.23 556.23 501.57 546.59 502.39 536.9 503.44 527.24 504.79 517.54 506.76 507.95 509.15 498.55 512 489.17 515.58 480.01 519.7 471.12 524.36 462.27 529.78 453.7 535.75 445.42 542.23 437.19 549.38 429.25 556.96 421.61 564.88 414 573.28 406.68 581.84 399.66 590.44 392.65 599.2 386.07 607.56 379.92 615.39 373.75 623.04 367.98 629.94 362.59 636.01 354.62 643.95 340.3 653.85 333.84 655.63 327.49 655.32 315.73 648.56 310.16 642.38 306.29 637.42 302.52 631.7 298.83 625.32 294.86 618.51 290.92 611.16 286.97 603.37 282.7 595.29 278.39 586.88 274.01 578.22 269.3 569.4 264.5 560.44 259.61 551.4 254.4 542.28 249.11 533.17 243.78 524.1 238.16 515.03 232.54 506.05 226.96 497.21 221.21 488.4 215.56 479.75 210.1 471.29 204.62 462.86 199.41 454.63 194.56 446.63 189.87 438.65 185.65 430.89 181.98 423.36 178.65 415.85 175.97 408.57 174.03 401.52 172.57 394.48 171.94 387.82 172.13 381.54 172.83 375.25 174.33 369.31 176.6 363.73 179.34 358.12 182.78 352.84 186.87 347.89 191.33 342.88 196.35 338.18 201.86 333.77 207.61 329.29 213.76 325.08 220.23 321.13 226.8 317.07 233.6 313.25 240.57 309.64 247.52 305.88 254.58 302.31 261.68 298.91 268.67 295.33 275.67 291.87 282.65 288.53 289.45 284.96 296.22 281.48 302.94 278.05 309.47 274.37 315.96 270.72 322.43 267.1 328.7 263.2 334.97 259.29 341.27 255.4 347.39 251.21 353.57 247.02 359.83 242.84 365.96 238.4 372.21 233.97 378.61 229.59 384.91 224.99 391.41 220.46 398.11 216.05 404.76 211.49 411.66 207.09 418.82 202.91 425.96 198.68 433.39 194.73 441.12 191.12"
            stroke-dasharray="0 0" transform="rotate(59, 400, 400)" opacity="0.37"></path>
        <path
            d="M444.21 196.51C451.79 192.99 459.45 189.96 467.19 187.42 474.92 185.04 482.71 183.21 490.51 181.94 498.29 180.9 506.06 180.44 513.75 180.56 521.37 180.97 528.86 181.96 536.13 183.51 543.26 185.37 550.1 187.78 556.55 190.73 562.75 193.97 568.47 197.71 573.61 201.92 578.39 206.41 582.48 211.32 585.8 216.63 588.65 222.16 590.64 228.05 591.7 234.25 592.25 240.63 591.85 247.28 590.46 254.15 588.6 261.16 585.81 268.36 582.14 275.7 578.15 283.14 573.42 290.7 568.07 298.32 562.71 306.01 556.97 313.75 551.02 321.5 545.48 329.3 540.04 337.09 534.89 344.82 530.61 352.59 526.94 360.3 524.04 367.9 522.39 375.54 521.75 383.05 522.22 390.42 524.13 397.79 527.21 405.01 531.44 412.01 537.02 419.01 543.43 425.62 550.48 431.83 558.41 438.02 566.59 443.78 574.8 449.1 583.31 454.39 591.46 459.23 599.04 463.6 606.4 467.92 612.89 471.76 618.37 475.11 627.8 487.2 614.74 493.19 605.64 493.61 598.76 494 591.26 494.24 583.27 494.41 574.91 494.89 566.22 495.41 557.31 496.04 548.21 497.13 539 498.44 529.78 500.05 520.5 502.25 511.29 504.84 502.21 507.87 493.14 511.58 484.25 515.79 475.59 520.5 466.96 525.92 458.58 531.84 450.47 538.22 442.39 545.23 434.59 552.63 427.08 560.32 419.58 568.46 412.37 576.74 405.44 585.04 398.51 593.5 392.02 601.57 385.94 609.12 379.83 616.52 374.12 623.22 368.78 629.12 360.86 636.91 346.56 646.85 340.08 648.85 333.68 648.89 321.71 643.13 316.01 637.57 312.03 633.06 308.15 627.81 304.33 621.91 300.24 615.6 296.17 608.74 292.09 601.44 287.7 593.84 283.27 585.91 278.78 577.71 273.96 569.34 269.07 560.79 264.1 552.15 258.83 543.43 253.49 534.67 248.11 525.94 242.49 517.19 236.86 508.5 231.29 499.94 225.57 491.38 219.97 482.96 214.55 474.72 209.13 466.5 203.99 458.46 199.2 450.63 194.58 442.82 190.42 435.21 186.8 427.83 183.51 420.47 180.86 413.31 178.93 406.39 177.46 399.46 176.8 392.92 176.94 386.74 177.57 380.54 178.99 374.7 181.15 369.2 183.77 363.66 187.08 358.45 191.02 353.55 195.33 348.6 200.2 343.94 205.55 339.56 211.15 335.11 217.14 330.91 223.47 326.96 229.91 322.91 236.59 319.07 243.46 315.44 250.32 311.66 257.31 308.05 264.35 304.6 271.31 300.98 278.29 297.47 285.27 294.06 292.09 290.45 298.9 286.9 305.66 283.41 312.25 279.68 318.81 275.98 325.35 272.3 331.71 268.35 338.06 264.41 344.43 260.47 350.64 256.27 356.9 252.06 363.22 247.87 369.42 243.43 375.72 239.02 382.15 234.65 388.49 230.07 394.99 225.58 401.68 221.2 408.32 216.69 415.17 212.33 422.25 208.19 429.31 204.01 436.63 200.1 444.2 196.51"
            stroke-dasharray="0 0" transform="rotate(62.27777777777778, 400, 400)" opacity="0.38"></path>
        <path
            d="M446.71 201.91C454.12 198.42 461.57 195.4 469.05 192.86 476.53 190.48 484.02 188.63 491.49 187.31 498.93 186.21 506.3 185.67 513.56 185.69 520.75 185.98 527.76 186.83 534.53 188.23 541.15 189.91 547.44 192.14 553.33 194.87 558.97 197.89 564.12 201.4 568.68 205.36 574.66 211.91 582.33 227.32 583.75 236.02 583.94 242.11 583.23 248.47 581.62 255.04 579.6 261.76 576.72 268.67 573.04 275.71 569.12 282.87 564.54 290.14 559.4 297.48 554.32 304.9 548.91 312.36 543.34 319.84 538.19 327.37 533.17 334.89 528.45 342.36 524.57 349.87 521.27 357.32 518.71 364.66 517.32 372.03 516.89 379.29 517.48 386.39 519.42 393.51 522.45 400.46 526.54 407.21 531.9 413.95 538.03 420.31 544.75 426.27 552.31 432.21 560.1 437.75 567.94 442.85 576.08 447.93 583.91 452.56 591.22 456.74 598.37 460.89 604.71 464.58 610.14 467.81 615.73 482.88 592.82 487.6 582.05 488.26 574.34 489 566.26 489.78 557.91 490.68 549.36 492.03 540.66 493.6 531.91 495.44 523.07 497.85 514.26 500.63 505.54 503.82 496.81 507.64 488.21 511.93 479.82 516.68 471.44 522.08 463.27 527.94 455.35 534.22 447.46 541.08 439.81 548.28 432.43 555.76 425.07 563.63 417.97 571.64 411.14 579.64 404.32 587.8 397.91 595.58 391.89 602.87 385.85 610.02 380.19 616.5 374.88 622.24 367.01 629.86 352.71 639.82 346.18 642.01 339.71 642.36 327.52 637.54 321.66 632.57 317.59 628.5 313.59 623.7 309.64 618.26 305.44 612.43 301.24 606.06 297.02 599.23 292.52 592.12 287.97 584.66 283.37 576.91 278.46 568.99 273.49 560.88 268.44 552.64 263.12 544.32 257.74 535.93 252.34 527.54 246.71 519.12 241.1 510.75 235.54 502.46 229.86 494.18 224.31 486.02 218.95 478 213.6 470.01 208.53 462.17 203.81 454.52 199.27 446.9 195.17 439.46 191.61 432.23 188.36 425.01 185.75 418 183.82 411.2 182.35 404.4 181.67 397.97 181.75 391.89 182.32 385.8 183.65 380.05 185.7 374.62 188.2 369.16 191.37 364.01 195.16 359.16 199.32 354.26 204.03 349.64 209.21 345.28 214.65 340.85 220.48 336.67 226.65 332.72 232.95 328.66 239.5 324.8 246.24 321.14 253.01 317.34 259.9 313.7 266.87 310.2 273.78 306.53 280.73 302.96 287.68 299.5 294.5 295.83 301.32 292.23 308.11 288.68 314.74 284.9 321.35 281.14 327.93 277.41 334.36 273.43 340.78 269.45 347.2 265.48 353.49 261.26 359.8 257.05 366.17 252.85 372.43 248.42 378.77 244.01 385.21 239.67 391.58 235.12 398.08 230.67 404.74 226.33 411.35 221.86 418.15 217.56 425.14 213.46 432.11 209.33 439.3 205.46 446.7 201.91"
            stroke-dasharray="0 0" transform="rotate(65.55555555555556, 400, 400)" opacity="0.40"></path>
        <path
            d="M448.6 207.3C455.82 203.85 463.05 200.86 470.27 198.32 477.49 195.94 484.67 194.06 491.79 192.7 498.88 191.55 505.86 190.93 512.7 190.86 519.45 191.03 525.99 191.75 532.26 193 541.26 195.53 556.9 203.52 563.21 208.87 568.42 215.03 574.69 229.6 575.54 237.87 575.42 243.66 574.46 249.72 572.67 255.99 570.53 262.41 567.61 269.02 563.96 275.77 560.14 282.63 555.73 289.61 550.83 296.66 546.03 303.79 540.96 310.98 535.77 318.17 531.02 325.43 526.41 332.67 522.1 339.87 518.6 347.11 515.66 354.29 513.42 361.37 512.29 368.48 512.04 375.47 512.75 382.31 514.71 389.17 517.68 395.86 521.65 402.35 526.79 408.83 532.64 414.95 539.04 420.67 546.23 426.38 553.65 431.69 561.12 436.59 568.9 441.46 576.4 445.91 583.44 449.93 590.36 453.91 596.55 457.47 601.9 460.59 609.89 475.76 590.16 481.32 580.34 482.34 573.27 483.32 565.79 484.35 558.02 485.51 550.03 487.1 541.85 488.9 533.58 490.97 525.21 493.57 516.82 496.52 508.48 499.85 500.11 503.77 491.84 508.12 483.73 512.89 475.63 518.26 467.7 524.05 459.99 530.22 452.3 536.92 444.83 543.94 437.6 551.18 430.4 558.8 423.42 566.53 416.7 574.25 409.98 582.11 403.66 589.6 397.71 596.62 391.74 603.52 386.12 609.79 380.84 615.36 373.01 622.81 358.69 632.76 352.1 635.11 345.55 635.76 333.12 631.81 327.1 627.4 322.92 623.74 318.8 619.37 314.73 614.38 310.41 609.02 306.09 603.11 301.76 596.76 297.15 590.12 292.49 583.12 287.79 575.83 282.8 568.36 277.75 560.68 272.64 552.85 267.28 544.93 261.88 536.92 256.46 528.89 250.84 520.82 245.24 512.76 239.72 504.77 234.09 496.78 228.6 488.88 223.3 481.11 218.03 473.35 213.04 465.73 208.4 458.28 203.93 450.85 199.91 443.59 196.4 436.52 193.21 429.46 190.63 422.59 188.72 415.93 187.25 409.26 186.54 402.95 186.57 396.97 187.7 388.14 194.15 372.03 199.3 364.68 203.3 359.83 207.84 355.24 212.85 350.91 218.12 346.5 223.78 342.32 229.78 338.36 235.92 334.29 242.33 330.42 248.93 326.73 255.58 322.9 262.36 319.22 269.24 315.67 276.08 311.95 282.97 308.34 289.88 304.82 296.68 301.1 303.49 297.45 310.27 293.84 316.93 290.01 323.56 286.21 330.17 282.43 336.65 278.42 343.11 274.41 349.57 270.42 355.91 266.19 362.28 261.97 368.67 257.77 374.97 253.35 381.34 248.97 387.78 244.64 394.16 240.14 400.65 235.72 407.26 231.43 413.84 227.02 420.56 222.76 427.45 218.72 434.32 214.64 441.36 210.82 448.59 207.31"
            stroke-dasharray="0 0" transform="rotate(68.83333333333333, 400, 400)" opacity="0.42"></path>
        <path
            d="M449.85 212.7C456.88 209.29 463.88 206.32 470.82 203.79 477.77 201.41 484.64 199.51 491.41 198.11 498.14 196.91 504.74 196.23 511.14 196.06 520.51 196.42 537.59 200.09 545.05 203.35 549.65 205.94 553.74 208.99 557.24 212.46 563.37 220.12 566.77 229.34 567.1 239.8 566.02 250.96 561.88 263.1 554.92 275.89 551.22 282.45 547 289.13 542.37 295.89 537.85 302.73 533.13 309.62 528.32 316.53 523.96 323.5 519.75 330.46 515.85 337.38 512.72 344.35 510.12 351.25 508.18 358.06 507.29 364.9 507.21 371.63 508.03 378.21 510.01 384.81 512.92 391.24 516.75 397.47 521.68 403.7 527.26 409.57 533.35 415.07 540.19 420.55 547.24 425.65 554.34 430.36 561.76 435.04 568.93 439.31 575.69 443.18 585.38 448.74 600.48 457.81 605.42 461.35 608.48 464.52 605.65 471.3 594.71 473.8 584.4 476.02 571.76 478.12 557.6 480.53 550.18 482.34 542.54 484.36 534.76 486.63 526.87 489.41 518.91 492.51 510.98 495.95 502.99 499.96 495.07 504.35 487.27 509.13 479.47 514.46 471.8 520.17 464.32 526.22 456.86 532.76 449.58 539.58 442.52 546.6 435.48 553.97 428.64 561.42 422.04 568.85 415.44 576.42 409.2 583.63 403.32 590.39 397.42 597.04 391.86 603.1 386.6 608.5 378.8 615.76 364.44 625.66 357.78 628.16 351.15 629.06 338.47 625.93 332.29 622.05 323.54 615.07 314.91 605.53 306.27 594 296.62 581.41 286.75 567.48 276.7 552.77 271.31 545.25 265.89 537.63 260.46 529.96 254.87 522.24 249.3 514.52 243.82 506.84 238.26 499.14 232.83 491.52 227.61 484 222.43 476.49 217.52 469.1 212.96 461.86 208.58 454.63 204.63 447.56 201.19 440.66 198.05 433.77 195.51 427.06 193.62 420.53 192.14 414 191.41 407.8 191.4 401.93 192.41 393.25 198.52 377.36 203.44 370.09 207.28 365.28 211.64 360.72 216.47 356.4 221.56 352.01 227.04 347.84 232.86 343.87 238.84 339.8 245.08 335.91 251.53 332.18 264.58 324.34 278.14 316.98 291.87 310.02 305.29 302.3 318.74 294.76 332.07 287.36 338.57 283.32 345.06 279.29 351.54 275.28 357.91 271.04 364.3 266.82 370.71 262.63 377.03 258.23 383.4 253.88 389.84 249.58 396.21 245.12 402.67 240.75 409.22 236.51 415.74 232.15 422.39 227.96 429.15 223.96 435.91 219.94 442.81 216.17 449.84 212.7"
            stroke-dasharray="0 0" transform="rotate(72.1111111111111, 400, 400)" opacity="0.44"></path>
        <path
            d="M450.44 218.09C457.27 214.73 464.03 211.78 470.7 209.27 477.36 206.89 483.92 204.98 490.33 203.55 503.06 201.26 515 201 525.76 202.68 535.96 205.32 544.47 209.87 550.81 216.12 556.08 223.27 558.73 231.94 558.48 241.81 557.02 252.37 552.75 263.91 545.94 276.09 538.83 288.7 530.23 301.76 521 314.93 513.56 328.34 507.23 341.73 502.99 354.78 502.32 361.34 502.41 367.8 503.31 374.12 505.31 380.45 508.16 386.63 511.85 392.61 516.57 398.6 521.89 404.23 527.68 409.51 534.17 414.78 540.86 419.67 547.61 424.19 561.94 433.18 574.87 440.63 585.41 446.55 597.41 454.65 599.51 464.66 590.19 467.69 581.1 470.3 569.67 472.85 556.65 475.73 542.72 480.17 527.97 485.56 512.99 492.14 497.78 500.78 482.75 510.86 468.28 522.23 461.06 528.6 454 535.22 447.12 542.01 440.25 549.12 433.57 556.3 427.09 563.46 420.61 570.73 414.48 577.66 408.67 584.16 402.84 590.57 397.32 596.42 392.09 601.64 381.5 611.23 371.92 617.78 363.18 621.16 354.01 622.75 345.41 621.11 337.2 616.53 328.27 610.32 319.42 601.62 310.56 590.98 300.75 579.3 290.75 566.25 280.6 552.37 269.62 538.05 258.61 523.33 247.85 508.63 236.84 493.85 226.57 479.29 217.5 465.23 213.21 458.22 209.34 451.34 205.97 444.62 202.89 437.91 200.39 431.35 198.51 424.97 196.67 415.55 197.13 398.22 199.39 390.26 204.04 379.76 211.08 370.28 220.07 361.75 230.11 352.93 241.59 344.87 254.05 337.48 266.81 329.59 280.13 322.15 293.66 315.08 306.98 307.29 320.35 299.67 333.63 292.19 346.52 283.87 359.41 275.59 372.27 267.43 384.85 258.53 397.62 249.83 410.61 241.56 417.06 237.27 423.61 233.13 430.25 229.2 436.87 225.24 443.6 221.52 450.43 218.1"
            stroke-dasharray="0 0" transform="rotate(75.38888888888889, 400, 400)" opacity="0.45"></path>
        <path
            d="M450.38 223.49C463.6 216.93 476.4 212.09 488.56 209.01 500.59 206.63 511.71 206.18 521.55 207.6 530.88 209.92 538.48 214.08 543.94 219.87 548.44 226.52 550.42 234.63 549.7 243.93 547.95 253.89 543.63 264.81 537.03 276.38 530.3 288.38 522.29 300.82 513.81 313.41 507.1 326.23 501.49 339.04 497.84 351.54 497.85 364.15 500.85 376.34 506.96 387.81 516.87 399.29 528.55 409.42 540.91 418.14 554.55 426.79 566.94 434 577.17 439.79 589.18 447.8 593.05 458.27 585.23 461.82 577.3 464.81 567.05 467.79 555.14 471.12 542.33 475.91 528.58 481.6 514.46 488.39 500.08 497.08 485.73 507.08 471.8 518.23 457.88 531 444.47 544.48 431.79 558.06 419.1 572.08 407.62 584.51 397.26 594.8 386.74 604.12 377.12 610.61 368.27 614.11 359.01 615.98 350.25 614.81 341.83 610.84 332.72 605.36 323.68 597.47 314.61 587.68 304.68 576.89 294.57 564.71 284.35 551.65 273.39 538.15 262.45 524.17 251.81 510.12 240.98 495.97 230.9 481.95 222.02 468.36 213.84 454.8 207.48 441.68 203.41 429.21 200.9 416.74 201.14 405.41 203.96 395.17 208.35 384.82 215.05 375.43 223.67 366.92 233.32 358.14 244.41 350.07 256.5 342.61 268.94 334.69 281.98 327.17 295.28 320 308.44 312.15 321.69 304.46 334.87 296.92 347.73 288.59 360.58 280.31 373.37 272.18 385.93 263.36 398.61 254.75 411.41 246.59 424.13 238.07 437.14 230.27 450.36 223.5"
            stroke-dasharray="0 0" transform="rotate(78.66666666666666, 400, 400)" opacity="0.47"></path>
        <path
            d="M449.65 228.89C462.42 222.43 474.65 217.61 486.12 214.49 497.45 212.02 507.77 211.41 516.76 212.58 525.25 214.59 532.01 218.36 536.68 223.71 540.48 229.86 541.9 237.43 540.79 246.16 538.83 255.52 534.54 265.83 528.2 276.79 521.89 288.16 514.49 299.99 506.74 311.98 500.75 324.21 495.82 336.44 492.74 348.39 493.07 360.45 496.14 372.11 502.06 383.11 511.51 394.11 522.57 403.83 534.26 412.22 547.21 420.56 559.05 427.56 568.94 433.24 580.88 441.19 586.3 452.15 579.87 456.22 573.03 459.56 563.89 462.95 553.07 466.68 541.37 471.8 528.62 477.75 515.37 484.71 501.83 493.43 488.2 503.32 474.83 514.23 461.45 526.62 448.46 539.62 436.06 552.66 423.67 566.12 412.35 578.05 402.06 587.97 391.6 597.02 381.96 603.41 373.01 607.02 363.67 609.14 354.75 608.39 346.13 605 336.88 600.19 327.66 593.08 318.42 584.1 308.39 574.17 298.21 562.85 287.95 550.61 277.05 537.91 266.2 524.68 255.69 511.29 245.06 497.78 235.19 484.33 226.51 471.21 218.53 458.11 212.31 445.39 208.3 433.22 205.79 421.06 205.93 409.95 208.54 399.87 212.67 389.68 219.03 380.38 227.26 371.91 236.51 363.17 247.19 355.08 258.88 347.57 270.98 339.61 283.7 332.03 296.71 324.77 309.67 316.88 322.76 309.14 335.78 301.54 348.57 293.22 361.33 284.96 374.01 276.87 386.5 268.14 399.05 259.64 411.64 251.59 424.16 243.23 436.86 235.56 449.64 228.89"
            stroke-dasharray="0 0" transform="rotate(81.94444444444444, 400, 400)" opacity="0.49"></path>
        <path
            d="M448.27 234.28C460.58 227.93 472.23 223.15 483.02 220 493.67 217.46 503.23 216.68 511.4 217.61 519.12 219.32 525.1 222.72 529.06 227.64 532.26 233.3 533.2 240.35 531.8 248.51 529.71 257.28 525.5 266.98 519.48 277.33 513.62 288.08 506.83 299.29 499.81 310.68 494.5 322.31 490.23 333.96 487.68 345.36 488.3 356.87 491.44 368.01 497.17 378.54 506.16 389.07 516.61 398.4 527.65 406.48 539.92 414.53 551.2 421.34 560.73 426.93 572.53 434.84 579.26 446.31 574.11 450.88 568.29 454.56 560.22 458.32 550.44 462.42 539.81 467.82 528.05 474 515.68 481.1 503 489.81 490.09 499.58 477.31 510.23 464.5 522.24 451.95 534.76 439.87 547.27 427.78 560.16 416.65 571.6 406.43 581.14 396.06 589.92 386.4 596.21 377.36 599.89 367.95 602.22 358.9 601.86 350.11 598.99 340.73 594.82 331.37 588.45 321.98 580.25 311.89 571.15 301.67 560.66 291.41 549.22 280.59 537.33 269.86 524.84 259.51 512.12 249.09 499.27 239.45 486.39 230.98 473.76 223.2 461.14 217.14 448.82 213.2 436.98 210.69 425.13 210.72 414.26 213.14 404.34 217 394.32 223.01 385.11 230.85 376.67 239.69 367.99 249.95 359.9 261.21 352.34 272.93 344.36 285.29 336.72 297.99 329.39 310.7 321.47 323.57 313.69 336.4 306.05 349.05 297.76 361.68 289.54 374.2 281.49 386.57 272.87 398.95 264.49 411.29 256.57 423.59 248.37 435.95 240.84 448.26 234.29"
            stroke-dasharray="0 0" transform="rotate(85.22222222222221, 400, 400)" opacity="0.51"></path>
        <path
            d="M446.26 239.68C458.09 233.43 469.16 228.71 479.29 225.54 489.28 222.92 498.11 222 505.53 222.7 515.17 225.65 524.1 240.12 522.77 250.99 520.62 259.18 516.56 268.27 510.89 278.01 505.5 288.14 499.33 298.74 493.02 309.53 488.37 320.55 484.72 331.62 482.66 342.48 483.55 353.43 486.73 364.07 492.27 374.14 500.82 384.21 510.69 393.16 521.09 400.96 532.69 408.74 543.41 415.37 552.55 420.89 564.15 428.79 571.97 440.77 567.97 445.81 563.1 449.8 556.03 453.9 547.25 458.33 537.66 463.98 526.88 470.35 515.37 477.55 503.56 486.23 491.39 495.84 479.21 506.23 466.99 517.84 454.91 529.88 443.15 541.87 431.39 554.22 420.46 565.17 410.32 574.34 400.06 582.83 390.41 588.99 381.28 592.72 371.83 595.24 362.68 595.23 353.73 592.84 344.26 589.27 334.79 583.58 325.29 576.13 315.17 567.83 304.94 558.15 294.71 547.49 284 536.39 273.43 524.64 263.26 512.59 253.08 500.4 243.67 488.11 235.43 475.99 227.87 463.86 221.96 451.95 218.1 440.44 215.59 428.93 215.52 418.3 217.74 408.54 221.33 398.7 227.01 389.6 234.44 381.2 242.86 372.57 252.67 364.49 263.5 356.89 274.8 348.91 286.78 341.23 299.12 333.84 311.54 325.91 324.14 318.11 336.72 310.46 349.19 302.2 361.64 294.03 373.96 286.06 386.16 277.56 398.33 269.31 410.39 261.52 422.42 253.49 434.42 246.11 446.26 239.68"
            stroke-dasharray="0 0" transform="rotate(88.5, 400, 400)" opacity="0.53"></path>
        <path
            d="M443.64 245.08C454.99 238.95 465.48 234.28 474.96 231.09 484.31 228.42 492.46 227.36 499.18 227.85 507.85 230.35 515.33 243.53 513.71 253.62 511.57 261.22 507.71 269.72 502.44 278.86 497.52 288.37 491.97 298.35 486.35 308.56 482.34 318.97 479.28 329.46 477.69 339.78 478.82 350.19 482.03 360.32 487.37 369.94 495.49 379.56 504.79 388.15 514.57 395.69 525.51 403.2 535.67 409.67 544.41 415.14 555.73 423.03 564.44 435.51 561.47 441 557.47 445.27 551.34 449.68 543.51 454.42 534.91 460.27 525.08 466.8 514.43 474.07 503.47 482.67 492.04 492.12 480.48 502.22 468.87 513.44 457.27 525 445.87 536.47 434.46 548.28 423.75 558.75 413.72 567.54 403.58 575.73 393.95 581.77 384.77 585.52 375.3 588.19 366.06 588.48 357 586.55 347.47 583.53 337.92 578.49 328.35 571.74 318.23 564.21 308.03 555.31 297.86 545.41 287.3 535.09 276.91 524.07 266.94 512.69 257.02 501.17 247.86 489.47 239.85 477.85 232.52 466.23 226.78 454.75 222.99 443.58 220.5 432.41 220.33 422.05 222.35 412.47 225.68 402.8 231.01 393.82 238.04 385.48 246.03 376.92 255.39 368.86 265.75 361.24 276.62 353.26 288.18 345.56 300.13 338.13 312.21 330.2 324.5 322.4 336.79 314.75 349.02 306.55 361.23 298.46 373.3 290.56 385.29 282.19 397.21 274.1 408.95 266.46 420.68 258.59 432.29 251.38 443.64 245.08"
            stroke-dasharray="0 0" transform="rotate(91.77777777777777, 400, 400)" opacity="0.54"></path>
        <path
            d="M440.45 250.47C451.3 244.47 461.22 239.87 470.08 236.68 482.57 233.37 500.2 235.15 504.58 240.02 506.45 244.32 506.47 249.84 504.67 256.39 502.59 263.43 498.98 271.34 494.13 279.89 489.71 288.79 484.77 298.16 479.83 307.78 476.43 317.59 473.91 327.51 472.75 337.29 474.1 347.16 477.33 356.79 482.48 365.97 490.17 375.16 498.92 383.41 508.09 390.68 518.38 397.95 527.98 404.28 536.3 409.71 547.3 417.6 556.68 430.56 554.64 436.46 551.42 440.99 546.17 445.67 539.23 450.67 531.58 456.7 522.65 463.34 512.85 470.64 502.73 479.15 492.05 488.4 481.11 498.22 470.12 509.03 459.01 520.12 447.98 531.08 436.95 542.34 426.48 552.34 416.57 560.76 406.58 568.65 397 574.53 387.79 578.29 378.33 581.08 369.05 581.65 359.9 580.12 350.34 577.6 340.75 573.17 331.15 567.1 321.08 560.29 310.94 552.14 300.87 542.98 290.49 533.41 280.3 523.12 270.56 512.41 260.91 501.54 252.03 490.44 244.26 479.35 237.16 468.23 231.59 457.19 227.89 446.38 225.41 435.57 225.16 425.47 226.98 416.08 230.05 406.62 235.03 397.76 241.65 389.48 249.21 381.01 258.1 372.98 267.98 365.36 278.39 357.4 289.5 349.7 301.02 342.25 312.72 334.34 324.65 326.56 336.61 318.94 348.56 310.81 360.49 302.8 372.26 295.01 383.99 286.79 395.61 278.84 407 271.36 418.39 263.68 429.6 256.64 440.45 250.47"
            stroke-dasharray="0 0" transform="rotate(95.05555555555557, 400, 400)" opacity="0.56"></path>
        <path
            d="M436.73 255.87C447.07 250 456.44 245.47 464.71 242.29 476.32 238.89 492.28 240.02 496.04 244.36 497.61 248.23 497.47 253.28 495.68 259.31 493.72 265.8 490.39 273.14 486 281.11 482.08 289.4 477.74 298.18 473.44 307.22 470.61 316.44 468.62 325.78 467.85 335.04 469.4 344.37 472.64 353.52 477.58 362.28 484.87 371.04 493.07 378.95 501.66 385.99 511.31 393.02 520.35 399.21 528.24 404.6 538.86 412.5 548.74 425.91 547.5 432.18 544.99 436.94 540.53 441.86 534.43 447.08 527.66 453.24 519.61 459.96 510.62 467.26 501.32 475.66 491.38 484.7 481.07 494.21 470.7 504.61 460.11 515.23 449.46 525.68 438.82 536.42 428.61 545.94 418.87 553.99 409.04 561.58 399.54 567.29 390.34 571.03 380.91 573.91 371.62 574.72 362.43 573.56 352.87 571.51 343.29 567.64 333.7 562.19 323.71 556.07 313.68 548.64 303.75 540.2 293.56 531.37 283.6 521.79 274.12 511.73 264.76 501.52 256.16 491.02 248.65 480.45 241.79 469.85 236.4 459.26 232.78 448.82 230.33 438.38 229.99 428.56 231.62 419.37 234.43 410.11 239.07 401.4 245.28 393.2 252.4 384.83 260.81 376.85 270.2 369.24 280.12 361.32 290.76 353.64 301.82 346.19 313.1 338.32 324.64 330.58 336.21 323 347.83 314.97 359.43 307.07 370.86 299.39 382.29 291.33 393.57 283.56 404.58 276.24 415.61 268.76 426.38 261.89 436.73 255.87"
            stroke-dasharray="0 0" transform="rotate(98.33333333333334, 400, 400)" opacity="0.58"></path>
        <path
            d="M432.52 261.26C442.36 255.54 451.19 251.09 458.89 247.92 476.91 244.71 488.63 254.56 486.8 262.39 485 268.35 481.99 275.13 478.05 282.53 474.63 290.24 470.88 298.42 467.2 306.89 464.91 315.52 463.4 324.32 463 333.06 464.71 341.86 467.94 350.53 472.69 358.88 479.57 367.23 487.26 374.82 495.27 381.62 504.31 388.43 512.79 394.49 520.24 399.85 530.43 407.76 540.62 421.58 540.07 428.18 538.19 433.13 534.46 438.25 529.13 443.64 523.2 449.91 515.98 456.67 507.77 463.93 499.26 472.19 490.04 480.99 480.36 490.19 470.61 500.18 460.54 510.33 450.3 520.29 440.06 530.5 430.14 539.57 420.57 547.24 410.94 554.52 401.55 560.05 392.39 563.75 383.04 566.69 373.77 567.71 364.58 566.88 355.07 565.25 345.53 561.91 335.99 557.05 326.13 551.58 316.24 544.83 306.48 537.08 296.53 528.96 286.83 520.06 277.62 510.66 268.56 501.1 260.26 491.19 253.02 481.14 246.41 471.07 241.2 460.93 237.68 450.87 235.25 440.81 234.82 431.28 236.28 422.3 238.83 413.27 243.13 404.71 248.93 396.62 255.61 388.36 263.53 380.45 272.41 372.87 281.84 365.02 291.97 357.37 302.55 349.94 313.37 342.14 324.47 334.46 335.63 326.95 346.86 319.04 358.09 311.26 369.14 303.71 380.22 295.83 391.13 288.24 401.73 281.1 412.36 273.82 422.68 267.13 432.52 261.26"
            stroke-dasharray="0 0" transform="rotate(101.61111111111111, 400, 400)" opacity="0.60"></path>
        <path
            d="M427.89 266.66C437.22 261.09 445.52 256.72 452.69 253.58 469.28 250.03 479.75 258.52 478.02 265.64 476.42 271.09 473.75 277.32 470.28 284.18 467.36 291.3 464.18 298.92 461.09 306.82 459.31 314.89 458.24 323.13 458.18 331.36 460.04 339.66 463.24 347.86 467.79 355.8 474.28 363.75 481.47 371.03 488.93 377.61 497.36 384.2 505.28 390.14 512.29 395.46 519.28 400.89 524.77 405.84 528.55 410.38 532.36 417.54 529.52 432.19 523.36 440.36 518.19 446.68 511.75 453.45 504.28 460.66 496.55 468.74 488.03 477.3 478.97 486.17 469.84 495.74 460.29 505.42 450.48 514.89 440.66 524.59 431.05 533.2 421.69 540.5 412.28 547.46 403.03 552.81 393.95 556.45 384.71 559.43 375.5 560.62 366.35 560.08 356.94 558.84 347.49 555.97 338.05 551.67 328.34 546.8 318.64 540.7 309.08 533.61 299.4 526.17 289.99 517.95 281.07 509.17 272.33 500.25 264.34 490.94 257.38 481.42 251.02 471.87 245.99 462.19 242.58 452.52 240.18 442.85 239.68 433.62 240.95 424.88 243.26 416.09 247.22 407.7 252.61 399.72 258.84 391.6 266.27 383.78 274.64 376.26 283.55 368.48 293.16 360.9 303.23 353.52 313.57 345.81 324.19 338.21 334.89 330.79 345.7 323.01 356.51 315.37 367.15 307.97 377.83 300.28 388.34 292.88 398.5 285.94 408.7 278.87 418.56 272.37 427.89 266.66"
            stroke-dasharray="0 0" transform="rotate(104.88888888888889, 400, 400)" opacity="0.61"></path>
        <path
            d="M422.9 272.06C431.72 266.64 439.5 262.37 446.18 259.26 466.21 259.02 466.87 276.87 462.72 286.05 460.29 292.62 457.65 299.67 455.12 307.03 453.82 314.54 453.16 322.25 453.39 329.99 455.38 337.78 458.55 345.52 462.89 353.08 469 360.63 475.7 367.6 482.63 373.97 490.46 380.34 497.85 386.16 504.4 391.45 511.01 396.84 516.27 401.83 519.99 406.49 523.97 413.81 522.37 428.89 517.15 437.23 512.68 443.57 506.96 450.31 500.2 457.42 493.19 465.32 485.36 473.61 476.91 482.14 468.38 491.29 459.37 500.51 449.99 509.49 440.61 518.68 431.33 526.84 422.21 533.78 413.05 540.42 403.98 545.56 395.02 549.13 385.92 552.12 376.83 553.45 367.76 553.18 358.49 552.27 349.17 549.84 339.87 546.05 330.36 541.75 320.88 536.26 311.56 529.8 302.17 523.01 293.07 515.44 284.46 507.28 276.07 498.99 268.39 490.25 261.71 481.26 255.62 472.24 250.79 463.03 247.47 453.76 245.11 444.49 244.54 435.58 245.64 427.09 247.7 418.55 251.33 410.35 256.33 402.51 262.11 394.54 269.04 386.83 276.89 379.38 285.27 371.72 294.35 364.22 303.88 356.91 313.7 349.31 323.82 341.82 334.03 334.51 344.38 326.88 354.73 319.4 364.92 312.17 375.17 304.68 385.24 297.49 394.95 290.74 404.7 283.89 414.07 277.6 422.9 272.06"
            stroke-dasharray="0 0" transform="rotate(108.16666666666667, 400, 400)" opacity="0.63"></path>
        <path
            d="M417.6 277.45C425.92 272.2 433.21 268.04 439.41 264.97 457.92 263.87 458.86 279.76 455.37 288.17 453.41 294.19 451.29 300.7 449.29 307.54 448.43 314.5 448.14 321.69 448.65 328.95 450.73 336.25 453.85 343.56 458 350.73 463.74 357.89 469.97 364.57 476.38 370.72 483.64 376.89 490.49 382.59 496.59 387.83 502.8 393.18 507.81 398.19 511.42 402.93 515.49 410.39 514.92 425.79 510.52 434.23 506.7 440.56 501.64 447.24 495.55 454.23 489.22 461.91 482.04 469.92 474.19 478.1 466.26 486.84 457.78 495.6 448.85 504.1 439.92 512.79 430.99 520.5 422.14 527.07 413.26 533.39 404.4 538.33 395.59 541.8 386.69 544.78 377.74 546.22 368.82 546.17 359.72 545.57 350.57 543.54 341.46 540.22 332.19 536.45 322.96 531.53 313.93 525.66 304.85 519.5 296.08 512.54 287.81 504.99 279.77 497.3 272.42 489.14 266.04 480.68 260.21 472.18 255.57 463.44 252.37 454.57 250.05 445.71 249.41 437.14 250.34 428.91 252.17 420.64 255.48 412.65 260.08 404.97 265.41 397.17 271.86 389.6 279.18 382.25 287.02 374.72 295.54 367.33 304.52 360.12 313.8 352.65 323.39 345.29 333.09 338.11 342.93 330.66 352.8 323.35 362.51 316.31 372.29 309.04 381.88 302.06 391.12 295.53 400.39 288.91 409.28 282.82 417.6 277.45"
            stroke-dasharray="0 0" transform="rotate(111.44444444444444, 400, 400)" opacity="0.65"></path>
        <path
            d="M412.07 282.85C419.89 277.77 426.71 273.72 432.48 270.7 449.68 268.83 451.09 282.85 448.25 290.52 446.74 296.03 445.11 302.02 443.6 308.34 443.14 314.78 443.19 321.46 443.93 328.25 446.1 335.08 449.16 341.95 453.11 348.75 458.48 355.55 464.26 361.94 470.17 367.88 476.88 373.84 483.2 379.41 488.86 384.6 494.66 389.9 499.39 394.92 502.87 399.72 506.94 407.26 507.21 422.88 503.54 431.37 500.28 437.65 495.84 444.23 490.36 451.07 484.68 458.52 478.12 466.23 470.84 474.06 463.5 482.37 455.54 490.67 447.07 498.7 438.6 506.9 430.04 514.18 421.49 520.38 412.91 526.38 404.3 531.1 395.69 534.47 387.01 537.42 378.26 538.94 369.52 539.08 360.64 538.74 351.72 537.07 342.84 534.19 333.84 530.89 324.91 526.51 316.18 521.21 307.45 515.63 299.03 509.27 291.12 502.3 283.44 495.2 276.44 487.61 270.35 479.66 264.79 471.68 260.35 463.41 257.26 454.96 254.99 446.51 254.29 438.28 255.07 430.33 256.67 422.35 259.66 414.59 263.87 407.08 268.76 399.49 274.72 392.07 281.52 384.85 288.8 377.47 296.77 370.22 305.18 363.13 313.9 355.83 322.94 348.62 332.09 341.6 341.4 334.34 350.75 327.23 359.95 320.39 369.24 313.35 378.34 306.61 387.08 300.29 395.86 293.91 404.25 288.04 412.07 282.85"
            stroke-dasharray="0 0" transform="rotate(114.72222222222221, 400, 400)" opacity="0.67"></path>
        <path
            d="M406.39 288.25C413.71 283.35 420.08 279.42 425.44 276.46 441.55 273.9 443.56 286.17 441.35 293.14 439.69 300.89 438.13 318.49 439.25 327.92 441.47 334.29 444.47 340.75 448.21 347.18 453.23 353.62 458.57 359.72 464.01 365.45 470.17 371.21 475.99 376.64 481.2 381.77 486.59 386.99 491.02 392.01 494.33 396.85 498.33 404.43 499.25 420.15 496.22 428.63 493.46 434.83 489.57 441.29 484.67 447.95 479.58 455.14 473.61 462.54 466.89 470.01 460.11 477.9 452.67 485.74 444.67 493.3 436.66 501.02 428.5 507.87 420.27 513.71 412.03 519.38 403.7 523.88 395.34 527.13 386.92 530.02 378.41 531.6 369.89 531.91 361.28 531.79 352.62 530.44 344.01 527.95 335.33 525.1 326.72 521.22 318.33 516.44 309.97 511.42 301.93 505.63 294.38 499.22 287.08 492.69 280.42 485.64 274.64 478.2 269.36 470.73 265.13 462.94 262.16 454.92 259.94 446.89 259.19 439.02 259.82 431.36 261.2 423.68 263.88 416.17 267.71 408.87 272.17 401.49 277.64 394.25 283.91 387.19 290.65 379.99 298.04 372.9 305.89 365.97 314.03 358.84 322.49 351.82 331.08 344.97 339.84 337.92 348.64 331.03 357.31 324.4 366.07 317.61 374.66 311.11 382.89 305.03 391.17 298.89 399.06 293.24 406.39 288.25"
            stroke-dasharray="0 0" transform="rotate(118, 400, 400)" opacity="0.68"></path>
        <path
            d="M400.62 293.64C410.43 287.03 425.31 278.69 430.28 277 436.04 284.14 433.64 303.06 432.63 310.91 432.86 316.36 433.48 322.08 434.61 327.98 436.86 333.9 439.77 339.95 443.32 346.03 447.99 352.11 452.91 357.93 457.89 363.45 463.53 368.99 468.85 374.29 473.62 379.33 480.65 386.96 489.7 401.88 491.22 409.45 491.55 414.84 490.66 420.36 488.61 426.01 486.29 432.1 482.9 438.4 478.52 444.86 473.98 451.78 468.56 458.85 462.38 465.95 456.14 473.42 449.21 480.8 441.68 487.91 434.15 495.15 426.39 501.57 418.52 507.05 410.65 512.4 402.63 516.66 394.55 519.79 386.43 522.6 378.21 524.21 369.96 524.65 361.65 524.73 353.3 523.66 345 521.53 336.67 519.08 328.41 515.66 320.39 511.37 312.43 506.87 304.78 501.62 297.61 495.75 290.69 489.76 284.4 483.25 278.92 476.32 273.92 469.35 269.9 462.03 267.06 454.44 264.9 446.84 264.1 439.34 264.59 431.99 265.76 424.63 268.14 417.39 271.6 410.32 275.64 403.18 280.63 396.15 286.38 389.27 292.57 382.28 299.39 375.37 306.65 368.61 314.2 361.69 322.08 354.87 330.09 348.23 338.27 341.41 346.51 334.76 354.64 328.36 362.86 321.83 370.91 315.58 378.62 309.74 386.39 303.86 393.77 298.44 400.62 293.64"
            stroke-dasharray="0 0" transform="rotate(121.27777777777779, 400, 400)" opacity="0.70"></path>
        <path
            d="M394.84 299.04C403.97 292.69 417.83 284.55 422.5 282.78 428.59 288.64 427.78 305.52 427.35 312.7 428.29 320.31 433.67 336.74 438.42 345.3 442.75 351.03 447.28 356.57 451.81 361.88 456.95 367.21 461.79 372.35 466.14 377.3 472.58 384.8 481.08 399.61 482.65 407.16 483.12 412.5 482.48 417.95 480.76 423.51 478.82 429.45 475.87 435.57 471.96 441.8 467.92 448.42 463.02 455.16 457.35 461.88 451.63 468.92 445.21 475.86 438.15 482.51 431.09 489.28 423.76 495.28 416.27 500.42 408.78 505.44 401.11 509.46 393.35 512.44 385.57 515.16 377.67 516.79 369.74 517.33 361.77 517.57 353.76 516.75 345.81 514.94 337.86 512.85 330 509.85 322.36 506.02 314.82 502.01 307.58 497.27 300.81 491.9 294.28 486.44 288.35 480.44 283.2 474.01 278.48 467.54 274.67 460.69 271.95 453.53 269.86 446.37 269.03 439.25 269.38 432.23 270.35 425.2 272.45 418.25 275.54 411.43 279.17 404.55 283.69 397.75 288.93 391.09 294.58 384.32 300.83 377.63 307.51 371.08 314.47 364.39 321.74 357.8 329.17 351.37 336.76 344.81 344.42 338.41 351.98 332.26 359.64 326 367.15 320.02 374.34 314.43 381.58 308.81 388.47 303.64 394.84 299.04"
            stroke-dasharray="0 0" transform="rotate(124.55555555555556, 400, 400)" opacity="0.72"></path>
        <path
            d="M389.13 304.43C400.96 295.92 409.56 290.7 414.92 288.63 421.37 288.2 422.91 302.27 422.2 314.82 424.45 323.95 428.17 334.22 433.52 345 442.35 355.79 451.18 366.07 458.75 375.66 467.16 385.57 472.49 395.37 474.06 405.08 474.99 415.83 471.89 427.16 465.06 438.76 457.76 451.69 447.28 464.87 434.12 477.12 420.95 489.78 406.56 499.28 391.77 505.11 376.96 510.09 361.59 511.03 346.47 508.19 331.44 504.44 316.89 497.37 303.98 487.71 292.01 477.7 282.54 465.65 276.85 452.21 273.39 438.75 274.55 425.25 279.55 412.2 286.49 398.98 296.55 385.89 308.48 373.36 321.45 360.4 335.51 347.76 349.4 336.1 363.67 324.11 377.3 313.24 389.13 304.43"
            stroke-dasharray="0 0" transform="rotate(127.83333333333333, 400, 400)" opacity="0.74"></path>
        <path
            d="M383.56 309.83C406.22 296.47 416.89 305.95 417.18 317.29 419.77 325.56 423.55 335.02 428.63 345.14 436.72 355.25 444.68 365.08 451.45 374.4 459.06 384.02 463.94 393.64 465.46 403.21 466.53 413.66 463.93 424.63 457.85 435.74 451.38 447.98 441.85 460.32 429.64 471.72 417.42 483.48 403.88 492.3 389.87 497.78 375.87 502.56 361.31 503.67 347 501.3 332.85 498.16 319.2 491.92 307.13 483.17 295.96 474.12 287.12 463.03 281.75 450.47 278.38 437.9 279.23 425.12 283.62 412.65 289.75 400.05 298.77 387.5 309.58 375.46 321.35 363.08 334.2 351.01 346.96 339.89 360.06 328.5 372.63 318.2 383.56 309.83"
            stroke-dasharray="0 0" transform="rotate(131.11111111111111, 400, 400)" opacity="0.75"></path>
        <path
            d="M378.21 315.23C399.44 302.26 411.13 309.9 412.29 320.1 415.14 327.57 418.95 336.25 423.73 345.7 431.11 355.15 438.25 364.51 444.25 373.53 451.07 382.8 455.47 392.18 456.89 401.52 458.01 411.63 455.82 422.16 450.41 432.74 444.68 444.26 436.04 455.77 424.77 466.32 413.49 477.19 400.85 485.35 387.67 490.46 374.54 495.01 360.85 496.23 347.42 494.27 334.2 491.68 321.47 486.19 310.26 478.31 299.9 470.16 291.68 460.01 286.64 448.33 283.38 436.65 283.96 424.62 287.76 412.78 293.11 400.85 301.14 388.89 310.84 377.4 321.43 365.63 333.07 354.16 344.69 343.61 356.64 332.87 368.15 323.14 378.21 315.23"
            stroke-dasharray="0 0" transform="rotate(134.38888888888889, 400, 400)" opacity="0.77"></path>
        <path
            d="M373.15 320.62C393.01 308.12 405.61 314.13 407.52 323.26 410.57 329.96 414.36 337.9 418.84 346.69 425.53 355.49 431.88 364.35 437.15 373.02 443.2 381.91 447.11 390.97 448.38 400.02 449.48 409.71 447.61 419.76 442.78 429.75 437.72 440.52 429.92 451.21 419.57 460.93 409.23 470.92 397.51 478.42 385.22 483.15 373 487.45 360.25 488.74 347.75 487.13 335.49 485.01 323.72 480.21 313.38 473.15 303.83 465.85 296.24 456.61 291.54 445.82 288.39 435.02 288.72 423.77 291.98 412.61 296.59 401.37 303.65 390.07 312.28 379.16 321.71 368.06 332.15 357.23 342.66 347.29 353.46 337.2 363.92 328.06 373.15 320.62"
            stroke-dasharray="0 0" transform="rotate(137.66666666666666, 400, 400)" opacity="0.79"></path>
        <path
            d="M368.43 326.02C386.99 314.06 400.35 318.63 402.87 326.75 406.05 332.74 409.77 339.96 413.94 348.1 419.98 356.25 425.58 364.6 430.17 372.86 435.47 381.32 438.88 390 439.97 398.69 440.98 407.89 439.36 417.4 435.06 426.77 430.58 436.78 423.55 446.63 414.12 455.53 404.69 464.66 393.92 471.51 382.56 475.87 371.3 479.89 359.53 481.2 348 479.9 336.74 478.19 325.95 474.01 316.49 467.71 307.75 461.22 300.79 452.86 296.43 442.94 293.42 433.03 293.53 422.58 296.27 412.13 300.18 401.64 306.32 391.02 313.92 380.77 322.22 370.36 331.5 360.22 340.91 350.91 350.58 341.5 360.02 332.98 368.43 326.02"
            stroke-dasharray="0 0" transform="rotate(140.94444444444443, 400, 400)" opacity="0.81"></path>
        <path
            d="M364.13 331.42C381.41 320.08 395.34 323.4 398.35 330.58 401.59 335.9 405.19 342.42 409.04 349.92 414.45 357.42 419.35 365.22 423.29 373.04 427.87 381.02 430.79 389.26 431.68 397.51 432.56 406.18 431.11 415.08 427.27 423.81 423.31 433.03 417.01 442.04 408.49 450.13 399.96 458.41 390.14 464.63 379.77 468.6 369.49 472.32 358.74 473.62 348.22 472.58 337.97 471.21 328.18 467.6 319.6 462.02 311.67 456.28 305.34 448.76 301.33 439.73 298.47 430.7 298.38 421.07 300.65 411.38 303.91 401.66 309.17 391.79 315.79 382.22 323.01 372.55 331.16 363.13 339.5 354.48 348.07 345.76 356.51 337.87 364.13 331.42"
            stroke-dasharray="0 0" transform="rotate(144.2222222222222, 400, 400)" opacity="0.82"></path>
        <path
            d="M360.3 336.81C376.31 326.17 390.57 328.43 393.93 334.74 397.17 339.42 400.62 345.28 404.15 352.14 408.95 358.99 413.18 366.22 416.52 373.54 420.42 380.99 422.86 388.73 423.53 396.47 424.24 404.55 422.93 412.81 419.51 420.84 415.99 429.27 410.38 437.45 402.74 444.74 395.09 452.19 386.25 457.77 376.88 461.35 367.61 464.75 357.9 466.01 348.42 465.18 339.2 464.1 330.4 461.01 322.71 456.1 315.59 451.06 309.88 444.36 306.23 436.21 303.53 428.05 303.29 419.27 305.11 410.37 307.77 401.46 312.21 392.36 317.89 383.53 324.08 374.63 331.15 365.95 338.47 357.99 345.97 350 353.45 342.75 360.3 336.81"
            stroke-dasharray="0 0" transform="rotate(147.5, 400, 400)" opacity="0.84"></path>
        <path
            d="M356.99 342.21C371.72 332.33 386.04 333.72 389.63 339.21 392.8 343.31 396.05 348.52 399.25 354.73 403.46 360.93 407.09 367.56 409.86 374.33 413.12 381.22 415.1 388.39 415.56 395.56 416.09 403 414.87 410.57 411.81 417.88 408.7 425.5 403.74 432.84 396.96 439.34 390.17 445.97 382.3 450.94 373.95 454.13 365.69 457.2 357.05 458.39 348.63 457.73 340.44 456.89 332.64 454.26 325.83 449.97 319.51 445.59 314.42 439.68 311.12 432.4 308.62 425.11 308.23 417.19 309.67 409.11 311.77 401.03 315.46 392.75 320.26 384.69 325.47 376.6 331.51 368.71 337.85 361.46 344.33 354.2 350.88 347.62 356.99 342.21"
            stroke-dasharray="0 0" transform="rotate(150.77777777777777, 400, 400)" opacity="0.86"></path>
        <path
            d="M354.25 347.6C365.04 338.16 372.74 334.82 377.53 336.89 383.73 339.3 389.47 346.57 394.36 357.67 402.4 368.77 407.41 381.88 407.8 394.77 408.53 408.44 403.1 422.63 391.21 433.95 379.32 445.65 363.8 451.16 348.87 450.25 334.79 448.81 322.5 441.19 316.02 428.33 312.09 415.47 315.25 400.19 322.89 385.73 331.85 371.22 343.46 357.38 354.25 347.6"
            stroke-dasharray="0 0" transform="rotate(154.05555555555554, 400, 400)" opacity="0.88"></path>
        <path
            d="M352.1 353C361.48 344.6 368.68 341.5 373.56 343.12 379.54 344.98 385.06 351.16 389.46 360.95 396.26 370.73 400.22 382.49 400.25 394.07 400.63 406.22 395.84 418.72 385.59 428.55 375.33 438.68 361.97 443.46 349.17 442.74 337.09 441.66 326.54 435.2 320.91 424.04 317.27 412.89 319.61 399.44 325.82 386.66 333.04 373.87 342.72 361.65 352.1 353"
            stroke-dasharray="0 0" transform="rotate(157.33333333333331, 400, 400)" opacity="0.89"></path>
        <path
            d="M350.59 358.4C361.88 349.68 378.11 353.49 384.56 364.53 390.18 372.98 393.21 383.29 392.95 393.47 393 404.03 388.81 414.78 380.15 423.15 371.47 431.74 360.26 435.8 349.57 435.23 339.44 434.42 330.59 429.04 325.81 419.57 322.51 410.09 324.14 398.52 329.05 387.47 334.69 376.45 342.57 365.9 350.59 358.4"
            stroke-dasharray="0 0" transform="rotate(160.61111111111111, 400, 400)" opacity="0.91"></path>
        <path
            d="M349.72 363.79C359.28 356.38 374.04 359.18 379.67 368.4 384.18 375.5 386.39 384.27 385.91 392.93 385.69 401.83 382.09 410.84 374.97 417.76 367.84 424.83 358.72 428.16 350.07 427.71 341.84 427.12 334.65 422.76 330.71 414.94 327.81 407.11 328.84 397.46 332.59 388.19 336.84 378.96 343.06 370.11 349.72 363.79"
            stroke-dasharray="0 0" transform="rotate(163.88888888888889, 400, 400)" opacity="0.93"></path>
        <path
            d="M349.51 369.19C360.15 359.28 370.13 361.03 374.77 372.51 382.42 383.98 381.38 401.51 370.12 412.36 358.85 423.59 342.47 422.59 335.6 410.19 331.43 397.77 338.85 379.45 349.51 369.19"
            stroke-dasharray="0 0" transform="rotate(167.16666666666666, 400, 400)" opacity="0.95"></path>
        <path
            d="M349.96 374.59C357.95 367.01 366.14 368.15 369.87 376.84 375.28 385.52 374 398.86 365.66 406.96 357.3 415.28 345.49 414.57 340.5 405.36 337.05 396.14 341.96 382.36 349.96 374.59"
            stroke-dasharray="0 0" transform="rotate(170.44444444444443, 400, 400)" opacity="0.96"></path>
        <path d="M351.07 379.98C357.97 395.12 344.3 389.81 351.07 379.98" stroke-dasharray="0 0"
            transform="rotate(173.72222222222223, 400, 400)" opacity="0.98"></path>
    </g>
</svg>