<svg xmlns="http://www.w3.org/2000/svg" version="1.1" xmlns:xlink="http://www.w3.org/1999/xlink"
    xmlns:svgjs="http://svgjs.dev/svgjs" viewBox="0 0 1422 1000">
    <g
        transform="matrix(-0.9902680687415703,-0.13917310096006552,0.13917310096006552,-0.9902680687415703,755.437987112602,623.7764678806543)">
        <circle r="350" cx="501" cy="141" stroke-width="0.5" stroke="#878787" fill="none"
            opacity="0.12"
            transform="matrix(0.9149206531360212,0.6635308066903071,1.016122327448564,1.0618712610289607,-123.09157680538624,-353.1838568473564)"></circle>
        <circle r="344.44166666666666" cx="499.6166666666667" cy="146.23333333333332"
            stroke-width="0.5" stroke="#868686" fill="none" opacity="0.13466666666666666"
            transform="matrix(0.8888618775493042,0.6385431745933368,1.034614177550774,1.0790010747982288,-124.46321591341098,-345.67568027065147)"></circle>
        <circle r="338.8833333333333" cx="498.23333333333335" cy="151.46666666666667"
            stroke-width="0.5" stroke="#858585" fill="none" opacity="0.14933333333333332"
            transform="matrix(0.8624552724651993,0.6131187429077316,1.052464596346922,1.0955496894322563,-125.6324456732184,-337.8948919246808)"></circle>
        <circle r="333.325" cx="496.85" cy="156.7" stroke-width="0.5" stroke="#848484" fill="none"
            opacity="0.16399999999999998"
            transform="matrix(0.8357159333023277,0.5872708725360655,1.0696676157207434,1.111506116294425,-126.59126025715096,-329.84781458683943)"></circle>
        <circle r="327.76666666666665" cx="495.46666666666664" cy="161.93333333333334"
            stroke-width="0.5" stroke="#838383" fill="none" opacity="0.17866666666666667"
            transform="matrix(0.8086590465940156,0.5610131968886239,1.086217606707533,1.1268596704548748,-127.33188650651903,-321.5409551779758)"></circle>
        <circle r="322.2083333333333" cx="494.0833333333333" cy="167.16666666666666"
            stroke-width="0.5" stroke="#818181" fill="none" opacity="0.19333333333333333"
            transform="matrix(0.7812998826866404,0.5343596150495749,1.1021092806980528,1.141599977349743,-127.84675474227578,-312.98073491404267)"></circle>
        <circle r="316.65" cx="492.7" cy="172.4" stroke-width="0.5" stroke="#808080" fill="none"
            opacity="0.208"
            transform="matrix(0.7536537884245259,0.5073242847827601,1.1173376904899608,1.1557169792879158,-128.12850056404534,-304.17371526906555)"></circle>
        <circle r="311.0916666666667" cx="491.31666666666666" cy="177.63333333333333"
            stroke-width="0.5" stroke="#7f7f7f" fill="none" opacity="0.22266666666666668"
            transform="matrix(0.7257361798245314,0.47992161538048145,1.1318982311866406,1.1692009418014713,-128.17007666211055,-295.1263487925517)"></circle>
        <circle r="305.5333333333333" cx="489.93333333333334" cy="182.86666666666667"
            stroke-width="0.5" stroke="#7e7e7e" fill="none" opacity="0.23733333333333334"
            transform="matrix(0.6975625347434913,0.4521662603587577,1.1457866409433675,1.182042459836085,-127.96462861874886,-285.84516226052847)"></circle>
        <circle r="299.975" cx="488.55" cy="188.1" stroke-width="0.5" stroke="#7d7d7d" fill="none"
            opacity="0.252"
            transform="matrix(0.6691483855416542,0.4240731100026132,1.1589990015608325,1.1942324637777353,-127.50553420785309,-276.33675543602203)"></circle>
        <circle r="294.4166666666667" cx="487.1666666666667" cy="193.33333333333334"
            stroke-width="0.5" stroke="#7b7b7b" fill="none" opacity="0.26666666666666666"
            transform="matrix(0.6405093117452698,0.39565728376503995,1.1715317389260886,1.2057622253121318,-126.7865224331349,-266.6076028200047)"></circle>
        <circle r="288.85833333333335" cx="485.78333333333336" cy="198.56666666666666"
            stroke-width="0.5" stroke="#7a7a7a" fill="none" opacity="0.2813333333333333"
            transform="matrix(0.6116609327114684,0.3669341225233685,1.1833816233010672,1.2166233631133665,-125.80153364555065,-256.66422973988875)"></circle>
        <circle r="283.3" cx="484.4" cy="203.8" stroke-width="0.5" stroke="#797979" fill="none"
            opacity="0.296"
            transform="matrix(0.5826189002985722,0.3379191806968564,1.194545769458868,1.2268078483583724,-124.5447694008443,-246.51321804163493)"></circle>
        <circle r="277.7416666666667" cx="483.01666666666665" cy="209.03333333333333"
            stroke-width="0.5" stroke="#787878" fill="none" opacity="0.31066666666666665"
            transform="matrix(0.5533988915449717,0.3086282182293915,1.2050216366680917,1.2363080100638597,-123.0107867614131,-236.16097398087817)"></circle>
        <circle r="272.18333333333334" cx="481.6333333333333" cy="214.26666666666665"
            stroke-width="0.5" stroke="#767676" fill="none" opacity="0.32533333333333336"
            transform="matrix(0.5240166013596889,0.2790771924412791,1.214807028525557,1.2451165402424818,-121.19436389625832,-225.61403286660996)"></circle>
        <circle r="266.625" cx="480.25" cy="219.5" stroke-width="0.5" stroke="#757575" fill="none"
            opacity="0.33999999999999997"
            transform="matrix(0.49448773522774686,0.24928224975416263,1.223900092637794,1.2532264988750803,-119.09060678780048,-214.87883060564323)"></circle>
        <circle r="261.06666666666666" cx="478.8666666666667" cy="224.73333333333335"
            stroke-width="0.5" stroke="#747474" fill="none" opacity="0.3546666666666667"
            transform="matrix(0.46482800193344703,0.21925971729320443,1.2322993201517862,1.2606313186959393,-116.69494045499408,-203.9616886774624)"></circle>
        <circle r="255.50833333333333" cx="477.48333333333335" cy="229.96666666666667"
            stroke-width="0.5" stroke="#727272" fill="none" opacity="0.3693333333333333"
            transform="matrix(0.43505310630464894,0.1890260943707215,1.2400035451354854,1.2673248097880765,-114.0030964874548,-192.86904807955952)"></circle>
        <circle r="249.95" cx="476.1" cy="235.2" stroke-width="0.5" stroke="#717171" fill="none"
            opacity="0.384"
            transform="matrix(0.4051787419811284,0.15859804385554443,1.2470119438086984,1.2733011639856948,-111.01108592811704,-181.60720006686293)"></circle>
        <circle r="244.39166666666665" cx="474.7166666666667" cy="240.43333333333334"
            stroke-width="0.5" stroke="#707070" fill="none" opacity="0.39866666666666667"
            transform="matrix(0.37522058421008425,0.12799238343243557,1.2533240336249933,1.278554959081006,-107.71530485049817,-170.1823290291341)"></circle>
        <circle r="238.83333333333331" cx="473.3333333333333" cy="245.66666666666669"
            stroke-width="0.5" stroke="#6e6e6e" fill="none" opacity="0.41333333333333333"
            transform="matrix(0.34519428267183655,0.09722607675597039,1.2589396722053539,1.2830811628327394,-104.11239137818956,-158.60068299756117)"></circle>
        <circle r="233.27499999999998" cx="471.95" cy="250.9" stroke-width="0.5" stroke="#6d6d6d"
            fill="none" opacity="0.428"
            transform="matrix(0.315115454338753,0.06631622450335084,1.2638590561243566,1.2868751367737543,-100.19938070995431,-146.86833944879112)"></circle>
        <circle r="227.71666666666667" cx="470.56666666666666" cy="256.1333333333333"
            stroke-width="0.5" stroke="#6c6c6c" fill="none" opacity="0.44266666666666665"
            transform="matrix(0.284999676370411,0.035280055330676574,1.2680827195497242,1.2899326398152564,-95.97355561263407,-134.9913969663246)"></circle>
        <circle r="222.15833333333333" cx="469.18333333333334" cy="261.3666666666667"
            stroke-width="0.5" stroke="#6a6a6a" fill="none" opacity="0.4573333333333333"
            transform="matrix(0.2548624790479922,0.004134916737267069,1.2716115327361521,1.292249831645242,-91.43265395998651,-122.9757791287388)"></circle>
        <circle r="216.6" cx="467.8" cy="266.6" stroke-width="0.5" stroke="#696969" fill="none"
            opacity="0.472"
            transform="matrix(0.22471933875088146,-0.027101734157314872,1.2744467003743871,1.2938232759188801,-86.57467677511983,-110.82736606981794)"></circle>
        <circle r="211.04166666666666" cx="466.4166666666667" cy="271.83333333333337"
            stroke-width="0.5" stroke="#676767" fill="none" opacity="0.48666666666666664"
            transform="matrix(0.19458567097841772,-0.05841233991884365,1.2765897597965745,1.2946499432386567,-81.39792526711,-98.55201431228602)"></circle>
        <circle r="205.48333333333332" cx="465.0333333333333" cy="277.06666666666666"
            stroke-width="0.5" stroke="#666666" fill="none" opacity="0.5013333333333333"
            transform="matrix(0.1644768234197227,-0.08977925218185279,1.2780425790389789,1.2947272139222046,-75.90115797587697,-86.15535628755151)"></circle>
        <circle r="199.92499999999998" cx="463.65" cy="282.3" stroke-width="0.5" stroke="#646464"
            fill="none" opacity="0.516"
            transform="matrix(0.1344080690745102,-0.1211847411060919,1.2788073547632148,1.2940528805558578,-70.0833702352599,-73.64305089448533)"></circle>
        <circle r="194.36666666666667" cx="462.26666666666665" cy="287.5333333333333"
            stroke-width="0.5" stroke="#636363" fill="none" opacity="0.5306666666666666"
            transform="matrix(0.10439459942774909,-0.15261100490116586,1.2788866100372036,1.292625150332065,-63.943909265878915,-61.02060825771727)"></circle>
        <circle r="188.80833333333334" cx="460.8833333333333" cy="292.76666666666665"
            stroke-width="0.5" stroke="#616161" fill="none" opacity="0.5453333333333333"
            transform="matrix(0.07445151768102709,-0.18404017941445516,1.278283191977125,1.2904426471689212,-57.4825825912576,-48.293427683910295)"></circle>
        <circle r="183.25" cx="459.5" cy="298" stroke-width="0.5" stroke="#606060" fill="none"
            opacity="0.56"
            transform="matrix(0.04459383204343759,-0.21545434777736971,1.2770002692516829,1.287504413610173,-50.699441631869206,-35.46680029717078)"></circle>
        <circle r="177.69166666666666" cx="458.1166666666667" cy="303.23333333333335"
            stroke-width="0.5" stroke="#5e5e5e" fill="none" opacity="0.5746666666666667"
            transform="matrix(0.014836449084774217,-0.2468355501049555,1.2750413294500766,1.2838099125041735,-43.594865157241145,-22.545955090310514)"></circle>
        <circle r="172.13333333333333" cx="456.73333333333335" cy="308.4666666666667"
            stroke-width="0.5" stroke="#5c5c5c" fill="none" opacity="0.5893333333333333"
            transform="matrix(-0.014805832846210065,-0.2781657932438284,1.2724101763151159,1.2793590284603742,-36.169720097989,-9.535883592372556)"></circle>
        <circle r="166.575" cx="455.35" cy="313.7" stroke-width="0.5" stroke="#5b5b5b" fill="none"
            opacity="0.604"
            transform="matrix(-0.04431833013574149,-0.3094270605633717,1.2691109268429712,1.2741520690820503,-28.425033779980026,3.5583791104106695)"></circle>
        <circle r="161.01666666666665" cx="453.9666666666667" cy="318.93333333333334"
            stroke-width="0.5" stroke="#595959" fill="none" opacity="0.6186666666666667"
            transform="matrix(-0.07368648034848768,-0.3406013217851119,1.2651480082511217,1.2681897659740748,-20.362338130094713,16.732082762332425)"></circle>
        <circle r="155.45833333333331" cx="452.5833333333333" cy="324.16666666666663"
            stroke-width="0.5" stroke="#575757" fill="none" opacity="0.6333333333333333"
            transform="matrix(-0.10289584859786671,-0.37167054284514195,1.2605261548160975,1.261473275524671,-11.983398029558998,29.98041554958843)"></circle>
        <circle r="149.89999999999998" cx="451.2" cy="329.4" stroke-width="0.5" stroke="#555555"
            fill="none" opacity="0.648"
            transform="matrix(-0.1319321338405941,-0.40261669578444514,1.2552504045826838,1.2540041794601846,-3.2903982160591454,43.29884581641477)"></circle>
        <circle r="144.34166666666667" cx="449.81666666666666" cy="334.6333333333333"
            stroke-width="0.5" stroke="#545454" fill="none" opacity="0.6626666666666666"
            transform="matrix(-0.16078117509287126,-0.433421768661938,1.2493260959462997,1.2457844851720423,5.714127430288158,56.682939091117305)"></circle>
        <circle r="138.78333333333333" cx="448.43333333333334" cy="339.8666666666667"
            stroke-width="0.5" stroke="#525252" fill="none" opacity="0.6773333333333333"
            transform="matrix(-0.1894289575656763,-0.4640677754850361,1.2427588641103187,1.2368166258151723,15.027404566861719,70.12832541531321)"></circle>
        <circle r="133.225" cx="447.05" cy="345.1" stroke-width="0.5" stroke="#505050" fill="none"
            opacity="0.692"
            transform="matrix(-0.21786161871663595,-0.49453676615251513,1.2355546374201438,1.2271034601772848,24.646178323586412,83.6308597929858)"></circle>
        <circle r="127.66666666666666" cx="445.6666666666667" cy="350.33333333333337"
            stroke-width="0.5" stroke="#4e4e4e" fill="none" opacity="0.7066666666666667"
            transform="matrix(-0.24606545421602039,-0.5248108364044404,1.2277196335759186,1.2166482723185237,34.56697911050975,97.18648451435905)"></circle>
        <circle r="122.10833333333332" cx="444.2833333333333" cy="355.56666666666666"
            stroke-width="0.5" stroke="#4c4c4c" fill="none" opacity="0.7213333333333333"
            transform="matrix(-0.2740269238244226,-0.5548721377738963,1.219260355725778,1.2054547709811332,44.78593017626565,110.79124154583309)"></circle>
        <circle r="116.54999999999998" cx="442.9" cy="360.8" stroke-width="0.5" stroke="#4a4a4a"
            fill="none" opacity="0.736"
            transform="matrix(-0.3017326571797425,-0.5847028875352674,1.210183588441618,1.1935270887688794,55.29881483316797,124.44137148506059)"></circle>
        <circle r="110.99166666666665" cx="441.51666666666665" cy="366.0333333333333"
            stroke-width="0.5" stroke="#484848" fill="none" opacity="0.7506666666666667"
            transform="matrix(-0.32916945949112236,-0.6142853786437775,1.200496393579398,1.1808697810961144,66.10119827209536,138.13321308596392)"></circle>
        <circle r="105.43333333333334" cx="440.1333333333333" cy="371.26666666666665"
            stroke-width="0.5" stroke="#464646" fill="none" opacity="0.7653333333333333"
            transform="matrix(-0.3563243171375433,-0.6436019896610221,1.1902061060260323,1.1674878249064633,77.18821658219065,151.8632769542569)"></circle>
        <circle r="99.875" cx="438.75" cy="376.5" stroke-width="0.5" stroke="#444444" fill="none"
            opacity="0.78"
            transform="matrix(-0.3831844031688161,-0.6726351946611953,1.1793203293349905,1.153386617161254,88.55467665203037,165.6281920978763)"></circle>
        <circle r="94.31666666666666" cx="437.3666666666667" cy="381.73333333333335"
            stroke-width="0.5" stroke="#414141" fill="none" opacity="0.7946666666666666"
            transform="matrix(-0.40973708270676656,-0.7013675731127307,1.1678469312527535,1.138571973097924,100.19515429051575,179.4247201767446)"></circle>
        <circle r="88.75833333333333" cx="435.98333333333335" cy="386.9666666666667"
            stroke-width="0.5" stroke="#3f3f3f" fill="none" opacity="0.8093333333333333"
            transform="matrix(-0.4359699182444436,-0.7297818197300671,1.1557940391383283,1.1230501242587558,112.10392247140771,193.24979333167607)"></circle>
        <circle r="83.19999999999999" cx="434.6" cy="392.2" stroke-width="0.5" stroke="#3c3c3c"
            fill="none" opacity="0.824"
            transform="matrix(-0.4618706748412381,-0.7578607542902579,1.143170035278061,1.1068277162904132,124.27481338917727,207.1004667502355)"></circle>
        <circle r="77.64166666666665" cx="433.2166666666667" cy="397.43333333333334"
            stroke-width="0.5" stroke="#3a3a3a" fill="none" opacity="0.8386666666666667"
            transform="matrix(-0.48742732521184456,-0.7855873314091478,1.129983552098035,1.0899118065148812,136.7014917436978,220.97388768076576)"></circle>
        <circle r="72.08333333333331" cx="431.8333333333333" cy="402.6666666666667"
            stroke-width="0.5" stroke="#373737" fill="none" opacity="0.8533333333333333"
            transform="matrix(-0.5126280547070454,-0.8129446502718515,1.1162434672763788,1.0723098612725166,149.37728514257614,234.86743424671954)"></circle>
        <circle r="66.52499999999998" cx="430.45" cy="407.9" stroke-width="0.5" stroke="#343434"
            fill="none" opacity="0.868"
            transform="matrix(-0.5374612661843517,-0.8399159643122807,1.1019588987578495,1.0540297530380491,162.29531062575825,248.7785138646571)"></circle>
        <circle r="60.96666666666664" cx="429.06666666666666" cy="413.1333333333333"
            stroke-width="0.5" stroke="#313131" fill="none" opacity="0.8826666666666666"
            transform="matrix(-0.5619155847665807,-0.8664846908364809,1.0871391996730948,1.0350797573104908,175.44824459622146,262.7047947659997)"></circle>
        <circle r="55.4083333333333" cx="427.68333333333334" cy="418.3666666666667"
            stroke-width="0.5" stroke="#2e2e2e" fill="none" opacity="0.8973333333333333"
            transform="matrix(-0.5859798624865036,-0.8926344205845543,1.0717939531650433,1.015468549278024,188.82861267902916,276.64395928002295)"></circle>
        <circle r="49.849999999999966" cx="426.3" cy="423.6" stroke-width="0.5" stroke="#2b2b2b"
            fill="none" opacity="0.912"
            transform="matrix(-0.6096431828157569,-0.9183489272259728,1.0559329671248923,0.9952052002590663,202.42868204242973,290.59397243051865)"></circle>
        <circle r="44.29166666666663" cx="424.9166666666667" cy="428.8333333333333"
            stroke-width="0.5" stroke="#272727" fill="none" opacity="0.9266666666666666"
            transform="matrix(-0.632894865076245,-0.9436121767830993,1.0395662688402183,0.9742991739208294,216.24036887555576,304.552673515081)"></circle>
        <circle r="38.73333333333335" cx="423.5333333333333" cy="434.06666666666666"
            stroke-width="0.5" stroke="#232323" fill="none" opacity="0.9413333333333334"
            transform="matrix(-0.6557244687323379,-0.9684083369777668,1.0227040995577559,0.9527603222767964,230.25541683486273,318.5183065907069)"></circle>
        <circle r="33.17500000000001" cx="422.15" cy="439.3" stroke-width="0.5" stroke="#1e1e1e"
            fill="none" opacity="0.956"
            transform="matrix(-0.6781217975622081,-0.9927217864957948,1.0053569089634278,0.9305988814646767,244.46534363912696,332.48906708914257)"></circle>
        <circle r="27.616666666666674" cx="420.76666666666665" cy="444.53333333333336"
            stroke-width="0.5" stroke="#191919" fill="none" opacity="0.9706666666666667"
            transform="matrix(-0.7000769037067078,-1.0165371241643448,0.9875353495822468,0.9078254673065054,258.8612858780268,346.4633911649388)"></circle>
        <circle r="22.058333333333337" cx="419.3833333333333" cy="449.76666666666665"
            stroke-width="0.5" stroke="#111111" fill="none" opacity="0.9853333333333333"
            transform="matrix(-0.7215800915942496,-1.039839178037063,0.9692502711007315,0.8844510706526663,273.4343566651627,360.4397269323116)"></circle>
        <circle r="16.5" cx="418" cy="455" stroke-width="0.5" stroke="#000000" fill="none"
            opacity="1"
            transform="matrix(-0.7426219217402034,-1.0626130143819867,0.9505127146145166,0.8604870525117492,288.17530657128054,374.4167479409332)"></circle>
    </g>
</svg>