<svg xmlns="http://www.w3.org/2000/svg" version="1.1" xmlns:xlink="http://www.w3.org/1999/xlink"
    xmlns:svgjs="http://svgjs.dev/svgjs" viewBox="0 0 800 800">
    <g
        transform="matrix(0.9961946980917455,0.08715574274765817,-0.08715574274765817,0.9961946980917455,257.384417862365,-141.3401763357615)">
        <circle r="350" cx="5" cy="468" stroke-width="0.5" stroke="#ffffff" fill="none"
            opacity="0.01"
            transform="matrix(0.9563047559630354,0.29237170472273677,-0.29237170472273677,0.9563047559630354,160.9625734523609,-117.0257274913888)"></circle>
        <circle r="348.3666666666667" cx="9.016666666666666" cy="473.53333333333336"
            stroke-width="0.5" stroke="#fdfdfd" fill="none" opacity="0.020833333333333336"
            transform="matrix(0.9551017703429221,0.3200835388506792,-0.29656698258843867,0.9474607780257508,165.49751143780546,-120.7602305650662)"></circle>
        <circle r="346.73333333333335" cx="13.033333333333333" cy="479.06666666666666"
            stroke-width="0.5" stroke="#fbfbfb" fill="none" opacity="0.03166666666666667"
            transform="matrix(0.9540438777573569,0.34757534358420844,-0.3008088791943036,0.9379408926919849,170.01549035486914,-124.17369687583971)"></circle>
        <circle r="345.1" cx="17.05" cy="484.6" stroke-width="0.5" stroke="#f9f9f9" fill="none"
            opacity="0.0425"
            transform="matrix(0.9531306288159525,0.37483493272922974,-0.30509951970067284,0.9277490141992982,174.51389947847954,-127.25758556094189)"></circle>
        <circle r="343.46666666666664" cx="21.066666666666666" cy="490.1333333333333"
            stroke-width="0.5" stroke="#f7f7f7" fill="none" opacity="0.05333333333333334"
            transform="matrix(0.9523616948990878,0.401850156738934,-0.30944107261046744,0.9168891709916075,178.9903023044736,-130.0033620236544)"></circle>
        <circle r="341.8333333333333" cx="25.083333333333332" cy="495.6666666666667"
            stroke-width="0.5" stroke="#f4f4f4" fill="none" opacity="0.06416666666666666"
            transform="matrix(0.9517368678926863,0.42860890336968105,-0.31383575292122456,0.9053655050897857,183.4424344964162,-132.40249243956265)"></circle>
        <circle r="340.2" cx="29.1" cy="501.2" stroke-width="0.5" stroke="#f2f2f2" fill="none"
            opacity="0.075"
            transform="matrix(0.9512560601740555,0.4550990982697311,-0.3182858253822214,0.8931822713100953,187.86820595126855,-134.44645294813887)"></circle>
        <circle r="338.56666666666666" cx="33.11666666666667" cy="506.73333333333335"
            stroke-width="0.5" stroke="#f0f0f0" fill="none" opacity="0.08583333333333333"
            transform="matrix(0.9509193048496021,0.481308705494113,-0.32279360786659816,0.8803438363313494,192.26570353153076,-136.12672612471027)"></circle>
        <circle r="336.93333333333334" cx="37.13333333333333" cy="512.2666666666667"
            stroke-width="0.5" stroke="#eeeeee" fill="none" opacity="0.09666666666666666"
            transform="matrix(0.9507267562462156,0.5072257279387422,-0.3273614748688848,0.8668546776114124,196.633189554025,-137.43480169752195)"></circle>
        <circle r="335.3" cx="41.15" cy="517.8" stroke-width="0.5" stroke="#ececec" fill="none"
            opacity="0.1075"
            transform="matrix(0.9506786906591222,0.5328382076866943,-0.33199186113888557,0.8527193821533634,200.96911499572286,-138.36218195513828)"></circle>
        <circle r="333.6666666666667" cx="45.166666666666664" cy="523.3333333333334"
            stroke-width="0.5" stroke="#e9e9e9" fill="none" opacity="0.11833333333333333"
            transform="matrix(0.9507755073600292,0.5581342262593144,-0.3366872654634837,0.8379426451213584,205.27210510822175,-138.90037577707312)"></circle>
        <circle r="332.03333333333336" cx="49.18333333333333" cy="528.8666666666667"
            stroke-width="0.5" stroke="#e7e7e7" fill="none" opacity="0.12916666666666668"
            transform="matrix(0.9510177298704352,0.5831019047645815,-0.3414502546085965,0.8225292683059379,209.54097008962756,-139.0409068519716)"></circle>
        <circle r="330.4" cx="53.2" cy="534.4" stroke-width="0.5" stroke="#e5e5e5" fill="none"
            opacity="0.14"
            transform="matrix(0.9514060075060629,0.6077294039348689,-0.34628346743425403,0.8064841584382261,213.77471284180956,-138.7752994451899)"></circle>
        <circle r="328.76666666666665" cx="57.21666666666667" cy="539.9333333333334"
            stroke-width="0.5" stroke="#e2e2e3" fill="none" opacity="0.15083333333333335"
            transform="matrix(0.9519411171995013,0.6320049240459231,-0.35118961919658453,0.7898123253521689,217.97251061482785,-138.09509390630615)"></circle>
        <circle r="327.1333333333333" cx="61.233333333333334" cy="545.4666666666667"
            stroke-width="0.5" stroke="#e0e0e0" fill="none" opacity="0.16166666666666668"
            transform="matrix(0.9526239656093178,0.6559167047085392,-0.3561715060513833,0.7725188799936401,222.13376080289447,-136.99185179447142)"></circle>
        <circle r="325.5" cx="65.25" cy="551" stroke-width="0.5" stroke="#dedede" fill="none"
            opacity="0.17250000000000001"
            transform="matrix(0.9534555915251393,0.6794530245240294,-0.3612320097749184,0.7546090322749337,226.25802916678086,-135.45713253343126)"></circle>
        <circle r="323.8666666666667" cx="69.26666666666667" cy="556.5333333333333"
            stroke-width="0.5" stroke="#dbdbdb" fill="none" opacity="0.18333333333333335"
            transform="matrix(0.954437168579497,0.7026022005941677,-0.3663741027187031,0.7360880887728145,230.34508713418444,-133.48251019321305)"></circle>
        <circle r="322.23333333333335" cx="73.28333333333333" cy="562.0666666666666"
            stroke-width="0.5" stroke="#d9d9d9" fill="none" opacity="0.19416666666666668"
            transform="matrix(0.9555700082786103,0.7253525878758335,-0.371600853016137,0.716961450267961,234.3949063461619,-131.05956880855155)"></circle>
        <circle r="320.6" cx="77.3" cy="567.6" stroke-width="0.5" stroke="#d6d6d7" fill="none"
            opacity="0.20500000000000002"
            transform="matrix(0.9568555633657461,0.7476925783700838,-0.37691543006020467,0.6972346091232692,238.4076498277933,-128.1798942042263)"></circle>
        <circle r="318.9666666666667" cx="81.31666666666666" cy="573.1333333333333"
            stroke-width="0.5" stroke="#d4d4d4" fill="none" opacity="0.21583333333333335"
            transform="matrix(0.9582954315323478,0.7696106001348396,-0.382321110272835,0.6769131464981004,242.38372054397777,-124.83510495656776)"></circle>
        <circle r="317.3333333333333" cx="85.33333333333333" cy="578.6666666666666"
            stroke-width="0.5" stroke="#d1d1d2" fill="none" opacity="0.22666666666666668"
            transform="matrix(0.9598913594938016,0.791095116109776,-0.3878212831880584,0.6560027293951637,246.32370103130364,-121.01680030241346)"></circle>
        <circle r="315.7" cx="89.35" cy="584.2" stroke-width="0.5" stroke="#cfcfcf" fill="none"
            opacity="0.23750000000000002"
            transform="matrix(0.9616452474484939,0.8121346227413719,-0.3934194578728015,0.6345091075362895,250.2284000605258,-116.71659149756209)"></circle>
        <circle r="314.06666666666666" cx="93.36666666666666" cy="589.7333333333333"
            stroke-width="0.5" stroke="#cccccd" fill="none" opacity="0.24833333333333335"
            transform="matrix(0.9635591539407463,0.8327176483953622,-0.3991192697110019,0.612438110062909,254.09883955115788,-111.92609951718651)"></circle>
        <circle r="312.43333333333334" cx="97.38333333333333" cy="595.2666666666667"
            stroke-width="0.5" stroke="#cacaca" fill="none" opacity="0.25916666666666666"
            transform="matrix(0.9656353011502932,0.8528327515430814,-0.40492448757875843,0.5897956420565741,257.9362659933428,-106.63694451102555)"></circle>
        <circle r="310.8" cx="101.4" cy="600.8" stroke-width="0.5" stroke="#c7c7c7" fill="none"
            opacity="0.27"
            transform="matrix(0.9678760806332232,0.872468518707354,-0.4108390214404598,0.5665876808743402,261.7421526670802,-100.84074629475163)"></circle>
        <circle r="309.1666666666667" cx="105.41666666666667" cy="606.3333333333334"
            stroke-width="0.5" stroke="#c4c4c5" fill="none" opacity="0.2808333333333334"
            transform="matrix(0.9702840595417417,0.891613562152684,-0.4168669303982766,0.542820272293296,265.5182044214366,-94.52912175223764)"></circle>
        <circle r="307.5333333333333" cx="109.43333333333334" cy="611.8666666666667"
            stroke-width="0.5" stroke="#c2c2c2" fill="none" opacity="0.2916666666666667"
            transform="matrix(0.9728619873527795,0.9102565173035162,-0.42301243123007576,0.5184995264579391,269.2663627582019,-87.69368190411853)"></circle>
        <circle r="305.9" cx="113.45" cy="617.4" stroke-width="0.5" stroke="#bfbfbf" fill="none"
            opacity="0.3025"
            transform="matrix(0.9756128031383491,0.9283860398732713,-0.42927990745377465,0.49363161362346814,272.98880342354215,-80.32603575509626)"></circle>
        <circle r="304.26666666666665" cx="117.46666666666667" cy="622.9333333333334"
            stroke-width="0.5" stroke="#bcbcbc" fill="none" opacity="0.31333333333333335"
            transform="matrix(0.9785396434137206,0.9459908026856955,-0.43567391895937446,0.46822275968739957,276.68795642971463,-72.41774367844744)"></circle>
        <circle r="302.6333333333333" cx="121.48333333333333" cy="628.4666666666667"
            stroke-width="0.5" stroke="#b9b9ba" fill="none" opacity="0.3241666666666667"
            transform="matrix(0.9816458506029315,0.9630594921687997,-0.44219921225348574,0.4422792415011827,280.3665325780323,-63.960413168138075)"></circle>
        <circle r="301" cx="125.5" cy="634" stroke-width="0.5" stroke="#b6b6b7" fill="none"
            opacity="0.335"
            transform="matrix(0.9849349821649247,0.9795808045002838,-0.4488607313650742,0.41580738195271477,284.02746161275104,-54.945581284224545)"></circle>
        <circle r="299.3666666666667" cx="129.51666666666665" cy="639.5333333333333"
            stroke-width="0.5" stroke="#b3b3b4" fill="none" opacity="0.3458333333333333"
            transform="matrix(0.9884108204277537,0.9955434413818429,-0.4556636294654806,0.3888135448098109,287.6739570514751,-45.364772572352535)"></circle>
        <circle r="297.73333333333335" cx="133.53333333333333" cy="645.0666666666666"
            stroke-width="0.5" stroke="#b1b1b1" fill="none" opacity="0.3566666666666667"
            transform="matrix(0.9920773831828492,1.0109361054181132,-0.4626132812605337,0.36130412931376865,291.3095023711486,-35.209483782174345)"></circle>
        <circle r="296.1" cx="137.55" cy="650.6" stroke-width="0.5" stroke="#adadae" fill="none"
            opacity="0.36750000000000005"
            transform="matrix(0.9959389350963468,1.0257474950742325,-0.46971529621784097,0.33328556451118424,294.9378612114342,-24.471143465303157)"></circle>
        <circle r="294.4666666666667" cx="141.56666666666666" cy="656.1333333333333"
            stroke-width="0.5" stroke="#aaaaab" fill="none" opacity="0.37833333333333335"
            transform="matrix(1,1.0399662991840413,-0.4769755326981601,0.3047643033110964,298.56312812112895,-13.14120344248579)"></circle>
        <circle r="292.8333333333333" cx="145.58333333333334" cy="661.6666666666666"
            stroke-width="0.5" stroke="#a7a7a8" fill="none" opacity="0.38916666666666666"
            transform="matrix(1.0042653741302943,1.0535811909788302,-0.48440011306618896,0.2757468162533722,302.1896497517889,-1.2110056802731037)"></circle>
        <circle r="291.2" cx="149.6" cy="667.2" stroke-width="0.5" stroke="#a4a4a5" fill="none"
            opacity="0.4"
            transform="matrix(1.0087401403911076,1.0665808216042056,-0.4919954398632453,0.24623958497298004,305.82210151151975,11.328148682487893)"></circle>
        <circle r="289.56666666666666" cx="153.61666666666667" cy="672.7333333333333"
            stroke-width="0.5" stroke="#a1a1a1" fill="none" opacity="0.4108333333333334"
            transform="matrix(1.0134296837227208,1.0789538130901208,-0.49976821313221087,0.21624909534340386,309.46547391737505,24.485021533808947)"></circle>
        <circle r="287.93333333333334" cx="157.63333333333333" cy="678.2666666666667"
            stroke-width="0.5" stroke="#9d9d9e" fill="none" opacity="0.4216666666666667"
            transform="matrix(1.0183397076682315,1.0906887507363303,-0.5077254489938883,0.18578183028096096,313.125109768969,38.26846327241731)"></circle>
        <circle r="286.3" cx="161.65" cy="683.8" stroke-width="0.5" stroke="#9a9a9b" fill="none"
            opacity="0.4325"
            transform="matrix(1.0234762522376,1.101774174872489,-0.5158744995836766,0.1548442621901181,316.8066713343966,52.687393798265816)"></circle>
        <circle r="284.6666666666667" cx="165.66666666666666" cy="689.3333333333333"
            stroke-width="0.5" stroke="#979797" fill="none" opacity="0.44333333333333336"
            transform="matrix(1.028845713179734,1.1121985719487835,-0.5242230744683201,0.12344284502811914,320.5162068351886,67.75084612980515)"></circle>
        <circle r="283.0333333333333" cx="169.68333333333334" cy="694.8666666666667"
            stroke-width="0.5" stroke="#939394" fill="none" opacity="0.4541666666666667"
            transform="matrix(1.0344548627843624,1.1219503649093303,-0.5327792636745796,0.09158400596525051,324.26009778307315,83.46797559789718)"></circle>
        <circle r="281.4" cx="173.7" cy="700.4" stroke-width="0.5" stroke="#8f8f90" fill="none"
            opacity="0.465"
            transform="matrix(1.040310872348087,1.1310179027965592,-0.5415515624751576,0.05927413661493042,328.0451981715218,99.84795505502802)"></circle>
        <circle r="279.76666666666665" cx="177.71666666666667" cy="705.9333333333334"
            stroke-width="0.5" stroke="#8c8c8c" fill="none" opacity="0.47583333333333333"
            transform="matrix(1.0464213364531014,1.1393894495303982,-0.5505488980922855,0.02651958380541536,331.8786244734292,116.90027637130072)"></circle>
        <circle r="278.1333333333333" cx="181.73333333333332" cy="711.4666666666667"
            stroke-width="0.5" stroke="#888889" fill="none" opacity="0.4866666666666667"
            transform="matrix(1.0527942992228438,1.1470531718012267,-0.5597806584962228,-0.006673360137655848,335.7680955462605,134.63436953804177)"></circle>
        <circle r="276.5" cx="185.75" cy="717" stroke-width="0.5" stroke="#848485" fill="none"
            opacity="0.49750000000000005"
            transform="matrix(1.0594382827364923,1.1539971260102353,-0.5692567234948057,-0.040298467631542656,339.72159537244545,153.06004705980314)"></circle>
        <circle r="274.8666666666667" cx="189.76666666666665" cy="722.5333333333333"
            stroke-width="0.5" stroke="#808081" fill="none" opacity="0.5083333333333333"
            transform="matrix(1.0663623178040196,1.160209244184946,-0.5789874983313467,-0.07434958663629937,343.7476962295906,172.18713066258437)"></circle>
        <circle r="273.23333333333335" cx="193.78333333333333" cy="728.0666666666666"
            stroke-width="0.5" stroke="#7c7c7c" fill="none" opacity="0.5191666666666667"
            transform="matrix(1.0735759773257352,1.1656773187911826,-0.5889839500319836,-0.1088206520545561,347.85545765119184,192.0256318108315)"></circle>
        <circle r="271.6" cx="197.8" cy="733.6" stroke-width="0.5" stroke="#777778" fill="none"
            opacity="0.53"
            transform="matrix(1.0810894124852513,1.1703889863556074,-0.599257646770331,-0.14370569777526881,352.0543284653314,212.58597429228092)"></circle>
        <circle r="269.9666666666667" cx="201.81666666666666" cy="739.1333333333333"
            stroke-width="0.5" stroke="#737374" fill="none" opacity="0.5408333333333334"
            transform="matrix(1.088913392052969,1.174331709805064,-0.6098208005474447,-0.1789988694097498,356.35447894714514,233.87856618591434)"></circle>
        <circle r="268.3333333333333" cx="205.83333333333334" cy="744.6666666666667"
            stroke-width="0.5" stroke="#6e6e6f" fill="none" opacity="0.5516666666666667"
            transform="matrix(1.0970593451089492,1.1774927594201958,-0.6206863135191456,-0.21469443777295494,360.7664705117713,255.91434215169625)"></circle>
        <circle r="266.7" cx="209.85" cy="750.2" stroke-width="0.5" stroke="#69696a" fill="none"
            opacity="0.5625"
            transform="matrix(1.105539407529956,1.179859192291148,-0.63186782834122,-0.2507868131681761,365.3016072704525,278.70427975027314)"></circle>
        <circle r="265.06666666666666" cx="213.86666666666667" cy="755.7333333333333"
            stroke-width="0.5" stroke="#646465" fill="none" opacity="0.5733333333333334"
            transform="matrix(1.114366472626119,1.1814178301524143,-0.6433797829465836,-0.28727056053899735,369.97175752777974,302.2598127754703)"></circle>
        <circle r="263.43333333333334" cx="217.88333333333333" cy="761.2666666666667"
            stroke-width="0.5" stroke="#5e5e60" fill="none" opacity="0.5841666666666667"
            transform="matrix(1.123554246358775,1.1821552354619786,-0.6552374702179222,-0.3241404155587609,374.7894613781569,326.59267370813734)"></circle>
        <circle r="261.8" cx="221.9" cy="766.8" stroke-width="0.5" stroke="#59595a" fill="none"
            opacity="0.595"
            transform="matrix(1.1331173076234617,1.1820576855766591,-0.6674571030754726,-0.36139130173479866,379.76804916597894,351.7149901303906)"></circle>
        <circle r="260.1666666666667" cx="225.91666666666666" cy="772.3333333333333"
            stroke-width="0.5" stroke="#535354" fill="none" opacity="0.6058333333333333"
            transform="matrix(1.1430711741416844,1.1811111448608242,-0.6800558855635594,-0.3990183486125847,384.92155543761464,377.63925155663077)"></circle>
        <circle r="258.5333333333333" cx="229.93333333333334" cy="777.8666666666667"
            stroke-width="0.5" stroke="#4c4c4d" fill="none" opacity="0.6166666666666667"
            transform="matrix(1.1534323745731128,1.1793012345492346,-0.6930520905924293,-0.4370169111736757,390.2648054639079,404.37852814384473)"></circle>
        <circle r="256.9" cx="233.95" cy="783.4" stroke-width="0.5" stroke="#454546" fill="none"
            opacity="0.6275000000000001"
            transform="matrix(1.1642185275376236,1.176613200166458,-0.7064651450752749,-0.47538259053107984,395.8136033015099,431.9460863532046)"></circle>
        <circle r="255.26666666666665" cx="237.96666666666667" cy="788.9333333333334"
            stroke-width="0.5" stroke="#3c3c3e" fill="none" opacity="0.6383333333333334"
            transform="matrix(1.1754484283256386,1.1730318762848324,-0.7203157232957959,-0.5141112560365709,401.5845597241,460.35602178517104)"></circle>
        <circle r="253.63333333333333" cx="241.98333333333332" cy="794.4666666666667"
            stroke-width="0.5" stroke="#333335" fill="none" opacity="0.6491666666666667"
            transform="matrix(1.1871421441773724,1.1685416483800908,-0.7346258494511824,-0.5531990689266656,407.59541814587357,489.622745544552)"></circle>
        <circle r="252" cx="246" cy="800" stroke-width="0.5" stroke="#27272a" fill="none"
            opacity="0.66"
            transform="matrix(1.1993211191291,1.1631264115181126,-0.7494190104413704,-0.5926425076476083,413.864854034349,519.7616116332047)"></circle>
    </g>
</svg>