<svg xmlns="http://www.w3.org/2000/svg" version="1.1" xmlns:xlink="http://www.w3.org/1999/xlink"
    xmlns:svgjs="http://svgjs.dev/svgjs" viewBox="0 0 800 800" opacity="0.27">
    <defs>
        <linearGradient x1="50%" y1="0%" x2="50%" y2="100%" id="uundulate-grad">
            <stop stop-color="hsl(0, 0%, 80%)" stop-opacity="1" offset="45%"></stop>
            <stop stop-color="hsl(0, 0%, 0%)" stop-opacity="1" offset="100%"></stop>
        </linearGradient>
    </defs>
    <g stroke-width="0.51" stroke="url(#uundulate-grad)" fill="none">
        <path
            d="M722.5092597224125 372.58728261457986C756.9706066557301 482.24482264528467 666.8917787892775 714.5267865961994 567.5087958699564 772.2795633614949C468.12581295063524 830.0323401267906 344.2297014051396 698.112468679755 245.47094170967125 649.8006110879993C146.71218201420288 601.4887534962435 127.8243511388228 602.1039773472895 93.46674933170732 540.3826469210682C59.109147524591776 478.6613164948467 69.583536718333 462.9318592066285 80.55445303551642 353.5382250421362C91.52536935269978 244.14459087764408 79.1396731636637 37.7129641456786 146.12714765418804 15.293202931506414C213.11462214471237 -7.126558282665769 282.01472390915205 171.48710461347025 402.0943305900323 245.9233712141105C522.1739372709127 320.35963781475084 688.0479127890951 262.9297425838748 722.5092597224125 372.58728261457986C756.9706066557301 482.24482264528467 666.8917787892775 714.5267865961994 567.5087958699564 772.2795633614949 "></path>
        <path
            d="M717.6227553248369 373.0026226559012C751.5619606379526 480.998684807353 662.8479634967493 709.7612250620418 564.9707833489331 766.6389597551358C467.0936032011168 823.5166944482298 345.0747054669166 693.5956089322102 247.81229061531894 646.0157491827537C150.5498757637214 598.4358894332972 131.94822414402887 599.0417917108426 98.11119206126358 538.2556329577458C64.27415997849829 477.4694742046488 74.58984630566766 461.9783420268582 85.39453661804527 354.2421871678887C96.19922693042287 246.5060323089191 84.001192804857 43.20215749713492 149.97370556067642 21.1220896346926C215.9462183164959 -0.9579782277496633 283.80237914511065 174.94941704874788 402.0625978459776 248.25786142816628C520.3228165468446 321.56630580758474 683.6835500117213 265.00656050444945 717.6227553248369 373.0026226559012C751.5619606379526 480.998684807353 662.8479634967493 709.7612250620418 564.9707833489331 766.6389597551358 "></path>
        <path
            d="M712.7362509272613 373.4179626972227C746.153314620175 479.7525469694215 658.8041482042213 704.9956635278841 562.4327708279098 760.9983561487768C466.0613934515984 817.0010487696695 345.9197095286936 689.0787491846654 250.15363952096675 642.2308872775083C154.38756951323984 595.3830253703512 136.07209714923488 595.9796060743959 102.75563479081984 536.1286189944235C69.4391724324048 476.27763191445115 79.59615589300233 461.0248248470881 90.23462020057411 354.94614929364116C100.8730845081459 248.8674737401941 88.8627124460503 48.69135084859124 153.82026346716486 26.950976337878842C218.77781448827932 5.210601827166386 285.59003438106924 178.4117294840256 402.0308651019229 250.59235164222218C518.4716958227766 322.77297380041887 679.3191872343474 267.08337842502397 712.7362509272613 373.4179626972227C746.153314620175 479.7525469694215 658.8041482042213 704.9956635278841 562.4327708279098 760.9983561487768 "></path>
        <path
            d="M707.8497770472637 373.8333637737004C740.7446991199758 478.50647016664607 654.7603634292714 700.2301630288828 559.8947888244647 755.357813577574C465.0292142196581 810.4854641262652 346.7647441080487 684.5619504722769 252.49501894419268 638.4460864074191C158.22529378033641 592.3302223425612 140.19600067201907 592.9174814731052 107.40010803795428 534.0016660662575C74.60421540388944 475.08585065940974 84.60249599791518 460.0713687024743 95.07473430068114 355.6501724545499C105.5469726034471 251.22897620662548 93.72426260482177 54.18060523520387 157.66685189123132 32.779924076221334C221.60944117764097 11.379242917238741 287.3777201346061 181.87410295445954 401.99916287544636 252.92690289143434C516.6206056162866 323.97970282840913 674.9548549745517 269.16025738075484 707.8497770472637 373.8333637737004C740.7446991199758 478.50647016664607 654.7603634292714 700.2301630288828 559.8947888244647 755.357813577574 "></path>
        <path
            d="M702.96324213211 374.2487038150218C735.3360225846203 477.2603323287144 650.7165176191651 695.4646014947251 557.3567457858634 749.7172099712147C463.9969739525617 803.9698184477047 347.6097176522476 680.045090724732 254.83633733226225 634.6612245021735C162.0629570122768 589.277358279615 144.319843159647 589.8552958366583 112.04452024993242 531.8746521029352C79.76919734021783 473.894008369212 89.60877506767173 459.1178515227041 99.91478736563187 356.35413458030223C110.22079966359206 253.5904176379005 98.58575172843695 59.66979858666019 161.51337928014163 38.60881077940752C224.44100683184632 17.547822972154847 289.16534485298655 185.33641538973717 401.96739961381354 255.26139310549013C514.7694543746404 325.18637082124314 670.5904616795997 271.23707530132936 702.96324213211 374.2487038150218C735.3360225846203 477.2603323287144 650.7165176191651 695.4646014947251 557.3567457858634 749.7172099712147 "></path>
        <path
            d="M698.0767377345344 374.6639828211871C729.927376566843 476.0141334556265 646.6727023266369 690.6989789254112 554.8187332648401 744.0765453296995C462.9647642030433 797.4541117339877 348.4547217140247 675.5281699420309 257.17768623790994 630.8763015617718C165.90065076179525 586.2244331815127 148.44371616485307 586.7930491650552 116.68896297948874 529.7475771044567C84.9342097941244 472.70210504385796 94.6150846550064 458.16427330777753 104.75487094816077 357.05803567089845C114.89465724131509 255.95179803401925 103.44727136963024 65.15893090296026 165.35993718663002 44.43763644743751C227.2726030036298 23.716341991914703 290.95300008894515 188.7986667898586 401.93566686975885 257.5958222843898C512.9183336505724 326.3929777789209 666.226098902226 273.31383218674773 698.0767377345344 374.6639828211871C729.927376566843 476.0141334556265 646.6727023266369 690.6989789254112 554.8187332648401 744.0765453296995 "></path>
        <path
            d="M693.1902333369588 375.0793838976648C724.5187305490656 474.7680566528511 642.6288870341089 685.9334784264099 552.2807207438168 738.4360027584967C461.932554453525 790.9385270905836 349.2997257758017 671.0113712296424 259.51903514355763 627.0915006916825C169.7383445113137 583.1716301537228 152.56758917005908 583.7309245637646 121.333405709045 527.6206241762907C90.09922224803091 471.51032378881655 99.62139424234107 457.2108171631637 109.59495453068962 357.76205883180705C119.56851481903817 258.3133005004506 108.30879101082354 70.6481852895729 169.2064950931184 50.26658418577995C230.10419917541327 29.88498308198706 292.74065532490386 192.26104026029253 401.90393412570415 259.9303735336018C511.06721292650434 327.5997068069112 661.8617361248521 275.3907111424785 693.1902333369588 375.0793838976648C724.5187305490656 474.7680566528511 642.6288870341089 685.9334784264099 552.2807207438168 738.4360027584967 "></path>
        <path
            d="M688.3037289393832 375.4947239389862C719.1100845312882 473.52191881491945 638.5850717415807 681.1679168922523 549.7427082227936 732.7953991521377C460.90034470400656 784.4228814120231 350.14472983757867 666.4945114820976 261.86038404920544 623.306638786437C173.5760382608322 580.1187660907766 156.69146217526514 580.6687389273177 125.97784843860126 525.4936102129682C95.26423470193743 470.3184814986188 104.62770382967574 456.2572999833935 114.43503811321847 358.4660209575595C124.24237239676125 260.67474193172563 113.17031065201684 76.13737864102922 173.0530529996068 56.09547088896619C232.93579534719674 36.053563136903165 294.52831056086245 195.7233526955702 401.87220138164935 262.2648637476577C509.21609220243636 328.8063747997452 657.4973733474783 277.4675290630531 688.3037289393832 375.4947239389862C719.1100845312882 473.52191881491945 638.5850717415807 681.1679168922523 549.7427082227936 732.7953991521377 "></path>
        <path
            d="M683.4172245418076 375.91006398030777C713.7014385135108 472.2757809769878 634.5412564490526 676.4023553580946 547.2046957017703 727.1547955457787C459.86813495448814 777.9072357334626 350.98973389935566 661.9776517345528 264.2017329548531 619.5217768811916C177.41373201035066 577.0659020278305 160.8153351804712 577.6065532908709 130.62229116815757 523.366596249646C100.42924715584394 469.126639208421 109.63401341701041 455.30378280362333 119.27512169574737 359.169983083312C128.91622997448428 263.03618336300065 118.03183029321013 81.62657199248554 176.89961090609518 61.92435759215243C235.76739151898022 42.22214319181927 296.31596579682116 199.18566513084784 401.84046863759477 264.59935396171363C507.36497147836826 330.0130427925792 653.1330105701045 279.54434698362775 683.4172245418076 375.91006398030777C713.7014385135108 472.2757809769878 634.5412564490526 676.4023553580946 547.2046957017703 727.1547955457787 "></path>
        <path
            d="M678.530720144232 376.3254040216293C708.2927924957334 471.02964313905625 630.4974411565245 671.6367938239371 544.6666831807471 721.5141919394197C458.8359252049697 771.3915900549023 351.83473796113265 657.460791987008 266.54308186050093 615.7369149759461C181.2514257598691 574.0130379648842 164.93920818567722 574.5443676544241 135.26673389771383 521.2395822863236C105.59425960975045 467.93479691822336 114.64032300434513 454.35026562385315 124.11520527827622 359.87394520906446C133.59008755220736 265.39762479427577 122.89334993440343 87.11576534394186 180.74616881258356 67.75324429533862C238.5989876907637 48.39072324673538 298.10362103277976 202.64797756612558 401.80873589353996 266.9338441757694C505.51385075430017 331.2197107854133 648.7686477927306 281.62116490420226 678.530720144232 376.3254040216293C708.2927924957334 471.02964313905625 630.4974411565245 671.6367938239371 544.6666831807471 721.5141919394197 "></path>
        <path
            d="M673.6442157466564 376.7407440629506C702.884146477956 469.7835053011245 626.4536258639964 666.8712322897794 542.1286706597239 715.8735883330604C457.8037154554513 764.8759443763415 352.67974202290975 652.943932239463 268.8844307661486 611.9520530707006C185.08911950938761 570.9601739019381 169.06308119088328 571.4821820179772 139.9111766272701 519.1125683230014C110.75927206365697 466.7429546280257 119.6466325916798 453.39674844408296 128.95528886080513 360.5779073348168C138.2639451299304 267.7590662255508 127.75486957559679 92.60495869539824 184.59272671907195 73.58213099852486C241.43058386254717 54.55930330165148 299.89127626873835 206.1102900014032 401.7770031494854 269.2683343898252C503.6627300302323 332.4263787782472 644.4042850153568 283.6979828247768 673.6442157466564 376.7407440629506C702.884146477956 469.7835053011245 626.4536258639964 666.8712322897794 542.1286706597239 715.8735883330604 "></path>
        <path
            d="M668.7577113490808 377.15608410427217C697.4755004601785 468.53736746319305 622.4098105714681 662.1056707556218 539.5906581387005 710.2329847267014C456.7715057059329 758.3602986977812 353.52474608468674 648.4270724919182 271.2257796717963 608.167191165455C188.92681325890607 567.907309838992 173.18695419608935 568.4199963815304 144.5556193568264 516.9855543596791C115.92428451756348 465.55111233782793 124.65294217901447 452.4432312643128 133.79537244333397 361.2818694605693C142.93780270765347 270.1205076568258 132.61638921679008 98.09415204685456 188.43928462556033 79.41101770171105C244.26218003433064 60.72788335656759 301.67893150469695 209.57260243668088 401.7452704054306 271.6028246038811C501.8116093061642 333.63304677108135 640.0399222379829 285.7748007453514 668.7577113490808 377.15608410427217C697.4755004601785 468.53736746319305 622.4098105714681 662.1056707556218 539.5906581387005 710.2329847267014 "></path>
        <path
            d="M663.8712069515052 377.5714241455937C692.0668544424012 467.2912296252614 618.3659952789401 657.3401092214642 537.0526456176774 704.5923811203425C455.7392959564146 751.8446530192206 354.36975014646373 643.9102127443734 273.5671285774441 604.3823292602096C192.76450700842452 564.8544457760458 177.31082720129535 565.3578107450835 149.20006208638267 514.8585403963568C121.08929697146999 464.35927004763016 129.65925176634914 451.4897140845426 138.63545602586282 361.98583158632175C147.61166028537656 272.4819490881008 137.47790885798338 103.58334539831088 192.28584253204872 85.23990440489729C247.09377620611411 66.8964634114837 303.46658674065566 213.03491487195856 401.7135376613759 273.937314817937C499.9604885820961 334.83971476391537 635.6755594606091 287.851618665926 663.8712069515052 377.5714241455937C692.0668544424012 467.2912296252614 618.3659952789401 657.3401092214642 537.0526456176774 704.5923811203425 "></path>
        <path
            d="M658.9847025539295 377.986764186915C686.6582084246238 466.0450917873296 614.322179986412 652.5745476873066 534.514633096654 698.9517775139833C454.7070862068963 745.32900734066 355.2147542082407 639.3933529968285 275.9084774830918 600.597467354964C196.60220075794302 561.8015817130995 181.43470020650142 562.2956251086366 153.844504815939 512.7315264330346C126.2543094253765 463.1674277574325 134.6655613536838 450.5361969047724 143.47553960839173 362.6897937120741C152.28551786309959 274.8433905193758 142.33942849917668 109.0725387497672 196.13240043853716 91.06879110808353C249.9253723778976 73.0650434663998 305.25424197661425 216.49722730723624 401.6818049173212 276.2718050319928C498.1093678580281 336.0463827567494 631.3111966832353 289.92843658650054 658.9847025539295 377.986764186915C686.6582084246238 466.0450917873296 614.322179986412 652.5745476873066 534.514633096654 698.9517775139833 "></path>
        <path
            d="M654.0981981563539 378.40210422823657C681.2495624068464 464.7989539493981 610.2783646938839 647.808986153149 531.9766205756309 693.3111739076243C453.6748764573779 738.8133616620996 356.0597582700177 634.8764932492837 278.2498263887396 596.8126054497186C200.43989450746147 558.7487176501534 185.55857321170748 559.2334394721897 158.48894754549525 510.6045124697123C131.41932187928302 461.97558546723474 139.67187094101854 449.5826797250022 148.31562319092058 363.3937558378266C156.95937544082267 277.20483195065094 147.20094814036997 114.56173210122358 199.97895834502555 96.89767781126972C252.75696854968106 79.23362352131585 307.04189721257285 219.95953974251393 401.6500721732665 278.6062952460487C496.25824713396014 337.2530507495834 626.9468339058615 292.00525450707516 654.0981981563539 378.40210422823657C681.2495624068464 464.7989539493981 610.2783646938839 647.808986153149 531.9766205756309 693.3111739076243 "></path>
        <path
            d="M649.2116937587782 378.8174442695581C675.840916389069 463.5528161114664 606.2345494013558 643.0434246189914 529.4386080546076 687.6705703012652C452.64266670785946 732.2977159835391 356.9047623317947 630.3596335017389 280.5911752943873 593.0277435444732C204.27758825697993 555.6958535872072 189.6824462169135 556.1712538357428 163.1333902750515 508.47749850639C136.58433433318953 460.7837431770371 144.6781805283532 448.629162545232 153.15570677344948 364.09771796357904C161.63323301854575 279.56627338192595 152.06246778156327 120.0509254526799 203.82551625151393 102.72656451445596C255.58856472146454 85.40220357623195 308.82955244853156 223.4218521777916 401.6183394292118 280.9407854601045C494.40712640989204 338.4597187424175 622.5824711284876 294.0820724276498 649.2116937587782 378.8174442695581C675.840916389069 463.5528161114664 606.2345494013558 643.0434246189914 529.4386080546076 687.6705703012652 "></path>
        <path
            d="M644.3251893612028 379.23278431087954C670.4322703712916 462.30667827353477 602.1907341088277 638.2778630848337 526.9005955335845 682.0299666949062C451.61045695834105 725.7820703049786 357.7497663935717 625.8427737541941 282.93252420003506 589.2428816392276C208.11528200649843 552.6429895242611 193.80631922211955 553.109068199296 167.77783300460783 506.35048454306764C141.74934678709604 459.5919008868393 149.68449011568788 447.67564536546183 157.99579035597833 364.8016800893315C166.30709059626878 281.92771481320096 156.92398742275657 125.54011880413623 207.67207415800232 108.55545121764214C258.420160893248 91.57078363114806 310.61720768449015 226.8841646130693 401.5866066851571 283.2752756741604C492.55600568582395 339.66638673525154 618.2181083511138 296.1588903482243 644.3251893612028 379.23278431087954C670.4322703712916 462.30667827353477 602.1907341088277 638.2778630848337 526.9005955335845 682.0299666949062 "></path>
        <path
            d="M639.4387154812052 379.6481548697791C665.0236548710924 461.06057095318124 598.1469493338777 633.5123320682543 524.3626135301392 676.3893936061253C450.57827772640076 719.2664551439962 358.5948009729268 621.3259445242275 285.27390362326094 585.4580502515603C211.953006273595 549.5901559788931 197.93022274490374 550.0469130804273 172.4223062517422 504.2235010973236C146.91438975858068 458.4000891142198 154.69083022060067 446.72215870326977 162.8359044560853 365.505672732662C170.98097869157 284.2891867620542 161.78553758152805 131.02934267317073 211.51866258206883 114.38436843840651C261.2517875826096 97.73939420364229 312.4048934380269 230.3465075659251 401.55490445868054 285.6097964057943C490.7049154793341 340.8730852456637 613.853776091318 298.23573878637694 639.4387154812052 379.6481548697791C665.0236548710924 461.06057095318124 598.1469493338777 633.5123320682543 524.3626135301392 676.3893936061253 "></path>
        <path
            d="M634.5521805660514 380.0634643935225C659.6149783357369 459.8144025976716 594.1031035237716 628.7467400165186 521.8245704915379 670.7487594821881C449.5460374593042 712.7507789478576 359.43977451712567 616.8090542591045 287.6152220113305 581.6731578287367C215.79066950553533 546.5372613983689 202.05406523253163 546.9846969264024 177.06671846372035 502.0964566164231C152.07937169490907 457.2082163064439 159.69710929035722 445.76861100592157 167.67595752103608 366.20960434083634C175.6548057517149 286.6505976757511 166.64702670514322 136.51850550704893 215.3651899709791 120.21322462401457C264.083353236815 103.90794374098027 314.19251815640746 233.80878948362465 401.5231411970477 287.9442561022721C488.85376423768787 342.07972272091956 609.489382796366 300.31252618937344 634.5521805660514 380.0634643935225C659.6149783357369 459.8144025976716 594.1031035237716 628.7467400165186 521.8245704915379 670.7487594821881 "></path>
        <path
            d="M629.6656761684758 380.47883495242206C654.2063323179594 458.56829527731793 590.0592882312433 623.981208999939 519.2865579705147 665.1081863934071C448.5138277097859 706.2351637868751 360.28477857890266 612.2922250291377 289.95657091697825 577.8883264410692C219.62836325505384 543.4844278530007 206.1779382377377 543.9225418075335 181.71116119327667 499.96947317067895C157.24438414881558 456.01640453382424 164.7034188776919 444.8151243437295 172.51604110356493 366.9135969841668C180.32866332943797 289.01206962460424 171.50854634633652 142.00772937608338 219.21174787746747 126.04214184477894C266.91494940859843 110.0765543134745 315.98017339236605 237.27113243648046 401.4914084529929 290.2787768339061C487.0026435136199 343.2864212313317 605.1250200189922 302.3893746275262 629.6656761684758 380.47883495242206C654.2063323179594 458.56829527731793 590.0592882312433 623.981208999939 519.2865579705147 665.1081863934071 "></path>
        <path
            d="M624.7791717709002 380.8941749937435C648.797686300182 457.3221574393863 586.0154729387152 619.2156474657813 516.7485454494913 659.4675827870481C447.4816179602675 699.7195181083147 361.12978264067976 607.7753652815929 292.297919822626 574.1034645358238C223.4660570045723 540.4315637900547 210.30181124294376 540.8603561710868 186.35560392283293 497.84245920735657C162.4093966027221 454.8245622436266 169.70972846502661 443.8616071639592 177.35612468609384 367.6175591099193C185.00252090716106 291.37351105587925 176.3700659875298 147.4969227275397 223.05830578395586 131.87102854796518C269.74654558038196 116.24513436839061 317.76782862832465 240.73344487175814 401.4596757089382 292.6132670479619C485.1515227895518 344.4930892241657 600.7606572416183 304.4661925481007 624.7791717709002 380.8941749937435C648.797686300182 457.3221574393863 586.0154729387152 619.2156474657813 516.7485454494913 659.4675827870481 "></path>
        <path
            d="M619.8926978909027 381.30951503506503C643.3890707999828 456.07601960145485 581.9716881637652 614.4500859316239 514.2105634460463 653.826979180689C446.4494387283273 693.2038724297543 361.9748172200349 603.2585055340483 294.6392992458519 570.3186026305784C227.30378127166887 537.3786997271085 214.4257147657279 537.7981705346399 191.0000771699673 495.7154452440344C167.57443957420674 453.6327199534288 174.7160685699394 442.90808998418913 182.1962387862008 368.32152123567175C189.6764090024622 293.7349524871544 181.23161614630123 152.98611607899608 226.90489420802237 137.69991525115137C272.5781722697435 122.41371442330671 319.5555143818615 244.19575730703582 401.42797348246165 294.94775726201783C483.3004325830618 345.69975721699984 596.3963249818227 306.54301046867533 619.8926978909027 381.30951503506503C643.3890707999828 456.07601960145485 581.9716881637652 614.4500859316239 514.2105634460463 653.826979180689 "></path>
        <path
            d="M615.006162975749 381.72485507638646C637.9803942646272 454.8298817635231 577.927842353659 609.6845243974661 511.67252040744484 648.18637557433C445.4171984612308 686.6882267511936 362.81979076423374 598.7416457865033 296.9806176339215 566.5337407253328C231.14144450360925 534.3258356641622 218.54955725335583 534.735984898193 195.6444893819455 493.58843128071203C172.73942151053518 452.44087766323105 179.72234763969595 441.95457280441894 187.03629185115153 369.0254833614242C194.35023606260717 296.0963939184294 186.0931052699164 158.4753094304524 230.7514215969327 143.5288019543376C275.4097379239489 128.58229447822282 321.34313910024196 247.6580697423135 401.39621022082883 297.2822474760736C481.4492813414157 346.90642520983386 592.0319316868706 308.61982838924985 615.006162975749 381.72485507638646C637.9803942646272 454.8298817635231 577.927842353659 609.6845243974661 511.67252040744484 648.18637557433 "></path>
        <path
            d="M610.1196585781734 382.14022563528613C632.5717482468499 453.58377444316966 573.8840270611308 604.9189933808867 509.1345078864216 642.545802485549C444.38498871171237 680.1726115902112 363.66479482601073 594.2248165565367 299.3219665395692 562.7489093376655C234.9791382531277 531.2730021187942 222.6734302585619 531.6738297793243 200.28893211150177 491.4614478349679C177.9044339644417 451.2490658906115 184.72865722703062 441.0010861422269 191.87637543368044 369.7294760047547C199.0240936403302 298.4578658672825 190.95462491110976 163.96453329948685 234.59797950342107 149.35771917510192C278.2413340957324 134.75090505071705 323.1307943362006 251.1204126951693 401.36447747677414 299.61676820770765C479.59816061734773 348.113123720246 587.6675689094968 310.6966768274026 610.1196585781734 382.14022563528613C632.5717482468499 453.58377444316966 573.8840270611308 604.9189933808867 509.1345078864216 642.545802485549 "></path>
        <path
            d="M605.2331541805977 382.55553515902943C627.1631022290725 452.3376060876599 569.8402117686028 600.153401329151 506.59649536539837 636.9051683616118C443.35277896219395 673.6569353940727 364.5097988877877 589.7079262914137 301.66331544521694 558.9640169148419C238.81683200264615 528.22010753827 226.79730326376796 528.6116136252992 204.93337484105808 489.3344033540675C183.0694464183482 450.05719308283574 189.7349668143653 440.0475384448787 196.71645901620928 370.43340761292905C203.69795121805328 300.81927678097946 195.81614455230306 169.4536961333651 238.44453740990946 155.18657536071004C281.07293026751586 140.91945458805503 324.91844957215926 254.58269461286886 401.33274473271945 301.9512279041854C477.74703989327963 349.3197611955019 583.303206132123 312.77346423039904 605.2331541805977 382.55553515902943C627.1631022290725 452.3376060876599 569.8402117686028 600.153401329151 506.59649536539837 636.9051683616118 "></path>
        <path
            d="M600.3466497830221 382.9709057179291C621.7544562112951 451.09149876730635 565.7963964760747 595.3878703125715 504.05848284437513 631.2645952728309C442.32056921267565 667.1413202330903 365.3548029495647 585.191097061447 304.0046643508647 555.1791855271745C242.65452575216466 525.167273992902 230.92117626897397 525.5494585064306 209.57781757061434 487.20741990832335C188.23445887225472 448.8653813102161 194.74127640170002 439.0940517826866 201.5565425987382 371.1374002562595C208.37180879577636 303.18074872983266 200.67766419349635 174.94292000239955 242.29109531639784 161.0154925814744C283.90452643929933 147.08806516054926 326.70610480811786 258.04503756572467 401.30101198866475 304.28574863581935C475.89591916921154 350.526459705914 578.9388433547492 314.85031266855174 600.3466497830221 382.9709057179291C621.7544562112951 451.09149876730635 565.7963964760747 595.3878703125715 504.05848284437513 631.2645952728309 "></path>
        <path
            d="M595.4601453854466 383.3862457592505C616.3458101935177 449.8453609293747 561.7525811835465 590.6223087784139 501.5204703233519 625.6239916664717C441.28835946315724 660.6256745545297 366.1998070113417 580.6742373139023 306.3460132565124 551.3943236219291C246.4922195016831 522.1144099299559 235.04504927418003 522.4872728699836 214.2222603001706 485.0804059450011C193.39947132616123 447.6735390200183 199.7475859890347 438.14053460291643 206.39662618126704 371.841362382012C213.0456663734994 305.54219016110767 205.53918383468965 180.43211335385587 246.13765322288623 166.8443792846606C286.7361226110828 153.2566452154653 328.4937600440765 261.5073500010023 401.26927924461006 306.6202388498752C474.04479844514356 351.73312769874815 574.5744805773754 316.9271305891263 595.4601453854466 383.3862457592505C616.3458101935177 449.8453609293747 561.7525811835465 590.6223087784139 501.5204703233519 625.6239916664717 "></path>
        <path
            d="M590.5736409878709 383.80158580057196C610.9371641757402 448.59922309144304 557.7087658910184 585.8567472442563 498.98245780232855 619.9833880601127C440.2561497136388 654.1100288759692 367.0448110731188 576.1573775663574 308.6873621621602 547.6094617166835C250.32991325120156 519.0615458670097 239.16892227938604 519.4250872335369 218.86670302972692 482.9533919816788C198.56448378006775 446.48169672982067 204.75389557636936 437.18701742314624 211.2367097637959 372.54532450776446C217.71952395122247 307.9036315923827 210.40070347588295 185.9213067053122 249.98421112937461 172.67326598784683C289.5677187828663 159.42522527038142 330.28141528003516 264.96966243628 401.23754650055537 308.95472906393104C472.1936777210756 352.93979569158205 570.2101178000015 319.0039485097009 590.5736409878709 383.80158580057196C610.9371641757402 448.59922309144304 557.7087658910184 585.8567472442563 498.98245780232855 619.9833880601127 "></path>
        <path
            d="M585.6871518490843 384.2169258418935C605.528533416752 447.3530852535114 553.6649658572794 581.0911857100987 496.4444605400945 614.3427844537537C439.2239552229096 647.5943831974087 367.88983039368486 571.6405178188126 311.02872632659694 543.824599811438C254.16762225950913 516.0086818040635 243.29281054338117 516.3629015970901 223.51116101807224 480.82637801835654C203.72951149276332 445.2898544396229 209.7602204224931 436.23350024337606 216.07680860511385 373.24928663351693C222.39339678773462 310.26507302365775 215.2622383758653 191.41050005676857 253.83078429465206 178.50215269103302C292.3993302134388 165.59380532529752 332.0690857747828 268.43197487155766 401.20582901528974 311.28921927798694C470.34257225579654 354.1464636844162 565.8457702814167 321.0807664302755 585.6871518490843 384.2169258418935C605.528533416752 447.3530852535114 553.6649658572794 581.0911857100987 496.4444605400945 614.3427844537537 "></path>
        <path
            d="M580.8006474515087 384.6322658832149C600.1198873989745 446.1069474155797 549.6211505647512 576.325624175941 493.90644801907115 608.7021808473946C438.19174547339117 641.0787375188481 368.73483445546185 567.1236580712678 313.3700752322447 540.0397379061925C258.0053160090276 512.9558177411172 247.41668354858723 513.3007159606432 228.1556037476285 478.69936405503415C208.89452394666984 444.09801214942513 214.76653000982776 435.27998306360587 220.9168921876427 373.9532487592693C227.06725436545764 312.6265144549328 220.1237580170586 196.8996934082249 257.67734220114045 184.33103939421926C295.2309263852223 171.76238538021363 333.8567410107415 271.89428730683534 401.17409627123493 313.62370949204274C468.49145153172844 355.3531316772502 561.4814075040429 323.15758435085 580.8006474515087 384.6322658832149C600.1198873989745 446.1069474155797 549.6211505647512 576.325624175941 493.90644801907115 608.7021808473946 "></path>
        <path
            d="M575.9141430539331 385.04760592453636C594.7112413811972 444.8608095776482 545.5773352722231 571.5600626417835 491.3684354980479 603.0615772410356C437.15953572387275 634.5630918402877 369.57983851723884 562.6067983237228 315.71142413789244 536.254876000947C261.84300975854603 509.9029536781711 251.5405565537933 510.2385303241963 232.80004647718482 476.5723500917119C214.05953640057635 442.9061698592275 219.77283959716243 434.3264658838357 225.7569757701716 374.65721088502175C231.74111194318073 314.9879558862078 224.98527765825196 202.3888867596812 261.52390010762883 190.1599260974055C298.06252255700576 177.93096543512974 335.6443962467001 275.356599742113 401.14236352718035 315.95819970609864C466.64033080766046 356.5597996700842 557.1170447266691 325.23440227142464 575.9141430539331 385.04760592453636C594.7112413811972 444.8608095776482 545.5773352722231 571.5600626417835 491.3684354980479 603.0615772410356 "></path>
        <path
            d="M571.0276233975685 385.462976483436C589.3025801046307 443.61470225729465 541.533504720906 566.794531625204 488.8304077182356 597.4210041522547C436.1273107155653 628.0474766793053 370.42482732022677 558.0899690937563 318.0527577847511 532.4700446132797C265.6806882492755 506.8501201328031 255.66441430021024 507.17637520532753 237.44447394795202 474.4453666459676C219.2245335956938 441.71435808660783 224.7791339257081 433.3729792216436 230.5970440939114 375.36120352835235C236.4149542621147 317.349427835061 229.8467820406562 207.87811062871566 265.3704427553282 195.9888433181698C300.8941034700002 184.09957600762397 337.43203622386966 278.8189426949688 401.1106155243365 318.2927204377326C464.7891948248033 357.76649818049634 552.7526666905062 327.3112507095773 571.0276233975685 385.462976483436C589.3025801046307 443.61470225729465 541.533504720906 566.794531625204 488.8304077182356 597.4210041522547 "></path>
        <path
            d="M566.1411189999928 385.87831652475745C583.8939340868533 442.368564419363 537.4896894283779 562.0289700910463 486.2923951972124 591.7804005458955C435.09510096604697 621.5318310007449 371.26983138200376 553.5731093462114 320.39410669039887 528.6851827080342C269.5183819987939 503.797256069857 259.7882873054163 504.11418956888065 242.08891667750834 472.31835268264535C224.3895460496003 440.52251579641006 229.78544351304276 432.41946204187343 235.43712767644024 376.0651656541047C241.08881183983777 319.71086926633603 234.7083016818495 213.36730398017204 269.21700066181654 201.81773002135606C303.72569964178365 190.26815606254007 339.2196914598283 282.2812551302465 401.0788827802818 320.62721065178846C462.9380741007353 358.9731661733304 548.3883039131324 329.3880686301519 566.1411189999928 385.87831652475745C583.8939340868533 442.368564419363 537.4896894283779 562.0289700910463 486.2923951972124 591.7804005458955 "></path>
        <path
            d="M561.2546146024172 386.293656566079C578.485288069076 441.12242658143145 533.4458741358496 557.2634085568887 483.75438267618915 586.1397969395365C434.06289121652856 615.0161853221844 372.11483544378075 549.0562495986666 322.73545559604656 524.9003208027887C273.3560757483124 500.74439200691086 263.91216031062237 501.05200393243376 246.7333594070646 470.1913387193231C229.55455850350683 439.3306735062124 234.79175310037743 431.46594486210324 240.27721125896915 376.7691277798572C245.76266941756086 322.0723106976111 239.5698213230428 218.85649733162836 273.063558568305 207.64661672454224C306.5572958135671 196.43673611745618 341.00734669578696 285.7435675655242 401.0471500362271 322.9617008658443C461.0869533766672 360.1798341661645 544.0239411357585 331.4648865507265 561.2546146024172 386.293656566079C578.485288069076 441.12242658143145 533.4458741358496 557.2634085568887 483.75438267618915 586.1397969395365 "></path>
        <path
            d="M556.3681102048415 386.7089966074004C573.0766420512984 439.8762887434998 529.4020588433216 552.4978470227311 481.2163701551658 580.4991933331775C433.03068146701014 608.5005396436238 372.95983950555774 544.5393898511218 325.0768045016943 521.1154588975432C277.1937694978309 497.69152794396473 268.0360333158284 497.989818295987 251.37780213662086 468.0643247560008C234.71957095741334 438.13883121601464 239.7980626877121 430.51242768233305 245.117294841498 377.47308990560964C250.43652699528388 324.4337521288861 244.43134096423609 224.34569068308468 276.91011647479337 213.47550342772848C309.3888919853506 202.60531617237228 342.79500193174556 289.20588000080187 401.0154172921724 325.29619107990015C459.23583265259924 361.3865021589985 539.6595783583846 333.54170447130105 556.3681102048415 386.7089966074004C573.0766420512984 439.8762887434998 529.4020588433216 552.4978470227311 481.2163701551658 580.4991933331775 "></path>
        <path
            d="M551.481605807266 387.12433664872185C567.6679960335211 438.63015090556814 525.3582435507935 547.7322854885736 478.6783576341427 574.8585897268183C431.99847171749184 601.9848939650633 373.80484356733473 540.0225301035769 327.41815340734206 517.3305969922976C281.03146324734934 494.6386638810184 272.15990632103444 494.9276326595401 256.0222448661772 465.93731079267855C239.88458341131985 436.94698892581687 244.80437227504677 429.558910502563 249.9573784240269 378.17705203136205C255.11038457300697 326.7951935601612 249.29286060542938 229.834884034541 280.75667438128175 219.30439013091473C312.2204881571341 208.7738962272884 344.5826571677042 292.6681924360795 400.9836845481177 327.630681293956C457.38471192853115 362.5931701518325 535.2952155810108 335.6185223918756 551.481605807266 387.12433664872185C567.6679960335211 438.63015090556814 525.3582435507935 547.7322854885736 478.6783576341427 574.8585897268183 "></path>
        <path
            d="M546.5951166684795 387.53967669004334C562.2593652745328 437.3840130676365 521.3144435170544 542.9667239544159 476.1403603719084 569.2179861204593C430.9662772267625 595.4692482865028 374.64986288790084 535.5056703560322 329.7595175717788 513.5457350870522C284.86917225565685 491.58579981807236 276.28379458502957 491.8654470230932 260.6667028545225 463.8102968293563C245.04961112401543 435.7551466356192 249.81069712117056 428.6053933227928 254.7974772653448 378.88101415711446C259.78425740951906 329.15663499143625 254.15439550541174 235.32407738599738 284.6032475465592 225.1332768341009C315.0520995877066 214.9424762822045 346.3703276624519 296.1305048713572 400.9519670628521 329.96517150801185C455.5336064632522 363.7998381446665 530.930868062426 337.6953403124502 546.5951166684795 387.53967669004334C562.2593652745328 437.3840130676365 521.3144435170544 542.9667239544159 476.1403603719084 569.2179861204593 "></path>
        <path
            d="M541.7086122709038 387.95504724894295C556.8507192567554 436.13790574728296 517.2706282245263 538.2011929378364 473.60234785088517 563.5774130316784C429.93406747724407 588.9536331255204 375.4948669496778 530.9888411260654 332.10086647742656 509.7609036993849C288.7068660051753 488.53296627270424 280.4076675902356 488.8032919042246 265.31114558407876 461.68331338361213C250.21462357792194 434.56333486299957 254.81700670850523 427.65190666060073 259.63756084787366 379.58500680044506C264.45811498724214 331.5181069402894 259.0159151466051 240.81330125503183 288.4498054530476 230.96219405486528C317.88369575949014 221.11108685469867 348.1579828984106 299.592847824213 400.9202343187974 332.2996922396459C453.68248573918413 365.00653665507866 526.5665052850522 339.77218875060294 541.7086122709038 387.95504724894295C556.8507192567554 436.13790574728296 517.2706282245263 538.2011929378364 473.60234785088517 563.5774130316784 "></path>
        <path
            d="M536.8221078733282 388.3703720314753C551.4420732389781 434.89175265056224 513.2268129319982 533.4356161448898 471.06433532986193 557.9367941665303C428.90185772772566 582.4379721881708 376.3398710114549 526.4719661197315 334.4422153830743 505.97602653535023C292.5445597546938 485.48008695096905 284.53154059544164 485.74109100898863 269.9555883136351 459.5562841615007C255.37963603182845 433.37147731401285 259.8233162958399 426.6983742220415 264.47764443040256 380.2889536674084C269.1319725649652 333.8795331127754 263.8774347877984 246.3024793476991 292.296363359536 236.7910654992624C320.7152919312736 227.2796516508257 349.9456381343692 303.0551450007016 400.8885015747427 334.6341671949126C451.83136501511615 366.2131893891236 522.2021425076784 341.8489914123884 536.8221078733282 388.3703720314753C551.4420732389781 434.89175265056224 513.2268129319982 533.4356161448898 471.06433532986193 557.9367941665303 "></path>
        <path
            d="M531.9355882169635 388.78571207279685C546.0334119624115 433.6456148126307 509.182982380681 528.6700546107321 468.52630755004964 552.2961905601712C427.8696327194182 575.9223265096102 377.1848598144428 521.9551063721867 336.783549029933 502.1911646301048C296.3822382454232 482.4272228880229 288.65539834185864 482.67890537254175 274.6000157844023 457.4292701981784C260.5446332269459 432.1796350238151 264.8296106243855 425.7448570422713 269.31771275414235 380.9929157931609C273.8058148838992 336.2409745440504 268.7389391702026 251.79167269915547 296.1429060072353 242.61995220244864C323.546872844268 233.44823170574182 351.73327811153877 306.5174574359793 400.8567535718989 336.9686574089685C449.980229032259 367.4198573819577 517.8377644715155 343.925809332963 531.9355882169635 388.78571207279685C546.0334119624115 433.6456148126307 509.182982380681 528.6700546107321 468.52630755004964 552.2961905601712 "></path>
        <path
            d="M527.0491295957551 389.2010826316964C540.6248117210014 432.39950749227717 505.13921286452 523.9045235941526 465.9883408053936 546.6556174713903C426.83746874626706 569.4067113486279 378.029909652587 517.4382771422199 339.12494371194794 498.4063332424374C300.21997777130883 479.3743893426548 292.77931712343184 479.616750253673 279.2445042903257 455.30228675243427C265.70969145721966 430.98782325119555 269.83596598808737 424.79137038007923 274.15784211303844 381.6969084364914C278.47971823798946 338.6024464929036 273.6005045877631 257.2808965681899 299.98950969009087 248.448869423213C326.3785147924187 239.61684227823605 353.52097912386455 309.9798003888351 400.8250666042114 339.3031781406025C448.1291540845582 368.6265558923698 513.4734474705089 346.0026577711157 527.0491295957551 389.2010826316964C540.6248117210014 432.39950749227717 505.13921286452 523.9045235941526 465.9883408053936 546.6556174713903 "></path>
        <path
            d="M522.1625794218123 389.61639215543977C535.2161199268567 431.1533391367674 501.09535179562477 519.1389315424169 463.45028250800317 541.0149833474532C425.80521322038146 562.8910351524893 378.8748679379968 512.9213868770971 341.46624684122844 494.6214408196138C304.05762574446015 476.32149476213056 296.9031443522707 476.554534099648 283.88890124351485 453.17524227153376C270.874658134759 429.79595044341966 274.84222979905485 423.8378226827309 278.9978799192001 382.40084004466576C283.15353003934536 340.9638574066005 278.4619784525892 262.7700594020681 303.83602182021207 254.27772560882107C329.21006518783497 245.78539181557403 355.308588583456 313.44208230653464 400.7932880837895 341.6376378370802C446.2779875841229 369.83319336762577 509.10903891676776 348.07944517411215 522.1625794218123 389.61639215543977C535.2161199268567 431.1533391367674 501.09535179562477 519.1389315424169 463.45028250800317 541.0149833474532 "></path>
        <path
            d="M517.2760902830257 390.03173219676125C529.8074891678684 429.90720129883584 497.0515517618858 514.3733700082594 460.912285245769 535.3743797410941C424.7730187296521 556.3753894739289 379.71988725856284 508.4045271295522 343.80761100566525 490.8365789143684C307.89533475276767 473.2686306991844 301.02703261626584 473.4923484632012 288.5333592318602 451.0482283082115C276.03968584745456 428.6041081532219 279.84855464517864 422.8843055029608 283.837978760518 383.10480217041817C287.82740287585744 343.32529883787555 283.3235133525716 268.25925275352444 307.6825949854896 260.1066123120073C332.0416766184075 251.95397187049014 357.09625907820373 316.9043947418123 400.76157059852386 343.97212805113605C444.4268821188439 371.0398613604598 504.744691398183 350.1562630946867 517.2760902830257 390.03173219676125C529.8074891678684 429.90720129883584 497.0515517618858 514.3733700082594 460.912285245769 535.3743797410941 "></path>
        <path
            d="M512.389570626661 390.4471027556608C524.398827891302 428.6610939784822 493.00772121056855 509.6078389916797 458.3742574659566 529.7338066523131C423.7407937213447 549.8597743129465 380.5648760615508 503.88769789958553 346.14894465252394 487.051747526701C311.73301324349706 470.2157971538164 305.1508903626828 470.43019334433245 293.17778670262743 448.92124486246735C281.204683042572 427.41229638060236 284.85484897372424 421.93081884076867 288.67804708425786 383.8087948137487C292.50124519479147 345.6867707867287 288.1850177349759 273.74847662255894 311.5291376331889 265.9355295327716C334.8732575314019 258.12258244298437 358.88389905537326 320.36673769466813 400.72982259568005 346.30664878277C442.57574613598683 372.2465598708719 500.38031336202016 352.2331115328394 512.389570626661 390.4471027556608C524.398827891302 428.6610939784822 493.00772121056855 509.6078389916797 458.3742574659566 529.7338066523131 "></path>
        <path
            d="M507.50311200545264 390.8624427969823C518.9902276498917 427.4149561405506 488.96395169440757 504.8422774575222 455.83629072130054 524.093203045954C422.7086297481935 543.3441286343859 381.409925899695 499.37083815204073 348.4903393345389 483.26688562145546C315.57075276938275 467.1629330908702 309.27480914425604 467.36800770788557 297.8222752085509 446.7942308991451C286.3697412728457 426.2204540904046 289.8612043374261 420.97730166099853 293.5181764431539 384.5127569395012C297.1751485488817 348.04821221800375 293.04658315253636 279.23766997401526 315.37574131604447 271.76441623595787C337.7048994795526 264.2911624979005 360.6716000676991 323.8290501299458 400.69813562799254 348.6411389968259C440.72467118828604 373.453227863706 496.01599636101344 354.309929453414 507.50311200545264 390.8624427969823C518.9902276498917 427.4149561405506 488.96395169440757 504.8422774575222 455.83629072130054 524.093203045954 "></path>
        <path
            d="M502.61657709029885 391.2777828383038C513.5815511145363 426.168818302619 484.9201058843014 500.07671592336465 453.2982476826992 518.4525994395949C421.676389481097 536.8284829558254 382.25489944389386 494.85397840449593 350.8316577226085 479.48202371621005C319.4084160013231 464.11006902792406 313.398651631884 464.3058220714387 302.466687420529 444.6672169358228C291.5347232091741 425.02861180020693 294.86748340718265 420.0237844812284 298.35822950810467 385.2167190652536C301.84897560902664 350.40965364927877 297.90807227615153 284.7268633254716 319.22226870495473 277.5933029391441C340.53646513375793 270.4597425528166 362.45922478607963 327.2913625652235 400.6663723663597 350.9756292108817C438.8735199466398 374.65989585654 491.6516030660615 356.38674737398856 502.61657709029885 391.2777828383038C513.5815511145363 426.168818302619 484.9201058843014 500.07671592336465 453.2982476826992 518.4525994395949 "></path>
        <path
            d="M497.7300726927233 391.6931533972034C508.17290509675877 424.92271098226547 480.8762905917732 495.311184906785 450.76023516167595 512.812026350814C420.6441797315786 530.312867794843 383.09990350567085 490.33714917452926 353.1730066282562 475.69719232854266C323.2461097508415 461.05723548255605 317.52252463709 461.2436669525699 307.11113015008533 442.54023349007866C296.6997356630806 423.8368000275873 299.8737929945173 419.07029781903634 303.1983130906335 385.9207117085841C306.5228331867497 352.77112559813196 302.7695919173448 290.2160871945061 323.0688266114431 283.4222201599084C343.3680613055414 276.6283531253108 364.2468800220382 330.7537055180793 400.63463962230503 353.31014994251575C437.0223992225718 375.8665943669522 487.2872402886877 358.4635958121413 497.7300726927233 391.6931533972034C508.17290509675877 424.92271098226547 480.8762905917732 495.311184906785 450.76023516167595 512.812026350814 "></path>
        <path
            d="M492.84355303635857 392.1084476621577C502.7642438201924 423.6765273679666 476.8324600404561 490.5455775962603 448.22220738186365 507.17137696808777C419.6119547232712 523.7971763399153 383.94489230865884 485.82024365061716 355.5143402751149 471.91228464692995C327.08378824157097 458.00432564324274 321.646382383507 458.18143553975597 311.7555576208525 440.4131737503892C301.86473285819807 422.6449119610224 304.880087323063 418.11673486289897 308.0383814143733 386.6246280579694C311.1966755056837 355.13252125303984 307.63109629974906 295.7052347695952 326.91536925914244 289.2510610867275C346.1996422185358 282.7968874038597 366.0345199992078 334.2159721769898 400.6028916194613 355.6445943802044C435.1712632397147 377.073216583419 482.92286225252474 360.5403679563487 492.84355303635857 392.1084476621577C502.7642438201924 423.6765273679666 476.8324600404561 490.5455775962603 448.22220738186365 507.17137696808777 "></path>
        <path
            d="M487.9570944151501 392.5237877034791C497.3556435787822 422.43038953003503 472.78869052429513 485.78001606210273 445.68424063720755 501.53077336172873C418.57979075011997 517.2815306613547 384.789942146803 481.30338390307236 357.8557349571298 468.1274227416844C330.9215277674566 454.9514615802965 325.77030116508024 455.1192499033091 316.400046126776 438.2861597870669C307.02979108847177 421.4530696708247 309.88644268676484 417.1632176831288 312.8785107732694 387.3285901837218C315.87057885977396 357.49396268431485 312.49266171730955 301.19442812105154 330.761972941998 295.07994778991366C349.0312841666865 288.96546745877583 367.82222101153366 337.6782846122675 400.57120465177377 357.97908459426026C433.3201882920138 378.27988457625304 478.5585452515181 362.61718587692326 487.9570944151501 392.5237877034791C497.3556435787822 422.43038953003503 472.78869052429513 485.78001606210273 445.68424063720755 501.53077336172873 "></path>
        <path
            d="M483.0705594999964 392.9391582623787C491.94696704342664 421.1842822096815 468.74484471418896 481.0144850455231 443.1461975986062 495.8902002729478C417.5475504830235 510.76591550037244 385.6349156910019 476.7865546731057 360.19705334519944 464.3425913540171C334.75919099939694 451.8986280349285 329.8941436527081 452.0570947844403 321.04445833875417 436.1591763413227C312.19477302480016 420.26125789820503 314.8927217565214 416.2097310209367 317.7185638382201 388.03258282705235C320.54440591991886 359.85543463316804 317.3541508409247 306.683651990086 334.60850033090827 300.908865010678C351.8628498208918 295.13407803127 369.6098457299141 341.1406275651233 400.5394413901409 360.31360532589423C431.46903705036766 379.4865830866652 474.1941519565662 364.69403431507595 483.0705594999964 392.9391582623787C491.94696704342664 421.1842822096815 468.74484471418896 481.0144850455231 443.1461975986062 495.8902002729478 "></path>
        <path
            d="M478.1840856199989 393.3544983037002C486.53835154322735 419.9381443717499 464.7010599392389 476.24892351136555 440.608215595161 490.2495966665888C416.5153712510832 504.2502698218119 386.479950270357 472.2696949255609 362.5384327684253 460.5577294487716C338.59691526649357 448.84576397198236 334.0180471754923 448.9949091479935 325.68893158588855 434.0321623780004C317.3598159962848 419.0694156080073 319.8990618614342 415.2562138411665 322.55867793832715 388.7365449528048C325.21829401522007 362.21687606444306 322.2157009996962 312.17284534154237 338.4550887549748 306.7377517138642C354.6944765102534 301.3026580861861 371.3975314834509 344.6029400004009 400.5077391636643 362.6480955399501C429.61794684387775 380.69325107949925 469.8298196967704 366.7708522356505 478.1840856199989 393.3544983037002C486.53835154322735 419.9381443717499 464.7010599392389 476.24892351136555 440.608215595161 490.2495966665888 "></path>
        <path
            d="M473.2975507048452 393.76983834502164C481.1296750078718 418.69200653381824 460.6572141291327 471.48336197720795 438.07017255655967 484.60899306022964C415.4831309839867 497.7346241432514 387.32492381455586 467.7528351780161 364.8797511564949 456.7728675435261C342.4345784984339 445.7928999090362 338.14188966312025 445.9327235115466 330.3333437978667 431.90514841467814C322.5247979326132 417.8775733178096 324.9053409311907 414.3026966613964 327.3987310032779 389.44050707855723C329.892121075365 364.5783174957181 327.07719012331137 317.6620386929987 342.3016161438851 312.56663841705046C357.5260421644588 307.4712381411022 373.18515620183143 348.0652524356786 400.4759759020315 364.9825857540059C427.7667956022316 381.89991907233326 465.4654264018185 368.8476701562251 473.2975507048452 393.76983834502164C481.1296750078718 418.69200653381824 460.6572141291327 471.48336197720795 438.07017255655967 484.60899306022964 "></path>
        <path
            d="M468.4110615660586 394.1851936451322C475.7210442488836 417.44588395467565 456.61341409539364 466.7178157018394 435.5321752943255 478.96840471265966C414.45093649325736 491.2189937234799 388.16994313512197 463.2359906892603 367.2211153209317 452.98802089706965C346.2722875067414 442.74005110487906 342.2657779271153 442.87055313388885 334.97780178621207 429.7781497101449C327.68982564530876 416.68574628640096 329.91166577731445 413.34919474041527 332.2388298445958 390.1444844630987C334.5659939118771 366.9397741857822 331.9387250232937 323.1512473032441 346.14818930916255 318.39554037902576C360.3576535950313 313.6398334548074 374.97282669657915 351.52758012974533 400.4442584167659 367.31709122685083C425.9156901369526 383.10660232395634 461.10107888323375 370.9245033355887 468.4110615660586 394.1851936451322C475.7210442488836 417.44588395467565 456.61341409539364 466.7178157018394 435.5321752943255 478.96840471265966 "></path>
        <path
            d="M463.524557168483 394.6005184276646C470.31239823110616 416.199730857955 452.56959880286547 461.9522389088927 432.99416277330226 473.32778584751156C413.418726743739 484.7033327861304 389.01494719689896 458.7191156829264 369.56246422657944 449.2031437330351C350.1099812562599 439.6871717831438 346.3896509323214 439.8083522386529 339.62224451576833 427.65112048803354C332.85483809921527 415.4938887374142 334.9179753646492 412.395662301856 337.0789134271247 390.8484313300621C339.2398514896002 369.3012003582682 336.800244664487 328.64042539591134 349.99474721565093 324.2244118234229C363.1892497668148 319.80839825093443 376.76048193253774 354.98987730623395 400.4125256727111 369.6515661821177C424.06456941288457 384.31325505800135 456.7367161058599 373.0013059973743 463.524557168483 394.6005184276646C470.31239823110616 416.199730857955 452.56959880286547 461.9522389088927 432.99416277330226 473.32778584751156 "></path>
        <path
            d="M458.6380527709074 395.01587372777516C464.90375221332874 414.95360827881245 448.5257835103374 457.1866926335242 430.45615025227903 467.6871974999416C412.3865169942206 478.18770236635896 389.85995125867595 454.20227119417063 371.9038131322272 445.4182970865787C353.94767500577836 436.63432297898675 350.51352393752745 436.74618186099514 344.26668724532465 425.5241217835003C338.0198505531218 414.3020617060055 339.92428495198385 411.44216038087495 341.91899700965354 391.55240871460364C343.9137090673233 371.6626570483323 341.6617643056803 334.1296340061568 353.8413051221393 330.0533137853982C366.02084593859826 325.9769935646396 378.5481371684964 358.4522050003007 400.38079292865643 371.9860716549626C422.21344868881647 385.5199383096244 452.37235332848604 375.07813917673786 458.6380527709074 395.01587372777516C464.90375221332874 414.95360827881245 448.5257835103374 457.1866926335242 430.45615025227903 467.6871974999416 "></path>
        <path
            d="M453.7515331145427 395.4312290278857C459.49509093676227 413.70748569966986 444.4819529590202 452.4211463581556 427.9181224724667 462.04660915237156C411.35429198591316 471.6720719465875 390.7049400616639 449.6854267054149 374.2451467790858 441.63345044012226C357.78535349650775 433.5814741748296 354.63738168394445 433.6840114833373 348.91111471609184 423.39712307896707C343.18484774823924 413.1102346745968 344.93057928052946 410.4886584598938 346.7590653333934 392.2563860991451C348.58755138625725 374.0241137383964 346.52326868808456 339.61884261640216 357.68784776983864 335.88221574737344C368.85242685159267 332.14558887834477 380.335777145666 361.91453269436744 400.3490449258127 374.3205771278075C420.3623127059594 386.7266215612475 448.0079752923231 377.15497235610155 453.7515331145427 395.4312290278857C459.49509093676227 413.70748569966986 444.4819529590202 452.4211463581556 427.9181224724667 462.04660915237156 "></path>
        <path
            d="M448.8650439757562 395.84656906920713C454.0864601777739 412.4613478617382 440.43815292528114 447.65558482399797 425.3801252102325 456.40600554601247C410.3220974951838 465.15642626802696 391.54995938223 445.1685669578701 376.5865109435226 437.8485885348768C361.6230625048153 430.5286101118835 358.7612699479395 430.62182584689043 353.55557270443717 421.2701091156448C348.3498754609348 411.9183923843991 349.9369041266532 409.53514128012364 351.5991641747113 392.96034822489753C353.2614242227694 376.3855551696714 351.3848035880669 345.1080359678585 361.5344209351161 341.7111024505597C371.68403828216526 338.3141689332609 382.12344764041364 365.3768451296451 400.31732744054705 376.65506734186334C418.5112072406804 387.93328955408157 443.6436277737384 379.2317902766761 448.8650439757562 395.84656906920713C454.0864601777739 412.4613478617382 440.43815292528114 447.65558482399797 425.3801252102325 456.40600554601247 "></path>
        <path
            d="M443.9785395781805 396.2619091105286C448.67781415999656 411.2152100238066 436.39433763275304 442.8900232898404 422.8421126892092 450.76540193965343C409.28988774566545 458.64078058946643 392.394963444007 440.65170721032524 378.9278598491704 434.0637266296313C365.4607562543338 427.4757460489373 362.8851429531456 427.5596402104436 358.2000154339935 419.14309515232253C353.5148879148413 410.7265500942014 354.94321371398786 408.58162410035345 356.43924775724014 393.66431035065C357.9352818004924 378.7469966009465 356.24632322926027 350.59722931931486 365.3809788416045 347.5399891537459C374.5156344539487 344.482748988177 383.9111028763723 368.8391575649228 400.28559469649235 378.9895575559192C416.6600865166124 389.1399575469156 439.27926499636453 381.3086081972507 443.9785395781805 396.2619091105286C448.67781415999656 411.2152100238066 436.39433763275304 442.8900232898404 422.8421126892092 450.76540193965343 "></path>
        <path
            d="M439.0920351806049 396.67726441063917C443.26916814221914 409.969087444664 432.3505223402249 438.12447701447184 420.304100168186 445.12481359208346C408.2576779961471 452.125150169695 393.23996750578397 436.1348627215695 381.2692087548181 430.2788799831749C369.2984500038522 424.42289724478024 367.00901595835165 424.4974698327858 362.84445816354975 417.01609644778927C358.6799003687479 409.53472306279275 359.9495233013226 407.6281221793723 361.27933133976904 394.3682877351915C362.6091393782155 381.1084532910106 361.10784287045357 356.08643792956025 369.22753674809286 353.36889111572117C377.3472306257322 350.65134430188215 385.69875811233095 372.30148525898954 400.25386195243766 381.3240630287641C414.8089657925443 390.34664079853866 434.9149022189907 383.3854413766143 439.0920351806049 396.67726441063917C443.26916814221914 409.969087444664 432.3505223402249 438.12447701447184 420.304100168186 445.12481359208346 "></path>
        <path
            d="M434.2055307830293 397.09260445196065C437.8605221244418 408.72294960673236 428.3067070476968 433.35891548031424 417.76608764716275 439.48420998572436C407.2254682466287 445.6095044911345 394.08497156756096 431.61800297402465 383.6105576604659 426.49401807792935C373.13614375337073 421.37003318183406 371.13288896355766 421.43528419633896 367.488900893106 414.889082484467C363.8449128226544 408.342880772595 364.95583288865726 406.67460499960214 366.1194149222979 395.0722498609439C367.2829969559386 383.46989472228563 365.96936251164686 361.57563128101657 373.07409465458124 359.1977778189074C380.1788267975157 356.81992435679825 387.48641334828955 375.7637976942672 400.2221292083829 383.65855324281995C412.9578450684763 391.55330879137273 430.5505394416169 385.4622592971889 434.2055307830293 397.09260445196065C437.8605221244418 408.72294960673236 428.3067070476968 433.35891548031424 417.76608764716275 439.48420998572436 "></path>
        <path
            d="M429.3190263854537 397.50794449328214C432.4518761066644 407.47681176880076 424.2628917551687 428.59335394615664 415.2280751261395 433.8436063793653C406.1932584971103 439.093858812574 394.929975629338 427.10114322647985 385.95190656611356 422.7091561726839C376.9738375028892 418.3171691188879 375.2567619687637 418.37309855989207 372.1333436226623 412.76206852114467C369.0099252765609 407.15103848239727 369.9621424759919 405.721087819832 370.9594985048268 395.77621198669635C371.9568545336616 385.8313361535607 370.83088215284016 367.0648246324729 376.92065256106963 365.0266645220936C383.01042296929916 362.98850441171436 389.2740685842482 379.22611012954485 400.1903964643282 385.9930434568758C411.10672434440824 392.75997678420674 426.186176664243 387.53907721776346 429.3190263854537 397.50794449328214C432.4518761066644 407.47681176880076 424.2628917551687 428.59335394615664 415.2280751261395 433.8436063793653 "></path>
        <path
            d="M424.4325219878781 397.92329979339263C427.04323008888696 406.23068918965816 420.2190764626406 423.82780767078805 412.6900626051162 428.2030180317953C405.1610487475919 432.57822839280254 395.774979691115 422.5842987377241 388.2932554717613 418.92430952622743C380.81153125240763 415.2643203147308 379.3806349739698 415.3109281822343 376.7777863522186 410.63506981661146C374.17493773046743 405.9592114509886 374.9684520633266 404.7675858988509 375.79958208735565 396.4801893712378C376.6307121113847 388.1927928436248 375.69240179403346 372.55403324271833 380.767210467558 370.8555664840689C385.84201914108263 369.15709972541947 391.06172382020685 382.6884378236116 400.1586637202735 388.3275489297207C409.2556036203402 393.9666600358298 421.82181388686917 389.6159103971271 424.4325219878781 397.92329979339263C427.04323008888696 406.23068918965816 420.2190764626406 423.82780767078805 412.6900626051162 428.2030180317953 "></path>
        <path
            d="M419.5460175903025 398.33862457592505C421.6345840711096 404.98453609293745 416.17526117011244 419.0622308778414 410.152050084093 422.5623991666472C404.12883899807355 426.06256745545295 396.619983752892 418.06742373139025 390.63460437740906 415.1394323621929C384.64922500192614 412.21144099299556 383.5045079791758 412.24872728699836 381.4222290817749 408.50804059450013C379.33995018437395 404.76735390200184 379.97476165066126 403.81405346029163 380.6396656698845 397.1841362382012C381.3045696891078 390.5542190161108 380.55392143522675 378.0432113353856 384.61376837404646 376.6844379284661C388.6736153128661 375.3256645215465 392.84937905616545 386.1507350001002 400.12693097621883 390.66202388498755C407.40448289627216 395.1733127698748 417.45745110949537 391.69271305891266 419.5460175903025 398.33862457592505C421.6345840711096 404.98453609293745 416.17526117011244 419.0622308778414 410.152050084093 422.5623991666472 "></path>
        <path
            d="M414.6595131927269 398.75396461724654C416.2259380533322 403.73839825500585 412.1314458775843 414.2966693436838 407.61403756306976 416.9217955602881C403.09662924855513 419.5469217768925 397.464987814669 413.5505639838454 392.9759532830568 411.3545704569474C388.4869187514446 409.15857693004943 387.62838098438186 409.18654165055153 386.06667181133116 406.3810266311778C384.50496263828046 403.57551161180413 384.98107123799593 402.86053628052144 385.4797492524134 397.88809836395365C385.9784272668308 392.9156604473858 385.4154410764201 383.5324046868419 388.46032628053484 382.51332463165227C391.5052114846496 381.4942445764626 394.6370342921241 389.6130474353779 400.09519823216414 392.9965140990434C405.5533621722041 396.37998076270884 413.0930883321215 393.76953097948723 414.6595131927269 398.75396461724654C416.2259380533322 403.73839825500585 412.1314458775843 414.2966693436838 407.61403756306976 416.9217955602881 "></path>
        <path
            d="M409.7730087951512 399.16930465856797C410.8172920355548 402.4922604170742 408.0876305850562 409.53110780952613 405.0760250420465 411.28119195392907C402.0644194990368 413.03127609833194 398.309991876446 409.0337042363006 395.3173021887045 407.5697085517019C392.32461250096304 406.10571286710325 391.7522539895879 406.12435601410465 390.7111145408874 404.25401266785553C389.669975092187 402.38366932160636 389.98738082533066 401.9070191007513 390.31983283494225 398.59206048970606C390.6522848445539 395.27710187866086 390.2769607176134 389.02159803829824 392.30688418702323 388.3422113348385C394.33680765643305 387.6628246313787 396.42468952808275 393.0753598706556 400.0634654881094 395.33100431309924C403.7022414481361 397.58664875554285 408.72872555474765 395.8463489000618 409.7730087951512 399.16930465856797C410.8172920355548 402.4922604170742 408.0876305850562 409.53110780952613 405.0760250420465 411.28119195392907 "></path>
        <path
            d="M404.8865043975756 399.5846599586785C405.4086460177774 401.24613783793166 404.0438152925281 404.7655615341576 402.53801252102323 405.64060360635904C401.03220974951836 406.51564567856053 399.154995938223 404.5168597475448 397.65865109435225 403.78486190524546C396.16230625048155 403.0528640629462 395.87612699479394 403.0621856364469 395.35555727044374 402.12701396332227C394.8349875460935 401.1918422901977 394.99369041266533 400.9535171797702 395.15991641747115 399.2960378742476C395.3261424222769 397.63855856872493 395.1384803588067 394.5108066485437 396.1534420935116 394.17111329681376C397.1684038282165 393.8314199450839 398.21234476404135 396.5376875647223 400.0317327440547 397.66550978594415C401.85112072406804 398.793332007166 404.36436277737386 397.92318207942543 404.8865043975756 399.5846599586785C405.4086460177774 401.24613783793166 404.0438152925281 404.7655615341576 402.53801252102323 405.64060360635904 "></path>
    </g>
</svg>